<?xml version="1.0" encoding="utf-8"?>
<!-- Generator: Adobe Illustrator 23.0.1, SVG Export Plug-In . SVG Version: 6.00 Build 0)  -->
<svg version="1.1" id="Ebene_3" xmlns="http://www.w3.org/2000/svg" xmlns:xlink="http://www.w3.org/1999/xlink" x="0px" y="0px"
	 viewBox="0 0 726.2 223" enable-background="new 0 0 726.2 223" xml:space="preserve">
<g>
	<line fill="none" stroke="#787878" stroke-width="2.0565" stroke-miterlimit="10" x1="62.9" y1="132.8" x2="62.9" y2="167"/>
	<g>
		<line fill="none" stroke="#1E2029" stroke-width="2.0565" stroke-miterlimit="10" x1="62.9" y1="60.1" x2="62.9" y2="96.1"/>
		<line fill="none" stroke="#1D1D1B" stroke-width="4.173" stroke-miterlimit="10" x1="55" y1="60.8" x2="70.9" y2="60.8"/>
	</g>
	<line fill="none" stroke="#EF4D7D" stroke-width="2.0565" stroke-miterlimit="10" x1="352.8" y1="60.1" x2="352.8" y2="96.1"/>
	<line fill="none" stroke="#EF4D7D" stroke-width="4.173" stroke-miterlimit="10" x1="344.8" y1="60.8" x2="360.7" y2="60.8"/>
	<line fill="none" stroke="#787878" stroke-width="2.0565" stroke-miterlimit="10" x1="352.8" y1="167.9" x2="352.8" y2="131.9"/>
	<line fill="none" stroke="#787878" stroke-width="4.173" stroke-miterlimit="10" x1="360.7" y1="167.2" x2="344.8" y2="167.2"/>
	<line fill="none" stroke="#787878" stroke-width="2.0565" stroke-miterlimit="10" x1="641.5" y1="167.9" x2="641.5" y2="131.9"/>
	<line fill="none" stroke="#787878" stroke-width="4.173" stroke-miterlimit="10" x1="649.4" y1="167.2" x2="633.6" y2="167.2"/>
	<g>
		<line fill="none" stroke="#586FF1" stroke-width="2.0565" stroke-miterlimit="10" x1="641.5" y1="60.8" x2="641.5" y2="96.8"/>
		<line fill="none" stroke="#586FF1" stroke-width="4.173" stroke-miterlimit="10" x1="633.6" y1="61.5" x2="649.4" y2="61.5"/>
	</g>
	<line fill="none" stroke="#787878" stroke-width="4.173" stroke-miterlimit="10" x1="55" y1="166.3" x2="70.9" y2="166.3"/>
	<g>
		
			<line fill="#1E2029" stroke="#1E2029" stroke-width="1.7035" stroke-miterlimit="10" x1="118.5" y1="120.8" x2="298.5" y2="120.8"/>
		<polyline fill="none" stroke="#1E2029" stroke-width="2.0865" stroke-miterlimit="10" points="202.5,115.1 212.9,120.8 
			202.5,127.1 		"/>
	</g>
	<g>
		<rect x="7.8" y="96.5" fill="#DCE0FA" width="110.3" height="36"/>
		<text transform="matrix(1 0 0 1 24.3744 118.8248)" font-family="'Space Grotesk Medium'" font-size="16px">Program X</text>
	</g>
	<rect x="298.5" y="96.5" fill="#636CAD" width="108.6" height="36"/>
	<text transform="matrix(1 0 0 1 314.293 118.5604)" fill="#FFFFFF" font-family="'Space Grotesk Medium'" font-size="16px">Program Y</text>
	<g>
		<rect x="587" y="96.5" fill="#2F3564" width="108.9" height="36"/>
		<text transform="matrix(1 0 0 1 603.2958 118.8247)" fill="#FFFFFF" font-family="'Space Grotesk Medium'" font-size="16px">Program Z</text>
	</g>
	<text transform="matrix(1 0 0 1 3.4627 196.8846)"><tspan x="0" y="0" fill="#434343" font-family="'Space Grotesk Medium'" font-size="16px">Get entry-level/</tspan><tspan x="-1.8" y="19.2" fill="#434343" font-family="'Space Grotesk Medium'" font-size="16px">intermediate job</tspan></text>
	<text transform="matrix(1 0 0 1 281.7569 196.8845)"><tspan x="0" y="0" fill="#434343" font-family="'Space Grotesk Medium'" font-size="16px">Get advanced level</tspan><tspan x="24.9" y="19.2" fill="#434343" font-family="'Space Grotesk Medium'" font-size="16px">employment</tspan></text>
	<text transform="matrix(1 0 0 1 557.6725 196.8845)" fill="#434343" font-family="'Space Grotesk Medium'" font-size="16px">Top tier job guarantee</text>
	<g>
		<text transform="matrix(1 0 0 1 33.1869 16.8226)" font-family="'Space Grotesk Medium'" font-size="12px">BEGINNER</text>
		<text transform="matrix(1 0 0 1 308.8002 16.8226)" font-family="'Space Grotesk Medium'" font-size="12px">INTERMEDIATE</text>
		<text transform="matrix(1 0 0 1 609.4556 16.7684)" font-family="'Space Grotesk Medium'" font-size="12px">ADVANCED</text>
		<text transform="matrix(1 0 0 1 24.9029 39.7574)" font-family="'Space Grotesk Medium'" font-size="16px">Start here</text>
		<text transform="matrix(1 0 0 1 314.7251 39.7576)" fill="#EF4D7D" font-family="'Space Grotesk Medium'" font-size="16px">Start here</text>
		<text transform="matrix(1 0 0 1 603.4641 38.0014)" fill="#586FF1" font-family="'Space Grotesk Medium'" font-size="16px">Start here</text>
	</g>
	<line fill="#1E2029" stroke="#1E2029" stroke-width="1.7035" stroke-miterlimit="10" x1="407" y1="120.7" x2="587" y2="120.7"/>
	<line fill="#1E2029" stroke="#EF4D7D" stroke-width="1.7035" stroke-miterlimit="10" x1="407" y1="108.3" x2="587" y2="108.3"/>
	<polyline fill="none" stroke="#EF4D7D" stroke-width="2.0865" stroke-miterlimit="10" points="490.7,102.6 501.1,108.3 
		490.7,114.6 	"/>
</g>
</svg>
