<svg width="104" height="113" viewBox="0 0 104 113" fill="none" xmlns="http://www.w3.org/2000/svg">
<path d="M1 112V11H83V64.9106V112H1Z" fill="white" stroke="#1E2029"/>
<path d="M67.1657 49.2834L77.7722 23.5879H85.8731L75.2666 49.2834H67.1657Z" fill="#1D2A73" stroke="black"/>
<path d="M101.025 49.2834L90.4185 23.5879H82.3176L92.9241 49.2834H101.025Z" fill="#1D2A73" stroke="black"/>
<path d="M82.8089 3.11683C83.3915 2.14554 84.7991 2.14554 85.3817 3.11683L86.9524 5.73563C87.5942 6.80571 88.9268 7.2387 90.075 6.75023L92.885 5.5548C93.9272 5.11143 95.066 5.93881 94.9664 7.06702L94.6978 10.1089C94.5881 11.3519 95.4116 12.4854 96.6277 12.7652L99.6037 13.4497C100.707 13.7036 101.142 15.0423 100.399 15.8965L98.3934 18.1996C97.5741 19.1407 97.5741 20.5418 98.3934 21.4829L100.399 23.786C101.142 24.6402 100.707 25.9789 99.6037 26.2328L96.6277 26.9174C95.4116 27.1971 94.5881 28.3307 94.6978 29.5736L94.9664 32.6155C95.066 33.7437 93.9272 34.5711 92.885 34.1277L90.075 32.9323C88.9268 32.4438 87.5942 32.8768 86.9524 33.9469L85.3817 36.5657C84.7991 37.537 83.3915 37.537 82.8089 36.5657L81.2382 33.9469C80.5964 32.8768 79.2638 32.4438 78.1156 32.9323L75.3056 34.1277C74.2634 34.5711 73.1246 33.7437 73.2242 32.6155L73.4928 29.5736C73.6025 28.3307 72.779 27.1971 71.5629 26.9174L68.5869 26.2328C67.4831 25.9789 67.0482 24.6402 67.7919 23.786L69.7972 21.4829C70.6165 20.5418 70.6165 19.1407 69.7972 18.1996L67.7919 15.8965C67.0482 15.0423 67.4831 13.7036 68.5869 13.4497L71.5629 12.7652C72.779 12.4854 73.6025 11.3519 73.4928 10.1089L73.2242 7.06702C73.1246 5.93881 74.2634 5.11143 75.3056 5.5548L78.1156 6.75023C79.2638 7.2387 80.5964 6.80571 81.2382 5.73563L82.8089 3.11683Z" fill="white" stroke="black"/>
<circle cx="84.0954" cy="19.8413" r="7.43651" fill="#586FF1" stroke="black"/>
<rect x="6.90491" y="18.8413" width="19.0476" height="3" fill="#1E2029"/>
<rect x="7" y="24" width="19" height="3" fill="#1E2029"/>
<rect x="14.0477" y="35.7144" width="45.9523" height="2.38095" fill="#1E2029"/>
<rect x="14.0477" y="68" width="45.9523" height="2.38095" fill="#1E2029"/>
<rect x="14.0477" y="41.2698" width="45.9523" height="2.38095" fill="#1E2029"/>
<rect x="14.0477" y="73.5554" width="45.9523" height="2.38095" fill="#1E2029"/>
<rect x="14.0477" y="52.3809" width="45.9523" height="2.38095" fill="#1E2029"/>
<rect x="14.0477" y="46.8254" width="45.9523" height="2.38095" fill="#1E2029"/>
<rect x="14.0477" y="79.1111" width="45.9523" height="2.38095" fill="#1E2029"/>
<rect x="14.0477" y="57.9365" width="45.9523" height="2.38095" fill="#1E2029"/>
<rect x="14" y="90" width="18" height="3" fill="#1E2029"/>
</svg>
