<svg width="471" height="203" viewBox="0 0 471 203" fill="none" xmlns="http://www.w3.org/2000/svg">
<rect x="16" y="28" width="439" height="174.635" fill="white"/>
<path d="M30.44 45.336C30.44 43.208 28.968 41.816 26.856 41.816H21.928V53H24.04V48.856H25.912L27.976 53H30.312L28.04 48.68C29.48 48.248 30.44 47.032 30.44 45.336ZM24.04 43.736H26.648C27.656 43.736 28.328 44.36 28.328 45.336C28.328 46.312 27.656 46.936 26.648 46.936H24.04V43.736ZM31.6594 46.888L33.2914 47.944C33.7874 47.112 34.4434 46.568 35.4994 46.568C36.5874 46.568 37.1634 47.16 37.1634 47.912V48.104L34.1234 48.44C32.6034 48.6 31.4994 49.48 31.4994 50.744C31.4994 52.264 32.6834 53.224 34.4754 53.224C36.1554 53.224 36.7154 52.408 36.9714 51.88H37.1954V53H39.1794V47.928C39.1794 46.072 37.7714 44.84 35.6114 44.84C33.6754 44.84 32.6034 45.704 31.6594 46.888ZM33.6114 50.632C33.6114 50.168 33.9794 49.896 34.7314 49.8L37.1634 49.512V49.64C37.1634 50.728 36.3794 51.56 34.9714 51.56C34.0754 51.56 33.6114 51.176 33.6114 50.632ZM41.0285 45.064V53H43.0445V48.904C43.0445 47.496 43.7325 46.696 45.0285 46.696C46.1805 46.696 46.8205 47.352 46.8205 48.456V53H48.8365V48.264C48.8365 46.2 47.5085 44.936 45.7485 44.936C44.2925 44.936 43.5565 45.608 43.2365 46.344H43.0125V45.064H41.0285ZM58.9445 45.064H56.1285L52.8965 47.784H52.7045V41.8H50.6885V53H52.7045V50.264L53.9205 49.256L56.4805 53H58.8165L55.3445 48.056L58.9445 45.064Z" fill="#1E2029"/>
<path d="M167.128 41.8V43.72H170.52V53H172.632V43.72H176.024V41.8H167.128ZM175.138 48.968C175.138 51.432 176.85 53.224 179.219 53.224C181.347 53.224 182.275 52.104 182.819 51.272L181.171 50.312C180.898 50.872 180.306 51.496 179.187 51.496C178.035 51.496 177.283 50.68 177.202 49.624H182.979V48.84C182.979 46.456 181.427 44.84 179.122 44.84C176.786 44.84 175.138 46.568 175.138 48.968ZM177.218 48.216C177.378 47.24 177.97 46.568 179.107 46.568C180.147 46.568 180.786 47.208 180.931 48.216H177.218ZM184.132 46.888L185.764 47.944C186.26 47.112 186.916 46.568 187.972 46.568C189.06 46.568 189.636 47.16 189.636 47.912V48.104L186.596 48.44C185.076 48.6 183.972 49.48 183.972 50.744C183.972 52.264 185.156 53.224 186.948 53.224C188.628 53.224 189.188 52.408 189.444 51.88H189.668V53H191.652V47.928C191.652 46.072 190.244 44.84 188.084 44.84C186.148 44.84 185.076 45.704 184.132 46.888ZM186.084 50.632C186.084 50.168 186.452 49.896 187.204 49.8L189.636 49.512V49.64C189.636 50.728 188.852 51.56 187.444 51.56C186.548 51.56 186.084 51.176 186.084 50.632ZM193.501 45.064V53H195.517V48.168C195.517 47.176 196.125 46.696 196.957 46.696C197.725 46.696 198.253 47.112 198.253 47.848V53H200.269V48.168C200.269 47.176 200.877 46.696 201.709 46.696C202.477 46.696 203.005 47.112 203.005 47.848V53H205.021V47.688C205.021 46.04 203.853 44.936 202.397 44.936C201.133 44.936 200.493 45.544 200.141 46.28H199.917C199.581 45.48 198.829 44.936 197.805 44.936C196.701 44.936 196.045 45.48 195.709 46.248H195.485V45.064H193.501Z" fill="#1E2029"/>
<path d="M309.752 41.576C307.576 41.576 305.864 42.824 305.864 44.824C305.864 46.856 307.24 47.656 309.56 48.168L309.704 48.2C311.176 48.52 312.008 48.84 312.008 49.816C312.008 50.648 311.368 51.368 310.008 51.368C308.312 51.368 307.528 50.44 307.528 49.064V48.776H305.448V49.128C305.448 51.752 307.208 53.224 309.944 53.224C312.328 53.224 314.088 51.96 314.088 49.704C314.088 47.672 312.728 46.856 310.424 46.344L310.28 46.312C308.936 46.008 307.944 45.816 307.944 44.76C307.944 43.992 308.632 43.432 309.752 43.432C311.032 43.432 311.848 43.992 311.848 45.272V45.608H313.896V45.128C313.896 42.888 312.152 41.576 309.752 41.576ZM315.232 49.032C315.232 51.496 317.056 53.224 319.36 53.224C321.584 53.224 322.976 51.992 323.36 50.184L321.376 49.688C321.168 50.728 320.608 51.432 319.392 51.432C318.096 51.432 317.248 50.472 317.248 49.032C317.248 47.592 318.176 46.632 319.392 46.632C320.608 46.632 321.232 47.432 321.376 48.392L323.36 47.88C322.944 46.072 321.568 44.84 319.36 44.84C317.056 44.84 315.232 46.568 315.232 49.032ZM324.283 49.032C324.283 51.528 326.107 53.224 328.443 53.224C330.779 53.224 332.603 51.528 332.603 49.032C332.603 46.536 330.779 44.84 328.443 44.84C326.107 44.84 324.283 46.536 324.283 49.032ZM326.299 49.032C326.299 47.592 327.163 46.632 328.443 46.632C329.723 46.632 330.587 47.592 330.587 49.032C330.587 50.472 329.723 51.432 328.443 51.432C327.163 51.432 326.299 50.472 326.299 49.032ZM336.063 45.064H334.079V53H336.095V48.52C336.095 47.4 336.831 46.856 337.855 46.856H339.039V45.032H338.271C337.263 45.032 336.591 45.336 336.287 46.216H336.063V45.064ZM339.509 48.968C339.509 51.432 341.221 53.224 343.589 53.224C345.717 53.224 346.645 52.104 347.189 51.272L345.541 50.312C345.269 50.872 344.677 51.496 343.557 51.496C342.405 51.496 341.653 50.68 341.573 49.624H347.349V48.84C347.349 46.456 345.797 44.84 343.493 44.84C341.157 44.84 339.509 46.568 339.509 48.968ZM341.589 48.216C341.749 47.24 342.341 46.568 343.477 46.568C344.517 46.568 345.157 47.208 345.301 48.216H341.589Z" fill="#1E2029"/>
<rect width="439" height="38.5934" transform="translate(16 94.5737)" fill="white"/>
<path d="M24.96 111.854V113.262H26.992V115.278H24.96V116.686H26.992V119.87H28.496V116.686H30.448V119.87H31.952V116.686H33.984V115.278H31.952V113.262H33.984V111.854H31.952V108.67H30.448V111.854H28.496V108.67H26.992V111.854H24.96ZM28.496 113.262H30.448V115.278H28.496V113.262ZM35.8335 112.254V112.702H37.4335V112.35C37.4335 110.782 38.3455 109.918 39.9455 109.918C41.1935 109.918 42.1695 110.67 42.1695 111.998C42.1695 113.582 41.0175 114.174 39.1615 114.782C37.1295 115.454 35.8335 116.334 35.8335 118.43V119.87H43.6095V118.398H37.4655V118.238C37.4655 116.958 38.2655 116.59 39.8335 116.062C41.9935 115.342 43.7695 114.478 43.7695 112.062C43.7695 109.886 42.1535 108.446 39.9455 108.446C37.4975 108.446 35.8335 109.934 35.8335 112.254Z" fill="#1E2029"/>
<path d="M168.6 108.67L165.144 119.87H166.808L167.624 117.15H172.072L172.888 119.87H174.552L171.096 108.67H168.6ZM168.024 115.71L169.752 110.046H169.944L171.672 115.71H168.024ZM177.407 112.014H175.935V119.87H177.439V115.166C177.439 113.902 178.175 113.31 179.279 113.31H180.511V111.982H179.599C178.559 111.982 177.935 112.286 177.631 113.086H177.407V112.014ZM181.666 109.63C181.666 110.286 182.162 110.766 182.818 110.766C183.49 110.766 183.986 110.286 183.986 109.63C183.986 108.958 183.49 108.478 182.818 108.478C182.162 108.478 181.666 108.958 181.666 109.63ZM183.57 112.014H182.082V121.31C182.082 121.63 181.922 121.79 181.634 121.79H180.146V123.07H182.242C183.026 123.07 183.57 122.542 183.57 121.742V112.014ZM193.256 119.87V112.014H191.752V116.014C191.752 117.758 190.824 118.686 189.384 118.686C188.088 118.686 187.304 117.998 187.304 116.606V112.014H185.8V116.75C185.8 118.862 187.192 120.014 188.888 120.014C190.424 120.014 191.192 119.278 191.56 118.51H191.784V119.87H193.256ZM195.556 112.014V119.87H197.06V115.87C197.06 114.126 197.988 113.198 199.428 113.198C200.724 113.198 201.508 113.886 201.508 115.278V119.87H203.012V115.134C203.012 113.022 201.62 111.87 199.924 111.87C198.388 111.87 197.62 112.606 197.252 113.374H197.028V112.014H195.556ZM210.126 108.67V119.87H211.71V110.238H211.902L215.598 119.87H218.382V108.67H216.798V118.286H216.606L212.91 108.67H210.126ZM220.372 114.046L221.62 114.766C222.068 113.79 222.836 113.038 224.116 113.038C225.396 113.038 226.1 113.79 226.1 114.798V115.07L222.788 115.406C221.252 115.55 220.164 116.27 220.164 117.726C220.164 119.166 221.348 120.094 223.108 120.094C224.772 120.094 225.492 119.342 225.908 118.638H226.132V119.87H227.604V114.894C227.604 113.006 226.276 111.79 224.18 111.79C222.084 111.79 220.964 113.022 220.372 114.046ZM221.716 117.71C221.716 117.054 222.244 116.686 223.156 116.59L226.1 116.286V116.398C226.1 117.886 225.012 118.83 223.412 118.83C222.372 118.83 221.716 118.382 221.716 117.71ZM228.705 112.014V113.294H230.993V118.542C230.993 119.342 231.553 119.87 232.337 119.87H234.481V118.59H232.945C232.657 118.59 232.497 118.43 232.497 118.11V113.294H234.929V112.014H232.497V109.326H230.993V112.014H228.705ZM236.684 108.67V119.87H238.188V115.87C238.188 114.126 239.116 113.198 240.556 113.198C241.852 113.198 242.636 113.886 242.636 115.278V119.87H244.14V115.134C244.14 113.022 242.748 111.87 241.052 111.87C239.516 111.87 238.748 112.606 238.38 113.374H238.188V108.67H236.684Z" fill="#1E2029"/>
<path d="M306.544 112.318C306.544 114.622 308.192 116.11 310.064 116.11C311.648 116.11 312.368 115.342 312.752 114.734H312.944V116.238C312.944 117.646 312.032 118.622 310.512 118.622C308.992 118.622 308.304 117.822 308.304 116.606H306.704C306.704 118.766 308.224 120.094 310.512 120.094C312.848 120.094 314.544 118.51 314.544 116.222V112.302C314.544 109.998 312.832 108.446 310.576 108.446C308.256 108.446 306.544 110.014 306.544 112.318ZM310.576 114.702C309.12 114.702 308.144 113.742 308.144 112.318C308.144 110.894 309.12 109.918 310.576 109.918C311.968 109.918 312.944 110.894 312.944 112.318C312.944 113.742 311.968 114.702 310.576 114.702ZM316.016 112.318C316.016 114.622 317.664 116.11 319.536 116.11C321.121 116.11 321.841 115.342 322.225 114.734H322.417V116.238C322.417 117.646 321.504 118.622 319.984 118.622C318.464 118.622 317.776 117.822 317.776 116.606H316.176C316.176 118.766 317.697 120.094 319.984 120.094C322.321 120.094 324.017 118.51 324.017 116.222V112.302C324.017 109.998 322.305 108.446 320.049 108.446C317.728 108.446 316.016 110.014 316.016 112.318ZM320.049 114.702C318.592 114.702 317.616 113.742 317.616 112.318C317.616 110.894 318.592 109.918 320.049 109.918C321.441 109.918 322.417 110.894 322.417 112.318C322.417 113.742 321.441 114.702 320.049 114.702ZM325.745 118.846C325.745 119.55 326.305 120.094 326.993 120.094C327.681 120.094 328.241 119.55 328.241 118.846C328.241 118.142 327.681 117.598 326.993 117.598C326.305 117.598 325.745 118.142 325.745 118.846ZM329.743 112.318C329.743 114.622 331.391 116.11 333.263 116.11C334.847 116.11 335.567 115.342 335.951 114.734H336.143V116.238C336.143 117.646 335.231 118.622 333.711 118.622C332.191 118.622 331.503 117.822 331.503 116.606H329.903C329.903 118.766 331.423 120.094 333.711 120.094C336.047 120.094 337.743 118.51 337.743 116.222V112.302C337.743 109.998 336.031 108.446 333.775 108.446C331.455 108.446 329.743 110.014 329.743 112.318ZM333.775 114.702C332.319 114.702 331.343 113.742 331.343 112.318C331.343 110.894 332.319 109.918 333.775 109.918C335.167 109.918 336.143 110.894 336.143 112.318C336.143 113.742 335.167 114.702 333.775 114.702ZM339.215 112.318C339.215 114.622 340.863 116.11 342.735 116.11C344.319 116.11 345.039 115.342 345.423 114.734H345.615V116.238C345.615 117.646 344.703 118.622 343.183 118.622C341.663 118.622 340.975 117.822 340.975 116.606H339.375C339.375 118.766 340.895 120.094 343.183 120.094C345.519 120.094 347.215 118.51 347.215 116.222V112.302C347.215 109.998 345.503 108.446 343.247 108.446C340.927 108.446 339.215 110.014 339.215 112.318ZM343.247 114.702C341.791 114.702 340.815 113.742 340.815 112.318C340.815 110.894 341.791 109.918 343.247 109.918C344.639 109.918 345.615 110.894 345.615 112.318C345.615 113.742 344.639 114.702 343.247 114.702ZM351.344 108.67L348.208 113.566H349.968L352.048 110.158H352.24V119.87H353.84V108.67H351.344ZM358.347 108.67L355.211 113.566H356.971L359.051 110.158H359.243V119.87H360.843V108.67H358.347ZM363.095 108.67V110.142H368.455L365.351 112.91V114.382H367.095C368.279 114.382 369.255 115.134 369.255 116.398C369.255 117.694 368.311 118.622 366.823 118.622C365.239 118.622 364.263 117.678 364.263 116.254V115.598H362.663V116.35C362.663 118.558 364.423 120.094 366.855 120.094C369.063 120.094 370.855 118.606 370.855 116.43C370.855 114.446 369.479 113.166 367.783 113.166H367.367V112.974L370.663 110.094V108.67H363.095ZM380.454 116.222C380.454 113.918 378.806 112.43 376.934 112.43C375.35 112.43 374.63 113.198 374.246 113.806H374.054V112.302C374.054 110.894 374.966 109.918 376.486 109.918C378.006 109.918 378.694 110.718 378.694 111.934H380.294C380.294 109.774 378.774 108.446 376.486 108.446C374.15 108.446 372.454 110.03 372.454 112.318V116.238C372.454 118.542 374.166 120.094 376.422 120.094C378.742 120.094 380.454 118.526 380.454 116.222ZM376.422 113.838C377.878 113.838 378.854 114.798 378.854 116.222C378.854 117.646 377.878 118.622 376.422 118.622C375.03 118.622 374.054 117.646 374.054 116.222C374.054 114.798 375.03 113.838 376.422 113.838ZM382.103 108.67V110.142H387.463L384.359 112.91V114.382H386.103C387.287 114.382 388.263 115.134 388.263 116.398C388.263 117.694 387.319 118.622 385.831 118.622C384.247 118.622 383.271 117.678 383.271 116.254V115.598H381.671V116.35C381.671 118.558 383.431 120.094 385.863 120.094C388.071 120.094 389.863 118.606 389.863 116.43C389.863 114.446 388.487 113.166 386.791 113.166H386.375V112.974L389.671 110.094V108.67H382.103ZM391.273 112.254V112.702H392.873V112.35C392.873 110.782 393.785 109.918 395.385 109.918C396.633 109.918 397.609 110.67 397.609 111.998C397.609 113.582 396.457 114.174 394.601 114.782C392.569 115.454 391.273 116.334 391.273 118.43V119.87H399.049V118.398H392.905V118.238C392.905 116.958 393.705 116.59 395.273 116.062C397.433 115.342 399.209 114.478 399.209 112.062C399.209 109.886 397.593 108.446 395.385 108.446C392.937 108.446 391.273 109.934 391.273 112.254ZM400.798 108.67V110.142H406.158L403.054 112.91V114.382H404.798C405.982 114.382 406.958 115.134 406.958 116.398C406.958 117.694 406.014 118.622 404.526 118.622C402.942 118.622 401.966 117.678 401.966 116.254V115.598H400.366V116.35C400.366 118.558 402.126 120.094 404.558 120.094C406.766 120.094 408.558 118.606 408.558 116.43C408.558 114.446 407.182 113.166 405.486 113.166H405.07V112.974L408.366 110.094V108.67H400.798ZM410.333 108.67V110.142H415.693L412.589 112.91V114.382H414.333C415.517 114.382 416.493 115.134 416.493 116.398C416.493 117.694 415.549 118.622 414.061 118.622C412.477 118.622 411.501 117.678 411.501 116.254V115.598H409.901V116.35C409.901 118.558 411.661 120.094 414.093 120.094C416.301 120.094 418.093 118.606 418.093 116.43C418.093 114.446 416.717 113.166 415.021 113.166H414.605V112.974L417.901 110.094V108.67H410.333ZM423.756 108.67L419.308 116.286V117.694H424.876V119.87H426.476V117.694H428.364V116.222H426.476V108.67H423.756ZM424.684 109.934H424.876V116.222H421.084L424.684 109.934ZM437.445 116.222C437.445 113.918 435.797 112.43 433.925 112.43C432.341 112.43 431.621 113.198 431.237 113.806H431.045V112.302C431.045 110.894 431.957 109.918 433.477 109.918C434.997 109.918 435.685 110.718 435.685 111.934H437.285C437.285 109.774 435.765 108.446 433.477 108.446C431.141 108.446 429.445 110.03 429.445 112.318V116.238C429.445 118.542 431.157 120.094 433.413 120.094C435.733 120.094 437.445 118.526 437.445 116.222ZM433.413 113.838C434.869 113.838 435.845 114.798 435.845 116.222C435.845 117.646 434.869 118.622 433.413 118.622C432.021 118.622 431.045 117.646 431.045 116.222C431.045 114.798 432.021 113.838 433.413 113.838Z" fill="#1E2029"/>
<rect width="439" height="38.5934" transform="translate(16 164.042)" fill="white"/>
<path d="M24.96 181.322V182.73H26.992V184.746H24.96V186.154H26.992V189.338H28.496V186.154H30.448V189.338H31.952V186.154H33.984V184.746H31.952V182.73H33.984V181.322H31.952V178.138H30.448V181.322H28.496V178.138H26.992V181.322H24.96ZM28.496 182.73H30.448V184.746H28.496V182.73ZM36.0415 178.138V179.61H41.4015L38.2975 182.378V183.85H40.0415C41.2255 183.85 42.2015 184.602 42.2015 185.866C42.2015 187.162 41.2575 188.09 39.7695 188.09C38.1855 188.09 37.2095 187.146 37.2095 185.722V185.066H35.6095V185.818C35.6095 188.026 37.3695 189.562 39.8015 189.562C42.0095 189.562 43.8015 188.074 43.8015 185.898C43.8015 183.914 42.4255 182.634 40.7295 182.634H40.3135V182.442L43.6095 179.562V178.138H36.0415Z" fill="#1E2029"/>
<path d="M166.088 178.138V189.338H167.64V179.866H167.832L170.808 189.338H173.16L176.136 179.866H176.328V189.338H177.88V178.138H175.096L172.088 187.642H171.896L168.872 178.138H166.088ZM179.705 185.354C179.705 187.77 181.353 189.562 183.753 189.562C185.849 189.562 186.761 188.442 187.289 187.498L186.025 186.81C185.673 187.562 185.017 188.25 183.737 188.25C182.297 188.25 181.353 187.274 181.273 185.882H187.433V185.162C187.433 182.778 185.881 181.258 183.641 181.258C181.353 181.258 179.705 183.002 179.705 185.354ZM181.273 184.666C181.417 183.402 182.281 182.57 183.641 182.57C184.937 182.57 185.801 183.354 185.881 184.666H181.273ZM190.677 178.138H189.173V189.338H190.677V178.138ZM192.142 181.482L195.038 189.338H197.214L200.126 181.482H198.51L196.222 187.978H196.03L193.758 181.482H192.142ZM201.203 179.098C201.203 179.754 201.699 180.234 202.355 180.234C203.027 180.234 203.523 179.754 203.523 179.098C203.523 178.426 203.027 177.946 202.355 177.946C201.699 177.946 201.203 178.426 201.203 179.098ZM203.107 181.482H201.603V189.338H203.107V181.482ZM205.403 181.482V189.338H206.907V185.338C206.907 183.594 207.835 182.666 209.275 182.666C210.571 182.666 211.355 183.354 211.355 184.746V189.338H212.859V184.602C212.859 182.49 211.467 181.338 209.771 181.338C208.235 181.338 207.467 182.074 207.099 182.842H206.875V181.482H205.403ZM219.974 178.138V189.338H221.558V184.954H224.358C226.374 184.954 227.894 183.658 227.894 181.546C227.894 179.45 226.406 178.138 224.358 178.138H219.974ZM221.558 179.562H224.198C225.51 179.562 226.31 180.314 226.31 181.546C226.31 182.778 225.51 183.53 224.198 183.53H221.558V179.562ZM228.907 183.514L230.155 184.234C230.603 183.258 231.371 182.506 232.651 182.506C233.931 182.506 234.635 183.258 234.635 184.266V184.538L231.323 184.874C229.787 185.018 228.699 185.738 228.699 187.194C228.699 188.634 229.883 189.562 231.643 189.562C233.307 189.562 234.027 188.81 234.443 188.106H234.667V189.338H236.139V184.362C236.139 182.474 234.811 181.258 232.715 181.258C230.619 181.258 229.499 182.49 228.907 183.514ZM230.251 187.178C230.251 186.522 230.779 186.154 231.691 186.058L234.635 185.754V185.866C234.635 187.354 233.547 188.298 231.947 188.298C230.907 188.298 230.251 187.85 230.251 187.178ZM245.638 189.338V181.482H244.134V185.482C244.134 187.226 243.206 188.154 241.766 188.154C240.47 188.154 239.686 187.466 239.686 186.074V181.482H238.182V186.218C238.182 188.33 239.574 189.482 241.27 189.482C242.806 189.482 243.574 188.746 243.942 187.978H244.166V189.338H245.638ZM249.442 178.138H247.938V189.338H249.442V178.138Z" fill="#1E2029"/>
<path d="M306.544 181.786C306.544 184.09 308.192 185.578 310.064 185.578C311.648 185.578 312.368 184.81 312.752 184.202H312.944V185.706C312.944 187.114 312.032 188.09 310.512 188.09C308.992 188.09 308.304 187.29 308.304 186.074H306.704C306.704 188.234 308.224 189.562 310.512 189.562C312.848 189.562 314.544 187.978 314.544 185.69V181.77C314.544 179.466 312.832 177.914 310.576 177.914C308.256 177.914 306.544 179.482 306.544 181.786ZM310.576 184.17C309.12 184.17 308.144 183.21 308.144 181.786C308.144 180.362 309.12 179.386 310.576 179.386C311.968 179.386 312.944 180.362 312.944 181.786C312.944 183.21 311.968 184.17 310.576 184.17ZM316.016 181.786C316.016 184.09 317.664 185.578 319.536 185.578C321.121 185.578 321.841 184.81 322.225 184.202H322.417V185.706C322.417 187.114 321.504 188.09 319.984 188.09C318.464 188.09 317.776 187.29 317.776 186.074H316.176C316.176 188.234 317.697 189.562 319.984 189.562C322.321 189.562 324.017 187.978 324.017 185.69V181.77C324.017 179.466 322.305 177.914 320.049 177.914C317.728 177.914 316.016 179.482 316.016 181.786ZM320.049 184.17C318.592 184.17 317.616 183.21 317.616 181.786C317.616 180.362 318.592 179.386 320.049 179.386C321.441 179.386 322.417 180.362 322.417 181.786C322.417 183.21 321.441 184.17 320.049 184.17ZM325.745 188.314C325.745 189.018 326.305 189.562 326.993 189.562C327.681 189.562 328.241 189.018 328.241 188.314C328.241 187.61 327.681 187.066 326.993 187.066C326.305 187.066 325.745 187.61 325.745 188.314ZM329.743 181.786C329.743 184.09 331.391 185.578 333.263 185.578C334.847 185.578 335.567 184.81 335.951 184.202H336.143V185.706C336.143 187.114 335.231 188.09 333.711 188.09C332.191 188.09 331.503 187.29 331.503 186.074H329.903C329.903 188.234 331.423 189.562 333.711 189.562C336.047 189.562 337.743 187.978 337.743 185.69V181.77C337.743 179.466 336.031 177.914 333.775 177.914C331.455 177.914 329.743 179.482 329.743 181.786ZM333.775 184.17C332.319 184.17 331.343 183.21 331.343 181.786C331.343 180.362 332.319 179.386 333.775 179.386C335.167 179.386 336.143 180.362 336.143 181.786C336.143 183.21 335.167 184.17 333.775 184.17ZM339.535 180.922C339.535 182.49 340.655 183.146 341.423 183.402V183.594C340.591 183.818 339.343 184.65 339.343 186.314C339.343 188.234 341.039 189.562 343.439 189.562C345.839 189.562 347.535 188.234 347.535 186.314C347.535 184.65 346.287 183.818 345.455 183.594V183.402C346.223 183.146 347.343 182.49 347.343 180.922C347.343 179.13 345.807 177.914 343.439 177.914C341.071 177.914 339.535 179.13 339.535 180.922ZM341.135 181.082C341.135 180.058 342.015 179.386 343.439 179.386C344.863 179.386 345.743 180.058 345.743 181.082C345.743 182.106 344.863 182.778 343.439 182.778C342.015 182.778 341.135 182.106 341.135 181.082ZM340.943 186.17C340.943 184.986 341.919 184.25 343.439 184.25C344.959 184.25 345.935 184.986 345.935 186.17C345.935 187.354 344.959 188.09 343.439 188.09C341.919 188.09 340.943 187.354 340.943 186.17ZM349.098 181.722V182.17H350.698V181.818C350.698 180.25 351.61 179.386 353.21 179.386C354.458 179.386 355.434 180.138 355.434 181.466C355.434 183.05 354.282 183.642 352.426 184.25C350.394 184.922 349.098 185.802 349.098 187.898V189.338H356.874V187.866H350.73V187.706C350.73 186.426 351.53 186.058 353.098 185.53C355.258 184.81 357.035 183.946 357.035 181.53C357.035 179.354 355.418 177.914 353.21 177.914C350.762 177.914 349.098 179.402 349.098 181.722ZM358.571 181.722V182.17H360.171V181.818C360.171 180.25 361.083 179.386 362.683 179.386C363.931 179.386 364.907 180.138 364.907 181.466C364.907 183.05 363.755 183.642 361.899 184.25C359.867 184.922 358.571 185.802 358.571 187.898V189.338H366.347V187.866H360.203V187.706C360.203 186.426 361.003 186.058 362.571 185.53C364.731 184.81 366.507 183.946 366.507 181.53C366.507 179.354 364.891 177.914 362.683 177.914C360.235 177.914 358.571 179.402 358.571 181.722ZM367.471 178.138V179.61H373.647L369.311 189.338H371.039L375.407 179.546V178.138H367.471ZM376.422 181.722V182.17H378.022V181.818C378.022 180.25 378.934 179.386 380.534 179.386C381.782 179.386 382.758 180.138 382.758 181.466C382.758 183.05 381.606 183.642 379.75 184.25C377.718 184.922 376.422 185.802 376.422 187.898V189.338H384.198V187.866H378.054V187.706C378.054 186.426 378.854 186.058 380.422 185.53C382.582 184.81 384.358 183.946 384.358 181.53C384.358 179.354 382.742 177.914 380.534 177.914C378.086 177.914 376.422 179.402 376.422 181.722ZM393.927 185.69C393.927 183.386 392.279 181.898 390.407 181.898C388.823 181.898 388.103 182.666 387.719 183.274H387.527V181.77C387.527 180.362 388.439 179.386 389.959 179.386C391.479 179.386 392.167 180.186 392.167 181.402H393.767C393.767 179.242 392.247 177.914 389.959 177.914C387.623 177.914 385.927 179.498 385.927 181.786V185.706C385.927 188.01 387.639 189.562 389.895 189.562C392.215 189.562 393.927 187.994 393.927 185.69ZM389.895 183.306C391.351 183.306 392.327 184.266 392.327 185.69C392.327 187.114 391.351 188.09 389.895 188.09C388.503 188.09 387.527 187.114 387.527 185.69C387.527 184.266 388.503 183.306 389.895 183.306ZM399.463 178.138L395.015 185.754V187.162H400.583V189.338H402.183V187.162H404.071V185.69H402.183V178.138H399.463ZM400.391 179.402H400.583V185.69H396.791L400.391 179.402ZM413.153 185.69C413.153 183.386 411.505 181.898 409.633 181.898C408.049 181.898 407.329 182.666 406.945 183.274H406.753V181.77C406.753 180.362 407.665 179.386 409.185 179.386C410.705 179.386 411.393 180.186 411.393 181.402H412.993C412.993 179.242 411.473 177.914 409.185 177.914C406.849 177.914 405.153 179.498 405.153 181.786V185.706C405.153 188.01 406.865 189.562 409.121 189.562C411.441 189.562 413.153 187.994 413.153 185.69ZM409.121 183.306C410.577 183.306 411.553 184.266 411.553 185.69C411.553 187.114 410.577 188.09 409.121 188.09C407.729 188.09 406.753 187.114 406.753 185.69C406.753 184.266 407.729 183.306 409.121 183.306ZM422.625 185.69C422.625 183.386 420.977 181.898 419.105 181.898C417.521 181.898 416.801 182.666 416.417 183.274H416.225V181.77C416.225 180.362 417.137 179.386 418.657 179.386C420.177 179.386 420.865 180.186 420.865 181.402H422.465C422.465 179.242 420.945 177.914 418.657 177.914C416.321 177.914 414.625 179.498 414.625 181.786V185.706C414.625 188.01 416.337 189.562 418.593 189.562C420.913 189.562 422.625 187.994 422.625 185.69ZM418.593 183.306C420.049 183.306 421.025 184.266 421.025 185.69C421.025 187.114 420.049 188.09 418.593 188.09C417.201 188.09 416.225 187.114 416.225 185.69C416.225 184.266 417.201 183.306 418.593 183.306ZM424.194 180.922C424.194 182.49 425.314 183.146 426.082 183.402V183.594C425.25 183.818 424.002 184.65 424.002 186.314C424.002 188.234 425.698 189.562 428.098 189.562C430.498 189.562 432.194 188.234 432.194 186.314C432.194 184.65 430.946 183.818 430.114 183.594V183.402C430.882 183.146 432.002 182.49 432.002 180.922C432.002 179.13 430.466 177.914 428.098 177.914C425.73 177.914 424.194 179.13 424.194 180.922ZM425.794 181.082C425.794 180.058 426.674 179.386 428.098 179.386C429.522 179.386 430.402 180.058 430.402 181.082C430.402 182.106 429.522 182.778 428.098 182.778C426.674 182.778 425.794 182.106 425.794 181.082ZM425.602 186.17C425.602 184.986 426.578 184.25 428.098 184.25C429.618 184.25 430.594 184.986 430.594 186.17C430.594 187.354 429.618 188.09 428.098 188.09C426.578 188.09 425.602 187.354 425.602 186.17ZM437.853 178.138L433.405 185.754V187.162H438.973V189.338H440.573V187.162H442.461V185.69H440.573V178.138H437.853ZM438.781 179.402H438.973V185.69H435.181L438.781 179.402Z" fill="#1E2029"/>
<g filter="url(#filter0_d)">
<rect x="4" y="67" width="463" height="40" fill="white"/>
<path d="M12.592 84.936V86.264H14.496V88.536H12.592V89.864H14.496V93H15.904V89.864H18.016V93H19.424V89.864H21.328V88.536H19.424V86.264H21.328V84.936H19.424V81.8H18.016V84.936H15.904V81.8H14.496V84.936H12.592ZM15.904 86.264H18.016V88.536H15.904V86.264ZM25.2019 81.8L22.1459 86.712H23.8739L25.8579 83.496H26.0499V93H27.6339L27.6499 81.8H25.2019Z" fill="#1E2029"/>
<path d="M170.328 85.176C170.328 83.096 168.84 81.816 166.792 81.816H162.088V93H163.672V88.536H166.072L168.376 93H170.12L167.688 88.44C169.24 88.12 170.328 86.936 170.328 85.176ZM163.672 83.24H166.632C167.944 83.24 168.744 83.96 168.744 85.176C168.744 86.376 167.944 87.112 166.632 87.112H163.672V83.24ZM171.676 82.76C171.676 83.416 172.172 83.896 172.828 83.896C173.5 83.896 173.996 83.416 173.996 82.76C173.996 82.088 173.5 81.608 172.828 81.608C172.172 81.608 171.676 82.088 171.676 82.76ZM173.58 85.144H172.076V93H173.58V85.144ZM174.932 85.144V86.424H177.22V91.672C177.22 92.472 177.78 93 178.564 93H180.708V91.72H179.172C178.884 91.72 178.724 91.56 178.724 91.24V86.424H181.156V85.144H178.724V82.456H177.22V85.144H174.932ZM182.511 82.76C182.511 83.416 183.007 83.896 183.663 83.896C184.335 83.896 184.831 83.416 184.831 82.76C184.831 82.088 184.335 81.608 183.663 81.608C183.007 81.608 182.511 82.088 182.511 82.76ZM184.415 85.144H182.911V93H184.415V85.144ZM194.408 85.144H192.264L188.408 88.472H188.216V81.8H186.712V93H188.216V90.408L189.752 89.112L192.552 93H194.312L190.824 88.2L194.408 85.144ZM195.489 87.176L196.737 87.896C197.185 86.92 197.953 86.168 199.233 86.168C200.513 86.168 201.217 86.92 201.217 87.928V88.2L197.905 88.536C196.369 88.68 195.281 89.4 195.281 90.856C195.281 92.296 196.465 93.224 198.225 93.224C199.889 93.224 200.609 92.472 201.025 91.768H201.249V93H202.721V88.024C202.721 86.136 201.393 84.92 199.297 84.92C197.201 84.92 196.081 86.152 195.489 87.176ZM196.833 90.84C196.833 90.184 197.361 89.816 198.273 89.72L201.217 89.416V89.528C201.217 91.016 200.129 91.96 198.529 91.96C197.489 91.96 196.833 91.512 196.833 90.84ZM213.593 81.576C211.465 81.576 209.801 82.808 209.801 84.68C209.801 86.632 211.113 87.4 213.209 87.88L213.769 88.024C215.273 88.36 216.185 88.792 216.185 89.912C216.185 90.984 215.353 91.832 213.769 91.832C211.929 91.832 210.905 90.84 210.905 89.048V88.728H209.337V89.112C209.337 91.752 211.001 93.224 213.737 93.224C216.041 93.224 217.753 91.976 217.753 89.848C217.753 87.928 216.441 87.112 214.345 86.632L213.785 86.504C212.345 86.168 211.369 85.864 211.369 84.648C211.369 83.624 212.313 82.968 213.593 82.968C215.017 82.968 216.105 83.64 216.105 85.128V85.608H217.657V85.016C217.657 82.824 215.913 81.576 213.593 81.576ZM219.711 81.8V93H221.215V89C221.215 87.256 222.143 86.328 223.583 86.328C224.879 86.328 225.663 87.016 225.663 88.408V93H227.167V88.264C227.167 86.152 225.775 85 224.079 85C222.543 85 221.775 85.736 221.407 86.504H221.215V81.8H219.711ZM229.035 87.176L230.283 87.896C230.731 86.92 231.499 86.168 232.779 86.168C234.059 86.168 234.763 86.92 234.763 87.928V88.2L231.451 88.536C229.915 88.68 228.827 89.4 228.827 90.856C228.827 92.296 230.011 93.224 231.771 93.224C233.435 93.224 234.155 92.472 234.571 91.768H234.795V93H236.267V88.024C236.267 86.136 234.939 84.92 232.843 84.92C230.747 84.92 229.627 86.152 229.035 87.176ZM230.379 90.84C230.379 90.184 230.907 89.816 231.819 89.72L234.763 89.416V89.528C234.763 91.016 233.675 91.96 232.075 91.96C231.035 91.96 230.379 91.512 230.379 90.84ZM239.941 85.144H238.469V93H239.973V88.296C239.973 87.032 240.709 86.44 241.813 86.44H243.045V85.112H242.133C241.093 85.112 240.469 85.416 240.165 86.216H239.941V85.144ZM244.52 85.144V93H246.024V88.216C246.024 86.968 246.792 86.328 247.816 86.328C248.792 86.328 249.416 86.904 249.416 87.8V93H250.92V88.216C250.92 86.968 251.688 86.328 252.712 86.328C253.688 86.328 254.312 86.904 254.312 87.8V93H255.816V87.672C255.816 86.088 254.696 85 253.16 85C251.96 85 251.224 85.544 250.808 86.408H250.584C250.264 85.576 249.496 85 248.392 85C247.272 85 246.584 85.512 246.216 86.28H245.992V85.144H244.52ZM257.687 87.176L258.935 87.896C259.383 86.92 260.151 86.168 261.431 86.168C262.711 86.168 263.415 86.92 263.415 87.928V88.2L260.103 88.536C258.567 88.68 257.479 89.4 257.479 90.856C257.479 92.296 258.663 93.224 260.423 93.224C262.087 93.224 262.807 92.472 263.223 91.768H263.447V93H264.919V88.024C264.919 86.136 263.591 84.92 261.495 84.92C259.399 84.92 258.279 86.152 257.687 87.176ZM259.031 90.84C259.031 90.184 259.559 89.816 260.471 89.72L263.415 89.416V89.528C263.415 91.016 262.327 91.96 260.727 91.96C259.687 91.96 259.031 91.512 259.031 90.84Z" fill="#1E2029"/>
<path d="M313.12 81.8L310.064 86.712H311.792L313.776 83.496H313.968V93H315.552L315.568 81.8H313.12ZM317.52 86.12V88.68C317.52 91.656 319.136 93.224 321.68 93.224C324.224 93.224 325.824 91.656 325.824 88.68V86.12C325.824 83.192 324.224 81.576 321.68 81.576C319.136 81.576 317.52 83.192 317.52 86.12ZM319.104 86.04C319.104 84.184 320 82.984 321.68 82.984C323.328 82.984 324.256 84.152 324.256 86.04V88.76C324.256 90.632 323.424 91.816 321.68 91.816C319.952 91.816 319.104 90.664 319.104 88.76V86.04ZM327.415 86.12V88.68C327.415 91.656 329.031 93.224 331.575 93.224C334.119 93.224 335.719 91.656 335.719 88.68V86.12C335.719 83.192 334.119 81.576 331.575 81.576C329.031 81.576 327.415 83.192 327.415 86.12ZM328.999 86.04C328.999 84.184 329.895 82.984 331.575 82.984C333.223 82.984 334.151 84.152 334.151 86.04V88.76C334.151 90.632 333.319 91.816 331.575 91.816C329.847 91.816 328.999 90.664 328.999 88.76V86.04Z" fill="#1E2029"/>
<rect x="4.5" y="67.5" width="462" height="39" stroke="#E5E5E5"/>
</g>
<rect x="16.5" y="133.667" width="438" height="29.8747" fill="#586FF1" fill-opacity="0.13"/>
<path opacity="0.35" d="M24.96 146.588V147.996H26.992V150.012H24.96V151.42H26.992V154.604H28.496V151.42H30.448V154.604H31.952V151.42H33.984V150.012H31.952V147.996H33.984V146.588H31.952V143.404H30.448V146.588H28.496V143.404H26.992V146.588H24.96ZM28.496 147.996H30.448V150.012H28.496V147.996ZM35.8335 146.988V147.436H37.4335V147.084C37.4335 145.516 38.3455 144.652 39.9455 144.652C41.1935 144.652 42.1695 145.404 42.1695 146.732C42.1695 148.316 41.0175 148.908 39.1615 149.516C37.1295 150.188 35.8335 151.068 35.8335 153.164V154.604H43.6095V153.132H37.4655V152.972C37.4655 151.692 38.2655 151.324 39.8335 150.796C41.9935 150.076 43.7695 149.212 43.7695 146.796C43.7695 144.62 42.1535 143.18 39.9455 143.18C37.4975 143.18 35.8335 144.668 35.8335 146.988Z" fill="#1E2029"/>
<path opacity="0.35" d="M174.328 146.78C174.328 144.7 172.84 143.42 170.792 143.42H166.088V154.604H167.672V150.14H170.072L172.376 154.604H174.12L171.688 150.044C173.24 149.724 174.328 148.54 174.328 146.78ZM167.672 144.844H170.632C171.944 144.844 172.744 145.564 172.744 146.78C172.744 147.98 171.944 148.716 170.632 148.716H167.672V144.844ZM175.676 144.364C175.676 145.02 176.172 145.5 176.828 145.5C177.5 145.5 177.996 145.02 177.996 144.364C177.996 143.692 177.5 143.212 176.828 143.212C176.172 143.212 175.676 143.692 175.676 144.364ZM177.58 146.748H176.076V154.604H177.58V146.748ZM178.932 146.748V148.028H181.22V153.276C181.22 154.076 181.78 154.604 182.564 154.604H184.708V153.324H183.172C182.884 153.324 182.724 153.164 182.724 152.844V148.028H185.156V146.748H182.724V144.06H181.22V146.748H178.932ZM186.511 144.364C186.511 145.02 187.007 145.5 187.663 145.5C188.335 145.5 188.831 145.02 188.831 144.364C188.831 143.692 188.335 143.212 187.663 143.212C187.007 143.212 186.511 143.692 186.511 144.364ZM188.415 146.748H186.911V154.604H188.415V146.748ZM198.408 146.748H196.264L192.408 150.076H192.216V143.404H190.712V154.604H192.216V152.012L193.752 150.716L196.552 154.604H198.312L194.824 149.804L198.408 146.748ZM199.489 148.78L200.737 149.5C201.185 148.524 201.953 147.772 203.233 147.772C204.513 147.772 205.217 148.524 205.217 149.532V149.804L201.905 150.14C200.369 150.284 199.281 151.004 199.281 152.46C199.281 153.9 200.465 154.828 202.225 154.828C203.889 154.828 204.609 154.076 205.025 153.372H205.249V154.604H206.721V149.628C206.721 147.74 205.393 146.524 203.297 146.524C201.201 146.524 200.081 147.756 199.489 148.78ZM200.833 152.444C200.833 151.788 201.361 151.42 202.273 151.324L205.217 151.02V151.132C205.217 152.62 204.129 153.564 202.529 153.564C201.489 153.564 200.833 153.116 200.833 152.444ZM217.593 143.18C215.465 143.18 213.801 144.412 213.801 146.284C213.801 148.236 215.113 149.004 217.209 149.484L217.769 149.628C219.273 149.964 220.185 150.396 220.185 151.516C220.185 152.588 219.353 153.436 217.769 153.436C215.929 153.436 214.905 152.444 214.905 150.652V150.332H213.337V150.716C213.337 153.356 215.001 154.828 217.737 154.828C220.041 154.828 221.753 153.58 221.753 151.452C221.753 149.532 220.441 148.716 218.345 148.236L217.785 148.108C216.345 147.772 215.369 147.468 215.369 146.252C215.369 145.228 216.313 144.572 217.593 144.572C219.017 144.572 220.105 145.244 220.105 146.732V147.212H221.657V146.62C221.657 144.428 219.913 143.18 217.593 143.18ZM223.711 143.404V154.604H225.215V150.604C225.215 148.86 226.143 147.932 227.583 147.932C228.879 147.932 229.663 148.62 229.663 150.012V154.604H231.167V149.868C231.167 147.756 229.775 146.604 228.079 146.604C226.543 146.604 225.775 147.34 225.407 148.108H225.215V143.404H223.711ZM233.035 148.78L234.283 149.5C234.731 148.524 235.499 147.772 236.779 147.772C238.059 147.772 238.763 148.524 238.763 149.532V149.804L235.451 150.14C233.915 150.284 232.827 151.004 232.827 152.46C232.827 153.9 234.011 154.828 235.771 154.828C237.435 154.828 238.155 154.076 238.571 153.372H238.795V154.604H240.267V149.628C240.267 147.74 238.939 146.524 236.843 146.524C234.747 146.524 233.627 147.756 233.035 148.78ZM234.379 152.444C234.379 151.788 234.907 151.42 235.819 151.324L238.763 151.02V151.132C238.763 152.62 237.675 153.564 236.075 153.564C235.035 153.564 234.379 153.116 234.379 152.444ZM243.941 146.748H242.469V154.604H243.973V149.9C243.973 148.636 244.709 148.044 245.813 148.044H247.045V146.716H246.133C245.093 146.716 244.469 147.02 244.165 147.82H243.941V146.748ZM248.52 146.748V154.604H250.024V149.82C250.024 148.572 250.792 147.932 251.816 147.932C252.792 147.932 253.416 148.508 253.416 149.404V154.604H254.92V149.82C254.92 148.572 255.688 147.932 256.712 147.932C257.688 147.932 258.312 148.508 258.312 149.404V154.604H259.816V149.276C259.816 147.692 258.696 146.604 257.16 146.604C255.96 146.604 255.224 147.148 254.808 148.012H254.584C254.264 147.18 253.496 146.604 252.392 146.604C251.272 146.604 250.584 147.116 250.216 147.884H249.992V146.748H248.52ZM261.687 148.78L262.935 149.5C263.383 148.524 264.151 147.772 265.431 147.772C266.711 147.772 267.415 148.524 267.415 149.532V149.804L264.103 150.14C262.567 150.284 261.479 151.004 261.479 152.46C261.479 153.9 262.663 154.828 264.423 154.828C266.087 154.828 266.807 154.076 267.223 153.372H267.447V154.604H268.919V149.628C268.919 147.74 267.591 146.524 265.495 146.524C263.399 146.524 262.279 147.756 261.687 148.78ZM263.031 152.444C263.031 151.788 263.559 151.42 264.471 151.324L267.415 151.02V151.132C267.415 152.62 266.327 153.564 264.727 153.564C263.687 153.564 263.031 153.116 263.031 152.444Z" fill="#1E2029"/>
<path opacity="0.35" d="M306.544 147.052C306.544 149.356 308.192 150.844 310.064 150.844C311.648 150.844 312.368 150.076 312.752 149.468H312.944V150.972C312.944 152.38 312.032 153.356 310.512 153.356C308.992 153.356 308.304 152.556 308.304 151.34H306.704C306.704 153.5 308.224 154.828 310.512 154.828C312.848 154.828 314.544 153.244 314.544 150.956V147.036C314.544 144.732 312.832 143.18 310.576 143.18C308.256 143.18 306.544 144.748 306.544 147.052ZM310.576 149.436C309.12 149.436 308.144 148.476 308.144 147.052C308.144 145.628 309.12 144.652 310.576 144.652C311.968 144.652 312.944 145.628 312.944 147.052C312.944 148.476 311.968 149.436 310.576 149.436ZM316.016 147.052C316.016 149.356 317.664 150.844 319.536 150.844C321.121 150.844 321.841 150.076 322.225 149.468H322.417V150.972C322.417 152.38 321.504 153.356 319.984 153.356C318.464 153.356 317.776 152.556 317.776 151.34H316.176C316.176 153.5 317.697 154.828 319.984 154.828C322.321 154.828 324.017 153.244 324.017 150.956V147.036C324.017 144.732 322.305 143.18 320.049 143.18C317.728 143.18 316.016 144.748 316.016 147.052ZM320.049 149.436C318.592 149.436 317.616 148.476 317.616 147.052C317.616 145.628 318.592 144.652 320.049 144.652C321.441 144.652 322.417 145.628 322.417 147.052C322.417 148.476 321.441 149.436 320.049 149.436ZM325.745 153.58C325.745 154.284 326.305 154.828 326.993 154.828C327.681 154.828 328.241 154.284 328.241 153.58C328.241 152.876 327.681 152.332 326.993 152.332C326.305 152.332 325.745 152.876 325.745 153.58ZM329.743 147.052C329.743 149.356 331.391 150.844 333.263 150.844C334.847 150.844 335.567 150.076 335.951 149.468H336.143V150.972C336.143 152.38 335.231 153.356 333.711 153.356C332.191 153.356 331.503 152.556 331.503 151.34H329.903C329.903 153.5 331.423 154.828 333.711 154.828C336.047 154.828 337.743 153.244 337.743 150.956V147.036C337.743 144.732 336.031 143.18 333.775 143.18C331.455 143.18 329.743 144.748 329.743 147.052ZM333.775 149.436C332.319 149.436 331.343 148.476 331.343 147.052C331.343 145.628 332.319 144.652 333.775 144.652C335.167 144.652 336.143 145.628 336.143 147.052C336.143 148.476 335.167 149.436 333.775 149.436ZM339.535 146.188C339.535 147.756 340.655 148.412 341.423 148.668V148.86C340.591 149.084 339.343 149.916 339.343 151.58C339.343 153.5 341.039 154.828 343.439 154.828C345.839 154.828 347.535 153.5 347.535 151.58C347.535 149.916 346.287 149.084 345.455 148.86V148.668C346.223 148.412 347.343 147.756 347.343 146.188C347.343 144.396 345.807 143.18 343.439 143.18C341.071 143.18 339.535 144.396 339.535 146.188ZM341.135 146.348C341.135 145.324 342.015 144.652 343.439 144.652C344.863 144.652 345.743 145.324 345.743 146.348C345.743 147.372 344.863 148.044 343.439 148.044C342.015 148.044 341.135 147.372 341.135 146.348ZM340.943 151.436C340.943 150.252 341.919 149.516 343.439 149.516C344.959 149.516 345.935 150.252 345.935 151.436C345.935 152.62 344.959 153.356 343.439 153.356C341.919 153.356 340.943 152.62 340.943 151.436ZM349.098 146.988V147.436H350.698V147.084C350.698 145.516 351.61 144.652 353.21 144.652C354.458 144.652 355.434 145.404 355.434 146.732C355.434 148.316 354.282 148.908 352.426 149.516C350.394 150.188 349.098 151.068 349.098 153.164V154.604H356.874V153.132H350.73V152.972C350.73 151.692 351.53 151.324 353.098 150.796C355.258 150.076 357.035 149.212 357.035 146.796C357.035 144.62 355.418 143.18 353.21 143.18C350.762 143.18 349.098 144.668 349.098 146.988ZM358.571 146.988V147.436H360.171V147.084C360.171 145.516 361.083 144.652 362.683 144.652C363.931 144.652 364.907 145.404 364.907 146.732C364.907 148.316 363.755 148.908 361.899 149.516C359.867 150.188 358.571 151.068 358.571 153.164V154.604H366.347V153.132H360.203V152.972C360.203 151.692 361.003 151.324 362.571 150.796C364.731 150.076 366.507 149.212 366.507 146.796C366.507 144.62 364.891 143.18 362.683 143.18C360.235 143.18 358.571 144.668 358.571 146.988ZM367.471 143.404V144.876H373.647L369.311 154.604H371.039L375.407 144.812V143.404H367.471ZM376.422 146.988V147.436H378.022V147.084C378.022 145.516 378.934 144.652 380.534 144.652C381.782 144.652 382.758 145.404 382.758 146.732C382.758 148.316 381.606 148.908 379.75 149.516C377.718 150.188 376.422 151.068 376.422 153.164V154.604H384.198V153.132H378.054V152.972C378.054 151.692 378.854 151.324 380.422 150.796C382.582 150.076 384.358 149.212 384.358 146.796C384.358 144.62 382.742 143.18 380.534 143.18C378.086 143.18 376.422 144.668 376.422 146.988ZM393.927 150.956C393.927 148.652 392.279 147.164 390.407 147.164C388.823 147.164 388.103 147.932 387.719 148.54H387.527V147.036C387.527 145.628 388.439 144.652 389.959 144.652C391.479 144.652 392.167 145.452 392.167 146.668H393.767C393.767 144.508 392.247 143.18 389.959 143.18C387.623 143.18 385.927 144.764 385.927 147.052V150.972C385.927 153.276 387.639 154.828 389.895 154.828C392.215 154.828 393.927 153.26 393.927 150.956ZM389.895 148.572C391.351 148.572 392.327 149.532 392.327 150.956C392.327 152.38 391.351 153.356 389.895 153.356C388.503 153.356 387.527 152.38 387.527 150.956C387.527 149.532 388.503 148.572 389.895 148.572ZM399.463 143.404L395.015 151.02V152.428H400.583V154.604H402.183V152.428H404.071V150.956H402.183V143.404H399.463ZM400.391 144.668H400.583V150.956H396.791L400.391 144.668ZM413.153 150.956C413.153 148.652 411.505 147.164 409.633 147.164C408.049 147.164 407.329 147.932 406.945 148.54H406.753V147.036C406.753 145.628 407.665 144.652 409.185 144.652C410.705 144.652 411.393 145.452 411.393 146.668H412.993C412.993 144.508 411.473 143.18 409.185 143.18C406.849 143.18 405.153 144.764 405.153 147.052V150.972C405.153 153.276 406.865 154.828 409.121 154.828C411.441 154.828 413.153 153.26 413.153 150.956ZM409.121 148.572C410.577 148.572 411.553 149.532 411.553 150.956C411.553 152.38 410.577 153.356 409.121 153.356C407.729 153.356 406.753 152.38 406.753 150.956C406.753 149.532 407.729 148.572 409.121 148.572ZM422.625 150.956C422.625 148.652 420.977 147.164 419.105 147.164C417.521 147.164 416.801 147.932 416.417 148.54H416.225V147.036C416.225 145.628 417.137 144.652 418.657 144.652C420.177 144.652 420.865 145.452 420.865 146.668H422.465C422.465 144.508 420.945 143.18 418.657 143.18C416.321 143.18 414.625 144.764 414.625 147.052V150.972C414.625 153.276 416.337 154.828 418.593 154.828C420.913 154.828 422.625 153.26 422.625 150.956ZM418.593 148.572C420.049 148.572 421.025 149.532 421.025 150.956C421.025 152.38 420.049 153.356 418.593 153.356C417.201 153.356 416.225 152.38 416.225 150.956C416.225 149.532 417.201 148.572 418.593 148.572ZM423.874 147.052C423.874 149.356 425.522 150.844 427.394 150.844C428.978 150.844 429.698 150.076 430.082 149.468H430.274V150.972C430.274 152.38 429.362 153.356 427.842 153.356C426.322 153.356 425.634 152.556 425.634 151.34H424.034C424.034 153.5 425.554 154.828 427.842 154.828C430.178 154.828 431.874 153.244 431.874 150.956V147.036C431.874 144.732 430.162 143.18 427.906 143.18C425.586 143.18 423.874 144.748 423.874 147.052ZM427.906 149.436C426.45 149.436 425.474 148.476 425.474 147.052C425.474 145.628 426.45 144.652 427.906 144.652C429.298 144.652 430.274 145.628 430.274 147.052C430.274 148.476 429.298 149.436 427.906 149.436ZM433.746 143.404V144.876H439.106L436.002 147.644V149.116H437.746C438.93 149.116 439.906 149.868 439.906 151.132C439.906 152.428 438.962 153.356 437.474 153.356C435.89 153.356 434.914 152.412 434.914 150.988V150.332H433.314V151.084C433.314 153.292 435.074 154.828 437.506 154.828C439.714 154.828 441.506 153.34 441.506 151.164C441.506 149.18 440.13 147.9 438.434 147.9H438.018V147.708L441.314 144.828V143.404H433.746Z" fill="#1E2029"/>
<rect x="16.5" y="133.667" width="438" height="29.8747" stroke="#E5E5E5"/>
<rect width="439" height="28" transform="translate(16)" fill="white"/>
<path d="M24.928 8.8V20H27.04V8.8H24.928ZM29.0567 8.8V20H31.1688V8.8H29.0567ZM32.3855 8.8V10.72H35.7775V20H37.8895V10.72H41.2815V8.8H32.3855ZM47.5182 16.832H54.6862V15.008H47.5182V16.832ZM61.7236 8.8V20H63.7716V11.04H63.9636L66.2836 20H69.3876L71.7076 11.04H71.8996V20H73.9476V8.8H70.2996L67.9316 17.792H67.7396L65.3716 8.8H61.7236ZM83.6417 20V12.064H81.6257V16.16C81.6257 17.568 80.9377 18.368 79.6417 18.368C78.4897 18.368 77.8497 17.712 77.8497 16.608V12.064H75.8337V16.8C75.8337 18.864 77.1617 20.128 78.9217 20.128C80.3777 20.128 81.1137 19.456 81.4337 18.72H81.6577V20H83.6417ZM85.5897 12.064V20H87.6057V15.168C87.6057 14.176 88.2137 13.696 89.0457 13.696C89.8137 13.696 90.3417 14.112 90.3417 14.848V20H92.3577V15.168C92.3577 14.176 92.9657 13.696 93.7977 13.696C94.5657 13.696 95.0937 14.112 95.0937 14.848V20H97.1097V14.688C97.1097 13.04 95.9417 11.936 94.4857 11.936C93.2217 11.936 92.5817 12.544 92.2297 13.28H92.0057C91.6697 12.48 90.9177 11.936 89.8937 11.936C88.7897 11.936 88.1337 12.48 87.7977 13.248H87.5737V12.064H85.5897ZM98.9685 8.8V20H100.953V18.88H101.177C101.593 19.552 102.297 20.224 103.705 20.224C105.689 20.224 107.353 18.464 107.353 16.032C107.353 13.6 105.689 11.84 103.705 11.84C102.297 11.84 101.593 12.512 101.177 13.184H100.985V8.8H98.9685ZM103.161 13.632C104.377 13.632 105.337 14.496 105.337 16.032C105.337 17.568 104.377 18.432 103.161 18.432C101.913 18.432 100.985 17.536 100.985 16.032C100.985 14.528 101.913 13.632 103.161 13.632ZM108.576 13.888L110.208 14.944C110.704 14.112 111.36 13.568 112.416 13.568C113.504 13.568 114.08 14.16 114.08 14.912V15.104L111.04 15.44C109.52 15.6 108.416 16.48 108.416 17.744C108.416 19.264 109.6 20.224 111.392 20.224C113.072 20.224 113.632 19.408 113.888 18.88H114.112V20H116.096V14.928C116.096 13.072 114.688 11.84 112.528 11.84C110.592 11.84 109.52 12.704 108.576 13.888ZM110.528 17.632C110.528 17.168 110.896 16.896 111.648 16.8L114.08 16.512V16.64C114.08 17.728 113.296 18.56 111.888 18.56C110.992 18.56 110.528 18.176 110.528 17.632ZM117.529 9.76C117.529 10.576 118.153 11.136 118.953 11.136C119.753 11.136 120.377 10.576 120.377 9.76C120.377 8.944 119.753 8.384 118.953 8.384C118.153 8.384 117.529 8.944 117.529 9.76ZM119.961 12.064H117.945V20H119.961V12.064ZM126.422 8.8V20H133.718V18.08H128.534V8.8H126.422ZM134.492 15.968C134.492 18.432 136.204 20.224 138.572 20.224C140.7 20.224 141.628 19.104 142.172 18.272L140.524 17.312C140.252 17.872 139.66 18.496 138.54 18.496C137.388 18.496 136.636 17.68 136.556 16.624H142.332V15.84C142.332 13.456 140.78 11.84 138.476 11.84C136.14 11.84 134.492 13.568 134.492 15.968ZM136.572 15.216C136.732 14.24 137.324 13.568 138.46 13.568C139.5 13.568 140.14 14.208 140.284 15.216H136.572ZM143.485 13.888L145.117 14.944C145.613 14.112 146.269 13.568 147.325 13.568C148.413 13.568 148.989 14.16 148.989 14.912V15.104L145.949 15.44C144.429 15.6 143.325 16.48 143.325 17.744C143.325 19.264 144.509 20.224 146.301 20.224C147.981 20.224 148.541 19.408 148.797 18.88H149.021V20H151.005V14.928C151.005 13.072 149.597 11.84 147.437 11.84C145.501 11.84 144.429 12.704 143.485 13.888ZM145.437 17.632C145.437 17.168 145.805 16.896 146.557 16.8L148.989 16.512V16.64C148.989 17.728 148.205 18.56 146.797 18.56C145.901 18.56 145.437 18.176 145.437 17.632ZM160.758 8.8H158.742V13.184H158.55C158.134 12.512 157.43 11.84 156.022 11.84C154.038 11.84 152.374 13.6 152.374 16.032C152.374 18.464 154.038 20.224 156.022 20.224C157.43 20.224 158.134 19.552 158.55 18.88H158.774V20H160.758V8.8ZM156.566 13.632C157.814 13.632 158.742 14.528 158.742 16.032C158.742 17.536 157.814 18.432 156.566 18.432C155.35 18.432 154.39 17.568 154.39 16.032C154.39 14.496 155.35 13.632 156.566 13.632ZM162.237 15.968C162.237 18.432 163.949 20.224 166.317 20.224C168.445 20.224 169.373 19.104 169.917 18.272L168.269 17.312C167.997 17.872 167.405 18.496 166.285 18.496C165.133 18.496 164.381 17.68 164.301 16.624H170.077V15.84C170.077 13.456 168.525 11.84 166.221 11.84C163.885 11.84 162.237 13.568 162.237 15.968ZM164.317 15.216C164.477 14.24 165.069 13.568 166.205 13.568C167.245 13.568 167.885 14.208 168.029 15.216H164.317ZM173.471 12.064H171.487V20H173.503V15.52C173.503 14.4 174.239 13.856 175.263 13.856H176.447V12.032H175.679C174.671 12.032 173.999 12.336 173.695 13.216H173.471V12.064ZM177.631 8.8V20H179.615V18.88H179.839C180.255 19.552 180.959 20.224 182.367 20.224C184.351 20.224 186.015 18.464 186.015 16.032C186.015 13.6 184.351 11.84 182.367 11.84C180.959 11.84 180.255 12.512 179.839 13.184H179.647V8.8H177.631ZM181.823 13.632C183.039 13.632 183.999 14.496 183.999 16.032C183.999 17.568 183.039 18.432 181.823 18.432C180.575 18.432 179.647 17.536 179.647 16.032C179.647 14.528 180.575 13.632 181.823 13.632ZM187.014 16.032C187.014 18.528 188.838 20.224 191.174 20.224C193.51 20.224 195.334 18.528 195.334 16.032C195.334 13.536 193.51 11.84 191.174 11.84C188.838 11.84 187.014 13.536 187.014 16.032ZM189.03 16.032C189.03 14.592 189.894 13.632 191.174 13.632C192.454 13.632 193.318 14.592 193.318 16.032C193.318 17.472 192.454 18.432 191.174 18.432C189.894 18.432 189.03 17.472 189.03 16.032ZM196.554 13.888L198.186 14.944C198.682 14.112 199.338 13.568 200.394 13.568C201.482 13.568 202.058 14.16 202.058 14.912V15.104L199.018 15.44C197.498 15.6 196.394 16.48 196.394 17.744C196.394 19.264 197.578 20.224 199.37 20.224C201.05 20.224 201.61 19.408 201.866 18.88H202.09V20H204.074V14.928C204.074 13.072 202.666 11.84 200.506 11.84C198.57 11.84 197.498 12.704 196.554 13.888ZM198.506 17.632C198.506 17.168 198.874 16.896 199.626 16.8L202.058 16.512V16.64C202.058 17.728 201.274 18.56 199.866 18.56C198.97 18.56 198.506 18.176 198.506 17.632ZM207.907 12.064H205.923V20H207.939V15.52C207.939 14.4 208.675 13.856 209.699 13.856H210.883V12.032H210.115C209.107 12.032 208.435 12.336 208.131 13.216H207.907V12.064ZM219.738 8.8H217.722V13.184H217.53C217.114 12.512 216.41 11.84 215.002 11.84C213.018 11.84 211.354 13.6 211.354 16.032C211.354 18.464 213.018 20.224 215.002 20.224C216.41 20.224 217.114 19.552 217.53 18.88H217.754V20H219.738V8.8ZM215.546 13.632C216.794 13.632 217.722 14.528 217.722 16.032C217.722 17.536 216.794 18.432 215.546 18.432C214.33 18.432 213.37 17.568 213.37 16.032C213.37 14.496 214.33 13.632 215.546 13.632Z" fill="#1E2029"/>
<defs>
<filter id="filter0_d" x="0" y="67" width="471" height="48" filterUnits="userSpaceOnUse" color-interpolation-filters="sRGB">
<feFlood flood-opacity="0" result="BackgroundImageFix"/>
<feColorMatrix in="SourceAlpha" type="matrix" values="0 0 0 0 0 0 0 0 0 0 0 0 0 0 0 0 0 0 127 0"/>
<feOffset dy="4"/>
<feGaussianBlur stdDeviation="2"/>
<feColorMatrix type="matrix" values="0 0 0 0 0 0 0 0 0 0 0 0 0 0 0 0 0 0 0.25 0"/>
<feBlend mode="normal" in2="BackgroundImageFix" result="effect1_dropShadow"/>
<feBlend mode="normal" in="SourceGraphic" in2="effect1_dropShadow" result="shape"/>
</filter>
</defs>
</svg>
