<svg width="1662" height="1397" viewBox="0 0 1662 1397" fill="none" xmlns="http://www.w3.org/2000/svg">
<path d="M831.516 480.148L546.749 731.426L456.645 961.226L595.619 1081.77L910.604 1047.02L1281.27 870.238L1566.04 618.96L1656.15 389.16L1517.17 268.614L1202.19 303.366L831.516 480.148Z" stroke="url(#paint0_linear)" stroke-width="9" stroke-miterlimit="10"/>
<path d="M827.698 465.294L530.166 713.749L428.159 950.346L560.642 1084.72L877.011 1065.54L1256.41 900.143L1553.95 651.688L1655.95 415.091L1523.47 280.72L1207.1 299.896L827.698 465.294Z" stroke="url(#paint1_linear)" stroke-width="9" stroke-miterlimit="10"/>
<path d="M824.651 449.481L514.532 694.258L400.288 937.348L525.556 1085.9L842.493 1083.17L1230.04 930.209L1540.16 685.44L1654.4 442.351L1529.13 293.796L1212.19 296.525L824.651 449.481Z" stroke="url(#paint2_linear)" stroke-width="9" stroke-miterlimit="10"/>
<path d="M822.442 432.683L499.939 672.903L373.131 922.135L490.454 1085.19L807.103 1099.8L1202.12 960.355L1524.62 720.143L1651.43 470.91L1534.11 307.845L1217.46 293.249L822.442 432.683Z" stroke="url(#paint3_linear)" stroke-width="9" stroke-miterlimit="10"/>
<path d="M821.119 414.911L486.487 649.649L346.806 904.66L455.437 1082.53L770.889 1115.32L1172.66 990.516L1507.29 755.778L1646.96 500.768L1538.33 322.897L1222.89 290.105L821.119 414.911Z" stroke="url(#paint4_linear)" stroke-width="9" stroke-miterlimit="10"/>
<path d="M820.724 396.157L474.268 624.472L321.44 884.832L420.617 1077.8L733.916 1129.66L1141.66 1020.6L1488.12 792.281L1640.95 531.913L1541.77 338.948L1228.47 287.097L820.724 396.157Z" stroke="url(#paint5_linear)" stroke-width="9" stroke-miterlimit="10"/>
<path d="M821.307 376.406L463.384 597.318L297.138 862.585L386.084 1070.89L696.242 1142.67L1109.14 1050.5L1467.07 829.583L1633.31 564.308L1544.36 356.001L1234.2 284.228L821.307 376.406Z" stroke="url(#paint6_linear)" stroke-width="9" stroke-miterlimit="10"/>
<path d="M822.923 355.691L453.93 568.189L274.039 837.881L351.961 1061.75L657.936 1154.28L1075.09 1080.15L1444.09 867.648L1623.98 597.956L1546.05 374.089L1240.08 281.553L822.923 355.691Z" stroke="url(#paint7_linear)" stroke-width="9" stroke-miterlimit="10"/>
<path d="M825.63 333.994L446.017 537.036L252.264 810.623L318.362 1050.24L619.081 1164.38L1039.54 1109.43L1419.15 906.387L1612.91 632.807L1546.8 393.185L1246.09 279.047L825.63 333.994Z" stroke="url(#paint8_linear)" stroke-width="9" stroke-miterlimit="10"/>
<path d="M829.461 311.342L439.749 503.864L231.94 780.771L285.412 1036.3L579.742 1172.85L1002.5 1138.26L1392.22 945.742L1600.02 668.834L1546.55 413.303L1252.22 276.754L829.461 311.342Z" stroke="url(#paint9_linear)" stroke-width="9" stroke-miterlimit="10"/>
<path d="M834.478 287.738L435.218 468.634L213.214 748.271L253.244 1019.83L540.024 1179.58L964.014 1166.52L1363.27 985.622L1585.28 705.985L1545.25 434.427L1258.47 274.674L834.478 287.738Z" stroke="url(#paint10_linear)" stroke-width="9" stroke-miterlimit="10"/>
<path d="M840.713 263.207L432.544 431.365L196.204 713.079L221.976 1000.74L500.002 1184.48L924.093 1194.11L1332.26 1025.95L1568.6 744.238L1542.84 456.568L1264.81 272.833L840.713 263.207Z" stroke="url(#paint11_linear)" stroke-width="9" stroke-miterlimit="10"/>
<path d="M848.229 237.767L431.819 392.037L181.065 675.15L191.74 978.964L459.776 1187.42L882.786 1220.91L1299.2 1066.63L1549.95 783.526L1539.28 479.713L1271.24 271.251L848.229 237.767Z" stroke="url(#paint12_linear)" stroke-width="9" stroke-miterlimit="10"/>
<path d="M857.07 211.431L433.158 350.655L167.928 634.444L162.696 954.393L419.459 1188.3L840.137 1246.81L1264.05 1107.58L1529.27 823.793L1534.5 503.844L1277.75 269.946L857.07 211.431Z" stroke="url(#paint13_linear)" stroke-width="9" stroke-miterlimit="10"/>
<path d="M867.27 184.231L436.657 307.226L156.943 590.922L134.981 926.96L379.15 1186.99L796.189 1271.68L1226.8 1148.68L1506.51 864.976L1528.48 528.939L1284.31 268.913L867.27 184.231Z" stroke="url(#paint14_linear)" stroke-width="9" stroke-miterlimit="10"/>
<path d="M878.882 156.195L442.415 261.764L148.249 544.574L108.724 896.599L338.954 1183.39L750.994 1295.39L1187.45 1189.83L1481.63 907.019L1521.14 554.994L1290.91 268.202L878.882 156.195Z" stroke="url(#paint15_linear)" stroke-width="9" stroke-miterlimit="10"/>
<path d="M891.943 127.382L450.554 214.304L141.991 495.372L84.1028 863.245L299.009 1177.4L704.62 1317.85L1146.01 1230.93L1454.57 949.856L1512.46 581.983L1297.55 267.827L891.943 127.382Z" stroke="url(#paint16_linear)" stroke-width="9" stroke-miterlimit="10"/>
<path d="M906.489 97.8115L461.166 164.85L138.313 443.313L61.2618 826.831L259.438 1168.9L657.142 1338.89L1102.47 1271.84L1425.32 993.38L1502.38 609.87L1304.2 267.79L906.489 97.8115Z" stroke="url(#paint17_linear)" stroke-width="9" stroke-miterlimit="10"/>
<path d="M922.574 67.5138L474.344 113.447L137.365 388.372L40.3567 787.272L220.356 1157.78L608.623 1358.38L1056.85 1312.44L1393.83 1037.52L1490.85 638.616L1310.84 268.107L922.574 67.5138Z" stroke="url(#paint18_linear)" stroke-width="9" stroke-miterlimit="10"/>
<path d="M940.215 36.5604L490.197 60.1532L139.301 330.584L21.5433 744.554L181.913 1143.95L559.155 1376.21L1009.17 1352.62L1360.08 1082.19L1477.83 668.215L1317.46 268.826L940.215 36.5604Z" stroke="url(#paint19_linear)" stroke-width="9" stroke-miterlimit="10"/>
<path d="M959.457 5H508.824L144.254 269.933L5 698.615L144.254 1127.29L508.824 1392.22H959.457L1324.03 1127.29L1463.28 698.615L1324.03 269.933L959.457 5Z" stroke="url(#paint20_linear)" stroke-width="9" stroke-miterlimit="10"/>
<defs>
<linearGradient id="paint0_linear" x1="1341.91" y1="199.111" x2="245.586" y2="1325.31" gradientUnits="userSpaceOnUse">
<stop stop-color="#C4CAF5"/>
<stop offset="0.402977" stop-color="#A6AEF4"/>
<stop offset="1" stop-color="#3244EC"/>
</linearGradient>
<linearGradient id="paint1_linear" x1="1341.91" y1="199.111" x2="245.586" y2="1325.31" gradientUnits="userSpaceOnUse">
<stop stop-color="#C4CAF5"/>
<stop offset="0.402977" stop-color="#A6AEF4"/>
<stop offset="1" stop-color="#3244EC"/>
</linearGradient>
<linearGradient id="paint2_linear" x1="1341.91" y1="199.111" x2="245.586" y2="1325.31" gradientUnits="userSpaceOnUse">
<stop stop-color="#C4CAF5"/>
<stop offset="0.402977" stop-color="#A6AEF4"/>
<stop offset="1" stop-color="#3244EC"/>
</linearGradient>
<linearGradient id="paint3_linear" x1="1341.91" y1="199.111" x2="245.586" y2="1325.31" gradientUnits="userSpaceOnUse">
<stop stop-color="#C4CAF5"/>
<stop offset="0.402977" stop-color="#A6AEF4"/>
<stop offset="1" stop-color="#3244EC"/>
</linearGradient>
<linearGradient id="paint4_linear" x1="1341.91" y1="199.111" x2="245.586" y2="1325.31" gradientUnits="userSpaceOnUse">
<stop stop-color="#C4CAF5"/>
<stop offset="0.402977" stop-color="#A6AEF4"/>
<stop offset="1" stop-color="#3244EC"/>
</linearGradient>
<linearGradient id="paint5_linear" x1="1341.91" y1="199.111" x2="245.586" y2="1325.31" gradientUnits="userSpaceOnUse">
<stop stop-color="#C4CAF5"/>
<stop offset="0.402977" stop-color="#A6AEF4"/>
<stop offset="1" stop-color="#3244EC"/>
</linearGradient>
<linearGradient id="paint6_linear" x1="1341.91" y1="199.111" x2="245.586" y2="1325.31" gradientUnits="userSpaceOnUse">
<stop stop-color="#C4CAF5"/>
<stop offset="0.402977" stop-color="#A6AEF4"/>
<stop offset="1" stop-color="#3244EC"/>
</linearGradient>
<linearGradient id="paint7_linear" x1="1341.91" y1="199.111" x2="245.586" y2="1325.31" gradientUnits="userSpaceOnUse">
<stop stop-color="#C4CAF5"/>
<stop offset="0.402977" stop-color="#A6AEF4"/>
<stop offset="1" stop-color="#3244EC"/>
</linearGradient>
<linearGradient id="paint8_linear" x1="1341.91" y1="199.111" x2="245.586" y2="1325.31" gradientUnits="userSpaceOnUse">
<stop stop-color="#C4CAF5"/>
<stop offset="0.402977" stop-color="#A6AEF4"/>
<stop offset="1" stop-color="#3244EC"/>
</linearGradient>
<linearGradient id="paint9_linear" x1="1341.91" y1="199.111" x2="245.586" y2="1325.31" gradientUnits="userSpaceOnUse">
<stop stop-color="#C4CAF5"/>
<stop offset="0.402977" stop-color="#A6AEF4"/>
<stop offset="1" stop-color="#3244EC"/>
</linearGradient>
<linearGradient id="paint10_linear" x1="1341.91" y1="199.111" x2="245.586" y2="1325.31" gradientUnits="userSpaceOnUse">
<stop stop-color="#C4CAF5"/>
<stop offset="0.402977" stop-color="#A6AEF4"/>
<stop offset="1" stop-color="#3244EC"/>
</linearGradient>
<linearGradient id="paint11_linear" x1="1341.91" y1="199.111" x2="245.586" y2="1325.31" gradientUnits="userSpaceOnUse">
<stop stop-color="#C4CAF5"/>
<stop offset="0.402977" stop-color="#A6AEF4"/>
<stop offset="1" stop-color="#3244EC"/>
</linearGradient>
<linearGradient id="paint12_linear" x1="1341.91" y1="199.111" x2="245.586" y2="1325.31" gradientUnits="userSpaceOnUse">
<stop stop-color="#C4CAF5"/>
<stop offset="0.402977" stop-color="#A6AEF4"/>
<stop offset="1" stop-color="#3244EC"/>
</linearGradient>
<linearGradient id="paint13_linear" x1="1341.91" y1="199.111" x2="245.586" y2="1325.31" gradientUnits="userSpaceOnUse">
<stop stop-color="#C4CAF5"/>
<stop offset="0.402977" stop-color="#A6AEF4"/>
<stop offset="1" stop-color="#3244EC"/>
</linearGradient>
<linearGradient id="paint14_linear" x1="1341.91" y1="199.111" x2="245.586" y2="1325.31" gradientUnits="userSpaceOnUse">
<stop stop-color="#C4CAF5"/>
<stop offset="0.402977" stop-color="#A6AEF4"/>
<stop offset="1" stop-color="#3244EC"/>
</linearGradient>
<linearGradient id="paint15_linear" x1="1341.91" y1="199.111" x2="245.586" y2="1325.31" gradientUnits="userSpaceOnUse">
<stop stop-color="#C4CAF5"/>
<stop offset="0.402977" stop-color="#A6AEF4"/>
<stop offset="1" stop-color="#3244EC"/>
</linearGradient>
<linearGradient id="paint16_linear" x1="1341.91" y1="199.111" x2="245.586" y2="1325.31" gradientUnits="userSpaceOnUse">
<stop stop-color="#C4CAF5"/>
<stop offset="0.402977" stop-color="#A6AEF4"/>
<stop offset="1" stop-color="#3244EC"/>
</linearGradient>
<linearGradient id="paint17_linear" x1="1341.91" y1="199.111" x2="245.586" y2="1325.31" gradientUnits="userSpaceOnUse">
<stop stop-color="#C4CAF5"/>
<stop offset="0.402977" stop-color="#A6AEF4"/>
<stop offset="1" stop-color="#3244EC"/>
</linearGradient>
<linearGradient id="paint18_linear" x1="1341.91" y1="199.111" x2="245.586" y2="1325.31" gradientUnits="userSpaceOnUse">
<stop stop-color="#C4CAF5"/>
<stop offset="0.402977" stop-color="#A6AEF4"/>
<stop offset="1" stop-color="#3244EC"/>
</linearGradient>
<linearGradient id="paint19_linear" x1="1341.91" y1="199.111" x2="245.586" y2="1325.31" gradientUnits="userSpaceOnUse">
<stop stop-color="#C4CAF5"/>
<stop offset="0.402977" stop-color="#A6AEF4"/>
<stop offset="1" stop-color="#3244EC"/>
</linearGradient>
<linearGradient id="paint20_linear" x1="1341.91" y1="199.111" x2="245.586" y2="1325.31" gradientUnits="userSpaceOnUse">
<stop stop-color="#C4CAF5"/>
<stop offset="0.402977" stop-color="#A6AEF4"/>
<stop offset="1" stop-color="#3244EC"/>
</linearGradient>
</defs>
</svg>
