<svg width="131" height="100" viewBox="0 0 131 100" fill="none" xmlns="http://www.w3.org/2000/svg">
<path d="M69.8243 12.2249L69.8243 93.2984L0.5 93.2984L0.5 0.5L57.9145 0.5L69.8243 12.2249Z" fill="#FAFAFA" stroke="black"/>
<rect x="9.29907" y="62.7905" width="51.145" height="3.10078" fill="#1E2029"/>
<rect x="9.29907" y="44.186" width="51.145" height="3.10078" fill="#1E2029"/>
<rect x="9.29907" y="72.0933" width="51.145" height="3.10078" fill="#1E2029"/>
<rect x="9.29907" y="53.4883" width="51.145" height="3.10078" fill="#1E2029"/>
<path d="M76.0237 18.4266L76.0237 99.5001L6.69934 99.5001L6.69934 6.70166L64.1138 6.70166L76.0237 18.4266Z" fill="#FAFAFA" stroke="black"/>
<rect x="15.4985" y="68.9922" width="51.145" height="3.10078" fill="#1E2029"/>
<rect x="15.4985" y="50.3877" width="51.145" height="3.10078" fill="#1E2029"/>
<rect x="15.4985" y="31.7827" width="34.0966" height="3.10078" fill="#1E2029"/>
<rect x="15.4985" y="78.2944" width="51.145" height="3.10078" fill="#1E2029"/>
<rect x="15.4985" y="59.6899" width="51.145" height="3.10078" fill="#1E2029"/>
<path fill-rule="evenodd" clip-rule="evenodd" d="M124.763 67.4422C128.187 67.4422 130.962 64.6656 130.962 61.2406C130.962 57.8156 128.187 55.0391 124.763 55.0391C122.209 55.0391 120.015 56.5842 119.066 58.791H81.3669V62.791H118.759C119.447 65.4658 121.874 67.4422 124.763 67.4422Z" fill="#1D2A73"/>
<path fill-rule="evenodd" clip-rule="evenodd" d="M125.042 48.8372C128.312 48.8372 130.964 46.0607 130.964 42.6356C130.964 39.2106 128.312 36.4341 125.042 36.4341C122.3 36.4341 119.993 38.3852 119.319 41.0339L110.381 41.2174L109.73 41.2308L109.212 41.6245L100.328 48.3737L82.1483 48.0004L82.0662 51.9996L100.943 52.3871L101.639 52.4014L102.194 51.9801L111.114 45.2032L119.577 45.0295C120.471 47.266 122.581 48.8372 125.042 48.8372Z" fill="#1D2A73"/>
<path fill-rule="evenodd" clip-rule="evenodd" d="M125.078 74.0432C128.349 74.0432 131 76.8197 131 80.2447C131 83.6698 128.349 86.4463 125.078 86.4463C122.336 86.4463 120.03 84.4951 119.355 81.8465L110.417 81.6629L109.766 81.6496L109.248 81.2559L100.364 74.5067L82.1844 74.88L82.1023 70.8808L100.979 70.4932L101.675 70.4789L102.23 70.9003L111.15 77.6771L119.613 77.8509C120.508 75.6144 122.618 74.0432 125.078 74.0432Z" fill="#1D2A73"/>
</svg>
