<svg width="454" height="145" viewBox="0 0 454 145" fill="none" xmlns="http://www.w3.org/2000/svg">
<rect width="454" height="145" fill="white"/>
<rect width="128" height="27" transform="translate(0 23)" fill="#DCE0FA"/>
<path d="M14.968 31.2L12.084 41H13.75L14.408 38.718H18.048L18.706 41H20.358L17.474 31.2H14.968ZM14.8 37.248L16.158 32.558H16.298L17.642 37.248H14.8ZM21.8775 31.2V41H23.5015V31.2H21.8775ZM32.089 31.2L29.499 35.568H31.221L32.775 32.922H32.943V41H34.567V31.2H32.089Z" fill="#1E2029"/>
<rect width="128" height="80" transform="translate(0 50)" fill="#E3C668"/>
<path d="M14.712 61.6L12.12 70H13.344L13.968 67.96H17.28L17.904 70H19.14L16.548 61.6H14.712ZM14.268 66.88L15.564 62.632H15.684L16.98 66.88H14.268ZM20.2016 61.6V70H21.3896V61.6H20.2016ZM26.8166 61.6V70H30.4166C31.8566 70 32.9126 69.16 32.9126 67.744C32.9126 66.532 32.0966 66.004 31.4726 65.824V65.704C32.0966 65.524 32.8766 65.008 32.8766 63.808C32.8766 62.452 31.8446 61.6 30.4046 61.6H26.8166ZM28.0046 62.668H30.2846C31.1606 62.668 31.7366 63.184 31.7366 63.94C31.7366 64.72 31.1846 65.236 30.2966 65.236H28.0046V62.668ZM28.0046 66.316H30.2846C31.2206 66.316 31.7606 66.808 31.7606 67.612C31.7606 68.392 31.2206 68.932 30.3086 68.932H28.0046V66.316ZM34.1869 65.692L35.2429 66.028C35.3869 65.356 35.8669 64.864 36.7549 64.864C37.6549 64.864 38.0989 65.368 38.0989 66.1V66.484H36.2269C34.9429 66.484 33.9949 67.096 33.9949 68.308C33.9949 69.496 34.9429 70.168 36.1669 70.168C37.3069 70.168 37.7629 69.604 37.9789 69.208H38.1229V70H39.2029V66.172C39.2029 64.756 38.2789 63.94 36.7669 63.94C35.2669 63.94 34.4749 64.732 34.1869 65.692ZM35.1229 68.284C35.1229 67.708 35.5909 67.396 36.2869 67.396H38.0989V67.516C38.0989 68.584 37.3909 69.244 36.3589 69.244C35.5909 69.244 35.1229 68.86 35.1229 68.284ZM40.741 65.68C40.741 66.772 41.653 67.216 42.793 67.42L43.297 67.504C44.113 67.636 44.569 67.864 44.569 68.38C44.569 68.92 44.077 69.28 43.249 69.28C42.421 69.28 41.725 68.932 41.545 67.852L40.489 68.116C40.705 69.496 41.761 70.168 43.249 70.168C44.701 70.168 45.661 69.484 45.661 68.308C45.661 67.12 44.713 66.76 43.465 66.544L42.961 66.472C42.289 66.352 41.845 66.136 41.845 65.62C41.845 65.128 42.289 64.828 43.009 64.828C43.729 64.828 44.245 65.128 44.413 65.92L45.445 65.62C45.193 64.588 44.329 63.94 43.009 63.94C41.629 63.94 40.741 64.588 40.741 65.68ZM46.7045 62.32C46.7045 62.812 47.0765 63.172 47.5685 63.172C48.0725 63.172 48.4445 62.812 48.4445 62.32C48.4445 61.816 48.0725 61.456 47.5685 61.456C47.0765 61.456 46.7045 61.816 46.7045 62.32ZM48.1325 64.108H47.0045V70H48.1325V64.108ZM49.4829 67.06C49.4829 68.884 50.8389 70.168 52.5429 70.168C54.1629 70.168 55.1229 69.196 55.4109 67.924L54.3189 67.672C54.1629 68.548 53.6109 69.172 52.5549 69.172C51.4629 69.172 50.6229 68.332 50.6229 67.06C50.6229 65.776 51.4509 64.936 52.5549 64.936C53.5629 64.936 54.1749 65.572 54.2709 66.424L55.3749 66.196C55.1469 64.936 54.1389 63.94 52.5429 63.94C50.8389 63.94 49.4829 65.224 49.4829 67.06ZM56.5815 65.68C56.5815 66.772 57.4935 67.216 58.6335 67.42L59.1375 67.504C59.9535 67.636 60.4095 67.864 60.4095 68.38C60.4095 68.92 59.9175 69.28 59.0895 69.28C58.2615 69.28 57.5655 68.932 57.3855 67.852L56.3295 68.116C56.5455 69.496 57.6015 70.168 59.0895 70.168C60.5415 70.168 61.5015 69.484 61.5015 68.308C61.5015 67.12 60.5535 66.76 59.3055 66.544L58.8015 66.472C58.1295 66.352 57.6855 66.136 57.6855 65.62C57.6855 65.128 58.1295 64.828 58.8495 64.828C59.5695 64.828 60.0855 65.128 60.2535 65.92L61.2855 65.62C61.0335 64.588 60.1695 63.94 58.8495 63.94C57.4695 63.94 56.5815 64.588 56.5815 65.68Z" fill="#1E2029"/>
<rect width="128" height="27" transform="translate(136 23)" fill="#DCE0FA"/>
<path d="M150.968 31.2L148.084 41H149.75L150.408 38.718H154.048L154.706 41H156.358L153.474 31.2H150.968ZM150.8 37.248L152.158 32.558H152.298L153.642 37.248H150.8ZM157.878 31.2V41H159.502V31.2H157.878ZM165.947 34.448V34.784H167.557V34.476C167.557 33.104 168.467 32.446 169.601 32.446C170.707 32.446 171.449 33.09 171.449 34.182C171.449 35.386 170.581 35.918 169.097 36.31C167.249 36.786 165.961 37.626 165.961 39.474V41H173.031V39.53H167.585V39.334C167.585 38.242 168.397 37.934 169.867 37.556C171.911 37.038 173.073 36.128 173.073 34.224C173.073 32.236 171.491 31.004 169.573 31.004C167.599 31.004 165.947 32.194 165.947 34.448Z" fill="#1E2029"/>
<rect width="128" height="80" transform="translate(136 50)" fill="#E3C668"/>
<path d="M148.528 66.724C148.528 68.92 149.812 70.168 151.9 70.168C153.892 70.168 155.092 69.004 155.092 67.168V66.904H153.904V67.18C153.904 68.308 153.244 69.112 151.9 69.112C150.544 69.112 149.716 68.212 149.716 66.748V64.852C149.716 63.388 150.532 62.488 151.9 62.488C153.208 62.488 153.904 63.304 153.904 64.432V64.636H155.092V64.444C155.092 62.608 153.94 61.432 151.9 61.432C149.836 61.432 148.528 62.68 148.528 64.876V66.724ZM156.099 67.06C156.099 68.932 157.359 70.168 159.135 70.168C160.911 70.168 162.183 68.932 162.183 67.06C162.183 65.176 160.911 63.94 159.135 63.94C157.359 63.94 156.099 65.176 156.099 67.06ZM157.227 67.06C157.227 65.788 157.995 64.936 159.135 64.936C160.275 64.936 161.055 65.764 161.055 67.06C161.055 68.344 160.275 69.172 159.135 69.172C157.995 69.172 157.227 68.368 157.227 67.06ZM163.54 64.108V70H164.668V67C164.668 65.656 165.376 64.936 166.432 64.936C167.38 64.936 167.956 65.428 167.956 66.508V70H169.072V66.448C169.072 64.912 168.076 64 166.756 64C165.592 64 165.028 64.528 164.764 65.056H164.644V64.108H163.54ZM169.81 64.108L171.982 70H173.614L175.798 64.108H174.574L172.858 69.004H172.738L171.034 64.108H169.81ZM176.416 67.06C176.416 68.932 177.676 70.168 179.452 70.168C181.228 70.168 182.5 68.932 182.5 67.06C182.5 65.176 181.228 63.94 179.452 63.94C177.676 63.94 176.416 65.176 176.416 67.06ZM177.544 67.06C177.544 65.788 178.312 64.936 179.452 64.936C180.592 64.936 181.372 65.764 181.372 67.06C181.372 68.344 180.592 69.172 179.452 69.172C178.312 69.172 177.544 68.368 177.544 67.06ZM184.985 61.6H183.857V70H184.985V61.6ZM192.228 70V64.108H191.1V67.108C191.1 68.452 190.392 69.172 189.336 69.172C188.388 69.172 187.812 68.68 187.812 67.6V64.108H186.696V67.66C186.696 69.196 187.692 70.108 189.012 70.108C190.176 70.108 190.74 69.58 191.004 69.052H191.124V70H192.228ZM193.245 65.032H194.949V68.896C194.949 69.568 195.381 70 196.041 70H197.673V69.076H196.413C196.197 69.076 196.077 68.956 196.077 68.716V65.032H197.901V64.108H196.077V62.092H194.949V64.108H193.245V65.032ZM198.917 62.32C198.917 62.812 199.289 63.172 199.781 63.172C200.285 63.172 200.657 62.812 200.657 62.32C200.657 61.816 200.285 61.456 199.781 61.456C199.289 61.456 198.917 61.816 198.917 62.32ZM200.345 64.108H199.217V70H200.345V64.108ZM201.696 67.06C201.696 68.932 202.956 70.168 204.732 70.168C206.508 70.168 207.78 68.932 207.78 67.06C207.78 65.176 206.508 63.94 204.732 63.94C202.956 63.94 201.696 65.176 201.696 67.06ZM202.824 67.06C202.824 65.788 203.592 64.936 204.732 64.936C205.872 64.936 206.652 65.764 206.652 67.06C206.652 68.344 205.872 69.172 204.732 69.172C203.592 69.172 202.824 68.368 202.824 67.06ZM209.137 64.108V70H210.265V67C210.265 65.656 210.973 64.936 212.029 64.936C212.977 64.936 213.553 65.428 213.553 66.508V70H214.669V66.448C214.669 64.912 213.673 64 212.353 64C211.189 64 210.625 64.528 210.361 65.056H210.241V64.108H209.137ZM216.179 65.692L217.235 66.028C217.379 65.356 217.859 64.864 218.747 64.864C219.647 64.864 220.091 65.368 220.091 66.1V66.484H218.219C216.935 66.484 215.987 67.096 215.987 68.308C215.987 69.496 216.935 70.168 218.159 70.168C219.299 70.168 219.755 69.604 219.971 69.208H220.115V70H221.195V66.172C221.195 64.756 220.271 63.94 218.759 63.94C217.259 63.94 216.467 64.732 216.179 65.692ZM217.115 68.284C217.115 67.708 217.583 67.396 218.279 67.396H220.091V67.516C220.091 68.584 219.383 69.244 218.351 69.244C217.583 69.244 217.115 68.86 217.115 68.284ZM223.981 61.6H222.853V70H223.981V61.6ZM148.816 77.6V86H150.004V78.836H150.124L152.98 86H155.008V77.6H153.82V84.764H153.7L150.844 77.6H148.816ZM156.38 83.012C156.38 84.824 157.592 86.168 159.416 86.168C161.036 86.168 161.72 85.232 162.08 84.62L161.144 84.092C160.856 84.668 160.376 85.184 159.416 85.184C158.348 85.184 157.604 84.464 157.532 83.444H162.176V82.892C162.176 81.08 161.012 79.94 159.332 79.94C157.616 79.94 156.38 81.212 156.38 83.012ZM157.544 82.532C157.664 81.548 158.312 80.924 159.332 80.924C160.304 80.924 160.964 81.512 161.024 82.532H157.544ZM169.001 86V80.108H167.874V83.108C167.874 84.452 167.165 85.172 166.109 85.172C165.161 85.172 164.585 84.68 164.585 83.6V80.108H163.469V83.66C163.469 85.196 164.465 86.108 165.785 86.108C166.949 86.108 167.514 85.58 167.777 85.052H167.898V86H169.001ZM171.831 80.108H170.727V86H171.855V82.448C171.855 81.5 172.407 81.056 173.235 81.056H174.159V80.084H173.427C172.647 80.084 172.179 80.312 171.951 80.9H171.831V80.108ZM175.062 81.692L176.118 82.028C176.262 81.356 176.742 80.864 177.63 80.864C178.53 80.864 178.974 81.368 178.974 82.1V82.484H177.102C175.818 82.484 174.87 83.096 174.87 84.308C174.87 85.496 175.818 86.168 177.042 86.168C178.182 86.168 178.638 85.604 178.854 85.208H178.998V86H180.078V82.172C180.078 80.756 179.154 79.94 177.642 79.94C176.142 79.94 175.35 80.732 175.062 81.692ZM175.998 84.284C175.998 83.708 176.466 83.396 177.162 83.396H178.974V83.516C178.974 84.584 178.266 85.244 177.234 85.244C176.466 85.244 175.998 84.86 175.998 84.284ZM182.864 77.6H181.736V86H182.864V77.6ZM188.269 77.6V86H189.457V78.836H189.577L192.433 86H194.461V77.6H193.273V84.764H193.153L190.297 77.6H188.269ZM195.833 83.012C195.833 84.824 197.045 86.168 198.869 86.168C200.489 86.168 201.173 85.232 201.533 84.62L200.597 84.092C200.309 84.668 199.829 85.184 198.869 85.184C197.801 85.184 197.057 84.464 196.985 83.444H201.629V82.892C201.629 81.08 200.465 79.94 198.785 79.94C197.069 79.94 195.833 81.212 195.833 83.012ZM196.997 82.532C197.117 81.548 197.765 80.924 198.785 80.924C199.757 80.924 200.417 81.512 200.477 82.532H196.997ZM202.168 81.032H203.872V84.896C203.872 85.568 204.304 86 204.964 86H206.596V85.076H205.336C205.12 85.076 205 84.956 205 84.716V81.032H206.824V80.108H205V78.092H203.872V80.108H202.168V81.032ZM207.673 80.108L209.005 86H210.625L211.873 81.104H211.993L213.241 86H214.861L216.193 80.108H215.053L214.081 85.004H213.961L212.713 80.108H211.153L209.905 85.004H209.785L208.813 80.108H207.673ZM217.018 83.06C217.018 84.932 218.278 86.168 220.054 86.168C221.83 86.168 223.102 84.932 223.102 83.06C223.102 81.176 221.83 79.94 220.054 79.94C218.278 79.94 217.018 81.176 217.018 83.06ZM218.146 83.06C218.146 81.788 218.914 80.936 220.054 80.936C221.194 80.936 221.974 81.764 221.974 83.06C221.974 84.344 221.194 85.172 220.054 85.172C218.914 85.172 218.146 84.368 218.146 83.06ZM225.563 80.108H224.459V86H225.587V82.448C225.587 81.5 226.139 81.056 226.967 81.056H227.891V80.084H227.159C226.379 80.084 225.911 80.312 225.683 80.9H225.563V80.108ZM234.781 80.108H233.113L230.125 82.748V77.6H228.997V86H230.125V84.128L231.217 83.18L233.353 86H234.733L232.021 82.484L234.781 80.108ZM235.77 81.68C235.77 82.772 236.682 83.216 237.822 83.42L238.326 83.504C239.142 83.636 239.598 83.864 239.598 84.38C239.598 84.92 239.106 85.28 238.278 85.28C237.45 85.28 236.754 84.932 236.574 83.852L235.518 84.116C235.734 85.496 236.79 86.168 238.278 86.168C239.73 86.168 240.69 85.484 240.69 84.308C240.69 83.12 239.742 82.76 238.494 82.544L237.99 82.472C237.318 82.352 236.874 82.136 236.874 81.62C236.874 81.128 237.318 80.828 238.038 80.828C238.758 80.828 239.274 81.128 239.442 81.92L240.474 81.62C240.222 80.588 239.358 79.94 238.038 79.94C236.658 79.94 235.77 80.588 235.77 81.68Z" fill="#1E2029"/>
<rect width="128" height="27" transform="translate(272 23)" fill="#DCE0FA"/>
<path d="M284.882 31.2V41H288.102C290.72 41 292.134 39.67 292.134 37.01V35.19C292.134 32.53 290.72 31.2 288.102 31.2H284.882ZM286.506 32.67H288.116C289.74 32.67 290.524 33.51 290.524 35.134V37.066C290.524 38.69 289.754 39.53 288.116 39.53H286.506V32.67ZM297.33 31.004C295.272 31.004 293.928 32.054 293.928 33.804C293.928 35.54 295.076 36.226 297.022 36.66L297.484 36.758C298.758 37.052 299.486 37.374 299.486 38.27C299.486 39.152 298.772 39.768 297.428 39.768C296.07 39.768 295.216 39.124 295.216 37.78V37.654H293.62V37.78C293.62 39.978 295.202 41.196 297.428 41.196C299.654 41.196 301.082 39.992 301.082 38.228C301.082 36.464 299.766 35.75 297.806 35.33L297.344 35.218C296.112 34.938 295.524 34.588 295.524 33.748C295.524 32.922 296.154 32.432 297.33 32.432C298.534 32.432 299.318 32.922 299.318 34.14V34.448H300.914V34.14C300.914 32.054 299.388 31.004 297.33 31.004ZM309.216 31.2L306.626 35.568H308.348L309.902 32.922H310.07V41H311.694V31.2H309.216Z" fill="#1E2029"/>
<rect width="128" height="80" transform="translate(272 50)" fill="#E3C668"/>
<path d="M284.816 61.6V70H287.456C289.676 70 290.924 68.884 290.924 66.58V65.02C290.924 62.716 289.676 61.6 287.456 61.6H284.816ZM286.004 62.668H287.468C288.968 62.668 289.736 63.424 289.736 64.984V66.616C289.736 68.164 288.992 68.932 287.468 68.932H286.004V62.668ZM292.233 65.692L293.289 66.028C293.433 65.356 293.913 64.864 294.801 64.864C295.701 64.864 296.145 65.368 296.145 66.1V66.484H294.273C292.989 66.484 292.041 67.096 292.041 68.308C292.041 69.496 292.989 70.168 294.213 70.168C295.353 70.168 295.809 69.604 296.025 69.208H296.169V70H297.249V66.172C297.249 64.756 296.325 63.94 294.813 63.94C293.313 63.94 292.521 64.732 292.233 65.692ZM293.169 68.284C293.169 67.708 293.637 67.396 294.333 67.396H296.145V67.516C296.145 68.584 295.437 69.244 294.405 69.244C293.637 69.244 293.169 68.86 293.169 68.284ZM298.082 65.032H299.786V68.896C299.786 69.568 300.218 70 300.878 70H302.51V69.076H301.25C301.034 69.076 300.914 68.956 300.914 68.716V65.032H302.738V64.108H300.914V62.092H299.786V64.108H298.082V65.032ZM303.911 65.692L304.967 66.028C305.111 65.356 305.591 64.864 306.479 64.864C307.379 64.864 307.823 65.368 307.823 66.1V66.484H305.951C304.667 66.484 303.719 67.096 303.719 68.308C303.719 69.496 304.667 70.168 305.891 70.168C307.031 70.168 307.487 69.604 307.703 69.208H307.847V70H308.927V66.172C308.927 64.756 308.003 63.94 306.491 63.94C304.991 63.94 304.199 64.732 303.911 65.692ZM304.847 68.284C304.847 67.708 305.315 67.396 306.011 67.396H307.823V67.516C307.823 68.584 307.115 69.244 306.083 69.244C305.315 69.244 304.847 68.86 304.847 68.284ZM317.028 61.432C315.3 61.432 314.136 62.32 314.136 63.772C314.136 65.224 315.12 65.812 316.692 66.172L317.208 66.292C318.312 66.544 318.996 66.844 318.996 67.696C318.996 68.536 318.312 69.124 317.088 69.124C315.852 69.124 315.036 68.512 315.036 67.216V67.108H313.86V67.216C313.86 69.148 315.204 70.168 317.088 70.168C318.96 70.168 320.16 69.16 320.16 67.672C320.16 66.172 319.056 65.596 317.484 65.236L316.968 65.116C315.876 64.864 315.312 64.564 315.312 63.748C315.312 62.932 315.96 62.476 317.028 62.476C318.12 62.476 318.888 62.932 318.888 64.072V64.396H320.064V64.072C320.064 62.32 318.756 61.432 317.028 61.432ZM321.175 67.06C321.175 68.884 322.531 70.168 324.235 70.168C325.855 70.168 326.815 69.196 327.103 67.924L326.011 67.672C325.855 68.548 325.303 69.172 324.247 69.172C323.155 69.172 322.315 68.332 322.315 67.06C322.315 65.776 323.143 64.936 324.247 64.936C325.255 64.936 325.867 65.572 325.963 66.424L327.067 66.196C326.839 64.936 325.831 63.94 324.235 63.94C322.531 63.94 321.175 65.224 321.175 67.06ZM328.129 62.32C328.129 62.812 328.501 63.172 328.993 63.172C329.497 63.172 329.869 62.812 329.869 62.32C329.869 61.816 329.497 61.456 328.993 61.456C328.501 61.456 328.129 61.816 328.129 62.32ZM329.557 64.108H328.429V70H329.557V64.108ZM330.908 67.012C330.908 68.824 332.12 70.168 333.944 70.168C335.564 70.168 336.248 69.232 336.608 68.62L335.672 68.092C335.384 68.668 334.904 69.184 333.944 69.184C332.876 69.184 332.132 68.464 332.06 67.444H336.704V66.892C336.704 65.08 335.54 63.94 333.86 63.94C332.144 63.94 330.908 65.212 330.908 67.012ZM332.072 66.532C332.192 65.548 332.84 64.924 333.86 64.924C334.832 64.924 335.492 65.512 335.552 66.532H332.072ZM338.009 64.108V70H339.137V67C339.137 65.656 339.845 64.936 340.901 64.936C341.849 64.936 342.425 65.428 342.425 66.508V70H343.541V66.448C343.541 64.912 342.545 64 341.225 64C340.061 64 339.497 64.528 339.233 65.056H339.113V64.108H338.009ZM344.823 67.06C344.823 68.884 346.179 70.168 347.883 70.168C349.503 70.168 350.463 69.196 350.751 67.924L349.659 67.672C349.503 68.548 348.951 69.172 347.895 69.172C346.803 69.172 345.963 68.332 345.963 67.06C345.963 65.776 346.791 64.936 347.895 64.936C348.903 64.936 349.515 65.572 349.611 66.424L350.715 66.196C350.487 64.936 349.479 63.94 347.883 63.94C346.179 63.94 344.823 65.224 344.823 67.06ZM351.705 67.012C351.705 68.824 352.917 70.168 354.741 70.168C356.361 70.168 357.045 69.232 357.405 68.62L356.469 68.092C356.181 68.668 355.701 69.184 354.741 69.184C353.673 69.184 352.929 68.464 352.857 67.444H357.501V66.892C357.501 65.08 356.337 63.94 354.657 63.94C352.941 63.94 351.705 65.212 351.705 67.012ZM352.869 66.532C352.989 65.548 353.637 64.924 354.657 64.924C355.629 64.924 356.289 65.512 356.349 66.532H352.869ZM284.816 77.6V86H288.416C289.856 86 290.912 85.16 290.912 83.744C290.912 82.532 290.096 82.004 289.472 81.824V81.704C290.096 81.524 290.876 81.008 290.876 79.808C290.876 78.452 289.844 77.6 288.404 77.6H284.816ZM286.004 78.668H288.284C289.16 78.668 289.736 79.184 289.736 79.94C289.736 80.72 289.184 81.236 288.296 81.236H286.004V78.668ZM286.004 82.316H288.284C289.22 82.316 289.76 82.808 289.76 83.612C289.76 84.392 289.22 84.932 288.308 84.932H286.004V82.316ZM292.186 81.692L293.242 82.028C293.386 81.356 293.866 80.864 294.754 80.864C295.654 80.864 296.098 81.368 296.098 82.1V82.484H294.226C292.942 82.484 291.994 83.096 291.994 84.308C291.994 85.496 292.942 86.168 294.166 86.168C295.306 86.168 295.762 85.604 295.978 85.208H296.122V86H297.202V82.172C297.202 80.756 296.278 79.94 294.766 79.94C293.266 79.94 292.474 80.732 292.186 81.692ZM293.122 84.284C293.122 83.708 293.59 83.396 294.286 83.396H296.098V83.516C296.098 84.584 295.39 85.244 294.358 85.244C293.59 85.244 293.122 84.86 293.122 84.284ZM298.74 81.68C298.74 82.772 299.652 83.216 300.792 83.42L301.296 83.504C302.112 83.636 302.568 83.864 302.568 84.38C302.568 84.92 302.076 85.28 301.248 85.28C300.42 85.28 299.724 84.932 299.544 83.852L298.488 84.116C298.704 85.496 299.76 86.168 301.248 86.168C302.7 86.168 303.66 85.484 303.66 84.308C303.66 83.12 302.712 82.76 301.464 82.544L300.96 82.472C300.288 82.352 299.844 82.136 299.844 81.62C299.844 81.128 300.288 80.828 301.008 80.828C301.728 80.828 302.244 81.128 302.412 81.92L303.444 81.62C303.192 80.588 302.328 79.94 301.008 79.94C299.628 79.94 298.74 80.588 298.74 81.68ZM304.704 78.32C304.704 78.812 305.076 79.172 305.568 79.172C306.072 79.172 306.444 78.812 306.444 78.32C306.444 77.816 306.072 77.456 305.568 77.456C305.076 77.456 304.704 77.816 304.704 78.32ZM306.132 80.108H305.004V86H306.132V80.108ZM307.482 83.06C307.482 84.884 308.838 86.168 310.542 86.168C312.162 86.168 313.122 85.196 313.41 83.924L312.318 83.672C312.162 84.548 311.61 85.172 310.554 85.172C309.462 85.172 308.622 84.332 308.622 83.06C308.622 81.776 309.45 80.936 310.554 80.936C311.562 80.936 312.174 81.572 312.27 82.424L313.374 82.196C313.146 80.936 312.138 79.94 310.542 79.94C308.838 79.94 307.482 81.224 307.482 83.06ZM314.581 81.68C314.581 82.772 315.493 83.216 316.633 83.42L317.137 83.504C317.953 83.636 318.409 83.864 318.409 84.38C318.409 84.92 317.917 85.28 317.089 85.28C316.261 85.28 315.565 84.932 315.385 83.852L314.329 84.116C314.545 85.496 315.601 86.168 317.089 86.168C318.541 86.168 319.501 85.484 319.501 84.308C319.501 83.12 318.553 82.76 317.305 82.544L316.801 82.472C316.129 82.352 315.685 82.136 315.685 81.62C315.685 81.128 316.129 80.828 316.849 80.828C317.569 80.828 318.085 81.128 318.253 81.92L319.285 81.62C319.033 80.588 318.169 79.94 316.849 79.94C315.469 79.94 314.581 80.588 314.581 81.68Z" fill="#1E2029"/>
<path d="M0.517999 10.22C0.517999 12.768 2.058 14.196 4.494 14.196C6.902 14.196 8.302 12.81 8.302 10.682L8.302 10.346L6.692 10.346L6.692 10.71C6.692 11.858 5.964 12.754 4.494 12.754C3.038 12.754 2.142 11.802 2.142 10.248L2.142 7.952C2.142 6.398 3.024 5.446 4.494 5.446C5.936 5.446 6.692 6.356 6.692 7.504L6.692 7.77L8.302 7.77L8.302 7.532C8.302 5.39 6.93 4.004 4.494 4.004C2.058 4.004 0.518 5.432 0.518 7.98L0.517999 10.22ZM9.604 10.514C9.604 12.684 11.032 14.196 13.132 14.196C15.036 14.196 15.848 13.104 16.254 12.376L14.98 11.69C14.7 12.292 14.21 12.866 13.16 12.866C12.054 12.866 11.242 12.096 11.186 11.032L16.422 11.032L16.422 10.402C16.422 8.288 15.078 6.888 13.076 6.888C11.046 6.888 9.604 8.358 9.604 10.514ZM11.2 9.842C11.326 8.876 11.998 8.218 13.062 8.218C14.084 8.218 14.77 8.848 14.854 9.842L11.2 9.842ZM19.5849 7.098L18.0869 7.098L18.0869 14L19.6129 14L19.6129 9.912C19.6129 8.862 20.2709 8.372 21.1949 8.372L22.2589 8.372L22.2589 7.07L21.4609 7.07C20.5649 7.07 20.0049 7.336 19.7249 8.05L19.5849 8.05L19.5849 7.098ZM23.1233 8.344L24.9853 8.344L24.9853 12.572C24.9853 13.44 25.5453 14 26.3853 14L28.3313 14L28.3313 12.74L26.9173 12.74C26.6653 12.74 26.5253 12.6 26.5253 12.32L26.5253 8.344L28.5413 8.344L28.5413 7.098L26.5253 7.098L26.5253 4.844L24.9853 4.844L24.9853 7.098L23.1233 7.098L23.1233 8.344ZM29.8829 5.04C29.8829 5.684 30.3729 6.132 31.0169 6.132C31.6609 6.132 32.1509 5.684 32.1509 5.04C32.1509 4.382 31.6609 3.934 31.0169 3.934C30.3729 3.934 29.8829 4.382 29.8829 5.04ZM31.7869 7.098L30.2609 7.098L30.2609 14L31.7869 14L31.7869 7.098ZM40.2065 3.934C39.5765 3.934 39.0865 4.382 39.0865 5.04C39.0865 5.684 39.5765 6.132 40.2065 6.132C40.8505 6.132 41.3405 5.684 41.3405 5.04C41.3405 4.382 40.8505 3.934 40.2065 3.934ZM36.7485 7.098L36.7485 5.894C36.7485 5.614 36.8885 5.474 37.1405 5.474L38.1485 5.474L38.1485 4.2L36.5105 4.2C35.7405 4.2 35.2085 4.76 35.2085 5.516L35.2085 7.098L33.3325 7.098L33.3325 8.386L35.2085 8.386L35.2085 14L36.7485 14L36.7485 8.386L39.4505 8.386L39.4505 14L40.9905 14L40.9905 7.098L36.7485 7.098ZM42.6981 10.542C42.6981 12.684 44.2801 14.196 46.2961 14.196C48.2001 14.196 49.3341 13.062 49.6981 11.55L48.2001 11.2C48.0461 12.166 47.4581 12.852 46.3101 12.852C45.1341 12.852 44.2381 11.97 44.2381 10.542C44.2381 9.128 45.1341 8.246 46.3101 8.246C47.4301 8.246 48.0461 8.946 48.1581 9.87L49.6421 9.562C49.3621 8.036 48.1861 6.902 46.2821 6.902C44.2801 6.902 42.6981 8.4 42.6981 10.542ZM51.2191 8.89L52.6471 9.366C52.7871 8.652 53.2771 8.134 54.2431 8.134C55.2091 8.134 55.6711 8.68 55.6711 9.422L55.6711 9.842L53.6271 9.842C52.0871 9.842 50.9811 10.57 50.9811 11.998C50.9811 13.398 52.0871 14.196 53.5151 14.196C54.8311 14.196 55.3211 13.51 55.5171 13.132L55.6991 13.132L55.6991 14L57.1691 14L57.1691 9.534C57.1691 7.84 56.0491 6.888 54.2571 6.888C52.4791 6.888 51.5551 7.812 51.2191 8.89ZM52.5211 11.956C52.5211 11.382 52.9831 11.032 53.7251 11.032L55.6711 11.032L55.6711 11.158C55.6711 12.25 54.9011 12.936 53.8091 12.936C52.9831 12.936 52.5211 12.544 52.5211 11.956ZM58.3092 8.344L60.1712 8.344L60.1712 12.572C60.1712 13.44 60.7312 14 61.5712 14L63.5172 14L63.5172 12.74L62.1032 12.74C61.8512 12.74 61.7112 12.6 61.7112 12.32L61.7112 8.344L63.7272 8.344L63.7272 7.098L61.7112 7.098L61.7112 4.844L60.1712 4.844L60.1712 7.098L58.3092 7.098L58.3092 8.344ZM64.8624 10.514C64.8624 12.684 66.2904 14.196 68.3904 14.196C70.2944 14.196 71.1064 13.104 71.5124 12.376L70.2384 11.69C69.9584 12.292 69.4684 12.866 68.4184 12.866C67.3124 12.866 66.5004 12.096 66.4444 11.032L71.6804 11.032L71.6804 10.402C71.6804 8.288 70.3364 6.888 68.3344 6.888C66.3044 6.888 64.8624 8.358 64.8624 10.514ZM66.4584 9.842C66.5844 8.876 67.2564 8.218 68.3204 8.218C69.3424 8.218 70.0284 8.848 70.1124 9.842L66.4584 9.842ZM77.3522 5.04C77.3522 5.684 77.8422 6.132 78.4862 6.132C79.1302 6.132 79.6202 5.684 79.6202 5.04C79.6202 4.382 79.1302 3.934 78.4862 3.934C77.8422 3.934 77.3522 4.382 77.3522 5.04ZM79.2562 7.098L77.7302 7.098L77.7302 14L79.2562 14L79.2562 7.098ZM81.4178 7.098L81.4178 14L82.9438 14L82.9438 10.458C82.9438 9.03 83.6858 8.232 84.8338 8.232C85.8558 8.232 86.4578 8.778 86.4578 9.94L86.4578 14L87.9978 14L87.9978 9.856C87.9978 8.092 86.8778 6.972 85.2958 6.972C83.9798 6.972 83.3638 7.56 83.0558 8.162L82.9158 8.162L82.9158 7.098L81.4178 7.098ZM94.4671 4.2L94.4671 14L97.6871 14C100.305 14 101.719 12.67 101.719 10.01L101.719 8.19001C101.719 5.53001 100.305 4.2 97.6871 4.2L94.4671 4.2ZM96.0911 5.67L97.7011 5.67001C99.3251 5.67001 100.109 6.51001 100.109 8.13401L100.109 10.066C100.109 11.69 99.3391 12.53 97.7011 12.53L96.0911 12.53L96.0911 5.67ZM103.415 8.89001L104.843 9.36601C104.983 8.65201 105.473 8.13401 106.439 8.13401C107.405 8.13401 107.867 8.68001 107.867 9.42201L107.867 9.84201L105.823 9.84201C104.283 9.84201 103.177 10.57 103.177 11.998C103.177 13.398 104.283 14.196 105.711 14.196C107.027 14.196 107.517 13.51 107.713 13.132L107.895 13.132L107.895 14L109.365 14L109.365 9.53401C109.365 7.84001 108.245 6.88801 106.453 6.88801C104.675 6.88801 103.751 7.81201 103.415 8.89001ZM104.717 11.956C104.717 11.382 105.179 11.032 105.921 11.032L107.867 11.032L107.867 11.158C107.867 12.25 107.097 12.936 106.005 12.936C105.179 12.936 104.717 12.544 104.717 11.956ZM110.505 8.34401L112.367 8.34401L112.367 12.572C112.367 13.44 112.927 14 113.767 14L115.713 14L115.713 12.74L114.299 12.74C114.047 12.74 113.907 12.6 113.907 12.32L113.907 8.34401L115.923 8.34401L115.923 7.09801L113.907 7.09801L113.907 4.84401L112.367 4.84401L112.367 7.09801L110.505 7.09801L110.505 8.34401ZM117.517 8.89001L118.945 9.36601C119.085 8.65201 119.575 8.13401 120.541 8.13401C121.507 8.13401 121.969 8.68001 121.969 9.42201L121.969 9.84201L119.925 9.84201C118.385 9.84201 117.279 10.57 117.279 11.998C117.279 13.398 118.385 14.196 119.813 14.196C121.129 14.196 121.619 13.51 121.815 13.132L121.997 13.132L121.997 14L123.467 14L123.467 9.53401C123.467 7.84001 122.347 6.88801 120.555 6.88801C118.777 6.88801 117.853 7.81201 117.517 8.89001ZM118.819 11.956C118.819 11.382 119.281 11.032 120.023 11.032L121.969 11.032L121.969 11.158C121.969 12.25 121.199 12.936 120.107 12.936C119.281 12.936 118.819 12.544 118.819 11.956ZM133.146 4.00401C131.088 4.00401 129.744 5.05401 129.744 6.80401C129.744 8.54001 130.892 9.22601 132.838 9.66001L133.3 9.75801C134.574 10.052 135.302 10.374 135.302 11.27C135.302 12.152 134.588 12.768 133.244 12.768C131.886 12.768 131.032 12.124 131.032 10.78L131.032 10.654L129.436 10.654L129.436 10.78C129.436 12.978 131.018 14.196 133.244 14.196C135.47 14.196 136.898 12.992 136.898 11.228C136.898 9.46401 135.582 8.75001 133.622 8.33001L133.16 8.21801C131.928 7.93801 131.34 7.58801 131.34 6.74801C131.34 5.92201 131.97 5.43201 133.146 5.43201C134.35 5.43201 135.134 5.92201 135.134 7.14001L135.134 7.44801L136.73 7.44801L136.73 7.14001C136.73 5.05401 135.204 4.00401 133.146 4.00401ZM138.184 10.542C138.184 12.684 139.766 14.196 141.782 14.196C143.686 14.196 144.82 13.062 145.184 11.55L143.686 11.2C143.532 12.166 142.944 12.852 141.796 12.852C140.62 12.852 139.724 11.97 139.724 10.542C139.724 9.12801 140.62 8.24601 141.796 8.24601C142.916 8.24601 143.532 8.94601 143.644 9.87001L145.128 9.56201C144.848 8.03601 143.672 6.90201 141.768 6.90201C139.766 6.90201 138.184 8.40001 138.184 10.542ZM146.466 5.04001C146.466 5.68401 146.956 6.13201 147.6 6.13201C148.244 6.13201 148.734 5.68401 148.734 5.04001C148.734 4.38201 148.244 3.93401 147.6 3.93401C146.956 3.93401 146.466 4.38201 146.466 5.04001ZM148.37 7.09801L146.844 7.09801L146.844 14L148.37 14L148.37 7.09801ZM150.098 10.514C150.098 12.684 151.526 14.196 153.626 14.196C155.53 14.196 156.342 13.104 156.748 12.376L155.474 11.69C155.194 12.292 154.704 12.866 153.654 12.866C152.548 12.866 151.736 12.096 151.68 11.032L156.916 11.032L156.916 10.402C156.916 8.28801 155.572 6.88801 153.57 6.88801C151.54 6.88801 150.098 8.35801 150.098 10.514ZM151.694 9.84201C151.82 8.87601 152.492 8.21801 153.556 8.21801C154.578 8.21801 155.264 8.84801 155.348 9.84201L151.694 9.84201ZM158.581 7.09801L158.581 14L160.107 14L160.107 10.458C160.107 9.03001 160.849 8.23201 161.997 8.23201C163.019 8.23201 163.621 8.77801 163.621 9.94001L163.621 14L165.161 14L165.161 9.85601C165.161 8.09201 164.041 6.97201 162.459 6.97201C161.143 6.97201 160.527 7.56001 160.219 8.16201L160.079 8.16201L160.079 7.09801L158.581 7.09801ZM166.797 10.542C166.797 12.684 168.379 14.196 170.395 14.196C172.299 14.196 173.433 13.062 173.797 11.55L172.299 11.2C172.145 12.166 171.557 12.852 170.409 12.852C169.233 12.852 168.337 11.97 168.337 10.542C168.337 9.12801 169.233 8.24601 170.409 8.24601C171.529 8.24601 172.145 8.94601 172.257 9.87001L173.741 9.56201C173.461 8.03601 172.285 6.90201 170.381 6.90201C168.379 6.90201 166.797 8.40001 166.797 10.542ZM175.024 10.514C175.024 12.684 176.452 14.196 178.552 14.196C180.456 14.196 181.268 13.104 181.674 12.376L180.4 11.69C180.12 12.292 179.63 12.866 178.58 12.866C177.474 12.866 176.662 12.096 176.606 11.032L181.842 11.032L181.842 10.402C181.842 8.28801 180.498 6.88801 178.496 6.88801C176.466 6.88801 175.024 8.35801 175.024 10.514ZM176.62 9.84201C176.746 8.87601 177.418 8.21801 178.482 8.21801C179.504 8.21801 180.19 8.84801 180.274 9.84201L176.62 9.84201Z" fill="#1E2029"/>
<path d="M416 130L432 130L432 26L416 26" stroke="#787878"/>
<path d="M446.76 81.1183C448.944 81.1183 450.168 79.7983 450.168 77.7103C450.168 75.6463 448.98 74.4463 447.156 74.4463L446.868 74.4463L446.868 75.8263L447.18 75.8263C448.164 75.8263 448.932 76.4503 448.932 77.7103C448.932 78.9583 448.116 79.7263 446.784 79.7263L444.816 79.7263C443.484 79.7263 442.668 78.9703 442.668 77.7103C442.668 76.4743 443.448 75.8263 444.432 75.8263L444.66 75.8263L444.66 74.4463L444.456 74.4463C442.62 74.4463 441.432 75.6223 441.432 77.7103C441.432 79.7983 442.656 81.1183 444.84 81.1183L446.76 81.1183ZM447.036 73.3303C448.956 73.3303 450.168 72.0223 450.168 70.2463C450.168 68.4703 448.956 67.1743 447.036 67.1743C445.128 67.1743 443.916 68.4703 443.916 70.2463C443.916 72.0223 445.128 73.3303 447.036 73.3303ZM447.036 72.0103C445.824 72.0103 445.068 71.2903 445.068 70.2463C445.068 69.2143 445.812 68.4943 447.036 68.4943C448.26 68.4943 449.016 69.2143 449.016 70.2463C449.016 71.2903 448.272 72.0103 447.036 72.0103ZM450 60.056L444.084 60.056L444.084 61.364L447.12 61.364C448.332 61.364 449.016 62 449.016 62.984C449.016 63.86 448.548 64.376 447.564 64.376L444.084 64.376L444.084 65.696L447.636 65.696C449.136 65.696 450.096 64.736 450.096 63.38C450.096 62.252 449.604 61.724 449.076 61.46L449.076 61.34L450 61.34L450 60.056ZM444.084 56.927L444.084 58.211L450 58.211L450 56.903L446.496 56.903C445.596 56.903 445.176 56.339 445.176 55.547L445.176 54.635L444.06 54.635L444.06 55.319C444.06 56.087 444.288 56.567 444.9 56.807L444.9 56.927L444.084 56.927ZM445.704 53.6231C446.832 53.6231 447.276 52.6871 447.492 51.4871L447.564 51.0791C447.708 50.2991 447.9 49.9031 448.356 49.9031C448.812 49.9031 449.148 50.3231 449.148 51.0791C449.148 51.8471 448.836 52.4711 447.864 52.6391L448.164 53.8631C449.484 53.6591 450.168 52.6031 450.168 51.0791C450.168 49.5911 449.472 48.6311 448.26 48.6311C447.048 48.6311 446.7 49.6031 446.46 50.8991L446.388 51.3071C446.268 51.9551 446.076 52.3511 445.62 52.3511C445.188 52.3511 444.924 51.9671 444.924 51.3191C444.924 50.6711 445.2 50.2031 445.92 50.0591L445.56 48.8591C444.564 49.1231 443.916 49.9871 443.916 51.3191C443.916 52.7111 444.564 53.6231 445.704 53.6231ZM447.012 47.5153C448.872 47.5153 450.168 46.2913 450.168 44.4913C450.168 42.8593 449.232 42.1633 448.608 41.8153L448.02 42.9073C448.536 43.1473 449.028 43.5673 449.028 44.4673C449.028 45.4153 448.368 46.1113 447.456 46.1593L447.456 41.6713L446.916 41.6713C445.104 41.6713 443.904 42.8233 443.904 44.5393C443.904 46.2793 445.164 47.5153 447.012 47.5153ZM446.436 46.1473C445.608 46.0393 445.044 45.4633 445.044 44.5513C445.044 43.6753 445.584 43.0873 446.436 43.0153L446.436 46.1473ZM445.704 40.3757C446.832 40.3757 447.276 39.4397 447.492 38.2397L447.564 37.8317C447.708 37.0517 447.9 36.6557 448.356 36.6557C448.812 36.6557 449.148 37.0757 449.148 37.8317C449.148 38.5997 448.836 39.2237 447.864 39.3917L448.164 40.6157C449.484 40.4117 450.168 39.3557 450.168 37.8317C450.168 36.3437 449.472 35.3837 448.26 35.3837C447.048 35.3837 446.7 36.3557 446.46 37.6517L446.388 38.0597C446.268 38.7077 446.076 39.1037 445.62 39.1037C445.188 39.1037 444.924 38.7197 444.924 38.0717C444.924 37.4237 445.2 36.9557 445.92 36.8117L445.56 35.6117C444.564 35.8757 443.916 36.7397 443.916 38.0717C443.916 39.4637 444.564 40.3757 445.704 40.3757Z" fill="#787878"/>
</svg>
