<svg width="360" height="218" viewBox="0 0 360 218" fill="none" xmlns="http://www.w3.org/2000/svg">
<g clip-path="url(#clip0_6108_6017)">
<rect width="360" height="218" fill="white"/>
<rect width="79.4847" height="35" transform="translate(95.4849 78) rotate(180)" fill="#DCE0FA"/>
<path d="M46.7107 55.2L43.8267 65L45.4927 65L46.1507 62.718L49.7907 62.718L50.4487 65L52.1007 65L49.2167 55.2L46.7107 55.2ZM46.5427 61.248L47.9007 56.558L48.0407 56.558L49.3847 61.248L46.5427 61.248ZM53.6202 55.2L53.6202 65L55.2442 65L55.2442 55.2L53.6202 55.2ZM63.8317 55.2L61.2417 59.568L62.9637 59.568L64.5177 56.922L64.6857 56.922L64.6857 65L66.3097 65L66.3097 55.2L63.8317 55.2Z" fill="#1E2029"/>
<rect width="248.515" height="35" transform="translate(95.4849 43)" fill="#E3C668"/>
<path d="M106.029 54.6L103.557 63H104.985L105.549 61.044H108.669L109.233 63H110.649L108.177 54.6H106.029ZM105.885 59.784L107.049 55.764H107.169L108.321 59.784H105.885ZM111.591 54.6V63H112.983V54.6H111.591ZM118.136 54.6V63H121.856C123.296 63 124.34 62.148 124.34 60.732C124.34 59.508 123.524 58.992 122.912 58.824V58.704C123.524 58.524 124.304 58.032 124.304 56.82C124.304 55.452 123.284 54.6 121.832 54.6H118.136ZM119.528 55.86H121.688C122.456 55.86 122.972 56.304 122.972 57C122.972 57.696 122.468 58.152 121.688 58.152H119.528V55.86ZM119.528 59.4H121.688C122.516 59.4 123.008 59.844 123.008 60.576C123.008 61.284 122.516 61.74 121.712 61.74H119.528V59.4ZM125.531 58.62L126.755 59.028C126.875 58.416 127.295 57.972 128.123 57.972C128.951 57.972 129.347 58.44 129.347 59.076V59.436H127.595C126.275 59.436 125.327 60.06 125.327 61.284C125.327 62.484 126.275 63.168 127.499 63.168C128.627 63.168 129.047 62.58 129.215 62.256H129.371V63H130.631V59.172C130.631 57.72 129.671 56.904 128.135 56.904C126.611 56.904 125.819 57.696 125.531 58.62ZM126.647 61.248C126.647 60.756 127.043 60.456 127.679 60.456H129.347V60.564C129.347 61.5 128.687 62.088 127.751 62.088C127.043 62.088 126.647 61.752 126.647 61.248ZM132.049 58.704C132.049 59.832 132.985 60.276 134.185 60.492L134.593 60.564C135.373 60.708 135.769 60.9 135.769 61.356C135.769 61.812 135.349 62.148 134.593 62.148C133.825 62.148 133.201 61.836 133.033 60.864L131.809 61.164C132.013 62.484 133.069 63.168 134.593 63.168C136.081 63.168 137.041 62.472 137.041 61.26C137.041 60.048 136.069 59.7 134.773 59.46L134.365 59.388C133.717 59.268 133.321 59.076 133.321 58.62C133.321 58.188 133.705 57.924 134.353 57.924C135.001 57.924 135.469 58.2 135.613 58.92L136.813 58.56C136.549 57.564 135.685 56.916 134.353 56.916C132.961 56.916 132.049 57.564 132.049 58.704ZM137.965 55.32C137.965 55.872 138.385 56.256 138.937 56.256C139.489 56.256 139.909 55.872 139.909 55.32C139.909 54.756 139.489 54.372 138.937 54.372C138.385 54.372 137.965 54.756 137.965 55.32ZM139.597 57.084H138.289V63H139.597V57.084ZM140.837 60.036C140.837 61.872 142.193 63.168 143.921 63.168C145.553 63.168 146.525 62.196 146.837 60.9L145.553 60.6C145.421 61.428 144.917 62.016 143.933 62.016C142.925 62.016 142.157 61.26 142.157 60.036C142.157 58.824 142.925 58.068 143.933 58.068C144.893 58.068 145.421 58.668 145.517 59.46L146.789 59.196C146.549 57.888 145.541 56.916 143.909 56.916C142.193 56.916 140.837 58.2 140.837 60.036ZM147.889 58.704C147.889 59.832 148.825 60.276 150.025 60.492L150.433 60.564C151.213 60.708 151.609 60.9 151.609 61.356C151.609 61.812 151.189 62.148 150.433 62.148C149.665 62.148 149.041 61.836 148.873 60.864L147.649 61.164C147.853 62.484 148.909 63.168 150.433 63.168C151.921 63.168 152.881 62.472 152.881 61.26C152.881 60.048 151.909 59.7 150.613 59.46L150.205 59.388C149.557 59.268 149.161 59.076 149.161 58.62C149.161 58.188 149.545 57.924 150.193 57.924C150.841 57.924 151.309 58.2 151.453 58.92L152.653 58.56C152.389 57.564 151.525 56.916 150.193 56.916C148.801 56.916 147.889 57.564 147.889 58.704Z" fill="#1E2029"/>
<rect width="79" height="35" transform="translate(95 119) rotate(180)" fill="#DCE0FA"/>
<path d="M45.468 96.2L42.584 106H44.25L44.908 103.718H48.548L49.206 106H50.858L47.974 96.2H45.468ZM45.3 102.248L46.658 97.558H46.798L48.142 102.248H45.3ZM52.3775 96.2V106H54.0015V96.2H52.3775ZM60.447 99.448V99.784H62.057V99.476C62.057 98.104 62.967 97.446 64.101 97.446C65.207 97.446 65.949 98.09 65.949 99.182C65.949 100.386 65.081 100.918 63.597 101.31C61.749 101.786 60.461 102.626 60.461 104.474V106H67.531V104.53H62.085V104.334C62.085 103.242 62.897 102.934 64.367 102.556C66.411 102.038 67.573 101.128 67.573 99.224C67.573 97.236 65.991 96.004 64.073 96.004C62.099 96.004 60.447 97.194 60.447 99.448Z" fill="#1E2029"/>
<rect width="249" height="35" transform="translate(95 84)" fill="#E3C668"/>
<path d="M103.528 100.724C103.528 102.92 104.812 104.168 106.9 104.168C108.892 104.168 110.092 103.004 110.092 101.168V100.904H108.904V101.18C108.904 102.308 108.244 103.112 106.9 103.112C105.544 103.112 104.716 102.212 104.716 100.748V98.852C104.716 97.388 105.532 96.488 106.9 96.488C108.208 96.488 108.904 97.304 108.904 98.432V98.636H110.092V98.444C110.092 96.608 108.94 95.432 106.9 95.432C104.836 95.432 103.528 96.68 103.528 98.876V100.724ZM111.099 101.06C111.099 102.932 112.359 104.168 114.135 104.168C115.911 104.168 117.183 102.932 117.183 101.06C117.183 99.176 115.911 97.94 114.135 97.94C112.359 97.94 111.099 99.176 111.099 101.06ZM112.227 101.06C112.227 99.788 112.995 98.936 114.135 98.936C115.275 98.936 116.055 99.764 116.055 101.06C116.055 102.344 115.275 103.172 114.135 103.172C112.995 103.172 112.227 102.368 112.227 101.06ZM118.54 98.108V104H119.668V101C119.668 99.656 120.376 98.936 121.432 98.936C122.38 98.936 122.956 99.428 122.956 100.508V104H124.072V100.448C124.072 98.912 123.076 98 121.756 98C120.592 98 120.028 98.528 119.764 99.056H119.644V98.108H118.54ZM124.81 98.108L126.982 104H128.614L130.798 98.108H129.574L127.858 103.004H127.738L126.034 98.108H124.81ZM131.416 101.06C131.416 102.932 132.676 104.168 134.452 104.168C136.228 104.168 137.5 102.932 137.5 101.06C137.5 99.176 136.228 97.94 134.452 97.94C132.676 97.94 131.416 99.176 131.416 101.06ZM132.544 101.06C132.544 99.788 133.312 98.936 134.452 98.936C135.592 98.936 136.372 99.764 136.372 101.06C136.372 102.344 135.592 103.172 134.452 103.172C133.312 103.172 132.544 102.368 132.544 101.06ZM139.985 95.6H138.857V104H139.985V95.6ZM147.228 104V98.108H146.1V101.108C146.1 102.452 145.392 103.172 144.336 103.172C143.388 103.172 142.812 102.68 142.812 101.6V98.108H141.696V101.66C141.696 103.196 142.692 104.108 144.012 104.108C145.176 104.108 145.74 103.58 146.004 103.052H146.124V104H147.228ZM148.245 99.032H149.949V102.896C149.949 103.568 150.381 104 151.041 104H152.673V103.076H151.413C151.197 103.076 151.077 102.956 151.077 102.716V99.032H152.901V98.108H151.077V96.092H149.949V98.108H148.245V99.032ZM153.917 96.32C153.917 96.812 154.289 97.172 154.781 97.172C155.285 97.172 155.657 96.812 155.657 96.32C155.657 95.816 155.285 95.456 154.781 95.456C154.289 95.456 153.917 95.816 153.917 96.32ZM155.345 98.108H154.217V104H155.345V98.108ZM156.696 101.06C156.696 102.932 157.956 104.168 159.732 104.168C161.508 104.168 162.78 102.932 162.78 101.06C162.78 99.176 161.508 97.94 159.732 97.94C157.956 97.94 156.696 99.176 156.696 101.06ZM157.824 101.06C157.824 99.788 158.592 98.936 159.732 98.936C160.872 98.936 161.652 99.764 161.652 101.06C161.652 102.344 160.872 103.172 159.732 103.172C158.592 103.172 157.824 102.368 157.824 101.06ZM164.137 98.108V104H165.265V101C165.265 99.656 165.973 98.936 167.029 98.936C167.977 98.936 168.553 99.428 168.553 100.508V104H169.669V100.448C169.669 98.912 168.673 98 167.353 98C166.189 98 165.625 98.528 165.361 99.056H165.241V98.108H164.137ZM171.179 99.692L172.235 100.028C172.379 99.356 172.859 98.864 173.747 98.864C174.647 98.864 175.091 99.368 175.091 100.1V100.484H173.219C171.935 100.484 170.987 101.096 170.987 102.308C170.987 103.496 171.935 104.168 173.159 104.168C174.299 104.168 174.755 103.604 174.971 103.208H175.115V104H176.195V100.172C176.195 98.756 175.271 97.94 173.759 97.94C172.259 97.94 171.467 98.732 171.179 99.692ZM172.115 102.284C172.115 101.708 172.583 101.396 173.279 101.396H175.091V101.516C175.091 102.584 174.383 103.244 173.351 103.244C172.583 103.244 172.115 102.86 172.115 102.284ZM178.981 95.6H177.853V104H178.981V95.6ZM184.387 95.6V104H185.575V96.836H185.695L188.551 104H190.579V95.6H189.391V102.764H189.271L186.415 95.6H184.387ZM191.951 101.012C191.951 102.824 193.163 104.168 194.987 104.168C196.607 104.168 197.291 103.232 197.651 102.62L196.715 102.092C196.427 102.668 195.947 103.184 194.987 103.184C193.919 103.184 193.175 102.464 193.103 101.444H197.747V100.892C197.747 99.08 196.583 97.94 194.903 97.94C193.187 97.94 191.951 99.212 191.951 101.012ZM193.115 100.532C193.235 99.548 193.883 98.924 194.903 98.924C195.875 98.924 196.535 99.512 196.595 100.532H193.115ZM204.572 104V98.108H203.444V101.108C203.444 102.452 202.736 103.172 201.68 103.172C200.732 103.172 200.156 102.68 200.156 101.6V98.108H199.04V101.66C199.04 103.196 200.036 104.108 201.356 104.108C202.52 104.108 203.084 103.58 203.348 103.052H203.468V104H204.572ZM207.401 98.108H206.297V104H207.425V100.448C207.425 99.5 207.977 99.056 208.805 99.056H209.729V98.084H208.997C208.217 98.084 207.749 98.312 207.521 98.9H207.401V98.108ZM210.633 99.692L211.689 100.028C211.833 99.356 212.313 98.864 213.201 98.864C214.101 98.864 214.545 99.368 214.545 100.1V100.484H212.673C211.389 100.484 210.441 101.096 210.441 102.308C210.441 103.496 211.389 104.168 212.613 104.168C213.753 104.168 214.209 103.604 214.425 103.208H214.569V104H215.649V100.172C215.649 98.756 214.725 97.94 213.213 97.94C211.713 97.94 210.921 98.732 210.633 99.692ZM211.569 102.284C211.569 101.708 212.037 101.396 212.733 101.396H214.545V101.516C214.545 102.584 213.837 103.244 212.805 103.244C212.037 103.244 211.569 102.86 211.569 102.284ZM218.435 95.6H217.307V104H218.435V95.6ZM223.84 95.6V104H225.028V96.836H225.148L228.004 104H230.032V95.6H228.844V102.764H228.724L225.868 95.6H223.84ZM231.404 101.012C231.404 102.824 232.616 104.168 234.44 104.168C236.06 104.168 236.744 103.232 237.104 102.62L236.168 102.092C235.88 102.668 235.4 103.184 234.44 103.184C233.372 103.184 232.628 102.464 232.556 101.444H237.2V100.892C237.2 99.08 236.036 97.94 234.356 97.94C232.64 97.94 231.404 99.212 231.404 101.012ZM232.568 100.532C232.688 99.548 233.336 98.924 234.356 98.924C235.328 98.924 235.988 99.512 236.048 100.532H232.568ZM237.739 99.032H239.443V102.896C239.443 103.568 239.875 104 240.535 104H242.167V103.076H240.907C240.691 103.076 240.571 102.956 240.571 102.716V99.032H242.395V98.108H240.571V96.092H239.443V98.108H237.739V99.032ZM243.243 98.108L244.575 104H246.195L247.443 99.104H247.563L248.811 104H250.431L251.763 98.108H250.623L249.651 103.004H249.531L248.283 98.108H246.723L245.475 103.004H245.355L244.383 98.108H243.243ZM252.588 101.06C252.588 102.932 253.848 104.168 255.624 104.168C257.4 104.168 258.672 102.932 258.672 101.06C258.672 99.176 257.4 97.94 255.624 97.94C253.848 97.94 252.588 99.176 252.588 101.06ZM253.716 101.06C253.716 99.788 254.484 98.936 255.624 98.936C256.764 98.936 257.544 99.764 257.544 101.06C257.544 102.344 256.764 103.172 255.624 103.172C254.484 103.172 253.716 102.368 253.716 101.06ZM261.133 98.108H260.029V104H261.157V100.448C261.157 99.5 261.709 99.056 262.537 99.056H263.461V98.084H262.729C261.949 98.084 261.481 98.312 261.253 98.9H261.133V98.108ZM270.351 98.108H268.683L265.695 100.748V95.6H264.567V104H265.695V102.128L266.787 101.18L268.923 104H270.303L267.591 100.484L270.351 98.108ZM271.341 99.68C271.341 100.772 272.253 101.216 273.393 101.42L273.897 101.504C274.713 101.636 275.169 101.864 275.169 102.38C275.169 102.92 274.677 103.28 273.849 103.28C273.021 103.28 272.325 102.932 272.145 101.852L271.089 102.116C271.305 103.496 272.361 104.168 273.849 104.168C275.301 104.168 276.261 103.484 276.261 102.308C276.261 101.12 275.313 100.76 274.065 100.544L273.561 100.472C272.889 100.352 272.445 100.136 272.445 99.62C272.445 99.128 272.889 98.828 273.609 98.828C274.329 98.828 274.845 99.128 275.013 99.92L276.045 99.62C275.793 98.588 274.929 97.94 273.609 97.94C272.229 97.94 271.341 98.588 271.341 99.68Z" fill="#1E2029"/>
<rect width="79" height="35" transform="translate(95 160) rotate(180)" fill="#DCE0FA"/>
<path d="M41.882 137.2L41.882 147H45.102C47.72 147 49.134 145.67 49.134 143.01V141.19C49.134 138.53 47.72 137.2 45.102 137.2H41.882ZM43.506 138.67H45.116C46.74 138.67 47.524 139.51 47.524 141.134V143.066C47.524 144.69 46.754 145.53 45.116 145.53H43.506V138.67ZM54.33 137.004C52.272 137.004 50.928 138.054 50.928 139.804C50.928 141.54 52.076 142.226 54.022 142.66L54.484 142.758C55.758 143.052 56.486 143.374 56.486 144.27C56.486 145.152 55.772 145.768 54.428 145.768C53.07 145.768 52.216 145.124 52.216 143.78V143.654H50.62V143.78C50.62 145.978 52.202 147.196 54.428 147.196C56.654 147.196 58.082 145.992 58.082 144.228C58.082 142.464 56.766 141.75 54.806 141.33L54.344 141.218C53.112 140.938 52.524 140.588 52.524 139.748C52.524 138.922 53.154 138.432 54.33 138.432C55.534 138.432 56.318 138.922 56.318 140.14V140.448H57.914V140.14C57.914 138.054 56.388 137.004 54.33 137.004ZM66.216 137.2L63.626 141.568H65.348L66.902 138.922H67.07V147H68.694V137.2H66.216Z" fill="#1E2029"/>
<rect width="249" height="35" transform="translate(95 125)" fill="#E3C668"/>
<path d="M103.816 136.6V145H106.456C108.676 145 109.924 143.884 109.924 141.58V140.02C109.924 137.716 108.676 136.6 106.456 136.6H103.816ZM105.004 137.668H106.468C107.968 137.668 108.736 138.424 108.736 139.984V141.616C108.736 143.164 107.992 143.932 106.468 143.932H105.004V137.668ZM111.233 140.692L112.289 141.028C112.433 140.356 112.913 139.864 113.801 139.864C114.701 139.864 115.145 140.368 115.145 141.1V141.484H113.273C111.989 141.484 111.041 142.096 111.041 143.308C111.041 144.496 111.989 145.168 113.213 145.168C114.353 145.168 114.809 144.604 115.025 144.208H115.169V145H116.249V141.172C116.249 139.756 115.325 138.94 113.813 138.94C112.313 138.94 111.521 139.732 111.233 140.692ZM112.169 143.284C112.169 142.708 112.637 142.396 113.333 142.396H115.145V142.516C115.145 143.584 114.437 144.244 113.405 144.244C112.637 144.244 112.169 143.86 112.169 143.284ZM117.082 140.032H118.786V143.896C118.786 144.568 119.218 145 119.878 145H121.51V144.076H120.25C120.034 144.076 119.914 143.956 119.914 143.716V140.032H121.738V139.108H119.914V137.092H118.786V139.108H117.082V140.032ZM122.911 140.692L123.967 141.028C124.111 140.356 124.591 139.864 125.479 139.864C126.379 139.864 126.823 140.368 126.823 141.1V141.484H124.951C123.667 141.484 122.719 142.096 122.719 143.308C122.719 144.496 123.667 145.168 124.891 145.168C126.031 145.168 126.487 144.604 126.703 144.208H126.847V145H127.927V141.172C127.927 139.756 127.003 138.94 125.491 138.94C123.991 138.94 123.199 139.732 122.911 140.692ZM123.847 143.284C123.847 142.708 124.315 142.396 125.011 142.396H126.823V142.516C126.823 143.584 126.115 144.244 125.083 144.244C124.315 144.244 123.847 143.86 123.847 143.284ZM136.028 136.432C134.3 136.432 133.136 137.32 133.136 138.772C133.136 140.224 134.12 140.812 135.692 141.172L136.208 141.292C137.312 141.544 137.996 141.844 137.996 142.696C137.996 143.536 137.312 144.124 136.088 144.124C134.852 144.124 134.036 143.512 134.036 142.216V142.108H132.86V142.216C132.86 144.148 134.204 145.168 136.088 145.168C137.96 145.168 139.16 144.16 139.16 142.672C139.16 141.172 138.056 140.596 136.484 140.236L135.968 140.116C134.876 139.864 134.312 139.564 134.312 138.748C134.312 137.932 134.96 137.476 136.028 137.476C137.12 137.476 137.888 137.932 137.888 139.072V139.396H139.064V139.072C139.064 137.32 137.756 136.432 136.028 136.432ZM140.175 142.06C140.175 143.884 141.531 145.168 143.235 145.168C144.855 145.168 145.815 144.196 146.103 142.924L145.011 142.672C144.855 143.548 144.303 144.172 143.247 144.172C142.155 144.172 141.315 143.332 141.315 142.06C141.315 140.776 142.143 139.936 143.247 139.936C144.255 139.936 144.867 140.572 144.963 141.424L146.067 141.196C145.839 139.936 144.831 138.94 143.235 138.94C141.531 138.94 140.175 140.224 140.175 142.06ZM147.129 137.32C147.129 137.812 147.501 138.172 147.993 138.172C148.497 138.172 148.869 137.812 148.869 137.32C148.869 136.816 148.497 136.456 147.993 136.456C147.501 136.456 147.129 136.816 147.129 137.32ZM148.557 139.108H147.429V145H148.557V139.108ZM149.908 142.012C149.908 143.824 151.12 145.168 152.944 145.168C154.564 145.168 155.248 144.232 155.608 143.62L154.672 143.092C154.384 143.668 153.904 144.184 152.944 144.184C151.876 144.184 151.132 143.464 151.06 142.444H155.704V141.892C155.704 140.08 154.54 138.94 152.86 138.94C151.144 138.94 149.908 140.212 149.908 142.012ZM151.072 141.532C151.192 140.548 151.84 139.924 152.86 139.924C153.832 139.924 154.492 140.512 154.552 141.532H151.072ZM157.009 139.108V145H158.137V142C158.137 140.656 158.845 139.936 159.901 139.936C160.849 139.936 161.425 140.428 161.425 141.508V145H162.541V141.448C162.541 139.912 161.545 139 160.225 139C159.061 139 158.497 139.528 158.233 140.056H158.113V139.108H157.009ZM163.823 142.06C163.823 143.884 165.179 145.168 166.883 145.168C168.503 145.168 169.463 144.196 169.751 142.924L168.659 142.672C168.503 143.548 167.951 144.172 166.895 144.172C165.803 144.172 164.963 143.332 164.963 142.06C164.963 140.776 165.791 139.936 166.895 139.936C167.903 139.936 168.515 140.572 168.611 141.424L169.715 141.196C169.487 139.936 168.479 138.94 166.883 138.94C165.179 138.94 163.823 140.224 163.823 142.06ZM170.705 142.012C170.705 143.824 171.917 145.168 173.741 145.168C175.361 145.168 176.045 144.232 176.405 143.62L175.469 143.092C175.181 143.668 174.701 144.184 173.741 144.184C172.673 144.184 171.929 143.464 171.857 142.444H176.501V141.892C176.501 140.08 175.337 138.94 173.657 138.94C171.941 138.94 170.705 140.212 170.705 142.012ZM171.869 141.532C171.989 140.548 172.637 139.924 173.657 139.924C174.629 139.924 175.289 140.512 175.349 141.532H171.869ZM181.489 136.6V145H185.089C186.529 145 187.585 144.16 187.585 142.744C187.585 141.532 186.769 141.004 186.145 140.824V140.704C186.769 140.524 187.549 140.008 187.549 138.808C187.549 137.452 186.517 136.6 185.077 136.6H181.489ZM182.677 137.668H184.957C185.833 137.668 186.409 138.184 186.409 138.94C186.409 139.72 185.857 140.236 184.969 140.236H182.677V137.668ZM182.677 141.316H184.957C185.893 141.316 186.433 141.808 186.433 142.612C186.433 143.392 185.893 143.932 184.981 143.932H182.677V141.316ZM188.86 140.692L189.916 141.028C190.06 140.356 190.54 139.864 191.428 139.864C192.328 139.864 192.772 140.368 192.772 141.1V141.484H190.9C189.616 141.484 188.668 142.096 188.668 143.308C188.668 144.496 189.616 145.168 190.84 145.168C191.98 145.168 192.436 144.604 192.652 144.208H192.796V145H193.876V141.172C193.876 139.756 192.952 138.94 191.44 138.94C189.94 138.94 189.148 139.732 188.86 140.692ZM189.796 143.284C189.796 142.708 190.264 142.396 190.96 142.396H192.772V142.516C192.772 143.584 192.064 144.244 191.032 144.244C190.264 144.244 189.796 143.86 189.796 143.284ZM195.414 140.68C195.414 141.772 196.326 142.216 197.466 142.42L197.97 142.504C198.786 142.636 199.242 142.864 199.242 143.38C199.242 143.92 198.75 144.28 197.922 144.28C197.094 144.28 196.398 143.932 196.218 142.852L195.162 143.116C195.378 144.496 196.434 145.168 197.922 145.168C199.374 145.168 200.334 144.484 200.334 143.308C200.334 142.12 199.386 141.76 198.138 141.544L197.634 141.472C196.962 141.352 196.518 141.136 196.518 140.62C196.518 140.128 196.962 139.828 197.682 139.828C198.402 139.828 198.918 140.128 199.086 140.92L200.118 140.62C199.866 139.588 199.002 138.94 197.682 138.94C196.302 138.94 195.414 139.588 195.414 140.68ZM201.377 137.32C201.377 137.812 201.749 138.172 202.241 138.172C202.745 138.172 203.117 137.812 203.117 137.32C203.117 136.816 202.745 136.456 202.241 136.456C201.749 136.456 201.377 136.816 201.377 137.32ZM202.805 139.108H201.677V145H202.805V139.108ZM204.156 142.06C204.156 143.884 205.512 145.168 207.216 145.168C208.836 145.168 209.796 144.196 210.084 142.924L208.992 142.672C208.836 143.548 208.284 144.172 207.228 144.172C206.136 144.172 205.296 143.332 205.296 142.06C205.296 140.776 206.124 139.936 207.228 139.936C208.236 139.936 208.848 140.572 208.944 141.424L210.048 141.196C209.82 139.936 208.812 138.94 207.216 138.94C205.512 138.94 204.156 140.224 204.156 142.06ZM211.254 140.68C211.254 141.772 212.166 142.216 213.306 142.42L213.81 142.504C214.626 142.636 215.082 142.864 215.082 143.38C215.082 143.92 214.59 144.28 213.762 144.28C212.934 144.28 212.238 143.932 212.058 142.852L211.002 143.116C211.218 144.496 212.274 145.168 213.762 145.168C215.214 145.168 216.174 144.484 216.174 143.308C216.174 142.12 215.226 141.76 213.978 141.544L213.474 141.472C212.802 141.352 212.358 141.136 212.358 140.62C212.358 140.128 212.802 139.828 213.522 139.828C214.242 139.828 214.758 140.128 214.926 140.92L215.958 140.62C215.706 139.588 214.842 138.94 213.522 138.94C212.142 138.94 211.254 139.588 211.254 140.68Z" fill="#1E2029"/>
<path d="M16 184V196H344V184" stroke="#787878"/>
<path d="M148.882 210.76C148.882 212.944 150.202 214.168 152.29 214.168C154.354 214.168 155.554 212.98 155.554 211.156V210.868H154.174V211.18C154.174 212.164 153.55 212.932 152.29 212.932C151.042 212.932 150.274 212.116 150.274 210.784V208.816C150.274 207.484 151.03 206.668 152.29 206.668C153.526 206.668 154.174 207.448 154.174 208.432V208.66H155.554V208.456C155.554 206.62 154.378 205.432 152.29 205.432C150.202 205.432 148.882 206.656 148.882 208.84V210.76ZM156.67 211.036C156.67 212.956 157.978 214.168 159.754 214.168C161.53 214.168 162.826 212.956 162.826 211.036C162.826 209.128 161.53 207.916 159.754 207.916C157.978 207.916 156.67 209.128 156.67 211.036ZM157.99 211.036C157.99 209.824 158.71 209.068 159.754 209.068C160.786 209.068 161.506 209.812 161.506 211.036C161.506 212.26 160.786 213.016 159.754 213.016C158.71 213.016 157.99 212.272 157.99 211.036ZM169.944 214V208.084H168.636V211.12C168.636 212.332 168 213.016 167.016 213.016C166.14 213.016 165.624 212.548 165.624 211.564V208.084H164.304V211.636C164.304 213.136 165.264 214.096 166.62 214.096C167.748 214.096 168.276 213.604 168.54 213.076H168.66V214H169.944ZM173.073 208.084H171.789V214H173.097V210.496C173.097 209.596 173.661 209.176 174.453 209.176H175.365V208.06H174.681C173.913 208.06 173.433 208.288 173.193 208.9H173.073V208.084ZM176.377 209.704C176.377 210.832 177.313 211.276 178.513 211.492L178.921 211.564C179.701 211.708 180.097 211.9 180.097 212.356C180.097 212.812 179.677 213.148 178.921 213.148C178.153 213.148 177.529 212.836 177.361 211.864L176.137 212.164C176.341 213.484 177.397 214.168 178.921 214.168C180.409 214.168 181.369 213.472 181.369 212.26C181.369 211.048 180.397 210.7 179.101 210.46L178.693 210.388C178.045 210.268 177.649 210.076 177.649 209.62C177.649 209.188 178.033 208.924 178.681 208.924C179.329 208.924 179.797 209.2 179.941 209.92L181.141 209.56C180.877 208.564 180.013 207.916 178.681 207.916C177.289 207.916 176.377 208.564 176.377 209.704ZM182.485 211.012C182.485 212.872 183.709 214.168 185.509 214.168C187.141 214.168 187.837 213.232 188.185 212.608L187.093 212.02C186.853 212.536 186.433 213.028 185.533 213.028C184.585 213.028 183.889 212.368 183.841 211.456H188.329V210.916C188.329 209.104 187.177 207.904 185.461 207.904C183.721 207.904 182.485 209.164 182.485 211.012ZM183.853 210.436C183.961 209.608 184.537 209.044 185.449 209.044C186.325 209.044 186.913 209.584 186.985 210.436H183.853ZM189.624 209.704C189.624 210.832 190.56 211.276 191.76 211.492L192.168 211.564C192.948 211.708 193.344 211.9 193.344 212.356C193.344 212.812 192.924 213.148 192.168 213.148C191.4 213.148 190.776 212.836 190.608 211.864L189.384 212.164C189.588 213.484 190.644 214.168 192.168 214.168C193.656 214.168 194.616 213.472 194.616 212.26C194.616 211.048 193.644 210.7 192.348 210.46L191.94 210.388C191.292 210.268 190.896 210.076 190.896 209.62C190.896 209.188 191.28 208.924 191.928 208.924C192.576 208.924 193.044 209.2 193.188 209.92L194.388 209.56C194.124 208.564 193.26 207.916 191.928 207.916C190.536 207.916 189.624 208.564 189.624 209.704Z" fill="#787878"/>
<path d="M16.518 10.22C16.518 12.768 18.058 14.196 20.494 14.196C22.902 14.196 24.302 12.81 24.302 10.682L24.302 10.346H22.692L22.692 10.71C22.692 11.858 21.964 12.754 20.494 12.754C19.038 12.754 18.142 11.802 18.142 10.248L18.142 7.952C18.142 6.398 19.024 5.446 20.494 5.446C21.936 5.446 22.692 6.356 22.692 7.504L22.692 7.77L24.302 7.77L24.302 7.532C24.302 5.39 22.93 4.004 20.494 4.004C18.058 4.004 16.518 5.432 16.518 7.98L16.518 10.22ZM25.604 10.514C25.604 12.684 27.032 14.196 29.132 14.196C31.036 14.196 31.848 13.104 32.254 12.376L30.98 11.69C30.7 12.292 30.21 12.866 29.16 12.866C28.054 12.866 27.242 12.096 27.186 11.032L32.422 11.032L32.422 10.402C32.422 8.288 31.078 6.888 29.076 6.888C27.046 6.888 25.604 8.358 25.604 10.514ZM27.2 9.842C27.326 8.876 27.998 8.218 29.062 8.218C30.084 8.218 30.77 8.848 30.854 9.842L27.2 9.842ZM35.5849 7.098H34.0869L34.0869 14H35.6129L35.6129 9.912C35.6129 8.862 36.2709 8.372 37.1949 8.372H38.2589L38.2589 7.07L37.4609 7.07C36.5649 7.07 36.0049 7.336 35.7249 8.05H35.5849L35.5849 7.098ZM39.1233 8.344H40.9853L40.9853 12.572C40.9853 13.44 41.5453 14 42.3853 14H44.3313L44.3313 12.74H42.9173C42.6653 12.74 42.5253 12.6 42.5253 12.32L42.5253 8.344H44.5413L44.5413 7.098H42.5253L42.5253 4.844H40.9853L40.9853 7.098H39.1233L39.1233 8.344ZM45.8829 5.04C45.8829 5.684 46.3729 6.132 47.0169 6.132C47.6609 6.132 48.1509 5.684 48.1509 5.04C48.1509 4.382 47.6609 3.934 47.0169 3.934C46.3729 3.934 45.8829 4.382 45.8829 5.04ZM47.7869 7.098H46.2609L46.2609 14H47.7869L47.7869 7.098ZM56.2065 3.934C55.5765 3.934 55.0865 4.382 55.0865 5.04C55.0865 5.684 55.5765 6.132 56.2065 6.132C56.8505 6.132 57.3405 5.684 57.3405 5.04C57.3405 4.382 56.8505 3.934 56.2065 3.934ZM52.7485 7.098L52.7485 5.894C52.7485 5.614 52.8885 5.474 53.1405 5.474H54.1485L54.1485 4.2H52.5105C51.7405 4.2 51.2085 4.76 51.2085 5.516L51.2085 7.098H49.3325L49.3325 8.386H51.2085L51.2085 14H52.7485L52.7485 8.386H55.4505L55.4505 14H56.9905L56.9905 7.098H52.7485ZM58.6981 10.542C58.6981 12.684 60.2801 14.196 62.2961 14.196C64.2001 14.196 65.3341 13.062 65.6981 11.55L64.2001 11.2C64.0461 12.166 63.4581 12.852 62.3101 12.852C61.1341 12.852 60.2381 11.97 60.2381 10.542C60.2381 9.128 61.1341 8.246 62.3101 8.246C63.4301 8.246 64.0461 8.946 64.1581 9.87L65.6421 9.562C65.3621 8.036 64.1861 6.902 62.2821 6.902C60.2801 6.902 58.6981 8.4 58.6981 10.542ZM67.2191 8.89L68.6471 9.366C68.7871 8.652 69.2771 8.134 70.2431 8.134C71.2091 8.134 71.6711 8.68 71.6711 9.422L71.6711 9.842H69.6271C68.0871 9.842 66.9811 10.57 66.9811 11.998C66.9811 13.398 68.0871 14.196 69.5151 14.196C70.8311 14.196 71.3211 13.51 71.5171 13.132H71.6991L71.6991 14H73.1691L73.1691 9.534C73.1691 7.84 72.0491 6.888 70.2571 6.888C68.4791 6.888 67.5551 7.812 67.2191 8.89ZM68.5211 11.956C68.5211 11.382 68.9831 11.032 69.7251 11.032H71.6711L71.6711 11.158C71.6711 12.25 70.9011 12.936 69.8091 12.936C68.9831 12.936 68.5211 12.544 68.5211 11.956ZM74.3092 8.344H76.1712L76.1712 12.572C76.1712 13.44 76.7312 14 77.5712 14H79.5172L79.5172 12.74H78.1032C77.8512 12.74 77.7112 12.6 77.7112 12.32L77.7112 8.344H79.7272L79.7272 7.098H77.7112L77.7112 4.844H76.1712L76.1712 7.098H74.3092L74.3092 8.344ZM80.8624 10.514C80.8624 12.684 82.2904 14.196 84.3904 14.196C86.2944 14.196 87.1064 13.104 87.5124 12.376L86.2384 11.69C85.9584 12.292 85.4684 12.866 84.4184 12.866C83.3124 12.866 82.5004 12.096 82.4444 11.032H87.6804L87.6804 10.402C87.6804 8.288 86.3364 6.888 84.3344 6.888C82.3044 6.888 80.8624 8.358 80.8624 10.514ZM82.4584 9.842C82.5844 8.876 83.2564 8.218 84.3204 8.218C85.3424 8.218 86.0284 8.848 86.1124 9.842H82.4584ZM93.3522 5.04C93.3522 5.684 93.8422 6.132 94.4862 6.132C95.1302 6.132 95.6202 5.684 95.6202 5.04C95.6202 4.382 95.1302 3.934 94.4862 3.934C93.8422 3.934 93.3522 4.382 93.3522 5.04ZM95.2562 7.098H93.7302L93.7302 14H95.2562L95.2562 7.098ZM97.4178 7.098L97.4178 14H98.9438L98.9438 10.458C98.9438 9.03 99.6858 8.232 100.834 8.232C101.856 8.232 102.458 8.778 102.458 9.94L102.458 14H103.998L103.998 9.856C103.998 8.092 102.878 6.972 101.296 6.972C99.9798 6.972 99.3638 7.56 99.0558 8.162H98.9158L98.9158 7.098H97.4178ZM110.467 4.2L110.467 14H113.687C116.305 14 117.719 12.67 117.719 10.01L117.719 8.19C117.719 5.53 116.305 4.2 113.687 4.2H110.467ZM112.091 5.67H113.701C115.325 5.67 116.109 6.51 116.109 8.134L116.109 10.066C116.109 11.69 115.339 12.53 113.701 12.53H112.091L112.091 5.67ZM119.415 8.89L120.843 9.366C120.983 8.652 121.473 8.134 122.439 8.134C123.405 8.134 123.867 8.68 123.867 9.422L123.867 9.842H121.823C120.283 9.842 119.177 10.57 119.177 11.998C119.177 13.398 120.283 14.196 121.711 14.196C123.027 14.196 123.517 13.51 123.713 13.132H123.895L123.895 14H125.365L125.365 9.534C125.365 7.84 124.245 6.888 122.453 6.888C120.675 6.888 119.751 7.812 119.415 8.89ZM120.717 11.956C120.717 11.382 121.179 11.032 121.921 11.032H123.867L123.867 11.158C123.867 12.25 123.097 12.936 122.005 12.936C121.179 12.936 120.717 12.544 120.717 11.956ZM126.505 8.344H128.367L128.367 12.572C128.367 13.44 128.927 14 129.767 14H131.713L131.713 12.74H130.299C130.047 12.74 129.907 12.6 129.907 12.32L129.907 8.344H131.923L131.923 7.098H129.907L129.907 4.844H128.367L128.367 7.098H126.505L126.505 8.344ZM133.517 8.89L134.945 9.366C135.085 8.652 135.575 8.134 136.541 8.134C137.507 8.134 137.969 8.68 137.969 9.422L137.969 9.842H135.925C134.385 9.842 133.279 10.57 133.279 11.998C133.279 13.398 134.385 14.196 135.813 14.196C137.129 14.196 137.619 13.51 137.815 13.132H137.997L137.997 14H139.467L139.467 9.534C139.467 7.84 138.347 6.888 136.555 6.888C134.777 6.888 133.853 7.812 133.517 8.89ZM134.819 11.956C134.819 11.382 135.281 11.032 136.023 11.032H137.969L137.969 11.158C137.969 12.25 137.199 12.936 136.107 12.936C135.281 12.936 134.819 12.544 134.819 11.956ZM149.146 4.004C147.088 4.004 145.744 5.054 145.744 6.804C145.744 8.54 146.892 9.226 148.838 9.66L149.3 9.758C150.574 10.052 151.302 10.374 151.302 11.27C151.302 12.152 150.588 12.768 149.244 12.768C147.886 12.768 147.032 12.124 147.032 10.78L147.032 10.654L145.436 10.654L145.436 10.78C145.436 12.978 147.018 14.196 149.244 14.196C151.47 14.196 152.898 12.992 152.898 11.228C152.898 9.464 151.582 8.75 149.622 8.33L149.16 8.218C147.928 7.938 147.34 7.588 147.34 6.748C147.34 5.922 147.97 5.432 149.146 5.432C150.35 5.432 151.134 5.922 151.134 7.14L151.134 7.448H152.73L152.73 7.14C152.73 5.054 151.204 4.004 149.146 4.004ZM154.184 10.542C154.184 12.684 155.766 14.196 157.782 14.196C159.686 14.196 160.82 13.062 161.184 11.55L159.686 11.2C159.532 12.166 158.944 12.852 157.796 12.852C156.62 12.852 155.724 11.97 155.724 10.542C155.724 9.128 156.62 8.246 157.796 8.246C158.916 8.246 159.532 8.946 159.644 9.87L161.128 9.562C160.848 8.036 159.672 6.902 157.768 6.902C155.766 6.902 154.184 8.4 154.184 10.542ZM162.466 5.04C162.466 5.684 162.956 6.132 163.6 6.132C164.244 6.132 164.734 5.684 164.734 5.04C164.734 4.382 164.244 3.934 163.6 3.934C162.956 3.934 162.466 4.382 162.466 5.04ZM164.37 7.098H162.844L162.844 14H164.37L164.37 7.098ZM166.098 10.514C166.098 12.684 167.526 14.196 169.626 14.196C171.53 14.196 172.342 13.104 172.748 12.376L171.474 11.69C171.194 12.292 170.704 12.866 169.654 12.866C168.548 12.866 167.736 12.096 167.68 11.032H172.916L172.916 10.402C172.916 8.288 171.572 6.888 169.57 6.888C167.54 6.888 166.098 8.358 166.098 10.514ZM167.694 9.842C167.82 8.876 168.492 8.218 169.556 8.218C170.578 8.218 171.264 8.848 171.348 9.842H167.694ZM174.581 7.098L174.581 14L176.107 14L176.107 10.458C176.107 9.03 176.849 8.232 177.997 8.232C179.019 8.232 179.621 8.778 179.621 9.94L179.621 14H181.161L181.161 9.856C181.161 8.092 180.041 6.972 178.459 6.972C177.143 6.972 176.527 7.56 176.219 8.162H176.079L176.079 7.098H174.581ZM182.797 10.542C182.797 12.684 184.379 14.196 186.395 14.196C188.299 14.196 189.433 13.062 189.797 11.55L188.299 11.2C188.145 12.166 187.557 12.852 186.409 12.852C185.233 12.852 184.337 11.97 184.337 10.542C184.337 9.128 185.233 8.246 186.409 8.246C187.529 8.246 188.145 8.946 188.257 9.87L189.741 9.562C189.461 8.036 188.285 6.902 186.381 6.902C184.379 6.902 182.797 8.4 182.797 10.542ZM191.024 10.514C191.024 12.684 192.452 14.196 194.552 14.196C196.456 14.196 197.268 13.104 197.674 12.376L196.4 11.69C196.12 12.292 195.63 12.866 194.58 12.866C193.474 12.866 192.662 12.096 192.606 11.032H197.842L197.842 10.402C197.842 8.288 196.498 6.888 194.496 6.888C192.466 6.888 191.024 8.358 191.024 10.514ZM192.62 9.842C192.746 8.876 193.418 8.218 194.482 8.218C195.504 8.218 196.19 8.848 196.274 9.842H192.62Z" fill="#1E2029"/>
</g>
<defs>
<clipPath id="clip0_6108_6017">
<rect width="360" height="218" fill="white"/>
</clipPath>
</defs>
</svg>
