<svg width="360" height="239" viewBox="0 0 360 239" fill="none" xmlns="http://www.w3.org/2000/svg">
<g clip-path="url(#clip0_6108_6126)">
<rect width="360" height="239" fill="white"/>
<rect width="78" height="35" transform="translate(94 78) rotate(180)" fill="#636CAD"/>
<path d="M44.968 55.2L42.084 65H43.75L44.408 62.718H48.048L48.706 65H50.358L47.474 55.2H44.968ZM44.8 61.248L46.158 56.558H46.298L47.642 61.248H44.8ZM51.4855 56.04C51.4855 56.684 51.9755 57.132 52.6195 57.132C53.2635 57.132 53.7535 56.684 53.7535 56.04C53.7535 55.382 53.2635 54.934 52.6195 54.934C51.9755 54.934 51.4855 55.382 51.4855 56.04ZM53.3895 58.098H51.8635V65H53.3895V58.098ZM59.9363 55.2V56.67H64.6123L61.9523 58.896V60.366H63.5483C64.5843 60.366 65.3543 60.884 65.3543 61.962C65.3543 62.984 64.6123 63.754 63.3663 63.754C62.0363 63.754 61.2803 62.956 61.2803 61.822V61.444H59.6703V61.864C59.6703 63.852 61.0843 65.196 63.3663 65.196C65.4803 65.196 66.9783 63.908 66.9783 61.962C66.9783 60.156 65.7323 59.176 64.2623 59.176H63.9123V59.022L66.8103 56.628V55.2H59.9363Z" fill="white"/>
<rect width="250" height="35" transform="translate(94 43)" fill="#B49848"/>
<path d="M102.816 54.6V63H104.004V55.836H104.124L106.98 63H109.008V54.6H107.82V61.764H107.7L104.844 54.6H102.816ZM110.608 58.692L111.664 59.028C111.808 58.356 112.288 57.864 113.176 57.864C114.076 57.864 114.52 58.368 114.52 59.1V59.484H112.648C111.364 59.484 110.416 60.096 110.416 61.308C110.416 62.496 111.364 63.168 112.588 63.168C113.728 63.168 114.184 62.604 114.4 62.208H114.544V63H115.624V59.172C115.624 57.756 114.7 56.94 113.188 56.94C111.688 56.94 110.896 57.732 110.608 58.692ZM111.544 61.284C111.544 60.708 112.012 60.396 112.708 60.396H114.52V60.516C114.52 61.584 113.812 62.244 112.78 62.244C112.012 62.244 111.544 61.86 111.544 61.284ZM116.457 58.032H118.161V61.896C118.161 62.568 118.593 63 119.253 63H120.885V62.076H119.625C119.409 62.076 119.289 61.956 119.289 61.716V58.032H121.113V57.108H119.289V55.092H118.161V57.108H116.457V58.032ZM127.95 63V57.108H126.822V60.108C126.822 61.452 126.114 62.172 125.058 62.172C124.11 62.172 123.534 61.68 123.534 60.6V57.108H122.418V60.66C122.418 62.196 123.414 63.108 124.734 63.108C125.898 63.108 126.462 62.58 126.726 62.052H126.846V63H127.95ZM130.779 57.108H129.675V63H130.803V59.448C130.803 58.5 131.355 58.056 132.183 58.056H133.107V57.084H132.375C131.595 57.084 131.127 57.312 130.899 57.9H130.779V57.108ZM134.01 58.692L135.066 59.028C135.21 58.356 135.69 57.864 136.578 57.864C137.478 57.864 137.922 58.368 137.922 59.1V59.484H136.05C134.766 59.484 133.818 60.096 133.818 61.308C133.818 62.496 134.766 63.168 135.99 63.168C137.13 63.168 137.586 62.604 137.802 62.208H137.946V63H139.026V59.172C139.026 57.756 138.102 56.94 136.59 56.94C135.09 56.94 134.298 57.732 134.01 58.692ZM134.946 61.284C134.946 60.708 135.414 60.396 136.11 60.396H137.922V60.516C137.922 61.584 137.214 62.244 136.182 62.244C135.414 62.244 134.946 61.86 134.946 61.284ZM141.812 54.6H140.684V63H141.812V54.6ZM147.217 54.6V63H152.593V61.932H148.405V54.6H147.217ZM153.568 58.692L154.624 59.028C154.768 58.356 155.248 57.864 156.136 57.864C157.036 57.864 157.48 58.368 157.48 59.1V59.484H155.608C154.324 59.484 153.376 60.096 153.376 61.308C153.376 62.496 154.324 63.168 155.548 63.168C156.688 63.168 157.144 62.604 157.36 62.208H157.504V63H158.584V59.172C158.584 57.756 157.66 56.94 156.148 56.94C154.648 56.94 153.856 57.732 153.568 58.692ZM154.504 61.284C154.504 60.708 154.972 60.396 155.668 60.396H157.48V60.516C157.48 61.584 156.772 62.244 155.74 62.244C154.972 62.244 154.504 61.86 154.504 61.284ZM160.242 57.108V63H161.37V60C161.37 58.656 162.078 57.936 163.134 57.936C164.082 57.936 164.658 58.428 164.658 59.508V63H165.774V59.448C165.774 57.912 164.778 57 163.458 57C162.294 57 161.73 57.528 161.466 58.056H161.346V57.108H160.242ZM172.049 57.108V58.056H171.929C171.569 57.468 170.945 56.94 169.793 56.94C168.305 56.94 167.057 58.14 167.057 59.976C167.057 61.824 168.305 63.012 169.793 63.012C170.945 63.012 171.569 62.472 171.905 61.944H172.025V62.64C172.025 63.948 171.257 64.608 170.105 64.608C168.965 64.608 168.401 63.948 168.185 63.252L167.165 63.672C167.453 64.536 168.341 65.568 170.129 65.568C171.941 65.568 173.153 64.536 173.153 62.688V57.108H172.049ZM170.105 62.04C168.989 62.04 168.197 61.248 168.197 59.976C168.197 58.716 168.989 57.924 170.105 57.924C171.221 57.924 172.037 58.716 172.037 59.976C172.037 61.236 171.221 62.04 170.105 62.04ZM180.405 63V57.108H179.277V60.108C179.277 61.452 178.569 62.172 177.513 62.172C176.565 62.172 175.989 61.68 175.989 60.6V57.108H174.873V60.66C174.873 62.196 175.869 63.108 177.189 63.108C178.353 63.108 178.917 62.58 179.181 62.052H179.301V63H180.405ZM181.986 58.692L183.042 59.028C183.186 58.356 183.666 57.864 184.554 57.864C185.454 57.864 185.898 58.368 185.898 59.1V59.484H184.026C182.742 59.484 181.794 60.096 181.794 61.308C181.794 62.496 182.742 63.168 183.966 63.168C185.106 63.168 185.562 62.604 185.778 62.208H185.922V63H187.002V59.172C187.002 57.756 186.078 56.94 184.566 56.94C183.066 56.94 182.274 57.732 181.986 58.692ZM182.922 61.284C182.922 60.708 183.39 60.396 184.086 60.396H185.898V60.516C185.898 61.584 185.19 62.244 184.158 62.244C183.39 62.244 182.922 61.86 182.922 61.284ZM193.28 57.108V58.056H193.16C192.8 57.468 192.176 56.94 191.024 56.94C189.536 56.94 188.288 58.14 188.288 59.976C188.288 61.824 189.536 63.012 191.024 63.012C192.176 63.012 192.8 62.472 193.136 61.944H193.256V62.64C193.256 63.948 192.488 64.608 191.336 64.608C190.196 64.608 189.632 63.948 189.416 63.252L188.396 63.672C188.684 64.536 189.572 65.568 191.36 65.568C193.172 65.568 194.384 64.536 194.384 62.688V57.108H193.28ZM191.336 62.04C190.22 62.04 189.428 61.248 189.428 59.976C189.428 58.716 190.22 57.924 191.336 57.924C192.452 57.924 193.268 58.716 193.268 59.976C193.268 61.236 192.452 62.04 191.336 62.04ZM195.744 60.012C195.744 61.824 196.956 63.168 198.78 63.168C200.4 63.168 201.084 62.232 201.444 61.62L200.508 61.092C200.22 61.668 199.74 62.184 198.78 62.184C197.712 62.184 196.968 61.464 196.896 60.444H201.54V59.892C201.54 58.08 200.376 56.94 198.696 56.94C196.98 56.94 195.744 58.212 195.744 60.012ZM196.908 59.532C197.028 58.548 197.676 57.924 198.696 57.924C199.668 57.924 200.328 58.512 200.388 59.532H196.908ZM206.528 54.6V63H207.716V59.712H209.816C211.328 59.712 212.468 58.74 212.468 57.156C212.468 55.584 211.352 54.6 209.816 54.6H206.528ZM207.716 55.668H209.696C210.68 55.668 211.28 56.232 211.28 57.156C211.28 58.08 210.68 58.644 209.696 58.644H207.716V55.668ZM214.759 57.108H213.655V63H214.783V59.448C214.783 58.5 215.335 58.056 216.163 58.056H217.087V57.084H216.355C215.575 57.084 215.107 57.312 214.879 57.9H214.759V57.108ZM217.564 60.06C217.564 61.932 218.824 63.168 220.6 63.168C222.376 63.168 223.648 61.932 223.648 60.06C223.648 58.176 222.376 56.94 220.6 56.94C218.824 56.94 217.564 58.176 217.564 60.06ZM218.692 60.06C218.692 58.788 219.46 57.936 220.6 57.936C221.74 57.936 222.52 58.764 222.52 60.06C222.52 61.344 221.74 62.172 220.6 62.172C219.46 62.172 218.692 61.368 218.692 60.06ZM224.633 60.06C224.633 61.884 225.989 63.168 227.693 63.168C229.313 63.168 230.273 62.196 230.561 60.924L229.469 60.672C229.313 61.548 228.761 62.172 227.705 62.172C226.613 62.172 225.773 61.332 225.773 60.06C225.773 58.776 226.601 57.936 227.705 57.936C228.713 57.936 229.325 58.572 229.421 59.424L230.525 59.196C230.297 57.936 229.289 56.94 227.693 56.94C225.989 56.94 224.633 58.224 224.633 60.06ZM231.515 60.012C231.515 61.824 232.727 63.168 234.551 63.168C236.171 63.168 236.855 62.232 237.215 61.62L236.279 61.092C235.991 61.668 235.511 62.184 234.551 62.184C233.483 62.184 232.739 61.464 232.667 60.444H237.311V59.892C237.311 58.08 236.147 56.94 234.467 56.94C232.751 56.94 231.515 58.212 231.515 60.012ZM232.679 59.532C232.799 58.548 233.447 57.924 234.467 57.924C235.439 57.924 236.099 58.512 236.159 59.532H232.679ZM238.461 58.68C238.461 59.772 239.373 60.216 240.513 60.42L241.017 60.504C241.833 60.636 242.289 60.864 242.289 61.38C242.289 61.92 241.797 62.28 240.969 62.28C240.141 62.28 239.445 61.932 239.265 60.852L238.209 61.116C238.425 62.496 239.481 63.168 240.969 63.168C242.421 63.168 243.381 62.484 243.381 61.308C243.381 60.12 242.433 59.76 241.185 59.544L240.681 59.472C240.009 59.352 239.565 59.136 239.565 58.62C239.565 58.128 240.009 57.828 240.729 57.828C241.449 57.828 241.965 58.128 242.133 58.92L243.165 58.62C242.913 57.588 242.049 56.94 240.729 56.94C239.349 56.94 238.461 57.588 238.461 58.68ZM244.499 58.68C244.499 59.772 245.411 60.216 246.551 60.42L247.055 60.504C247.871 60.636 248.327 60.864 248.327 61.38C248.327 61.92 247.835 62.28 247.007 62.28C246.179 62.28 245.483 61.932 245.303 60.852L244.247 61.116C244.463 62.496 245.519 63.168 247.007 63.168C248.459 63.168 249.419 62.484 249.419 61.308C249.419 60.12 248.471 59.76 247.223 59.544L246.719 59.472C246.047 59.352 245.603 59.136 245.603 58.62C245.603 58.128 246.047 57.828 246.767 57.828C247.487 57.828 248.003 58.128 248.171 58.92L249.203 58.62C248.951 57.588 248.087 56.94 246.767 56.94C245.387 56.94 244.499 57.588 244.499 58.68ZM250.462 55.32C250.462 55.812 250.834 56.172 251.326 56.172C251.83 56.172 252.202 55.812 252.202 55.32C252.202 54.816 251.83 54.456 251.326 54.456C250.834 54.456 250.462 54.816 250.462 55.32ZM251.89 57.108H250.762V63H251.89V57.108ZM253.613 57.108V63H254.741V60C254.741 58.656 255.449 57.936 256.505 57.936C257.453 57.936 258.029 58.428 258.029 59.508V63H259.145V59.448C259.145 57.912 258.149 57 256.829 57C255.665 57 255.101 57.528 254.837 58.056H254.717V57.108H253.613ZM265.419 57.108V58.056H265.299C264.939 57.468 264.315 56.94 263.163 56.94C261.675 56.94 260.427 58.14 260.427 59.976C260.427 61.824 261.675 63.012 263.163 63.012C264.315 63.012 264.939 62.472 265.275 61.944H265.395V62.64C265.395 63.948 264.627 64.608 263.475 64.608C262.335 64.608 261.771 63.948 261.555 63.252L260.535 63.672C260.823 64.536 261.711 65.568 263.499 65.568C265.311 65.568 266.523 64.536 266.523 62.688V57.108H265.419ZM263.475 62.04C262.359 62.04 261.567 61.248 261.567 59.976C261.567 58.716 262.359 57.924 263.475 57.924C264.591 57.924 265.407 58.716 265.407 59.976C265.407 61.236 264.591 62.04 263.475 62.04Z" fill="white"/>
<rect width="78" height="48" transform="translate(94 134) rotate(180)" fill="#636CAD"/>
<path d="M44.968 104.7L42.084 114.5H43.75L44.408 112.218H48.048L48.706 114.5H50.358L47.474 104.7H44.968ZM44.8 110.748L46.158 106.058H46.298L47.642 110.748H44.8ZM51.4855 105.54C51.4855 106.184 51.9755 106.632 52.6195 106.632C53.2635 106.632 53.7535 106.184 53.7535 105.54C53.7535 104.882 53.2635 104.434 52.6195 104.434C51.9755 104.434 51.4855 104.882 51.4855 105.54ZM53.3895 107.598H51.8635V114.5H53.3895V107.598ZM63.5063 104.7L59.4603 111.14V112.554H64.4303V114.5H66.0543V112.554H67.6783V111.084H66.0543V104.7H63.5063ZM64.2623 106.114H64.4303V111.084H61.1543L64.2623 106.114Z" fill="white"/>
<rect width="250" height="48" transform="translate(94 86)" fill="#B49848"/>
<path d="M108.996 100.12C108.996 98.56 107.88 97.6 106.344 97.6H102.816V106H104.004V102.64H105.768L107.484 106H108.84L107.004 102.58C108.168 102.34 108.996 101.44 108.996 100.12ZM104.004 98.668H106.224C107.208 98.668 107.808 99.22 107.808 100.12C107.808 101.032 107.208 101.584 106.224 101.584H104.004V98.668ZM109.935 103.012C109.935 104.824 111.147 106.168 112.971 106.168C114.591 106.168 115.275 105.232 115.635 104.62L114.699 104.092C114.411 104.668 113.931 105.184 112.971 105.184C111.903 105.184 111.159 104.464 111.087 103.444H115.731V102.892C115.731 101.08 114.567 99.94 112.887 99.94C111.171 99.94 109.935 101.212 109.935 103.012ZM111.099 102.532C111.219 101.548 111.867 100.924 112.887 100.924C113.859 100.924 114.519 101.512 114.579 102.532H111.099ZM116.736 98.32C116.736 98.812 117.108 99.172 117.6 99.172C118.104 99.172 118.476 98.812 118.476 98.32C118.476 97.816 118.104 97.456 117.6 97.456C117.108 97.456 116.736 97.816 116.736 98.32ZM118.164 100.108H117.036V106H118.164V100.108ZM119.887 100.108V106H121.015V103C121.015 101.656 121.723 100.936 122.779 100.936C123.727 100.936 124.303 101.428 124.303 102.508V106H125.419V102.448C125.419 100.912 124.423 100 123.103 100C121.939 100 121.375 100.528 121.111 101.056H120.991V100.108H119.887ZM126.38 100.108V101.032H128.096V106H129.224V101.032H130.976V100.108H129.224V98.884C129.224 98.644 129.344 98.524 129.56 98.524H130.736V97.6H129.188C128.528 97.6 128.096 98.02 128.096 98.704V100.108H126.38ZM131.755 103.06C131.755 104.932 133.015 106.168 134.791 106.168C136.567 106.168 137.839 104.932 137.839 103.06C137.839 101.176 136.567 99.94 134.791 99.94C133.015 99.94 131.755 101.176 131.755 103.06ZM132.883 103.06C132.883 101.788 133.651 100.936 134.791 100.936C135.931 100.936 136.711 101.764 136.711 103.06C136.711 104.344 135.931 105.172 134.791 105.172C133.651 105.172 132.883 104.368 132.883 103.06ZM140.3 100.108H139.196V106H140.324V102.448C140.324 101.5 140.876 101.056 141.704 101.056H142.628V100.084H141.896C141.116 100.084 140.648 100.312 140.42 100.9H140.3V100.108ZM143.104 103.06C143.104 104.884 144.46 106.168 146.164 106.168C147.784 106.168 148.744 105.196 149.032 103.924L147.94 103.672C147.784 104.548 147.232 105.172 146.176 105.172C145.084 105.172 144.244 104.332 144.244 103.06C144.244 101.776 145.072 100.936 146.176 100.936C147.184 100.936 147.796 101.572 147.892 102.424L148.996 102.196C148.768 100.936 147.76 99.94 146.164 99.94C144.46 99.94 143.104 101.224 143.104 103.06ZM149.986 103.012C149.986 104.824 151.198 106.168 153.022 106.168C154.642 106.168 155.326 105.232 155.686 104.62L154.75 104.092C154.462 104.668 153.982 105.184 153.022 105.184C151.954 105.184 151.21 104.464 151.138 103.444H155.782V102.892C155.782 101.08 154.618 99.94 152.938 99.94C151.222 99.94 149.986 101.212 149.986 103.012ZM151.15 102.532C151.27 101.548 151.918 100.924 152.938 100.924C153.91 100.924 154.57 101.512 154.63 102.532H151.15ZM157.087 100.108V106H158.215V102.448C158.215 101.476 158.755 100.936 159.559 100.936C160.315 100.936 160.747 101.38 160.747 102.124V106H161.875V102.448C161.875 101.476 162.415 100.936 163.219 100.936C163.975 100.936 164.419 101.38 164.419 102.124V106H165.535V102.052C165.535 100.744 164.695 100 163.555 100C162.607 100 162.079 100.42 161.767 101.02H161.647C161.383 100.432 160.855 100 159.955 100C159.079 100 158.575 100.372 158.311 100.864H158.191V100.108H157.087ZM166.831 103.012C166.831 104.824 168.043 106.168 169.867 106.168C171.487 106.168 172.171 105.232 172.531 104.62L171.595 104.092C171.307 104.668 170.827 105.184 169.867 105.184C168.799 105.184 168.055 104.464 167.983 103.444H172.627V102.892C172.627 101.08 171.463 99.94 169.783 99.94C168.067 99.94 166.831 101.212 166.831 103.012ZM167.995 102.532C168.115 101.548 168.763 100.924 169.783 100.924C170.755 100.924 171.415 101.512 171.475 102.532H167.995ZM173.933 100.108V106H175.061V103C175.061 101.656 175.769 100.936 176.825 100.936C177.773 100.936 178.349 101.428 178.349 102.508V106H179.465V102.448C179.465 100.912 178.469 100 177.149 100C175.985 100 175.421 100.528 175.157 101.056H175.037V100.108H173.933ZM180.294 101.032H181.998V104.896C181.998 105.568 182.43 106 183.09 106H184.722V105.076H183.462C183.246 105.076 183.126 104.956 183.126 104.716V101.032H184.95V100.108H183.126V98.092H181.998V100.108H180.294V101.032ZM189.949 97.6V106H195.325V104.932H191.137V97.6H189.949ZM196.072 103.012C196.072 104.824 197.284 106.168 199.108 106.168C200.728 106.168 201.412 105.232 201.772 104.62L200.836 104.092C200.548 104.668 200.068 105.184 199.108 105.184C198.04 105.184 197.296 104.464 197.224 103.444H201.868V102.892C201.868 101.08 200.704 99.94 199.024 99.94C197.308 99.94 196.072 101.212 196.072 103.012ZM197.236 102.532C197.356 101.548 198.004 100.924 199.024 100.924C199.996 100.924 200.656 101.512 200.716 102.532H197.236ZM203.006 101.692L204.062 102.028C204.206 101.356 204.686 100.864 205.574 100.864C206.474 100.864 206.918 101.368 206.918 102.1V102.484H205.046C203.762 102.484 202.814 103.096 202.814 104.308C202.814 105.496 203.762 106.168 204.986 106.168C206.126 106.168 206.582 105.604 206.798 105.208H206.942V106H208.022V102.172C208.022 100.756 207.098 99.94 205.586 99.94C204.086 99.94 203.294 100.732 203.006 101.692ZM203.942 104.284C203.942 103.708 204.41 103.396 205.106 103.396H206.918V103.516C206.918 104.584 206.21 105.244 205.178 105.244C204.41 105.244 203.942 104.86 203.942 104.284ZM210.784 100.108H209.68V106H210.808V102.448C210.808 101.5 211.36 101.056 212.188 101.056H213.112V100.084H212.38C211.6 100.084 211.132 100.312 210.904 100.9H210.784V100.108ZM214.218 100.108V106H215.346V103C215.346 101.656 216.054 100.936 217.11 100.936C218.058 100.936 218.634 101.428 218.634 102.508V106H219.75V102.448C219.75 100.912 218.754 100 217.434 100C216.27 100 215.706 100.528 215.442 101.056H215.322V100.108H214.218ZM221.104 98.32C221.104 98.812 221.476 99.172 221.968 99.172C222.472 99.172 222.844 98.812 222.844 98.32C222.844 97.816 222.472 97.456 221.968 97.456C221.476 97.456 221.104 97.816 221.104 98.32ZM222.532 100.108H221.404V106H222.532V100.108ZM224.255 100.108V106H225.383V103C225.383 101.656 226.091 100.936 227.147 100.936C228.095 100.936 228.671 101.428 228.671 102.508V106H229.787V102.448C229.787 100.912 228.791 100 227.471 100C226.307 100 225.743 100.528 225.479 101.056H225.359V100.108H224.255ZM236.061 100.108V101.056H235.941C235.581 100.468 234.957 99.94 233.805 99.94C232.317 99.94 231.069 101.14 231.069 102.976C231.069 104.824 232.317 106.012 233.805 106.012C234.957 106.012 235.581 105.472 235.917 104.944H236.037V105.64C236.037 106.948 235.269 107.608 234.117 107.608C232.977 107.608 232.413 106.948 232.197 106.252L231.177 106.672C231.465 107.536 232.353 108.568 234.141 108.568C235.953 108.568 237.165 107.536 237.165 105.688V100.108H236.061ZM234.117 105.04C233.001 105.04 232.209 104.248 232.209 102.976C232.209 101.716 233.001 100.924 234.117 100.924C235.233 100.924 236.049 101.716 236.049 102.976C236.049 104.236 235.233 105.04 234.117 105.04ZM246.204 97.6H244.752C243.384 97.6 242.304 98.38 242.304 99.832C242.304 100.864 242.904 101.428 243.66 101.668V101.812C242.892 102.064 242.232 102.712 242.232 103.768C242.232 105.184 243.276 106 244.704 106H247.548V102.232H248.7V101.284H247.548V100.048H246.432V101.284H244.92C244.116 101.284 243.432 100.864 243.432 99.916C243.432 98.992 244.092 98.548 244.92 98.548H246.204V97.6ZM244.872 102.232H246.432V105.052H244.872C244.056 105.052 243.372 104.608 243.372 103.636C243.372 102.688 244.032 102.232 244.872 102.232ZM253.278 102.724C253.278 104.92 254.574 106.168 256.65 106.168C258.642 106.168 259.818 105.004 259.818 103.072V101.932H256.29V102.952H258.654V103.18C258.654 104.38 257.994 105.112 256.65 105.112C255.294 105.112 254.466 104.212 254.466 102.748V100.852C254.466 99.388 255.294 98.488 256.662 98.488C257.958 98.488 258.582 99.268 258.582 100.384V100.516H259.77V100.396C259.77 98.608 258.702 97.432 256.662 97.432C254.598 97.432 253.278 98.68 253.278 100.876V102.724ZM260.907 103.012C260.907 104.824 262.119 106.168 263.943 106.168C265.563 106.168 266.247 105.232 266.607 104.62L265.671 104.092C265.383 104.668 264.903 105.184 263.943 105.184C262.875 105.184 262.131 104.464 262.059 103.444H266.703V102.892C266.703 101.08 265.539 99.94 263.859 99.94C262.143 99.94 260.907 101.212 260.907 103.012ZM262.071 102.532C262.191 101.548 262.839 100.924 263.859 100.924C264.831 100.924 265.491 101.512 265.551 102.532H262.071ZM268.009 100.108V106H269.137V103C269.137 101.656 269.845 100.936 270.901 100.936C271.849 100.936 272.425 101.428 272.425 102.508V106H273.541V102.448C273.541 100.912 272.545 100 271.225 100C270.061 100 269.497 100.528 269.233 101.056H269.113V100.108H268.009ZM274.823 103.012C274.823 104.824 276.035 106.168 277.859 106.168C279.479 106.168 280.163 105.232 280.523 104.62L279.587 104.092C279.299 104.668 278.819 105.184 277.859 105.184C276.791 105.184 276.047 104.464 275.975 103.444H280.619V102.892C280.619 101.08 279.455 99.94 277.775 99.94C276.059 99.94 274.823 101.212 274.823 103.012ZM275.987 102.532C276.107 101.548 276.755 100.924 277.775 100.924C278.747 100.924 279.407 101.512 279.467 102.532H275.987ZM283.029 100.108H281.925V106H283.053V102.448C283.053 101.5 283.605 101.056 284.433 101.056H285.357V100.084H284.625C283.845 100.084 283.377 100.312 283.149 100.9H283.029V100.108ZM286.26 101.692L287.316 102.028C287.46 101.356 287.94 100.864 288.828 100.864C289.728 100.864 290.172 101.368 290.172 102.1V102.484H288.3C287.016 102.484 286.068 103.096 286.068 104.308C286.068 105.496 287.016 106.168 288.24 106.168C289.38 106.168 289.836 105.604 290.052 105.208H290.196V106H291.276V102.172C291.276 100.756 290.352 99.94 288.84 99.94C287.34 99.94 286.548 100.732 286.26 101.692ZM287.196 104.284C287.196 103.708 287.664 103.396 288.36 103.396H290.172V103.516C290.172 104.584 289.464 105.244 288.432 105.244C287.664 105.244 287.196 104.86 287.196 104.284ZM292.109 101.032H293.813V104.896C293.813 105.568 294.245 106 294.905 106H296.537V105.076H295.277C295.061 105.076 294.941 104.956 294.941 104.716V101.032H296.765V100.108H294.941V98.092H293.813V100.108H292.109V101.032ZM297.781 98.32C297.781 98.812 298.153 99.172 298.645 99.172C299.149 99.172 299.521 98.812 299.521 98.32C299.521 97.816 299.149 97.456 298.645 97.456C298.153 97.456 297.781 97.816 297.781 98.32ZM299.209 100.108H298.081V106H299.209V100.108ZM300.308 100.108L302.48 106H304.112L306.296 100.108H305.072L303.356 105.004H303.236L301.532 100.108H300.308ZM306.914 103.012C306.914 104.824 308.126 106.168 309.95 106.168C311.57 106.168 312.254 105.232 312.614 104.62L311.678 104.092C311.39 104.668 310.91 105.184 309.95 105.184C308.882 105.184 308.138 104.464 308.066 103.444H312.71V102.892C312.71 101.08 311.546 99.94 309.866 99.94C308.15 99.94 306.914 101.212 306.914 103.012ZM308.078 102.532C308.198 101.548 308.846 100.924 309.866 100.924C310.838 100.924 311.498 101.512 311.558 102.532H308.078ZM102.816 113.6V122H103.98V114.836H104.1L106.404 122H108.084L110.376 114.836H110.496V122H111.66V113.6H109.608L107.304 120.788H107.184L104.868 113.6H102.816ZM113.029 119.06C113.029 120.932 114.289 122.168 116.065 122.168C117.841 122.168 119.113 120.932 119.113 119.06C119.113 117.176 117.841 115.94 116.065 115.94C114.289 115.94 113.029 117.176 113.029 119.06ZM114.157 119.06C114.157 117.788 114.925 116.936 116.065 116.936C117.205 116.936 117.985 117.764 117.985 119.06C117.985 120.344 117.205 121.172 116.065 121.172C114.925 121.172 114.157 120.368 114.157 119.06ZM126.194 113.6H125.066V117.02H124.946C124.61 116.468 123.998 115.94 122.834 115.94C121.346 115.94 120.098 117.152 120.098 119.06C120.098 120.968 121.346 122.168 122.834 122.168C123.998 122.168 124.61 121.64 124.97 121.064H125.09V122H126.194V113.6ZM123.146 116.924C124.262 116.924 125.078 117.728 125.078 119.06C125.078 120.38 124.262 121.184 123.146 121.184C122.03 121.184 121.238 120.392 121.238 119.06C121.238 117.716 122.03 116.924 123.146 116.924ZM127.554 119.012C127.554 120.824 128.766 122.168 130.59 122.168C132.21 122.168 132.894 121.232 133.254 120.62L132.318 120.092C132.03 120.668 131.55 121.184 130.59 121.184C129.522 121.184 128.778 120.464 128.706 119.444H133.35V118.892C133.35 117.08 132.186 115.94 130.506 115.94C128.79 115.94 127.554 117.212 127.554 119.012ZM128.718 118.532C128.838 117.548 129.486 116.924 130.506 116.924C131.478 116.924 132.138 117.512 132.198 118.532H128.718ZM135.783 113.6H134.655V122H135.783V113.6ZM137.386 117.68C137.386 118.772 138.298 119.216 139.438 119.42L139.942 119.504C140.758 119.636 141.214 119.864 141.214 120.38C141.214 120.92 140.722 121.28 139.894 121.28C139.066 121.28 138.37 120.932 138.19 119.852L137.134 120.116C137.35 121.496 138.406 122.168 139.894 122.168C141.346 122.168 142.306 121.484 142.306 120.308C142.306 119.12 141.358 118.76 140.11 118.544L139.606 118.472C138.934 118.352 138.49 118.136 138.49 117.62C138.49 117.128 138.934 116.828 139.654 116.828C140.374 116.828 140.89 117.128 141.058 117.92L142.09 117.62C141.838 116.588 140.974 115.94 139.654 115.94C138.274 115.94 137.386 116.588 137.386 117.68Z" fill="white"/>
<rect width="79" height="35" transform="translate(95 185) rotate(180)" fill="#2F3564"/>
<path d="M45.468 162.2L42.584 172H44.25L44.908 169.718H48.548L49.206 172H50.858L47.974 162.2H45.468ZM45.3 168.248L46.658 163.558H46.798L48.142 168.248H45.3ZM52.3775 162.2V172H54.0015V162.2H52.3775ZM60.699 162.2V167.576H62.855C63.037 167.226 63.429 166.764 64.269 166.764C65.277 166.764 65.977 167.464 65.977 168.626C65.977 169.928 65.221 170.754 63.975 170.754C62.715 170.754 61.973 169.97 61.973 168.71V168.528H60.363V168.822C60.363 170.866 61.847 172.196 64.017 172.196C66.173 172.196 67.601 170.726 67.601 168.556C67.601 166.582 66.243 165.392 64.675 165.392C63.317 165.392 62.743 166.092 62.477 166.526H62.309V163.67H67.279V162.2H60.699Z" fill="white"/>
<rect width="249" height="35" transform="translate(95 150)" fill="#76623B"/>
<path d="M107.487 161.6V170H108.675V166.712H110.775C112.287 166.712 113.427 165.74 113.427 164.156C113.427 162.584 112.311 161.6 110.775 161.6H107.487ZM108.675 162.668H110.655C111.639 162.668 112.239 163.232 112.239 164.156C112.239 165.08 111.639 165.644 110.655 165.644H108.675V162.668ZM115.718 164.108H114.614V170H115.742V166.448C115.742 165.5 116.294 165.056 117.122 165.056H118.046V164.084H117.314C116.534 164.084 116.066 164.312 115.838 164.9H115.718V164.108ZM118.522 167.06C118.522 168.932 119.782 170.168 121.558 170.168C123.334 170.168 124.606 168.932 124.606 167.06C124.606 165.176 123.334 163.94 121.558 163.94C119.782 163.94 118.522 165.176 118.522 167.06ZM119.65 167.06C119.65 165.788 120.418 164.936 121.558 164.936C122.698 164.936 123.478 165.764 123.478 167.06C123.478 168.344 122.698 169.172 121.558 169.172C120.418 169.172 119.65 168.368 119.65 167.06ZM131.688 161.6H130.56V165.02H130.44C130.104 164.468 129.492 163.94 128.328 163.94C126.84 163.94 125.592 165.152 125.592 167.06C125.592 168.968 126.84 170.168 128.328 170.168C129.492 170.168 130.104 169.64 130.464 169.064H130.584V170H131.688V161.6ZM128.64 164.924C129.756 164.924 130.572 165.728 130.572 167.06C130.572 168.38 129.756 169.184 128.64 169.184C127.524 169.184 126.732 168.392 126.732 167.06C126.732 165.716 127.524 164.924 128.64 164.924ZM138.94 170V164.108H137.812V167.108C137.812 168.452 137.104 169.172 136.048 169.172C135.1 169.172 134.524 168.68 134.524 167.6V164.108H133.408V167.66C133.408 169.196 134.404 170.108 135.724 170.108C136.888 170.108 137.452 169.58 137.716 169.052H137.836V170H138.94ZM140.293 167.06C140.293 168.884 141.649 170.168 143.353 170.168C144.973 170.168 145.933 169.196 146.221 167.924L145.129 167.672C144.973 168.548 144.421 169.172 143.365 169.172C142.273 169.172 141.433 168.332 141.433 167.06C141.433 165.776 142.261 164.936 143.365 164.936C144.373 164.936 144.985 165.572 145.081 166.424L146.185 166.196C145.957 164.936 144.949 163.94 143.353 163.94C141.649 163.94 140.293 165.224 140.293 167.06ZM146.78 165.032H148.484V168.896C148.484 169.568 148.916 170 149.576 170H151.208V169.076H149.948C149.732 169.076 149.612 168.956 149.612 168.716V165.032H151.436V164.108H149.612V162.092H148.484V164.108H146.78V165.032ZM152.452 162.32C152.452 162.812 152.824 163.172 153.316 163.172C153.82 163.172 154.192 162.812 154.192 162.32C154.192 161.816 153.82 161.456 153.316 161.456C152.824 161.456 152.452 161.816 152.452 162.32ZM153.88 164.108H152.752V170H153.88V164.108ZM155.231 167.06C155.231 168.932 156.491 170.168 158.267 170.168C160.043 170.168 161.315 168.932 161.315 167.06C161.315 165.176 160.043 163.94 158.267 163.94C156.491 163.94 155.231 165.176 155.231 167.06ZM156.359 167.06C156.359 165.788 157.127 164.936 158.267 164.936C159.407 164.936 160.187 165.764 160.187 167.06C160.187 168.344 159.407 169.172 158.267 169.172C157.127 169.172 156.359 168.368 156.359 167.06ZM162.672 164.108V170H163.8V167C163.8 165.656 164.508 164.936 165.564 164.936C166.512 164.936 167.088 165.428 167.088 166.508V170H168.204V166.448C168.204 164.912 167.208 164 165.888 164C164.724 164 164.16 164.528 163.896 165.056H163.776V164.108H162.672ZM169.558 162.32C169.558 162.812 169.93 163.172 170.422 163.172C170.926 163.172 171.298 162.812 171.298 162.32C171.298 161.816 170.926 161.456 170.422 161.456C169.93 161.456 169.558 161.816 169.558 162.32ZM170.986 164.108H169.858V170H170.986V164.108ZM172.589 164.108V165.032H176.177L172.469 169.16V170H177.773V169.076H173.981L177.677 164.948V164.108H172.589ZM178.88 162.32C178.88 162.812 179.252 163.172 179.744 163.172C180.248 163.172 180.62 162.812 180.62 162.32C180.62 161.816 180.248 161.456 179.744 161.456C179.252 161.456 178.88 161.816 178.88 162.32ZM180.308 164.108H179.18V170H180.308V164.108ZM182.031 164.108V170H183.159V167C183.159 165.656 183.867 164.936 184.923 164.936C185.871 164.936 186.447 165.428 186.447 166.508V170H187.563V166.448C187.563 164.912 186.567 164 185.247 164C184.083 164 183.519 164.528 183.255 165.056H183.135V164.108H182.031ZM193.837 164.108V165.056H193.717C193.357 164.468 192.733 163.94 191.581 163.94C190.093 163.94 188.845 165.14 188.845 166.976C188.845 168.824 190.093 170.012 191.581 170.012C192.733 170.012 193.357 169.472 193.693 168.944H193.813V169.64C193.813 170.948 193.045 171.608 191.893 171.608C190.753 171.608 190.189 170.948 189.973 170.252L188.953 170.672C189.241 171.536 190.129 172.568 191.917 172.568C193.729 172.568 194.941 171.536 194.941 169.688V164.108H193.837ZM191.893 169.04C190.777 169.04 189.985 168.248 189.985 166.976C189.985 165.716 190.777 164.924 191.893 164.924C193.009 164.924 193.825 165.716 193.825 166.976C193.825 168.236 193.009 169.04 191.893 169.04ZM202.252 161.6L199.66 170H200.884L201.508 167.96H204.82L205.444 170H206.68L204.088 161.6H202.252ZM201.808 166.88L203.104 162.632H203.224L204.52 166.88H201.808ZM207.742 161.6V170H208.93V161.6H207.742ZM215.065 169.652C215.065 172.016 216.349 172.976 218.197 172.976V171.956C216.853 171.92 216.193 171.152 216.193 169.556V163.724C216.193 162.128 216.853 161.36 218.197 161.324V160.304C216.349 160.304 215.065 161.264 215.065 163.628V169.652ZM219.375 161.6V170H220.539V162.836H220.659L222.963 170H224.643L226.935 162.836H227.055V170H228.219V161.6H226.167L223.863 168.788H223.743L221.427 161.6H219.375ZM229.972 161.6V170H235.348V168.932H231.16V161.6H229.972ZM236.19 164.828V166.772C236.19 168.98 237.498 170.168 239.538 170.168C241.578 170.168 242.886 168.98 242.886 166.772V164.828C242.886 162.62 241.578 161.432 239.538 161.432C237.498 161.432 236.19 162.62 236.19 164.828ZM237.378 164.78C237.378 163.364 238.182 162.488 239.538 162.488C240.894 162.488 241.698 163.364 241.698 164.78V166.82C241.698 168.236 240.894 169.112 239.538 169.112C238.182 169.112 237.378 168.236 237.378 166.82V164.78ZM244.344 172.4H245.472V169.1H245.592C245.928 169.64 246.54 170.168 247.692 170.168C249.192 170.168 250.44 168.968 250.44 167.06C250.44 165.152 249.192 163.94 247.692 163.94C246.54 163.94 245.928 164.468 245.568 165.056H245.448V164.108H244.344V172.4ZM247.392 169.184C246.264 169.184 245.46 168.38 245.46 167.06C245.46 165.728 246.264 164.924 247.392 164.924C248.508 164.924 249.3 165.716 249.3 167.06C249.3 168.392 248.508 169.184 247.392 169.184ZM251.645 165.68C251.645 166.772 252.557 167.216 253.697 167.42L254.201 167.504C255.017 167.636 255.473 167.864 255.473 168.38C255.473 168.92 254.981 169.28 254.153 169.28C253.325 169.28 252.629 168.932 252.449 167.852L251.393 168.116C251.609 169.496 252.665 170.168 254.153 170.168C255.605 170.168 256.565 169.484 256.565 168.308C256.565 167.12 255.617 166.76 254.369 166.544L253.865 166.472C253.193 166.352 252.749 166.136 252.749 165.62C252.749 165.128 253.193 164.828 253.913 164.828C254.633 164.828 255.149 165.128 255.317 165.92L256.349 165.62C256.097 164.588 255.233 163.94 253.913 163.94C252.533 163.94 251.645 164.588 251.645 165.68ZM260.476 169.652V163.628C260.476 161.264 259.204 160.304 257.344 160.304V161.324C258.7 161.36 259.36 162.128 259.36 163.724V169.556C259.36 171.152 258.7 171.92 257.344 171.956V172.976C259.204 172.976 260.476 172.016 260.476 169.652Z" fill="white"/>
<path d="M16 209V221H344V209" stroke="#787878"/>
<path d="M148.882 235.76C148.882 237.944 150.202 239.168 152.29 239.168C154.354 239.168 155.554 237.98 155.554 236.156V235.868H154.174V236.18C154.174 237.164 153.55 237.932 152.29 237.932C151.042 237.932 150.274 237.116 150.274 235.784V233.816C150.274 232.484 151.03 231.668 152.29 231.668C153.526 231.668 154.174 232.448 154.174 233.432V233.66H155.554V233.456C155.554 231.62 154.378 230.432 152.29 230.432C150.202 230.432 148.882 231.656 148.882 233.84V235.76ZM156.67 236.036C156.67 237.956 157.978 239.168 159.754 239.168C161.53 239.168 162.826 237.956 162.826 236.036C162.826 234.128 161.53 232.916 159.754 232.916C157.978 232.916 156.67 234.128 156.67 236.036ZM157.99 236.036C157.99 234.824 158.71 234.068 159.754 234.068C160.786 234.068 161.506 234.812 161.506 236.036C161.506 237.26 160.786 238.016 159.754 238.016C158.71 238.016 157.99 237.272 157.99 236.036ZM169.944 239V233.084H168.636V236.12C168.636 237.332 168 238.016 167.016 238.016C166.14 238.016 165.624 237.548 165.624 236.564V233.084H164.304V236.636C164.304 238.136 165.264 239.096 166.62 239.096C167.748 239.096 168.276 238.604 168.54 238.076H168.66V239H169.944ZM173.073 233.084H171.789V239H173.097V235.496C173.097 234.596 173.661 234.176 174.453 234.176H175.365V233.06H174.681C173.913 233.06 173.433 233.288 173.193 233.9H173.073V233.084ZM176.377 234.704C176.377 235.832 177.313 236.276 178.513 236.492L178.921 236.564C179.701 236.708 180.097 236.9 180.097 237.356C180.097 237.812 179.677 238.148 178.921 238.148C178.153 238.148 177.529 237.836 177.361 236.864L176.137 237.164C176.341 238.484 177.397 239.168 178.921 239.168C180.409 239.168 181.369 238.472 181.369 237.26C181.369 236.048 180.397 235.7 179.101 235.46L178.693 235.388C178.045 235.268 177.649 235.076 177.649 234.62C177.649 234.188 178.033 233.924 178.681 233.924C179.329 233.924 179.797 234.2 179.941 234.92L181.141 234.56C180.877 233.564 180.013 232.916 178.681 232.916C177.289 232.916 176.377 233.564 176.377 234.704ZM182.485 236.012C182.485 237.872 183.709 239.168 185.509 239.168C187.141 239.168 187.837 238.232 188.185 237.608L187.093 237.02C186.853 237.536 186.433 238.028 185.533 238.028C184.585 238.028 183.889 237.368 183.841 236.456H188.329V235.916C188.329 234.104 187.177 232.904 185.461 232.904C183.721 232.904 182.485 234.164 182.485 236.012ZM183.853 235.436C183.961 234.608 184.537 234.044 185.449 234.044C186.325 234.044 186.913 234.584 186.985 235.436H183.853ZM189.624 234.704C189.624 235.832 190.56 236.276 191.76 236.492L192.168 236.564C192.948 236.708 193.344 236.9 193.344 237.356C193.344 237.812 192.924 238.148 192.168 238.148C191.4 238.148 190.776 237.836 190.608 236.864L189.384 237.164C189.588 238.484 190.644 239.168 192.168 239.168C193.656 239.168 194.616 238.472 194.616 237.26C194.616 236.048 193.644 235.7 192.348 235.46L191.94 235.388C191.292 235.268 190.896 235.076 190.896 234.62C190.896 234.188 191.28 233.924 191.928 233.924C192.576 233.924 193.044 234.2 193.188 234.92L194.388 234.56C194.124 233.564 193.26 232.916 191.928 232.916C190.536 232.916 189.624 233.564 189.624 234.704Z" fill="#787878"/>
<path d="M16.882 4.2L16.882 14H20.102C22.72 14 24.134 12.67 24.134 10.01L24.134 8.19C24.134 5.53 22.72 4.2 20.102 4.2H16.882ZM18.506 5.67H20.116C21.74 5.67 22.524 6.51 22.524 8.134L22.524 10.066C22.524 11.69 21.754 12.53 20.116 12.53H18.506L18.506 5.67ZM25.522 10.514C25.522 12.684 26.95 14.196 29.05 14.196C30.954 14.196 31.766 13.104 32.172 12.376L30.898 11.69C30.618 12.292 30.128 12.866 29.078 12.866C27.972 12.866 27.16 12.096 27.104 11.032L32.34 11.032L32.34 10.402C32.34 8.288 30.996 6.888 28.994 6.888C26.964 6.888 25.522 8.358 25.522 10.514ZM27.118 9.842C27.244 8.876 27.916 8.218 28.98 8.218C30.002 8.218 30.688 8.848 30.772 9.842L27.118 9.842ZM33.5709 10.514C33.5709 12.684 34.9989 14.196 37.0989 14.196C39.0029 14.196 39.8149 13.104 40.2209 12.376L38.9469 11.69C38.6669 12.292 38.1769 12.866 37.1269 12.866C36.0209 12.866 35.2089 12.096 35.1529 11.032H40.3889L40.3889 10.402C40.3889 8.288 39.0449 6.888 37.0429 6.888C35.0129 6.888 33.5709 8.358 33.5709 10.514ZM35.1669 9.842C35.2929 8.876 35.9649 8.218 37.0289 8.218C38.0509 8.218 38.7369 8.848 38.8209 9.842H35.1669ZM42.0538 16.8H43.5798L43.5798 13.02H43.7198C44.1118 13.622 44.8118 14.196 46.0858 14.196C47.7798 14.196 49.2498 12.796 49.2498 10.542C49.2498 8.302 47.7798 6.902 46.0858 6.902C44.8118 6.902 44.1118 7.476 43.6918 8.106H43.5518L43.5518 7.098H42.0538L42.0538 16.8ZM45.6378 12.866C44.4478 12.866 43.5658 11.998 43.5658 10.542C43.5658 9.086 44.4478 8.218 45.6378 8.218C46.8418 8.218 47.7098 9.086 47.7098 10.542C47.7098 12.012 46.8418 12.866 45.6378 12.866ZM55.3765 4.2L55.3765 14L61.7045 14L61.7045 12.53L57.0005 12.53L57.0005 4.2H55.3765ZM62.7587 10.514C62.7587 12.684 64.1867 14.196 66.2867 14.196C68.1907 14.196 69.0027 13.104 69.4087 12.376L68.1347 11.69C67.8547 12.292 67.3647 12.866 66.3147 12.866C65.2087 12.866 64.3967 12.096 64.3407 11.032H69.5767L69.5767 10.402C69.5767 8.288 68.2327 6.888 66.2307 6.888C64.2007 6.888 62.7587 8.358 62.7587 10.514ZM64.3547 9.842C64.4807 8.876 65.1527 8.218 66.2167 8.218C67.2387 8.218 67.9247 8.848 68.0087 9.842H64.3547ZM71.1019 8.89L72.5299 9.366C72.6699 8.652 73.1599 8.134 74.1259 8.134C75.0919 8.134 75.5539 8.68 75.5539 9.422L75.5539 9.842H73.5099C71.9699 9.842 70.8639 10.57 70.8639 11.998C70.8639 13.398 71.9699 14.196 73.3979 14.196C74.7139 14.196 75.2039 13.51 75.3999 13.132H75.5819L75.5819 14H77.0519L77.0519 9.534C77.0519 7.84 75.9319 6.888 74.1399 6.888C72.3619 6.888 71.4379 7.812 71.1019 8.89ZM72.4039 11.956C72.4039 11.382 72.8659 11.032 73.6079 11.032H75.5539L75.5539 11.158C75.5539 12.25 74.7839 12.936 73.6919 12.936C72.8659 12.936 72.4039 12.544 72.4039 11.956ZM80.6108 7.098H79.1128L79.1128 14H80.6388L80.6388 9.912C80.6388 8.862 81.2968 8.372 82.2208 8.372H83.2848L83.2848 7.07H82.4868C81.5908 7.07 81.0308 7.336 80.7508 8.05H80.6108L80.6108 7.098ZM84.7281 7.098L84.7281 14H86.2541L86.2541 10.458C86.2541 9.03 86.9961 8.232 88.1441 8.232C89.1661 8.232 89.7681 8.778 89.7681 9.94L89.7681 14H91.3081L91.3081 9.856C91.3081 8.092 90.1881 6.972 88.6061 6.972C87.2901 6.972 86.6741 7.56 86.3661 8.162H86.2261L86.2261 7.098H84.7281ZM93.0005 5.04C93.0005 5.684 93.4905 6.132 94.1345 6.132C94.7785 6.132 95.2685 5.684 95.2685 5.04C95.2685 4.382 94.7785 3.934 94.1345 3.934C93.4905 3.934 93.0005 4.382 93.0005 5.04ZM94.9045 7.098H93.3785L93.3785 14H94.9045L94.9045 7.098ZM97.0661 7.098L97.0661 14H98.5921L98.5921 10.458C98.5921 9.03 99.3341 8.232 100.482 8.232C101.504 8.232 102.106 8.778 102.106 9.94L102.106 14H103.646L103.646 9.856C103.646 8.092 102.526 6.972 100.944 6.972C99.6281 6.972 99.0121 7.56 98.7041 8.162H98.5641L98.5641 7.098H97.0661ZM110.981 7.098L110.981 8.106H110.841C110.421 7.476 109.721 6.902 108.447 6.902C106.753 6.902 105.283 8.288 105.283 10.444C105.283 12.6 106.753 14 108.447 14C109.721 14 110.421 13.412 110.813 12.824H110.953L110.953 13.566C110.953 14.994 110.113 15.694 108.867 15.694C107.621 15.694 107.005 14.994 106.753 14.196L105.381 14.784C105.731 15.806 106.781 16.996 108.895 16.996C111.065 16.996 112.493 15.806 112.493 13.608L112.493 7.098H110.981ZM108.895 12.67C107.691 12.67 106.823 11.816 106.823 10.444C106.823 9.072 107.691 8.218 108.895 8.218C110.099 8.218 110.981 9.086 110.981 10.444C110.981 11.816 110.099 12.67 108.895 12.67ZM119.039 4.2L119.039 14H125.367L125.367 12.53H120.663L120.663 4.2H119.039ZM126.422 10.514C126.422 12.684 127.85 14.196 129.95 14.196C131.854 14.196 132.666 13.104 133.072 12.376L131.798 11.69C131.518 12.292 131.028 12.866 129.978 12.866C128.872 12.866 128.06 12.096 128.004 11.032H133.24L133.24 10.402C133.24 8.288 131.896 6.888 129.894 6.888C127.864 6.888 126.422 8.358 126.422 10.514ZM128.018 9.842C128.144 8.876 128.816 8.218 129.88 8.218C130.902 8.218 131.588 8.848 131.672 9.842H128.018ZM134.765 8.89L136.193 9.366C136.333 8.652 136.823 8.134 137.789 8.134C138.755 8.134 139.217 8.68 139.217 9.422L139.217 9.842H137.173C135.633 9.842 134.527 10.57 134.527 11.998C134.527 13.398 135.633 14.196 137.061 14.196C138.377 14.196 138.867 13.51 139.063 13.132H139.245L139.245 14H140.715L140.715 9.534C140.715 7.84 139.595 6.888 137.803 6.888C136.025 6.888 135.101 7.812 134.765 8.89ZM136.067 11.956C136.067 11.382 136.529 11.032 137.271 11.032H139.217L139.217 11.158C139.217 12.25 138.447 12.936 137.355 12.936C136.529 12.936 136.067 12.544 136.067 11.956ZM149.552 4.2H148.012L148.012 8.064H147.872C147.48 7.476 146.78 6.902 145.506 6.902C143.812 6.902 142.342 8.302 142.342 10.542C142.342 12.796 143.812 14.196 145.506 14.196C146.78 14.196 147.48 13.622 147.9 12.978H148.04L148.04 14H149.552L149.552 4.2ZM145.954 8.218C147.158 8.218 148.04 9.086 148.04 10.542C148.04 11.998 147.158 12.866 145.954 12.866C144.75 12.866 143.882 12.012 143.882 10.542C143.882 9.086 144.75 8.218 145.954 8.218ZM151.265 10.514C151.265 12.684 152.693 14.196 154.793 14.196C156.697 14.196 157.509 13.104 157.915 12.376L156.641 11.69C156.361 12.292 155.871 12.866 154.821 12.866C153.715 12.866 152.903 12.096 152.847 11.032H158.083L158.083 10.402C158.083 8.288 156.739 6.888 154.737 6.888C152.707 6.888 151.265 8.358 151.265 10.514ZM152.861 9.842C152.987 8.876 153.659 8.218 154.723 8.218C155.745 8.218 156.431 8.848 156.515 9.842H152.861ZM161.246 7.098H159.748L159.748 14H161.274L161.274 9.912C161.274 8.862 161.932 8.372 162.856 8.372H163.92L163.92 7.07H163.122C162.226 7.07 161.666 7.336 161.386 8.05H161.246L161.246 7.098ZM165.101 8.988C165.101 10.304 166.193 10.822 167.593 11.074L168.069 11.158C168.979 11.326 169.441 11.55 169.441 12.082C169.441 12.614 168.951 13.006 168.069 13.006C167.173 13.006 166.445 12.642 166.249 11.508L164.821 11.858C165.059 13.398 166.291 14.196 168.069 14.196C169.805 14.196 170.925 13.384 170.925 11.97C170.925 10.556 169.791 10.15 168.279 9.87L167.803 9.786C167.047 9.646 166.585 9.422 166.585 8.89C166.585 8.386 167.033 8.078 167.789 8.078C168.545 8.078 169.091 8.4 169.259 9.24L170.659 8.82C170.351 7.658 169.343 6.902 167.789 6.902C166.165 6.902 165.101 7.658 165.101 8.988ZM177.06 4.2L177.06 14H178.684L178.684 10.29H180.994C182.772 10.29 184.116 9.1 184.116 7.252C184.116 5.39 182.814 4.2 180.994 4.2H177.06ZM178.684 5.67H180.826C181.848 5.67 182.492 6.272 182.492 7.252C182.492 8.218 181.848 8.82 180.826 8.82H178.684L178.684 5.67ZM187.126 7.098H185.628L185.628 14H187.154L187.154 9.912C187.154 8.862 187.812 8.372 188.736 8.372H189.8L189.8 7.07H189.002C188.106 7.07 187.546 7.336 187.266 8.05H187.126L187.126 7.098ZM190.563 10.542C190.563 12.782 192.089 14.196 194.161 14.196C196.233 14.196 197.745 12.782 197.745 10.542C197.745 8.316 196.233 6.902 194.161 6.902C192.089 6.902 190.563 8.316 190.563 10.542ZM192.103 10.542C192.103 9.128 192.943 8.246 194.161 8.246C195.365 8.246 196.205 9.114 196.205 10.542C196.205 11.97 195.365 12.852 194.161 12.852C192.943 12.852 192.103 11.984 192.103 10.542ZM204.734 7.098L204.734 8.106H204.594C204.174 7.476 203.474 6.902 202.2 6.902C200.506 6.902 199.036 8.288 199.036 10.444C199.036 12.6 200.506 14 202.2 14C203.474 14 204.174 13.412 204.566 12.824L204.706 12.824L204.706 13.566C204.706 14.994 203.866 15.694 202.62 15.694C201.374 15.694 200.758 14.994 200.506 14.196L199.134 14.784C199.484 15.806 200.534 16.996 202.648 16.996C204.818 16.996 206.246 15.806 206.246 13.608L206.246 7.098H204.734ZM202.648 12.67C201.444 12.67 200.576 11.816 200.576 10.444C200.576 9.072 201.444 8.218 202.648 8.218C203.852 8.218 204.734 9.086 204.734 10.444C204.734 11.816 203.852 12.67 202.648 12.67ZM209.891 7.098H208.393L208.393 14H209.919L209.919 9.912C209.919 8.862 210.577 8.372 211.501 8.372H212.565L212.565 7.07L211.767 7.07C210.871 7.07 210.311 7.336 210.031 8.05H209.891L209.891 7.098ZM213.814 8.89L215.242 9.366C215.382 8.652 215.872 8.134 216.838 8.134C217.804 8.134 218.266 8.68 218.266 9.422L218.266 9.842H216.222C214.682 9.842 213.576 10.57 213.576 11.998C213.576 13.398 214.682 14.196 216.11 14.196C217.426 14.196 217.916 13.51 218.112 13.132H218.294L218.294 14H219.764L219.764 9.534C219.764 7.84 218.644 6.888 216.852 6.888C215.074 6.888 214.15 7.812 213.814 8.89ZM215.116 11.956C215.116 11.382 215.578 11.032 216.32 11.032H218.266L218.266 11.158C218.266 12.25 217.496 12.936 216.404 12.936C215.578 12.936 215.116 12.544 215.116 11.956ZM221.825 7.098L221.825 14H223.351L223.351 9.856C223.351 8.806 223.897 8.232 224.765 8.232C225.563 8.232 226.025 8.694 226.025 9.492L226.025 14H227.565L227.565 9.856C227.565 8.806 228.111 8.232 228.979 8.232C229.763 8.232 230.239 8.694 230.239 9.492L230.239 14H231.779L231.779 9.408C231.779 7.812 230.757 6.972 229.455 6.972C228.335 6.972 227.775 7.476 227.425 8.12H227.285C226.963 7.434 226.361 6.972 225.339 6.972C224.317 6.972 223.757 7.406 223.463 7.966H223.323L223.323 7.098H221.825Z" fill="#1E2029"/>
</g>
<defs>
<clipPath id="clip0_6108_6126">
<rect width="360" height="239" fill="white"/>
</clipPath>
</defs>
</svg>
