<svg width="32" height="26" viewBox="0 0 32 26" fill="none" xmlns="http://www.w3.org/2000/svg">
<path d="M10.4001 17.6C10.2806 17.6 10.1611 17.6175 10.0471 17.6545C9.39906 17.865 8.71756 18 8.00006 18C7.28256 18 6.60106 17.865 5.95257 17.6545C5.83857 17.6175 5.71957 17.6 5.60007 17.6C2.49707 17.6 -0.0164192 20.124 8.07737e-05 23.2309C0.00708076 24.5439 1.08658 25.5999 2.40007 25.5999H13.6C14.9135 25.5999 15.993 24.5439 16 23.2309C16.0165 20.124 13.503 17.6 10.4001 17.6ZM8.00006 16C10.6511 16 12.8 13.851 12.8 11.2C12.8 8.54898 10.6511 6.39998 8.00006 6.39998C5.34907 6.39998 3.20007 8.54898 3.20007 11.2C3.20007 13.851 5.34907 16 8.00006 16ZM29.6 0H10.4001C9.07656 0 8.00006 1.1125 8.00006 2.47949V4.79999C9.17106 4.79999 10.2551 5.13899 11.2001 5.68999V3.19999H28.8V17.6H25.6V14.4H19.2V17.6H15.388C16.343 18.4345 17.044 19.5365 17.3725 20.7999H29.6C30.9235 20.7999 32 19.6875 32 18.3205V2.47949C32 1.1125 30.9235 0 29.6 0Z" fill="#324BD9"/>
</svg>
