<svg width="215" height="121" viewBox="0 0 215 121" fill="none" xmlns="http://www.w3.org/2000/svg">
<rect x="0.943848" y="0.0371094" width="213.6" height="120" fill="#FAFAFA"/>
<rect x="0.943848" y="3.03711" width="214" height="117" fill="#1D2A73"/>
<path d="M167.346 59.2691V62.0051H170.946V65.6531H173.778V62.0051H177.378V59.2691H173.778V55.6211H170.946V59.2691H167.346ZM184.125 52.2371L179.805 59.8211H183.117L185.469 55.5971H185.757V69.0371H188.925V52.2371H184.125Z" fill="#F1E65F"/>
<path d="M80.6819 56.3371V62.7371C80.6819 70.1771 84.7219 74.0971 91.0819 74.0971C97.4419 74.0971 101.442 70.1771 101.442 62.7371V56.3371C101.442 49.0171 97.4419 44.9771 91.0819 44.9771C84.7219 44.9771 80.6819 49.0171 80.6819 56.3371ZM84.6419 56.1371C84.6419 51.4971 86.8819 48.4971 91.0819 48.4971C95.2019 48.4971 97.5219 51.4171 97.5219 56.1371V62.9371C97.5219 67.6171 95.4419 70.5771 91.0819 70.5771C86.7619 70.5771 84.6419 67.6971 84.6419 62.9371V56.1371ZM104.818 54.7371V55.6971H108.778V54.8571C108.778 50.6171 111.498 48.4971 115.098 48.4971C118.618 48.4971 120.978 50.5371 120.978 54.0171C120.978 57.6171 118.338 59.3371 113.938 60.4571C108.538 61.8571 104.818 64.1371 104.818 69.6571V73.5371H124.898V69.9771H108.818V69.2571C108.818 65.6571 111.298 64.7371 115.818 63.5771C121.578 62.0971 124.938 59.4171 124.938 54.0971C124.938 48.4971 120.578 44.9771 115.058 44.9771C109.418 44.9771 104.818 48.4171 104.818 54.7371Z" fill="white"/>
<path d="M145.983 58.9764C145.397 58.3907 144.447 58.3907 143.861 58.9764L134.315 68.5224C133.729 69.1082 133.729 70.0579 134.315 70.6437C134.901 71.2295 135.851 71.2295 136.437 70.6437L144.922 62.1584L153.407 70.6437C153.993 71.2295 154.943 71.2295 155.528 70.6437C156.114 70.0579 156.114 69.1082 155.528 68.5224L145.983 58.9764ZM137.844 83.3711L136.596 82.5377V82.5377L137.844 83.3711ZM94.7281 101.23L94.4354 102.701H94.4354L94.7281 101.23ZM73.2234 89.7356L74.284 88.6749L73.2234 89.7356ZM61.7289 68.2309L60.2577 68.5235L61.7289 68.2309ZM64.1189 43.9644L65.5048 44.5384V44.5384L64.1189 43.9644ZM79.5879 25.1154L80.4213 26.3626L79.5879 25.1154ZM143.422 60.0371C143.422 68.0472 141.047 75.8775 136.596 82.5377L139.091 84.2044C143.871 77.0509 146.422 68.6406 146.422 60.0371H143.422ZM136.596 82.5377C132.146 89.1979 125.821 94.3889 118.421 97.4542L119.569 100.226C127.517 96.9335 134.311 91.358 139.091 84.2044L136.596 82.5377ZM118.421 97.4542C111.02 100.52 102.877 101.322 95.0207 99.7589L94.4354 102.701C102.874 104.38 111.62 103.518 119.569 100.226L118.421 97.4542ZM95.0207 99.7589C87.1645 98.1962 79.9481 94.339 74.284 88.6749L72.1627 90.7962C78.2463 96.8798 85.9973 101.023 94.4354 102.701L95.0207 99.7589ZM74.284 88.6749C68.62 83.0109 64.7628 75.7945 63.2001 67.9383L60.2577 68.5235C61.9362 76.9617 66.0791 84.7127 72.1627 90.7962L74.284 88.6749ZM63.2001 67.9383C61.6374 60.082 62.4394 51.9388 65.5048 44.5384L62.7331 43.3904C59.4407 51.339 58.5793 60.0854 60.2577 68.5235L63.2001 67.9383ZM65.5048 44.5384C68.5701 37.138 73.7611 30.8128 80.4213 26.3626L78.7546 23.8682C71.601 28.648 66.0255 35.4418 62.7331 43.3904L65.5048 44.5384ZM80.4213 26.3626C87.0815 21.9124 94.9117 19.5371 102.922 19.5371V16.5371C94.3184 16.5371 85.9081 19.0883 78.7546 23.8682L80.4213 26.3626Z" fill="#F1E65F"/>
</svg>
