<svg width="1600" height="900" viewBox="0 0 1600 900" fill="none" xmlns="http://www.w3.org/2000/svg">
<g clip-path="url(#clip0)">
<rect width="2000" height="1000" fill="#182880"/>
<path d="M523.015 289.307L613.972 243.207L670.656 156.274L770.84 173.397L867.07 136.517L939.572 208.961L1038.44 235.304L1054.26 336.725L1118.85 415.755L1072.71 507.956L1077.99 609.377L987.028 656.794L930.345 742.41L830.16 726.604L733.93 763.484L661.428 691.04L562.562 663.38L546.743 563.276L482.15 482.93L528.288 392.046L523.015 289.307Z" stroke="url(#paint0_radial)" stroke-width="3" stroke-miterlimit="10"/>
<path d="M529.606 260.329L627.154 220.814L693.065 137.833L795.886 162.859L897.389 133.882L964.618 214.228L1064.8 251.109L1071.39 356.481L1130.71 443.414L1075.35 532.981L1071.39 638.353L973.846 679.185L907.935 762.166L805.114 735.823L703.611 766.118L636.382 684.454L536.197 648.891L529.606 543.518L470.286 455.268L525.651 365.702L529.606 260.329Z" stroke="url(#paint1_radial)" stroke-width="3" stroke-miterlimit="10"/>
<path d="M538.833 231.352L644.291 198.423L718.111 119.393L820.932 154.957L927.708 133.882L990.983 223.449L1089.85 269.549L1087.21 377.556L1139.94 473.709L1075.35 560.641L1062.17 668.648L956.709 700.26L882.889 780.607L780.068 745.043L673.292 764.801L610.017 676.551L511.151 630.451L513.787 521.127L461.059 426.291L525.651 339.359L538.833 231.352Z" stroke="url(#paint2_radial)" stroke-width="3" stroke-miterlimit="10"/>
<path d="M552.015 201.057L661.428 177.348L745.794 102.271L848.615 148.371L960.664 136.517L1016.03 233.986L1113.58 290.624L1101.71 401.265L1147.85 504.004L1072.71 588.302L1048.98 697.626L939.572 721.335L855.206 796.413L752.385 750.312L640.336 762.167L584.971 664.697L487.423 609.376L499.287 497.418L453.149 394.68L528.288 311.699L552.015 201.057Z" stroke="url(#paint3_radial)" stroke-width="3" stroke-miterlimit="10"/>
<path d="M567.834 172.081L682.519 157.592L774.795 89.0999L876.298 144.421L992.301 143.103L1041.08 247.159L1135.99 314.334L1113.58 427.609L1151.81 536.934L1067.44 615.963L1033.17 726.604L918.481 741.093L826.205 810.902L724.702 754.265L608.699 756.899L559.925 651.526L465.013 585.668L487.423 471.076L449.195 361.752L533.561 282.722L567.834 172.081Z" stroke="url(#paint4_radial)" stroke-width="3" stroke-miterlimit="10"/>
<path d="M586.29 144.42L706.247 139.152L806.432 75.9281L906.617 143.103L1025.26 151.006L1066.12 264.282L1157.08 340.677L1124.12 455.27L1153.12 571.179L1059.53 644.94L1014.71 755.582L894.753 759.533L794.568 822.757L694.384 755.582L575.744 747.679L534.879 635.72L443.922 559.325L476.877 443.415L447.877 327.505L541.47 255.062L586.29 144.42Z" stroke="url(#paint5_radial)" stroke-width="3" stroke-miterlimit="10"/>
<path d="M607.381 116.759L731.293 123.344L840.706 66.7066L936.936 144.419L1058.21 164.176L1089.85 282.72L1176.85 369.653L1133.35 484.246L1151.81 605.424L1048.98 672.599L992.301 783.24L869.707 776.655L760.294 831.975L664.064 754.263L542.788 735.823L511.151 615.961L424.148 529.029L467.65 414.436L449.195 293.258L552.016 226.083L607.381 116.759Z" stroke="url(#paint6_radial)" stroke-width="3" stroke-miterlimit="10"/>
<path d="M632.427 90.4153L758.976 107.538L876.297 60.1207L967.254 148.37L1091.17 178.665L1112.26 303.795L1193.99 401.265L1138.62 515.857L1147.85 642.304L1035.8 701.577L968.573 808.266L842.024 791.143L724.702 838.561L633.745 750.311L509.832 720.017L488.741 594.887L407.011 497.417L462.376 384.142L453.149 257.694L565.198 197.105L632.427 90.4153Z" stroke="url(#paint7_radial)" stroke-width="3" stroke-miterlimit="10"/>
<path d="M660.11 65.3903L787.977 94.3678L913.208 56.1702L998.892 154.957L1122.8 198.423L1134.67 328.822L1209.81 435.512L1141.26 547.47L1139.94 677.869L1018.67 729.238L940.891 833.293L813.023 804.316L687.792 842.513L602.108 743.727L478.196 701.578L466.332 571.179L391.193 464.489L459.741 351.214L461.059 220.815L582.335 169.446L660.11 65.3903Z" stroke="url(#paint8_radial)" stroke-width="3" stroke-miterlimit="10"/>
<path d="M691.747 42.9994L819.614 83.8313L951.436 56.1709L1030.53 165.495L1154.44 219.499V355.166L1221.67 471.076L1142.58 580.4L1128.08 714.75L1000.21 756.899L909.253 857.003L781.386 814.854L649.564 842.514L570.471 734.507L446.558 679.187V544.836L379.329 427.609L458.422 318.285L472.923 183.935L600.79 143.103L691.747 42.9994Z" stroke="url(#paint9_radial)" stroke-width="3" stroke-miterlimit="10"/>
<path d="M724.702 21.9229L852.57 75.9263L990.983 58.8033L1062.17 178.665L1184.76 245.84L1171.58 384.141L1230.9 510.588L1139.94 614.644L1113.58 751.628L977.8 783.24L876.298 876.758L748.43 822.755L610.017 839.878L538.834 721.334L416.239 654.159L429.421 514.54L370.101 389.41L461.059 284.037L487.423 148.37L623.199 116.758L724.702 21.9229Z" stroke="url(#paint10_radial)" stroke-width="3" stroke-miterlimit="10"/>
<path d="M761.613 3.48377L888.162 70.6588L1031.85 65.3902L1093.8 194.472L1213.76 274.818L1188.72 415.754L1237.49 550.104L1134.67 650.208L1095.12 787.193L952.754 806.95L839.387 895.199L712.838 828.025L569.153 833.293L507.196 704.212L387.238 625.182L412.284 482.929L363.51 348.579L466.331 249.792L505.878 111.491L648.246 91.7333L761.613 3.48377Z" stroke="url(#paint11_radial)" stroke-width="3" stroke-miterlimit="10"/>
<path d="M799.841 -12.3222L925.071 68.0244L1072.71 75.9274L1125.44 214.229L1240.13 306.43L1201.9 450L1240.13 592.253L1125.44 685.771L1072.71 822.756L925.071 830.659L799.841 911.006L675.928 830.659L528.288 822.756L475.559 685.771L360.874 592.253L399.102 450L360.874 306.43L475.559 214.229L528.288 75.9274L675.928 68.0244L799.841 -12.3222Z" stroke="url(#paint12_radial)" stroke-width="3" stroke-miterlimit="10"/>
<path d="M842.024 -24.1769L961.982 69.3413L1113.58 90.4158L1154.44 236.62L1265.17 341.993L1212.44 485.563L1238.81 635.719L1112.26 720.017L1046.35 857.002L893.434 851.733L758.976 924.177L639.018 830.658L487.423 808.267L446.558 662.062L335.828 556.69L388.556 413.119L362.192 262.963L488.741 178.665L554.652 41.681L707.565 46.9496L842.024 -24.1769Z" stroke="url(#paint13_radial)" stroke-width="3" stroke-miterlimit="10"/>
<path d="M885.525 -33.397L1000.21 73.2928L1154.44 108.856L1183.44 262.963L1287.58 381.508L1220.35 523.761L1234.85 680.503L1096.44 755.581L1016.03 891.248L860.479 871.491L715.475 933.397L600.79 825.39L446.558 789.827L417.557 635.719L313.418 518.492L380.647 376.239L366.147 219.497L504.56 143.102L584.971 8.75202L740.521 27.1923L885.525 -33.397Z" stroke="url(#paint14_radial)" stroke-width="3" stroke-miterlimit="10"/>
<path d="M931.662 -38.666L1039.76 81.1953L1193.99 131.247L1211.12 291.941L1306.04 423.656L1225.63 563.275V725.286L1076.67 791.143L981.755 921.542L823.569 888.613L669.337 938.665L561.243 817.487L407.011 767.435L389.874 606.741L294.963 476.343L375.374 335.407V173.396L524.333 108.856L619.245 -22.8602L777.431 11.386L931.662 -38.666Z" stroke="url(#paint15_radial)" stroke-width="3" stroke-miterlimit="10"/>
<path d="M979.119 -39.9834L1079.3 93.0496L1233.54 157.59L1236.17 324.869L1321.86 467.122L1226.94 604.107L1212.44 771.386L1054.26 825.389L944.845 950.519L784.022 901.784L621.881 939.982L521.697 806.949L367.465 741.091L364.829 573.812L279.144 431.559L374.056 294.575L388.557 128.613L546.743 74.6093L656.155 -51.8378L815.66 -3.10297L979.119 -39.9834Z" stroke="url(#paint16_radial)" stroke-width="3" stroke-miterlimit="10"/>
<path d="M1027.89 -37.3486L1118.85 107.539L1271.76 189.202L1258.58 360.433L1335.04 514.54L1224.31 646.256L1193.99 816.17L1026.57 858.319L902.662 976.863L743.158 912.322L573.107 937.348L482.15 791.144L329.237 710.797L342.419 538.249L265.962 384.142L376.693 252.426L407.012 82.5127L574.426 41.6808L698.338 -78.1805L857.843 -13.6398L1027.89 -37.3486Z" stroke="url(#paint17_radial)" stroke-width="3" stroke-miterlimit="10"/>
<path d="M1077.99 -30.7621L1158.4 127.297L1307.36 224.767L1279.67 399.948L1342.95 564.593L1217.72 689.723L1171.58 860.954L996.255 888.614L857.842 1000.57L700.974 920.226L523.015 929.446L442.603 771.387L293.645 675.235L321.327 500.052L258.053 334.091L383.283 208.961L429.421 37.7301L604.744 10.0698L741.839 -101.889L900.025 -21.542L1077.99 -30.7621Z" stroke="url(#paint18_radial)" stroke-width="3" stroke-miterlimit="10"/>
<path d="M1128.08 -18.9068L1196.63 151.007L1341.63 262.965L1296.81 440.781L1346.9 617.28L1207.17 734.507L1145.21 905.738L961.982 918.91L810.387 1020.33L654.837 924.178L472.923 917.592L404.375 747.679L259.371 635.721L304.191 457.904L252.78 282.722L393.83 165.495L455.786 -7.05242L639.018 -18.9068L790.614 -121.645L946.164 -25.4926L1128.08 -18.9068Z" stroke="url(#paint19_radial)" stroke-width="3" stroke-miterlimit="10"/>
<path d="M1179.49 -1.78521L1234.85 178.665L1373.27 306.43L1311.31 485.563L1346.9 669.965L1192.67 777.972L1113.58 949.203L923.754 945.251L758.976 1037.45L608.699 924.177L421.512 900.468L366.147 720.017L227.734 592.253L289.69 414.437L254.098 228.717L408.33 120.71L487.423 -50.5201L677.247 -46.5686L842.024 -138.77L992.301 -24.1769L1179.49 -1.78521Z" stroke="url(#paint20_radial)" stroke-width="3" stroke-miterlimit="10"/>
<path d="M1230.9 20.6062L1270.45 210.277L1400.95 355.164L1321.86 531.663L1341.63 725.286L1174.22 822.755L1076.67 991.351L882.889 970.277L704.929 1049.31L561.243 918.908L370.101 879.393L330.555 688.405L200.051 544.835L279.144 367.019L259.371 173.396L426.785 77.2439L524.333 -91.3522L718.111 -71.5949L896.071 -150.624L1039.76 -20.2257L1230.9 20.6062Z" stroke="url(#paint21_radial)" stroke-width="3" stroke-miterlimit="10"/>
<path d="M1280.99 46.9496L1304.72 245.84L1426 406.534L1328.45 581.716L1332.4 781.924L1150.49 866.222L1035.8 1030.87L838.069 991.352L648.246 1057.21L512.469 911.005L320.009 851.733L296.281 652.842L175.005 493.466L272.553 318.284L268.599 118.076L450.513 33.778L565.198 -130.867L762.931 -92.6691L951.436 -158.527L1088.53 -11.0054L1280.99 46.9496Z" stroke="url(#paint22_radial)" stroke-width="3" stroke-miterlimit="10"/>
<path d="M1329.77 79.8791L1336.36 285.356L1447.09 460.538L1331.08 631.768L1316.58 838.562L1122.8 908.371L989.664 1066.43L790.613 1009.79L590.244 1059.84L462.377 897.834L271.235 820.122L264.644 613.328L153.914 438.146L269.917 266.916L284.417 61.4389L478.195 -9.68764L611.336 -167.747L810.387 -111.109L1010.76 -161.161L1138.62 2.16677L1329.77 79.8791Z" stroke="url(#paint23_radial)" stroke-width="3" stroke-miterlimit="10"/>
<path d="M1377.22 116.758L1366.68 328.821L1462.91 519.809L1328.45 684.453L1295.49 895.199L1089.85 949.202L939.572 1100.68L740.521 1024.28L529.606 1057.21L413.603 879.393L223.779 781.923L234.325 569.861L138.095 380.19L272.553 214.228L305.509 4.79997L511.151 -50.5207L661.428 -201.994L860.479 -125.599L1071.39 -158.528L1187.4 20.6059L1377.22 116.758Z" stroke="url(#paint24_radial)" stroke-width="3" stroke-miterlimit="10"/>
<path d="M1423.36 160.226L1391.72 377.557L1474.77 580.399L1321.86 738.458L1269.13 951.837L1052.94 988.718L884.207 1130.97L686.474 1034.82L467.65 1049.31L364.829 855.685L177.641 739.775L209.279 522.444L126.231 318.284L279.144 160.226L331.873 -51.8369L548.061 -90.0344L716.793 -230.97L914.526 -134.818L1133.35 -150.624L1236.17 42.9985L1423.36 160.226Z" stroke="url(#paint25_radial)" stroke-width="3" stroke-miterlimit="10"/>
<path d="M1465.54 207.643L1414.13 427.608L1481.36 644.939L1309.99 792.461L1236.17 1007.16L1010.76 1026.92L824.887 1156L631.109 1040.09L404.375 1036.14L316.054 828.024L135.458 691.04L186.869 471.075L119.64 255.061L291.008 106.222L364.829 -108.475L590.244 -126.915L776.113 -257.314L969.891 -140.087L1196.62 -137.452L1284.95 71.9757L1465.54 207.643Z" stroke="url(#paint26_radial)" stroke-width="3" stroke-miterlimit="10"/>
<path d="M1505.09 260.329L1433.9 482.929L1481.36 710.797L1292.86 847.782L1197.94 1061.16H964.618L762.931 1178.39L573.107 1040.09L341.101 1016.38L268.599 793.778L95.912 638.354L167.096 415.754L119.64 187.886L308.145 50.9013L403.057 -162.478H636.382L838.069 -278.388L1027.89 -141.404L1259.9 -117.695L1332.4 104.905L1505.09 260.329Z" stroke="url(#paint27_radial)" stroke-width="3" stroke-miterlimit="10"/>
<path d="M1542 319.601L1447.09 540.884L1476.09 779.289L1270.45 903.102L1153.12 1113.85L914.526 1092.77L695.701 1194.19L513.787 1036.14L277.826 990.035L223.779 755.581L59.0016 580.399L153.913 359.116L124.913 119.393L330.555 -4.41954L447.876 -213.848L686.474 -192.773L905.298 -295.511L1087.21 -137.452L1323.17 -91.3519L1377.22 143.102L1542 319.601Z" stroke="url(#paint28_radial)" stroke-width="3" stroke-miterlimit="10"/>
<path d="M1573.64 381.508L1456.31 601.474L1465.54 849.1L1242.76 957.107L1103.03 1162.58L859.161 1119.12L625.836 1204.73L453.149 1026.92L214.551 958.424L180.278 712.115L27.3643 517.176L144.686 298.528L135.458 50.9019L358.237 -58.4222L497.969 -263.899L741.839 -220.433L975.164 -306.048L1147.85 -126.914L1386.45 -58.4222L1420.72 186.569L1573.64 381.508Z" stroke="url(#paint29_radial)" stroke-width="3" stroke-miterlimit="10"/>
<path d="M1600 450L1460.27 663.38L1447.09 918.908L1208.49 1011.11L1047.67 1210L799.841 1142.83L553.334 1210L392.511 1011.11L153.913 918.908L140.731 663.38L1 450L140.731 235.303L153.913 -20.2253L392.511 -111.109L553.334 -310L799.841 -244.142L1047.67 -310L1208.49 -111.109L1447.09 -20.2253L1460.27 235.303L1600 450Z" stroke="url(#paint30_radial)" stroke-width="3" stroke-miterlimit="10"/>
</g>
<defs>
<radialGradient id="paint0_radial" cx="0" cy="0" r="1" gradientUnits="userSpaceOnUse" gradientTransform="translate(800.5 450) rotate(90) scale(760 799.5)">
<stop stop-color="#9A9B96"/>
<stop offset="1" stop-color="#8EA0D8"/>
</radialGradient>
<radialGradient id="paint1_radial" cx="0" cy="0" r="1" gradientUnits="userSpaceOnUse" gradientTransform="translate(800.5 450) rotate(90) scale(760 799.5)">
<stop stop-color="#9A9B96"/>
<stop offset="1" stop-color="#8EA0D8"/>
</radialGradient>
<radialGradient id="paint2_radial" cx="0" cy="0" r="1" gradientUnits="userSpaceOnUse" gradientTransform="translate(800.5 450) rotate(90) scale(760 799.5)">
<stop stop-color="#9A9B96"/>
<stop offset="1" stop-color="#8EA0D8"/>
</radialGradient>
<radialGradient id="paint3_radial" cx="0" cy="0" r="1" gradientUnits="userSpaceOnUse" gradientTransform="translate(800.5 450) rotate(90) scale(760 799.5)">
<stop stop-color="#9A9B96"/>
<stop offset="1" stop-color="#8EA0D8"/>
</radialGradient>
<radialGradient id="paint4_radial" cx="0" cy="0" r="1" gradientUnits="userSpaceOnUse" gradientTransform="translate(800.5 450) rotate(90) scale(760 799.5)">
<stop stop-color="#9A9B96"/>
<stop offset="1" stop-color="#8EA0D8"/>
</radialGradient>
<radialGradient id="paint5_radial" cx="0" cy="0" r="1" gradientUnits="userSpaceOnUse" gradientTransform="translate(800.5 450) rotate(90) scale(760 799.5)">
<stop stop-color="#9A9B96"/>
<stop offset="1" stop-color="#8EA0D8"/>
</radialGradient>
<radialGradient id="paint6_radial" cx="0" cy="0" r="1" gradientUnits="userSpaceOnUse" gradientTransform="translate(800.5 450) rotate(90) scale(760 799.5)">
<stop stop-color="#9A9B96"/>
<stop offset="1" stop-color="#8EA0D8"/>
</radialGradient>
<radialGradient id="paint7_radial" cx="0" cy="0" r="1" gradientUnits="userSpaceOnUse" gradientTransform="translate(800.5 450) rotate(90) scale(760 799.5)">
<stop stop-color="#9A9B96"/>
<stop offset="1" stop-color="#8EA0D8"/>
</radialGradient>
<radialGradient id="paint8_radial" cx="0" cy="0" r="1" gradientUnits="userSpaceOnUse" gradientTransform="translate(800.5 450) rotate(90) scale(760 799.5)">
<stop stop-color="#9A9B96"/>
<stop offset="1" stop-color="#8EA0D8"/>
</radialGradient>
<radialGradient id="paint9_radial" cx="0" cy="0" r="1" gradientUnits="userSpaceOnUse" gradientTransform="translate(800.5 450) rotate(90) scale(760 799.5)">
<stop stop-color="#9A9B96"/>
<stop offset="1" stop-color="#8EA0D8"/>
</radialGradient>
<radialGradient id="paint10_radial" cx="0" cy="0" r="1" gradientUnits="userSpaceOnUse" gradientTransform="translate(800.5 450) rotate(90) scale(760 799.5)">
<stop stop-color="#9A9B96"/>
<stop offset="1" stop-color="#8EA0D8"/>
</radialGradient>
<radialGradient id="paint11_radial" cx="0" cy="0" r="1" gradientUnits="userSpaceOnUse" gradientTransform="translate(800.5 450) rotate(90) scale(760 799.5)">
<stop stop-color="#9A9B96"/>
<stop offset="1" stop-color="#8EA0D8"/>
</radialGradient>
<radialGradient id="paint12_radial" cx="0" cy="0" r="1" gradientUnits="userSpaceOnUse" gradientTransform="translate(800.5 450) rotate(90) scale(760 799.5)">
<stop stop-color="#9A9B96"/>
<stop offset="1" stop-color="#8EA0D8"/>
</radialGradient>
<radialGradient id="paint13_radial" cx="0" cy="0" r="1" gradientUnits="userSpaceOnUse" gradientTransform="translate(800.5 450) rotate(90) scale(760 799.5)">
<stop stop-color="#9A9B96"/>
<stop offset="1" stop-color="#8EA0D8"/>
</radialGradient>
<radialGradient id="paint14_radial" cx="0" cy="0" r="1" gradientUnits="userSpaceOnUse" gradientTransform="translate(800.5 450) rotate(90) scale(760 799.5)">
<stop stop-color="#9A9B96"/>
<stop offset="1" stop-color="#8EA0D8"/>
</radialGradient>
<radialGradient id="paint15_radial" cx="0" cy="0" r="1" gradientUnits="userSpaceOnUse" gradientTransform="translate(800.5 450) rotate(90) scale(760 799.5)">
<stop stop-color="#9A9B96"/>
<stop offset="1" stop-color="#8EA0D8"/>
</radialGradient>
<radialGradient id="paint16_radial" cx="0" cy="0" r="1" gradientUnits="userSpaceOnUse" gradientTransform="translate(800.5 450) rotate(90) scale(760 799.5)">
<stop stop-color="#9A9B96"/>
<stop offset="1" stop-color="#8EA0D8"/>
</radialGradient>
<radialGradient id="paint17_radial" cx="0" cy="0" r="1" gradientUnits="userSpaceOnUse" gradientTransform="translate(800.5 450) rotate(90) scale(760 799.5)">
<stop stop-color="#9A9B96"/>
<stop offset="1" stop-color="#8EA0D8"/>
</radialGradient>
<radialGradient id="paint18_radial" cx="0" cy="0" r="1" gradientUnits="userSpaceOnUse" gradientTransform="translate(800.5 450) rotate(90) scale(760 799.5)">
<stop stop-color="#9A9B96"/>
<stop offset="1" stop-color="#8EA0D8"/>
</radialGradient>
<radialGradient id="paint19_radial" cx="0" cy="0" r="1" gradientUnits="userSpaceOnUse" gradientTransform="translate(800.5 450) rotate(90) scale(760 799.5)">
<stop stop-color="#9A9B96"/>
<stop offset="1" stop-color="#8EA0D8"/>
</radialGradient>
<radialGradient id="paint20_radial" cx="0" cy="0" r="1" gradientUnits="userSpaceOnUse" gradientTransform="translate(800.5 450) rotate(90) scale(760 799.5)">
<stop stop-color="#9A9B96"/>
<stop offset="1" stop-color="#8EA0D8"/>
</radialGradient>
<radialGradient id="paint21_radial" cx="0" cy="0" r="1" gradientUnits="userSpaceOnUse" gradientTransform="translate(800.5 450) rotate(90) scale(760 799.5)">
<stop stop-color="#9A9B96"/>
<stop offset="1" stop-color="#8EA0D8"/>
</radialGradient>
<radialGradient id="paint22_radial" cx="0" cy="0" r="1" gradientUnits="userSpaceOnUse" gradientTransform="translate(800.5 450) rotate(90) scale(760 799.5)">
<stop stop-color="#9A9B96"/>
<stop offset="1" stop-color="#8EA0D8"/>
</radialGradient>
<radialGradient id="paint23_radial" cx="0" cy="0" r="1" gradientUnits="userSpaceOnUse" gradientTransform="translate(800.5 450) rotate(90) scale(760 799.5)">
<stop stop-color="#9A9B96"/>
<stop offset="1" stop-color="#8EA0D8"/>
</radialGradient>
<radialGradient id="paint24_radial" cx="0" cy="0" r="1" gradientUnits="userSpaceOnUse" gradientTransform="translate(800.5 450) rotate(90) scale(760 799.5)">
<stop stop-color="#9A9B96"/>
<stop offset="1" stop-color="#8EA0D8"/>
</radialGradient>
<radialGradient id="paint25_radial" cx="0" cy="0" r="1" gradientUnits="userSpaceOnUse" gradientTransform="translate(800.5 450) rotate(90) scale(760 799.5)">
<stop stop-color="#9A9B96"/>
<stop offset="1" stop-color="#8EA0D8"/>
</radialGradient>
<radialGradient id="paint26_radial" cx="0" cy="0" r="1" gradientUnits="userSpaceOnUse" gradientTransform="translate(800.5 450) rotate(90) scale(760 799.5)">
<stop stop-color="#9A9B96"/>
<stop offset="1" stop-color="#8EA0D8"/>
</radialGradient>
<radialGradient id="paint27_radial" cx="0" cy="0" r="1" gradientUnits="userSpaceOnUse" gradientTransform="translate(800.5 450) rotate(90) scale(760 799.5)">
<stop stop-color="#9A9B96"/>
<stop offset="1" stop-color="#8EA0D8"/>
</radialGradient>
<radialGradient id="paint28_radial" cx="0" cy="0" r="1" gradientUnits="userSpaceOnUse" gradientTransform="translate(800.5 450) rotate(90) scale(760 799.5)">
<stop stop-color="#9A9B96"/>
<stop offset="1" stop-color="#8EA0D8"/>
</radialGradient>
<radialGradient id="paint29_radial" cx="0" cy="0" r="1" gradientUnits="userSpaceOnUse" gradientTransform="translate(800.5 450) rotate(90) scale(760 799.5)">
<stop stop-color="#9A9B96"/>
<stop offset="1" stop-color="#8EA0D8"/>
</radialGradient>
<radialGradient id="paint30_radial" cx="0" cy="0" r="1" gradientUnits="userSpaceOnUse" gradientTransform="translate(800.5 450) rotate(90) scale(760 799.5)">
<stop stop-color="#9A9B96"/>
<stop offset="1" stop-color="#8EA0D8"/>
</radialGradient>
<clipPath id="clip0">
<rect width="1600" height="900" fill="white"/>
</clipPath>
</defs>
</svg>
