<svg width="215" height="97" viewBox="0 0 215 97" fill="none" xmlns="http://www.w3.org/2000/svg">
<path fill-rule="evenodd" clip-rule="evenodd" d="M214.944 0.578613H0.943848V96.5786H214.944V64.5786C206.107 64.5786 198.944 57.4152 198.944 48.5786C198.944 39.7421 206.107 32.5786 214.944 32.5786V0.578613Z" fill="#1D2A73"/>
<path d="M19.5678 51.7626H29.0398V49.0106H19.5678V51.7626ZM32.9106 43.5386V44.3066H36.0786V43.6346C36.0786 40.2426 38.2546 38.5466 41.1346 38.5466C43.9506 38.5466 45.8386 40.1786 45.8386 42.9626C45.8386 45.8426 43.7266 47.2186 40.2066 48.1146C35.8866 49.2346 32.9106 51.0586 32.9106 55.4746V58.5786H48.9746V55.7306H36.1106V55.1546C36.1106 52.2746 38.0946 51.5386 41.7106 50.6106C46.3186 49.4266 49.0066 47.2826 49.0066 43.0266C49.0066 38.5466 45.5186 35.7306 41.1026 35.7306C36.5906 35.7306 32.9106 38.4826 32.9106 43.5386ZM51.5081 44.8186V49.9386C51.5081 55.8906 54.7401 59.0266 59.8281 59.0266C64.9161 59.0266 68.1161 55.8906 68.1161 49.9386V44.8186C68.1161 38.9626 64.9161 35.7306 59.8281 35.7306C54.7401 35.7306 51.5081 38.9626 51.5081 44.8186ZM54.6761 44.6586C54.6761 40.9466 56.4681 38.5466 59.8281 38.5466C63.1241 38.5466 64.9801 40.8826 64.9801 44.6586V50.0986C64.9801 53.8426 63.3161 56.2106 59.8281 56.2106C56.3721 56.2106 54.6761 53.9066 54.6761 50.0986V44.6586ZM71.0408 40.8506V41.4586C71.0408 44.5946 72.9608 46.5146 76.2568 46.5146C79.5208 46.5146 81.4408 44.5946 81.4408 41.4586V40.8506C81.4408 37.7146 79.4248 35.7626 76.2568 35.7626C72.9608 35.7626 71.0408 37.7146 71.0408 40.8506ZM83.2968 43.8586L84.8968 45.0746L91.2968 37.6186L88.8328 35.7626L83.2968 43.8586ZM73.6008 40.6906C73.6008 39.0266 74.4968 37.9066 76.2568 37.9066C77.9848 37.9066 78.8808 39.0266 78.8808 40.6906V41.5866C78.8808 43.2506 77.9848 44.3706 76.2568 44.3706C74.4968 44.3706 73.6008 43.2506 73.6008 41.5866V40.6906ZM82.4328 53.3306V53.9386C82.4328 57.0746 84.3528 58.9946 87.6168 58.9946C90.8808 58.9946 92.8328 57.0746 92.8328 53.9386V53.3306C92.8328 50.1946 90.7848 48.2426 87.6168 48.2426C84.3528 48.2426 82.4328 50.1946 82.4328 53.3306ZM80.4808 50.8666L78.8808 49.6506L72.4808 57.1066L74.9448 58.9626L80.4808 50.8666ZM84.9928 53.1706C84.9928 51.5066 85.8888 50.3866 87.6168 50.3866C89.3448 50.3866 90.2408 51.5066 90.2408 53.1706V54.0666C90.2408 55.7306 89.3448 56.8506 87.6168 56.8506C85.8888 56.8506 84.9928 55.7306 84.9928 54.0666V53.1706Z" fill="#F1E65F"/>
<path d="M118.944 31.5786L122.536 42.6343H134.161L124.756 49.4672L128.348 60.5229L118.944 53.6901L109.539 60.5229L113.132 49.4672L103.727 42.6343H115.352L118.944 31.5786Z" fill="#F1E65F"/>
<path fill-rule="evenodd" clip-rule="evenodd" d="M214.944 0.578613H166.972V96.5786H214.944V64.5786C214.944 64.5786 214.943 64.5786 214.943 64.5786C206.107 64.5786 198.943 57.4152 198.943 48.5786C198.943 39.7421 206.107 32.5786 214.943 32.5786C214.943 32.5786 214.944 32.5786 214.944 32.5786V0.578613Z" fill="#1E2029"/>
<path d="M166.944 2.05981V96.5786" stroke="white" stroke-width="2" stroke-dasharray="4 4"/>
</svg>
