<svg width="180" height="100" viewBox="0 0 180 100" fill="none" xmlns="http://www.w3.org/2000/svg">
<rect width="118.738" height="66.7279" fill="#36393F"/>
<rect width="31" height="67" fill="#16171A"/>
<rect x="3" y="8" width="24" height="3" fill="#C4C4C4"/>
<rect x="3" y="37" width="24" height="3" fill="#C4C4C4"/>
<rect x="7" y="14" width="20" height="3" fill="#C4C4C4"/>
<rect x="3" y="14" width="2" height="3" fill="#C4C4C4"/>
<rect x="3" y="43" width="2" height="3" fill="#C4C4C4"/>
<rect x="3" y="20" width="2" height="3" fill="#C4C4C4"/>
<rect x="3" y="49" width="2" height="3" fill="#C4C4C4"/>
<rect x="3" y="26" width="2" height="3" fill="white"/>
<rect x="3" y="55" width="2" height="3" fill="#C4C4C4"/>
<rect x="7" y="43" width="20" height="3" fill="#C4C4C4"/>
<rect x="7" y="20" width="20" height="3" fill="#C4C4C4"/>
<rect x="7" y="49" width="20" height="3" fill="#C4C4C4"/>
<rect x="7" y="26" width="20" height="3" fill="white"/>
<rect x="7" y="55" width="20" height="3" fill="#C4C4C4"/>
<circle cx="39" cy="11" r="3" fill="white"/>
<circle cx="39" cy="27" r="3" fill="white"/>
<circle cx="39" cy="46" r="3" fill="white"/>
<rect x="44" y="9" width="21" height="2" fill="white"/>
<rect x="44" y="25" width="21" height="2" fill="white"/>
<rect x="44" y="44" width="21" height="2" fill="white"/>
<rect x="44" y="13" width="49" height="2" fill="white"/>
<rect x="44" y="29" width="49" height="2" fill="white"/>
<rect x="44" y="48" width="49" height="2" fill="white"/>
<rect x="44" y="17" width="49" height="2" fill="white"/>
<rect x="44" y="33" width="49" height="2" fill="white"/>
<rect x="44" y="52" width="49" height="2" fill="white"/>
<rect x="36" y="58" width="70" height="5" fill="#6C6C6C"/>
<rect x="61.2622" y="33.272" width="118.738" height="66.7279" fill="#1D2A73"/>
<path fill-rule="evenodd" clip-rule="evenodd" d="M115.064 58.2985C113.505 58.6267 111.973 59.2395 110.622 60.0761C109.918 60.5123 109.601 60.9097 109.107 61.9775C107.598 65.2421 106.43 69.7836 106.144 73.5014L106 75.3746L107.052 76.3689C108.252 77.5036 109.65 78.2592 111.357 78.6951C113.346 79.2034 113.758 79.1261 114.631 78.0818C115.051 77.5786 115.359 77.1382 115.314 77.1035C115.27 77.0687 114.788 76.833 114.242 76.5794C113.129 76.0616 111.214 74.6453 111.214 74.3392C111.214 74.2292 111.86 74.4581 112.649 74.8481C113.438 75.2379 114.899 75.8028 115.896 76.1035C117.561 76.6059 117.991 76.6504 121.212 76.6526C124.511 76.6548 124.819 76.6215 126.469 76.0835C127.432 75.7691 128.868 75.1924 129.659 74.8022C130.669 74.3042 131.007 74.2029 130.793 74.4625C130.117 75.2832 129.189 75.9636 128.015 76.4993C127.334 76.8097 126.741 77.0869 126.697 77.1152C126.653 77.1435 126.96 77.5786 127.381 78.0818C128.274 79.1502 128.673 79.2125 130.846 78.6217C132.513 78.1682 134.29 77.1516 135.274 76.0885L136 75.3032L135.857 73.4601C135.567 69.7373 134.409 65.232 132.904 61.9775C132.215 60.4872 131.52 59.9205 129.288 59.028C127.798 58.4324 125.229 57.8917 124.992 58.1241C124.894 58.2199 125.483 58.5482 126.312 58.86C127.932 59.4694 130.361 60.7899 130.786 61.2917C130.937 61.4706 130.398 61.3078 129.518 60.9095C126.619 59.5953 124.967 59.2838 120.903 59.2838C118.063 59.2838 116.966 59.3645 115.749 59.6627C114.197 60.0432 111.335 61.0951 110.853 61.4621C110.712 61.5701 110.596 61.579 110.597 61.4819C110.602 60.9971 115.75 58.3903 116.728 58.3774C116.87 58.3756 116.986 58.283 116.986 58.1718C116.986 57.9196 116.809 57.9314 115.064 58.2985ZM117.267 67.5489C118.32 67.9805 118.841 68.7703 118.841 69.9358C118.841 71.7193 117.807 72.9318 116.288 72.9304C115.081 72.9294 114.221 72.3457 113.788 71.2335C113.219 69.7721 113.66 68.4591 114.987 67.6655C115.767 67.1993 116.342 67.17 117.267 67.5489ZM126.667 67.5693C128.099 68.2955 128.627 69.8744 127.945 71.3869C126.721 74.1008 122.962 73.0994 122.965 70.0602C122.967 68.0319 124.949 66.6981 126.667 67.5693Z" fill="white"/>
</svg>
