<svg width="650" height="343" viewBox="0 0 650 343" fill="none" xmlns="http://www.w3.org/2000/svg">
<g clip-path="url(#clip0)">
<path d="M343.483 407.879C293.597 457.766 239.904 494.334 193.457 513.151C170.231 522.561 148.864 527.513 130.716 527.504C112.574 527.496 97.7258 522.534 87.393 512.201C77.0602 501.869 72.0987 487.02 72.0902 468.878C72.0818 450.731 77.0335 429.363 86.443 406.137C105.26 359.69 141.829 305.997 191.715 256.111C241.602 206.224 295.294 169.656 341.742 150.838C364.968 141.429 386.335 136.477 404.483 136.486C422.625 136.494 437.473 141.456 447.806 151.788C458.139 162.121 463.1 176.97 463.109 195.112C463.117 213.259 458.165 234.627 448.756 257.852C429.939 304.3 393.37 357.992 343.483 407.879Z" stroke="url(#paint0_linear)" stroke-width="2"/>
<path d="M350.502 430.454C296.457 475.803 239.782 507.553 191.871 522.25C167.913 529.599 146.196 532.67 128.118 531.08C110.046 529.49 95.6864 523.254 86.2935 512.06C76.9006 500.866 73.2521 485.641 74.8248 467.568C76.3981 449.488 83.1933 428.634 94.5911 406.317C117.385 361.686 158.494 311.385 212.539 266.036C266.583 220.687 323.259 188.937 371.169 174.24C395.127 166.89 416.845 163.82 434.922 165.41C452.995 167 467.354 173.236 476.747 184.43C486.14 195.624 489.788 210.849 488.216 228.922C486.642 247.002 479.847 267.856 468.449 290.173C445.655 334.804 404.546 385.105 350.502 430.454Z" stroke="url(#paint1_linear)" stroke-width="2"/>
<path d="M347.494 448.159C289.702 488.625 230.476 515.314 181.466 525.78C156.959 531.014 135.057 532.18 117.186 529.02C99.3214 525.861 85.5602 518.397 77.1786 506.427C68.7971 494.457 66.4893 478.972 69.6314 461.105C72.7744 443.231 81.3612 423.048 94.6608 401.809C121.258 359.335 166.594 312.808 224.386 272.342C282.177 231.876 341.404 205.187 390.414 194.721C414.92 189.488 436.823 188.322 454.693 191.481C472.558 194.64 486.319 202.104 494.701 214.074C503.083 226.045 505.39 241.529 502.248 259.397C499.105 277.27 490.518 297.453 477.219 318.692C450.622 361.166 405.285 407.693 347.494 448.159Z" stroke="url(#paint2_linear)" stroke-width="2"/>
<path d="M352.405 466.793C291.307 502.069 229.98 523.494 180.244 529.649C155.375 532.727 133.454 531.979 115.927 527.274C98.405 522.57 85.3468 513.935 78.0404 501.28C70.734 488.625 69.7846 472.998 74.4719 455.472C79.1607 437.941 89.474 418.583 104.574 398.584C134.772 358.59 183.991 316.191 245.089 280.916C306.188 245.641 367.515 224.215 417.25 218.061C442.12 214.983 464.041 215.73 481.568 220.435C499.09 225.139 512.148 233.775 519.454 246.43C526.761 259.085 527.71 274.711 523.023 292.237C518.334 309.769 508.021 329.126 492.92 349.125C462.723 389.12 413.504 431.518 352.405 466.793Z" stroke="url(#paint3_linear)" stroke-width="2"/>
<path d="M352.698 487.238C288.758 517.054 225.796 533.053 175.714 534.85C150.671 535.748 128.899 533.093 111.848 526.878C94.8032 520.665 82.5472 510.925 76.3716 497.681C70.196 484.437 70.6121 468.787 76.8091 451.737C83.008 434.681 94.9692 416.295 111.755 397.689C145.323 360.478 198.05 322.531 261.991 292.715C325.931 262.899 388.893 246.9 438.975 245.103C464.018 244.205 485.79 246.86 502.841 253.075C519.886 259.288 532.142 269.028 538.317 282.272C544.493 295.516 544.077 311.166 537.88 328.216C531.681 345.272 519.72 363.658 502.934 382.264C469.366 419.475 416.639 457.422 352.698 487.238Z" stroke="url(#paint4_linear)" stroke-width="2"/>
<path d="M316.67 357.389C281.394 418.488 238.996 467.707 199.001 497.904C179.002 513.004 159.645 523.318 142.113 528.006C124.587 532.694 108.961 531.744 96.3057 524.438C83.6507 517.132 75.0152 504.073 70.3115 486.552C65.6064 469.025 64.8592 447.104 67.9367 422.234C74.0913 372.499 95.5172 311.171 130.792 250.073C166.068 188.975 208.466 139.755 248.46 109.558C268.459 94.4577 287.817 84.1445 305.349 79.4557C322.875 74.7683 338.501 75.7177 351.156 83.0241C363.811 90.3305 372.447 103.389 377.15 120.91C381.855 138.438 382.603 160.358 379.525 185.228C373.371 234.963 351.945 296.291 316.67 357.389Z" stroke="url(#paint5_linear)" stroke-width="2"/>
<path d="M329.98 372.674C289.514 430.466 242.987 475.802 200.513 502.399C179.274 515.699 159.091 524.286 141.217 527.429C123.35 530.571 107.865 528.263 95.8952 519.881C83.9251 511.5 76.4606 497.739 73.302 479.874C70.1423 462.003 71.3085 440.101 76.5418 415.594C87.0077 366.584 113.697 307.358 154.163 249.566C194.629 191.775 241.156 146.438 283.63 119.841C304.869 106.542 325.052 97.9546 342.925 94.8116C360.793 91.6696 376.278 93.9773 388.248 102.359C400.218 110.74 407.682 124.502 410.841 142.367C414 160.237 412.834 182.14 407.601 206.646C397.135 255.656 370.446 314.883 329.98 372.674Z" stroke="url(#paint6_linear)" stroke-width="2"/>
<path d="M338.207 389.388C292.858 443.432 242.557 484.541 197.926 507.335C175.609 518.733 154.755 525.528 136.675 527.102C118.602 528.674 103.377 525.026 92.1833 515.633C80.9893 506.24 74.7525 491.881 73.163 473.808C71.5729 455.73 74.6435 434.013 81.9929 410.055C96.6903 362.145 128.44 305.469 173.789 251.425C219.138 197.38 269.439 156.271 314.07 133.477C336.387 122.079 357.241 115.284 375.321 113.711C393.394 112.138 408.619 115.787 419.813 125.179C431.007 134.572 437.244 148.932 438.833 167.004C440.423 185.082 437.353 206.799 430.003 230.757C415.306 278.668 383.556 335.343 338.207 389.388Z" stroke="url(#paint7_linear)" stroke-width="2"/>
<path d="M191.668 407.88C141.781 357.993 105.213 304.301 86.3955 257.853C76.9861 234.628 72.0344 213.26 72.0428 195.113C72.0512 176.971 77.0127 162.122 87.3455 151.789C97.6783 141.457 112.527 136.495 130.669 136.487C148.816 136.478 170.184 141.43 193.409 150.839C239.857 169.657 293.549 206.225 343.436 256.112C393.323 305.999 429.891 359.691 448.708 406.139C458.118 429.364 463.07 450.732 463.061 468.879C463.053 487.021 458.091 501.87 447.758 512.202C437.426 522.535 422.577 527.497 404.435 527.505C386.288 527.514 364.92 522.562 341.695 513.152C295.247 494.335 241.555 457.767 191.668 407.88Z" stroke="url(#paint8_linear)" stroke-width="2"/>
<path d="M212.491 400.285C158.447 354.936 117.337 304.635 94.5437 260.005C83.1458 237.687 76.3506 216.833 74.7773 198.753C73.2046 180.68 76.8531 165.456 86.246 154.261C95.6389 143.067 109.998 136.831 128.071 135.241C146.148 133.651 167.866 136.722 191.823 144.071C239.734 158.768 296.41 190.518 350.454 235.867C404.499 281.216 445.608 331.517 468.402 376.148C479.8 398.465 486.595 419.319 488.168 437.399C489.741 455.473 486.092 470.697 476.699 481.891C467.307 493.085 452.947 499.322 434.875 500.911C416.797 502.501 395.079 499.431 371.122 492.081C323.211 477.384 266.536 445.634 212.491 400.285Z" stroke="url(#paint9_linear)" stroke-width="2"/>
<path d="M232.802 389.255C175.011 348.789 129.674 302.262 103.077 259.788C89.7778 238.549 81.1909 218.366 78.0479 200.493C74.9059 182.625 77.2137 167.141 85.5952 155.171C93.9768 143.201 107.738 135.736 125.603 132.577C143.473 129.418 165.376 130.584 189.883 135.817C238.892 146.283 298.119 172.973 355.911 213.439C413.702 253.905 459.039 300.431 485.635 342.906C498.935 364.145 507.522 384.327 510.665 402.201C513.807 420.069 511.499 435.553 503.118 447.523C494.736 459.493 480.975 466.958 463.11 470.116C445.24 473.276 423.337 472.11 398.83 466.876C349.821 456.411 290.594 429.721 232.802 389.255Z" stroke="url(#paint10_linear)" stroke-width="2"/>
<path d="M245.089 384.744C183.991 349.469 134.772 307.07 104.574 267.076C89.4742 247.077 79.1609 227.719 74.4721 210.188C69.7847 192.662 70.7342 177.035 78.0405 164.38C85.3469 151.725 98.4052 143.089 115.927 138.386C133.454 133.681 155.375 132.933 180.245 136.011C229.98 142.166 291.307 163.591 352.406 198.867C413.504 234.142 462.723 276.54 492.921 316.535C508.021 336.534 518.334 355.891 523.023 373.423C527.71 390.949 526.761 406.575 519.454 419.23C512.148 431.885 499.09 440.521 481.568 445.225C464.041 449.93 442.12 450.677 417.25 447.599C367.515 441.445 306.188 420.019 245.089 384.744Z" stroke="url(#paint11_linear)" stroke-width="2"/>
<path d="M261.991 373.634C198.05 343.818 145.323 305.871 111.755 268.661C94.9691 250.054 83.0079 231.669 76.809 214.613C70.612 197.562 70.1959 181.912 76.3715 168.668C82.5471 155.425 94.803 145.684 111.848 139.471C128.898 133.256 150.671 130.601 175.714 131.5C225.796 133.296 288.758 149.295 352.698 179.111C416.638 208.927 469.366 246.874 502.934 284.085C519.72 302.692 531.681 321.077 537.88 338.133C544.077 355.184 544.493 370.834 538.317 384.077C532.142 397.321 519.886 407.062 502.841 413.275C485.79 419.489 464.018 422.144 438.975 421.246C388.892 419.45 325.931 403.45 261.991 373.634Z" stroke="url(#paint12_linear)" stroke-width="2"/>
<path d="M132.851 418.142C97.576 357.043 76.1501 295.716 69.9956 245.981C66.918 221.111 67.6653 199.19 72.3704 181.663C77.074 164.141 85.7095 151.083 98.3646 143.777C111.02 136.47 126.646 135.521 144.172 140.208C161.704 144.897 181.061 155.21 201.06 170.31C241.055 200.508 283.453 249.727 318.728 310.826C354.003 371.924 375.429 433.251 381.584 482.987C384.661 507.856 383.914 529.777 379.209 547.304C374.505 564.826 365.87 577.884 353.215 585.191C340.56 592.497 324.933 593.446 307.407 588.759C289.876 584.07 270.518 573.757 250.519 558.657C210.525 528.459 168.126 479.24 132.851 418.142Z" stroke="url(#paint13_linear)" stroke-width="2"/>
<path d="M152.995 417.029C112.529 359.238 85.8399 300.011 75.3741 251.001C70.1408 226.494 68.9746 204.592 72.1342 186.721C75.2929 168.856 82.7574 155.095 94.7275 146.714C106.698 138.332 122.182 136.024 140.05 139.166C157.923 142.309 178.106 150.896 199.345 164.196C241.819 190.793 288.346 236.129 328.812 293.921C369.278 351.712 395.967 410.939 406.433 459.949C411.667 484.456 412.833 506.358 409.673 524.229C406.514 542.093 399.05 555.855 387.08 564.236C375.11 572.618 359.625 574.926 341.758 571.783C323.884 568.64 303.701 560.054 282.462 546.754C239.988 520.157 193.461 474.82 152.995 417.029Z" stroke="url(#paint14_linear)" stroke-width="2"/>
<path d="M171.425 412.56C126.076 358.516 94.3262 301.84 79.6288 253.93C72.2794 229.972 69.2088 208.255 70.7989 190.177C72.3885 172.104 78.6252 157.745 89.8193 148.352C101.013 138.959 116.238 135.311 134.311 136.883C152.391 138.457 173.245 145.252 195.562 156.65C240.193 179.444 290.494 220.553 335.843 274.597C381.192 328.642 412.942 385.317 427.639 433.228C434.988 457.186 438.059 478.903 436.469 496.981C434.879 515.053 428.643 529.413 417.449 538.806C406.255 548.198 391.03 551.847 372.957 550.274C354.877 548.701 334.023 541.906 311.706 530.508C267.075 507.714 216.774 466.605 171.425 412.56Z" stroke="url(#paint15_linear)" stroke-width="2"/>
</g>
<defs>
<linearGradient id="paint0_linear" x1="448.513" y1="151.081" x2="86.6859" y2="512.908" gradientUnits="userSpaceOnUse">
<stop stop-color="#7589FA"/>
<stop offset="1" stop-color="#1E2029"/>
</linearGradient>
<linearGradient id="paint1_linear" x1="477.513" y1="183.788" x2="85.5274" y2="512.702" gradientUnits="userSpaceOnUse">
<stop stop-color="#7589FA"/>
<stop offset="1" stop-color="#1E2029"/>
</linearGradient>
<linearGradient id="paint2_linear" x1="495.52" y1="213.501" x2="76.3595" y2="507" gradientUnits="userSpaceOnUse">
<stop stop-color="#7589FA"/>
<stop offset="1" stop-color="#1E2029"/>
</linearGradient>
<linearGradient id="paint3_linear" x1="520.32" y1="245.93" x2="77.1744" y2="501.78" gradientUnits="userSpaceOnUse">
<stop stop-color="#7589FA"/>
<stop offset="1" stop-color="#1E2029"/>
</linearGradient>
<linearGradient id="paint4_linear" x1="539.224" y1="281.849" x2="75.4653" y2="498.104" gradientUnits="userSpaceOnUse">
<stop stop-color="#7589FA"/>
<stop offset="1" stop-color="#1E2029"/>
</linearGradient>
<linearGradient id="paint5_linear" x1="351.656" y1="82.1581" x2="95.8057" y2="525.304" gradientUnits="userSpaceOnUse">
<stop stop-color="#7589FA"/>
<stop offset="1" stop-color="#1E2029"/>
</linearGradient>
<linearGradient id="paint6_linear" x1="388.821" y1="101.54" x2="95.3216" y2="520.701" gradientUnits="userSpaceOnUse">
<stop stop-color="#7589FA"/>
<stop offset="1" stop-color="#1E2029"/>
</linearGradient>
<linearGradient id="paint7_linear" x1="420.456" y1="124.413" x2="91.5406" y2="516.399" gradientUnits="userSpaceOnUse">
<stop stop-color="#7589FA"/>
<stop offset="1" stop-color="#1E2029"/>
</linearGradient>
<linearGradient id="paint8_linear" x1="448.466" y1="512.909" x2="86.6384" y2="151.082" gradientUnits="userSpaceOnUse">
<stop stop-color="#7589FA"/>
<stop offset="1" stop-color="#1E2029"/>
</linearGradient>
<linearGradient id="paint9_linear" x1="477.466" y1="482.534" x2="85.48" y2="153.619" gradientUnits="userSpaceOnUse">
<stop stop-color="#7589FA"/>
<stop offset="1" stop-color="#1E2029"/>
</linearGradient>
<linearGradient id="paint10_linear" x1="503.937" y1="448.097" x2="84.7761" y2="154.597" gradientUnits="userSpaceOnUse">
<stop stop-color="#7589FA"/>
<stop offset="1" stop-color="#1E2029"/>
</linearGradient>
<linearGradient id="paint11_linear" x1="520.32" y1="419.73" x2="77.1745" y2="163.88" gradientUnits="userSpaceOnUse">
<stop stop-color="#7589FA"/>
<stop offset="1" stop-color="#1E2029"/>
</linearGradient>
<linearGradient id="paint12_linear" x1="539.224" y1="384.5" x2="75.4652" y2="168.246" gradientUnits="userSpaceOnUse">
<stop stop-color="#7589FA"/>
<stop offset="1" stop-color="#1E2029"/>
</linearGradient>
<linearGradient id="paint13_linear" x1="353.715" y1="586.057" x2="97.8646" y2="142.911" gradientUnits="userSpaceOnUse">
<stop stop-color="#7589FA"/>
<stop offset="1" stop-color="#1E2029"/>
</linearGradient>
<linearGradient id="paint14_linear" x1="387.653" y1="565.055" x2="94.1539" y2="145.895" gradientUnits="userSpaceOnUse">
<stop stop-color="#7589FA"/>
<stop offset="1" stop-color="#1E2029"/>
</linearGradient>
<linearGradient id="paint15_linear" x1="418.091" y1="539.572" x2="89.1765" y2="147.586" gradientUnits="userSpaceOnUse">
<stop stop-color="#7589FA"/>
<stop offset="1" stop-color="#1E2029"/>
</linearGradient>
<clipPath id="clip0">
<rect width="650" height="343" fill="white"/>
</clipPath>
</defs>
</svg>
