<svg width="1200" height="630" viewBox="0 0 1200 630" fill="none" xmlns="http://www.w3.org/2000/svg">
<rect width="1200" height="630" fill="#1E2029"/>
<path d="M83.944 85.4V126H89.686V108.252H107.55V126H113.292V85.4H107.55V103.032H89.686V85.4H83.944ZM119.301 111.558C119.301 120.316 125.275 126.812 133.975 126.812C141.573 126.812 144.879 122.752 146.793 119.33L142.211 116.836C140.935 119.562 138.557 122.056 133.917 122.056C128.697 122.056 125.275 118.518 124.985 113.472H147.315V110.862C147.315 102.22 141.689 96.71 133.569 96.71C125.275 96.71 119.301 103.032 119.301 111.558ZM124.985 109.064C125.507 104.482 128.639 101.466 133.569 101.466C138.267 101.466 141.399 104.308 141.689 109.064H124.985ZM158.496 85.4H153.044V126H158.496V85.4ZM166.241 137.6H171.693V121.36H172.389C173.955 124.086 176.739 126.812 182.365 126.812C189.789 126.812 195.763 120.664 195.763 111.79C195.763 102.858 189.789 96.71 182.365 96.71C176.739 96.71 173.955 99.436 172.389 102.162H171.577V97.522H166.241V137.6ZM181.031 121.94C175.637 121.94 171.693 118.054 171.693 111.79C171.693 105.526 175.637 101.582 181.031 101.582C186.367 101.582 190.253 105.41 190.253 111.79C190.253 118.17 186.367 121.94 181.031 121.94ZM240.087 97.522L231.271 119.736H230.575L221.759 97.522H215.901L228.081 127.16L223.557 137.6H229.415L245.945 97.522H240.087ZM248.328 111.79C248.328 120.664 254.534 126.812 263.002 126.812C271.528 126.812 277.734 120.664 277.734 111.79C277.734 102.916 271.528 96.71 263.002 96.71C254.534 96.71 248.328 102.916 248.328 111.79ZM253.78 111.79C253.78 105.816 257.434 101.582 263.002 101.582C268.628 101.582 272.282 105.7 272.282 111.79C272.282 117.764 268.628 121.94 263.002 121.94C257.434 121.94 253.78 117.88 253.78 111.79ZM310.394 126V97.522H304.942V112.022C304.942 118.344 301.578 121.708 296.358 121.708C291.66 121.708 288.818 119.214 288.818 114.168V97.522H283.366V114.69C283.366 122.346 288.412 126.522 294.56 126.522C300.128 126.522 302.912 123.854 304.246 121.07H305.058V126H310.394ZM323.488 97.522H318.152V126H323.604V108.948C323.604 104.366 326.272 102.22 330.274 102.22H334.74V97.406H331.434C327.664 97.406 325.402 98.508 324.3 101.408H323.488V97.522ZM354.869 111.79C354.869 120.606 361.423 126.812 369.659 126.812C377.373 126.812 382.361 122.23 383.579 115.966L378.243 114.632C377.431 118.924 374.821 121.94 369.717 121.94C364.265 121.94 360.379 117.764 360.379 111.79C360.379 105.758 364.381 101.582 369.717 101.582C374.589 101.582 377.605 104.714 378.185 108.89L383.521 107.556C382.245 101.35 377.257 96.71 369.659 96.71C361.423 96.71 354.869 102.916 354.869 111.79ZM387.608 111.79C387.608 120.664 393.814 126.812 402.282 126.812C410.808 126.812 417.014 120.664 417.014 111.79C417.014 102.916 410.808 96.71 402.282 96.71C393.814 96.71 387.608 102.916 387.608 111.79ZM393.06 111.79C393.06 105.816 396.714 101.582 402.282 101.582C407.908 101.582 411.562 105.7 411.562 111.79C411.562 117.764 407.908 121.94 402.282 121.94C396.714 121.94 393.06 117.88 393.06 111.79ZM428.445 85.4H422.993V126H428.445V85.4ZM441.643 85.4H436.191V126H441.643V85.4ZM447.59 111.558C447.59 120.316 453.564 126.812 462.264 126.812C469.862 126.812 473.168 122.752 475.082 119.33L470.5 116.836C469.224 119.562 466.846 122.056 462.206 122.056C456.986 122.056 453.564 118.518 453.274 113.472H475.604V110.862C475.604 102.22 469.978 96.71 461.858 96.71C453.564 96.71 447.59 103.032 447.59 111.558ZM453.274 109.064C453.796 104.482 456.928 101.466 461.858 101.466C466.556 101.466 469.688 104.308 469.978 109.064H453.274ZM503.721 97.522V102.162H502.909C501.343 99.436 498.559 96.71 492.933 96.71C485.509 96.71 479.535 102.684 479.535 111.384C479.535 120.084 485.509 126.058 492.933 126.058C498.559 126.058 501.343 123.39 502.909 120.664H503.605V124.55C503.605 130.698 499.777 133.656 494.499 133.656C489.569 133.656 486.379 130.814 484.755 127.624L480.057 130.408C482.841 134.874 487.191 138.412 494.789 138.412C503.605 138.412 509.057 132.728 509.057 124.84V97.522H503.721ZM494.267 121.186C488.931 121.186 485.045 117.59 485.045 111.384C485.045 105.178 488.931 101.582 494.267 101.582C499.661 101.582 503.605 105.294 503.605 111.384C503.605 117.474 499.661 121.186 494.267 121.186ZM515.049 111.558C515.049 120.316 521.023 126.812 529.723 126.812C537.321 126.812 540.627 122.752 542.541 119.33L537.959 116.836C536.683 119.562 534.305 122.056 529.665 122.056C524.445 122.056 521.023 118.518 520.733 113.472H543.063V110.862C543.063 102.22 537.437 96.71 529.317 96.71C521.023 96.71 515.049 103.032 515.049 111.558ZM520.733 109.064C521.255 104.482 524.387 101.466 529.317 101.466C534.015 101.466 537.147 104.308 537.437 109.064H520.733ZM571.406 85.4H565.954V126H571.406V85.4ZM577.354 111.558C577.354 120.316 583.328 126.812 592.028 126.812C599.626 126.812 602.932 122.752 604.846 119.33L600.264 116.836C598.988 119.562 596.61 122.056 591.97 122.056C586.75 122.056 583.328 118.518 583.038 113.472H605.368V110.862C605.368 102.22 599.742 96.71 591.622 96.71C583.328 96.71 577.354 103.032 577.354 111.558ZM583.038 109.064C583.56 104.482 586.692 101.466 591.622 101.466C596.32 101.466 599.452 104.308 599.742 109.064H583.038ZM609.766 104.888L614.29 107.498C615.914 103.96 618.698 101.234 623.338 101.234C627.978 101.234 630.53 103.96 630.53 107.614V108.6L618.524 109.818C612.956 110.34 609.012 112.95 609.012 118.228C609.012 123.448 613.304 126.812 619.684 126.812C625.716 126.812 628.326 124.086 629.834 121.534H630.646V126H635.982V107.962C635.982 101.118 631.168 96.71 623.57 96.71C615.972 96.71 611.912 101.176 609.766 104.888ZM614.638 118.17C614.638 115.792 616.552 114.458 619.858 114.11L630.53 113.008V113.414C630.53 118.808 626.586 122.23 620.786 122.23C617.016 122.23 614.638 120.606 614.638 118.17ZM648.718 97.522H643.382V126H648.834V108.948C648.834 104.366 651.502 102.22 655.504 102.22H659.97V97.406H656.664C652.894 97.406 650.632 98.508 649.53 101.408H648.718V97.522ZM664.736 97.522V126H670.188V111.5C670.188 105.178 673.552 101.814 678.772 101.814C683.47 101.814 686.312 104.308 686.312 109.354V126H691.764V108.832C691.764 101.176 686.718 97 680.57 97C675.002 97 672.218 99.668 670.884 102.452H670.072V97.522H664.736ZM725.499 85.4L712.971 126H719.003L721.961 116.14H738.085L741.043 126H747.075L734.547 85.4H725.499ZM723.411 110.92L729.675 90.388H730.371L736.635 110.92H723.411ZM751.567 85.4V126H757.309V85.4H751.567ZM81.102 167.522V172.162H89.396V196H94.848V172.162H103.316V167.522H94.848V161.664C94.848 160.504 95.428 159.924 96.472 159.924H101.808V155.4H94.326C91.426 155.4 89.396 157.43 89.396 160.446V167.522H81.102ZM113.917 167.522H108.581V196H114.033V178.948C114.033 174.366 116.701 172.22 120.703 172.22H125.169V167.406H121.863C118.093 167.406 115.831 168.508 114.729 171.408H113.917V167.522ZM126.891 181.79C126.891 190.664 133.097 196.812 141.565 196.812C150.091 196.812 156.297 190.664 156.297 181.79C156.297 172.916 150.091 166.71 141.565 166.71C133.097 166.71 126.891 172.916 126.891 181.79ZM132.343 181.79C132.343 175.816 135.997 171.582 141.565 171.582C147.191 171.582 150.845 175.7 150.845 181.79C150.845 187.764 147.191 191.94 141.565 191.94C135.997 191.94 132.343 187.88 132.343 181.79ZM162.277 167.522V196H167.729V178.658C167.729 174.134 170.513 171.814 174.225 171.814C177.763 171.814 180.025 173.902 180.025 177.15V196H185.477V178.658C185.477 174.134 188.261 171.814 191.973 171.814C195.511 171.814 197.773 173.902 197.773 177.15V196H203.225V176.686C203.225 170.944 199.165 167 193.597 167C189.247 167 186.579 168.972 185.071 172.104H184.259C183.099 169.088 180.315 167 176.313 167C172.253 167 169.759 168.856 168.425 171.64H167.613V167.522H162.277ZM227.868 155.4V196H233.61V178.252H251.474V196H257.216V155.4H251.474V173.032H233.61V155.4H227.868ZM263.805 174.888L268.329 177.498C269.953 173.96 272.737 171.234 277.377 171.234C282.017 171.234 284.569 173.96 284.569 177.614V178.6L272.563 179.818C266.995 180.34 263.051 182.95 263.051 188.228C263.051 193.448 267.343 196.812 273.723 196.812C279.755 196.812 282.365 194.086 283.873 191.534H284.685V196H290.021V177.962C290.021 171.118 285.207 166.71 277.609 166.71C270.011 166.71 265.951 171.176 263.805 174.888ZM268.677 188.17C268.677 185.792 270.591 184.458 273.897 184.11L284.569 183.008V183.414C284.569 188.808 280.625 192.23 274.825 192.23C271.055 192.23 268.677 190.606 268.677 188.17ZM302.757 167.522H297.421V196H302.873V178.948C302.873 174.366 305.541 172.22 309.543 172.22H314.009V167.406H310.703C306.933 167.406 304.671 168.508 303.569 171.408H302.757V167.522ZM317.515 167.522L328.013 196H335.901L346.457 167.522H340.599L332.305 191.07H331.609L323.373 167.522H317.515ZM349.445 174.888L353.969 177.498C355.593 173.96 358.377 171.234 363.017 171.234C367.657 171.234 370.209 173.96 370.209 177.614V178.6L358.203 179.818C352.635 180.34 348.691 182.95 348.691 188.228C348.691 193.448 352.983 196.812 359.363 196.812C365.395 196.812 368.005 194.086 369.513 191.534H370.325V196H375.661V177.962C375.661 171.118 370.847 166.71 363.249 166.71C355.651 166.71 351.591 171.176 349.445 174.888ZM354.317 188.17C354.317 185.792 356.231 184.458 359.537 184.11L370.209 183.008V183.414C370.209 188.808 366.265 192.23 360.465 192.23C356.695 192.23 354.317 190.606 354.317 188.17ZM388.398 167.522H383.062V196H388.514V178.948C388.514 174.366 391.182 172.22 395.184 172.22H399.65V167.406H396.344C392.574 167.406 390.312 168.508 389.21 171.408H388.398V167.522ZM430.893 155.4H425.441V172.104H424.745C423.179 169.378 420.395 166.71 414.769 166.71C407.345 166.71 401.371 172.858 401.371 181.732C401.371 190.606 407.345 196.812 414.769 196.812C420.395 196.812 423.179 194.086 424.745 191.36H425.557V196H430.893V155.4ZM416.103 171.582C421.497 171.582 425.441 175.468 425.441 181.732C425.441 187.996 421.497 191.94 416.103 191.94C410.767 191.94 406.881 188.112 406.881 181.732C406.881 175.352 410.767 171.582 416.103 171.582ZM455.671 155.4V182.138C455.671 191.534 461.471 196.812 470.925 196.812C480.379 196.812 486.179 191.534 486.179 182.138V155.4H480.437V182.312C480.437 188.402 476.957 191.708 470.925 191.708C464.893 191.708 461.413 188.402 461.413 182.312V155.4H455.671ZM493.794 167.522V196H499.246V181.5C499.246 175.178 502.61 171.814 507.83 171.814C512.528 171.814 515.37 174.308 515.37 179.354V196H520.822V178.832C520.822 171.176 515.776 167 509.628 167C504.06 167 501.276 169.668 499.942 172.452H499.13V167.522H493.794ZM526.782 158.88C526.782 161.258 528.58 162.998 530.958 162.998C533.394 162.998 535.192 161.258 535.192 158.88C535.192 156.444 533.394 154.704 530.958 154.704C528.58 154.704 526.782 156.444 526.782 158.88ZM533.684 167.522H528.232V196H533.684V167.522ZM538.413 167.522L548.911 196H556.799L567.355 167.522H561.497L553.203 191.07H552.507L544.271 167.522H538.413ZM569.764 181.558C569.764 190.316 575.738 196.812 584.438 196.812C592.036 196.812 595.342 192.752 597.256 189.33L592.674 186.836C591.398 189.562 589.02 192.056 584.38 192.056C579.16 192.056 575.738 188.518 575.448 183.472H597.778V180.862C597.778 172.22 592.152 166.71 584.032 166.71C575.738 166.71 569.764 173.032 569.764 181.558ZM575.448 179.064C575.97 174.482 579.102 171.466 584.032 171.466C588.73 171.466 591.862 174.308 592.152 179.064H575.448ZM608.843 167.522H603.507V196H608.959V178.948C608.959 174.366 611.627 172.22 615.629 172.22H620.095V167.406H616.789C613.019 167.406 610.757 168.508 609.655 171.408H608.843V167.522ZM623.424 175.12C623.424 180.166 627.368 182.486 633.748 183.588L637.17 184.168C640.766 184.748 643.086 185.792 643.086 188.228C643.086 190.664 640.592 192.346 636.648 192.346C632.704 192.346 628.412 190.838 625.86 185.676L621.452 188.228C624.41 193.622 629.92 196.812 636.764 196.812C643.318 196.812 648.364 193.39 648.364 187.88C648.364 182.37 643.608 180.398 637.634 179.412L634.212 178.832C630.848 178.252 628.702 177.266 628.702 174.888C628.702 172.568 630.906 171.176 634.328 171.176C637.692 171.176 641.404 172.568 644.536 176.57L648.306 173.38C645.174 169.61 640.476 166.71 634.096 166.71C627.774 166.71 623.424 169.958 623.424 175.12ZM652.977 158.88C652.977 161.258 654.775 162.998 657.153 162.998C659.589 162.998 661.387 161.258 661.387 158.88C661.387 156.444 659.589 154.704 657.153 154.704C654.775 154.704 652.977 156.444 652.977 158.88ZM659.879 167.522H654.427V196H659.879V167.522ZM664.202 167.522V172.162H672.496V191.186C672.496 194.086 674.526 196 677.368 196H685.14V191.36H679.572C678.528 191.36 677.948 190.78 677.948 189.62V172.162H686.764V167.522H677.948V157.778H672.496V167.522H664.202ZM713.716 167.522L704.9 189.736H704.204L695.388 167.522H689.53L701.71 197.16L697.186 207.6H703.044L719.574 167.522H713.716ZM723.336 159.054C723.336 161.548 725.308 163.346 727.744 163.346C728.266 163.346 728.614 163.288 728.788 163.23V165.202C728.788 166.304 728.324 166.826 727.164 166.826H723.626V169.958H727.744C730.47 169.958 732.384 168.102 732.384 165.376V158.996C732.384 156.386 730.47 154.53 727.86 154.53C725.308 154.53 723.336 156.386 723.336 159.054ZM736.082 175.12C736.082 180.166 740.026 182.486 746.406 183.588L749.828 184.168C753.424 184.748 755.744 185.792 755.744 188.228C755.744 190.664 753.25 192.346 749.306 192.346C745.362 192.346 741.07 190.838 738.518 185.676L734.11 188.228C737.068 193.622 742.578 196.812 749.422 196.812C755.976 196.812 761.022 193.39 761.022 187.88C761.022 182.37 756.266 180.398 750.292 179.412L746.87 178.832C743.506 178.252 741.36 177.266 741.36 174.888C741.36 172.568 743.564 171.176 746.986 171.176C750.35 171.176 754.062 172.568 757.194 176.57L760.964 173.38C757.832 169.61 753.134 166.71 746.754 166.71C740.432 166.71 736.082 169.958 736.082 175.12ZM83.944 225.4V266H97.052C107.666 266 113.582 260.896 113.582 249.644V241.756C113.582 230.504 107.666 225.4 97.052 225.4H83.944ZM89.686 230.562H97.052C104.65 230.562 107.84 233.926 107.84 241.466V249.934C107.84 257.474 104.766 260.838 97.052 260.838H89.686V230.562ZM125.415 237.522H120.079V266H125.531V248.948C125.531 244.366 128.199 242.22 132.201 242.22H136.667V237.406H133.361C129.591 237.406 127.329 238.508 126.227 241.408H125.415V237.522ZM140.447 262.288C140.447 264.898 142.419 266.812 144.971 266.812C147.581 266.812 149.495 264.898 149.495 262.288C149.495 259.678 147.581 257.764 144.971 257.764C142.419 257.764 140.447 259.678 140.447 262.288ZM156.387 225.4V266H162.129V250.108H172.279C179.587 250.108 185.097 245.41 185.097 237.754C185.097 230.156 179.703 225.4 172.279 225.4H156.387ZM162.129 230.562H171.699C176.455 230.562 179.355 233.288 179.355 237.754C179.355 242.22 176.455 244.946 171.699 244.946H162.129V230.562ZM195.593 237.522H190.257V266H195.709V248.948C195.709 244.366 198.377 242.22 202.379 242.22H206.845V237.406H203.539C199.769 237.406 197.507 238.508 196.405 241.408H195.593V237.522ZM208.567 251.79C208.567 260.664 214.773 266.812 223.241 266.812C231.767 266.812 237.973 260.664 237.973 251.79C237.973 242.916 231.767 236.71 223.241 236.71C214.773 236.71 208.567 242.916 208.567 251.79ZM214.019 251.79C214.019 245.816 217.673 241.582 223.241 241.582C228.867 241.582 232.521 245.7 232.521 251.79C232.521 257.764 228.867 261.94 223.241 261.94C217.673 261.94 214.019 257.88 214.019 251.79ZM240.247 237.522V242.162H248.541V261.186C248.541 264.086 250.571 266 253.413 266H261.185V261.36H255.617C254.573 261.36 253.993 260.78 253.993 259.62V242.162H262.809V237.522H253.993V227.778H248.541V237.522H240.247ZM266.51 251.79C266.51 260.664 272.716 266.812 281.184 266.812C289.71 266.812 295.916 260.664 295.916 251.79C295.916 242.916 289.71 236.71 281.184 236.71C272.716 236.71 266.51 242.916 266.51 251.79ZM271.962 251.79C271.962 245.816 275.616 241.582 281.184 241.582C286.81 241.582 290.464 245.7 290.464 251.79C290.464 257.764 286.81 261.94 281.184 261.94C275.616 261.94 271.962 257.88 271.962 251.79ZM301.896 277.6H307.348V261.36H308.044C309.61 264.086 312.394 266.812 318.02 266.812C325.444 266.812 331.418 260.664 331.418 251.79C331.418 242.858 325.444 236.71 318.02 236.71C312.394 236.71 309.61 239.436 308.044 242.162H307.232V237.522H301.896V277.6ZM316.686 261.94C311.292 261.94 307.348 258.054 307.348 251.79C307.348 245.526 311.292 241.582 316.686 241.582C322.022 241.582 325.908 245.41 325.908 251.79C325.908 258.17 322.022 261.94 316.686 261.94ZM336.078 244.888L340.602 247.498C342.226 243.96 345.01 241.234 349.65 241.234C354.29 241.234 356.842 243.96 356.842 247.614V248.6L344.836 249.818C339.268 250.34 335.324 252.95 335.324 258.228C335.324 263.448 339.616 266.812 345.996 266.812C352.028 266.812 354.638 264.086 356.146 261.534H356.958V266H362.294V247.962C362.294 241.118 357.48 236.71 349.882 236.71C342.284 236.71 338.224 241.176 336.078 244.888ZM340.95 258.17C340.95 255.792 342.864 254.458 346.17 254.11L356.842 253.008V253.414C356.842 258.808 352.898 262.23 347.098 262.23C343.328 262.23 340.95 260.606 340.95 258.17ZM369.695 277.6H375.147V261.36H375.843C377.409 264.086 380.193 266.812 385.819 266.812C393.243 266.812 399.217 260.664 399.217 251.79C399.217 242.858 393.243 236.71 385.819 236.71C380.193 236.71 377.409 239.436 375.843 242.162H375.031V237.522H369.695V277.6ZM384.485 261.94C379.091 261.94 375.147 258.054 375.147 251.79C375.147 245.526 379.091 241.582 384.485 241.582C389.821 241.582 393.707 245.41 393.707 251.79C393.707 258.17 389.821 261.94 384.485 261.94ZM403.877 244.888L408.401 247.498C410.025 243.96 412.809 241.234 417.449 241.234C422.089 241.234 424.641 243.96 424.641 247.614V248.6L412.635 249.818C407.067 250.34 403.123 252.95 403.123 258.228C403.123 263.448 407.415 266.812 413.795 266.812C419.827 266.812 422.437 264.086 423.945 261.534H424.757V266H430.093V247.962C430.093 241.118 425.279 236.71 417.681 236.71C410.083 236.71 406.023 241.176 403.877 244.888ZM408.749 258.17C408.749 255.792 410.663 254.458 413.969 254.11L424.641 253.008V253.414C424.641 258.808 420.697 262.23 414.897 262.23C411.127 262.23 408.749 260.606 408.749 258.17ZM436.623 245.12C436.623 250.166 440.567 252.486 446.947 253.588L450.369 254.168C453.965 254.748 456.285 255.792 456.285 258.228C456.285 260.664 453.791 262.346 449.847 262.346C445.903 262.346 441.611 260.838 439.059 255.676L434.651 258.228C437.609 263.622 443.119 266.812 449.963 266.812C456.517 266.812 461.563 263.39 461.563 257.88C461.563 252.37 456.807 250.398 450.833 249.412L447.411 248.832C444.047 248.252 441.901 247.266 441.901 244.888C441.901 242.568 444.105 241.176 447.527 241.176C450.891 241.176 454.603 242.568 457.735 246.57L461.505 243.38C458.373 239.61 453.675 236.71 447.295 236.71C440.973 236.71 436.623 239.958 436.623 245.12Z" fill="white"/>
<path d="M82.664 399.8V425H85.58V414.812H92.24C96.704 414.812 100.16 411.968 100.16 407.288C100.16 402.608 96.74 399.8 92.24 399.8H82.664ZM85.58 402.428H91.916C95.228 402.428 97.208 404.264 97.208 407.288C97.208 410.348 95.228 412.148 91.916 412.148H85.58V402.428ZM106.422 407.432H103.722V425H106.494V414.236C106.494 411.212 108.15 409.808 110.742 409.808H113.586V407.36H111.318C108.978 407.36 107.61 408.044 106.926 409.772H106.422V407.432ZM114.84 416.216C114.84 421.652 118.512 425.504 123.804 425.504C129.132 425.504 132.804 421.652 132.804 416.216C132.804 410.744 129.132 406.928 123.804 406.928C118.512 406.928 114.84 410.744 114.84 416.216ZM117.576 416.216C117.576 412.292 120.024 409.412 123.804 409.412C127.584 409.412 130.032 412.184 130.032 416.216C130.032 420.212 127.584 423.02 123.804 423.02C120.024 423.02 117.576 420.32 117.576 416.216ZM151.129 407.432V410.492H150.625C149.617 408.692 147.781 406.928 144.145 406.928C139.465 406.928 135.793 410.564 135.793 416C135.793 421.472 139.465 425.108 144.145 425.108C147.781 425.108 149.617 423.344 150.625 421.544H151.057V424.064C151.057 428.204 148.501 430.256 144.973 430.256C141.733 430.256 139.609 428.42 138.565 426.368L136.153 427.772C137.845 430.508 140.473 432.704 145.153 432.704C150.517 432.704 153.793 429.104 153.793 424.244V407.432H151.129ZM144.757 422.624C141.157 422.624 138.601 420.14 138.601 416C138.601 411.896 141.157 409.412 144.757 409.412C148.429 409.412 151.057 411.968 151.057 416C151.057 420.068 148.429 422.624 144.757 422.624ZM161.758 407.432H159.058V425H161.83V414.236C161.83 411.212 163.486 409.808 166.078 409.808H168.922V407.36H166.654C164.314 407.36 162.946 408.044 162.262 409.772H161.758V407.432ZM171.202 412.076L173.542 413.372C174.586 411.068 176.494 409.268 179.554 409.268C182.65 409.268 184.414 411.068 184.414 413.696V414.452L176.638 415.208C173.146 415.532 170.734 417.152 170.734 420.32C170.734 423.452 173.398 425.504 177.322 425.504C181.03 425.504 182.866 423.884 183.982 422.084H184.486V425H187.15V413.84C187.15 409.628 184.378 406.928 179.698 406.928C174.982 406.928 172.498 409.664 171.202 412.076ZM173.542 420.284C173.542 418.592 174.946 417.656 177.178 417.44L184.414 416.756V417.044C184.414 420.86 181.57 423.164 177.754 423.164C175.234 423.164 173.542 422.012 173.542 420.284ZM192.175 407.432V425H194.947V414.308C194.947 411.176 196.891 409.556 199.375 409.556C201.859 409.556 203.371 411.032 203.371 413.264V425H206.107V414.308C206.107 411.176 208.051 409.556 210.571 409.556C213.055 409.556 214.531 411.032 214.531 413.264V425H217.303V413.012C217.303 409.52 214.819 407.072 211.327 407.072C208.699 407.072 206.899 408.26 205.891 410.312H205.387C204.667 408.44 202.939 407.072 200.383 407.072C197.827 407.072 196.243 408.188 195.379 409.916H194.875V407.432H192.175ZM233.484 399.8V425H243.852C248.172 425 251.376 422.516 251.376 418.304C251.376 414.992 249.18 413.084 246.912 412.544V412.112C249.108 411.5 251.376 409.7 251.376 406.388C251.376 402.284 248.208 399.8 243.96 399.8H233.484ZM236.4 402.428H243.708C246.66 402.428 248.532 404.084 248.532 406.64C248.532 409.304 246.732 411.032 243.744 411.032H236.4V402.428ZM236.4 413.66H243.6C246.768 413.66 248.532 415.316 248.532 417.98C248.532 420.572 246.768 422.372 243.744 422.372H236.4V413.66ZM254.585 416.072C254.585 421.472 258.257 425.504 263.657 425.504C268.337 425.504 270.353 422.984 271.541 420.716L269.129 419.492C268.265 421.436 266.717 423.056 263.621 423.056C260.057 423.056 257.681 420.68 257.465 417.008H271.865V415.568C271.865 410.24 268.373 406.928 263.405 406.928C258.293 406.928 254.585 410.852 254.585 416.072ZM257.465 414.74C257.861 411.464 260.093 409.376 263.405 409.376C266.645 409.376 268.841 411.284 268.985 414.74H257.465ZM290.032 407.432V410.492H289.528C288.52 408.692 286.684 406.928 283.048 406.928C278.368 406.928 274.696 410.564 274.696 416C274.696 421.472 278.368 425.108 283.048 425.108C286.684 425.108 288.52 423.344 289.528 421.544H289.96V424.064C289.96 428.204 287.404 430.256 283.876 430.256C280.636 430.256 278.512 428.42 277.468 426.368L275.056 427.772C276.748 430.508 279.376 432.704 284.056 432.704C289.42 432.704 292.696 429.104 292.696 424.244V407.432H290.032ZM283.66 422.624C280.06 422.624 277.504 420.14 277.504 416C277.504 411.896 280.06 409.412 283.66 409.412C287.332 409.412 289.96 411.968 289.96 416C289.96 420.068 287.332 422.624 283.66 422.624ZM297.024 401.924C297.024 403.256 297.996 404.228 299.328 404.228C300.66 404.228 301.668 403.256 301.668 401.924C301.668 400.628 300.66 399.656 299.328 399.656C297.996 399.656 297.024 400.628 297.024 401.924ZM300.732 407.432H297.96V425H300.732V407.432ZM305.941 407.432V425H308.713V416.108C308.713 411.788 311.089 409.556 314.509 409.556C317.605 409.556 319.549 411.14 319.549 414.596V425H322.285V414.344C322.285 409.556 319.081 407.072 315.301 407.072C311.773 407.072 310.009 408.8 309.145 410.6H308.641V407.432H305.941ZM326.704 411.968C326.704 415.028 329.08 416.432 332.932 417.08L335.056 417.44C337.504 417.836 339.196 418.556 339.196 420.284C339.196 422.048 337.468 423.2 334.804 423.2C332.212 423.2 329.404 422.192 327.856 418.844L325.552 420.068C327.352 423.704 330.808 425.504 334.876 425.504C338.8 425.504 341.896 423.452 341.896 420.14C341.896 416.792 339.016 415.604 335.38 414.992L333.256 414.632C330.952 414.236 329.404 413.552 329.404 411.86C329.404 410.168 331.096 409.232 333.364 409.232C335.632 409.232 338.08 410.132 339.916 412.688L341.932 411.104C339.988 408.656 337.108 406.928 333.292 406.928C329.439 406.928 326.704 408.836 326.704 411.968ZM357.234 399.8V425H360.15V402.86H360.582L370.266 425H375.378V399.8H372.462V421.94H372.03L362.31 399.8H357.234ZM379.532 416.216C379.532 421.652 383.204 425.504 388.496 425.504C393.824 425.504 397.496 421.652 397.496 416.216C397.496 410.744 393.824 406.928 388.496 406.928C383.204 406.928 379.532 410.744 379.532 416.216ZM382.268 416.216C382.268 412.292 384.716 409.412 388.496 409.412C392.276 409.412 394.724 412.184 394.724 416.216C394.724 420.212 392.276 423.02 388.496 423.02C384.716 423.02 382.268 420.32 382.268 416.216ZM399.413 407.432L406.145 425H410.069L416.801 407.432H413.849L408.305 422.408H407.873L402.365 407.432H399.413ZM418.73 416.072C418.73 421.472 422.402 425.504 427.802 425.504C432.482 425.504 434.498 422.984 435.686 420.716L433.274 419.492C432.41 421.436 430.862 423.056 427.766 423.056C424.202 423.056 421.826 420.68 421.61 417.008H436.01V415.568C436.01 410.24 432.518 406.928 427.55 406.928C422.438 406.928 418.73 410.852 418.73 416.072ZM421.61 414.74C422.006 411.464 424.238 409.376 427.55 409.376C430.79 409.376 432.986 411.284 433.13 414.74H421.61ZM439.956 407.432V425H442.728V414.308C442.728 411.176 444.672 409.556 447.156 409.556C449.64 409.556 451.152 411.032 451.152 413.264V425H453.888V414.308C453.888 411.176 455.832 409.556 458.352 409.556C460.836 409.556 462.312 411.032 462.312 413.264V425H465.084V413.012C465.084 409.52 462.6 407.072 459.108 407.072C456.48 407.072 454.68 408.26 453.672 410.312H453.168C452.448 408.44 450.72 407.072 448.164 407.072C445.608 407.072 444.024 408.188 443.16 409.916H442.656V407.432H439.956ZM470.12 399.8V425H472.82V421.94H473.324C474.296 423.74 476.132 425.504 479.804 425.504C484.448 425.504 488.156 421.76 488.156 416.216C488.156 410.672 484.448 406.928 479.804 406.928C476.132 406.928 474.296 408.692 473.324 410.492H472.892V399.8H470.12ZM479.156 409.412C482.792 409.412 485.348 411.968 485.348 416.216C485.348 420.428 482.792 423.02 479.156 423.02C475.484 423.02 472.892 420.356 472.892 416.216C472.892 412.04 475.484 409.412 479.156 409.412ZM491.117 416.072C491.117 421.472 494.789 425.504 500.189 425.504C504.869 425.504 506.885 422.984 508.073 420.716L505.661 419.492C504.797 421.436 503.249 423.056 500.153 423.056C496.589 423.056 494.213 420.68 493.997 417.008H508.397V415.568C508.397 410.24 504.905 406.928 499.937 406.928C494.825 406.928 491.117 410.852 491.117 416.072ZM493.997 414.74C494.393 411.464 496.625 409.376 499.937 409.376C503.177 409.376 505.373 411.284 505.517 414.74H493.997ZM515.043 407.432H512.343V425H515.115V414.236C515.115 411.212 516.771 409.808 519.363 409.808H522.207V407.36H519.939C517.599 407.36 516.231 408.044 515.547 409.772H515.043V407.432ZM535.845 399.8V402.464H549.201L541.065 409.448V412.22H544.629C547.833 412.22 550.389 413.912 550.389 417.368C550.389 420.464 548.121 422.876 544.521 422.876C540.633 422.876 538.221 420.788 538.221 416.9V415.712H535.269V416.9C535.269 422.3 538.869 425.504 544.521 425.504C549.597 425.504 553.305 422.228 553.305 417.404C553.305 412.652 549.957 409.916 545.637 409.916H544.773V409.52L553.161 402.392V399.8H535.845ZM568.811 417.044H579.467V414.488H568.811V417.044ZM596.191 399.8V425H599.107V413.696H610.915V411.032H599.107V402.428H611.635V399.8H596.191ZM618.051 407.432H615.351V425H618.123V414.236C618.123 411.212 619.779 409.808 622.371 409.808H625.215V407.36H622.947C620.607 407.36 619.239 408.044 618.555 409.772H618.051V407.432ZM626.433 416.072C626.433 421.472 630.105 425.504 635.505 425.504C640.185 425.504 642.201 422.984 643.389 420.716L640.977 419.492C640.113 421.436 638.565 423.056 635.469 423.056C631.905 423.056 629.529 420.68 629.313 417.008H643.713V415.568C643.713 410.24 640.221 406.928 635.253 406.928C630.141 406.928 626.433 410.852 626.433 416.072ZM629.313 414.74C629.709 411.464 631.941 409.376 635.253 409.376C638.493 409.376 640.689 411.284 640.833 414.74H629.313ZM646.507 416.072C646.507 421.472 650.179 425.504 655.579 425.504C660.259 425.504 662.275 422.984 663.463 420.716L661.051 419.492C660.187 421.436 658.639 423.056 655.543 423.056C651.979 423.056 649.603 420.68 649.387 417.008H663.787V415.568C663.787 410.24 660.295 406.928 655.327 406.928C650.215 406.928 646.507 410.852 646.507 416.072ZM649.387 414.74C649.783 411.464 652.015 409.376 655.327 409.376C658.567 409.376 660.763 411.284 660.907 414.74H649.387ZM80.756 455.432V457.772H86.228V473H89V457.772H94.58V455.432H89V451.22C89 450.5 89.36 450.14 90.008 450.14H93.644V447.8H89C87.344 447.8 86.228 448.916 86.228 450.644V455.432H80.756ZM96.8753 464.216C96.8753 469.652 100.547 473.504 105.839 473.504C111.167 473.504 114.839 469.652 114.839 464.216C114.839 458.744 111.167 454.928 105.839 454.928C100.547 454.928 96.8753 458.744 96.8753 464.216ZM99.6113 464.216C99.6113 460.292 102.059 457.412 105.839 457.412C109.619 457.412 112.067 460.184 112.067 464.216C112.067 468.212 109.619 471.02 105.839 471.02C102.059 471.02 99.6113 468.32 99.6113 464.216ZM121.644 455.432H118.944V473H121.716V462.236C121.716 459.212 123.372 457.808 125.964 457.808H128.808V455.36H126.54C124.2 455.36 122.832 456.044 122.148 457.772H121.644V455.432ZM140.97 455.432V457.772H146.442V470.228C146.442 471.92 147.522 473 149.142 473H153.966V470.624H150.186C149.538 470.624 149.178 470.264 149.178 469.544V457.772H154.974V455.432H149.178V449.132H146.442V455.432H140.97ZM158.882 447.8V473H161.654V464.108C161.654 459.788 164.03 457.556 167.45 457.556C170.546 457.556 172.49 459.14 172.49 462.596V473H175.226V462.344C175.226 457.556 172.022 455.072 168.242 455.072C164.714 455.072 162.95 456.8 162.086 458.6H161.654V447.8H158.882ZM179.105 464.072C179.105 469.472 182.777 473.504 188.177 473.504C192.857 473.504 194.873 470.984 196.061 468.716L193.649 467.492C192.785 469.436 191.237 471.056 188.141 471.056C184.577 471.056 182.201 468.68 181.985 465.008H196.385V463.568C196.385 458.24 192.893 454.928 187.925 454.928C182.813 454.928 179.105 458.852 179.105 464.072ZM181.985 462.74C182.381 459.464 184.613 457.376 187.925 457.376C191.165 457.376 193.361 459.284 193.505 462.74H181.985ZM209.425 447.8V450.428H217.849V473H220.765V450.428H229.152V447.8H209.425ZM227.692 464.216C227.692 469.652 231.364 473.504 236.656 473.504C241.984 473.504 245.656 469.652 245.656 464.216C245.656 458.744 241.984 454.928 236.656 454.928C231.364 454.928 227.692 458.744 227.692 464.216ZM230.428 464.216C230.428 460.292 232.876 457.412 236.656 457.412C240.436 457.412 242.884 460.184 242.884 464.216C242.884 468.212 240.436 471.02 236.656 471.02C232.876 471.02 230.428 468.32 230.428 464.216ZM249.761 480.2H252.533V469.94H252.965C253.937 471.74 255.773 473.504 259.445 473.504C264.089 473.504 267.797 469.76 267.797 464.216C267.797 458.672 264.089 454.928 259.445 454.928C255.773 454.928 253.937 456.692 252.965 458.492H252.461V455.432H249.761V480.2ZM258.797 471.02C255.125 471.02 252.533 468.356 252.533 464.216C252.533 460.04 255.125 457.412 258.797 457.412C262.433 457.412 264.989 459.968 264.989 464.216C264.989 468.428 262.433 471.02 258.797 471.02ZM292.415 447.8L280.931 465.368V467.888H294.251V473H297.203V467.888H301.523V465.26H297.203V447.8H292.415ZM293.819 450.464H294.251V465.26H284.063L293.819 450.464ZM303.743 457.556V463.244C303.743 469.976 307.199 473.504 312.923 473.504C318.647 473.504 322.103 469.976 322.103 463.244V457.556C322.103 450.896 318.647 447.296 312.923 447.296C307.199 447.296 303.743 450.896 303.743 457.556ZM306.659 457.376C306.659 452.768 308.819 449.888 312.923 449.888C317.027 449.888 319.187 452.732 319.187 457.376V463.424C319.187 468.032 317.171 470.876 312.923 470.876C308.747 470.876 306.659 468.104 306.659 463.424V457.376ZM336.426 455.432L340.638 473H344.742L348.882 458.096H349.314L353.454 473H357.558L361.77 455.432H358.962L355.614 470.336H355.182L351.042 455.432H347.118L342.978 470.336H342.546L339.234 455.432H336.426ZM365.741 447.8V473H368.513V464.108C368.513 459.788 370.889 457.556 374.309 457.556C377.405 457.556 379.349 459.14 379.349 462.596V473H382.085V462.344C382.085 457.556 378.881 455.072 375.101 455.072C371.573 455.072 369.809 456.8 368.945 458.6H368.513V447.8H365.741ZM386 464.216C386 469.652 389.672 473.504 394.964 473.504C400.292 473.504 403.964 469.652 403.964 464.216C403.964 458.744 400.292 454.928 394.964 454.928C389.672 454.928 386 458.744 386 464.216ZM388.736 464.216C388.736 460.292 391.184 457.412 394.964 457.412C398.744 457.412 401.192 460.184 401.192 464.216C401.192 468.212 398.744 471.02 394.964 471.02C391.184 471.02 388.736 468.32 388.736 464.216ZM418.351 460.076L420.691 461.372C421.735 459.068 423.643 457.268 426.703 457.268C429.799 457.268 431.563 459.068 431.563 461.696V462.452L423.787 463.208C420.295 463.532 417.883 465.152 417.883 468.32C417.883 471.452 420.547 473.504 424.471 473.504C428.179 473.504 430.015 471.884 431.131 470.084H431.635V473H434.299V461.84C434.299 457.628 431.527 454.928 426.847 454.928C422.131 454.928 419.647 457.664 418.351 460.076ZM420.691 468.284C420.691 466.592 422.095 465.656 424.327 465.44L431.563 464.756V465.044C431.563 468.86 428.719 471.164 424.903 471.164C422.383 471.164 420.691 470.012 420.691 468.284ZM439.323 480.2H442.095V469.94H442.527C443.499 471.74 445.335 473.504 449.007 473.504C453.651 473.504 457.359 469.76 457.359 464.216C457.359 458.672 453.651 454.928 449.007 454.928C445.335 454.928 443.499 456.692 442.527 458.492H442.023V455.432H439.323V480.2ZM448.359 471.02C444.687 471.02 442.095 468.356 442.095 464.216C442.095 460.04 444.687 457.412 448.359 457.412C451.995 457.412 454.551 459.968 454.551 464.216C454.551 468.428 451.995 471.02 448.359 471.02ZM461.472 480.2H464.244V469.94H464.676C465.648 471.74 467.484 473.504 471.156 473.504C475.8 473.504 479.508 469.76 479.508 464.216C479.508 458.672 475.8 454.928 471.156 454.928C467.484 454.928 465.648 456.692 464.676 458.492H464.172V455.432H461.472V480.2ZM470.508 471.02C466.836 471.02 464.244 468.356 464.244 464.216C464.244 460.04 466.836 457.412 470.508 457.412C474.144 457.412 476.7 459.968 476.7 464.216C476.7 468.428 474.144 471.02 470.508 471.02ZM486.392 447.8H483.62V473H486.392V447.8ZM504.957 455.432L499.017 469.724H498.657L492.717 455.432H489.765L497.361 473.468L494.445 480.2H497.397L507.945 455.432H504.957Z" fill="white"/>
<circle opacity="0.6" cx="876.755" cy="434.755" r="105.255" stroke="#00FFFF" stroke-width="3"/>
<circle opacity="0.8" cx="876.268" cy="434.268" r="80.3939" stroke="#00FFFF" stroke-width="3"/>
<circle cx="876.755" cy="434.755" r="54.5583" stroke="#00FFFF" stroke-width="3"/>
<circle opacity="0.6" cx="1013.25" cy="434.755" r="105.255" stroke="#00FFFF" stroke-width="3"/>
<circle cx="1012.76" cy="434.268" r="80.3939" stroke="#00FFFF" stroke-width="3"/>
<circle cx="1013.24" cy="434.755" r="54.5583" stroke="#00FFFF" stroke-width="3"/>
<circle cx="944.511" cy="391.369" r="7.79942" fill="#00FFFF"/>
<circle cx="944.511" cy="478.139" r="7.79942" fill="#00FFFF"/>
</svg>
