<svg width="50" height="19" viewBox="0 0 50 19" fill="none" xmlns="http://www.w3.org/2000/svg">
<path d="M9.37106 8.83502H16.6195V15.6845C14.9349 17.347 12.2527 18.3667 9.88084 18.3667C5.00419 18.3667 0.792435 14.3545 0.792435 9.50001C0.792435 4.64541 5.00419 0.633209 9.88084 0.633209C12.4079 0.633209 15.0901 1.63072 16.6195 3.3154L14.7576 4.97792C13.5827 3.64791 11.5655 2.96074 9.70356 2.96074C6.17897 2.96074 3.29735 5.97543 3.29735 9.47786C3.29735 12.9802 6.15682 15.9949 9.70356 15.9949C11.241 16.0029 12.7321 15.4692 13.9152 14.4875V11.1403H9.19366V8.79058H9.37106V8.83502Z" fill="#030303"/>
<path d="M33.6216 0.965736V18.0342H31.0946V10.4976H21.6736V18.0342H19.1466V0.965729H21.6736V8.14786H31.0946V0.965736H33.6216Z" fill="#030303"/>
<path d="M38.8308 3.31542V8.32514H48.0965V10.6748H38.8308V18.0342H36.3038V0.965729H49.094V3.31542L38.8308 3.31542Z" fill="#030303"/>
</svg>
