<svg width="214" height="117" viewBox="0 0 214 117" fill="none" xmlns="http://www.w3.org/2000/svg">
<rect width="214" height="117" fill="#1E2029"/>
<path d="M130.26 78.5075C103.463 91.2755 86.8328 80.5929 76.1872 74.1045C75.5284 73.6956 74.4088 74.2001 75.3802 75.3173C78.9268 79.6226 90.5497 89.9998 105.721 89.9998C120.903 89.9998 129.934 81.7062 131.064 80.2595C132.186 78.8249 131.394 78.0336 130.26 78.5075H130.26ZM137.786 74.3465C137.066 73.4083 133.41 73.2334 131.109 73.5164C128.805 73.7912 125.346 75.2013 125.646 76.0479C125.801 76.365 126.116 76.2228 127.699 76.0803C129.286 75.9217 133.733 75.3598 134.66 76.5726C135.591 77.7937 133.241 83.6109 132.812 84.549C132.398 85.4872 132.971 85.7291 133.749 85.1043C134.517 84.4797 135.908 82.8621 136.841 80.573C137.767 78.2715 138.332 75.0608 137.785 74.3465H137.786Z" fill="#FF9900"/>
<path fill-rule="evenodd" clip-rule="evenodd" d="M112.242 52.4547C112.242 55.8048 112.327 58.5986 110.635 61.5738C109.27 63.9929 107.108 65.4804 104.692 65.4804C101.394 65.4804 99.4729 62.9647 99.4729 59.2518C99.4729 51.9224 106.032 50.5921 112.242 50.5921V52.4547ZM120.903 73.4146C120.336 73.9224 119.514 73.9589 118.874 73.62C116.023 71.2496 115.516 70.1491 113.945 67.8873C109.234 72.701 105.9 74.1401 99.7872 74.1401C92.5631 74.1401 86.9336 69.6772 86.9336 60.7394C86.9336 53.761 90.715 49.0077 96.0903 46.6857C100.754 44.6294 107.265 44.2666 112.242 43.6983V42.5856C112.242 40.5415 112.399 38.1226 111.203 36.3569C110.152 34.7725 108.147 34.1194 106.383 34.1194C103.109 34.1194 100.186 35.8004 99.4729 39.2836C99.3278 40.0579 98.7602 40.8199 97.9871 40.8561L89.6516 39.9612C88.9511 39.8037 88.178 39.2354 88.3713 38.1588C90.292 28.048 99.4123 25 107.579 25C111.758 25 117.219 26.1128 120.517 29.2817C124.697 33.1881 124.298 38.4008 124.298 44.0731V57.4739C124.298 61.5014 125.965 63.2671 127.535 65.4442C128.091 66.2182 128.212 67.1497 127.511 67.73C125.759 69.1933 122.643 71.9148 120.927 73.4388L120.903 73.4146" fill="black"/>
<path d="M130.26 78.5075C103.463 91.2755 86.8328 80.5929 76.1872 74.1045C75.5284 73.6956 74.4088 74.2001 75.3802 75.3173C78.9268 79.6226 90.5497 89.9998 105.721 89.9998C120.903 89.9998 129.934 81.7062 131.064 80.2595C132.186 78.8249 131.394 78.0336 130.26 78.5075H130.26ZM137.786 74.3465C137.066 73.4083 133.41 73.2334 131.109 73.5164C128.805 73.7912 125.346 75.2013 125.646 76.0479C125.801 76.365 126.116 76.2228 127.699 76.0803C129.286 75.9217 133.733 75.3598 134.66 76.5726C135.591 77.7937 133.241 83.6109 132.812 84.549C132.398 85.4872 132.971 85.7291 133.749 85.1043C134.517 84.4797 135.908 82.8621 136.841 80.573C137.767 78.2715 138.332 75.0608 137.785 74.3465H137.786Z" fill="#FF9900"/>
<path fill-rule="evenodd" clip-rule="evenodd" d="M112.242 52.4547C112.242 55.8048 112.327 58.5986 110.635 61.5738C109.27 63.9929 107.108 65.4804 104.692 65.4804C101.394 65.4804 99.4729 62.9647 99.4729 59.2518C99.4729 51.9224 106.032 50.5921 112.242 50.5921V52.4547ZM120.903 73.4146C120.336 73.9224 119.514 73.9589 118.874 73.62C116.023 71.2496 115.516 70.1491 113.945 67.8873C109.234 72.701 105.9 74.1401 99.7872 74.1401C92.5631 74.1401 86.9336 69.6772 86.9336 60.7394C86.9336 53.761 90.715 49.0077 96.0903 46.6857C100.754 44.6294 107.265 44.2666 112.242 43.6983V42.5856C112.242 40.5415 112.399 38.1226 111.203 36.3569C110.152 34.7725 108.147 34.1194 106.383 34.1194C103.109 34.1194 100.186 35.8004 99.4729 39.2836C99.3278 40.0579 98.7602 40.8199 97.9871 40.8561L89.6516 39.9612C88.9511 39.8037 88.178 39.2354 88.3713 38.1588C90.292 28.048 99.4123 25 107.579 25C111.758 25 117.219 26.1128 120.517 29.2817C124.697 33.1881 124.298 38.4008 124.298 44.0731V57.4739C124.298 61.5014 125.965 63.2671 127.535 65.4442C128.091 66.2182 128.212 67.1497 127.511 67.73C125.759 69.1933 122.643 71.9148 120.927 73.4388L120.903 73.4146" fill="white"/>
</svg>
