<svg width="97" height="102" viewBox="0 0 97 102" fill="none" xmlns="http://www.w3.org/2000/svg">
<path d="M80.5 10.5696L80.5 101.5L0.5 101.5L0.5 10.5696L80.5 10.5696Z" fill="#FAFAFA" stroke="black"/>
<rect x="10.3663" y="26.5181" width="39.1614" height="2.94025" fill="#1E2029"/>
<mask id="path-3-inside-1" fill="white">
<path fill-rule="evenodd" clip-rule="evenodd" d="M54.7851 0H25.7872V6.88972H17V16.3632H63.5723V6.88972H54.7851V0Z"/>
</mask>
<path fill-rule="evenodd" clip-rule="evenodd" d="M54.7851 0H25.7872V6.88972H17V16.3632H63.5723V6.88972H54.7851V0Z" fill="#586FF1"/>
<path d="M25.7872 0V-1H24.7872V0H25.7872ZM54.7851 0H55.7851V-1H54.7851V0ZM25.7872 6.88972V7.88972H26.7872V6.88972H25.7872ZM17 6.88972V5.88972H16V6.88972H17ZM17 16.3632H16V17.3632H17V16.3632ZM63.5723 16.3632V17.3632H64.5723V16.3632H63.5723ZM63.5723 6.88972H64.5723V5.88972H63.5723V6.88972ZM54.7851 6.88972H53.7851V7.88972H54.7851V6.88972ZM25.7872 1H54.7851V-1H25.7872V1ZM26.7872 6.88972V0H24.7872V6.88972H26.7872ZM17 7.88972H25.7872V5.88972H17V7.88972ZM18 16.3632V6.88972H16V16.3632H18ZM63.5723 15.3632H17V17.3632H63.5723V15.3632ZM62.5723 6.88972V16.3632H64.5723V6.88972H62.5723ZM54.7851 7.88972H63.5723V5.88972H54.7851V7.88972ZM53.7851 0V6.88972H55.7851V0H53.7851Z" fill="black" mask="url(#path-3-inside-1)"/>
<rect x="73.8561" y="57.9583" width="31.097" height="2.74385" transform="rotate(45 73.8561 57.9583)" fill="#1E2029"/>
<circle cx="62.3218" cy="49.3218" r="14.561" stroke="#1E2029" stroke-width="1.52158"/>
<rect x="80.7488" y="62.7285" width="22.9827" height="5.74568" transform="rotate(45 80.7488 62.7285)" fill="#1E2029"/>
<rect x="10.9728" y="69.6953" width="1.94555" height="1.94555" fill="#1E2029"/>
<rect x="10.9728" y="79.4231" width="1.94555" height="1.94555" fill="#1E2029"/>
<rect x="22.6461" y="69.6953" width="33.0744" height="1.94555" fill="#1E2029"/>
<rect x="22.6461" y="79.4231" width="33.0744" height="1.94555" fill="#1E2029"/>
<path d="M10 49.5029L12.7514 52.2544L18.2543 46.7515" stroke="#3D32D9" stroke-width="2"/>
<path d="M10 59.2307L12.7514 61.9821L18.2543 56.4793" stroke="#3D32D9" stroke-width="2"/>
</svg>
