<svg width="40" height="40" viewBox="0 0 40 40" fill="none" xmlns="http://www.w3.org/2000/svg">
<path d="M30.5014 14.9996H21.0014V19.3749C21.0014 22.4768 18.9826 25.0004 16.5014 25.0004C14.0201 25.0004 12.0014 22.4768 12.0014 19.3749V9.87414L7.94516 12.9213C6.73891 13.8198 6.00141 15.4527 6.00141 17.2029V20.8985L1.00142 24.5082C0.0451754 25.1958 -0.286074 26.7271 0.270175 27.9225L5.27017 38.7516C5.82017 39.947 7.04516 40.3533 8.00141 39.6657L14.4639 35.0013H23.0014C25.2076 35.0013 27.0014 32.7589 27.0014 30.0008H28.0014C29.1076 30.0008 30.0014 28.8836 30.0014 27.5006V22.5002H30.5014C31.3326 22.5002 32.0014 21.6642 32.0014 20.6251V16.8747C32.0014 15.8356 31.3326 14.9996 30.5014 14.9996ZM39.7326 12.0775L34.7326 1.24842C34.1826 0.0530019 32.9576 -0.353282 32.0014 0.334276L25.5389 4.99873H19.1514C18.4014 4.99873 17.6701 5.26438 17.0326 5.75661L14.9389 7.38956C14.3514 7.84272 14.0014 8.64748 14.0014 9.50693V19.3749C14.0014 21.1017 15.1201 22.5002 16.5014 22.5002C17.8826 22.5002 19.0014 21.1017 19.0014 19.3749V12.4994H30.5014C32.4326 12.4994 34.0014 14.4605 34.0014 16.8747V19.1015L39.0014 15.4918C39.9576 14.7964 40.2826 13.2729 39.7326 12.0775Z" fill="#3D32D9"/>
</svg>
