<svg width="600" height="149" viewBox="0 0 600 149" fill="none" xmlns="http://www.w3.org/2000/svg">
<path d="M241.701 102.7C241.701 101.4 240.901 100.5 239.201 100.1V99.3002C240.101 99.3002 243.301 99.4002 244.101 99.4002C244.801 99.4002 247.901 99.3002 248.801 99.3002V100.1C247.201 100.4 246.401 101.3 246.401 102.7V118.7C246.401 123.8 249.201 126.6 255.101 126.6C260.101 126.6 264.101 124.4 264.101 119V102.5C264.101 101.3 263.401 100.4 261.501 100V99.2002C262.201 99.2002 264.801 99.3002 265.601 99.3002C266.301 99.3002 269.101 99.2002 269.801 99.2002V100C268.001 100.4 267.201 101.2 267.201 102.5V118.1C267.201 125.1 263.101 129.1 254.301 129.1C246.101 129.1 241.801 125.4 241.801 118.8L241.701 102.7Z" fill="white"/>
<path d="M276.9 128C278.8 127.6 279.6 126.7 279.6 125.5V103.4C279.6 101.5 278.6 100.7 276.9 100.2V99.4004C277.9 99.5004 279.5 99.5004 280.3 99.5004C281.2 99.5004 282.1 99.5004 283 99.4004L302.3 122V102.7C302.3 101.5 301.6 100.6 299.7 100.2V99.4004C300.4 99.4004 302.9 99.5004 303.8 99.5004C304.5 99.5004 307.2 99.4004 307.9 99.4004V100.2C306.1 100.6 305.2 101.4 305.2 102.7V129.3H304C303.3 129.1 301.9 128.3 299.8 126L282.5 106V125.5C282.5 126.7 283.2 127.6 285.1 128V128.8C284.4 128.8 281.9 128.7 281 128.7C280.3 128.7 277.6 128.8 276.9 128.8V128Z" fill="white"/>
<path d="M429.301 122H430.101C430.501 123.6 431.501 125.1 432.801 126C434.401 127 436.201 127.5 438.101 127.4C442.001 127.4 444.501 125.5 444.501 122.5C444.501 119.4 441.301 117.7 437.601 115.8C434.801 114.4 429.301 112.1 429.301 106.8C429.301 101.8 433.101 98.7998 439.201 98.7998C443.201 98.7998 445.101 99.7998 447.801 99.5998L447.701 105.6H446.901C445.801 102.1 442.601 100.8 439.101 100.8C435.101 100.8 433.701 103 433.701 105.3C433.701 108.6 436.901 110.2 440.601 111.8C444.701 113.6 449.201 115.9 449.201 121C449.201 125.8 445.401 129.4 438.401 129.4C434.301 129.4 431.801 128.2 429.601 127.9L429.301 122Z" fill="white"/>
<path d="M516.9 115.4V125.4C516.9 126 517.2 126.7 517.7 127.1C518.2 127.6 518.8 127.9 519.4 127.9V128.7C518.4 128.7 515.3 128.6 514.4 128.6C513.7 128.6 510.7 128.7 509.5 128.7V128C510.2 127.9 510.8 127.6 511.2 127.2C511.7 126.7 512 126.1 512 125.5V115.9L516.9 115.4ZM512.4 116.6L504.5 104.1C503.2 101.9 502.1 100.7 500.6 100.2V99.4004C501.7 99.4004 504.6 99.5004 505.4 99.5004C506.2 99.5004 509.3 99.4004 510.4 99.4004V100.2C509.4 100.4 508.9 100.9 508.9 101.6C509 102.4 509.3 103.2 509.8 103.9L515.6 113.5L521.2 103.9C521.7 103.1 522 102.3 522.2 101.4C522.2 100.8 521.8 100.4 520.8 100.2V99.4004C521.7 99.4004 523.7 99.5004 524.4 99.5004C525 99.5004 527.3 99.4004 528.3 99.4004V100.1C526.1 101 524.8 102.9 523.5 105L516.3 116.9" fill="white"/>
<path d="M366.201 99.3996H384.601C385.301 99.3996 386.001 99.2996 386.701 99.0996H387.501L387.401 105H386.601C385.901 103.1 385.201 101.6 381.601 101.6H373.601V112H379.801C380.601 112 381.401 111.9 382.301 111.8C382.901 111.7 383.401 111.4 383.801 111C384.201 110.6 384.501 110.1 384.601 109.5H385.401C385.301 110.4 385.301 112.5 385.301 113.1C385.301 113.7 385.401 115.9 385.401 116.8H384.601C384.201 115.6 383.701 114.7 382.401 114.4C381.601 114.2 380.801 114.2 379.901 114.2H373.701V126.4H382.401C386.201 126.4 387.301 124.8 388.301 122.6L389.101 122.8L388.301 128.9C385.701 128.7 383.101 128.6 380.601 128.7H371.401C370.501 128.7 367.301 128.8 366.301 128.8V128C368.001 127.7 368.901 126.9 368.901 125.3V102.8C368.901 101.4 368.201 100.5 366.301 100.2L366.201 99.3996Z" fill="white"/>
<path d="M319.1 102.9C319.1 101.4 318.2 100.6 316.4 100.2V99.4004C317.4 99.4004 320.6 99.5004 321.5 99.5004C322.3 99.5004 325.6 99.4004 326.6 99.4004V100.2C324.8 100.6 323.9 101.3 323.9 102.9V125.3C323.9 126.8 324.8 127.6 326.6 128V128.8C325.6 128.8 322.4 128.7 321.5 128.7C320.7 128.7 317.4 128.8 316.4 128.8V128C318.2 127.7 319.1 126.9 319.1 125.3V102.9Z" fill="white"/>
<path d="M459.001 102.9C459.001 101.4 458.101 100.6 456.301 100.2V99.4004C457.301 99.4004 460.501 99.5004 461.401 99.5004C462.101 99.5004 465.501 99.4004 466.501 99.4004V100.2C464.701 100.6 463.801 101.3 463.801 102.9V125.3C463.801 126.8 464.701 127.6 466.501 128V128.8C465.501 128.8 462.401 128.7 461.401 128.7C460.701 128.7 457.301 128.8 456.301 128.8V128C458.101 127.7 459.001 126.9 459.001 125.3V102.9Z" fill="white"/>
<path d="M484.601 99.4996C474.501 99.4996 472.901 99.2996 470.801 99.1996V105.3H471.601C472.301 102.6 473.801 102 475.801 102H482.101V125.4C482.101 127 481.201 127.8 479.401 128.1V128.9C480.401 128.9 483.801 128.8 484.501 128.8C485.401 128.8 488.601 128.9 489.601 128.9V128C487.801 127.6 486.901 126.8 486.901 125.3V101.9H493.201C495.201 101.9 496.701 102.6 497.401 105.2H498.201V99.0996C496.301 99.2996 494.701 99.4996 484.601 99.4996Z" fill="white"/>
<path d="M404.001 113.3C405.201 113.4 406.501 113.5 407.701 113.5C413.201 113.5 415.001 110.3 415.001 107.5C415.001 103.5 412.301 101.1 407.501 101.1C406.301 101.1 405.201 101.2 404.001 101.4V113.3ZM404.001 125.3C404.001 126.8 405.001 127.6 406.701 128V128.8C405.701 128.8 402.501 128.7 401.601 128.7C400.801 128.7 397.701 128.8 396.701 128.8V128C398.401 127.7 399.301 126.9 399.301 125.3V102.7C399.301 101.3 398.601 100.5 396.701 100.1V99.3002C397.701 99.3002 400.801 99.4002 401.701 99.4002C403.101 99.4002 407.301 99.2002 408.901 99.2002C416.001 99.2002 419.901 102.1 419.901 107.1C419.901 111 417.001 113.7 412.401 114.8C413.201 115.3 413.901 115.9 414.501 116.6C415.701 118.1 419.101 122.9 420.501 124.6C421.901 126.3 423.701 128.2 425.601 128.3V129C424.401 129.2 423.301 129.4 422.101 129.4C419.701 129.4 417.801 128.6 415.901 126.3C414.301 124.3 411.501 120.3 409.901 118.2C409.401 117.5 408.701 116.8 407.901 116.4C407.101 115.9 406.201 115.6 405.301 115.5C404.901 115.4 404.401 115.4 403.901 115.3L404.001 125.3Z" fill="white"/>
<path d="M333.7 103C333.4 102.3 333 101.7 332.4 101.2C331.8 100.7 331.1 100.4 330.4 100.2V99.4004C331.5 99.4004 335.1 99.5004 335.9 99.5004C336.7 99.5004 339.8 99.4004 340.9 99.4004V100.2C339.9 100.4 338.8 100.9 338.8 101.9C338.8 102.6 339.2 103.5 340 105.3L347.6 122.6L354.8 105.3C355.3 104.3 355.6 103.1 355.8 102C355.8 101.1 355 100.5 353.8 100.2V99.4004C354.8 99.4004 357.1 99.5004 357.8 99.5004C358.5 99.5004 361.2 99.4004 362.3 99.4004V100.2C360.5 100.7 359.4 101.7 358.4 104L347.8 128.9H345.4L333.7 103Z" fill="white"/>
<path d="M361.001 24.4008C359.801 21.7008 357.901 19.7008 354.701 19.0008V17.4008C356.701 17.4008 363.301 17.6008 364.801 17.6008C366.201 17.6008 372.601 17.4008 374.601 17.4008V18.9008C372.801 19.3008 370.701 20.3008 370.701 22.1008C370.701 23.4008 371.501 25.2008 373.001 28.6008L387.501 61.3008L401.201 28.5008C402.301 25.8008 403.101 23.8008 403.101 22.2008C403.101 20.5008 401.501 19.3008 399.201 18.8008V17.3008C401.001 17.3008 405.401 17.5008 406.801 17.5008C408.101 17.5008 413.301 17.3008 415.301 17.3008V18.8008C411.901 19.7008 409.801 21.7008 407.901 26.1008L387.701 73.4008H383.201L361.001 24.4008Z" fill="white"/>
<path d="M166 71.7004C168.6 71.1004 170.5 69.9004 170.5 66.9004V23.6004C170.5 20.7004 168.8 19.6004 166 18.9004V17.4004C167.4 17.4004 173.3 17.6004 174.8 17.6004C176.5 17.6004 182.7 17.4004 184.1 17.4004V18.9004C181.5 19.5004 179.5 20.7004 179.5 23.6004V41.7004H211.9V23.6004C211.9 20.6004 210.2 19.5004 207.4 18.9004V17.4004C208.8 17.4004 214.9 17.6004 216.6 17.6004C218 17.6004 224.1 17.4004 225.5 17.4004V18.9004C222.9 19.5004 220.9 20.7004 220.9 23.6004V67.0004C220.9 69.8004 222.7 71.0004 225.5 71.8004V73.2004C224.1 73.2004 218 73.1004 216.6 73.1004C214.9 73.1004 208.8 73.2004 207.4 73.2004V71.8004C210 71.2004 211.9 70.0004 211.9 67.0004V46.5004H179.4V67.0004C179.4 70.0004 181.2 71.0004 184 71.8004V73.2004C182.6 73.2004 176.4 73.1004 174.7 73.1004C173.3 73.1004 167.3 73.2004 165.9 73.2004V71.7004H166Z" fill="white"/>
<path d="M555.7 68.8004C558.6 69.2004 561.5 69.4004 564.5 69.4004C581.3 69.4004 590 59.4004 590 45.4004C590 30.9004 580.8 20.7004 565.1 20.7004C562 20.7004 558.8 20.9004 555.7 21.3004V68.8004ZM541.5 71.7004C544.9 71.1004 546.7 69.8004 546.7 66.7004V23.6004C546.7 20.6004 544.9 19.5004 541.6 18.9004V17.3004C543.5 17.3004 549.6 17.5004 551.3 17.5004C554 17.5004 561.6 16.9004 567.6 16.9004C587.6 16.9004 599.7 28.0004 599.7 44.8004C599.7 61.2004 587.1 73.3004 566.5 73.3004C560.6 73.3004 553.5 72.8004 550.8 72.8004C549.1 72.8004 543.4 73.0004 541.6 73.0004L541.5 71.7004Z" fill="white"/>
<path d="M315.4 43.7996C317.7 44.0996 320.1 44.1996 322.4 44.0996C332.9 44.0996 336.2 38.0996 336.2 32.7996C336.2 25.2996 331.1 20.5996 321.9 20.5996C319.7 20.5996 317.5 20.7996 315.3 21.1996V43.7996H315.4ZM315.4 66.5996C315.4 69.4996 317.2 71.0996 320.6 71.6996V73.1996C318.7 73.1996 312.6 72.9996 310.9 72.9996C309.4 72.9996 303.4 73.1996 301.5 73.1996V71.6996C304.6 71.0996 306.5 69.5996 306.5 66.5996V23.7996C306.5 21.1996 305.1 19.4996 301.5 18.8996V17.3996C303.4 17.3996 309.3 17.5996 311 17.5996C313.7 17.5996 321.5 17.0996 324.6 17.0996C338 17.0996 345.5 22.5996 345.5 32.0996C345.5 39.4996 339.9 44.5996 331.4 46.5996C332.9 47.4996 334.2 48.6996 335.3 49.9996C337.7 52.7996 344.2 62.0996 346.9 65.2996C349.5 68.4996 352.9 72.0996 356.6 72.1996V73.4996C354.4 73.8996 352.2 74.1996 350 74.1996C345.4 74.1996 341.8 72.5996 338.2 68.2996C335.1 64.5996 329.8 56.6996 326.8 52.8996C325.8 51.4996 324.5 50.2996 323 49.4996C321.5 48.5996 319.9 48.0996 318.2 47.7996C317.3 47.6996 316.5 47.4996 315.6 47.3996L315.4 66.5996Z" fill="white"/>
<path d="M492.4 43.7996C494.7 44.0996 497.1 44.1996 499.4 44.0996C509.9 44.0996 513.2 38.0996 513.2 32.7996C513.2 25.2996 508.1 20.5996 499 20.5996C496.8 20.5996 494.6 20.7996 492.4 21.1996V43.7996V43.7996ZM492.4 66.5996C492.4 69.4996 494.2 71.0996 497.6 71.6996V73.1996C495.7 73.1996 489.6 72.9996 487.9 72.9996C486.4 72.9996 480.4 73.1996 478.5 73.1996V71.6996C481.6 71.0996 483.5 69.5996 483.5 66.5996V23.7996C483.5 21.1996 482.1 19.4996 478.6 18.8996V17.3996C480.5 17.3996 486.4 17.5996 488.1 17.5996C490.9 17.5996 498.6 17.0996 501.7 17.0996C515.1 17.0996 522.6 22.5996 522.6 32.0996C522.6 39.4996 517 44.5996 508.5 46.5996C510 47.4996 511.3 48.6996 512.4 49.9996C514.8 52.7996 521.4 62.0996 524 65.2996C526.6 68.4996 530 72.0996 533.6 72.1996V73.4996C531.4 73.8996 529.2 74.1996 527 74.1996C522.4 74.1996 518.8 72.5996 515.2 68.2996C512.2 64.5996 506.8 56.6996 503.8 52.8996C502.8 51.4996 501.5 50.2996 500 49.4996C498.5 48.5996 496.9 48.0996 495.2 47.7996C494.3 47.6996 493.5 47.4996 492.6 47.3996L492.4 66.5996Z" fill="white"/>
<path d="M269.8 50.7996L260.8 30.0996L252.5 50.7996H269.8ZM234 71.6996C237.6 70.8996 239.5 68.5996 240.8 65.4996L258.8 22.4996C259.5 20.6996 260 18.8996 260.5 17.0996H265.5C265.9 18.8996 266.5 20.7996 267.1 22.4996L286.1 65.5996C287.5 68.5996 288.9 70.6996 292.7 71.6996V73.0996C290.6 73.0996 284.2 72.9996 282.8 72.9996C281.3 72.9996 275.3 73.0996 273.2 73.0996V71.6996C276 70.9996 276.8 69.5996 276.8 68.2996C276.7 66.9996 276.3 65.6996 275.7 64.4996L271.6 55.1996H250.7L247 64.4996C246.5 65.5996 246.2 66.7996 246.1 68.0996C246.1 69.6996 246.9 70.8996 250.1 71.6996V73.0996C248.2 73.0996 243.3 72.9996 242.2 72.9996L234.1 73.0996L234 71.6996Z" fill="white"/>
<path d="M447.901 50.7996L438.901 30.0996L430.601 50.7996H447.901ZM412.201 71.6996C415.701 70.8996 417.701 68.5996 419.001 65.4996L437.001 22.4996C437.701 20.6996 438.201 18.8996 438.701 17.0996H443.701C444.101 18.8996 444.701 20.7996 445.301 22.4996L464.301 65.5996C465.601 68.5996 467.101 70.6996 470.901 71.6996V73.0996C468.801 73.0996 462.401 72.9996 461.001 72.9996C459.501 72.9996 453.501 73.0996 451.401 73.0996V71.6996C454.201 70.9996 455.001 69.5996 455.001 68.2996C454.901 66.9996 454.501 65.6996 454.001 64.4996L449.901 55.1996H429.001L425.301 64.4996C424.801 65.5996 424.501 66.7996 424.401 68.0996C424.401 69.6996 425.201 70.8996 428.401 71.6996V73.0996C426.501 73.0996 421.601 72.9996 420.501 72.9996L412.401 73.0996L412.201 71.6996Z" fill="white"/>
<path d="M0 0H125.4V47C125.4 68.6 117.3 114.3 63.2 148.4C63.2 148.4 4.5 124 0.1 47V0H0Z" fill="white"/>
<path d="M94.8998 60.5C94.8998 60.5 93.7998 64 88.7998 60.4L71.6998 60C71.6998 60 69.4998 60.7 69.1998 58.4C69.1998 58.4 69.5998 53.8 69.3998 53.4C69.3998 53.4 69.4998 52.1 67.2998 52.1C67.2998 52.1 63.8998 52.5 63.6998 49.5C63.6998 49.5 63.0998 46.3 67.8998 46.4C67.8998 46.4 69.3998 47.1 69.4998 45.2C69.4998 45.2 69.2998 32.1 69.3998 31.1C69.3998 31.1 69.7998 29.9 67.4998 29.7C67.4998 29.7 64.0998 30.4 63.7998 28.2C63.7998 28.2 63.5998 24.9 65.7998 24.7C65.7998 24.7 68.4998 24.9 68.9998 24.2C68.9998 24.2 69.5998 24.6 69.4998 22.2L69.5998 18.1C69.5998 18.1 69.8998 17 71.5998 17.1C71.5998 17.1 74.7998 17.3 75.1998 17C75.4998 16.6 75.7998 16.1 76.0998 15.7C76.0998 15.7 77.6998 15.6 77.9998 16C77.9998 16 80.3998 17.6 89.6998 17C89.6998 17 91.0998 17 91.3998 17.4C91.3998 17.4 93.0998 18.7 94.0998 17.3C96.0998 17 98.0998 16.9 100.1 17C100.1 17 105.1 18.3 108.5 15.5L109.6 15.7C109.6 15.7 111 18 112 17.3C112 17.3 115 17 115.6 17.6C115.6 17.6 116.6 19.1 116.1 23.1C116.1 23.1 115.5 24.8 118.4 24.8C118.4 24.8 121.8 24.2 121.3 27.3C121.3 27.3 122.2 30.8 116.6 30.3C116.2 30.8 116 31.4 116 32C116 32 115.9 43.5 115.8 44.8C115.8 44.8 115.7 46.6 118.1 46.5C118.1 46.5 121.4 46.3 121.5 49.2C121.5 49.2 121.9 53 117.2 52.3C117.2 52.3 115.8 52.5 115.6 53.4L115.4 58.4C115.4 58.4 115.5 60.9 112.7 60.3C112.3 60.3 96.8998 60.6 95.4998 60.2C95.7998 60.2 94.9998 60.1 94.8998 60.5Z" fill="white"/>
<path d="M62.1005 77.3003C62.5005 77.1003 62.8005 76.9003 63.0005 76.5003C63.0005 76.5003 65.1005 76.3003 65.4005 76.0003L72.1005 76.5003C72.1005 76.5003 78.7005 77.0003 81.5005 75.0003C82.1005 75.0003 82.7005 75.1003 83.2005 75.3003C83.2005 75.3003 84.6005 75.6003 85.0005 76.2003L88.9005 76.1003C88.9005 76.1003 91.1005 76.8003 90.9005 78.2003V80.0003C90.9005 80.0003 90.5005 83.6003 91.5005 83.8003H94.5005C94.5005 83.8003 96.9005 84.9003 96.6005 86.3003C96.6005 86.9003 96.4005 87.4003 96.0005 87.9003C95.6005 88.3003 95.1005 88.6003 94.5005 88.7003C93.6005 89.0003 92.6005 89.1003 91.7005 89.2003C91.3005 89.8003 91.0005 90.5003 90.9005 91.2003L90.6005 104.4C90.6005 104.4 90.4005 105.8 92.5005 105.6C92.5005 105.6 95.6005 105.3 96.6005 107C96.6005 107 97.4005 109.9 95.8005 110.4L94.6005 111L91.9005 111.4C91.9005 111.4 90.8005 111.5 90.7005 113.4V116.9C90.7005 116.9 90.8005 119.3 88.9005 119.3L86.1005 119.5C85.8005 119.7 85.4005 119.8 85.1005 119.9C84.7005 119.9 84.4005 119.9 84.0005 119.7C84.0005 119.7 66.7005 120 66.1005 119.8L64.1005 120.2C64.1005 120.2 61.9005 122.2 60.0005 120.7L58.6005 119.6C58.1005 119.7 57.7005 119.7 57.2005 119.7C56.8005 119.6 38.1005 119.9 38.1005 119.9C38.1005 119.9 34.1005 120.3 33.8005 119C33.8005 119 33.3005 113.9 33.5005 113.2C33.5005 113.2 33.5005 111.7 32.6005 111.6C32.6005 111.6 28.6005 111.4 28.5005 111C28.5005 111 26.4005 109.5 27.0005 108C27.2005 107.4 27.6005 106.9 28.1005 106.5C28.6005 106.1 29.2005 105.9 29.8005 105.8C29.8005 105.8 33.0005 106.3 33.0005 105.4C33.2005 104.9 33.2005 104.3 33.2005 103.8C33.2005 103.8 33.4005 91.8003 33.3005 91.0003C33.3005 91.0003 33.6005 89.5003 32.3005 89.5003C31.5005 89.7003 30.7005 89.6003 30.0005 89.3003C30.0005 89.3003 27.6005 89.4003 27.0005 87.5003C26.8005 86.8003 26.8005 86.0003 27.2005 85.3003C27.2005 85.3003 28.3005 83.1003 31.6005 83.8003C31.6005 83.8003 33.4005 84.3003 33.6005 83.0003L33.5005 78.1003C33.5005 78.1003 33.1005 76.8003 35.6005 76.1003C35.6005 76.1003 38.9005 77.0003 39.9005 75.4003C39.9005 75.4003 41.0005 73.2003 41.9005 74.7003C41.9005 74.7003 43.8005 76.5003 49.1005 76.3003C49.1005 76.3003 58.2005 75.6003 58.4005 76.0003C58.4005 76.0003 60.6005 76.3003 61.2005 77.0003L62.1005 77.3003Z" fill="white"/>
<path d="M34.401 60.5C34.401 60.5 33.301 64 28.301 60.4L11.301 60C11.301 60 9.10095 60.7 8.80095 58.4C8.80095 58.4 9.20095 53.8 9.00095 53.4C9.00095 53.4 9.10095 52.1 6.90095 52.1C6.90095 52.1 3.50095 52.5 3.40095 49.5C3.40095 49.5 2.80095 46.3 7.60095 46.4C7.60095 46.4 9.10095 47.1 9.20095 45.2C9.20095 45.2 9.00095 32.1 9.10095 31.1C9.10095 31.1 9.50095 29.9 7.20095 29.7C7.20095 29.7 3.80095 30.4 3.50095 28.2C3.50095 28.2 3.30095 24.9 5.50095 24.7C5.50095 24.7 8.20095 24.9 8.70095 24.2C8.70095 24.2 9.30095 24.6 9.20095 22.2L9.30095 18C9.30095 18 9.60095 16.9 11.301 17C11.301 17 14.501 17.2 14.901 16.9C15.201 16.5 15.501 16 15.801 15.6C15.801 15.6 17.401 15.5 17.701 15.9C17.701 15.9 20.101 17.5 29.401 16.9C29.401 16.9 30.801 16.9 31.101 17.3C31.101 17.3 32.801 18.6 33.801 17.2C35.801 16.9 37.901 16.9 39.901 17C39.901 17 44.901 18.3 48.301 15.5L49.401 15.7C49.401 15.7 50.801 18 51.801 17.3C51.801 17.3 54.801 17 55.401 17.6C55.401 17.6 56.401 19.1 55.901 23.1C55.901 23.1 55.301 24.8 58.201 24.8C58.201 24.8 61.601 24.2 61.201 27.3C61.201 27.3 62.1009 30.8 56.5009 30.3C56.1009 30.8 55.901 31.4 55.901 32C55.901 32 55.801 43.5 55.701 44.8C55.701 44.8 55.6009 46.6 58.0009 46.5C58.0009 46.5 61.201 46.3 61.301 49.2C61.301 49.2 61.7009 53 57.0009 52.3C57.0009 52.3 55.601 52.5 55.401 53.4L55.201 58.4C55.201 58.4 55.3009 60.9 52.5009 60.3C52.1009 60.3 36.701 60.6 35.301 60.2C35.401 60.2 34.601 60.1 34.401 60.5Z" fill="white"/>
<path d="M94.8998 60.5C94.8998 60.5 93.7998 64 88.7998 60.4L71.6998 60C71.6998 60 69.4998 60.7 69.1998 58.4C69.1998 58.4 69.5998 53.8 69.3998 53.4C69.3998 53.4 69.4998 52.1 67.2998 52.1C67.2998 52.1 63.8998 52.5 63.6998 49.5C63.6998 49.5 63.0998 46.3 67.8998 46.4C67.8998 46.4 69.3998 47.1 69.4998 45.2C69.4998 45.2 69.2998 32.1 69.3998 31.1C69.3998 31.1 69.7998 29.9 67.4998 29.7C67.4998 29.7 64.0998 30.4 63.7998 28.2C63.7998 28.2 63.5998 24.9 65.7998 24.7C65.7998 24.7 68.4998 24.9 68.9998 24.2C68.9998 24.2 69.5998 24.6 69.4998 22.2L69.5998 18.1C69.5998 18.1 69.8998 17 71.5998 17.1C71.5998 17.1 74.7998 17.3 75.1998 17C75.4998 16.6 75.7998 16.1 76.0998 15.7C76.0998 15.7 77.6998 15.6 77.9998 16C77.9998 16 80.3998 17.6 89.6998 17C89.6998 17 91.0998 17 91.3998 17.4C91.3998 17.4 93.0998 18.7 94.0998 17.3C96.0998 17 98.0998 16.9 100.1 17C100.1 17 105.1 18.3 108.5 15.5L109.6 15.7C109.6 15.7 111 18 112 17.3C112 17.3 115 17 115.6 17.6C115.6 17.6 116.6 19.1 116.1 23.1C116.1 23.1 115.5 24.8 118.4 24.8C118.4 24.8 121.8 24.2 121.3 27.3C121.3 27.3 122.2 30.8 116.6 30.3C116.2 30.8 116 31.4 116 32C116 32 115.9 43.5 115.8 44.8C115.8 44.8 115.7 46.6 118.1 46.5C118.1 46.5 121.4 46.3 121.5 49.2C121.5 49.2 121.9 53 117.2 52.3C117.2 52.3 115.8 52.5 115.6 53.4L115.4 58.4C115.4 58.4 115.5 60.9 112.7 60.3C112.3 60.3 96.8998 60.6 95.4998 60.2C95.7998 60.2 94.9998 60.1 94.8998 60.5Z" fill="black"/>
<path d="M94.8998 60.5C94.8998 60.5 93.7998 64 88.7998 60.4L71.6998 60C71.6998 60 69.4998 60.7 69.1998 58.4C69.1998 58.4 69.5998 53.8 69.3998 53.4C69.3998 53.4 69.4998 52.1 67.2998 52.1C67.2998 52.1 63.8998 52.5 63.6998 49.5C63.6998 49.5 63.0998 46.3 67.8998 46.4C67.8998 46.4 69.3998 47.1 69.4998 45.2C69.4998 45.2 69.2998 32.1 69.3998 31.1C69.3998 31.1 69.7998 29.9 67.4998 29.7C67.4998 29.7 64.0998 30.4 63.7998 28.2C63.7998 28.2 63.5998 24.9 65.7998 24.7C65.7998 24.7 68.4998 24.9 68.9998 24.2C68.9998 24.2 69.5998 24.6 69.4998 22.2L69.5998 18.1C69.5998 18.1 69.8998 17 71.5998 17.1C71.5998 17.1 74.6998 17.3 75.1998 17C75.4998 16.6 75.7998 16.1 76.0998 15.7C76.0998 15.7 77.6998 15.6 77.9998 16C77.9998 16 80.3998 17.6 89.6998 17C89.6998 17 91.0998 17 91.3998 17.4C91.3998 17.4 93.0998 18.7 94.0998 17.3C96.0998 17 98.0998 16.9 100.1 17C100.1 17 105.1 18.3 108.5 15.5L109.6 15.7C109.6 15.7 111 18 112 17.3C112 17.3 115 17 115.6 17.6C115.6 17.6 116.6 19.1 116.1 23.1C116.1 23.1 115.5 24.8 118.4 24.8C118.4 24.8 121.8 24.2 121.3 27.3C121.3 27.3 122.2 30.8 116.6 30.3C116.2 30.8 116 31.4 116 32C116 32 115.9 43.5 115.8 44.8C115.8 44.8 115.7 46.6 118.1 46.5C118.1 46.5 121.4 46.3 121.5 49.2C121.5 49.2 121.9 53 117.2 52.3C117.2 52.3 115.8 52.5 115.6 53.4L115.4 58.4C115.4 58.4 115.5 60.9 112.7 60.3C112.3 60.3 96.8998 60.6 95.4998 60.2C95.7998 60.2 95.0998 60.1 94.8998 60.5Z" stroke="black" stroke-width="0.0281882"/>
<path d="M75.7004 18.9004C75.7004 18.9004 75.9004 20.9004 75.9004 21.4004C75.9004 21.9004 75.6004 50.6004 75.6004 50.6004C75.7004 51.3004 75.6004 51.9004 75.3004 52.5004C75.0004 53.1004 74.6004 53.6004 74.0004 53.9004C74.0004 53.9004 73.5004 54.1004 73.4004 52.7004L73.6004 22.4004C73.5004 22.4004 73.7004 18.7004 75.7004 18.9004Z" fill="white"/>
<path d="M75.7004 18.9004C75.7004 18.9004 75.9004 20.9004 75.9004 21.4004C75.9004 21.9004 75.6004 50.6004 75.6004 50.6004C75.7004 51.3004 75.6004 51.9004 75.3004 52.5004C75.0004 53.1004 74.6004 53.6004 74.0004 53.9004C74.0004 53.9004 73.5004 54.1004 73.4004 52.7004L73.6004 22.4004C73.5004 22.4004 73.7004 18.7004 75.7004 18.9004Z" stroke="black" stroke-width="0.0281882"/>
<path d="M72.3002 54.2004C72.3002 54.2004 72.5002 25.7004 72.4002 25.3004C72.3002 24.8004 72.5002 25.7004 72.5002 25.7004C72.5002 25.7004 72.2002 20.7004 73.5002 18.7004C73.5002 18.7004 73.1002 17.0004 70.8002 19.1004L70.7002 23.2004C70.7002 23.2004 70.7002 25.5004 68.6002 25.4004C68.6002 25.4004 66.2002 25.3004 65.0002 26.4004C65.0002 26.4004 64.4002 28.6004 66.7002 28.2004C66.7002 28.2004 70.4002 28.2004 70.6002 29.7004L70.4002 45.0004C70.4002 45.0004 71.2002 47.5004 68.4002 47.5004C68.4002 47.5004 64.9002 47.3004 65.0002 49.4004C65.0002 49.4004 65.7002 51.2004 68.7002 50.6004C68.7002 50.6004 70.8002 51.0004 70.7002 53.0004V56.8004C70.7002 56.8004 70.5002 58.3004 72.5002 58.4004H88.3002C88.3002 58.4004 89.1002 58.5004 89.1002 57.5004C89.1002 57.5004 89.0002 56.7004 87.8002 56.7004L74.6002 56.5004C74.7002 56.6004 72.5002 57.3004 72.3002 54.2004Z" fill="white"/>
<path d="M75.4 54.2011C75.4 54.2011 75 55.601 76.5 55.301H86.9L89.7 55.901C89.7 55.901 92.6 55.2011 89.7 53.6011C89.7 53.6011 80.4 53.7011 79.5 53.5011L77.2 52.901C77.3 52.801 76.3 52.4011 75.4 54.2011Z" fill="white"/>
<path d="M75.4 54.1997C75.4 54.1997 75 55.5997 76.5 55.2997H86.9L89.7 55.8997C89.7 55.8997 92.7 55.1997 89.7 53.5997C89.7 53.5997 80.4 53.6997 79.5 53.4997C79.5 53.4997 77.6 52.9997 77.2 52.8997C77.3 52.8997 76.3 52.3997 75.4 54.1997Z" stroke="black" stroke-width="0.0281882"/>
<path d="M92.7999 55.6C92.7999 55.6 90.8999 55.6 90.9999 58.1C91.0999 58.6 91.2999 59.1 91.6999 59.5C92.0999 59.9 92.5999 60 93.1999 60C93.6999 59.9 94.1999 59.6 94.4999 59.2C94.7999 58.8 94.8999 58.2 94.7999 57.7C94.7999 57.7 93.6999 55.2 92.7999 55.6Z" fill="white"/>
<path d="M94.1997 54.6013C94.1997 54.6013 95.0997 53.6013 95.6997 53.6013C95.6997 53.6013 105.9 54.5013 107.6 53.3013C107.6 53.3013 109.1 53.0013 109.5 53.3013C109.5 53.3013 111 54.5013 111 55.2013C111 55.2013 110.9 56.1013 109.1 55.6013L96.9997 55.7013C96.8997 55.7013 93.7997 56.4013 94.1997 54.6013Z" fill="white"/>
<path d="M94.1997 54.6013C94.1997 54.6013 95.0997 53.6013 95.6997 53.6013C95.6997 53.6013 105.9 54.5013 107.6 53.3013C107.6 53.3013 109.1 53.0013 109.5 53.3013C109.5 53.3013 111 54.5013 111 55.2013C111 55.2013 110.9 56.1013 109.1 55.6013L96.9997 55.7013C96.8997 55.7013 93.7997 56.4013 94.1997 54.6013Z" stroke="black" stroke-width="0.0281882"/>
<path d="M95.5004 57.8002C95.5004 57.8002 95.5004 57.0003 96.9004 57.0003L111.1 56.9002C111.1 56.9002 112.4 57.6003 112.4 55.2003C112.4 55.2003 112.9 44.2003 113 32.1003C113 28.5003 113.2 24.7003 113.1 21.2003C113.1 21.2003 112.8 19.7003 112.4 19.4003C112.4 19.4003 112.4 17.8003 114.1 18.4003C114.1 18.4003 115.6 18.5002 115.2 20.8002L115.3 24.3002C115.3 24.3002 115 25.8003 117.7 25.4003C117.7 25.4003 120.4 25.8002 120.5 26.8002C120.5 26.8002 121.3 28.8003 118.1 28.6003H115.7C115.4 28.8003 115.2 29.1003 115 29.4003C114.9 29.7003 114.8 30.1003 114.9 30.4003L114.6 45.1003C114.6 45.1003 114.4 47.6003 116.8 47.5003C116.8 47.5003 119.3 47.4003 119.8 48.2003C119.8 48.2003 121.5 50.7003 117.8 50.5003C117.8 50.5003 115.5 50.4002 115 50.8002C115 50.8002 114.6 51.3003 114.3 56.1003C114.3 56.1003 114.5 58.9003 112.4 58.6003C112.4 58.6003 98.3004 58.8003 97.0004 58.5003C97.0004 58.5003 95.6004 58.9002 95.4004 57.8002" fill="white"/>
<path d="M77.2009 17.9L76.9009 50.3C76.9009 50.3 76.8009 51.8 79.3009 52.1C79.3009 52.1 82.2009 52.4 82.9009 52.1C82.9009 52.1 84.8009 52 89.8009 52.2C89.8009 52.2 91.0009 53.4 91.1009 51.9C91.1009 51.9 91.9009 25.7 91.5009 20.2C91.5009 20.2 91.4009 17.9 89.7009 17.8C89.7009 17.8 82.0009 18.4 81.3009 17.8L78.2009 17C78.3009 17 77.1009 17.1 77.2009 17.9Z" fill="white"/>
<path d="M93.2004 19.6009C93.2004 19.6009 92.9004 34.9009 93.0004 35.4009L92.8004 48.2009L92.4004 52.7009C92.4004 52.7009 93.0004 53.6009 93.5004 53.0009C93.5004 53.0009 96.7004 52.2009 98.8004 52.5009C98.8004 52.5009 105.3 53.1009 106.6 52.1009C106.6 52.1009 107.6 52.6009 107.9 51.0009C107.9 51.0009 108.3 22.7009 108.1 22.2009C108.1 22.2009 108.5 18.1009 108.3 17.7009C108.3 17.7009 108.2 16.8009 106.5 17.6009C106.5 17.6009 106.7 18.4009 97.1004 18.1009C97.1004 18.0009 93.5004 17.9009 93.2004 19.6009Z" fill="white"/>
<path d="M109.401 19.2005L109.301 51.1005C109.301 51.1005 110.101 53.9005 111.401 53.7005C111.501 53.2005 111.601 52.6005 111.701 52.1005L112.101 21.7005C112.101 21.6005 111.101 16.8005 109.401 19.2005Z" fill="white"/>
<path d="M109.401 19.2L109.301 51.0999C109.301 51.0999 110.101 53.9 111.401 53.7C111.601 53.2 111.701 52.5999 111.701 52.0999L112.101 21.7C112.101 21.6 111.101 16.7 109.401 19.2Z" stroke="black" stroke-width="0.0281882"/>
<path d="M96.9007 28.7008C96.6007 27.9008 98.6007 27.8008 98.6007 27.8008L99.6007 28.0008C100.101 28.0008 100.601 28.0008 101.001 28.2008C101.101 28.3008 101.201 28.5008 101.201 28.7008C101.201 28.9008 101.201 29.0008 101.201 29.2008C101.201 29.4008 101.101 29.5008 101.001 29.6008C100.901 29.7008 100.701 29.8008 100.601 29.9008L100.201 31.2008C100.101 32.3008 100.201 41.9008 100.201 41.9008C100.501 42.4008 100.801 42.9008 101.201 43.3008C101.201 44.2008 100.101 44.0008 100.101 44.0008L97.2007 44.1008C96.3007 44.0008 96.6007 43.0008 96.6007 43.0008C97.6007 42.5008 97.9007 40.7008 97.9007 40.7008V30.7008L96.9007 28.7008Z" fill="black"/>
<path d="M83.2995 30.0994C83.3995 32.2994 83.3995 35.3994 83.3995 35.3994C83.5995 35.5994 83.8995 35.7994 84.1995 35.7994C84.4995 35.8994 84.7995 35.8994 85.0995 35.7994C85.3995 35.6994 85.6995 35.5994 85.8995 35.3994C86.0995 35.1994 86.2995 34.9994 86.3995 34.6994C88.8995 32.2994 86.3995 30.0994 85.9995 29.4994C85.5995 28.8994 83.5995 29.3994 83.5995 29.3994L83.2995 30.0994ZM83.1995 38.0994L82.9995 41.1994L83.8995 42.6994C84.4995 43.4994 83.4995 44.0994 83.4995 44.0994L80.2995 43.7994C79.6995 43.4994 80.2995 42.4994 80.2995 42.4994C80.5995 42.2994 80.7995 41.9994 80.8995 41.6994C81.0995 41.3994 81.1995 40.9994 81.1995 40.6994L81.0995 34.7994L81.1995 30.5994C81.1995 30.0994 80.3995 29.1994 80.3995 29.1994C79.6995 29.0994 79.8995 28.1994 79.8995 28.1994C80.0995 27.6994 81.7995 27.9994 81.7995 27.9994H86.0995C90.1995 29.2994 89.4995 32.1994 89.4995 32.1994C89.7995 35.0994 86.6995 36.2994 86.6995 36.2994L86.4995 37.8994L89.3995 42.4994C89.4995 42.5994 89.5995 42.6994 89.6995 42.8994C89.7995 42.9994 89.7995 43.1994 89.7995 43.3994C89.3995 44.4994 87.7995 43.3994 87.7995 43.3994L84.0995 37.6994C83.7995 37.3994 83.1995 38.0994 83.1995 38.0994Z" fill="black"/>
<path d="M62.1005 77.3003C62.5005 77.1003 62.8005 76.9003 63.0005 76.5003C63.0005 76.5003 65.1005 76.3003 65.4005 76.0003L72.1005 76.5003C72.1005 76.5003 78.7005 77.0003 81.5005 75.0003C82.1005 75.0003 82.7005 75.1003 83.2005 75.3003C83.2005 75.3003 84.6005 75.6003 85.0005 76.2003L88.9005 76.1003C88.9005 76.1003 91.1005 76.8003 90.9005 78.2003V80.0003C90.9005 80.0003 90.5005 83.6003 91.5005 83.8003H94.5005C94.5005 83.8003 96.9005 84.9003 96.6005 86.3003C96.6005 86.9003 96.4005 87.4003 96.0005 87.9003C95.6005 88.3003 95.1005 88.6003 94.5005 88.7003C93.6005 89.0003 92.6005 89.1003 91.7005 89.2003C91.3005 89.8003 91.0005 90.5003 90.9005 91.2003L90.6005 104.4C90.6005 104.4 90.4005 105.8 92.5005 105.6C92.5005 105.6 95.6005 105.3 96.6005 107C96.6005 107 97.4005 109.9 95.8005 110.4L94.6005 111L91.9005 111.4C91.9005 111.4 90.8005 111.5 90.7005 113.4V116.9C90.7005 116.9 90.8005 119.3 88.9005 119.3L86.1005 119.5C85.8005 119.7 85.4005 119.8 85.1005 119.9C84.7005 119.9 84.4005 119.9 84.0005 119.7C84.0005 119.7 66.7005 120 66.1005 119.8L64.1005 120.2C64.1005 120.2 61.9005 122.2 60.0005 120.7L58.6005 119.6C58.1005 119.7 57.7005 119.7 57.2005 119.7C56.8005 119.6 38.1005 119.9 38.1005 119.9C38.1005 119.9 34.1005 120.3 33.8005 119C33.8005 119 33.3005 113.9 33.5005 113.2C33.5005 113.2 33.5005 111.7 32.6005 111.6C32.6005 111.6 28.6005 111.4 28.5005 111C28.5005 111 26.4005 109.5 27.0005 108C27.2005 107.4 27.6005 106.9 28.1005 106.5C28.6005 106.1 29.2005 105.9 29.8005 105.8C29.8005 105.8 33.0005 106.3 33.0005 105.4C33.2005 104.9 33.2005 104.3 33.2005 103.8C33.2005 103.8 33.4005 91.8003 33.3005 91.0003C33.3005 91.0003 33.6005 89.5003 32.3005 89.5003C31.5005 89.7003 30.7005 89.6003 30.0005 89.3003C30.0005 89.3003 27.6005 89.4003 27.0005 87.5003C26.8005 86.8003 26.8005 86.0003 27.2005 85.3003C27.2005 85.3003 28.3005 83.1003 31.6005 83.8003C31.6005 83.8003 33.4005 84.3003 33.6005 83.0003L33.5005 78.1003C33.5005 78.1003 33.1005 76.8003 35.6005 76.1003C35.6005 76.1003 38.9005 77.0003 39.9005 75.4003C39.9005 75.4003 41.0005 73.2003 41.9005 74.7003C41.9005 74.7003 43.8005 76.5003 49.1005 76.3003C49.1005 76.3003 58.2005 75.6003 58.4005 76.0003C58.4005 76.0003 60.6005 76.3003 61.2005 77.0003L62.1005 77.3003Z" fill="black"/>
<path d="M62.1008 77.1997C62.5008 76.9997 62.8008 76.7997 63.0008 76.3997C63.0008 76.3997 65.1008 76.1997 65.4008 75.8997L72.1008 76.3997C72.1008 76.3997 78.7008 76.8997 81.5008 74.8997C82.1008 74.8997 82.7008 74.9997 83.2008 75.1997C83.2008 75.1997 84.6008 75.4997 85.0008 76.0997L88.9008 75.9997C88.9008 75.9997 91.1008 76.6997 90.9008 78.0997V79.8997C90.9008 79.8997 90.5008 83.4997 91.5008 83.6997H94.4008C94.4008 83.6997 96.8008 84.7997 96.5008 86.1997C96.5008 86.7997 96.3008 87.2997 95.9008 87.7997C95.5008 88.1997 95.0008 88.4997 94.4008 88.5997C93.5008 88.8997 92.5008 88.9997 91.6008 89.0997C91.2008 89.6997 90.9008 90.3997 90.8008 91.0997L90.5008 104.3C90.5008 104.3 90.3008 105.7 92.4008 105.5C92.4008 105.5 95.5008 105.2 96.5008 106.9C96.5008 106.9 97.3008 109.8 95.7008 110.3L94.5008 110.9L91.8008 111.3C91.8008 111.3 90.7008 111.4 90.6008 113.3V116.8C90.6008 116.8 90.7008 119.2 88.8008 119.2L86.0008 119.4C85.7008 119.6 85.3008 119.7 85.0008 119.8C84.6008 119.8 84.3008 119.8 83.9008 119.6C83.9008 119.6 66.6008 119.9 66.0008 119.7L64.0008 120.1C64.0008 120.1 61.8008 122.1 59.9008 120.6L58.5008 119.5C58.0008 119.6 57.6008 119.6 57.1008 119.6C56.7008 119.5 38.0008 119.8 38.0008 119.8C38.0008 119.8 34.0008 120.2 33.7008 118.9C33.7008 118.9 33.2008 113.7 33.4008 113.1C33.4008 113.1 33.4008 111.6 32.5008 111.5C32.5008 111.5 28.5008 111.3 28.4008 110.9C28.4008 110.9 26.3008 109.4 26.9008 107.9C27.1008 107.3 27.5008 106.8 28.0008 106.4C28.5008 106 29.1008 105.8 29.7008 105.7C29.7008 105.7 32.9008 106.2 32.9008 105.3C33.1008 104.8 33.1008 104.2 33.1008 103.7C33.1008 103.7 33.3008 91.6997 33.2008 90.8997C33.2008 90.8997 33.5008 89.3997 32.2008 89.3997C31.4008 89.5997 30.6008 89.4997 29.9008 89.1997C29.9008 89.1997 27.5008 89.2997 27.0008 87.3997C26.8008 86.6997 26.8008 85.8997 27.2008 85.1997C27.2008 85.1997 28.3008 82.9997 31.6008 83.6997C31.6008 83.6997 33.4008 84.1997 33.6008 82.8997L33.5008 77.9997C33.5008 77.9997 33.1008 76.6997 35.6008 75.9997C35.6008 75.9997 38.8008 76.8997 39.9008 75.2997C39.9008 75.2997 41.0008 73.0997 41.9008 74.5997C41.9008 74.5997 43.8008 76.3997 49.1008 76.1997C49.1008 76.1997 58.2008 75.4997 58.4008 75.8997C58.4008 75.8997 60.6008 76.1997 61.2008 76.8997L62.1008 77.1997Z" stroke="black" stroke-width="0.0281882"/>
<path d="M64.7011 117C65.3011 116.7 66.0011 116.5 66.7011 116.6C67.5011 116.8 79.4011 116.5 79.4011 116.5C79.4011 116.5 84.6011 116.9 85.4011 116.2L86.601 115.8C86.901 115.4 87.101 114.9 87.101 114.4C87.101 113.6 87.2011 110.9 87.2011 110.9L87.501 109.9C87.501 109.9 87.401 108.9 87.501 81.8996C87.501 81.8996 87.901 79.7996 86.601 78.4996C86.601 78.4996 86.601 77.6996 87.001 77.7996C87.401 77.8996 87.2011 77.8996 87.2011 77.8996C87.2011 77.8996 89.0011 77.3996 89.3011 78.0996C89.3011 78.0996 90.1011 80.4996 89.4011 81.8996C89.4011 81.8996 89.2011 84.8996 90.7011 84.8996C91.0011 85.0996 91.301 85.1996 91.601 85.2996C91.901 85.3996 92.201 85.2996 92.601 85.1996C92.601 85.1996 95.2011 85.4996 95.2011 86.2996C95.2011 86.4996 95.201 86.7996 95.101 86.9996C95.001 87.1996 94.9011 87.3996 94.7011 87.4996C94.5011 87.5996 94.301 87.6996 94.101 87.7996C93.901 87.8996 93.6011 87.8996 93.4011 87.7996L91.001 87.9996C90.501 88.0996 90.1011 88.3996 89.8011 88.7996C89.5011 89.1996 89.401 89.6996 89.501 90.1996C89.701 92.0996 89.4011 105.9 89.4011 105.9C89.4011 105.9 89.4011 107.5 91.9011 107.4C91.9011 107.4 95.001 107.3 95.001 108.2C95.001 108.2 95.801 110.2 93.601 110.3C93.601 110.3 89.301 110.2 89.601 111.4C89.501 112.5 89.301 113.6 89.101 114.7C89.101 114.7 89.501 117 89.001 117.4C89.001 117.4 88.701 118.7 86.001 118.5C86.001 118.5 68.5011 118.4 65.8011 118.6C65.9011 118.6 64.3011 118.4 64.7011 117Z" fill="white"/>
<path d="M61.5994 115.1C62.0994 115.2 62.4994 115.4 62.7994 115.8C63.0994 116.2 63.2994 116.6 63.2994 117.1C63.2994 118.7 63.3994 119.6 62.3994 119.8C62.0994 119.9 61.8994 119.9 61.5994 119.9C61.2994 119.9 61.0994 119.8 60.8994 119.7C60.6994 119.6 60.4994 119.4 60.2994 119.2C60.0994 119 59.9994 118.7 59.9994 118.5C59.5994 117 60.0994 115.4 61.5994 115.1Z" fill="white"/>
<path d="M63.6005 114.3C63.6005 114.3 65.4005 113.1 66.1005 113.3C66.1005 113.3 75.3005 113.9 78.2005 113.4C81.1005 112.9 79.3005 113.3 79.3005 113.3C79.3005 113.3 81.7005 113.3 82.4005 112.4C82.6005 112.4 82.8005 112.4 83.1005 112.5C83.3005 112.6 83.5005 112.7 83.6005 112.9L85.1005 114.5C85.1005 114.5 85.2005 115.5 83.5005 115.4C83.5005 115.4 66.9005 115.4 66.4005 115.5C66.4005 115.5 63.3005 116 63.6005 114.3Z" fill="white"/>
<path d="M63.6005 114.3C63.6005 114.3 65.4005 113.1 66.1005 113.3C66.1005 113.3 75.4005 113.9 78.2005 113.4C81.0005 112.9 79.3005 113.3 79.3005 113.3C79.3005 113.3 81.7005 113.3 82.5005 112.4C82.7005 112.4 82.9005 112.4 83.1005 112.5C83.3005 112.6 83.5005 112.7 83.6005 112.9L85.1005 114.5C85.1005 114.5 85.2005 115.5 83.5005 115.4C83.5005 115.4 66.9005 115.4 66.4005 115.5C66.4005 115.5 63.3005 116 63.6005 114.3Z" stroke="black" stroke-width="0.0281882"/>
<path d="M39.4996 78.5C39.4996 78.5 40.1996 78.5 40.0996 79.7L39.8996 110.2C39.9996 110.8 39.8996 111.5 39.5996 112C39.3996 112.6 38.9996 113.1 38.4996 113.5C38.4996 113.5 37.5996 114.6 37.5996 112.9L37.9996 81.8C37.9996 81.8 38.0996 79.5 39.4996 78.5Z" fill="white"/>
<path d="M39.4996 78.5C39.4996 78.5 40.1996 78.5 40.0996 79.7L39.8996 110.2C39.9996 110.8 39.8996 111.5 39.5996 112.1C39.3996 112.7 38.9996 113.2 38.4996 113.6C38.4996 113.6 37.5996 114.7 37.5996 113L37.9996 81.9C37.9996 81.8 38.0996 79.5 39.4996 78.5Z" stroke="black" stroke-width="0.0281882"/>
<path d="M37.9012 78.7004C37.9012 78.7004 36.7012 80.9004 36.8012 81.4004L36.7012 88.2004C36.7012 88.2004 36.6012 92.5004 36.7012 93.0004C36.8012 93.5004 36.6012 106.2 36.6012 106.2C36.6012 106.2 36.5012 108.6 36.6012 109.4V114.8C36.6012 114.8 36.4012 117.2 38.2012 116.6C38.2012 116.6 56.1012 116.2 57.2012 116.5C57.2012 116.5 58.8012 116.8 58.2012 117.6C58.2012 117.6 58.2012 118.3 57.1012 118.1C51.8012 118.6 46.4012 118.7 41.1012 118.6C41.1012 118.6 36.0012 118.9 35.7012 118.3C35.7012 118.3 34.9012 118.2 34.9012 115.3C34.9012 114.2 34.9012 113.1 34.7012 112.1C34.7012 112.1 34.9012 110.7 32.4012 110.4C32.4012 110.4 28.8012 111 28.7012 108.9C28.7012 108.9 29.2012 107.4 32.7012 107.6C32.7012 107.6 35.2012 108 34.7012 106L35.0012 91.1004C35.0012 91.1004 35.3012 88.5004 33.6012 88.4004C32.9012 88.4004 32.2012 88.4004 31.5012 88.5004C31.5012 88.5004 28.6012 88.5004 28.8012 86.8004C28.8012 86.8004 29.8012 85.0004 32.8012 85.4004C32.8012 85.4004 35.0012 85.8004 35.1012 83.3004C35.1012 83.3004 35.0012 78.1004 36.2012 77.9004C36.1012 77.9004 38.6012 78.0004 37.9012 78.7004Z" fill="white"/>
<path d="M40.9012 112.1C41.4012 112.6 42.0012 112.9 42.6012 113.2C43.2012 113.4 43.9012 113.6 44.6012 113.5L58.4012 113.7C58.4012 113.7 59.9012 113.8 59.8012 114.6C59.8012 114.6 59.6012 115.8 57.8012 115.4L41.2012 115.2L39.4012 115.3C39.4012 115.3 38.2012 115.1 40.1012 112.8L40.9012 112.1Z" fill="white"/>
<path d="M40.8996 112.1C41.3996 112.6 41.9996 112.9 42.5996 113.2C43.1996 113.4 43.8996 113.6 44.5996 113.5L58.3996 113.7C58.3996 113.7 59.8996 113.8 59.7996 114.6C59.7996 114.6 59.5996 115.8 57.7996 115.4L41.0996 115.2L39.2996 115.3C39.2996 115.3 38.0996 115.1 39.9996 112.8L40.8996 112.1Z" stroke="black" stroke-width="0.0281882"/>
<path d="M83.5996 110.8C83.5996 110.8 84.7996 113.1 85.3996 113.4C85.3996 113.4 86.4996 114.7 86.1996 112.4L86.3996 83.3C86.1996 82.4 86.1996 81.5001 86.3996 80.7001L85.1996 78.5C85.1996 78.5 83.8996 77.5001 83.8996 79.1001L83.6996 110.1L83.5996 110.8Z" fill="white"/>
<path d="M83.5996 110.8C83.5996 110.8 84.7996 113.1 85.3996 113.4C85.3996 113.4 86.4996 114.7 86.1996 112.4L86.3996 83.3C86.1996 82.4 86.1996 81.5001 86.3996 80.7001L85.1996 78.5C85.1996 78.5 83.8996 77.5001 83.8996 79.1001L83.6996 110.1L83.5996 110.8Z" stroke="black" stroke-width="0.0281882"/>
<path d="M61.1008 96.9C61.1008 98.5 61.1008 100.1 60.9008 101.6C60.7008 102.9 61.3008 108.8 60.8008 111.8C60.8008 111.8 60.7008 112.8 58.6008 111.9C58.6008 111.9 45.6008 112.2 45.2008 111.8C45.2008 111.8 41.6008 111.9 41.3008 110.1C41.3008 110.1 41.8008 96.3 41.5008 95.8C41.5008 95.8 41.3008 88.2 41.5008 87.5C41.5008 87.5 41.8008 80.5 41.6008 79.7C41.7008 78.9 41.6008 78.1 41.4008 77.3C41.4008 77.3 41.4008 76.3 43.1008 76.9C43.1008 76.9 43.7008 78 47.1008 77.5C48.7008 77.7 50.3008 77.8 51.9008 77.6C51.9008 77.6 57.1008 77.2 58.4008 77.6C59.0008 77.5 59.6008 77.6 60.1008 78C60.6008 78.3 60.9008 78.9 61.0008 79.5L60.9008 85.8L61.5008 87.8L62.2008 87.3L62.5008 85.8L62.6008 79.1C62.8008 78.7 63.1008 78.4 63.4008 78.1C63.8008 77.8 64.2008 77.7 64.6008 77.7C64.6008 77.7 67.1008 77.4 67.6008 77.6C70.1008 77.9 72.5008 78 75.0008 77.8C76.5008 77.5 76.8008 78.8 81.4008 76.5C81.4008 76.5 82.6008 76.6 82.6008 77.4C82.6008 77.4 82.2008 86 82.6008 87.6C82.6008 87.6 82.6008 103.4 82.3008 104.5L82.5008 109.5C82.5008 109.5 82.7008 111.7 79.2008 111.9C79.2008 111.9 81.4008 112.2 67.4008 111.8C65.8008 111.8 64.2008 112.1 62.7008 112.8C62.7008 112.8 62.2008 112.7 62.2008 111.4C62.4008 108.3 62.4008 105.1 62.2008 102L62.0008 96.8L61.1008 96.9Z" fill="white"/>
<path d="M51.9004 89.8C51.9004 89.8 52.2004 97.3 51.9004 98.3L51.8004 99.9C52.0004 100.5 52.4004 101 52.8004 101.4C52.8004 101.4 53.3004 102.8 52.1004 102.7C51.1004 102.6 50.0004 102.6 49.0004 102.6C49.0004 102.6 47.6004 102.6 49.0004 100.8C49.4004 100 49.5004 99.1 49.4004 98.3C49.4004 98.3 49.4004 89.8 49.6004 89.3C49.6004 89.3 49.8004 88.2 49.1004 87.9L47.9004 88L46.4004 89.4C46.4004 89.4 46.1004 90.9 45.4004 89.3V88.5L46.3004 86.1L46.9004 86C47.4004 86.4 48.0004 86.6 48.6004 86.8H53.4004L55.1004 86C55.1004 86 55.8004 86.1 55.6004 87C55.6004 87 55.9004 89.3 54.6004 89.6C54.3004 89.5 54.1004 89.3 53.8004 89C53.6004 88.8 53.4004 88.5 53.3004 88.2C53.3004 88.1 52.0004 87.4 51.9004 89.8Z" fill="black"/>
<path d="M74.3006 87.0002C73.8006 87.0002 73.3006 87.0002 72.8006 87.2002C72.3006 87.4002 71.9006 87.7002 71.5006 88.0002C71.1006 88.4002 70.8006 88.8002 70.6006 89.3002C70.4006 89.8002 70.3006 90.3002 70.4006 90.8002C70.4006 90.8002 70.0006 93.6002 74.3006 95.5002C74.3006 95.5002 77.5006 97.0002 77.2006 98.9002C77.2006 98.9002 76.8006 102.3 73.5006 100.6C73.5006 100.6 71.9006 99.8002 72.0006 98.9002C72.0006 98.9002 71.5006 97.8002 70.9006 98.0002C70.9006 98.0002 70.2006 98.2002 70.5006 101.5C70.5006 101.5 70.5006 102.8 72.0006 101.5L72.8006 101.7C72.8006 101.7 75.5006 103.9 77.9006 101.2C77.9006 101.2 80.4006 98.9002 78.6006 96.1002C77.7006 94.8002 76.4006 93.8002 74.9006 93.1002C74.9006 93.1002 72.7006 92.1002 72.2006 90.4002C72.2006 90.4002 72.9006 87.4002 75.6006 89.0002C76.1006 89.6002 76.6006 90.0002 77.2006 90.4002C77.2006 90.4002 78.0006 90.4002 77.8006 88.6002L77.6006 87.1002C77.6006 87.1002 77.4006 86.0002 76.0006 87.1002C76.0006 87.1002 74.7006 87.6002 74.3006 87.0002Z" fill="black"/>
<path d="M60.2998 91.6002C60.1998 92.1002 59.4998 94.9002 59.4998 94.9002L60.0998 95.9002C60.0998 95.9002 61.6998 96.0002 62.2998 96.0002C62.8998 96.0002 62.9998 95.5002 62.9998 95.0002C62.6998 93.8002 62.2998 92.6002 61.8998 91.5002L61.3998 90.9002L60.2998 91.6002ZM61.9998 84.9002C62.4998 85.3002 62.6998 85.8002 62.7998 86.4002C64.2998 90.7002 65.4998 95.1002 66.4998 99.5002C66.8998 100.2 67.3998 100.8 67.8998 101.3C69.5998 101.9 67.8998 102.4 67.8998 102.4C67.1998 102.7 64.8998 102.3 64.8998 102.3C63.6998 102.1 64.1998 101.7 64.1998 101.7C64.6998 101.2 64.2998 99.2003 64.2998 99.2003C64.0998 98.4003 63.6998 97.7002 63.2998 97.1002C62.8998 96.9002 62.1998 97.8002 62.1998 97.8002C62.1998 97.8002 61.0998 98.2002 60.9998 97.8002C60.8998 97.4002 60.1998 97.0002 60.1998 97.0002C58.9998 97.0002 58.4998 100 58.4998 100C59.1998 102.5 58.4998 102.1 58.4998 102.1C57.8998 102.9 55.9998 102.3 55.9998 102.3C55.0998 102.1 55.6998 101.4 55.6998 101.4C55.9998 101.3 56.3998 101.1 56.5998 100.9C56.7998 100.7 56.9998 100.3 57.0998 100C57.5998 99.3002 60.7998 86.2003 60.7998 86.2003C60.9998 85.6003 61.1998 84.4002 61.9998 84.9002Z" fill="black"/>
<path d="M34.401 60.5C34.401 60.5 33.301 64 28.301 60.4L11.301 60C11.301 60 9.10095 60.7 8.80095 58.4C8.80095 58.4 9.20095 53.8 9.00095 53.4C9.00095 53.4 9.10095 52.1 6.90095 52.1C6.90095 52.1 3.50095 52.5 3.40095 49.5C3.40095 49.5 2.80095 46.3 7.60095 46.4C7.60095 46.4 9.10095 47.1 9.20095 45.2C9.20095 45.2 9.00095 32.1 9.10095 31.1C9.10095 31.1 9.50095 29.9 7.20095 29.7C7.20095 29.7 3.80095 30.4 3.50095 28.2C3.50095 28.2 3.30095 24.9 5.50095 24.7C5.50095 24.7 8.20095 24.9 8.70095 24.2C8.70095 24.2 9.30095 24.6 9.20095 22.2L9.30095 18C9.30095 18 9.60095 16.9 11.301 17C11.301 17 14.501 17.2 14.901 16.9C15.201 16.5 15.501 16 15.801 15.6C15.801 15.6 17.401 15.5 17.701 15.9C17.701 15.9 20.101 17.5 29.401 16.9C29.401 16.9 30.801 16.9 31.101 17.3C31.101 17.3 32.801 18.6 33.801 17.2C35.801 16.9 37.901 16.9 39.901 17C39.901 17 44.901 18.3 48.301 15.5L49.401 15.7C49.401 15.7 50.801 18 51.801 17.3C51.801 17.3 54.801 17 55.401 17.6C55.401 17.6 56.401 19.1 55.901 23.1C55.901 23.1 55.301 24.8 58.201 24.8C58.201 24.8 61.601 24.2 61.201 27.3C61.201 27.3 62.1009 30.8 56.5009 30.3C56.1009 30.8 55.901 31.4 55.901 32C55.901 32 55.801 43.5 55.701 44.8C55.701 44.8 55.6009 46.6 58.0009 46.5C58.0009 46.5 61.201 46.3 61.301 49.2C61.301 49.2 61.7009 53 57.0009 52.3C57.0009 52.3 55.601 52.5 55.401 53.4L55.201 58.4C55.201 58.4 55.3009 60.9 52.5009 60.3C52.1009 60.3 36.701 60.6 35.301 60.2C35.401 60.2 34.601 60.1 34.401 60.5Z" fill="black"/>
<path d="M34.401 60.5C34.401 60.5 33.301 64 28.301 60.4L11.301 60C11.301 60 9.10095 60.7 8.80095 58.4C8.80095 58.4 9.20095 53.8 9.00095 53.4C9.00095 53.4 9.10095 52.1 6.90095 52.1C6.90095 52.1 3.50095 52.5 3.40095 49.5C3.40095 49.5 2.80095 46.3 7.60095 46.4C7.60095 46.4 9.10095 47.1 9.20095 45.2C9.20095 45.2 9.00095 32.1 9.10095 31.1C9.10095 31.1 9.50095 29.9 7.20095 29.7C7.20095 29.7 3.80095 30.4 3.50095 28.2C3.50095 28.2 3.30095 24.9 5.50095 24.7C5.50095 24.7 8.20095 24.9 8.70095 24.2C8.70095 24.2 9.30095 24.6 9.20095 22.2L9.30095 18C9.30095 18 9.60095 16.9 11.301 17C11.301 17 14.501 17.2 14.901 16.9C15.201 16.5 15.501 16 15.801 15.6C15.801 15.6 17.401 15.5 17.701 15.9C17.701 15.9 20.101 17.5 29.401 16.9C29.401 16.9 30.801 16.9 31.101 17.3C31.101 17.3 32.801 18.6 33.801 17.2C35.801 16.9 37.901 16.9 39.901 17C39.901 17 44.901 18.3 48.301 15.5L49.401 15.7C49.401 15.7 50.801 18 51.801 17.3C51.801 17.3 54.801 17 55.401 17.6C55.401 17.6 56.401 19.1 55.901 23.1C55.901 23.1 55.301 24.8 58.201 24.8C58.201 24.8 61.601 24.2 61.201 27.3C61.201 27.3 62.1009 30.8 56.5009 30.3C56.1009 30.8 55.901 31.4 55.901 32C55.901 32 55.801 43.5 55.701 44.8C55.701 44.8 55.6009 46.6 58.0009 46.5C58.0009 46.5 61.201 46.3 61.401 49.2C61.401 49.2 61.8009 53 57.1009 52.3C57.1009 52.3 55.7009 52.5 55.5009 53.4L55.301 58.4C55.301 58.4 55.4009 60.9 52.6009 60.3C52.2009 60.3 36.801 60.6 35.401 60.2C35.401 60.2 34.601 60.1 34.401 60.5Z" stroke="black" stroke-width="0.0281882"/>
<path d="M15.2004 18.9004C15.2004 18.9004 15.4004 20.9004 15.4004 21.4004C15.4004 21.9004 15.1004 50.6004 15.1004 50.6004C15.2004 51.3004 15.1004 51.9004 14.8004 52.5004C14.5004 53.1004 14.1004 53.6004 13.5004 53.9004C13.5004 53.9004 13.0004 54.1004 12.9004 52.7004L13.1004 22.4004C13.1004 22.4004 13.3004 18.7004 15.2004 18.9004Z" fill="white"/>
<path d="M15.3 18.9004C15.3 18.9004 15.5 20.9004 15.5 21.4004C15.5 21.9004 15.2 50.6004 15.2 50.6004C15.3 51.3004 15.2 51.9004 14.9 52.5004C14.6 53.1004 14.2 53.6004 13.6 53.9004C13.6 53.9004 13.1 54.1004 13 52.7004L13.2 22.4004C13.1 22.4004 13.3 18.7004 15.3 18.9004Z" stroke="black" stroke-width="0.0281882"/>
<path d="M11.8998 54.1989C11.8998 54.1989 12.0998 25.6989 11.9998 25.1989C11.8998 24.6989 12.0998 25.5989 12.0998 25.5989C12.0998 25.5989 11.7998 20.6989 13.0998 18.5989C13.0998 18.5989 12.6998 16.8989 10.3998 18.9989L10.2998 23.0989C10.2998 23.0989 10.2998 25.3989 8.19983 25.2989C8.19983 25.2989 5.79983 25.1989 4.59983 26.2989C4.59983 26.2989 3.99983 28.4989 6.29983 28.0989C6.29983 28.0989 9.99983 28.0989 10.1998 29.5989L9.99983 44.9989C9.99983 44.9989 10.7998 47.4989 7.99983 47.4989C7.99983 47.4989 4.59983 47.2989 4.59983 49.3989C4.59983 49.3989 5.29983 51.1989 8.29983 50.5989C8.29983 50.5989 10.3998 50.9989 10.2998 52.9989V56.7989C10.2998 56.7989 10.0998 58.2989 12.0998 58.3989H27.8998C27.8998 58.3989 28.6998 58.4989 28.6998 57.4989C28.6998 57.4989 28.5998 56.6989 27.3998 56.6989L14.1998 56.4989C14.1998 56.5989 12.0998 57.2989 11.8998 54.1989Z" fill="white"/>
<path d="M14.6011 54.3995C14.6011 54.3995 14.2011 55.7996 15.7011 55.4996H26.2011L29.0011 56.0996C29.0011 56.0996 32.0011 55.3995 29.0011 53.7995C29.0011 53.7995 19.7011 53.8996 18.8011 53.6996C18.8011 53.6996 16.9011 53.1996 16.5011 53.0996C16.6011 53.0996 15.5011 52.6995 14.6011 54.3995Z" fill="white"/>
<path d="M14.6011 54.3995C14.6011 54.3995 14.2011 55.7996 15.7011 55.4996H26.2011L29.1011 56.0996C29.1011 56.0996 32.1011 55.3995 29.1011 53.7995C29.1011 53.7995 19.8011 53.8996 18.9011 53.6996L16.6011 53.0996C16.6011 53.0996 15.5011 52.6995 14.6011 54.3995Z" stroke="black" stroke-width="0.0281882"/>
<path d="M31.9996 55.9C31.9996 55.9 29.9996 55.9 30.1996 58.4C30.2996 58.9 30.4996 59.4 30.8996 59.8C31.2996 60.2 31.7996 60.3 32.3996 60.3C32.8996 60.2 33.3996 59.9 33.6996 59.5C33.9996 59.1 34.0996 58.5 33.9996 58C33.9996 57.9 32.8996 55.4 31.9996 55.9Z" fill="white"/>
<path d="M33.4013 54.8005C33.4013 54.8005 34.3013 53.8005 34.9013 53.8005C34.9013 53.8005 45.1013 54.7005 46.8013 53.5005C46.8013 53.5005 48.3013 53.2005 48.7013 53.5005C48.7013 53.5005 50.2013 54.7005 50.2013 55.4005C50.2013 55.4005 50.1013 56.3005 48.3013 55.8005L36.2013 55.9005C36.2013 55.9005 33.1013 56.7005 33.4013 54.8005Z" fill="white"/>
<path d="M33.4013 54.8005C33.4013 54.8005 34.3013 53.8005 34.9013 53.8005C34.9013 53.8005 45.1013 54.7005 46.8013 53.5005C46.8013 53.5005 48.3013 53.2005 48.7013 53.5005C48.7013 53.5005 50.2013 54.7005 50.2013 55.4005C50.2013 55.4005 50.1013 56.3005 48.3013 55.8005L36.2013 55.9005C36.2013 55.9005 33.1013 56.6005 33.4013 54.8005Z" stroke="black" stroke-width="0.0281882"/>
<path d="M35.0996 57.8002C35.0996 57.8002 35.0996 57.0003 36.4996 57.0003L50.6996 56.9002C50.6996 56.9002 51.9996 57.6003 51.9996 55.2003C51.9996 55.2003 52.4996 44.2003 52.5996 32.1003C52.5996 28.5003 52.7996 24.7003 52.5996 21.2003C52.5996 21.2003 52.2996 19.7003 51.8996 19.4003C51.8996 19.4003 51.8996 17.8003 53.5996 18.4003C53.5996 18.4003 55.0996 18.5002 54.6996 20.8002L54.7996 24.3002C54.7996 24.3002 54.4996 25.8003 57.1996 25.4003C57.1996 25.4003 59.8996 25.8002 59.9996 26.8002C59.9996 26.8002 60.7996 28.8003 57.5996 28.6003H55.2996C54.9996 28.8003 54.7996 29.1003 54.5996 29.4003C54.4996 29.7003 54.3996 30.1003 54.4996 30.4003L54.1996 45.0003C54.1996 45.0003 53.9996 47.5003 56.3996 47.4003C56.3996 47.4003 58.8996 47.3003 59.3996 48.1003C59.3996 48.1003 61.0996 50.6002 57.3996 50.4002C57.3996 50.4002 55.0996 50.3003 54.5996 50.7003C54.5996 50.7003 54.1996 51.2003 53.8996 56.0003C53.8996 56.0003 54.0996 58.8003 51.9996 58.5003C51.9996 58.5003 37.8996 58.7002 36.5996 58.4002C36.5996 58.5002 35.1996 59.0002 35.0996 57.8002Z" fill="white"/>
<path d="M16.8006 17.9L16.5005 50.3C16.5005 50.3 16.4006 51.8 18.9006 52.1C18.9006 52.1 21.9006 52.4 22.6006 52.1C22.6006 52.1 24.5005 52 29.5005 52.2C29.5005 52.2 30.7006 53.4 30.8006 51.9C30.8006 51.9 31.6005 25.6 31.2005 20.2C31.2005 20.2 31.1005 17.9 29.4005 17.8C29.4005 17.8 21.7005 18.4 21.0005 17.8L18.0005 17C17.9005 17 16.7006 17.1 16.8006 17.9Z" fill="white"/>
<path d="M49.0004 19.1988L48.9004 51.0988C48.9004 51.0988 49.7004 53.8988 51.0004 53.5988C51.2004 53.0988 51.3004 52.4988 51.3004 51.9988L51.7004 21.5988C51.7004 21.5988 50.7004 16.6988 49.0004 19.1988Z" fill="white"/>
<path d="M49.0004 19.1988L48.9004 51.0988C48.9004 51.0988 49.7004 53.8988 51.0004 53.5988C51.2004 53.0988 51.3004 52.4988 51.3004 51.9988L51.7004 21.5988C51.7004 21.5988 50.7004 16.6988 49.0004 19.1988Z" stroke="black" stroke-width="0.0281882"/>
<path d="M49.0004 19.1988L48.9004 51.0988C48.9004 51.0988 49.7004 53.8988 51.0004 53.5988C51.2004 53.0988 51.3004 52.4988 51.3004 51.9988L51.7004 21.5988C51.7004 21.5988 50.7004 16.6988 49.0004 19.1988Z" stroke="black" stroke-width="0.0281882"/>
<path d="M32.8 19.3997C32.8 19.3997 32.5 34.5997 32.6 35.1997L32.4 47.9997L32 52.4997C32 52.4997 32.6 53.3997 33.1 52.7997C33.1 52.7997 36.3 51.9997 38.4 52.2997C38.4 52.2997 44.9 52.8997 46.2 51.8997C46.2 51.8997 47.2 52.3997 47.5 50.7997C47.5 50.7997 47.9 22.4997 47.7 21.9997C47.7 21.9997 48.1 17.9997 47.9 17.4997C47.9 17.4997 47.8 16.5997 46.1 17.3997C46.1 17.3997 46.3 18.1997 36.6 17.8997C36.7 17.8997 33 17.7997 32.8 19.3997Z" fill="white"/>
<path d="M29.701 28.8L28.801 30.7C28.801 30.7 26.601 40.5 25.401 42.5C25.401 42.5 25.201 44.5 23.501 42.9C23.501 42.9 19.501 30.5 19.301 30.1L18.001 29.2C18.001 29.2 17.201 28.1 18.601 28L22.301 28.1C22.301 28.1 23.501 29.1 21.901 30.2C21.901 30.2 22.101 31.8 24.201 38C24.201 38 24.801 40.3 25.501 38.6L27.601 31.4L27.001 29.3C27.001 29.3 26.401 28.3 27.301 28.2C27.201 28.1 29.401 27.9 29.701 28.8Z" fill="black"/>
<path d="M35.6004 30.3992L35.5004 41.0992L35.2004 41.8992C35.2004 41.8992 34.2004 43.1992 34.9004 43.2992C34.9004 43.2992 34.0004 43.8992 41.4004 43.9992C41.4004 43.9992 44.3004 44.4992 43.5004 40.8992C43.5004 40.8992 43.2004 39.5992 42.2004 41.4992C42.2004 41.4992 41.9004 43.0992 38.3004 42.5992C37.9004 42.1992 37.6004 41.6992 37.5004 41.0992V36.5992C37.5004 36.5992 37.4004 35.4992 39.1004 35.5992C39.1004 35.5992 41.0004 36.7992 41.3004 36.2992C41.3004 36.2992 42.0004 34.6992 41.3004 33.6992C41.3004 33.6992 40.4004 33.5992 40.3004 33.9992C40.3004 33.9992 39.7004 35.1992 38.0004 34.4992C37.6004 33.5992 37.4004 32.5992 37.7004 31.5992C37.7004 31.5992 37.5004 29.0992 39.2004 29.2992C39.2004 29.2992 41.2004 29.6992 41.4004 30.2992C41.4004 30.2992 41.9004 31.4992 42.4004 30.0992L41.9004 28.3992C41.9004 28.3992 41.6004 27.6992 41.1004 27.8992C41.1004 27.8992 37.7004 28.3992 37.2004 27.9992L34.5004 28.2992C34.5004 28.4992 34.4004 28.5992 34.4004 28.7992C34.4004 28.9992 34.5004 29.0992 34.5004 29.1992C34.6004 29.2992 34.7004 29.4992 34.8004 29.5992C34.9004 29.6992 35.1004 29.7992 35.2004 29.7992C35.3004 29.8992 35.4004 29.9992 35.4004 30.0992C35.6004 30.1992 35.6004 30.2992 35.6004 30.3992Z" fill="black"/>
</svg>
