<svg width="293" height="259" viewBox="0 0 293 259" fill="none" xmlns="http://www.w3.org/2000/svg">
<path d="M182.195 97.1717C205.869 120.847 223.206 146.311 232.118 168.309C236.575 179.31 238.906 189.397 238.902 197.934C238.898 206.465 236.566 213.371 231.782 218.156C226.997 222.94 220.091 225.272 211.56 225.276C203.023 225.28 192.936 222.949 181.935 218.492C159.937 209.58 134.472 192.244 110.797 168.569C87.1225 144.894 69.7862 119.43 60.8741 97.4314C56.4173 86.4304 54.0863 76.3431 54.0903 67.8065C54.0943 59.2754 56.4261 52.369 61.2104 47.5847C65.9948 42.8003 72.9012 40.4685 81.4322 40.4646C89.9689 40.4606 100.056 42.7915 111.057 47.2484C133.055 56.1604 158.52 73.4967 182.195 97.1717Z" stroke="url(#paint0_linear)" stroke-width="2"/>
<path d="M192.894 93.8022C214.416 119.45 229.467 146.329 236.427 169.02C239.909 180.368 241.351 190.62 240.603 199.123C239.856 207.622 236.931 214.299 231.748 218.648C226.565 222.997 219.482 224.718 210.983 223.978C202.478 223.238 192.632 220.037 182.062 214.638C160.924 203.843 137.068 184.353 115.546 158.705C94.0247 133.057 78.9737 106.178 72.0128 83.4872C68.5317 72.1395 67.0888 61.8875 67.8368 53.3837C68.5843 44.8854 71.5091 38.2085 76.6922 33.8594C81.8754 29.5102 88.9587 27.7893 97.4577 28.5288C105.962 29.2689 115.808 32.4701 126.379 37.8688C147.516 48.6642 171.373 68.1539 192.894 93.8022Z" stroke="url(#paint1_linear)" stroke-width="2"/>
<path d="M156.304 109.001C185.3 125.741 208.636 145.851 222.938 164.793C230.091 174.266 234.953 183.406 237.159 191.653C239.363 199.894 238.898 207.169 235.515 213.028C232.132 218.888 226.064 222.928 217.825 225.14C209.58 227.353 199.233 227.712 187.454 226.254C163.898 223.34 134.815 213.185 105.819 196.444C76.8233 179.703 53.4871 159.594 39.1852 140.652C32.0329 131.179 27.1706 122.039 24.965 113.792C22.7608 105.55 23.2257 98.2759 26.6087 92.4163C29.9918 86.5567 36.0593 82.5168 44.2987 80.305C52.5434 78.0917 62.8902 77.7324 74.6699 79.1901C98.2252 82.105 127.309 92.2599 156.304 109.001Z" stroke="url(#paint2_linear)" stroke-width="2"/>
<path d="M165.531 103.648C192.957 122.852 214.452 144.919 227.048 165.036C233.348 175.096 237.395 184.625 238.873 193.032C240.351 201.435 239.254 208.641 235.373 214.183C231.492 219.726 225.095 223.222 216.695 224.707C208.288 226.193 197.95 225.649 186.342 223.17C163.13 218.214 135.043 205.563 107.616 186.358C80.1897 167.154 58.695 145.087 46.0984 124.971C39.7989 114.911 35.7518 105.382 34.2733 96.974C32.7958 88.5719 33.8929 81.3655 37.7738 75.8231C41.6546 70.2806 48.0512 66.785 56.452 65.2996C64.8583 63.8134 75.197 64.3573 86.8049 66.8361C110.016 71.7928 138.104 84.4439 165.531 103.648Z" stroke="url(#paint3_linear)" stroke-width="2"/>
<path d="M173.44 99.7109C199.088 121.232 218.578 145.089 229.373 166.226C234.772 176.797 237.973 186.643 238.713 195.147C239.453 203.646 237.732 210.73 233.383 215.913C229.034 221.096 222.357 224.021 213.859 224.768C205.355 225.516 195.103 224.073 183.755 220.592C161.064 213.631 134.186 198.58 108.537 177.059C82.8891 155.537 63.3994 131.681 52.604 110.543C47.2053 99.9726 44.0041 90.1269 43.264 81.6224C42.5244 73.1235 44.2454 66.0401 48.5946 60.857C52.9437 55.6739 59.6206 52.749 68.1189 52.0015C76.6227 51.2536 86.8747 52.6965 98.2223 56.1776C120.914 63.1385 147.792 78.1894 173.44 99.7109Z" stroke="url(#paint4_linear)" stroke-width="2"/>
<path d="M182.196 168.591C158.521 192.266 133.056 209.602 111.058 218.514C100.057 222.971 89.9699 225.302 81.4332 225.298C72.9022 225.294 65.9958 222.962 61.2114 218.178C56.4271 213.394 54.0953 206.487 54.0913 197.956C54.0873 189.42 56.4183 179.332 60.8751 168.331C69.7872 146.333 87.1235 120.869 110.798 97.1939C134.473 73.519 159.938 56.1827 181.936 47.2706C192.937 42.8138 203.024 40.4828 211.561 40.4868C220.092 40.4908 226.998 42.8226 231.783 47.6069C236.567 52.3912 238.899 59.2977 238.903 67.8287C238.907 76.3654 236.576 86.4526 232.119 97.4537C223.207 119.452 205.87 144.916 182.196 168.591Z" stroke="url(#paint5_linear)" stroke-width="2"/>
<path d="M178.555 158.727C157.033 184.375 133.177 203.865 112.039 214.661C101.468 220.059 91.6228 223.26 83.1183 224.001C74.6193 224.74 67.536 223.019 62.3528 218.67C57.1697 214.321 54.2449 207.644 53.4974 199.146C52.7494 190.642 54.1923 180.39 57.6734 169.042C64.6343 146.351 79.6852 119.473 101.207 93.8245C122.728 68.1762 146.584 48.6865 167.722 37.8911C178.293 32.4924 188.139 29.2912 196.643 28.5511C205.142 27.8115 212.225 29.5325 217.409 33.8817C222.592 38.2308 225.517 44.9077 226.264 53.406C227.012 61.9098 225.569 72.1618 222.088 83.5095C215.127 106.201 200.076 133.079 178.555 158.727Z" stroke="url(#paint6_linear)" stroke-width="2"/>
<path d="M187.18 196.465C158.184 213.206 129.101 223.361 105.545 226.275C93.7657 227.733 83.4189 227.374 75.1742 225.161C66.9348 222.949 60.8673 218.909 57.4842 213.049C54.1012 207.19 53.6364 199.915 55.8405 191.674C58.0461 183.427 62.9084 174.287 70.0607 164.814C84.3626 145.872 107.699 125.762 136.695 109.022C165.69 92.2809 194.774 82.126 218.329 79.2111C230.109 77.7534 240.456 78.1127 248.7 80.326C256.94 82.5378 263.007 86.5776 266.39 92.4372C269.773 98.2968 270.238 105.571 268.034 113.813C265.828 122.06 260.966 131.2 253.814 140.673C239.512 159.615 216.176 179.724 187.18 196.465Z" stroke="url(#paint7_linear)" stroke-width="2"/>
<path d="M186.615 186.914C159.189 206.118 131.101 218.769 107.89 223.726C96.2818 226.205 85.9431 226.749 77.5368 225.263C69.136 223.777 62.7395 220.282 58.8586 214.739C54.9777 209.197 53.8807 201.99 55.3582 193.588C56.8366 185.181 60.8838 175.651 67.1832 165.591C79.7798 145.475 101.275 123.408 128.701 104.204C156.127 84.9996 184.215 72.3485 207.427 67.3918C219.035 64.913 229.373 64.3691 237.78 65.8554C246.18 67.3407 252.577 70.8363 256.458 76.3788C260.339 81.9212 261.436 89.1276 259.958 97.5298C258.48 105.937 254.433 115.467 248.133 125.527C235.536 145.643 214.042 167.71 186.615 186.914Z" stroke="url(#paint8_linear)" stroke-width="2"/>
<path d="M184.454 178.183C158.805 199.705 131.927 214.756 109.236 221.717C97.8883 225.198 87.6363 226.641 79.1325 225.893C70.6342 225.145 63.9573 222.22 59.6082 217.037C55.259 211.854 53.538 204.771 54.2776 196.272C55.0177 187.767 58.2189 177.921 63.6176 167.351C74.413 146.213 93.9027 122.357 119.551 100.835C145.199 79.3137 172.077 64.2628 194.769 57.3019C206.116 53.8208 216.368 52.3779 224.872 53.1259C233.37 53.8733 240.047 56.7982 244.396 61.9813C248.746 67.1644 250.467 74.2478 249.727 82.7467C248.987 91.2512 245.786 101.097 240.387 111.668C229.592 132.805 210.102 156.662 184.454 178.183Z" stroke="url(#paint9_linear)" stroke-width="2"/>
<defs>
<linearGradient id="paint0_linear" x1="60.5033" y1="46.8775" x2="232.489" y2="218.863" gradientUnits="userSpaceOnUse">
<stop stop-color="#7589FA"/>
<stop offset="1" stop-color="#1E2029"/>
</linearGradient>
<linearGradient id="paint1_linear" x1="76.0495" y1="33.0933" x2="232.391" y2="219.414" gradientUnits="userSpaceOnUse">
<stop stop-color="#7589FA"/>
<stop offset="1" stop-color="#1E2029"/>
</linearGradient>
<linearGradient id="paint2_linear" x1="25.7427" y1="91.9163" x2="236.381" y2="213.528" gradientUnits="userSpaceOnUse">
<stop stop-color="#7589FA"/>
<stop offset="1" stop-color="#1E2029"/>
</linearGradient>
<linearGradient id="paint3_linear" x1="36.9546" y1="75.2495" x2="236.192" y2="214.757" gradientUnits="userSpaceOnUse">
<stop stop-color="#7589FA"/>
<stop offset="1" stop-color="#1E2029"/>
</linearGradient>
<linearGradient id="paint4_linear" x1="47.8285" y1="60.2142" x2="234.149" y2="216.556" gradientUnits="userSpaceOnUse">
<stop stop-color="#7589FA"/>
<stop offset="1" stop-color="#1E2029"/>
</linearGradient>
<linearGradient id="paint5_linear" x1="232.49" y1="46.8998" x2="60.5043" y2="218.885" gradientUnits="userSpaceOnUse">
<stop stop-color="#7589FA"/>
<stop offset="1" stop-color="#1E2029"/>
</linearGradient>
<linearGradient id="paint6_linear" x1="218.051" y1="33.1156" x2="61.71" y2="219.436" gradientUnits="userSpaceOnUse">
<stop stop-color="#7589FA"/>
<stop offset="1" stop-color="#1E2029"/>
</linearGradient>
<linearGradient id="paint7_linear" x1="267.256" y1="91.9372" x2="56.6182" y2="213.549" gradientUnits="userSpaceOnUse">
<stop stop-color="#7589FA"/>
<stop offset="1" stop-color="#1E2029"/>
</linearGradient>
<linearGradient id="paint8_linear" x1="257.277" y1="75.8052" x2="58.0395" y2="215.313" gradientUnits="userSpaceOnUse">
<stop stop-color="#7589FA"/>
<stop offset="1" stop-color="#1E2029"/>
</linearGradient>
<linearGradient id="paint9_linear" x1="245.163" y1="61.3385" x2="58.8421" y2="217.68" gradientUnits="userSpaceOnUse">
<stop stop-color="#7589FA"/>
<stop offset="1" stop-color="#1E2029"/>
</linearGradient>
</defs>
</svg>
