<svg width="28" height="32" viewBox="0 0 28 32" fill="none" xmlns="http://www.w3.org/2000/svg">
<path d="M19.9615 20.0381L13.9993 26.0003L8.03711 20.0381C3.56858 20.2318 0 23.8879 0 28.4002V29.0001C0 30.6563 1.34368 32 2.99985 32H24.9988C26.6549 32 27.9986 30.6563 27.9986 29.0001V28.4002C27.9986 23.8879 24.4301 20.2318 19.9615 20.0381ZM0.849959 4.98882L1.24994 5.08256V8.73238C0.81246 8.99487 0.499976 9.4511 0.499976 10.0011C0.499976 10.526 0.787462 10.9635 1.19369 11.2323L0.218739 15.1258C0.112495 15.5571 0.349983 16.0008 0.693716 16.0008H3.30609C3.64982 16.0008 3.88731 15.5571 3.78107 15.1258L2.80611 11.2323C3.21234 10.9635 3.49983 10.526 3.49983 10.0011C3.49983 9.4511 3.18734 8.99487 2.74987 8.73238V5.44505L6.87466 6.43875C6.33719 7.5137 5.99971 8.71364 5.99971 10.0011C5.99971 14.4196 9.58078 18.0007 13.9993 18.0007C18.4179 18.0007 21.9989 14.4196 21.9989 10.0011C21.9989 8.71364 21.6677 7.5137 21.124 6.43875L27.1424 4.98882C28.2799 4.71383 28.2799 3.29515 27.1424 3.02016L15.243 0.145305C14.4305 -0.0484351 13.5743 -0.0484351 12.7619 0.145305L0.849959 3.01392C-0.281236 3.2889 -0.281236 4.71383 0.849959 4.98882Z" fill="#3D32D9"/>
</svg>
