<svg width="32" height="24" viewBox="0 0 32 24" fill="none" xmlns="http://www.w3.org/2000/svg">
<path d="M31.3939 7.925C31.6376 7.73125 32.0001 7.9125 32.0001 8.21875V21C32.0001 22.6562 30.6564 24 29.0001 24H3.00001C1.34376 24 0 22.6562 0 21V8.225C0 7.9125 0.356251 7.7375 0.606252 7.93125C2.00626 9.01875 3.86251 10.4 10.2375 15.0312C11.5563 15.9937 13.7813 18.0188 16.0001 18.0063C18.2313 18.025 20.5001 15.9563 21.7688 15.0312C28.1439 10.4 29.9939 9.0125 31.3939 7.925ZM16.0001 16C17.4501 16.025 19.5376 14.175 20.5876 13.4125C28.8814 7.39375 29.5126 6.86875 31.4251 5.36875C31.7876 5.0875 32.0001 4.65 32.0001 4.1875V3C32.0001 1.34375 30.6564 0 29.0001 0H3.00001C1.34376 0 0 1.34375 0 3V4.1875C0 4.65 0.212501 5.08125 0.575002 5.36875C2.48751 6.8625 3.11876 7.39375 11.4125 13.4125C12.4625 14.175 14.5501 16.025 16.0001 16Z" fill="#1E2029"/>
</svg>
