<svg xmlns="http://www.w3.org/2000/svg" width="40" height="40" fill="none" viewBox="0 0 40 40">
  <path fill="#fff" d="M37.063 12.5H3.937A.94.94 0 013 11.562V8.75C3 6.68 4.68 5 6.75 5h3.75V.937A.94.94 0 0111.438 0h3.124a.94.94 0 01.938.938V5h10V.937A.94.94 0 0126.438 0h3.125a.94.94 0 01.937.938V5h3.75C36.32 5 38 6.68 38 8.75v2.813a.94.94 0 01-.938.937zM3.937 15h33.126a.94.94 0 01.937.938V36.25c0 2.07-1.68 3.75-3.75 3.75H6.75C4.68 40 3 38.32 3 36.25V15.937A.94.94 0 013.938 15zM13 30.938a.94.94 0 00-.938-.938H8.938a.94.94 0 00-.938.938v3.125a.94.94 0 00.938.937h3.124a.94.94 0 00.938-.938v-3.124zm0-10a.94.94 0 00-.938-.938H8.938a.94.94 0 00-.938.938v3.125a.94.94 0 00.938.937h3.124a.94.94 0 00.938-.938v-3.125zm10 10a.94.94 0 00-.938-.938h-3.125a.94.94 0 00-.937.938v3.125a.94.94 0 00.938.937h3.125a.94.94 0 00.937-.938v-3.124zm0-10a.94.94 0 00-.938-.938h-3.125a.94.94 0 00-.937.938v3.125a.94.94 0 00.938.937h3.125a.94.94 0 00.937-.938v-3.125zm10 10a.94.94 0 00-.938-.938h-3.124a.94.94 0 00-.938.938v3.125a.94.94 0 00.938.937h3.125a.94.94 0 00.937-.938v-3.124zm0-10a.94.94 0 00-.938-.938h-3.124a.94.94 0 00-.938.938v3.125a.94.94 0 00.938.937h3.125a.94.94 0 00.937-.938v-3.125z"/>
</svg>
