<svg xmlns="http://www.w3.org/2000/svg" width="40" height="40" fill="none" viewBox="0 0 40 40">
  <path fill="#fff" d="M30.501 15h-9.5v4.375c0 3.102-2.018 5.625-4.5 5.625-2.48 0-4.5-2.523-4.5-5.625v-9.5L7.945 12.92c-1.206.899-1.944 2.532-1.944 4.282v3.695l-5 3.61c-.956.688-1.287 2.22-.73 3.415l5 10.829c.55 1.195 1.774 1.601 2.73.914L14.464 35H23c2.207 0 4-2.242 4-5h1c1.107 0 2-1.117 2-2.5v-5h.5c.832 0 1.5-.837 1.5-1.876v-3.75c0-1.04-.668-1.875-1.5-1.875zm9.232-2.922l-5-10.83C34.183.053 32.958-.353 32 .334L25.54 5H19.15c-.75 0-1.48.265-2.118.758L14.939 7.39C14.35 7.843 14 8.647 14 9.507v9.868c0 1.727 1.12 3.125 2.5 3.125 1.382 0 2.5-1.398 2.5-3.125v-6.876h11.5c1.932 0 3.5 1.961 3.5 4.376v2.227l5-3.61c.957-.696 1.282-2.22.732-3.415z"/>
</svg>
