<svg width="109" height="91" viewBox="0 0 109 91" fill="none" xmlns="http://www.w3.org/2000/svg">
<rect x="0.5" y="39.5" width="108" height="51" fill="white" stroke="#1E2029"/>
<path d="M1 90L54.2723 64L108 90" stroke="black"/>
<path fill-rule="evenodd" clip-rule="evenodd" d="M1 39.619L55.0466 0.730103L108 39.619L55 78.5079L1 39.619Z" fill="#E5E5E5"/>
<path d="M55.0466 0.730103L55.3426 0.327105L55.0496 0.111958L54.7546 0.324248L55.0466 0.730103ZM1 39.619L0.70797 39.2131L0.144168 39.6188L0.707804 40.0247L1 39.619ZM108 39.619L108.296 40.0221L108.845 39.6192L108.296 39.216L108 39.619ZM55 78.5079L54.7078 78.9136L55.0027 79.126L55.2958 78.911L55 78.5079ZM54.7546 0.324248L0.70797 39.2131L1.29203 40.0248L55.3386 1.13596L54.7546 0.324248ZM108.296 39.216L55.3426 0.327105L54.7506 1.1331L107.704 40.022L108.296 39.216ZM107.704 39.2159L54.7042 78.1048L55.2958 78.911L108.296 40.0221L107.704 39.2159ZM55.2922 78.1021L1.2922 39.2133L0.707804 40.0247L54.7078 78.9136L55.2922 78.1021Z" fill="#1E2029"/>
<path d="M4 41.5V2H105L104.5 42L55 78.5L4 41.5Z" fill="white" stroke="#1E2029"/>
<rect x="20" y="26" width="72" height="2" fill="#1E2029"/>
<rect x="11.9048" y="10" width="19.0476" height="2.38095" fill="#1E2029"/>
<rect x="11.9048" y="15.5555" width="19.0476" height="2.38095" fill="#1E2029"/>
<rect x="20" y="31" width="72" height="2" fill="#1E2029"/>
<rect x="20" y="41" width="72" height="2" fill="#1E2029"/>
<rect x="20" y="36" width="72" height="2" fill="#1E2029"/>
<rect x="20" y="46" width="72" height="2" fill="#1E2029"/>
</svg>
