<svg width="24" height="24" viewBox="0 0 24 24" fill="none" xmlns="http://www.w3.org/2000/svg">
<path d="M8.6875 14.6875C10.3333 14.6875 11.7396 14.1042 12.9062 12.9375C14.0938 11.7708 14.6875 10.3542 14.6875 8.6875C14.6875 7.04167 14.1042 5.63542 12.9375 4.46875C11.7708 3.28125 10.3542 2.6875 8.6875 2.6875C7.04167 2.6875 5.625 3.27083 4.4375 4.4375C3.27083 5.60417 2.6875 7.02083 2.6875 8.6875C2.6875 10.3333 3.27083 11.75 4.4375 12.9375C5.60417 14.1042 7.02083 14.6875 8.6875 14.6875ZM16.6875 14.6875L23.3125 21.3125L21.3125 23.3125L14.6875 16.6875V15.625L14.3125 15.25C13.5625 15.8958 12.6979 16.4062 11.7188 16.7812C10.7604 17.1354 9.75 17.3125 8.6875 17.3125C7.47917 17.3125 6.35417 17.0938 5.3125 16.6562C4.25 16.1979 3.32292 15.5833 2.53125 14.8125C1.76042 14.0208 1.14583 13.1042 0.6875 12.0625C0.229167 11.0208 0 9.89583 0 8.6875C0 7.47917 0.229167 6.35417 0.6875 5.3125C1.14583 4.25 1.76042 3.33333 2.53125 2.5625C3.32292 1.77083 4.25 1.14583 5.3125 0.6875C6.35417 0.229167 7.47917 0 8.6875 0C9.89583 0 11.0208 0.229167 12.0625 0.6875C13.1042 1.14583 14.0104 1.77083 14.7812 2.5625C15.5729 3.33333 16.1979 4.25 16.6562 5.3125C17.0938 6.35417 17.3125 7.47917 17.3125 8.6875C17.3125 9.75 17.1354 10.7708 16.7812 11.75C16.4271 12.7083 15.9167 13.5625 15.25 14.3125L15.625 14.6875H16.6875Z" fill="#1E2029"/>
</svg>
