<svg width="24" height="20" viewBox="0 0 24 20" fill="none" xmlns="http://www.w3.org/2000/svg">
<path d="M10.4589 19.1784L8.17155 18.5147C7.93157 18.4472 7.79658 18.1959 7.86407 17.956L12.9824 0.324831C13.0499 0.0848493 13.3011 -0.0501401 13.5411 0.0173546L15.8285 0.681053C16.0684 0.748547 16.2034 0.999778 16.1359 1.23976L11.0176 18.8709C10.9463 19.1109 10.6989 19.2496 10.4589 19.1784ZM6.1842 14.9712L7.81533 13.2313C7.98781 13.0476 7.97656 12.7551 7.78533 12.5864L4.38809 9.59786L7.78533 6.60934C7.97656 6.4406 7.99156 6.14813 7.81533 5.96439L6.1842 4.22453C6.01547 4.04454 5.73049 4.03329 5.54675 4.20578L0.143426 9.26788C-0.0478088 9.44412 -0.0478088 9.74784 0.143426 9.92408L5.54675 14.9899C5.73049 15.1624 6.01547 15.1549 6.1842 14.9712ZM18.4532 14.9937L23.8566 9.92783C24.0478 9.75159 24.0478 9.44787 23.8566 9.27163L18.4532 4.20203C18.2733 4.03329 17.9883 4.04079 17.8158 4.22078L16.1847 5.96064C16.0122 6.14438 16.0234 6.43685 16.2147 6.60559L19.6119 9.59786L16.2147 12.5864C16.0234 12.7551 16.0084 13.0476 16.1847 13.2313L17.8158 14.9712C17.9845 15.1549 18.2695 15.1624 18.4532 14.9937Z" fill="#324BD9"/>
</svg>
