<svg width="125" height="99" viewBox="0 0 125 99" fill="none" xmlns="http://www.w3.org/2000/svg">
<rect x="0.5" y="47.5" width="108" height="51" fill="white" stroke="#1E2029"/>
<path d="M1 98L54.2723 72L108 98" stroke="black"/>
<path fill-rule="evenodd" clip-rule="evenodd" d="M1 47.619L55.0466 8.7301L108 47.619L55 86.5079L1 47.619Z" fill="#E5E5E5"/>
<path d="M55.0466 8.7301L55.3426 8.3271L55.0496 8.11196L54.7546 8.32425L55.0466 8.7301ZM1 47.619L0.70797 47.2131L0.144168 47.6188L0.707804 48.0247L1 47.619ZM108 47.619L108.296 48.0221L108.845 47.6192L108.296 47.216L108 47.619ZM55 86.5079L54.7078 86.9136L55.0027 87.126L55.2958 86.911L55 86.5079ZM54.7546 8.32425L0.70797 47.2131L1.29203 48.0248L55.3386 9.13596L54.7546 8.32425ZM108.296 47.216L55.3426 8.3271L54.7506 9.1331L107.704 48.022L108.296 47.216ZM107.704 47.2159L54.7042 86.1048L55.2958 86.911L108.296 48.0221L107.704 47.2159ZM55.2922 86.1021L1.2922 47.2133L0.707804 48.0247L54.7078 86.9136L55.2922 86.1021Z" fill="#1E2029"/>
<path d="M4 49.5V10H105L104.5 50L55 86.5L4 49.5Z" fill="white" stroke="#1E2029"/>
<path d="M87.9117 49.2834L98.5182 23.5879H106.619L96.0126 49.2834H87.9117Z" fill="#1D2A73" stroke="black"/>
<path d="M121.771 49.2834L111.164 23.5879H103.064L113.67 49.2834H121.771Z" fill="#1D2A73" stroke="black"/>
<path d="M103.555 3.11683C104.137 2.14554 105.545 2.14554 106.128 3.11683L107.698 5.73563C108.34 6.80571 109.673 7.2387 110.821 6.75023L113.631 5.5548C114.673 5.11143 115.812 5.93881 115.712 7.06702L115.444 10.1089C115.334 11.3519 116.158 12.4854 117.374 12.7652L120.35 13.4497C121.453 13.7036 121.888 15.0423 121.145 15.8965L119.139 18.1996C118.32 19.1407 118.32 20.5418 119.139 21.4829L121.145 23.786C121.888 24.6402 121.453 25.9789 120.35 26.2328L117.374 26.9174C116.158 27.1971 115.334 28.3307 115.444 29.5736L115.712 32.6155C115.812 33.7437 114.673 34.5711 113.631 34.1277L110.821 32.9323C109.673 32.4438 108.34 32.8768 107.698 33.9469L106.128 36.5657C105.545 37.537 104.137 37.537 103.555 36.5657L101.984 33.9469C101.342 32.8768 100.01 32.4438 98.8616 32.9323L96.0516 34.1277C95.0094 34.5711 93.8706 33.7437 93.9702 32.6155L94.2388 29.5736C94.3485 28.3307 93.5249 27.1971 92.3089 26.9174L89.3329 26.2328C88.2291 25.9789 87.7941 24.6402 88.5379 23.786L90.5431 21.4829C91.3625 20.5418 91.3625 19.1407 90.5431 18.1996L88.5379 15.8965C87.7941 15.0423 88.2291 13.7036 89.3329 13.4497L92.3089 12.7652C93.5249 12.4854 94.3485 11.3519 94.2388 10.1089L93.9702 7.06702C93.8706 5.93881 95.0094 5.11143 96.0516 5.5548L98.8616 6.75023C100.01 7.2387 101.342 6.80571 101.984 5.73563L103.555 3.11683Z" fill="white" stroke="black"/>
<circle cx="104.841" cy="19.8413" r="7.43651" fill="#586FF1" stroke="black"/>
<rect x="20.0476" y="34" width="48" height="2.38095" fill="#1E2029"/>
<rect x="11.9048" y="18" width="19.0476" height="2.38095" fill="#1E2029"/>
<rect x="11.9048" y="23.5555" width="19.0476" height="2.38095" fill="#1E2029"/>
<rect x="20.0476" y="39.5557" width="48" height="2.38095" fill="#1E2029"/>
<rect x="20.0476" y="50.6667" width="48" height="2.38095" fill="#1E2029"/>
<rect x="20.0476" y="45.1112" width="48" height="2.38095" fill="#1E2029"/>
<rect x="20.0476" y="56.2223" width="48" height="2.38095" fill="#1E2029"/>
</svg>
