<svg width="32" height="32" viewBox="0 0 32 32" fill="none" xmlns="http://www.w3.org/2000/svg">
<path d="M28.5713 0H3.42856C1.53571 0 0 1.53571 0 3.42857V28.5714C0 30.4643 1.53571 32 3.42856 32H28.5713C30.4642 32 31.9999 30.4643 31.9999 28.5714V3.42857C31.9999 1.53571 30.4642 0 28.5713 0ZM25.0785 11.3429C25.0928 11.5429 25.0928 11.75 25.0928 11.95C25.0928 18.1429 20.3785 25.2786 11.7642 25.2786C9.10711 25.2786 6.64283 24.5071 4.57141 23.1786C4.94998 23.2214 5.31427 23.2357 5.69998 23.2357C7.89283 23.2357 9.9071 22.4929 11.5142 21.2357C9.45711 21.1929 7.72854 19.8429 7.13569 17.9857C7.85711 18.0929 8.50711 18.0929 9.24996 17.9C7.10712 17.4643 5.49998 15.5786 5.49998 13.3V13.2429C6.12141 13.5929 6.84997 13.8071 7.61426 13.8357C6.97171 13.4083 6.44496 12.8285 6.08103 12.148C5.71709 11.4675 5.52729 10.7074 5.52855 9.93571C5.52855 9.06429 5.75712 8.26429 6.16426 7.57143C8.4714 10.4143 11.9357 12.2714 15.8214 12.4714C15.1571 9.29286 17.5356 6.71429 20.3928 6.71429C21.7428 6.71429 22.9571 7.27857 23.8142 8.19286C24.8713 7.99286 25.8856 7.6 26.7856 7.06429C26.4356 8.15 25.6999 9.06429 24.7285 9.64286C25.6713 9.54286 26.5856 9.27857 27.4285 8.91429C26.7928 9.85 25.9928 10.6786 25.0785 11.3429Z" fill="white"/>
</svg>
