<svg width="153" height="100" viewBox="0 0 153 100" fill="none" xmlns="http://www.w3.org/2000/svg">
<mask id="path-1-inside-1" fill="white">
<path fill-rule="evenodd" clip-rule="evenodd" d="M48.7125 74.0933C70.1958 74.0933 87.6114 57.5069 87.6114 37.0466C87.6114 16.5863 70.1958 0 48.7125 0C27.2292 0 9.81349 16.5863 9.81349 37.0466C9.81349 42.3271 10.9735 47.3496 13.0641 51.8954L0 73.4456L47.3524 74.0933L47.3353 74.0705C47.7924 74.0856 48.2515 74.0933 48.7125 74.0933Z"/>
</mask>
<path fill-rule="evenodd" clip-rule="evenodd" d="M48.7125 74.0933C70.1958 74.0933 87.6114 57.5069 87.6114 37.0466C87.6114 16.5863 70.1958 0 48.7125 0C27.2292 0 9.81349 16.5863 9.81349 37.0466C9.81349 42.3271 10.9735 47.3496 13.0641 51.8954L0 73.4456L47.3524 74.0933L47.3353 74.0705C47.7924 74.0856 48.2515 74.0933 48.7125 74.0933Z" fill="#586FF1"/>
<path d="M13.0641 51.8954L13.9192 52.4138L14.1944 51.9599L13.9726 51.4776L13.0641 51.8954ZM0 73.4456L-0.855138 72.9272L-1.76107 74.4216L-0.0136763 74.4455L0 73.4456ZM47.3524 74.0933L47.3387 75.0932L49.3714 75.121L48.1528 73.4938L47.3524 74.0933ZM47.3353 74.0705L47.3684 73.071L45.2858 73.002L46.5349 74.6699L47.3353 74.0705ZM86.6114 37.0466C86.6114 56.9092 69.69 73.0933 48.7125 73.0933V75.0933C70.7015 75.0933 88.6114 58.1046 88.6114 37.0466H86.6114ZM48.7125 1C69.69 1 86.6114 17.184 86.6114 37.0466H88.6114C88.6114 15.9886 70.7015 -1 48.7125 -1V1ZM10.8135 37.0466C10.8135 17.184 27.7349 1 48.7125 1V-1C26.7234 -1 8.81349 15.9886 8.81349 37.0466H10.8135ZM13.9726 51.4776C11.9406 47.0592 10.8135 42.1789 10.8135 37.0466H8.81349C8.81349 42.4753 10.0064 47.6399 12.1555 52.3133L13.9726 51.4776ZM0.855138 73.964L13.9192 52.4138L12.2089 51.377L-0.855138 72.9272L0.855138 73.964ZM47.366 73.0933L0.0136763 72.4457L-0.0136763 74.4455L47.3387 75.0932L47.366 73.0933ZM46.5349 74.6699L46.5519 74.6927L48.1528 73.4938L48.1357 73.471L46.5349 74.6699ZM48.7125 73.0933C48.2625 73.0933 47.8145 73.0858 47.3684 73.071L47.3022 75.0699C47.7703 75.0854 48.2404 75.0933 48.7125 75.0933V73.0933Z" fill="black" mask="url(#path-1-inside-1)"/>
<mask id="path-3-inside-2" fill="white">
<path fill-rule="evenodd" clip-rule="evenodd" d="M104.205 100C82.7215 100 65.3058 83.4137 65.3058 62.9534C65.3058 42.4931 82.7215 25.9067 104.205 25.9067C125.688 25.9067 143.104 42.4931 143.104 62.9534C143.104 68.2339 141.944 73.2563 139.853 77.8022L152.917 99.3524L105.565 100L105.582 99.9772C105.125 99.9924 104.666 100 104.205 100Z"/>
</mask>
<path fill-rule="evenodd" clip-rule="evenodd" d="M104.205 100C82.7215 100 65.3058 83.4137 65.3058 62.9534C65.3058 42.4931 82.7215 25.9067 104.205 25.9067C125.688 25.9067 143.104 42.4931 143.104 62.9534C143.104 68.2339 141.944 73.2563 139.853 77.8022L152.917 99.3524L105.565 100L105.582 99.9772C105.125 99.9924 104.666 100 104.205 100Z" fill="#FAFAFA"/>
<path d="M139.853 77.8022L138.998 78.3206L138.723 77.8667L138.945 77.3844L139.853 77.8022ZM152.917 99.3524L153.772 98.834L154.678 100.328L152.931 100.352L152.917 99.3524ZM105.565 100L105.579 101L103.546 101.028L104.765 99.4005L105.565 100ZM105.582 99.9772L105.549 98.9778L107.632 98.9088L106.382 100.577L105.582 99.9772ZM66.3058 62.9534C66.3058 82.816 83.2272 99 104.205 99V101C82.2157 101 64.3058 84.0114 64.3058 62.9534H66.3058ZM104.205 26.9067C83.2272 26.9067 66.3058 43.0908 66.3058 62.9534H64.3058C64.3058 41.8954 82.2157 24.9067 104.205 24.9067V26.9067ZM142.104 62.9534C142.104 43.0908 125.182 26.9067 104.205 26.9067V24.9067C126.194 24.9067 144.104 41.8954 144.104 62.9534H142.104ZM138.945 77.3844C140.977 72.9659 142.104 68.0857 142.104 62.9534H144.104C144.104 68.382 142.911 73.5467 140.762 78.22L138.945 77.3844ZM152.062 99.8708L138.998 78.3206L140.708 77.2838L153.772 98.834L152.062 99.8708ZM105.551 99.0001L152.904 98.3524L152.931 100.352L105.579 101L105.551 99.0001ZM106.382 100.577L106.365 100.6L104.765 99.4005L104.782 99.3777L106.382 100.577ZM104.205 99C104.655 99 105.103 98.9925 105.549 98.9778L105.615 100.977C105.147 100.992 104.677 101 104.205 101V99Z" fill="black" mask="url(#path-3-inside-2)"/>
<path d="M42.1492 32.5991V33.4695H44.0228V32.6861C44.0228 30.597 45.7366 29.6177 47.8159 29.6177C49.8724 29.6177 51.4947 30.597 51.4947 32.3815C51.4947 33.9701 50.6036 34.6664 48.9584 35.3193L48.3186 35.5804C46.9019 36.1462 46.6049 36.8861 46.6049 38.1918V39.454H48.4557V38.2353C48.4557 37.5172 48.6613 37.1908 49.2554 36.9296L49.9181 36.6685C51.7689 35.9286 53.3684 34.7752 53.3684 32.425V32.2726C53.3684 29.7918 51.0606 27.9856 47.8159 27.9856C44.5255 27.9856 42.1492 29.6612 42.1492 32.5991ZM45.9422 42.3265C45.9422 43.197 46.6277 43.8281 47.5189 43.8281C48.4328 43.8281 49.0955 43.197 49.0955 42.3265C49.0955 41.4561 48.4328 40.825 47.5189 40.825C46.6277 40.825 45.9422 41.4561 45.9422 42.3265Z" fill="black"/>
<path d="M96.9832 61.4974C96.9832 62.3679 97.6458 62.999 98.5598 62.999C99.4509 62.999 100.136 62.3679 100.136 61.4974C100.136 60.6269 99.4509 59.9958 98.5598 59.9958C97.6458 59.9958 96.9832 60.6269 96.9832 61.4974Z" fill="black"/>
<path d="M102.539 61.4974C102.539 62.3679 103.202 62.999 104.116 62.999C105.007 62.999 105.693 62.3679 105.693 61.4974C105.693 60.6269 105.007 59.9958 104.116 59.9958C103.202 59.9958 102.539 60.6269 102.539 61.4974Z" fill="black"/>
<path d="M108.096 61.4974C108.096 62.3679 108.758 62.999 109.672 62.999C110.563 62.999 111.249 62.3679 111.249 61.4974C111.249 60.6269 110.563 59.9958 109.672 59.9958C108.758 59.9958 108.096 60.6269 108.096 61.4974Z" fill="black"/>
</svg>
