<svg width="26" height="20" viewBox="0 0 26 20" fill="none" xmlns="http://www.w3.org/2000/svg">
<path d="M18.5714 7.14286C18.5714 3.19643 14.4152 0 9.28571 0C4.15625 0 0 3.19643 0 7.14286C0 8.67411 0.629464 10.0848 1.69643 11.25C1.09821 12.5982 0.111607 13.6696 0.0982143 13.683C0 13.7857 -0.0267857 13.9375 0.03125 14.0714C0.0892857 14.2054 0.214286 14.2857 0.357143 14.2857C1.99107 14.2857 3.34375 13.7366 4.31696 13.1696C5.75446 13.8705 7.45536 14.2857 9.28571 14.2857C14.4152 14.2857 18.5714 11.0893 18.5714 7.14286ZM24.0179 16.9643C25.0848 15.8036 25.7143 14.3884 25.7143 12.8571C25.7143 9.87054 23.3259 7.3125 19.942 6.24554C19.9821 6.54018 20 6.83929 20 7.14286C20 11.8705 15.192 15.7143 9.28571 15.7143C8.80357 15.7143 8.33482 15.6786 7.87054 15.6295C9.27678 18.1964 12.5804 20 16.4286 20C18.2589 20 19.9598 19.5893 21.3973 18.8839C22.3705 19.4509 23.7232 20 25.3571 20C25.5 20 25.6295 19.9152 25.683 19.7857C25.7411 19.6563 25.7143 19.5045 25.6161 19.3973C25.6027 19.3839 24.6161 18.317 24.0179 16.9643Z" fill="white"/>
</svg>
