<svg width="32" height="26" viewBox="0 0 32 26" fill="none" xmlns="http://www.w3.org/2000/svg">
<path d="M0 11.1999V24.7999C0 25.2419 0.358 25.5999 0.8 25.5999H4.8V9.59988H1.6C0.7165 9.59988 0 10.3164 0 11.1999ZM18 8.79988H16.8V6.79988C16.8 6.57888 16.621 6.39988 16.4 6.39988H15.6C15.379 6.39988 15.2 6.57888 15.2 6.79988V9.99988C15.2 10.2209 15.379 10.3999 15.6 10.3999H18C18.221 10.3999 18.4 10.2209 18.4 9.99988V9.19988C18.4 8.97888 18.221 8.79988 18 8.79988ZM24.8875 5.60188L16.8875 0.268382C16.6246 0.093298 16.3158 -0.00012207 16 -0.00012207C15.6842 -0.00012207 15.3754 0.093298 15.1125 0.268382L7.1125 5.60188C6.89338 5.74797 6.7137 5.94589 6.58941 6.17807C6.46512 6.41025 6.40006 6.66952 6.4 6.93288V25.5999H12.8V18.3999C12.8 17.9579 13.158 17.5999 13.6 17.5999H18.4C18.842 17.5999 19.2 17.9579 19.2 18.3999V25.5999H25.6V6.93338C25.6 6.39838 25.3325 5.89838 24.8875 5.60188ZM16 12.7999C13.791 12.7999 12 11.0089 12 8.79988C12 6.59088 13.791 4.79988 16 4.79988C18.209 4.79988 20 6.59088 20 8.79988C20 11.0089 18.209 12.7999 16 12.7999ZM30.4 9.59988H27.2V25.5999H31.2C31.642 25.5999 32 25.2419 32 24.7999V11.1999C32 10.3164 31.2835 9.59988 30.4 9.59988Z" fill="#3D32D9"/>
</svg>
