<svg width="97" height="22" viewBox="0 0 97 22" fill="none" xmlns="http://www.w3.org/2000/svg">
<path d="M9.2572 22C6.54913 22 4.44839 21.3134 2.95497 19.9403C1.46155 18.5672 0.714844 16.4876 0.714844 13.7015V1.55224C0.714844 1.33333 0.77458 1.15423 0.894054 1.01493C1.03344 0.875622 1.21265 0.80597 1.43168 0.80597H4.17958C4.39861 0.80597 4.57782 0.875622 4.71721 1.01493C4.85659 1.15423 4.92628 1.33333 4.92628 1.55224V13.7015C4.92628 15.2736 5.29466 16.4577 6.03141 17.2537C6.78808 18.0498 7.85339 18.4478 9.22733 18.4478C10.6013 18.4478 11.6566 18.0498 12.3934 17.2537C13.15 16.4577 13.5284 15.2736 13.5284 13.7015V1.55224C13.5284 1.33333 13.5981 1.15423 13.7375 1.01493C13.8768 0.875622 14.0561 0.80597 14.2751 0.80597H17.023C17.242 0.80597 17.4113 0.875622 17.5307 1.01493C17.6701 1.15423 17.7398 1.33333 17.7398 1.55224V13.7015C17.7398 16.4876 16.9931 18.5672 15.4997 19.9403C14.0262 21.3134 11.9454 22 9.2572 22Z" fill="#324BD9"/>
<path d="M22.3671 21.7015C22.168 21.7015 21.9987 21.6318 21.8593 21.4925C21.72 21.3532 21.6503 21.1841 21.6503 20.9851V6.89552C21.6503 6.67662 21.72 6.50746 21.8593 6.38806C21.9987 6.24876 22.168 6.1791 22.3671 6.1791H24.8462C25.0652 6.1791 25.2345 6.24876 25.3539 6.38806C25.4933 6.50746 25.563 6.67662 25.563 6.89552V8.1194C26.7777 6.62687 28.4403 5.8806 30.551 5.8806C32.383 5.8806 33.8366 6.47761 34.9118 7.67164C35.9871 8.86567 36.5247 10.5075 36.5247 12.597V20.9851C36.5247 21.1841 36.455 21.3532 36.3156 21.4925C36.1962 21.6318 36.0269 21.7015 35.8079 21.7015H33.1197C32.9206 21.7015 32.7514 21.6318 32.612 21.4925C32.4726 21.3532 32.4029 21.1841 32.4029 20.9851V12.7761C32.4029 11.6219 32.1142 10.7264 31.5367 10.0896C30.9792 9.43284 30.1727 9.10448 29.1174 9.10448C28.1018 9.10448 27.2854 9.43284 26.6682 10.0896C26.0509 10.7463 25.7422 11.6418 25.7422 12.7761V20.9851C25.7422 21.1841 25.6725 21.3532 25.5332 21.4925C25.4137 21.6318 25.2444 21.7015 25.0254 21.7015H22.3671Z" fill="#324BD9"/>
<path d="M40.9154 3.64179C40.7162 3.64179 40.547 3.57214 40.4076 3.43284C40.2682 3.29353 40.1985 3.12438 40.1985 2.92537V0.74627C40.1985 0.527363 40.2682 0.348259 40.4076 0.208956C40.547 0.069652 40.7162 0 40.9154 0H43.6633C43.8823 0 44.0615 0.069652 44.2009 0.208956C44.3403 0.348259 44.41 0.527363 44.41 0.74627V2.92537C44.41 3.12438 44.3303 3.29353 44.171 3.43284C44.0316 3.57214 43.8624 3.64179 43.6633 3.64179H40.9154ZM41.0348 21.7015C40.8357 21.7015 40.6665 21.6318 40.5271 21.4925C40.3877 21.3532 40.318 21.1841 40.318 20.9851V6.89552C40.318 6.67662 40.3877 6.50746 40.5271 6.38806C40.6665 6.24876 40.8357 6.1791 41.0348 6.1791H43.5737C43.7728 6.1791 43.942 6.24876 44.0814 6.38806C44.2208 6.52736 44.2905 6.69652 44.2905 6.89552V20.9851C44.2905 21.1841 44.2208 21.3532 44.0814 21.4925C43.942 21.6318 43.7728 21.7015 43.5737 21.7015H41.0348Z" fill="#324BD9"/>
<path d="M53.9258 21.7015C53.6271 21.7015 53.3981 21.6418 53.2388 21.5224C53.0796 21.3831 52.9501 21.194 52.8506 20.9552L47.2353 7.10448C47.2154 7.04478 47.2054 6.95522 47.2054 6.83582C47.2054 6.65672 47.2652 6.50746 47.3846 6.38806C47.524 6.24876 47.6734 6.1791 47.8327 6.1791H50.3117C50.71 6.1791 50.9788 6.36816 51.1182 6.74627L55.0608 17.1642L59.0034 6.74627C59.0433 6.60697 59.1229 6.47761 59.2424 6.35821C59.3818 6.23881 59.561 6.1791 59.78 6.1791H62.2591C62.4383 6.1791 62.5877 6.24876 62.7071 6.38806C62.8266 6.50746 62.8863 6.65672 62.8863 6.83582C62.8863 6.95522 62.8764 7.04478 62.8565 7.10448L57.2711 20.9552C57.052 21.4527 56.6936 21.7015 56.1958 21.7015H53.9258Z" fill="#324BD9"/>
<path d="M64.6975 21.7015C64.4984 21.7015 64.3292 21.6418 64.1898 21.5224C64.0703 21.3831 64.0106 21.2139 64.0106 21.0149V18.9552C64.0106 18.7562 64.0703 18.5871 64.1898 18.4478C64.3292 18.3085 64.4984 18.2388 64.6975 18.2388H66.7585C66.9576 18.2388 67.1169 18.3085 67.2364 18.4478C67.3757 18.5871 67.4454 18.7562 67.4454 18.9552V21.0149C67.4454 21.2139 67.3757 21.3831 67.2364 21.5224C67.1169 21.6418 66.9576 21.7015 66.7585 21.7015H64.6975Z" fill="#324BD9"/>
<path d="M73.9136 21.7015C73.7543 21.7015 73.6149 21.6418 73.4954 21.5224C73.376 21.403 73.3162 21.2637 73.3162 21.1045L73.376 20.7761L80.9327 1.40299C81.092 1.00498 81.3807 0.80597 81.7989 0.80597H82.8144C83.2325 0.80597 83.5213 1.00498 83.6806 1.40299L91.2373 20.7761L91.297 21.1045C91.297 21.2637 91.2373 21.403 91.1178 21.5224C90.9983 21.6418 90.8589 21.7015 90.6996 21.7015H90.1023C89.923 21.7015 89.7737 21.6517 89.6542 21.5522C89.5547 21.4527 89.485 21.3532 89.4452 21.2537L87.5933 16.4776H77.0199L75.1681 21.2537C75.1282 21.3532 75.0486 21.4527 74.9291 21.5522C74.8296 21.6517 74.6902 21.7015 74.511 21.7015H73.9136ZM77.7368 14.6866H86.8765L82.3066 2.92537L77.7368 14.6866Z" fill="#324BD9"/>
<path d="M95.4902 21.7015C95.2911 21.7015 95.1318 21.6418 95.0123 21.5224C94.8929 21.403 94.8331 21.2438 94.8331 21.0448V1.46269C94.8331 1.26368 94.8929 1.10448 95.0123 0.985076C95.1318 0.865672 95.2911 0.80597 95.4902 0.80597H96.0577C96.2569 0.80597 96.4162 0.865672 96.5356 0.985076C96.6551 1.10448 96.7148 1.26368 96.7148 1.46269V21.0448C96.7148 21.2438 96.6551 21.403 96.5356 21.5224C96.4162 21.6418 96.2569 21.7015 96.0577 21.7015H95.4902Z" fill="#324BD9"/>
</svg>
