<svg width="32" height="32" viewBox="0 0 32 32" fill="none" xmlns="http://www.w3.org/2000/svg">
<path d="M21.7136 9.80645C20.7781 4.04516 18.5716 0 16.0039 0C13.4362 0 11.2297 4.04516 10.2942 9.80645H21.7136ZM9.81036 16C9.81036 17.4323 9.88778 18.8065 10.0233 20.129H21.9781C22.1136 18.8065 22.191 17.4323 22.191 16C22.191 14.5677 22.1136 13.1935 21.9781 11.871H10.0233C9.88778 13.1935 9.81036 14.5677 9.81036 16ZM30.7587 9.80645C28.9136 5.42581 25.1781 2.03871 20.5652 0.670968C22.1394 2.85161 23.2233 6.13548 23.791 9.80645H30.7587ZM11.4362 0.670968C6.82971 2.03871 3.08778 5.42581 1.24907 9.80645H8.21681C8.7781 6.13548 9.86197 2.85161 11.4362 0.670968V0.670968ZM31.4491 11.871H24.0491C24.1846 13.2258 24.262 14.6129 24.262 16C24.262 17.3871 24.1846 18.7742 24.0491 20.129H31.4426C31.7975 18.8065 31.9975 17.4323 31.9975 16C31.9975 14.5677 31.7975 13.1935 31.4491 11.871ZM7.74584 16C7.74584 14.6129 7.82326 13.2258 7.95874 11.871H0.558745C0.210358 13.1935 0.00390625 14.5677 0.00390625 16C0.00390625 17.4323 0.210358 18.8065 0.558745 20.129H7.95229C7.82326 18.7742 7.74584 17.3871 7.74584 16V16ZM10.2942 22.1935C11.2297 27.9548 13.4362 32 16.0039 32C18.5716 32 20.7781 27.9548 21.7136 22.1935H10.2942ZM20.5716 31.329C25.1781 29.9613 28.92 26.5742 30.7652 22.1935H23.7975C23.2297 25.8645 22.1458 29.1484 20.5716 31.329ZM1.24907 22.1935C3.09423 26.5742 6.82971 29.9613 11.4426 31.329C9.86842 29.1484 8.78455 25.8645 8.21681 22.1935H1.24907V22.1935Z" fill="#1E2029"/>
</svg>
