<svg width="214" height="120" viewBox="0 0 214 120" fill="none" xmlns="http://www.w3.org/2000/svg">
<rect width="213.6" height="120" fill="#FAFAFA"/>
<rect y="3" width="214" height="117" fill="#1D2A73"/>
<path d="M129.384 46.288C128.344 46.288 127.512 46.888 127.512 47.84C127.512 48.88 128.24 49.256 129.24 49.472L129.608 49.552C130.32 49.704 130.68 49.92 130.68 50.456C130.68 50.992 130.232 51.392 129.488 51.392C128.568 51.392 128.056 50.904 128.056 50.016V49.824H127.256V50.08C127.256 51.312 128.112 52.112 129.48 52.112C130.632 52.112 131.48 51.464 131.48 50.432C131.48 49.472 130.848 49.024 129.808 48.8L129.44 48.72C128.648 48.544 128.312 48.344 128.312 47.832C128.312 47.336 128.76 47.008 129.384 47.008C130.12 47.008 130.632 47.392 130.632 48.112V48.304H131.432V48.048C131.432 46.904 130.544 46.288 129.384 46.288ZM132.388 46.4V52H133.14V49.952C133.14 49.136 133.596 48.672 134.324 48.672C134.964 48.672 135.332 49.024 135.332 49.704V52H136.084V49.64C136.084 48.56 135.38 48.016 134.556 48.016C133.78 48.016 133.42 48.376 133.236 48.744H133.14V46.4H132.388ZM137.026 49.112L137.674 49.408C137.858 48.952 138.234 48.64 138.874 48.64C139.514 48.64 139.89 48.96 139.89 49.496V49.6L138.442 49.736C137.434 49.832 136.946 50.216 136.946 50.928C136.946 51.632 137.514 52.112 138.394 52.112C139.202 52.112 139.61 51.736 139.778 51.384H139.89V52H140.626V49.528C140.626 48.584 139.946 47.968 138.89 47.968C137.93 47.968 137.306 48.504 137.026 49.112ZM137.706 50.896C137.706 50.496 138.066 50.36 138.522 50.32L139.89 50.192V50.256C139.89 50.936 139.442 51.488 138.522 51.488C138.002 51.488 137.706 51.264 137.706 50.896ZM142.421 48.08H141.701V52H142.453V49.712C142.453 49.12 142.757 48.8 143.317 48.8H144.005V48.064H143.557C142.989 48.064 142.669 48.304 142.533 48.72H142.421V48.08ZM144.249 50.008C144.249 51.192 145.081 52.112 146.297 52.112C147.233 52.112 147.737 51.592 148.033 51.112L147.401 50.752C147.193 51.168 146.857 51.456 146.281 51.456C145.577 51.456 145.081 51.016 145.033 50.312H148.121V49.936C148.121 48.8 147.353 47.952 146.201 47.952C145.065 47.952 144.249 48.856 144.249 50.008ZM145.033 49.704C145.089 49.008 145.513 48.608 146.201 48.608C146.889 48.608 147.321 49.032 147.337 49.704H145.033ZM154.277 48.08L153.069 51.056H152.973L151.765 48.08H150.949L152.621 52.072L151.957 53.6H152.773L155.093 48.08H154.277ZM155.476 50.04C155.476 51.256 156.34 52.112 157.492 52.112C158.644 52.112 159.508 51.256 159.508 50.04C159.508 48.824 158.644 47.968 157.492 47.968C156.34 47.968 155.476 48.824 155.476 50.04ZM156.228 50.04C156.228 49.176 156.74 48.656 157.492 48.656C158.244 48.656 158.756 49.176 158.756 50.04C158.756 50.904 158.244 51.424 157.492 51.424C156.74 51.424 156.228 50.904 156.228 50.04ZM164.021 52V48.08H163.269V50.128C163.269 50.944 162.813 51.408 162.085 51.408C161.445 51.408 161.077 51.056 161.077 50.376V48.08H160.325V50.44C160.325 51.52 161.029 52.064 161.853 52.064C162.629 52.064 162.989 51.704 163.173 51.336H163.285V52H164.021ZM165.858 48.08H165.138V52H165.89V49.712C165.89 49.12 166.194 48.8 166.754 48.8H167.442V48.064H166.994C166.426 48.064 166.106 48.304 165.97 48.72H165.858V48.08ZM171.296 46.4H170.544V52H171.296V46.4ZM172.187 46.88C172.187 47.216 172.459 47.472 172.795 47.472C173.131 47.472 173.403 47.216 173.403 46.88C173.403 46.544 173.131 46.288 172.795 46.288C172.459 46.288 172.187 46.544 172.187 46.88ZM173.171 48.08H172.419V52H173.171V48.08ZM174.294 48.08V52H175.046V49.952C175.046 49.136 175.502 48.672 176.23 48.672C176.87 48.672 177.238 49.024 177.238 49.704V52H177.99V49.64C177.99 48.56 177.286 48.016 176.462 48.016C175.686 48.016 175.326 48.376 175.142 48.744H175.03V48.08H174.294ZM182.964 48.08H181.86L179.908 49.736H179.812V46.4H179.06V52H179.812V50.728L180.62 50.056L182.028 52H182.932L181.164 49.592L182.964 48.08ZM185.637 48.08L187.101 52H188.173L189.637 48.08H188.821L187.685 51.28H187.589L186.453 48.08H185.637ZM190.125 46.88C190.125 47.216 190.397 47.472 190.733 47.472C191.069 47.472 191.341 47.216 191.341 46.88C191.341 46.544 191.069 46.288 190.733 46.288C190.397 46.288 190.125 46.544 190.125 46.88ZM191.109 48.08H190.357V52H191.109V48.08ZM192.104 49.112L192.752 49.408C192.936 48.952 193.312 48.64 193.952 48.64C194.592 48.64 194.968 48.96 194.968 49.496V49.6L193.52 49.736C192.512 49.832 192.024 50.216 192.024 50.928C192.024 51.632 192.592 52.112 193.472 52.112C194.28 52.112 194.688 51.736 194.856 51.384H194.968V52H195.704V49.528C195.704 48.584 195.024 47.968 193.968 47.968C193.008 47.968 192.384 48.504 192.104 49.112ZM192.784 50.896C192.784 50.496 193.144 50.36 193.6 50.32L194.968 50.192V50.256C194.968 50.936 194.52 51.488 193.6 51.488C193.08 51.488 192.784 51.264 192.784 50.896ZM127.48 59.128C127.48 59.872 128.064 60.16 128.944 60.288L129.272 60.336C129.696 60.4 130.2 60.432 130.2 60.84C130.2 61.224 129.8 61.472 129.24 61.472C128.6 61.472 128.096 61.112 127.848 60.52L127.176 60.88C127.48 61.456 128.104 62.112 129.216 62.112C130.224 62.112 130.944 61.6 130.944 60.816C130.944 60 130.248 59.784 129.36 59.656L129.032 59.608C128.608 59.544 128.224 59.504 128.224 59.12C128.224 58.784 128.552 58.592 128.992 58.592C129.456 58.592 129.928 58.808 130.36 59.368L130.92 58.968C130.304 58.28 129.776 57.968 128.976 57.968C128.176 57.968 127.48 58.384 127.48 59.128ZM131.523 60.04C131.523 61.256 132.387 62.112 133.539 62.112C134.691 62.112 135.555 61.256 135.555 60.04C135.555 58.824 134.691 57.968 133.539 57.968C132.387 57.968 131.523 58.824 131.523 60.04ZM132.275 60.04C132.275 59.176 132.787 58.656 133.539 58.656C134.291 58.656 134.803 59.176 134.803 60.04C134.803 60.904 134.291 61.424 133.539 61.424C132.787 61.424 132.275 60.904 132.275 60.04ZM136.163 60.04C136.163 61.24 137.027 62.112 138.211 62.112C139.371 62.112 139.939 61.336 140.115 60.592L139.371 60.448C139.267 60.952 138.963 61.424 138.211 61.424C137.443 61.424 136.915 60.872 136.915 60.04C136.915 59.208 137.443 58.656 138.195 58.656C138.891 58.656 139.299 59.088 139.363 59.64L140.099 59.488C139.939 58.616 139.251 57.968 138.195 57.968C137.027 57.968 136.163 58.84 136.163 60.04ZM140.719 56.88C140.719 57.216 140.991 57.472 141.327 57.472C141.663 57.472 141.935 57.216 141.935 56.88C141.935 56.544 141.663 56.288 141.327 56.288C140.991 56.288 140.719 56.544 140.719 56.88ZM141.703 58.08H140.951V62H141.703V58.08ZM142.698 59.112L143.346 59.408C143.53 58.952 143.906 58.64 144.546 58.64C145.186 58.64 145.562 58.96 145.562 59.496V59.6L144.114 59.736C143.106 59.832 142.618 60.216 142.618 60.928C142.618 61.632 143.186 62.112 144.066 62.112C144.874 62.112 145.282 61.736 145.45 61.384H145.562V62H146.298V59.528C146.298 58.584 145.618 57.968 144.562 57.968C143.602 57.968 142.978 58.504 142.698 59.112ZM143.378 60.896C143.378 60.496 143.738 60.36 144.194 60.32L145.562 60.192V60.256C145.562 60.936 145.114 61.488 144.194 61.488C143.674 61.488 143.378 61.264 143.378 60.896ZM148.125 56.4H147.373V62H148.125V56.4ZM151.646 58.08V62H152.398V59.552C152.398 58.96 152.79 58.656 153.294 58.656C153.75 58.656 154.062 58.912 154.062 59.368V62H154.814V59.552C154.814 58.96 155.182 58.656 155.67 58.656C156.134 58.656 156.478 58.912 156.478 59.368V62H157.23V59.32C157.23 58.512 156.598 58.016 155.902 58.016C155.262 58.016 154.926 58.344 154.766 58.672H154.654C154.462 58.312 154.134 58.016 153.566 58.016C153.046 58.016 152.694 58.256 152.494 58.592H152.382V58.08H151.646ZM158.046 60.008C158.046 61.192 158.878 62.112 160.094 62.112C161.03 62.112 161.534 61.592 161.83 61.112L161.198 60.752C160.99 61.168 160.654 61.456 160.078 61.456C159.374 61.456 158.878 61.016 158.83 60.312H161.918V59.936C161.918 58.8 161.15 57.952 159.998 57.952C158.862 57.952 158.046 58.856 158.046 60.008ZM158.83 59.704C158.886 59.008 159.31 58.608 159.998 58.608C160.686 58.608 161.118 59.032 161.134 59.704H158.83ZM166.524 56.4H165.772V58.696H165.676C165.46 58.336 165.1 57.968 164.332 57.968C163.3 57.968 162.492 58.824 162.492 60.04C162.492 61.256 163.3 62.112 164.332 62.112C165.1 62.112 165.46 61.744 165.676 61.384H165.788V62H166.524V56.4ZM164.524 58.64C165.292 58.64 165.772 59.176 165.772 60.04C165.772 60.904 165.292 61.44 164.524 61.44C163.772 61.44 163.243 60.936 163.243 60.04C163.243 59.144 163.772 58.64 164.524 58.64ZM167.414 56.88C167.414 57.216 167.686 57.472 168.022 57.472C168.358 57.472 168.63 57.216 168.63 56.88C168.63 56.544 168.358 56.288 168.022 56.288C167.686 56.288 167.414 56.544 167.414 56.88ZM168.398 58.08H167.646V62H168.398V58.08ZM169.393 59.112L170.041 59.408C170.225 58.952 170.601 58.64 171.241 58.64C171.881 58.64 172.257 58.96 172.257 59.496V59.6L170.809 59.736C169.801 59.832 169.313 60.216 169.313 60.928C169.313 61.632 169.881 62.112 170.761 62.112C171.569 62.112 171.977 61.736 172.145 61.384H172.257V62H172.993V59.528C172.993 58.584 172.313 57.968 171.257 57.968C170.297 57.968 169.673 58.504 169.393 59.112ZM170.073 60.896C170.073 60.496 170.433 60.36 170.889 60.32L172.257 60.192V60.256C172.257 60.936 171.809 61.488 170.889 61.488C170.369 61.488 170.073 61.264 170.073 60.896Z" fill="white"/>
<path d="M18.576 26.432C17.016 26.432 15.768 27.332 15.768 28.76C15.768 30.32 16.86 30.884 18.36 31.208L18.912 31.328C19.98 31.556 20.52 31.88 20.52 32.684C20.52 33.488 19.848 34.088 18.732 34.088C17.352 34.088 16.584 33.356 16.584 32.024V31.736H15.384V32.12C15.384 33.968 16.668 35.168 18.72 35.168C20.448 35.168 21.72 34.196 21.72 32.648C21.72 31.208 20.772 30.536 19.212 30.2L18.66 30.08C17.472 29.816 16.968 29.516 16.968 28.748C16.968 28.004 17.64 27.512 18.576 27.512C19.68 27.512 20.448 28.088 20.448 29.168V29.456H21.648V29.072C21.648 27.356 20.316 26.432 18.576 26.432ZM23.0822 26.6V35H24.2102V31.928C24.2102 30.704 24.8942 30.008 25.9862 30.008C26.9462 30.008 27.4982 30.536 27.4982 31.556V35H28.6262V31.46C28.6262 29.84 27.5702 29.024 26.3342 29.024C25.1702 29.024 24.6302 29.564 24.3542 30.116H24.2102V26.6H23.0822ZM30.0386 30.668L31.0106 31.112C31.2866 30.428 31.8506 29.96 32.8106 29.96C33.7706 29.96 34.3346 30.44 34.3346 31.244V31.4L32.1626 31.604C30.6506 31.748 29.9186 32.324 29.9186 33.392C29.9186 34.448 30.7706 35.168 32.0906 35.168C33.3026 35.168 33.9146 34.604 34.1666 34.076H34.3346V35H35.4386V31.292C35.4386 29.876 34.4186 28.952 32.8346 28.952C31.3946 28.952 30.4586 29.756 30.0386 30.668ZM31.0586 33.344C31.0586 32.744 31.5986 32.54 32.2826 32.48L34.3346 32.288V32.384C34.3346 33.404 33.6626 34.232 32.2826 34.232C31.5026 34.232 31.0586 33.896 31.0586 33.344ZM38.1309 29.12H37.0509V35H38.1789V31.568C38.1789 30.68 38.6349 30.2 39.4749 30.2H40.5069V29.096H39.8349C38.9829 29.096 38.5029 29.456 38.2989 30.08H38.1309V29.12ZM40.874 32.012C40.874 33.788 42.122 35.168 43.946 35.168C45.35 35.168 46.106 34.388 46.55 33.668L45.602 33.128C45.29 33.752 44.786 34.184 43.922 34.184C42.866 34.184 42.122 33.524 42.05 32.468H46.682V31.904C46.682 30.2 45.53 28.928 43.802 28.928C42.098 28.928 40.874 30.284 40.874 32.012ZM42.05 31.556C42.134 30.512 42.77 29.912 43.802 29.912C44.834 29.912 45.482 30.548 45.506 31.556H42.05ZM55.9156 29.12L54.1036 33.584H53.9596L52.1476 29.12H50.9236L53.4316 35.108L52.4356 37.4H53.6596L57.1396 29.12H55.9156ZM57.7138 32.06C57.7138 33.884 59.0098 35.168 60.7378 35.168C62.4658 35.168 63.7618 33.884 63.7618 32.06C63.7618 30.236 62.4658 28.952 60.7378 28.952C59.0098 28.952 57.7138 30.236 57.7138 32.06ZM58.8418 32.06C58.8418 30.764 59.6098 29.984 60.7378 29.984C61.8658 29.984 62.6338 30.764 62.6338 32.06C62.6338 33.356 61.8658 34.136 60.7378 34.136C59.6098 34.136 58.8418 33.356 58.8418 32.06ZM70.5308 35V29.12H69.4028V32.192C69.4028 33.416 68.7188 34.112 67.6268 34.112C66.6668 34.112 66.1148 33.584 66.1148 32.564V29.12H64.9868V32.66C64.9868 34.28 66.0428 35.096 67.2788 35.096C68.4428 35.096 68.9828 34.556 69.2588 34.004H69.4268V35H70.5308ZM73.2872 29.12H72.2072V35H73.3352V31.568C73.3352 30.68 73.7912 30.2 74.6312 30.2H75.6632V29.096H74.9912C74.1392 29.096 73.6592 29.456 73.4552 30.08H73.2872V29.12ZM16.92 43.12H15.84V49H16.968V45.568C16.968 44.68 17.424 44.2 18.264 44.2H19.296V43.096H18.624C17.772 43.096 17.292 43.456 17.088 44.08H16.92V43.12ZM19.663 46.012C19.663 47.788 20.911 49.168 22.735 49.168C24.139 49.168 24.895 48.388 25.339 47.668L24.391 47.128C24.079 47.752 23.575 48.184 22.711 48.184C21.655 48.184 20.911 47.524 20.839 46.468H25.471V45.904C25.471 44.2 24.319 42.928 22.591 42.928C20.887 42.928 19.663 44.284 19.663 46.012ZM20.839 45.556C20.923 44.512 21.559 43.912 22.591 43.912C23.623 43.912 24.271 44.548 24.295 45.556H20.839ZM25.9844 43.12V44.104H27.6164V49H28.7444V44.104H30.4244V43.12H28.7444V41.92C28.7444 41.68 28.8404 41.584 29.0564 41.584H30.1124V40.6H28.6244C28.0244 40.6 27.6164 41.008 27.6164 41.632V43.12H25.9844ZM30.9951 46.012C30.9951 47.788 32.2431 49.168 34.0671 49.168C35.4711 49.168 36.2271 48.388 36.6711 47.668L35.7231 47.128C35.4111 47.752 34.9071 48.184 34.0431 48.184C32.9871 48.184 32.2431 47.524 32.1711 46.468H36.8031V45.904C36.8031 44.2 35.6511 42.928 33.9231 42.928C32.2191 42.928 30.9951 44.284 30.9951 46.012ZM32.1711 45.556C32.2551 44.512 32.8911 43.912 33.9231 43.912C34.9551 43.912 35.6031 44.548 35.6271 45.556H32.1711ZM39.127 43.12H38.047V49H39.175V45.568C39.175 44.68 39.631 44.2 40.471 44.2H41.503V43.096H40.831C39.979 43.096 39.499 43.456 39.295 44.08H39.127V43.12ZM43.6388 43.12H42.5588V49H43.6868V45.568C43.6868 44.68 44.1428 44.2 44.9828 44.2H46.0148V43.096H45.3428C44.4908 43.096 44.0108 43.456 43.8068 44.08H43.6388V43.12ZM46.8199 44.668L47.7919 45.112C48.0679 44.428 48.6319 43.96 49.5919 43.96C50.5519 43.96 51.1159 44.44 51.1159 45.244V45.4L48.9439 45.604C47.4319 45.748 46.6999 46.324 46.6999 47.392C46.6999 48.448 47.5519 49.168 48.8719 49.168C50.0839 49.168 50.6959 48.604 50.9479 48.076H51.1159V49H52.2199V45.292C52.2199 43.876 51.1999 42.952 49.6159 42.952C48.1759 42.952 47.2399 43.756 46.8199 44.668ZM47.8399 47.344C47.8399 46.744 48.3799 46.54 49.0639 46.48L51.1159 46.288V46.384C51.1159 47.404 50.4439 48.232 49.0639 48.232C48.2839 48.232 47.8399 47.896 47.8399 47.344ZM54.9602 40.6H53.8322V49H54.9602V40.6ZM61.3703 40.6H60.2423V49H61.3703V40.6ZM62.7068 41.32C62.7068 41.824 63.1148 42.208 63.6188 42.208C64.1228 42.208 64.5308 41.824 64.5308 41.32C64.5308 40.816 64.1228 40.432 63.6188 40.432C63.1148 40.432 62.7068 40.816 62.7068 41.32ZM64.1828 43.12H63.0548V49H64.1828V43.12ZM65.8673 43.12V49H66.9953V45.928C66.9953 44.704 67.6793 44.008 68.7713 44.008C69.7313 44.008 70.2833 44.536 70.2833 45.556V49H71.4113V45.46C71.4113 43.84 70.3553 43.024 69.1193 43.024C67.9553 43.024 67.4153 43.564 67.1393 44.116H66.9713V43.12H65.8673ZM78.8718 43.12H77.2158L74.2878 45.604H74.1438V40.6H73.0158V49H74.1438V47.092L75.3558 46.084L77.4678 49H78.8238L76.1718 45.388L78.8718 43.12Z" fill="white"/>
<rect x="16.5" y="64.5" width="79" height="9" stroke="white"/>
<rect x="16.5" y="78.5" width="79" height="22" stroke="white"/>
<rect x="127" y="72" width="8" height="8" rx="1" fill="white"/>
<rect x="142" y="72" width="8" height="8" rx="1" fill="white"/>
<rect x="157" y="72" width="8" height="8" rx="1" fill="white"/>
</svg>
