<svg width="214" height="120" viewBox="0 0 214 120" fill="none" xmlns="http://www.w3.org/2000/svg">
<rect width="213.6" height="120" fill="#FAFAFA"/>
<rect y="50" width="214" height="70" fill="#1D2A73"/>
<rect y="3" width="214" height="47" fill="#1E2029"/>
<rect x="118.5" y="67.5" width="79" height="9" stroke="white"/>
<rect x="118.5" y="81.5" width="79" height="9" stroke="white"/>
<rect x="16.8003" y="14" width="51" height="4.8" fill="#B7B7B7"/>
<rect x="16.8003" y="24.7998" width="87" height="13.8" fill="#B7B7B7"/>
<path d="M17.72 67V74H22.24V73.08H18.72V70.95H21.92V70.03H18.72V67.92H22.2V67H17.72ZM23.3445 69.1V74H24.2845V71.44C24.2845 70.42 24.8545 69.84 25.7645 69.84C26.5645 69.84 27.0245 70.28 27.0245 71.13V74H27.9645V71.05C27.9645 69.7 27.0845 69.02 26.0545 69.02C25.0845 69.02 24.6345 69.47 24.4045 69.93H24.2645V69.1H23.3445ZM28.6439 69.1V69.92H30.0039V73.16C30.0039 73.66 30.3439 74 30.8239 74H32.1039V73.18H31.2039C31.0239 73.18 30.9439 73.1 30.9439 72.9V69.92H32.3839V69.1H30.9439V67.4H30.0039V69.1H28.6439ZM32.9952 71.51C32.9952 72.99 34.0352 74.14 35.5552 74.14C36.7252 74.14 37.3552 73.49 37.7252 72.89L36.9352 72.44C36.6752 72.96 36.2552 73.32 35.5352 73.32C34.6552 73.32 34.0352 72.77 33.9752 71.89H37.8352V71.42C37.8352 70 36.8752 68.94 35.4352 68.94C34.0152 68.94 32.9952 70.07 32.9952 71.51ZM33.9752 71.13C34.0452 70.26 34.5752 69.76 35.4352 69.76C36.2952 69.76 36.8352 70.29 36.8552 71.13H33.9752ZM39.7719 69.1H38.8719V74H39.8119V71.14C39.8119 70.4 40.1919 70 40.8919 70H41.7519V69.08H41.1919C40.4819 69.08 40.0819 69.38 39.9119 69.9H39.7719V69.1ZM49.2897 69.1L47.7797 72.82H47.6597L46.1497 69.1H45.1297L47.2197 74.09L46.3897 76H47.4097L50.3097 69.1H49.2897ZM50.7882 71.55C50.7882 73.07 51.8682 74.14 53.3082 74.14C54.7482 74.14 55.8282 73.07 55.8282 71.55C55.8282 70.03 54.7482 68.96 53.3082 68.96C51.8682 68.96 50.7882 70.03 50.7882 71.55ZM51.7282 71.55C51.7282 70.47 52.3682 69.82 53.3082 69.82C54.2482 69.82 54.8882 70.47 54.8882 71.55C54.8882 72.63 54.2482 73.28 53.3082 73.28C52.3682 73.28 51.7282 72.63 51.7282 71.55ZM61.469 74V69.1H60.529V71.66C60.529 72.68 59.959 73.26 59.049 73.26C58.249 73.26 57.789 72.82 57.789 71.97V69.1H56.849V72.05C56.849 73.4 57.729 74.08 58.759 74.08C59.729 74.08 60.179 73.63 60.409 73.17H60.549V74H61.469ZM63.766 69.1H62.866V74H63.806V71.14C63.806 70.4 64.186 70 64.886 70H65.746V69.08H65.186C64.476 69.08 64.076 69.38 63.906 69.9H63.766V69.1ZM74.3438 67H73.4038V69.87H73.2838C73.0138 69.42 72.5638 68.96 71.6038 68.96C70.3138 68.96 69.3038 70.03 69.3038 71.55C69.3038 73.07 70.3138 74.14 71.6038 74.14C72.5638 74.14 73.0138 73.68 73.2838 73.23H73.4238V74H74.3438V67ZM71.8438 69.8C72.8038 69.8 73.4038 70.47 73.4038 71.55C73.4038 72.63 72.8038 73.3 71.8438 73.3C70.9038 73.3 70.2438 72.67 70.2438 71.55C70.2438 70.43 70.9038 69.8 71.8438 69.8ZM75.4269 71.51C75.4269 72.99 76.4669 74.14 77.9869 74.14C79.1569 74.14 79.7869 73.49 80.1569 72.89L79.3669 72.44C79.1069 72.96 78.6869 73.32 77.9669 73.32C77.0869 73.32 76.4669 72.77 76.4069 71.89H80.2669V71.42C80.2669 70 79.3069 68.94 77.8669 68.94C76.4469 68.94 75.4269 70.07 75.4269 71.51ZM76.4069 71.13C76.4769 70.26 77.0069 69.76 77.8669 69.76C78.7269 69.76 79.2669 70.29 79.2869 71.13H76.4069ZM80.6947 69.1V69.92H82.0547V73.16C82.0547 73.66 82.3947 74 82.8747 74H84.1547V73.18H83.2547C83.0747 73.18 82.9947 73.1 82.9947 72.9V69.92H84.4347V69.1H82.9947V67.4H82.0547V69.1H80.6947ZM85.2548 70.39L86.0648 70.76C86.2948 70.19 86.7648 69.8 87.5648 69.8C88.3648 69.8 88.8348 70.2 88.8348 70.87V71L87.0248 71.17C85.7648 71.29 85.1548 71.77 85.1548 72.66C85.1548 73.54 85.8648 74.14 86.9648 74.14C87.9748 74.14 88.4848 73.67 88.6948 73.23H88.8348V74H89.7548V70.91C89.7548 69.73 88.9048 68.96 87.5848 68.96C86.3848 68.96 85.6048 69.63 85.2548 70.39ZM86.1048 72.62C86.1048 72.12 86.5548 71.95 87.1248 71.9L88.8348 71.74V71.82C88.8348 72.67 88.2748 73.36 87.1248 73.36C86.4748 73.36 86.1048 73.08 86.1048 72.62ZM90.8084 67.6C90.8084 68.02 91.1484 68.34 91.5684 68.34C91.9884 68.34 92.3284 68.02 92.3284 67.6C92.3284 67.18 91.9884 66.86 91.5684 66.86C91.1484 66.86 90.8084 67.18 90.8084 67.6ZM92.0384 69.1H91.0984V74H92.0384V69.1ZM94.3822 67H93.4422V74H94.3822V67ZM95.6859 70.41C95.6859 71.34 96.4159 71.7 97.5159 71.86L97.9259 71.92C98.4559 72 99.0859 72.04 99.0859 72.55C99.0859 73.03 98.5859 73.34 97.8859 73.34C97.0859 73.34 96.4559 72.89 96.1459 72.15L95.3059 72.6C95.6859 73.32 96.4659 74.14 97.8559 74.14C99.1159 74.14 100.016 73.5 100.016 72.52C100.016 71.5 99.1459 71.23 98.0359 71.07L97.6259 71.01C97.0959 70.93 96.6159 70.88 96.6159 70.4C96.6159 69.98 97.0259 69.74 97.5759 69.74C98.1559 69.74 98.7459 70.01 99.2859 70.71L99.9859 70.21C99.2159 69.35 98.5559 68.96 97.5559 68.96C96.5559 68.96 95.6859 69.48 95.6859 70.41ZM17.14 81.1V81.92H18.5V85.16C18.5 85.66 18.84 86 19.32 86H20.6V85.18H19.7C19.52 85.18 19.44 85.1 19.44 84.9V81.92H20.88V81.1H19.44V79.4H18.5V81.1H17.14ZM21.4913 83.55C21.4913 85.07 22.5713 86.14 24.0113 86.14C25.4513 86.14 26.5313 85.07 26.5313 83.55C26.5313 82.03 25.4513 80.96 24.0113 80.96C22.5713 80.96 21.4913 82.03 21.4913 83.55ZM22.4313 83.55C22.4313 82.47 23.0713 81.82 24.0113 81.82C24.9513 81.82 25.5913 82.47 25.5913 83.55C25.5913 84.63 24.9513 85.28 24.0113 85.28C23.0713 85.28 22.4313 84.63 22.4313 83.55ZM34.4102 81.1V81.87H34.2702C34.0002 81.42 33.5502 80.96 32.5902 80.96C31.3002 80.96 30.2902 82 30.2902 83.49C30.2902 84.98 31.3002 86.02 32.5902 86.02C33.5502 86.02 34.0002 85.56 34.2702 85.11H34.3902V85.8C34.3902 86.82 33.7602 87.3 32.8602 87.3C32.0002 87.3 31.4902 86.82 31.2102 86.29L30.3702 86.78C30.8502 87.49 31.6002 88.14 32.9202 88.14C34.3902 88.14 35.3302 87.17 35.3302 85.85V81.1H34.4102ZM32.8302 85.18C31.8902 85.18 31.2302 84.58 31.2302 83.49C31.2302 82.4 31.8902 81.8 32.8302 81.8C33.7902 81.8 34.3902 82.44 34.3902 83.49C34.3902 84.54 33.7902 85.18 32.8302 85.18ZM36.4132 83.51C36.4132 84.99 37.4532 86.14 38.9732 86.14C40.1432 86.14 40.7732 85.49 41.1432 84.89L40.3532 84.44C40.0932 84.96 39.6732 85.32 38.9532 85.32C38.0732 85.32 37.4532 84.77 37.3932 83.89H41.2532V83.42C41.2532 82 40.2932 80.94 38.8532 80.94C37.4332 80.94 36.4132 82.07 36.4132 83.51ZM37.3932 83.13C37.4632 82.26 37.9932 81.76 38.8532 81.76C39.7132 81.76 40.2532 82.29 40.2732 83.13H37.3932ZM41.681 81.1V81.92H43.041V85.16C43.041 85.66 43.381 86 43.861 86H45.141V85.18H44.241C44.061 85.18 43.981 85.1 43.981 84.9V81.92H45.421V81.1H43.981V79.4H43.041V81.1H41.681ZM49.2992 82.41C49.2992 83.34 50.0292 83.7 51.1292 83.86L51.5392 83.92C52.0692 84 52.6992 84.04 52.6992 84.55C52.6992 85.03 52.1992 85.34 51.4992 85.34C50.6992 85.34 50.0692 84.89 49.7592 84.15L48.9192 84.6C49.2992 85.32 50.0792 86.14 51.4692 86.14C52.7292 86.14 53.6292 85.5 53.6292 84.52C53.6292 83.5 52.7592 83.23 51.6492 83.07L51.2392 83.01C50.7092 82.93 50.2292 82.88 50.2292 82.4C50.2292 81.98 50.6392 81.74 51.1892 81.74C51.7692 81.74 52.3592 82.01 52.8992 82.71L53.5992 82.21C52.8292 81.35 52.1692 80.96 51.1692 80.96C50.1692 80.96 49.2992 81.48 49.2992 82.41ZM54.1127 81.1V81.92H55.4727V85.16C55.4727 85.66 55.8127 86 56.2927 86H57.5727V85.18H56.6727C56.4927 85.18 56.4127 85.1 56.4127 84.9V81.92H57.8527V81.1H56.4127V79.4H55.4727V81.1H54.1127ZM58.6728 82.39L59.4828 82.76C59.7128 82.19 60.1828 81.8 60.9828 81.8C61.7828 81.8 62.2528 82.2 62.2528 82.87V83L60.4428 83.17C59.1828 83.29 58.5728 83.77 58.5728 84.66C58.5728 85.54 59.2828 86.14 60.3828 86.14C61.3928 86.14 61.9028 85.67 62.1128 85.23H62.2528V86H63.1728V82.91C63.1728 81.73 62.3228 80.96 61.0028 80.96C59.8028 80.96 59.0228 81.63 58.6728 82.39ZM59.5228 84.62C59.5228 84.12 59.9728 83.95 60.5428 83.9L62.2528 83.74V83.82C62.2528 84.67 61.6928 85.36 60.5428 85.36C59.8928 85.36 59.5228 85.08 59.5228 84.62ZM65.4164 81.1H64.5164V86H65.4564V83.14C65.4564 82.4 65.8364 82 66.5364 82H67.3964V81.08H66.8364C66.1264 81.08 65.7264 81.38 65.5564 81.9H65.4164V81.1ZM67.8627 81.1V81.92H69.2227V85.16C69.2227 85.66 69.5627 86 70.0427 86H71.3227V85.18H70.4227C70.2427 85.18 70.1627 85.1 70.1627 84.9V81.92H71.6027V81.1H70.1627V79.4H69.2227V81.1H67.8627ZM72.214 83.51C72.214 84.99 73.254 86.14 74.774 86.14C75.944 86.14 76.574 85.49 76.944 84.89L76.154 84.44C75.894 84.96 75.474 85.32 74.754 85.32C73.874 85.32 73.254 84.77 73.194 83.89H77.054V83.42C77.054 82 76.094 80.94 74.654 80.94C73.234 80.94 72.214 82.07 72.214 83.51ZM73.194 83.13C73.264 82.26 73.794 81.76 74.654 81.76C75.514 81.76 76.054 82.29 76.074 83.13H73.194ZM82.8106 79H81.8706V81.87H81.7506C81.4806 81.42 81.0306 80.96 80.0706 80.96C78.7806 80.96 77.7706 82.03 77.7706 83.55C77.7706 85.07 78.7806 86.14 80.0706 86.14C81.0306 86.14 81.4806 85.68 81.7506 85.23H81.8906V86H82.8106V79ZM80.3106 81.8C81.2706 81.8 81.8706 82.47 81.8706 83.55C81.8706 84.63 81.2706 85.3 80.3106 85.3C79.3706 85.3 78.7106 84.67 78.7106 83.55C78.7106 82.43 79.3706 81.8 80.3106 81.8Z" fill="white"/>
</svg>
