<svg width="503" height="642" viewBox="0 0 503 642" fill="none" xmlns="http://www.w3.org/2000/svg">
<path d="M66.152 384.8V396H67.752V386.496H67.944L70.776 396H73.176L76.008 386.496H76.2V396H77.8V384.8H74.92L72.072 394.336H71.88L69.032 384.8H66.152ZM79.5611 392.016C79.5611 394.384 81.2251 396.224 83.6571 396.224C85.5291 396.224 86.5371 395.184 87.1291 394.224L85.8651 393.504C85.4491 394.336 84.7771 394.912 83.6251 394.912C82.2171 394.912 81.2251 394.032 81.1291 392.624H87.3051V391.872C87.3051 389.6 85.7691 387.904 83.4651 387.904C81.1931 387.904 79.5611 389.712 79.5611 392.016ZM81.1291 391.408C81.2411 390.016 82.0891 389.216 83.4651 389.216C84.8411 389.216 85.7051 390.064 85.7371 391.408H81.1291ZM88.9638 388.16V396H90.4678V391.904C90.4678 390.272 91.3798 389.344 92.8358 389.344C94.1158 389.344 94.8518 390.048 94.8518 391.408V396H96.3558V391.28C96.3558 389.12 94.9478 388.032 93.2998 388.032C91.7478 388.032 91.0278 388.752 90.6598 389.488H90.4358V388.16H88.9638ZM97.4428 388.16V389.472H99.6188V394.656C99.6188 395.456 100.163 396 100.931 396H102.979V394.688H101.539C101.251 394.688 101.123 394.56 101.123 394.24V389.472H103.427V388.16H101.123V385.44H99.6188V388.16H97.4428ZM104.405 392.08C104.405 394.512 106.133 396.224 108.437 396.224C110.741 396.224 112.469 394.512 112.469 392.08C112.469 389.648 110.741 387.936 108.437 387.936C106.133 387.936 104.405 389.648 104.405 392.08ZM105.909 392.08C105.909 390.352 106.933 389.312 108.437 389.312C109.941 389.312 110.965 390.352 110.965 392.08C110.965 393.808 109.941 394.848 108.437 394.848C106.933 394.848 105.909 393.808 105.909 392.08ZM115.638 388.16H114.198V396H115.702V391.424C115.702 390.24 116.31 389.6 117.43 389.6H118.806V388.128H117.91C116.774 388.128 116.134 388.608 115.862 389.44H115.638V388.16ZM124.851 390.256C124.851 391.744 126.019 392.32 127.779 392.576L128.435 392.672C129.283 392.8 130.291 392.864 130.291 393.68C130.291 394.448 129.491 394.944 128.371 394.944C127.091 394.944 126.083 394.224 125.587 393.04L124.243 393.76C124.851 394.912 126.099 396.224 128.323 396.224C130.339 396.224 131.779 395.2 131.779 393.632C131.779 392 130.387 391.568 128.611 391.312L127.955 391.216C127.107 391.088 126.339 391.008 126.339 390.24C126.339 389.568 126.995 389.184 127.875 389.184C128.803 389.184 129.747 389.616 130.611 390.736L131.731 389.936C130.499 388.56 129.443 387.936 127.843 387.936C126.243 387.936 124.851 388.768 124.851 390.256ZM140.744 396V388.16H139.24V392.256C139.24 393.888 138.328 394.816 136.872 394.816C135.592 394.816 134.856 394.112 134.856 392.752V388.16H133.352V392.88C133.352 395.04 134.76 396.128 136.408 396.128C137.96 396.128 138.68 395.408 139.048 394.672H139.272V396H140.744ZM142.979 399.2H144.483V394.768H144.675C145.107 395.488 145.827 396.224 147.363 396.224C149.427 396.224 151.043 394.512 151.043 392.08C151.043 389.648 149.427 387.936 147.363 387.936C145.827 387.936 145.107 388.672 144.675 389.392H144.451V388.16H142.979V399.2ZM146.979 394.88C145.443 394.88 144.483 393.808 144.483 392.08C144.483 390.352 145.443 389.28 146.979 389.28C148.483 389.28 149.539 390.288 149.539 392.08C149.539 393.872 148.483 394.88 146.979 394.88ZM152.264 392.016C152.264 394.384 153.928 396.224 156.36 396.224C158.232 396.224 159.24 395.184 159.832 394.224L158.568 393.504C158.152 394.336 157.48 394.912 156.328 394.912C154.92 394.912 153.928 394.032 153.832 392.624H160.008V391.872C160.008 389.6 158.472 387.904 156.168 387.904C153.896 387.904 152.264 389.712 152.264 392.016ZM153.832 391.408C153.944 390.016 154.792 389.216 156.168 389.216C157.544 389.216 158.408 390.064 158.44 391.408H153.832ZM163.107 388.16H161.667V396H163.171V391.424C163.171 390.24 163.779 389.6 164.899 389.6H166.275V388.128H165.379C164.243 388.128 163.603 388.608 163.331 389.44H163.107V388.16ZM167.367 388.16L170.295 396H172.439L175.367 388.16H173.735L171.463 394.56H171.271L168.999 388.16H167.367ZM176.344 385.76C176.344 386.432 176.888 386.944 177.56 386.944C178.232 386.944 178.776 386.432 178.776 385.76C178.776 385.088 178.232 384.576 177.56 384.576C176.888 384.576 176.344 385.088 176.344 385.76ZM178.312 388.16H176.808V396H178.312V388.16ZM180.398 390.256C180.398 391.744 181.566 392.32 183.326 392.576L183.982 392.672C184.83 392.8 185.838 392.864 185.838 393.68C185.838 394.448 185.038 394.944 183.918 394.944C182.638 394.944 181.63 394.224 181.134 393.04L179.79 393.76C180.398 394.912 181.646 396.224 183.87 396.224C185.886 396.224 187.326 395.2 187.326 393.632C187.326 392 185.934 391.568 184.158 391.312L183.502 391.216C182.654 391.088 181.886 391.008 181.886 390.24C181.886 389.568 182.542 389.184 183.422 389.184C184.35 389.184 185.294 389.616 186.158 390.736L187.278 389.936C186.046 388.56 184.99 387.936 183.39 387.936C181.789 387.936 180.398 388.768 180.398 390.256ZM188.483 392.016C188.483 394.384 190.147 396.224 192.579 396.224C194.451 396.224 195.459 395.184 196.051 394.224L194.787 393.504C194.371 394.336 193.699 394.912 192.547 394.912C191.139 394.912 190.147 394.032 190.051 392.624H196.227V391.872C196.227 389.6 194.691 387.904 192.387 387.904C190.115 387.904 188.483 389.712 188.483 392.016ZM190.051 391.408C190.163 390.016 191.011 389.216 192.387 389.216C193.763 389.216 194.627 390.064 194.659 391.408H190.051ZM197.663 390.256C197.663 391.744 198.831 392.32 200.591 392.576L201.247 392.672C202.095 392.8 203.103 392.864 203.103 393.68C203.103 394.448 202.303 394.944 201.183 394.944C199.903 394.944 198.895 394.224 198.399 393.04L197.055 393.76C197.663 394.912 198.911 396.224 201.135 396.224C203.151 396.224 204.591 395.2 204.591 393.632C204.591 392 203.199 391.568 201.423 391.312L200.767 391.216C199.919 391.088 199.151 391.008 199.151 390.24C199.151 389.568 199.807 389.184 200.687 389.184C201.615 389.184 202.559 389.616 203.423 390.736L204.543 389.936C203.311 388.56 202.255 387.936 200.655 387.936C199.055 387.936 197.663 388.768 197.663 390.256ZM210.898 390.256C210.898 391.744 212.066 392.32 213.826 392.576L214.482 392.672C215.33 392.8 216.338 392.864 216.338 393.68C216.338 394.448 215.538 394.944 214.418 394.944C213.138 394.944 212.13 394.224 211.634 393.04L210.29 393.76C210.898 394.912 212.146 396.224 214.37 396.224C216.386 396.224 217.826 395.2 217.826 393.632C217.826 392 216.434 391.568 214.658 391.312L214.002 391.216C213.154 391.088 212.386 391.008 212.386 390.24C212.386 389.568 213.042 389.184 213.922 389.184C214.85 389.184 215.794 389.616 216.658 390.736L217.778 389.936C216.546 388.56 215.49 387.936 213.89 387.936C212.289 387.936 210.898 388.768 210.898 390.256ZM218.599 388.16V389.472H220.775V394.656C220.775 395.456 221.319 396 222.087 396H224.135V394.688H222.695C222.407 394.688 222.279 394.56 222.279 394.24V389.472H224.583V388.16H222.279V385.44H220.775V388.16H218.599ZM233.447 396V388.16H231.943V392.256C231.943 393.888 231.031 394.816 229.575 394.816C228.295 394.816 227.559 394.112 227.559 392.752V388.16H226.055V392.88C226.055 395.04 227.463 396.128 229.111 396.128C230.663 396.128 231.383 395.408 231.751 394.672H231.975V396H233.447ZM243.235 384.8H241.731V389.392H241.539C241.107 388.672 240.387 387.936 238.851 387.936C236.787 387.936 235.171 389.648 235.171 392.08C235.171 394.512 236.787 396.224 238.851 396.224C240.387 396.224 241.107 395.488 241.539 394.768H241.763V396H243.235V384.8ZM239.235 389.28C240.771 389.28 241.731 390.352 241.731 392.08C241.731 393.808 240.771 394.88 239.235 394.88C237.731 394.88 236.674 393.872 236.674 392.08C236.674 390.288 237.731 389.28 239.235 389.28ZM244.967 392.016C244.967 394.384 246.631 396.224 249.063 396.224C250.935 396.224 251.943 395.184 252.535 394.224L251.271 393.504C250.855 394.336 250.183 394.912 249.031 394.912C247.623 394.912 246.631 394.032 246.535 392.624H252.711V391.872C252.711 389.6 251.175 387.904 248.871 387.904C246.599 387.904 244.967 389.712 244.967 392.016ZM246.535 391.408C246.647 390.016 247.495 389.216 248.871 389.216C250.247 389.216 251.111 390.064 251.143 391.408H246.535ZM254.37 388.16V396H255.874V391.904C255.874 390.272 256.786 389.344 258.242 389.344C259.522 389.344 260.258 390.048 260.258 391.408V396H261.762V391.28C261.762 389.12 260.354 388.032 258.706 388.032C257.154 388.032 256.434 388.752 256.066 389.488H255.842V388.16H254.37ZM262.849 388.16V389.472H265.025V394.656C265.025 395.456 265.569 396 266.337 396H268.385V394.688H266.945C266.657 394.688 266.529 394.56 266.529 394.24V389.472H268.833V388.16H266.529V385.44H265.025V388.16H262.849ZM281.278 388.16V389.392H281.054C280.622 388.672 279.902 387.936 278.366 387.936C276.302 387.936 274.686 389.6 274.686 391.984C274.686 394.368 276.302 396.032 278.366 396.032C279.902 396.032 280.622 395.296 281.054 394.576H281.246V395.68C281.246 397.312 280.238 398.08 278.798 398.08C277.422 398.08 276.606 397.312 276.158 396.464L274.814 397.248C275.582 398.384 276.782 399.424 278.894 399.424C281.246 399.424 282.75 397.872 282.75 395.76V388.16H281.278ZM278.75 394.688C277.246 394.688 276.19 393.728 276.19 391.984C276.19 390.24 277.246 389.28 278.75 389.28C280.286 389.28 281.246 390.304 281.246 391.984C281.246 393.664 280.286 394.688 278.75 394.688ZM286.435 388.16H284.995V396H286.499V391.424C286.499 390.24 287.107 389.6 288.227 389.6H289.603V388.128H288.707C287.571 388.128 286.931 388.608 286.659 389.44H286.435V388.16ZM290.092 392.08C290.092 394.512 291.82 396.224 294.124 396.224C296.428 396.224 298.156 394.512 298.156 392.08C298.156 389.648 296.428 387.936 294.124 387.936C291.82 387.936 290.092 389.648 290.092 392.08ZM291.596 392.08C291.596 390.352 292.62 389.312 294.124 389.312C295.628 389.312 296.652 390.352 296.652 392.08C296.652 393.808 295.628 394.848 294.124 394.848C292.62 394.848 291.596 393.808 291.596 392.08ZM307.182 396V388.16H305.678V392.256C305.678 393.888 304.766 394.816 303.31 394.816C302.03 394.816 301.294 394.112 301.294 392.752V388.16H299.79V392.88C299.79 395.04 301.198 396.128 302.846 396.128C304.398 396.128 305.118 395.408 305.486 394.672H305.71V396H307.182ZM309.417 399.2H310.921V394.768H311.113C311.545 395.488 312.265 396.224 313.801 396.224C315.865 396.224 317.481 394.512 317.481 392.08C317.481 389.648 315.865 387.936 313.801 387.936C312.265 387.936 311.545 388.672 311.113 389.392H310.889V388.16H309.417V399.2ZM313.417 394.88C311.881 394.88 310.921 393.808 310.921 392.08C310.921 390.352 311.881 389.28 313.417 389.28C314.921 389.28 315.977 390.288 315.977 392.08C315.977 393.872 314.921 394.88 313.417 394.88ZM318.991 390.256C318.991 391.744 320.159 392.32 321.919 392.576L322.575 392.672C323.423 392.8 324.431 392.864 324.431 393.68C324.431 394.448 323.631 394.944 322.511 394.944C321.231 394.944 320.223 394.224 319.727 393.04L318.383 393.76C318.991 394.912 320.239 396.224 322.463 396.224C324.479 396.224 325.919 395.2 325.919 393.632C325.919 392 324.527 391.568 322.751 391.312L322.095 391.216C321.247 391.088 320.479 391.008 320.479 390.24C320.479 389.568 321.135 389.184 322.015 389.184C322.943 389.184 323.887 389.616 324.751 390.736L325.871 389.936C324.639 388.56 323.583 387.936 321.983 387.936C320.383 387.936 318.991 388.768 318.991 390.256ZM331.586 388.16L334.514 396H336.658L339.586 388.16H337.954L335.682 394.56H335.49L333.218 388.16H331.586ZM340.562 385.76C340.562 386.432 341.106 386.944 341.778 386.944C342.45 386.944 342.994 386.432 342.994 385.76C342.994 385.088 342.45 384.576 341.778 384.576C341.106 384.576 340.562 385.088 340.562 385.76ZM342.53 388.16H341.026V396H342.53V388.16ZM344.52 390.224L345.816 390.816C346.184 389.904 346.936 389.28 348.216 389.28C349.496 389.28 350.248 389.92 350.248 390.992V391.2L347.352 391.472C345.336 391.664 344.36 392.432 344.36 393.856C344.36 395.264 345.496 396.224 347.256 396.224C348.872 396.224 349.688 395.472 350.024 394.768H350.248V396H351.72V391.056C351.72 389.168 350.36 387.936 348.248 387.936C346.328 387.936 345.08 389.008 344.52 390.224ZM345.88 393.792C345.88 392.992 346.6 392.72 347.512 392.64L350.248 392.384V392.512C350.248 393.872 349.352 394.976 347.512 394.976C346.472 394.976 345.88 394.528 345.88 393.792ZM358.667 384.8V392.224C358.667 394.816 360.203 396.224 362.859 396.224C365.515 396.224 367.051 394.816 367.051 392.224V384.8H365.451V392.224C365.451 393.872 364.587 394.752 362.859 394.752C361.131 394.752 360.267 393.872 360.267 392.224V384.8H358.667ZM369.292 388.16V396H370.796V391.904C370.796 390.272 371.708 389.344 373.164 389.344C374.444 389.344 375.18 390.048 375.18 391.408V396H376.684V391.28C376.684 389.12 375.276 388.032 373.628 388.032C372.076 388.032 371.356 388.752 370.988 389.488H370.764V388.16H369.292ZM378.359 385.76C378.359 386.432 378.903 386.944 379.575 386.944C380.247 386.944 380.791 386.432 380.791 385.76C380.791 385.088 380.247 384.576 379.575 384.576C378.903 384.576 378.359 385.088 378.359 385.76ZM380.327 388.16H378.823V396H380.327V388.16ZM381.773 388.16L384.701 396H386.845L389.773 388.16H388.141L385.869 394.56H385.677L383.405 388.16H381.773ZM389.769 394.976C389.769 395.68 390.329 396.224 391.017 396.224C391.705 396.224 392.265 395.68 392.265 394.976C392.265 394.272 391.705 393.728 391.017 393.728C390.329 393.728 389.769 394.272 389.769 394.976ZM396.855 384.8L393.351 396H395.047L395.863 393.312H400.375L401.191 396H402.887L399.383 384.8H396.855ZM396.295 391.84L398.023 386.208H398.215L399.943 391.84H396.295ZM404.324 384.8V396H405.924V384.8H404.324ZM412.995 399.2H414.499V394.768H414.691C415.123 395.488 415.843 396.224 417.379 396.224C419.443 396.224 421.059 394.512 421.059 392.08C421.059 389.648 419.443 387.936 417.379 387.936C415.843 387.936 415.123 388.672 414.691 389.392H414.467V388.16H412.995V399.2ZM416.995 394.88C415.459 394.88 414.499 393.808 414.499 392.08C414.499 390.352 415.459 389.28 416.995 389.28C418.499 389.28 419.555 390.288 419.555 392.08C419.555 393.872 418.499 394.88 416.995 394.88ZM424.296 384.8H422.792V396H424.296V384.8ZM426.286 390.224L427.582 390.816C427.95 389.904 428.702 389.28 429.982 389.28C431.262 389.28 432.014 389.92 432.014 390.992V391.2L429.118 391.472C427.102 391.664 426.126 392.432 426.126 393.856C426.126 395.264 427.262 396.224 429.022 396.224C430.638 396.224 431.454 395.472 431.79 394.768H432.014V396H433.486V391.056C433.486 389.168 432.126 387.936 430.014 387.936C428.094 387.936 426.846 389.008 426.286 390.224ZM427.646 393.792C427.646 392.992 428.366 392.72 429.278 392.64L432.014 392.384V392.512C432.014 393.872 431.118 394.976 429.278 394.976C428.238 394.976 427.646 394.528 427.646 393.792ZM434.583 388.16V389.472H436.759V394.656C436.759 395.456 437.303 396 438.071 396H440.119V394.688H438.679C438.391 394.688 438.263 394.56 438.263 394.24V389.472H440.567V388.16H438.263V385.44H436.759V388.16H434.583ZM441.24 388.16V389.472H443.416V396H444.92V389.472H447.16V388.16H444.92V386.56C444.92 386.24 445.048 386.112 445.336 386.112H446.744V384.8H444.76C443.96 384.8 443.416 385.344 443.416 386.176V388.16H441.24ZM447.921 392.08C447.921 394.512 449.649 396.224 451.953 396.224C454.257 396.224 455.985 394.512 455.985 392.08C455.985 389.648 454.257 387.936 451.953 387.936C449.649 387.936 447.921 389.648 447.921 392.08ZM449.424 392.08C449.424 390.352 450.449 389.312 451.953 389.312C453.457 389.312 454.481 390.352 454.481 392.08C454.481 393.808 453.457 394.848 451.953 394.848C450.449 394.848 449.424 393.808 449.424 392.08ZM459.154 388.16H457.714V396H459.218V391.424C459.218 390.24 459.826 389.6 460.946 389.6H462.322V388.128H461.426C460.29 388.128 459.65 388.608 459.378 389.44H459.154V388.16ZM463.729 388.16V396H465.233V391.104C465.233 389.92 466.017 389.312 467.025 389.312C467.937 389.312 468.561 389.824 468.561 390.736V396H470.065V391.104C470.065 389.92 470.801 389.312 471.777 389.312C472.705 389.312 473.393 389.824 473.393 390.736V396H474.897V390.64C474.897 389.024 473.633 388.032 472.241 388.032C470.961 388.032 470.289 388.688 469.969 389.344H469.745C469.361 388.624 468.705 388.032 467.569 388.032C466.529 388.032 465.825 388.512 465.425 389.184H465.201V388.16H463.729Z" fill="#434343"/>
<path d="M244 109C285.335 109 322.713 115.145 349.722 125.048C363.23 130.001 374.091 135.875 381.557 142.347C389.026 148.822 393 155.804 393 163C393 170.196 389.026 177.178 381.557 183.653C374.091 190.125 363.23 195.999 349.722 200.952C322.713 210.855 285.335 217 244 217C202.665 217 165.287 210.855 138.278 200.952C124.77 195.999 113.909 190.125 106.443 183.653C98.9742 177.178 95 170.196 95 163C95 155.804 98.9742 148.822 106.443 142.347C113.909 135.875 124.77 130.001 138.278 125.048C165.287 115.145 202.665 109 244 109Z" stroke="#324BD9" stroke-width="2"/>
<path d="M298 163C298 204.335 291.855 241.713 281.952 268.722C276.999 282.23 271.125 293.091 264.653 300.557C258.178 308.026 251.196 312 244 312C236.804 312 229.822 308.026 223.347 300.557C216.875 293.091 211.001 282.23 206.048 268.722C196.145 241.713 190 204.335 190 163C190 121.665 196.145 84.2865 206.048 57.2782C211.001 43.7701 216.875 32.9087 223.347 25.4428C229.822 17.9742 236.804 14 244 14C251.196 14 258.178 17.9742 264.653 25.4428C271.125 32.9087 276.999 43.7701 281.952 57.2782C291.855 84.2865 298 121.665 298 163Z" stroke="#324BD9" stroke-width="2"/>
<path d="M262.152 6.8V18H263.752V13.52H266.504C268.504 13.52 269.96 12.192 269.96 10.16C269.96 8.128 268.552 6.8 266.504 6.8H262.152ZM263.752 8.272H266.328C267.656 8.272 268.36 8.944 268.36 10.16C268.36 11.376 267.624 12.048 266.328 12.048H263.752V8.272ZM272.935 10.16H271.495V18H272.999V13.424C272.999 12.24 273.607 11.6 274.727 11.6H276.103V10.128H275.207C274.071 10.128 273.431 10.608 273.159 11.44H272.935V10.16ZM276.592 14.08C276.592 16.512 278.32 18.224 280.624 18.224C282.928 18.224 284.656 16.512 284.656 14.08C284.656 11.648 282.928 9.936 280.624 9.936C278.32 9.936 276.592 11.648 276.592 14.08ZM278.096 14.08C278.096 12.352 279.12 11.312 280.624 11.312C282.128 11.312 283.152 12.352 283.152 14.08C283.152 15.808 282.128 16.848 280.624 16.848C279.12 16.848 278.096 15.808 278.096 14.08ZM285.429 10.16L288.357 18H290.501L293.429 10.16H291.797L289.525 16.56H289.333L287.061 10.16H285.429ZM294.406 7.76C294.406 8.432 294.95 8.944 295.622 8.944C296.294 8.944 296.838 8.432 296.838 7.76C296.838 7.088 296.294 6.576 295.622 6.576C294.95 6.576 294.406 7.088 294.406 7.76ZM296.374 10.16H294.87V18H296.374V10.16ZM306.172 6.8H304.668V11.392H304.476C304.044 10.672 303.324 9.936 301.788 9.936C299.724 9.936 298.108 11.648 298.108 14.08C298.108 16.512 299.724 18.224 301.788 18.224C303.324 18.224 304.044 17.488 304.476 16.768H304.7V18H306.172V6.8ZM302.172 11.28C303.708 11.28 304.668 12.352 304.668 14.08C304.668 15.808 303.708 16.88 302.172 16.88C300.668 16.88 299.612 15.872 299.612 14.08C299.612 12.288 300.668 11.28 302.172 11.28ZM307.905 14.016C307.905 16.384 309.569 18.224 312.001 18.224C313.873 18.224 314.881 17.184 315.473 16.224L314.209 15.504C313.793 16.336 313.121 16.912 311.969 16.912C310.561 16.912 309.569 16.032 309.473 14.624H315.649V13.872C315.649 11.6 314.113 9.904 311.809 9.904C309.537 9.904 307.905 11.712 307.905 14.016ZM309.473 13.408C309.585 12.016 310.433 11.216 311.809 11.216C313.185 11.216 314.049 12.064 314.081 13.408H309.473ZM321.592 14.08C321.592 16.512 323.32 18.224 325.624 18.224C327.928 18.224 329.656 16.512 329.656 14.08C329.656 11.648 327.928 9.936 325.624 9.936C323.32 9.936 321.592 11.648 321.592 14.08ZM323.096 14.08C323.096 12.352 324.12 11.312 325.624 11.312C327.128 11.312 328.152 12.352 328.152 14.08C328.152 15.808 327.128 16.848 325.624 16.848C324.12 16.848 323.096 15.808 323.096 14.08ZM342.748 6.576C342.076 6.576 341.532 7.088 341.532 7.76C341.532 8.432 342.076 8.944 342.748 8.944C343.42 8.944 343.964 8.432 343.964 7.76C343.964 7.088 343.42 6.576 342.748 6.576ZM338.796 10.16V8.56C338.796 8.24 338.924 8.112 339.212 8.112H340.46V6.8H338.635C337.836 6.8 337.292 7.344 337.292 8.176V10.16H334.092V8.56C334.092 8.24 334.22 8.112 334.508 8.112H335.916V6.8H333.932C333.132 6.8 332.588 7.344 332.588 8.176V10.16H330.412V11.472H332.588V18H334.092V11.472H337.292V18H338.796V11.472H341.996V18H343.5V10.16H338.796ZM345.233 14.08C345.233 16.48 346.961 18.224 349.329 18.224C351.649 18.224 352.785 16.672 353.137 15.184L351.649 14.896C351.441 15.904 350.833 16.848 349.329 16.848C347.793 16.848 346.737 15.744 346.737 14.08C346.737 12.416 347.793 11.312 349.297 11.312C350.689 11.312 351.505 12.176 351.633 13.28L353.105 12.976C352.785 11.232 351.409 9.936 349.297 9.936C346.961 9.936 345.233 11.68 345.233 14.08ZM354.296 14.016C354.296 16.384 355.96 18.224 358.391 18.224C360.264 18.224 361.272 17.184 361.864 16.224L360.6 15.504C360.184 16.336 359.512 16.912 358.36 16.912C356.952 16.912 355.96 16.032 355.864 14.624H362.04V13.872C362.04 11.6 360.504 9.904 358.2 9.904C355.928 9.904 354.296 11.712 354.296 14.016ZM355.864 13.408C355.976 12.016 356.824 11.216 358.2 11.216C359.576 11.216 360.44 12.064 360.472 13.408H355.864ZM262.12 30.8V42H263.624V37.904C263.624 36.272 264.536 35.344 265.992 35.344C267.272 35.344 268.008 36.048 268.008 37.408V42H269.512V37.28C269.512 35.12 268.104 34.032 266.456 34.032C264.904 34.032 264.184 34.752 263.816 35.488H263.624V30.8H262.12ZM271.139 38.08C271.139 40.512 272.867 42.224 275.171 42.224C277.475 42.224 279.203 40.512 279.203 38.08C279.203 35.648 277.475 33.936 275.171 33.936C272.867 33.936 271.139 35.648 271.139 38.08ZM272.643 38.08C272.643 36.352 273.667 35.312 275.171 35.312C276.675 35.312 277.699 36.352 277.699 38.08C277.699 39.808 276.675 40.848 275.171 40.848C273.667 40.848 272.643 39.808 272.643 38.08ZM288.229 42V34.16H286.725V38.256C286.725 39.888 285.813 40.816 284.357 40.816C283.077 40.816 282.341 40.112 282.341 38.752V34.16H280.837V38.88C280.837 41.04 282.245 42.128 283.893 42.128C285.445 42.128 286.165 41.408 286.533 40.672H286.757V42H288.229ZM291.904 34.16H290.464V42H291.968V37.424C291.968 36.24 292.576 35.6 293.696 35.6H295.072V34.128H294.176C293.04 34.128 292.4 34.608 292.128 35.44H291.904V34.16ZM296.163 36.256C296.163 37.744 297.331 38.32 299.091 38.576L299.747 38.672C300.595 38.8 301.603 38.864 301.603 39.68C301.603 40.448 300.803 40.944 299.683 40.944C298.403 40.944 297.395 40.224 296.899 39.04L295.555 39.76C296.163 40.912 297.411 42.224 299.635 42.224C301.651 42.224 303.091 41.2 303.091 39.632C303.091 38 301.699 37.568 299.923 37.312L299.267 37.216C298.419 37.088 297.651 37.008 297.651 36.24C297.651 35.568 298.307 35.184 299.187 35.184C300.115 35.184 301.059 35.616 301.923 36.736L303.043 35.936C301.811 34.56 300.755 33.936 299.155 33.936C297.555 33.936 296.163 34.768 296.163 36.256Z" fill="#434343"/>
<path d="M14.768 161.152V163.648C14.768 166.56 16.4 168.224 19.152 168.224C21.84 168.224 23.344 166.624 23.344 164.128V163.904H21.744V164.128C21.744 165.696 20.944 166.752 19.152 166.752C17.36 166.752 16.368 165.664 16.368 163.712V161.088C16.368 159.136 17.36 158.048 19.152 158.048C20.944 158.048 21.744 159.12 21.744 160.672V160.896H23.344V160.608C23.344 158.208 21.84 156.576 19.152 156.576C16.4 156.576 14.768 158.24 14.768 161.152ZM24.6236 164.08C24.6236 166.512 26.3516 168.224 28.6556 168.224C30.9596 168.224 32.6876 166.512 32.6876 164.08C32.6876 161.648 30.9596 159.936 28.6556 159.936C26.3516 159.936 24.6236 161.648 24.6236 164.08ZM26.1276 164.08C26.1276 162.352 27.1516 161.312 28.6556 161.312C30.1596 161.312 31.1836 162.352 31.1836 164.08C31.1836 165.808 30.1596 166.848 28.6556 166.848C27.1516 166.848 26.1276 165.808 26.1276 164.08ZM34.4169 160.16V168H35.9209V163.904C35.9209 162.272 36.8329 161.344 38.2889 161.344C39.5689 161.344 40.3049 162.048 40.3049 163.408V168H41.8089V163.28C41.8089 161.12 40.4009 160.032 38.7529 160.032C37.2009 160.032 36.4809 160.752 36.1129 161.488H35.8889V160.16H34.4169ZM51.5001 156.8H49.9961V161.392H49.8041C49.3721 160.672 48.6521 159.936 47.1161 159.936C45.0521 159.936 43.4361 161.648 43.4361 164.08C43.4361 166.512 45.0521 168.224 47.1161 168.224C48.6521 168.224 49.3721 167.488 49.8041 166.768H50.0281V168H51.5001V156.8ZM47.5001 161.28C49.0361 161.28 49.9961 162.352 49.9961 164.08C49.9961 165.808 49.0361 166.88 47.5001 166.88C45.9961 166.88 44.9401 165.872 44.9401 164.08C44.9401 162.288 45.9961 161.28 47.5001 161.28ZM61.041 168V160.16H59.537V164.256C59.537 165.888 58.625 166.816 57.169 166.816C55.889 166.816 55.153 166.112 55.153 164.752V160.16H53.649V164.88C53.649 167.04 55.057 168.128 56.705 168.128C58.257 168.128 58.977 167.408 59.345 166.672H59.569V168H61.041ZM62.7643 164.08C62.7643 166.48 64.4923 168.224 66.8602 168.224C69.1803 168.224 70.3163 166.672 70.6683 165.184L69.1803 164.896C68.9723 165.904 68.3643 166.848 66.8602 166.848C65.3243 166.848 64.2682 165.744 64.2682 164.08C64.2682 162.416 65.3243 161.312 66.8283 161.312C68.2203 161.312 69.0363 162.176 69.1643 163.28L70.6363 162.976C70.3163 161.232 68.9403 159.936 66.8283 159.936C64.4923 159.936 62.7643 161.68 62.7643 164.08ZM71.3646 160.16V161.472H73.5406V166.656C73.5406 167.456 74.0846 168 74.8526 168H76.9006V166.688H75.4606C75.1726 166.688 75.0446 166.56 75.0446 166.24V161.472H77.3486V160.16H75.0446V157.44H73.5406V160.16H71.3646ZM15.152 180.8V192H22.256V190.528H16.752V180.8H15.152ZM23.4421 186.224L24.7381 186.816C25.1061 185.904 25.8581 185.28 27.1381 185.28C28.4181 185.28 29.1701 185.92 29.1701 186.992V187.2L26.2741 187.472C24.2581 187.664 23.2821 188.432 23.2821 189.856C23.2821 191.264 24.4181 192.224 26.1781 192.224C27.7941 192.224 28.6101 191.472 28.9461 190.768H29.1701V192H30.6421V187.056C30.6421 185.168 29.2821 183.936 27.1701 183.936C25.2501 183.936 24.0021 185.008 23.4421 186.224ZM24.8021 189.792C24.8021 188.992 25.5221 188.72 26.4341 188.64L29.1701 188.384V188.512C29.1701 189.872 28.2741 190.976 26.4341 190.976C25.3941 190.976 24.8021 190.528 24.8021 189.792ZM32.7919 180.8V192H34.2639V190.768H34.4879C34.9199 191.488 35.6399 192.224 37.1759 192.224C39.2399 192.224 40.8559 190.512 40.8559 188.08C40.8559 185.648 39.2399 183.936 37.1759 183.936C35.6399 183.936 34.9199 184.672 34.4879 185.392H34.2959V180.8H32.7919ZM36.7919 185.28C38.2959 185.28 39.3519 186.288 39.3519 188.08C39.3519 189.872 38.2959 190.88 36.7919 190.88C35.2559 190.88 34.2959 189.808 34.2959 188.08C34.2959 186.352 35.2559 185.28 36.7919 185.28ZM42.3663 186.256C42.3663 187.744 43.5343 188.32 45.2943 188.576L45.9503 188.672C46.7983 188.8 47.8063 188.864 47.8063 189.68C47.8063 190.448 47.0063 190.944 45.8863 190.944C44.6063 190.944 43.5983 190.224 43.1023 189.04L41.7583 189.76C42.3663 190.912 43.6143 192.224 45.8383 192.224C47.8543 192.224 49.2943 191.2 49.2943 189.632C49.2943 188 47.9023 187.568 46.1263 187.312L45.4703 187.216C44.6223 187.088 43.8543 187.008 43.8543 186.24C43.8543 185.568 44.5103 185.184 45.3903 185.184C46.3183 185.184 47.2623 185.616 48.1263 186.736L49.2463 185.936C48.0143 184.56 46.9583 183.936 45.3583 183.936C43.7582 183.936 42.3663 184.768 42.3663 186.256Z" fill="#434343"/>
<path d="M410.152 157.8V169H411.752V164.52H414.504C416.504 164.52 417.96 163.192 417.96 161.16C417.96 159.128 416.552 157.8 414.504 157.8H410.152ZM411.752 159.272H414.328C415.656 159.272 416.36 159.944 416.36 161.16C416.36 162.376 415.624 163.048 414.328 163.048H411.752V159.272ZM420.935 161.16H419.495V169H420.999V164.424C420.999 163.24 421.607 162.6 422.727 162.6H424.103V161.128H423.207C422.071 161.128 421.431 161.608 421.159 162.44H420.935V161.16ZM424.592 165.08C424.592 167.512 426.32 169.224 428.624 169.224C430.928 169.224 432.656 167.512 432.656 165.08C432.656 162.648 430.928 160.936 428.624 160.936C426.32 160.936 424.592 162.648 424.592 165.08ZM426.096 165.08C426.096 163.352 427.12 162.312 428.624 162.312C430.128 162.312 431.152 163.352 431.152 165.08C431.152 166.808 430.128 167.848 428.624 167.848C427.12 167.848 426.096 166.808 426.096 165.08ZM433.922 158.76C433.922 159.432 434.466 159.944 435.138 159.944C435.81 159.944 436.354 159.432 436.354 158.76C436.354 158.088 435.81 157.576 435.138 157.576C434.466 157.576 433.922 158.088 433.922 158.76ZM435.89 161.16H434.386V170.408C434.386 170.728 434.226 170.888 433.938 170.888H432.562V172.2H434.578C435.346 172.2 435.89 171.656 435.89 170.856V161.16ZM437.624 165.016C437.624 167.384 439.288 169.224 441.72 169.224C443.592 169.224 444.6 168.184 445.192 167.224L443.928 166.504C443.512 167.336 442.84 167.912 441.688 167.912C440.28 167.912 439.288 167.032 439.192 165.624H445.368V164.872C445.368 162.6 443.832 160.904 441.528 160.904C439.256 160.904 437.624 162.712 437.624 165.016ZM439.192 164.408C439.304 163.016 440.152 162.216 441.528 162.216C442.904 162.216 443.768 163.064 443.8 164.408H439.192ZM446.514 165.08C446.514 167.48 448.242 169.224 450.61 169.224C452.93 169.224 454.066 167.672 454.418 166.184L452.93 165.896C452.722 166.904 452.114 167.848 450.61 167.848C449.074 167.848 448.018 166.744 448.018 165.08C448.018 163.416 449.074 162.312 450.578 162.312C451.97 162.312 452.786 163.176 452.914 164.28L454.386 163.976C454.066 162.232 452.69 160.936 450.578 160.936C448.242 160.936 446.514 162.68 446.514 165.08ZM455.115 161.16V162.472H457.291V167.656C457.291 168.456 457.835 169 458.603 169H460.651V167.688H459.211C458.923 167.688 458.795 167.56 458.795 167.24V162.472H461.099V161.16H458.795V158.44H457.291V161.16H455.115ZM413.768 181.576C411.688 181.576 410.024 182.776 410.024 184.68C410.024 186.76 411.48 187.512 413.48 187.944L414.216 188.104C415.64 188.408 416.36 188.84 416.36 189.912C416.36 190.984 415.464 191.784 413.976 191.784C412.136 191.784 411.112 190.808 411.112 189.032V188.648H409.512V189.16C409.512 191.624 411.224 193.224 413.96 193.224C416.264 193.224 417.96 191.928 417.96 189.864C417.96 187.944 416.696 187.048 414.616 186.6L413.88 186.44C412.296 186.088 411.624 185.688 411.624 184.664C411.624 183.672 412.52 183.016 413.768 183.016C415.24 183.016 416.264 183.784 416.264 185.224V185.608H417.864V185.096C417.864 182.808 416.088 181.576 413.768 181.576ZM427.072 193V185.16H425.568V189.256C425.568 190.888 424.656 191.816 423.2 191.816C421.92 191.816 421.184 191.112 421.184 189.752V185.16H419.68V189.88C419.68 192.04 421.088 193.128 422.736 193.128C424.288 193.128 425.008 192.408 425.376 191.672H425.6V193H427.072ZM429.308 196.2H430.812V191.768H431.004C431.436 192.488 432.156 193.224 433.692 193.224C435.756 193.224 437.372 191.512 437.372 189.08C437.372 186.648 435.756 184.936 433.692 184.936C432.156 184.936 431.436 185.672 431.004 186.392H430.78V185.16H429.308V196.2ZM433.308 191.88C431.772 191.88 430.812 190.808 430.812 189.08C430.812 187.352 431.772 186.28 433.308 186.28C434.812 186.28 435.868 187.288 435.868 189.08C435.868 190.872 434.812 191.88 433.308 191.88ZM438.592 189.016C438.592 191.384 440.256 193.224 442.688 193.224C444.56 193.224 445.568 192.184 446.16 191.224L444.896 190.504C444.48 191.336 443.808 191.912 442.656 191.912C441.248 191.912 440.256 191.032 440.16 189.624H446.336V188.872C446.336 186.6 444.8 184.904 442.496 184.904C440.224 184.904 438.592 186.712 438.592 189.016ZM440.16 188.408C440.272 187.016 441.12 186.216 442.496 186.216C443.872 186.216 444.736 187.064 444.768 188.408H440.16ZM449.435 185.16H447.995V193H449.499V188.424C449.499 187.24 450.107 186.6 451.227 186.6H452.603V185.128H451.707C450.571 185.128 449.931 185.608 449.659 186.44H449.435V185.16ZM453.695 185.16L456.623 193H458.767L461.695 185.16H460.063L457.791 191.56H457.599L455.327 185.16H453.695ZM462.672 182.76C462.672 183.432 463.216 183.944 463.888 183.944C464.56 183.944 465.104 183.432 465.104 182.76C465.104 182.088 464.56 181.576 463.888 181.576C463.216 181.576 462.672 182.088 462.672 182.76ZM464.64 185.16H463.136V193H464.64V185.16ZM466.726 187.256C466.726 188.744 467.894 189.32 469.654 189.576L470.31 189.672C471.158 189.8 472.166 189.864 472.166 190.68C472.166 191.448 471.366 191.944 470.246 191.944C468.966 191.944 467.958 191.224 467.462 190.04L466.118 190.76C466.726 191.912 467.974 193.224 470.198 193.224C472.214 193.224 473.654 192.2 473.654 190.632C473.654 189 472.262 188.568 470.486 188.312L469.83 188.216C468.982 188.088 468.214 188.008 468.214 187.24C468.214 186.568 468.87 186.184 469.75 186.184C470.678 186.184 471.622 186.616 472.486 187.736L473.606 186.936C472.374 185.56 471.318 184.936 469.718 184.936C468.118 184.936 466.726 185.768 466.726 187.256ZM474.859 182.76C474.859 183.432 475.403 183.944 476.075 183.944C476.747 183.944 477.291 183.432 477.291 182.76C477.291 182.088 476.747 181.576 476.075 181.576C475.403 181.576 474.859 182.088 474.859 182.76ZM476.827 185.16H475.323V193H476.827V185.16ZM478.561 189.08C478.561 191.512 480.289 193.224 482.593 193.224C484.897 193.224 486.625 191.512 486.625 189.08C486.625 186.648 484.897 184.936 482.593 184.936C480.289 184.936 478.561 186.648 478.561 189.08ZM480.065 189.08C480.065 187.352 481.089 186.312 482.593 186.312C484.097 186.312 485.121 187.352 485.121 189.08C485.121 190.808 484.097 191.848 482.593 191.848C481.089 191.848 480.065 190.808 480.065 189.08ZM488.354 185.16V193H489.858V188.904C489.858 187.272 490.77 186.344 492.226 186.344C493.506 186.344 494.242 187.048 494.242 188.408V193H495.746V188.28C495.746 186.12 494.338 185.032 492.69 185.032C491.138 185.032 490.418 185.752 490.05 186.488H489.826V185.16H488.354Z" fill="#434343"/>
<path d="M262.152 304.8V316H265.608C268.456 316 270.152 314.56 270.152 311.648V309.152C270.152 306.24 268.456 304.8 265.608 304.8H262.152ZM263.752 306.272H265.576C267.528 306.272 268.552 307.136 268.552 309.184V311.616C268.552 313.664 267.528 314.528 265.576 314.528H263.752V306.272ZM271.53 312.016C271.53 314.384 273.194 316.224 275.626 316.224C277.498 316.224 278.506 315.184 279.098 314.224L277.834 313.504C277.418 314.336 276.746 314.912 275.594 314.912C274.186 314.912 273.194 314.032 273.098 312.624H279.274V311.872C279.274 309.6 277.738 307.904 275.434 307.904C273.162 307.904 271.53 309.712 271.53 312.016ZM273.098 311.408C273.21 310.016 274.058 309.216 275.434 309.216C276.81 309.216 277.674 310.064 277.706 311.408H273.098ZM280.933 304.8V316H282.405V314.768H282.629C283.061 315.488 283.781 316.224 285.317 316.224C287.381 316.224 288.997 314.512 288.997 312.08C288.997 309.648 287.381 307.936 285.317 307.936C283.781 307.936 283.061 308.672 282.629 309.392H282.437V304.8H280.933ZM284.933 309.28C286.437 309.28 287.493 310.288 287.493 312.08C287.493 313.872 286.437 314.88 284.933 314.88C283.397 314.88 282.437 313.808 282.437 312.08C282.437 310.352 283.397 309.28 284.933 309.28ZM292.169 308.16H290.729V316H292.233V311.424C292.233 310.24 292.841 309.6 293.961 309.6H295.337V308.128H294.441C293.305 308.128 292.665 308.608 292.393 309.44H292.169V308.16ZM296.281 305.76C296.281 306.432 296.825 306.944 297.497 306.944C298.169 306.944 298.713 306.432 298.713 305.76C298.713 305.088 298.169 304.576 297.497 304.576C296.825 304.576 296.281 305.088 296.281 305.76ZM298.249 308.16H296.745V316H298.249V308.16ZM299.983 312.016C299.983 314.384 301.647 316.224 304.079 316.224C305.951 316.224 306.959 315.184 307.551 314.224L306.287 313.504C305.871 314.336 305.199 314.912 304.047 314.912C302.639 314.912 301.647 314.032 301.551 312.624H307.727V311.872C307.727 309.6 306.191 307.904 303.887 307.904C301.615 307.904 299.983 309.712 299.983 312.016ZM301.551 311.408C301.663 310.016 302.511 309.216 303.887 309.216C305.263 309.216 306.127 310.064 306.159 311.408H301.551ZM308.412 308.16V309.472H310.588V316H312.092V309.472H314.332V308.16H312.092V306.56C312.092 306.24 312.22 306.112 312.508 306.112H313.916V304.8H311.932C311.132 304.8 310.588 305.344 310.588 306.176V308.16H308.412ZM262.152 328.8V340H263.752V335.12H268.616V340H270.216V328.8H268.616V333.648H263.752V328.8H262.152ZM271.983 336.08C271.983 338.512 273.711 340.224 276.015 340.224C278.319 340.224 280.047 338.512 280.047 336.08C280.047 333.648 278.319 331.936 276.015 331.936C273.711 331.936 271.983 333.648 271.983 336.08ZM273.487 336.08C273.487 334.352 274.511 333.312 276.015 333.312C277.519 333.312 278.543 334.352 278.543 336.08C278.543 337.808 277.519 338.848 276.015 338.848C274.511 338.848 273.487 337.808 273.487 336.08ZM281.776 332.16V340H283.28V335.104C283.28 333.92 284.064 333.312 285.072 333.312C285.984 333.312 286.608 333.824 286.608 334.736V340H288.112V335.104C288.112 333.92 288.848 333.312 289.824 333.312C290.752 333.312 291.44 333.824 291.44 334.736V340H292.944V334.64C292.944 333.024 291.68 332.032 290.288 332.032C289.008 332.032 288.336 332.688 288.016 333.344H287.792C287.408 332.624 286.752 332.032 285.616 332.032C284.576 332.032 283.872 332.512 283.472 333.184H283.248V332.16H281.776ZM294.577 336.016C294.577 338.384 296.241 340.224 298.673 340.224C300.545 340.224 301.553 339.184 302.145 338.224L300.881 337.504C300.465 338.336 299.793 338.912 298.641 338.912C297.233 338.912 296.241 338.032 296.145 336.624H302.321V335.872C302.321 333.6 300.785 331.904 298.481 331.904C296.209 331.904 294.577 333.712 294.577 336.016ZM296.145 335.408C296.257 334.016 297.105 333.216 298.481 333.216C299.857 333.216 300.721 334.064 300.753 335.408H296.145ZM303.261 332.16L305.005 340H307.245L308.701 333.728H308.925L310.349 340H312.621L314.365 332.16H312.797L311.565 338.432H311.341L309.917 332.16H307.709L306.285 338.432H306.061L304.829 332.16H303.261ZM315.374 336.08C315.374 338.512 317.102 340.224 319.406 340.224C321.71 340.224 323.438 338.512 323.438 336.08C323.438 333.648 321.71 331.936 319.406 331.936C317.102 331.936 315.374 333.648 315.374 336.08ZM316.878 336.08C316.878 334.352 317.902 333.312 319.406 333.312C320.91 333.312 321.934 334.352 321.934 336.08C321.934 337.808 320.91 338.848 319.406 338.848C317.902 338.848 316.878 337.808 316.878 336.08ZM326.607 332.16H325.167V340H326.671V335.424C326.671 334.24 327.279 333.6 328.399 333.6H329.775V332.128H328.879C327.743 332.128 327.103 332.608 326.831 333.44H326.607V332.16ZM338.991 332.16H336.783L332.879 335.472H332.687V328.8H331.183V340H332.687V337.456L334.303 336.112L337.119 340H338.927L335.391 335.184L338.991 332.16Z" fill="#434343"/>
<circle cx="244" cy="311" r="5" fill="#434343"/>
<circle cx="95" cy="163" r="5" fill="#434343"/>
<circle cx="392" cy="164" r="5" fill="#434343"/>
<path d="M211.73 157.8V169H213.33V159.496H213.522L216.354 169H218.754L221.586 159.496H221.778V169H223.378V157.8H220.498L217.65 167.336H217.458L214.61 157.8H211.73ZM226.483 157.8V169H233.715V167.528H228.083V164.12H233.203V162.648H228.083V159.272H233.651V157.8H226.483ZM236.314 157.8V169H237.914V159.24H238.106L241.562 169H244.538V157.8H242.938V167.576H242.746L239.258 157.8H236.314ZM246.814 157.8V159.272H250.43V169H252.03V159.272H255.646V157.8H246.814ZM257.296 162.152V164.648C257.296 167.528 258.928 169.224 261.648 169.224C264.368 169.224 266 167.528 266 164.648V162.152C266 159.272 264.304 157.576 261.648 157.576C258.928 157.576 257.296 159.272 257.296 162.152ZM258.896 162.12C258.896 160.136 259.792 159.048 261.648 159.048C263.504 159.048 264.4 160.136 264.4 162.12V164.68C264.4 166.664 263.504 167.752 261.648 167.752C259.792 167.752 258.896 166.664 258.896 164.68V162.12ZM276.843 161.112C276.843 159.112 275.435 157.8 273.387 157.8H268.715V169H270.315V164.424H272.523L274.891 169H276.651L274.155 164.36C275.755 164.056 276.843 162.84 276.843 161.112ZM270.315 159.272H273.211C274.539 159.272 275.243 159.928 275.243 161.112C275.243 162.296 274.507 162.952 273.211 162.952H270.315V159.272Z" fill="#434343"/>
<circle cx="244" cy="13" r="5" fill="#434343"/>
<path d="M255.152 488.8V500H256.752V490.496H256.944L259.776 500H262.176L265.008 490.496H265.2V500H266.8V488.8H263.92L261.072 498.336H260.88L258.032 488.8H255.152Z" fill="#434343"/>
<path d="M292.32 488.8V490.272H295.936V500H297.536V490.272H301.152V488.8H292.32Z" fill="#434343"/>
<path d="M326.448 488.8L328 500H330.752L332.432 490.24H332.624L334.304 500H337.056L338.608 488.8H336.976L335.696 498.56H335.504L333.824 488.8H331.232L329.552 498.56H329.36L328.08 488.8H326.448Z" fill="#434343"/>
<path d="M364.32 488.8V490.272H367.936V500H369.536V490.272H373.152V488.8H364.32Z" fill="#434343"/>
<path d="M399.152 488.8V500H400.752V495.12H405.84V493.648H400.752V490.272H406.128V488.8H399.152Z" fill="#434343"/>
<path d="M435.768 488.576C433.688 488.576 432.024 489.776 432.024 491.68C432.024 493.76 433.48 494.512 435.48 494.944L436.216 495.104C437.64 495.408 438.36 495.84 438.36 496.912C438.36 497.984 437.464 498.784 435.976 498.784C434.136 498.784 433.112 497.808 433.112 496.032V495.648H431.512V496.16C431.512 498.624 433.224 500.224 435.96 500.224C438.264 500.224 439.96 498.928 439.96 496.864C439.96 494.944 438.696 494.048 436.616 493.6L435.88 493.44C434.296 493.088 433.624 492.688 433.624 491.664C433.624 490.672 434.52 490.016 435.768 490.016C437.24 490.016 438.264 490.784 438.264 492.224V492.608H439.864V492.096C439.864 489.808 438.088 488.576 435.768 488.576Z" fill="#434343"/>
<path d="M469.768 488.576C467.688 488.576 466.024 489.776 466.024 491.68C466.024 493.76 467.48 494.512 469.48 494.944L470.216 495.104C471.64 495.408 472.36 495.84 472.36 496.912C472.36 497.984 471.464 498.784 469.976 498.784C468.136 498.784 467.112 497.808 467.112 496.032V495.648H465.512V496.16C465.512 498.624 467.224 500.224 469.96 500.224C472.264 500.224 473.96 498.928 473.96 496.864C473.96 494.944 472.696 494.048 470.616 493.6L469.88 493.44C468.296 493.088 467.624 492.688 467.624 491.664C467.624 490.672 468.52 490.016 469.768 490.016C471.24 490.016 472.264 490.784 472.264 492.224V492.608H473.864V492.096C473.864 489.808 472.088 488.576 469.768 488.576Z" fill="#434343"/>
<rect x="64" y="518" width="439" height="32" fill="#324BD9"/>
<circle cx="369" cy="534" r="5" fill="#A2C7FA"/>
<path d="M8 640.56L22 640.56L22 638.56L10.12 638.56L10.12 638.32L22 634.78L22 631.78L10.12 628.24L10.12 628L22 628L22 626L8 626L8 629.6L19.92 633.16L19.92 633.4L8 636.96L8 640.56ZM17.02 623.799C19.98 623.799 22.28 621.719 22.28 618.679C22.28 616.339 20.98 615.079 19.78 614.339L18.88 615.919C19.92 616.439 20.64 617.279 20.64 618.719C20.64 620.479 19.54 621.719 17.78 621.839L17.78 614.119L16.84 614.119C14 614.119 11.88 616.039 11.88 618.919C11.88 621.759 14.14 623.799 17.02 623.799ZM16.26 621.839C14.52 621.699 13.52 620.639 13.52 618.919C13.52 617.199 14.58 616.119 16.26 616.079L16.26 621.839ZM12.2 612.045L22 612.045L22 610.165L16.88 610.165C14.84 610.165 13.68 609.025 13.68 607.205C13.68 605.605 14.56 604.685 16.26 604.685L22 604.685L22 602.805L16.1 602.805C13.4 602.805 12.04 604.565 12.04 606.625C12.04 608.565 12.94 609.465 13.86 609.925L13.86 610.205L12.2 610.205L12.2 612.045ZM12.2 601.447L13.84 601.447L13.84 598.727L20.32 598.727C21.32 598.727 22 598.047 22 597.087L22 594.527L20.36 594.527L20.36 596.327C20.36 596.687 20.2 596.847 19.8 596.847L13.84 596.847L13.84 593.967L12.2 593.967L12.2 596.847L8.8 596.847L8.8 598.727L12.2 598.727L12.2 601.447ZM17.1 592.744C20.14 592.744 22.28 590.584 22.28 587.704C22.28 584.824 20.14 582.664 17.1 582.664C14.06 582.664 11.92 584.824 11.92 587.704C11.92 590.584 14.06 592.744 17.1 592.744ZM17.1 590.864C14.94 590.864 13.64 589.584 13.64 587.704C13.64 585.824 14.94 584.544 17.1 584.544C19.26 584.544 20.56 585.824 20.56 587.704C20.56 589.584 19.26 590.864 17.1 590.864ZM12.2 578.702L12.2 580.502L22 580.502L22 578.622L16.28 578.622C14.8 578.622 14 577.862 14 576.462L14 574.742L12.16 574.742L12.16 575.862C12.16 577.282 12.76 578.082 13.8 578.422L13.8 578.702L12.2 578.702ZM7.72 562.427C7.72 565.027 9.22 567.107 11.6 567.107C14.2 567.107 15.14 565.287 15.68 562.787L15.88 561.867C16.26 560.087 16.8 559.187 18.14 559.187C19.48 559.187 20.48 560.307 20.48 562.167C20.48 564.467 19.26 565.747 17.04 565.747L16.56 565.747L16.56 567.747L17.2 567.747C20.28 567.747 22.28 565.607 22.28 562.187C22.28 559.307 20.66 557.187 18.08 557.187C15.68 557.187 14.56 558.767 14 561.367L13.8 562.287C13.36 564.267 12.86 565.107 11.58 565.107C10.34 565.107 9.52 563.987 9.52 562.427C9.52 560.587 10.48 559.307 12.28 559.307L12.76 559.307L12.76 557.307L12.12 557.307C9.26 557.307 7.72 559.527 7.72 562.427ZM17.1 555.556C20.1 555.556 22.28 553.396 22.28 550.436C22.28 547.536 20.34 546.116 18.48 545.676L18.12 547.536C19.38 547.796 20.56 548.556 20.56 550.436C20.56 552.356 19.18 553.676 17.1 553.676C15.02 553.676 13.64 552.356 13.64 550.476C13.64 548.736 14.72 547.716 16.1 547.556L15.72 545.716C13.54 546.116 11.92 547.836 11.92 550.476C11.92 553.396 14.1 555.556 17.1 555.556ZM7.99999 543.588L22 543.588L22 541.708L16.88 541.708C14.84 541.708 13.68 540.568 13.68 538.748C13.68 537.148 14.56 536.228 16.26 536.228L22 536.228L22 534.348L16.1 534.348C13.4 534.348 12.04 536.108 12.04 538.168C12.04 540.108 12.94 541.008 13.86 541.468L13.86 541.708L7.99999 541.708L7.99999 543.588ZM17.02 532.314C19.98 532.314 22.28 530.234 22.28 527.194C22.28 524.854 20.98 523.594 19.78 522.854L18.88 524.434C19.92 524.954 20.64 525.794 20.64 527.234C20.64 528.994 19.54 530.234 17.78 530.354L17.78 522.634L16.84 522.634C14 522.634 11.88 524.554 11.88 527.434C11.88 530.274 14.14 532.314 17.02 532.314ZM16.26 530.354C14.52 530.214 13.52 529.154 13.52 527.434C13.52 525.714 14.58 524.634 16.26 524.594L16.26 530.354ZM7.99999 511.121L7.99999 513.001L13.74 513.001L13.74 513.241C12.84 513.781 11.92 514.681 11.92 516.601C11.92 519.181 14.06 521.201 17.1 521.201C20.14 521.201 22.28 519.181 22.28 516.601C22.28 514.681 21.36 513.781 20.46 513.241L20.46 512.961L22 512.961L22 511.121L7.99999 511.121ZM13.6 516.121C13.6 514.201 14.94 513.001 17.1 513.001C19.26 513.001 20.6 514.201 20.6 516.121C20.6 518.001 19.34 519.321 17.1 519.321C14.86 519.321 13.6 518.001 13.6 516.121ZM22 499.195L12.2 499.195L12.2 501.075L17.32 501.075C19.36 501.075 20.52 502.215 20.52 504.035C20.52 505.635 19.64 506.555 17.94 506.555L12.2 506.555L12.2 508.435L18.1 508.435C20.8 508.435 22.16 506.675 22.16 504.615C22.16 502.675 21.26 501.775 20.34 501.315L20.34 501.035L22 501.035L22 499.195ZM7.99999 494.521L7.99999 496.401L22 496.401L22 494.521L7.99999 494.521ZM17.02 492.353C19.98 492.353 22.28 490.273 22.28 487.233C22.28 484.893 20.98 483.633 19.78 482.893L18.88 484.473C19.92 484.993 20.64 485.833 20.64 487.273C20.64 489.033 19.54 490.273 17.78 490.393L17.78 482.673L16.84 482.673C14 482.673 11.88 484.593 11.88 487.473C11.88 490.313 14.14 492.353 17.02 492.353ZM16.26 490.393C14.52 490.253 13.52 489.193 13.52 487.473C13.52 485.753 14.58 484.673 16.26 484.633L16.26 490.393Z" fill="#434343"/>
<path d="M261 527L267.062 537.5H254.938L261 527Z" fill="#56CCF2"/>
<path d="M331 527L337.062 537.5H324.938L331 527Z" fill="#56CCF2"/>
<path d="M403 527L409.062 537.5H396.938L403 527Z" fill="#56CCF2"/>
<path d="M76.352 528.8L78.288 540H80.912L82.992 530.416H83.184L85.264 540H87.872L89.808 528.8H88.224L86.624 538.384H86.432L84.336 528.8H81.84L79.744 538.384H79.552L77.952 528.8H76.352ZM90.5135 536.016C90.5135 538.432 92.1615 540.224 94.5615 540.224C96.6575 540.224 97.5695 539.104 98.0975 538.16L96.8335 537.472C96.4815 538.224 95.8255 538.912 94.5455 538.912C93.1055 538.912 92.1615 537.936 92.0815 536.544H98.2415V535.824C98.2415 533.44 96.6895 531.92 94.4495 531.92C92.1615 531.92 90.5135 533.664 90.5135 536.016ZM92.0815 535.328C92.2255 534.064 93.0895 533.232 94.4495 533.232C95.7455 533.232 96.6095 534.016 96.6895 535.328H92.0815ZM99.326 536.016C99.326 538.432 100.974 540.224 103.374 540.224C105.47 540.224 106.382 539.104 106.91 538.16L105.646 537.472C105.294 538.224 104.638 538.912 103.358 538.912C101.918 538.912 100.974 537.936 100.894 536.544H107.054V535.824C107.054 533.44 105.502 531.92 103.262 531.92C100.974 531.92 99.326 533.664 99.326 536.016ZM100.894 535.328C101.038 534.064 101.902 533.232 103.262 533.232C104.558 533.232 105.422 534.016 105.502 535.328H100.894ZM116.331 532.144H114.187L110.331 535.472H110.139V528.8H108.635V540H110.139V537.408L111.674 536.112L114.475 540H116.235L112.747 535.2L116.331 532.144ZM117.348 534.24C117.348 535.632 118.436 536.272 120.196 536.576L121.14 536.736C122.132 536.896 122.772 537.184 122.772 537.856C122.772 538.528 122.084 538.992 120.996 538.992C119.908 538.992 118.724 538.576 118.02 537.152L116.804 537.856C117.62 539.344 119.14 540.224 121.028 540.224C122.836 540.224 124.228 539.28 124.228 537.76C124.228 536.24 122.916 535.696 121.268 535.424L120.324 535.264C119.396 535.104 118.804 534.832 118.804 534.176C118.804 533.536 119.412 533.152 120.356 533.152C121.284 533.152 122.308 533.536 123.172 534.64L124.212 533.76C123.348 532.72 122.052 531.92 120.292 531.92C118.548 531.92 117.348 532.816 117.348 534.24Z" fill="white"/>
<circle cx="71" cy="627" r="5" fill="#A2C7FA"/>
<circle cx="436" cy="534" r="5" fill="#A2C7FA"/>
<path d="M296 527L302.062 537.5H289.938L296 527Z" fill="#56CCF2"/>
<path d="M71 583L77.0622 593.5H64.9378L71 583Z" fill="#56CCF2"/>
<path d="M470 527L476.062 537.5H463.938L470 527Z" fill="#56CCF2"/>
<path d="M94.768 588.152V590.648C94.768 593.528 96.4 595.224 99.12 595.224C101.84 595.224 103.472 593.528 103.472 590.648V588.152C103.472 585.272 101.776 583.576 99.12 583.576C96.4 583.576 94.768 585.272 94.768 588.152ZM96.368 588.12C96.368 586.136 97.264 585.048 99.12 585.048C100.976 585.048 101.872 586.136 101.872 588.12V590.68C101.872 592.664 100.976 593.752 99.12 593.752C97.264 593.752 96.368 592.664 96.368 590.68V588.12ZM116.794 583.576C116.122 583.576 115.578 584.088 115.578 584.76C115.578 585.432 116.122 585.944 116.794 585.944C117.466 585.944 118.01 585.432 118.01 584.76C118.01 584.088 117.466 583.576 116.794 583.576ZM112.842 587.16V585.56C112.842 585.24 112.97 585.112 113.258 585.112H114.506V583.8H112.682C111.882 583.8 111.338 584.344 111.338 585.176V587.16H108.138V585.56C108.138 585.24 108.266 585.112 108.554 585.112H109.962V583.8H107.978C107.178 583.8 106.634 584.344 106.634 585.176V587.16H104.458V588.472H106.634V595H108.138V588.472H111.338V595H112.842V588.472H116.042V595H117.546V587.16H112.842ZM119.28 591.08C119.28 593.48 121.008 595.224 123.376 595.224C125.696 595.224 126.832 593.672 127.184 592.184L125.696 591.896C125.488 592.904 124.88 593.848 123.376 593.848C121.84 593.848 120.784 592.744 120.784 591.08C120.784 589.416 121.84 588.312 123.344 588.312C124.736 588.312 125.552 589.176 125.68 590.28L127.152 589.976C126.832 588.232 125.456 586.936 123.344 586.936C121.008 586.936 119.28 588.68 119.28 591.08ZM128.342 591.016C128.342 593.384 130.006 595.224 132.438 595.224C134.31 595.224 135.318 594.184 135.91 593.224L134.646 592.504C134.23 593.336 133.558 593.912 132.406 593.912C130.998 593.912 130.006 593.032 129.91 591.624H136.086V590.872C136.086 588.6 134.55 586.904 132.246 586.904C129.974 586.904 128.342 588.712 128.342 591.016ZM129.91 590.408C130.022 589.016 130.87 588.216 132.246 588.216C133.622 588.216 134.486 589.064 134.518 590.408H129.91ZM142.574 583.8V595H144.174V590.12H149.038V595H150.638V583.8H149.038V588.648H144.174V583.8H142.574ZM152.405 591.08C152.405 593.512 154.133 595.224 156.437 595.224C158.741 595.224 160.469 593.512 160.469 591.08C160.469 588.648 158.741 586.936 156.437 586.936C154.133 586.936 152.405 588.648 152.405 591.08ZM153.909 591.08C153.909 589.352 154.933 588.312 156.437 588.312C157.941 588.312 158.965 589.352 158.965 591.08C158.965 592.808 157.941 593.848 156.437 593.848C154.933 593.848 153.909 592.808 153.909 591.08ZM169.494 595V587.16H167.99V591.256C167.99 592.888 167.078 593.816 165.622 593.816C164.342 593.816 163.606 593.112 163.606 591.752V587.16H162.102V591.88C162.102 594.04 163.51 595.128 165.158 595.128C166.71 595.128 167.43 594.408 167.798 593.672H168.022V595H169.494ZM173.169 587.16H171.729V595H173.233V590.424C173.233 589.24 173.841 588.6 174.961 588.6H176.337V587.128H175.441C174.305 587.128 173.665 587.608 173.393 588.44H173.169V587.16ZM177.429 589.256C177.429 590.744 178.597 591.32 180.357 591.576L181.013 591.672C181.861 591.8 182.869 591.864 182.869 592.68C182.869 593.448 182.069 593.944 180.949 593.944C179.669 593.944 178.661 593.224 178.165 592.04L176.821 592.76C177.429 593.912 178.677 595.224 180.901 595.224C182.917 595.224 184.357 594.2 184.357 592.632C184.357 591 182.965 590.568 181.189 590.312L180.533 590.216C179.685 590.088 178.917 590.008 178.917 589.24C178.917 588.568 179.573 588.184 180.453 588.184C181.381 588.184 182.325 588.616 183.189 589.736L184.309 588.936C183.077 587.56 182.021 586.936 180.421 586.936C178.821 586.936 177.429 587.768 177.429 589.256ZM190.023 583.8V585.272H193.639V595H195.239V585.272H198.855V583.8H190.023ZM205.994 595V587.16H204.49V591.256C204.49 592.888 203.578 593.816 202.122 593.816C200.842 593.816 200.106 593.112 200.106 591.752V587.16H198.602V591.88C198.602 594.04 200.01 595.128 201.658 595.128C203.21 595.128 203.93 594.408 204.298 593.672H204.522V595H205.994ZM207.717 591.016C207.717 593.384 209.381 595.224 211.813 595.224C213.685 595.224 214.693 594.184 215.285 593.224L214.021 592.504C213.605 593.336 212.933 593.912 211.781 593.912C210.373 593.912 209.381 593.032 209.285 591.624H215.461V590.872C215.461 588.6 213.925 586.904 211.621 586.904C209.349 586.904 207.717 588.712 207.717 591.016ZM209.285 590.408C209.397 589.016 210.245 588.216 211.621 588.216C212.997 588.216 213.861 589.064 213.893 590.408H209.285ZM216.644 593.976C216.644 594.728 217.22 595.176 217.876 595.176C218.004 595.176 218.084 595.16 218.148 595.144V595.64C218.148 595.96 218.004 596.12 217.716 596.12H216.708V597.016H217.844C218.596 597.016 219.14 596.456 219.14 595.704V593.944C219.14 593.208 218.612 592.728 217.892 592.728C217.204 592.728 216.644 593.208 216.644 593.976ZM225.182 583.8L226.734 595H229.486L231.166 585.24H231.358L233.038 595H235.79L237.342 583.8H235.71L234.43 593.56H234.238L232.558 583.8H229.966L228.286 593.56H228.094L226.814 583.8H225.182ZM238.171 591.016C238.171 593.384 239.835 595.224 242.266 595.224C244.139 595.224 245.147 594.184 245.739 593.224L244.475 592.504C244.059 593.336 243.387 593.912 242.235 593.912C240.827 593.912 239.835 593.032 239.739 591.624H245.915V590.872C245.915 588.6 244.379 586.904 242.075 586.904C239.803 586.904 238.171 588.712 238.171 591.016ZM239.739 590.408C239.851 589.016 240.699 588.216 242.075 588.216C243.451 588.216 244.315 589.064 244.347 590.408H239.739ZM255.125 583.8H253.621V588.392H253.429C252.997 587.672 252.277 586.936 250.741 586.936C248.677 586.936 247.061 588.648 247.061 591.08C247.061 593.512 248.677 595.224 250.741 595.224C252.277 595.224 252.997 594.488 253.429 593.768H253.653V595H255.125V583.8ZM251.125 588.28C252.661 588.28 253.621 589.352 253.621 591.08C253.621 592.808 252.661 593.88 251.125 593.88C249.621 593.88 248.565 592.872 248.565 591.08C248.565 589.288 249.621 588.28 251.125 588.28ZM257.05 593.976C257.05 594.728 257.626 595.176 258.282 595.176C258.41 595.176 258.49 595.16 258.554 595.144V595.64C258.554 595.96 258.41 596.12 258.122 596.12H257.114V597.016H258.25C259.002 597.016 259.546 596.456 259.546 595.704V593.944C259.546 593.208 259.018 592.728 258.298 592.728C257.61 592.728 257.05 593.208 257.05 593.976ZM266.293 583.8V595H267.893V590.12H272.981V588.648H267.893V585.272H273.269V583.8H266.293ZM276.185 587.16H274.745V595H276.249V590.424C276.249 589.24 276.857 588.6 277.977 588.6H279.353V587.128H278.457C277.321 587.128 276.681 587.608 276.409 588.44H276.185V587.16ZM280.297 584.76C280.297 585.432 280.841 585.944 281.513 585.944C282.185 585.944 282.729 585.432 282.729 584.76C282.729 584.088 282.185 583.576 281.513 583.576C280.841 583.576 280.297 584.088 280.297 584.76ZM282.265 587.16H280.761V595H282.265V587.16ZM288.732 591.864C288.732 593.784 290.14 595.24 292.316 595.24C293.612 595.24 294.54 594.712 295.308 593.896H295.532L296.668 595H298.78L296.396 592.648V592.424L298.652 588.488H296.956L295.308 591.368H295.084L293.004 589.32C291.884 588.216 291.196 587.56 291.196 586.6V586.536C291.196 585.64 291.868 585.048 292.86 585.048C293.916 585.048 294.588 585.672 294.588 586.696V587.064H296.188V586.648C296.188 584.744 294.812 583.576 292.891 583.576C291.004 583.576 289.596 584.712 289.596 586.504V586.6C289.596 587.4 289.916 588.104 290.412 588.744V588.952C289.564 589.592 288.732 590.568 288.732 591.864ZM290.332 591.864V591.8C290.332 591.096 290.732 590.504 291.404 590.056H291.612L294.284 592.664V592.888C293.804 593.4 293.18 593.768 292.316 593.768C291.036 593.768 290.332 592.824 290.332 591.864ZM308.627 583.576C306.547 583.576 304.883 584.776 304.883 586.68C304.883 588.76 306.339 589.512 308.339 589.944L309.075 590.104C310.499 590.408 311.219 590.84 311.219 591.912C311.219 592.984 310.323 593.784 308.835 593.784C306.995 593.784 305.971 592.808 305.971 591.032V590.648H304.371V591.16C304.371 593.624 306.083 595.224 308.819 595.224C311.123 595.224 312.819 593.928 312.819 591.864C312.819 589.944 311.555 589.048 309.475 588.6L308.739 588.44C307.155 588.088 306.483 587.688 306.483 586.664C306.483 585.672 307.379 585.016 308.627 585.016C310.099 585.016 311.123 585.784 311.123 587.224V587.608H312.723V587.096C312.723 584.808 310.947 583.576 308.627 583.576ZM321.932 595V587.16H320.428V591.256C320.428 592.888 319.516 593.816 318.06 593.816C316.78 593.816 316.044 593.112 316.044 591.752V587.16H314.54V591.88C314.54 594.04 315.948 595.128 317.596 595.128C319.148 595.128 319.868 594.408 320.236 593.672H320.46V595H321.932ZM324.167 587.16V595H325.671V590.904C325.671 589.272 326.583 588.344 328.039 588.344C329.319 588.344 330.055 589.048 330.055 590.408V595H331.559V590.28C331.559 588.12 330.151 587.032 328.503 587.032C326.951 587.032 326.231 587.752 325.863 588.488H325.639V587.16H324.167ZM338.495 583.8V595H339.967V593.768H340.191C340.623 594.488 341.343 595.224 342.879 595.224C344.943 595.224 346.559 593.512 346.559 591.08C346.559 588.648 344.943 586.936 342.879 586.936C341.343 586.936 340.623 587.672 340.191 588.392H339.999V583.8H338.495ZM342.495 588.28C343.999 588.28 345.055 589.288 345.055 591.08C345.055 592.872 343.999 593.88 342.495 593.88C340.959 593.88 339.999 592.808 339.999 591.08C339.999 589.352 340.959 588.28 342.495 588.28ZM347.78 591.016C347.78 593.384 349.444 595.224 351.876 595.224C353.748 595.224 354.756 594.184 355.348 593.224L354.084 592.504C353.668 593.336 352.996 593.912 351.844 593.912C350.436 593.912 349.444 593.032 349.348 591.624H355.524V590.872C355.524 588.6 353.988 586.904 351.684 586.904C349.412 586.904 347.78 588.712 347.78 591.016ZM349.348 590.408C349.46 589.016 350.308 588.216 351.684 588.216C353.06 588.216 353.924 589.064 353.956 590.408H349.348ZM356.208 587.16V588.472H358.384V593.656C358.384 594.456 358.928 595 359.696 595H361.744V593.688H360.304C360.016 593.688 359.888 593.56 359.888 593.24V588.472H362.192V587.16H359.888V584.44H358.384V587.16H356.208ZM363.121 587.16L364.865 595H367.105L368.561 588.728H368.785L370.209 595H372.481L374.225 587.16H372.657L371.425 593.432H371.201L369.777 587.16H367.569L366.145 593.432H365.921L364.689 587.16H363.121ZM375.233 591.016C375.233 593.384 376.897 595.224 379.329 595.224C381.201 595.224 382.209 594.184 382.801 593.224L381.537 592.504C381.121 593.336 380.449 593.912 379.297 593.912C377.889 593.912 376.897 593.032 376.801 591.624H382.977V590.872C382.977 588.6 381.441 586.904 379.137 586.904C376.865 586.904 375.233 588.712 375.233 591.016ZM376.801 590.408C376.913 589.016 377.761 588.216 379.137 588.216C380.513 588.216 381.377 589.064 381.409 590.408H376.801ZM384.124 591.016C384.124 593.384 385.788 595.224 388.22 595.224C390.092 595.224 391.1 594.184 391.692 593.224L390.428 592.504C390.012 593.336 389.34 593.912 388.188 593.912C386.78 593.912 385.788 593.032 385.692 591.624H391.868V590.872C391.868 588.6 390.332 586.904 388.028 586.904C385.756 586.904 384.124 588.712 384.124 591.016ZM385.692 590.408C385.804 589.016 386.652 588.216 388.028 588.216C389.404 588.216 390.268 589.064 390.3 590.408H385.692ZM393.526 587.16V595H395.03V590.904C395.03 589.272 395.942 588.344 397.398 588.344C398.678 588.344 399.414 589.048 399.414 590.408V595H400.918V590.28C400.918 588.12 399.51 587.032 397.862 587.032C396.31 587.032 395.59 587.752 395.222 588.488H394.998V587.16H393.526ZM409.934 583.8L406.798 588.696H408.558L410.638 585.288H410.83V595H412.43V583.8H409.934ZM414.122 587.448C414.122 589.752 415.77 591.24 417.642 591.24C419.226 591.24 419.946 590.472 420.33 589.864H420.522V591.368C420.522 592.776 419.61 593.752 418.09 593.752C416.57 593.752 415.882 592.952 415.882 591.736H414.282C414.282 593.896 415.802 595.224 418.09 595.224C420.426 595.224 422.122 593.64 422.122 591.352V587.432C422.122 585.128 420.41 583.576 418.154 583.576C415.834 583.576 414.122 585.144 414.122 587.448ZM418.154 589.832C416.698 589.832 415.722 588.872 415.722 587.448C415.722 586.024 416.698 585.048 418.154 585.048C419.546 585.048 420.522 586.024 420.522 587.448C420.522 588.872 419.546 589.832 418.154 589.832ZM423.691 588.088C423.691 588.792 424.251 589.336 424.939 589.336C425.627 589.336 426.187 588.792 426.187 588.088C426.187 587.384 425.627 586.84 424.939 586.84C424.251 586.84 423.691 587.384 423.691 588.088ZM423.691 593.976C423.691 594.68 424.251 595.224 424.939 595.224C425.627 595.224 426.187 594.68 426.187 593.976C426.187 593.272 425.627 592.728 424.939 592.728C424.251 592.728 423.691 593.272 423.691 593.976ZM427.928 583.8V585.272H433.288L430.184 588.04V589.512H431.928C433.112 589.512 434.088 590.264 434.088 591.528C434.088 592.824 433.144 593.752 431.656 593.752C430.072 593.752 429.096 592.808 429.096 591.384V590.728H427.496V591.48C427.496 593.688 429.256 595.224 431.688 595.224C433.896 595.224 435.688 593.736 435.688 591.56C435.688 589.576 434.312 588.296 432.616 588.296H432.2V588.104L435.496 585.224V583.8H427.928ZM437.127 588.152V590.648C437.127 593.528 438.727 595.224 441.319 595.224C443.911 595.224 445.511 593.528 445.511 590.648V588.152C445.511 585.272 443.847 583.576 441.319 583.576C438.727 583.576 437.127 585.272 437.127 588.152ZM438.727 588.12C438.727 586.136 439.591 585.048 441.319 585.048C443.047 585.048 443.911 586.136 443.911 588.12V590.68C443.911 592.664 443.047 593.752 441.319 593.752C439.591 593.752 438.727 592.664 438.727 590.68V588.12ZM452.39 591.656H457.126V590.28H452.39V591.656ZM463.97 587.384V587.832H465.57V587.48C465.57 585.912 466.482 585.048 468.082 585.048C469.33 585.048 470.306 585.8 470.306 587.128C470.306 588.712 469.154 589.304 467.298 589.912C465.266 590.584 463.97 591.464 463.97 593.56V595H471.746V593.528H465.602V593.368C465.602 592.088 466.402 591.72 467.97 591.192C470.13 590.472 471.906 589.608 471.906 587.192C471.906 585.016 470.29 583.576 468.082 583.576C465.634 583.576 463.97 585.064 463.97 587.384ZM475.747 583.8L472.611 588.696H474.371L476.451 585.288H476.643V595H478.243V583.8H475.747ZM480.191 588.088C480.191 588.792 480.751 589.336 481.439 589.336C482.127 589.336 482.687 588.792 482.687 588.088C482.687 587.384 482.127 586.84 481.439 586.84C480.751 586.84 480.191 587.384 480.191 588.088ZM480.191 593.976C480.191 594.68 480.751 595.224 481.439 595.224C482.127 595.224 482.687 594.68 482.687 593.976C482.687 593.272 482.127 592.728 481.439 592.728C480.751 592.728 480.191 593.272 480.191 593.976ZM484.428 583.8V585.272H489.788L486.684 588.04V589.512H488.428C489.612 589.512 490.588 590.264 490.588 591.528C490.588 592.824 489.644 593.752 488.156 593.752C486.572 593.752 485.596 592.808 485.596 591.384V590.728H483.996V591.48C483.996 593.688 485.756 595.224 488.188 595.224C490.396 595.224 492.188 593.736 492.188 591.56C492.188 589.576 490.812 588.296 489.116 588.296H488.7V588.104L491.996 585.224V583.8H484.428ZM493.627 588.152V590.648C493.627 593.528 495.227 595.224 497.819 595.224C500.411 595.224 502.011 593.528 502.011 590.648V588.152C502.011 585.272 500.347 583.576 497.819 583.576C495.227 583.576 493.627 585.272 493.627 588.152ZM495.227 588.12C495.227 586.136 496.091 585.048 497.819 585.048C499.547 585.048 500.411 586.136 500.411 588.12V590.68C500.411 592.664 499.547 593.752 497.819 593.752C496.091 593.752 495.227 592.664 495.227 590.68V588.12Z" fill="#434343"/>
<path d="M95.152 621.8V633H96.752V623.496H96.944L99.776 633H102.176L105.008 623.496H105.2V633H106.8V621.8H103.92L101.072 631.336H100.88L98.032 621.8H95.152ZM108.561 629.016C108.561 631.384 110.225 633.224 112.657 633.224C114.529 633.224 115.537 632.184 116.129 631.224L114.865 630.504C114.449 631.336 113.777 631.912 112.625 631.912C111.217 631.912 110.225 631.032 110.129 629.624H116.305V628.872C116.305 626.6 114.769 624.904 112.465 624.904C110.193 624.904 108.561 626.712 108.561 629.016ZM110.129 628.408C110.241 627.016 111.089 626.216 112.465 626.216C113.841 626.216 114.705 627.064 114.737 628.408H110.129ZM117.964 625.16V633H119.468V628.904C119.468 627.272 120.38 626.344 121.836 626.344C123.116 626.344 123.852 627.048 123.852 628.408V633H125.356V628.28C125.356 626.12 123.948 625.032 122.3 625.032C120.748 625.032 120.028 625.752 119.66 626.488H119.436V625.16H117.964ZM126.443 625.16V626.472H128.619V631.656C128.619 632.456 129.163 633 129.931 633H131.979V631.688H130.539C130.251 631.688 130.123 631.56 130.123 631.24V626.472H132.427V625.16H130.123V622.44H128.619V625.16H126.443ZM133.405 629.08C133.405 631.512 135.133 633.224 137.437 633.224C139.741 633.224 141.469 631.512 141.469 629.08C141.469 626.648 139.741 624.936 137.437 624.936C135.133 624.936 133.405 626.648 133.405 629.08ZM134.909 629.08C134.909 627.352 135.933 626.312 137.437 626.312C138.941 626.312 139.965 627.352 139.965 629.08C139.965 630.808 138.941 631.848 137.437 631.848C135.933 631.848 134.909 630.808 134.909 629.08ZM144.638 625.16H143.198V633H144.702V628.424C144.702 627.24 145.31 626.6 146.43 626.6H147.806V625.128H146.91C145.774 625.128 145.134 625.608 144.862 626.44H144.638V625.16ZM153.755 627.224L155.051 627.816C155.419 626.904 156.171 626.28 157.451 626.28C158.731 626.28 159.483 626.92 159.483 627.992V628.2L156.587 628.472C154.571 628.664 153.595 629.432 153.595 630.856C153.595 632.264 154.731 633.224 156.491 633.224C158.107 633.224 158.923 632.472 159.259 631.768H159.483V633H160.955V628.056C160.955 626.168 159.595 624.936 157.483 624.936C155.563 624.936 154.315 626.008 153.755 627.224ZM155.115 630.792C155.115 629.992 155.835 629.72 156.747 629.64L159.483 629.384V629.512C159.483 630.872 158.587 631.976 156.747 631.976C155.707 631.976 155.115 631.528 155.115 630.792ZM162.944 627.256C162.944 628.744 164.112 629.32 165.872 629.576L166.528 629.672C167.376 629.8 168.384 629.864 168.384 630.68C168.384 631.448 167.584 631.944 166.464 631.944C165.184 631.944 164.176 631.224 163.68 630.04L162.336 630.76C162.944 631.912 164.192 633.224 166.416 633.224C168.432 633.224 169.872 632.2 169.872 630.632C169.872 629 168.48 628.568 166.704 628.312L166.048 628.216C165.2 628.088 164.432 628.008 164.432 627.24C164.432 626.568 165.088 626.184 165.968 626.184C166.896 626.184 167.84 626.616 168.704 627.736L169.824 626.936C168.592 625.56 167.536 624.936 165.936 624.936C164.336 624.936 162.944 625.768 162.944 627.256ZM171.226 627.256C171.226 628.744 172.394 629.32 174.154 629.576L174.81 629.672C175.658 629.8 176.666 629.864 176.666 630.68C176.666 631.448 175.866 631.944 174.746 631.944C173.466 631.944 172.458 631.224 171.962 630.04L170.618 630.76C171.226 631.912 172.474 633.224 174.698 633.224C176.714 633.224 178.154 632.2 178.154 630.632C178.154 629 176.762 628.568 174.986 628.312L174.33 628.216C173.482 628.088 172.714 628.008 172.714 627.24C172.714 626.568 173.37 626.184 174.25 626.184C175.178 626.184 176.122 626.616 176.986 627.736L178.106 626.936C176.874 625.56 175.818 624.936 174.218 624.936C172.618 624.936 171.226 625.768 171.226 627.256ZM179.359 622.76C179.359 623.432 179.903 623.944 180.575 623.944C181.247 623.944 181.791 623.432 181.791 622.76C181.791 622.088 181.247 621.576 180.575 621.576C179.903 621.576 179.359 622.088 179.359 622.76ZM181.327 625.16H179.823V633H181.327V625.16ZM182.677 625.16V626.472H184.853V631.656C184.853 632.456 185.397 633 186.165 633H188.213V631.688H186.773C186.485 631.688 186.357 631.56 186.357 631.24V626.472H188.661V625.16H186.357V622.44H184.853V625.16H182.677ZM189.639 629.016C189.639 631.384 191.303 633.224 193.735 633.224C195.607 633.224 196.615 632.184 197.207 631.224L195.943 630.504C195.527 631.336 194.855 631.912 193.703 631.912C192.295 631.912 191.303 631.032 191.207 629.624H197.383V628.872C197.383 626.6 195.847 624.904 193.543 624.904C191.271 624.904 189.639 626.712 189.639 629.016ZM191.207 628.408C191.319 627.016 192.167 626.216 193.543 626.216C194.919 626.216 195.783 627.064 195.815 628.408H191.207ZM206.594 621.8H205.09V626.392H204.898C204.466 625.672 203.746 624.936 202.21 624.936C200.146 624.936 198.53 626.648 198.53 629.08C198.53 631.512 200.146 633.224 202.21 633.224C203.746 633.224 204.466 632.488 204.898 631.768H205.122V633H206.594V621.8ZM202.594 626.28C204.13 626.28 205.09 627.352 205.09 629.08C205.09 630.808 204.13 631.88 202.594 631.88C201.09 631.88 200.034 630.872 200.034 629.08C200.034 627.288 201.09 626.28 202.594 626.28ZM213.668 621.8V633H220.772V631.528H215.268V621.8H213.668ZM221.958 627.224L223.254 627.816C223.622 626.904 224.374 626.28 225.654 626.28C226.934 626.28 227.686 626.92 227.686 627.992V628.2L224.79 628.472C222.774 628.664 221.798 629.432 221.798 630.856C221.798 632.264 222.934 633.224 224.694 633.224C226.31 633.224 227.126 632.472 227.462 631.768H227.686V633H229.158V628.056C229.158 626.168 227.798 624.936 225.686 624.936C223.766 624.936 222.518 626.008 221.958 627.224ZM223.318 630.792C223.318 629.992 224.038 629.72 224.95 629.64L227.686 629.384V629.512C227.686 630.872 226.79 631.976 224.95 631.976C223.91 631.976 223.318 631.528 223.318 630.792ZM231.308 621.8V633H232.78V631.768H233.004C233.436 632.488 234.156 633.224 235.692 633.224C237.756 633.224 239.372 631.512 239.372 629.08C239.372 626.648 237.756 624.936 235.692 624.936C234.156 624.936 233.436 625.672 233.004 626.392H232.812V621.8H231.308ZM235.308 626.28C236.812 626.28 237.868 627.288 237.868 629.08C237.868 630.872 236.812 631.88 235.308 631.88C233.772 631.88 232.812 630.808 232.812 629.08C232.812 627.352 233.772 626.28 235.308 626.28ZM240.882 627.256C240.882 628.744 242.05 629.32 243.81 629.576L244.466 629.672C245.314 629.8 246.322 629.864 246.322 630.68C246.322 631.448 245.522 631.944 244.402 631.944C243.122 631.944 242.114 631.224 241.618 630.04L240.274 630.76C240.882 631.912 242.13 633.224 244.354 633.224C246.37 633.224 247.81 632.2 247.81 630.632C247.81 629 246.418 628.568 244.642 628.312L243.986 628.216C243.138 628.088 242.37 628.008 242.37 627.24C242.37 626.568 243.026 626.184 243.906 626.184C244.834 626.184 245.778 626.616 246.642 627.736L247.762 626.936C246.53 625.56 245.474 624.936 243.874 624.936C242.274 624.936 240.882 625.768 240.882 627.256ZM249.159 626.088C249.159 626.792 249.719 627.336 250.407 627.336C251.095 627.336 251.655 626.792 251.655 626.088C251.655 625.384 251.095 624.84 250.407 624.84C249.719 624.84 249.159 625.384 249.159 626.088ZM249.159 631.976C249.159 632.68 249.719 633.224 250.407 633.224C251.095 633.224 251.655 632.68 251.655 631.976C251.655 631.272 251.095 630.728 250.407 630.728C249.719 630.728 249.159 631.272 249.159 631.976ZM257.57 621.8V623.272H261.186V633H262.786V623.272H266.402V621.8H257.57ZM267.839 621.8V633H269.343V628.904C269.343 627.272 270.255 626.344 271.711 626.344C272.991 626.344 273.727 627.048 273.727 628.408V633H275.231V628.28C275.231 626.12 273.823 625.032 272.175 625.032C270.623 625.032 269.903 625.752 269.535 626.488H269.343V621.8H267.839ZM284.604 633V625.16H283.1V629.256C283.1 630.888 282.188 631.816 280.732 631.816C279.452 631.816 278.716 631.112 278.716 629.752V625.16H277.212V629.88C277.212 632.04 278.62 633.128 280.268 633.128C281.82 633.128 282.54 632.408 282.908 631.672H283.132V633H284.604ZM291.06 629.864C291.06 631.784 292.468 633.24 294.644 633.24C295.94 633.24 296.868 632.712 297.636 631.896H297.86L298.996 633H301.108L298.724 630.648V630.424L300.98 626.488H299.284L297.636 629.368H297.412L295.332 627.32C294.212 626.216 293.524 625.56 293.524 624.6V624.536C293.524 623.64 294.196 623.048 295.188 623.048C296.244 623.048 296.916 623.672 296.916 624.696V625.064H298.516V624.648C298.516 622.744 297.14 621.576 295.22 621.576C293.332 621.576 291.924 622.712 291.924 624.504V624.6C291.924 625.4 292.244 626.104 292.74 626.744V626.952C291.892 627.592 291.06 628.568 291.06 629.864ZM292.66 629.864V629.8C292.66 629.096 293.06 628.504 293.732 628.056H293.94L296.612 630.664V630.888C296.132 631.4 295.508 631.768 294.644 631.768C293.364 631.768 292.66 630.824 292.66 629.864ZM310.956 621.576C308.876 621.576 307.212 622.776 307.212 624.68C307.212 626.76 308.668 627.512 310.668 627.944L311.404 628.104C312.828 628.408 313.548 628.84 313.548 629.912C313.548 630.984 312.652 631.784 311.164 631.784C309.324 631.784 308.299 630.808 308.299 629.032V628.648H306.7V629.16C306.7 631.624 308.412 633.224 311.148 633.224C313.452 633.224 315.148 631.928 315.148 629.864C315.148 627.944 313.884 627.048 311.804 626.6L311.068 626.44C309.484 626.088 308.812 625.688 308.812 624.664C308.812 623.672 309.708 623.016 310.956 623.016C312.428 623.016 313.452 623.784 313.452 625.224V625.608H315.052V625.096C315.052 622.808 313.276 621.576 310.956 621.576ZM316.708 627.224L318.004 627.816C318.372 626.904 319.124 626.28 320.404 626.28C321.684 626.28 322.436 626.92 322.436 627.992V628.2L319.54 628.472C317.524 628.664 316.548 629.432 316.548 630.856C316.548 632.264 317.684 633.224 319.444 633.224C321.06 633.224 321.876 632.472 322.212 631.768H322.436V633H323.908V628.056C323.908 626.168 322.548 624.936 320.436 624.936C318.516 624.936 317.268 626.008 316.708 627.224ZM318.068 630.792C318.068 629.992 318.788 629.72 319.7 629.64L322.436 629.384V629.512C322.436 630.872 321.54 631.976 319.7 631.976C318.66 631.976 318.068 631.528 318.068 630.792ZM325.005 625.16V626.472H327.181V631.656C327.181 632.456 327.725 633 328.493 633H330.541V631.688H329.101C328.813 631.688 328.685 631.56 328.685 631.24V626.472H330.989V625.16H328.685V622.44H327.181V625.16H325.005ZM337.354 621.8V633H338.826V631.768H339.05C339.482 632.488 340.202 633.224 341.738 633.224C343.802 633.224 345.418 631.512 345.418 629.08C345.418 626.648 343.802 624.936 341.738 624.936C340.202 624.936 339.482 625.672 339.05 626.392H338.858V621.8H337.354ZM341.354 626.28C342.858 626.28 343.914 627.288 343.914 629.08C343.914 630.872 342.858 631.88 341.354 631.88C339.818 631.88 338.858 630.808 338.858 629.08C338.858 627.352 339.818 626.28 341.354 626.28ZM346.639 629.016C346.639 631.384 348.303 633.224 350.735 633.224C352.607 633.224 353.615 632.184 354.207 631.224L352.943 630.504C352.527 631.336 351.855 631.912 350.703 631.912C349.295 631.912 348.303 631.032 348.207 629.624H354.383V628.872C354.383 626.6 352.847 624.904 350.543 624.904C348.271 624.904 346.639 626.712 346.639 629.016ZM348.207 628.408C348.319 627.016 349.167 626.216 350.543 626.216C351.919 626.216 352.783 627.064 352.815 628.408H348.207ZM355.068 625.16V626.472H357.244V631.656C357.244 632.456 357.788 633 358.556 633H360.604V631.688H359.164C358.876 631.688 358.748 631.56 358.748 631.24V626.472H361.052V625.16H358.748V622.44H357.244V625.16H355.068ZM361.98 625.16L363.724 633H365.964L367.42 626.728H367.644L369.068 633H371.34L373.084 625.16H371.516L370.284 631.432H370.06L368.636 625.16H366.428L365.004 631.432H364.78L363.548 625.16H361.98ZM374.092 629.016C374.092 631.384 375.756 633.224 378.188 633.224C380.06 633.224 381.068 632.184 381.66 631.224L380.396 630.504C379.98 631.336 379.308 631.912 378.156 631.912C376.748 631.912 375.756 631.032 375.66 629.624H381.836V628.872C381.836 626.6 380.3 624.904 377.996 624.904C375.724 624.904 374.092 626.712 374.092 629.016ZM375.66 628.408C375.772 627.016 376.62 626.216 377.996 626.216C379.372 626.216 380.236 627.064 380.268 628.408H375.66ZM382.983 629.016C382.983 631.384 384.647 633.224 387.079 633.224C388.951 633.224 389.959 632.184 390.551 631.224L389.287 630.504C388.871 631.336 388.199 631.912 387.047 631.912C385.639 631.912 384.647 631.032 384.551 629.624H390.727V628.872C390.727 626.6 389.191 624.904 386.887 624.904C384.615 624.904 382.983 626.712 382.983 629.016ZM384.551 628.408C384.663 627.016 385.511 626.216 386.887 626.216C388.263 626.216 389.127 627.064 389.159 628.408H384.551ZM392.386 625.16V633H393.89V628.904C393.89 627.272 394.802 626.344 396.258 626.344C397.538 626.344 398.274 627.048 398.274 628.408V633H399.778V628.28C399.778 626.12 398.37 625.032 396.722 625.032C395.17 625.032 394.45 625.752 394.082 626.488H393.858V625.16H392.386ZM408.794 621.8L405.658 626.696H407.418L409.498 623.288H409.69V633H411.29V621.8H408.794ZM412.982 625.448C412.982 627.752 414.63 629.24 416.502 629.24C418.086 629.24 418.806 628.472 419.19 627.864H419.382V629.368C419.382 630.776 418.47 631.752 416.95 631.752C415.43 631.752 414.742 630.952 414.742 629.736H413.142C413.142 631.896 414.662 633.224 416.95 633.224C419.286 633.224 420.982 631.64 420.982 629.352V625.432C420.982 623.128 419.27 621.576 417.014 621.576C414.694 621.576 412.982 623.144 412.982 625.448ZM417.014 627.832C415.558 627.832 414.582 626.872 414.582 625.448C414.582 624.024 415.558 623.048 417.014 623.048C418.406 623.048 419.382 624.024 419.382 625.448C419.382 626.872 418.406 627.832 417.014 627.832ZM422.55 626.088C422.55 626.792 423.11 627.336 423.798 627.336C424.486 627.336 425.046 626.792 425.046 626.088C425.046 625.384 424.486 624.84 423.798 624.84C423.11 624.84 422.55 625.384 422.55 626.088ZM422.55 631.976C422.55 632.68 423.11 633.224 423.798 633.224C424.486 633.224 425.046 632.68 425.046 631.976C425.046 631.272 424.486 630.728 423.798 630.728C423.11 630.728 422.55 631.272 422.55 631.976ZM426.788 621.8V623.272H432.148L429.044 626.04V627.512H430.788C431.972 627.512 432.948 628.264 432.948 629.528C432.948 630.824 432.004 631.752 430.516 631.752C428.932 631.752 427.956 630.808 427.956 629.384V628.728H426.356V629.48C426.356 631.688 428.116 633.224 430.548 633.224C432.756 633.224 434.548 631.736 434.548 629.56C434.548 627.576 433.172 626.296 431.476 626.296H431.06V626.104L434.356 623.224V621.8H426.788ZM435.987 626.152V628.648C435.987 631.528 437.587 633.224 440.179 633.224C442.771 633.224 444.371 631.528 444.371 628.648V626.152C444.371 623.272 442.707 621.576 440.179 621.576C437.587 621.576 435.987 623.272 435.987 626.152ZM437.587 626.12C437.587 624.136 438.451 623.048 440.179 623.048C441.907 623.048 442.771 624.136 442.771 626.12V628.68C442.771 630.664 441.907 631.752 440.179 631.752C438.451 631.752 437.587 630.664 437.587 628.68V626.12ZM451.25 629.656H455.986V628.28H451.25V629.656ZM462.83 625.384V625.832H464.43V625.48C464.43 623.912 465.342 623.048 466.942 623.048C468.19 623.048 469.166 623.8 469.166 625.128C469.166 626.712 468.014 627.304 466.158 627.912C464.126 628.584 462.83 629.464 462.83 631.56V633H470.606V631.528H464.462V631.368C464.462 630.088 465.262 629.72 466.83 629.192C468.99 628.472 470.766 627.608 470.766 625.192C470.766 623.016 469.15 621.576 466.942 621.576C464.494 621.576 462.83 623.064 462.83 625.384ZM474.606 621.8L471.47 626.696H473.23L475.31 623.288H475.502V633H477.102V621.8H474.606ZM479.05 626.088C479.05 626.792 479.61 627.336 480.298 627.336C480.986 627.336 481.546 626.792 481.546 626.088C481.546 625.384 480.986 624.84 480.298 624.84C479.61 624.84 479.05 625.384 479.05 626.088ZM479.05 631.976C479.05 632.68 479.61 633.224 480.298 633.224C480.986 633.224 481.546 632.68 481.546 631.976C481.546 631.272 480.986 630.728 480.298 630.728C479.61 630.728 479.05 631.272 479.05 631.976ZM483.288 621.8V623.272H488.648L485.544 626.04V627.512H487.288C488.472 627.512 489.448 628.264 489.448 629.528C489.448 630.824 488.504 631.752 487.016 631.752C485.432 631.752 484.456 630.808 484.456 629.384V628.728H482.856V629.48C482.856 631.688 484.616 633.224 487.048 633.224C489.256 633.224 491.048 631.736 491.048 629.56C491.048 627.576 489.672 626.296 487.976 626.296H487.56V626.104L490.856 623.224V621.8H483.288ZM492.487 626.152V628.648C492.487 631.528 494.087 633.224 496.679 633.224C499.271 633.224 500.871 631.528 500.871 628.648V626.152C500.871 623.272 499.207 621.576 496.679 621.576C494.087 621.576 492.487 623.272 492.487 626.152ZM494.087 626.12C494.087 624.136 494.951 623.048 496.679 623.048C498.407 623.048 499.271 624.136 499.271 626.12V628.68C499.271 630.664 498.407 631.752 496.679 631.752C494.951 631.752 494.087 630.664 494.087 628.68V626.12Z" fill="#434343"/>
</svg>
