<svg width="267" height="250" viewBox="0 0 267 250" fill="none" xmlns="http://www.w3.org/2000/svg">
<path d="M169.252 87.6124C193.179 111.54 210.7 137.275 219.708 159.509C224.212 170.627 226.568 180.823 226.564 189.452C226.56 198.076 224.203 205.059 219.366 209.896C214.528 214.734 207.545 217.091 198.922 217.095C190.292 217.099 180.097 214.743 168.978 210.239C146.745 201.231 121.009 183.71 97.0817 159.783C73.1546 135.856 55.6333 110.12 46.6259 87.8864C42.1214 76.7678 39.7653 66.572 39.7693 57.9429C39.7733 49.3194 42.1304 42.3366 46.9681 37.4988C51.8058 32.6611 58.7887 30.304 67.4122 30.3C76.0413 30.296 86.237 32.6521 97.3557 37.1566C119.589 46.164 145.325 63.6853 169.252 87.6124Z" stroke="url(#paint0_linear)" stroke-width="2"/>
<path d="M160.398 90.1779C186.319 111.929 206.017 136.039 216.928 157.403C222.384 168.087 225.62 178.039 226.368 186.635C227.116 195.226 225.376 202.388 220.979 207.629C216.581 212.87 209.83 215.826 201.24 216.582C192.644 217.338 182.281 215.88 170.813 212.361C147.879 205.326 120.714 190.114 94.7923 168.364C68.8708 146.613 49.1732 122.502 38.2623 101.138C32.8059 90.4547 29.5701 80.5031 28.822 71.9065C28.0744 63.3154 29.814 56.1537 34.2116 50.9128C38.6093 45.6718 45.3601 42.7151 53.9505 41.9595C62.5464 41.2035 72.9087 42.662 84.3777 46.1803C107.312 53.2157 134.476 68.4273 160.398 90.1779Z" stroke="url(#paint1_linear)" stroke-width="2"/>
<path d="M169.247 159.805C145.32 183.732 119.584 201.253 97.3506 210.261C86.232 214.765 76.0362 217.121 67.4071 217.117C58.7836 217.113 51.8008 214.756 46.9631 209.918C42.1253 205.081 39.7682 198.098 39.7642 189.474C39.7602 180.845 42.1164 170.649 46.6209 159.531C55.6282 137.297 73.1495 111.562 97.0766 87.6344C121.004 63.7073 146.74 46.186 168.973 37.1787C180.092 32.6742 190.287 30.318 198.916 30.322C207.54 30.326 214.523 32.6831 219.361 37.5208C224.198 42.3586 226.555 49.3414 226.559 57.9649C226.563 66.594 224.207 76.7898 219.703 87.9084C210.695 110.142 193.174 135.878 169.247 159.805Z" stroke="url(#paint2_linear)" stroke-width="2"/>
<path d="M171.525 169.499C145.603 191.25 118.438 206.462 95.5045 213.497C84.0355 217.015 73.6732 218.474 65.0773 217.718C56.4869 216.962 49.7361 214.006 45.3384 208.765C40.9408 203.524 39.2012 196.362 39.9488 187.771C40.6969 179.174 43.9327 169.223 49.3891 158.539C60.3 137.175 79.9976 113.064 105.919 91.3137C131.841 69.5631 159.005 54.3514 181.939 47.3161C193.408 43.7978 203.771 42.3393 212.366 43.0953C220.957 43.8509 227.708 46.8076 232.105 52.0486C236.503 57.2895 238.243 64.4512 237.495 73.0423C236.747 81.6389 233.511 91.5905 228.055 102.274C217.144 123.638 197.446 147.749 171.525 169.499Z" stroke="url(#paint3_linear)" stroke-width="2"/>
<defs>
<linearGradient id="paint0_linear" x1="46.261" y1="36.7917" x2="220.073" y2="210.603" gradientUnits="userSpaceOnUse">
<stop stop-color="#7589FA"/>
<stop offset="1" stop-color="#1E2029"/>
</linearGradient>
<linearGradient id="paint1_linear" x1="33.4456" y1="50.27" x2="221.745" y2="208.272" gradientUnits="userSpaceOnUse">
<stop stop-color="#7589FA"/>
<stop offset="1" stop-color="#1E2029"/>
</linearGradient>
<linearGradient id="paint2_linear" x1="220.068" y1="36.8137" x2="46.2559" y2="210.625" gradientUnits="userSpaceOnUse">
<stop stop-color="#7589FA"/>
<stop offset="1" stop-color="#1E2029"/>
</linearGradient>
<linearGradient id="paint3_linear" x1="232.871" y1="51.4058" x2="44.5724" y2="209.407" gradientUnits="userSpaceOnUse">
<stop stop-color="#7589FA"/>
<stop offset="1" stop-color="#1E2029"/>
</linearGradient>
</defs>
</svg>
