<svg width="32" height="32" viewBox="0 0 32 32" fill="none" xmlns="http://www.w3.org/2000/svg">
<path d="M12.7515 16.2825C13.064 16.595 13.5705 16.595 13.883 16.2825L14.4485 15.717C14.761 15.4045 14.761 14.898 14.4485 14.5855L12.6625 12.8L14.448 11.014C14.7605 10.7015 14.7605 10.195 14.448 9.88245L13.8825 9.31695C13.57 9.00445 13.0635 9.00445 12.751 9.31695L9.834 12.234C9.5215 12.5465 9.5215 13.053 9.834 13.3655L12.7515 16.2825ZM17.552 15.7175L18.1175 16.283C18.43 16.5955 18.9365 16.5955 19.249 16.283L22.166 13.366C22.4785 13.0535 22.4785 12.547 22.166 12.2345L19.249 9.31745C18.9365 9.00495 18.43 9.00495 18.1175 9.31745L17.552 9.88295C17.2395 10.1955 17.2395 10.702 17.552 11.0145L19.3375 12.8L17.552 14.586C17.2395 14.8985 17.2395 15.405 17.552 15.7175ZM31.2 24H19.077C19.04 24.9905 18.3415 25.6 17.44 25.6H14.4C13.4655 25.6 12.749 24.7265 12.7615 24H0.8C0.36 24 0 24.36 0 24.8V25.6C0 27.36 1.44 28.8 3.2 28.8H28.8C30.56 28.8 32 27.36 32 25.6V24.8C32 24.36 31.64 24 31.2 24ZM28.8 5.59995C28.8 4.27995 27.72 3.19995 26.4 3.19995H5.6C4.28 3.19995 3.2 4.27995 3.2 5.59995V22.4H28.8V5.59995ZM25.6 19.2H6.4V6.39995H25.6V19.2Z" fill="#3D32D9"/>
</svg>
