<svg width="24" height="24" viewBox="0 0 24 24" fill="none" xmlns="http://www.w3.org/2000/svg">
<path d="M15.31 8.69021C18.1106 11.4938 18.0722 15.9885 15.3268 18.7491C15.3217 18.7547 15.3156 18.7608 15.31 18.7664L12.16 21.9164C9.38168 24.6947 4.86157 24.6943 2.08371 21.9164C-0.694571 19.1386 -0.694571 14.618 2.08371 11.8402L3.82306 10.1009C4.28431 9.63962 5.07865 9.94618 5.10246 10.598C5.13284 11.4287 5.28181 12.2633 5.55668 13.0693C5.64978 13.3422 5.58326 13.6441 5.37935 13.848L4.7659 14.4614C3.45218 15.7752 3.41098 17.9143 4.71176 19.2408C6.02538 20.5805 8.18454 20.5884 9.50824 19.2647L12.6582 16.1152C13.9797 14.7937 13.9742 12.6578 12.6582 11.3419C12.4848 11.1688 12.31 11.0342 12.1735 10.9403C12.0769 10.8739 11.9972 10.786 11.9407 10.6834C11.8841 10.5808 11.8524 10.4664 11.8479 10.3493C11.8293 9.85402 12.0048 9.3436 12.3962 8.95219L13.3831 7.96524C13.6419 7.70645 14.0479 7.67467 14.348 7.8841C14.6917 8.12408 15.0136 8.39382 15.31 8.69021ZM21.9163 2.08357C19.1384 -0.694335 14.6183 -0.69471 11.84 2.08357L8.69004 5.23356C8.68442 5.23919 8.67832 5.24528 8.67317 5.2509C5.92788 8.01146 5.8894 12.5062 8.69004 15.3098C8.98642 15.6062 9.3083 15.8759 9.65196 16.1159C9.95206 16.3253 10.3581 16.2935 10.6168 16.0347L11.6037 15.0478C11.9952 14.6564 12.1707 14.1459 12.1521 13.6506C12.1476 13.5336 12.1158 13.4192 12.0593 13.3166C12.0027 13.214 11.923 13.126 11.8264 13.0597C11.6899 12.9657 11.5152 12.8312 11.3417 12.658C10.0258 11.3421 10.0203 9.20621 11.3417 7.88476L14.4917 4.73523C15.8154 3.41153 17.9745 3.4195 19.2882 4.75914C20.589 6.0857 20.5478 8.22479 19.2341 9.53851L18.6206 10.152C18.4167 10.3559 18.3502 10.6577 18.4433 10.9306C18.7182 11.7366 18.8671 12.5712 18.8975 13.4019C18.9214 14.0538 19.7157 14.3603 20.1769 13.8991L21.9162 12.1597C24.6946 9.38199 24.6946 4.86137 21.9163 2.08357Z" fill="white"/>
</svg>
