<svg width="504" height="421" viewBox="0 0 504 421" fill="none" xmlns="http://www.w3.org/2000/svg">
<path d="M8 179.56L22 179.56L22 177.56L10.12 177.56L10.12 177.32L22 173.78L22 170.78L10.12 167.24L10.12 167L22 167L22 165L8 165L8 168.6L19.92 172.16L19.92 172.4L8 175.96L8 179.56ZM17.1 162.799C20.14 162.799 22.28 160.639 22.28 157.759C22.28 154.879 20.14 152.719 17.1 152.719C14.06 152.719 11.92 154.879 11.92 157.759C11.92 160.639 14.06 162.799 17.1 162.799ZM17.1 160.919C14.94 160.919 13.64 159.639 13.64 157.759C13.64 155.879 14.94 154.599 17.1 154.599C19.26 154.599 20.56 155.879 20.56 157.759C20.56 159.639 19.26 160.919 17.1 160.919ZM8 141.117L8 142.997L13.74 142.997L13.74 143.237C12.84 143.777 11.92 144.677 11.92 146.597C11.92 149.177 14.06 151.197 17.1 151.197C20.14 151.197 22.28 149.177 22.28 146.597C22.28 144.677 21.36 143.777 20.46 143.237L20.46 142.957L22 142.957L22 141.117L8 141.117ZM13.6 146.117C13.6 144.197 14.94 142.997 17.1 142.997C19.26 142.997 20.6 144.197 20.6 146.117C20.6 147.997 19.34 149.317 17.1 149.317C14.86 149.317 13.6 147.997 13.6 146.117ZM22 129.191L12.2 129.191L12.2 131.071L17.32 131.071C19.36 131.071 20.52 132.211 20.52 134.031C20.52 135.631 19.64 136.551 17.94 136.551L12.2 136.551L12.2 138.431L18.1 138.431C20.8 138.431 22.16 136.671 22.16 134.611C22.16 132.671 21.26 131.771 20.34 131.311L20.34 131.031L22 131.031L22 129.191ZM8 124.517L8 126.397L22 126.397L22 124.517L8 124.517ZM17.02 122.349C19.98 122.349 22.28 120.269 22.28 117.229C22.28 114.889 20.98 113.629 19.78 112.889L18.88 114.469C19.92 114.989 20.64 115.829 20.64 117.269C20.64 119.029 19.54 120.269 17.78 120.389L17.78 112.669L16.84 112.669C14 112.669 11.88 114.589 11.88 117.469C11.88 120.309 14.14 122.349 17.02 122.349ZM16.26 120.389C14.52 120.249 13.52 119.189 13.52 117.469C13.52 115.749 14.58 114.669 16.26 114.629L16.26 120.389ZM7.72 100.04C7.72 102.64 9.22 104.72 11.6 104.72C14.2 104.72 15.14 102.9 15.68 100.4L15.88 99.48C16.26 97.7 16.8 96.8 18.14 96.8C19.48 96.8 20.48 97.92 20.48 99.78C20.48 102.08 19.26 103.36 17.04 103.36L16.56 103.36L16.56 105.36L17.2 105.36C20.28 105.36 22.28 103.22 22.28 99.8C22.28 96.92 20.66 94.8 18.08 94.8C15.68 94.8 14.56 96.38 14 98.98L13.8 99.9C13.36 101.88 12.86 102.72 11.58 102.72C10.34 102.72 9.52 101.6 9.52 100.04C9.52 98.2 10.48 96.92 12.28 96.92L12.76 96.92L12.76 94.92L12.12 94.92C9.26 94.92 7.72 97.14 7.72 100.04ZM12.2 93.6497L13.84 93.6497L13.84 90.9297L20.32 90.9297C21.32 90.9297 22 90.2497 22 89.2897L22 86.7297L20.36 86.7297L20.36 88.5297C20.36 88.8897 20.2 89.0497 19.8 89.0497L13.84 89.0497L13.84 86.1697L12.2 86.1697L12.2 89.0497L8.8 89.0497L8.8 90.9297L12.2 90.9297L12.2 93.6497ZM12.2 82.4094L12.2 84.2094L22 84.2094L22 82.3294L16.28 82.3294C14.8 82.3294 14 81.5694 14 80.1694L14 78.4494L12.16 78.4494L12.16 79.5694C12.16 80.9894 12.76 81.7894 13.8 82.1294L13.8 82.4094L12.2 82.4094ZM22 67.5698L12.2 67.5698L12.2 69.4498L17.32 69.4498C19.36 69.4498 20.52 70.5898 20.52 72.4098C20.52 74.0098 19.64 74.9298 17.94 74.9298L12.2 74.9298L12.2 76.8098L18.1 76.8098C20.8 76.8098 22.16 75.0498 22.16 72.9898C22.16 71.0498 21.26 70.1498 20.34 69.6898L20.34 69.4098L22 69.4098L22 67.5698ZM17.1 65.4158C20.1 65.4158 22.28 63.2558 22.28 60.2958C22.28 57.3958 20.34 55.9758 18.48 55.5358L18.12 57.3958C19.38 57.6558 20.56 58.4158 20.56 60.2958C20.56 62.2158 19.18 63.5358 17.1 63.5358C15.02 63.5358 13.64 62.2158 13.64 60.3358C13.64 58.5958 14.72 57.5758 16.1 57.4158L15.72 55.5758C13.54 55.9758 11.92 57.6958 11.92 60.3358C11.92 63.2558 14.1 65.4158 17.1 65.4158ZM12.2 54.6653L13.84 54.6653L13.84 51.9453L20.32 51.9453C21.32 51.9453 22 51.2653 22 50.3053L22 47.7453L20.36 47.7453L20.36 49.5453C20.36 49.9053 20.2 50.0653 19.8 50.0653L13.84 50.0653L13.84 47.1853L12.2 47.1853L12.2 50.0653L8.79999 50.0653L8.79999 51.9453L12.2 51.9453L12.2 54.6653ZM22 36.105L12.2 36.105L12.2 37.985L17.32 37.985C19.36 37.985 20.52 39.125 20.52 40.945C20.52 42.545 19.64 43.465 17.94 43.465L12.2 43.465L12.2 45.345L18.1 45.345C20.8 45.345 22.16 43.585 22.16 41.525C22.16 39.585 21.26 38.685 20.34 38.225L20.34 37.945L22 37.945L22 36.105ZM12.2 31.5109L12.2 33.3109L22 33.3109L22 31.4309L16.28 31.4309C14.8 31.4309 14 30.6709 14 29.2709L14 27.5509L12.16 27.5509L12.16 28.6709C12.16 30.0909 12.76 30.8909 13.8 31.2309L13.8 31.5109L12.2 31.5109ZM17.02 26.9392C19.98 26.9392 22.28 24.8592 22.28 21.8192C22.28 19.4792 20.98 18.2192 19.78 17.4792L18.88 19.0592C19.92 19.5792 20.64 20.4192 20.64 21.8592C20.64 23.6192 19.54 24.8592 17.78 24.9792L17.78 17.2592L16.84 17.2592C14 17.2592 11.88 19.1792 11.88 22.0592C11.88 24.8992 14.14 26.9392 17.02 26.9392ZM16.26 24.9792C14.52 24.8392 13.52 23.7792 13.52 22.0592C13.52 20.3392 14.58 19.2592 16.26 19.2192L16.26 24.9792Z" fill="#FAFAFA"/>
<rect x="64" y="76" width="439" height="32" fill="#1D2A73"/>
<path d="M76.4617 86.8L78.0137 98H80.7657L82.4457 88.24H82.6377L84.3177 98H87.0697L88.6217 86.8H86.9897L85.7097 96.56H85.5177L83.8377 86.8H81.2457L79.5657 96.56H79.3737L78.0937 86.8H76.4617ZM89.4498 94.016C89.4498 96.384 91.1138 98.224 93.5458 98.224C95.4178 98.224 96.4258 97.184 97.0178 96.224L95.7538 95.504C95.3378 96.336 94.6658 96.912 93.5138 96.912C92.1058 96.912 91.1138 96.032 91.0178 94.624H97.1938V93.872C97.1938 91.6 95.6578 89.904 93.3538 89.904C91.0818 89.904 89.4498 91.712 89.4498 94.016ZM91.0178 93.408C91.1298 92.016 91.9778 91.216 93.3538 91.216C94.7298 91.216 95.5938 92.064 95.6258 93.408H91.0178ZM98.3404 94.016C98.3404 96.384 100.004 98.224 102.436 98.224C104.308 98.224 105.316 97.184 105.908 96.224L104.644 95.504C104.228 96.336 103.556 96.912 102.404 96.912C100.996 96.912 100.004 96.032 99.9084 94.624H106.084V93.872C106.084 91.6 104.548 89.904 102.244 89.904C99.9724 89.904 98.3404 91.712 98.3404 94.016ZM99.9084 93.408C100.02 92.016 100.868 91.216 102.244 91.216C103.62 91.216 104.484 92.064 104.516 93.408H99.9084ZM115.551 90.16H113.343L109.439 93.472H109.247V86.8H107.743V98H109.247V95.456L110.863 94.112L113.679 98H115.487L111.951 93.184L115.551 90.16ZM121.696 86.8V92.816H124.128C124.336 92.432 124.816 91.888 125.808 91.888C127.04 91.888 127.904 92.72 127.904 94.16C127.904 95.728 126.992 96.752 125.424 96.752C123.76 96.752 122.848 95.728 122.848 94.192V94.032H121.248V94.224C121.248 96.688 122.96 98.224 125.424 98.224C127.856 98.224 129.504 96.496 129.504 94.16C129.504 91.936 128.032 90.448 126.112 90.448C124.64 90.448 123.936 91.056 123.472 91.824H123.28V88.272H129.152V86.8H121.696ZM130.876 91.088C130.876 91.792 131.436 92.336 132.124 92.336C132.812 92.336 133.372 91.792 133.372 91.088C133.372 90.384 132.812 89.84 132.124 89.84C131.436 89.84 130.876 90.384 130.876 91.088ZM130.876 96.976C130.876 97.68 131.436 98.224 132.124 98.224C132.812 98.224 133.372 97.68 133.372 96.976C133.372 96.272 132.812 95.728 132.124 95.728C131.436 95.728 130.876 96.272 130.876 96.976ZM140.119 86.8V98H141.719V93.52H144.471C146.471 93.52 147.927 92.192 147.927 90.16C147.927 88.128 146.519 86.8 144.471 86.8H140.119ZM141.719 88.272H144.295C145.623 88.272 146.327 88.944 146.327 90.16C146.327 91.376 145.591 92.048 144.295 92.048H141.719V88.272ZM150.902 90.16H149.462V98H150.966V93.424C150.966 92.24 151.574 91.6 152.694 91.6H154.07V90.128H153.174C152.038 90.128 151.398 90.608 151.126 91.44H150.902V90.16ZM154.559 94.08C154.559 96.512 156.287 98.224 158.591 98.224C160.895 98.224 162.623 96.512 162.623 94.08C162.623 91.648 160.895 89.936 158.591 89.936C156.287 89.936 154.559 91.648 154.559 94.08ZM156.063 94.08C156.063 92.352 157.087 91.312 158.591 91.312C160.095 91.312 161.119 92.352 161.119 94.08C161.119 95.808 160.095 96.848 158.591 96.848C157.087 96.848 156.063 95.808 156.063 94.08ZM163.888 87.76C163.888 88.432 164.432 88.944 165.104 88.944C165.776 88.944 166.32 88.432 166.32 87.76C166.32 87.088 165.776 86.576 165.104 86.576C164.432 86.576 163.888 87.088 163.888 87.76ZM165.856 90.16H164.352V99.408C164.352 99.728 164.192 99.888 163.904 99.888H162.528V101.2H164.544C165.312 101.2 165.856 100.656 165.856 99.856V90.16ZM167.59 94.016C167.59 96.384 169.254 98.224 171.686 98.224C173.558 98.224 174.566 97.184 175.158 96.224L173.894 95.504C173.478 96.336 172.806 96.912 171.654 96.912C170.246 96.912 169.254 96.032 169.158 94.624H175.334V93.872C175.334 91.6 173.798 89.904 171.494 89.904C169.222 89.904 167.59 91.712 167.59 94.016ZM169.158 93.408C169.27 92.016 170.118 91.216 171.494 91.216C172.87 91.216 173.734 92.064 173.766 93.408H169.158ZM176.481 94.08C176.481 96.48 178.209 98.224 180.577 98.224C182.897 98.224 184.033 96.672 184.385 95.184L182.897 94.896C182.689 95.904 182.081 96.848 180.577 96.848C179.041 96.848 177.985 95.744 177.985 94.08C177.985 92.416 179.041 91.312 180.545 91.312C181.937 91.312 182.753 92.176 182.881 93.28L184.353 92.976C184.033 91.232 182.657 89.936 180.545 89.936C178.209 89.936 176.481 91.68 176.481 94.08ZM185.081 90.16V91.472H187.257V96.656C187.257 97.456 187.801 98 188.569 98H190.617V96.688H189.177C188.889 96.688 188.761 96.56 188.761 96.24V91.472H191.065V90.16H188.761V87.44H187.257V90.16H185.081Z" fill="white"/>
<path d="M91.152 130.8V142H98.256V140.528H92.752V130.8H91.152ZM99.1861 138.016C99.1861 140.384 100.85 142.224 103.282 142.224C105.154 142.224 106.162 141.184 106.754 140.224L105.49 139.504C105.074 140.336 104.402 140.912 103.25 140.912C101.842 140.912 100.85 140.032 100.754 138.624H106.93V137.872C106.93 135.6 105.394 133.904 103.09 133.904C100.818 133.904 99.1861 135.712 99.1861 138.016ZM100.754 137.408C100.866 136.016 101.714 135.216 103.09 135.216C104.466 135.216 105.33 136.064 105.362 137.408H100.754ZM108.366 136.256C108.366 137.744 109.534 138.32 111.294 138.576L111.95 138.672C112.798 138.8 113.806 138.864 113.806 139.68C113.806 140.448 113.006 140.944 111.886 140.944C110.606 140.944 109.598 140.224 109.102 139.04L107.758 139.76C108.366 140.912 109.614 142.224 111.838 142.224C113.854 142.224 115.294 141.2 115.294 139.632C115.294 138 113.902 137.568 112.126 137.312L111.47 137.216C110.622 137.088 109.854 137.008 109.854 136.24C109.854 135.568 110.51 135.184 111.39 135.184C112.318 135.184 113.262 135.616 114.126 136.736L115.246 135.936C114.014 134.56 112.958 133.936 111.358 133.936C109.758 133.936 108.366 134.768 108.366 136.256ZM116.648 136.256C116.648 137.744 117.816 138.32 119.576 138.576L120.232 138.672C121.08 138.8 122.088 138.864 122.088 139.68C122.088 140.448 121.288 140.944 120.168 140.944C118.888 140.944 117.88 140.224 117.384 139.04L116.04 139.76C116.648 140.912 117.896 142.224 120.12 142.224C122.136 142.224 123.576 141.2 123.576 139.632C123.576 138 122.184 137.568 120.408 137.312L119.752 137.216C118.904 137.088 118.136 137.008 118.136 136.24C118.136 135.568 118.792 135.184 119.672 135.184C120.6 135.184 121.544 135.616 122.408 136.736L123.528 135.936C122.296 134.56 121.24 133.936 119.64 133.936C118.039 133.936 116.648 134.768 116.648 136.256ZM124.733 138.08C124.733 140.512 126.461 142.224 128.765 142.224C131.069 142.224 132.797 140.512 132.797 138.08C132.797 135.648 131.069 133.936 128.765 133.936C126.461 133.936 124.733 135.648 124.733 138.08ZM126.237 138.08C126.237 136.352 127.261 135.312 128.765 135.312C130.269 135.312 131.293 136.352 131.293 138.08C131.293 139.808 130.269 140.848 128.765 140.848C127.261 140.848 126.237 139.808 126.237 138.08ZM134.526 134.16V142H136.03V137.904C136.03 136.272 136.942 135.344 138.398 135.344C139.678 135.344 140.414 136.048 140.414 137.408V142H141.918V137.28C141.918 135.12 140.51 134.032 138.862 134.032C137.31 134.032 136.59 134.752 136.222 135.488H135.998V134.16H134.526ZM143.898 136.256C143.898 137.744 145.066 138.32 146.826 138.576L147.482 138.672C148.33 138.8 149.338 138.864 149.338 139.68C149.338 140.448 148.538 140.944 147.418 140.944C146.138 140.944 145.13 140.224 144.634 139.04L143.29 139.76C143.898 140.912 145.146 142.224 147.37 142.224C149.386 142.224 150.826 141.2 150.826 139.632C150.826 138 149.434 137.568 147.658 137.312L147.002 137.216C146.154 137.088 145.386 137.008 145.386 136.24C145.386 135.568 146.042 135.184 146.922 135.184C147.85 135.184 148.794 135.616 149.658 136.736L150.778 135.936C149.546 134.56 148.49 133.936 146.89 133.936C145.289 133.936 143.898 134.768 143.898 136.256ZM156.716 138.864C156.716 140.784 158.124 142.24 160.3 142.24C161.596 142.24 162.524 141.712 163.292 140.896H163.516L164.652 142H166.764L164.38 139.648V139.424L166.636 135.488H164.94L163.292 138.368H163.068L160.988 136.32C159.868 135.216 159.18 134.56 159.18 133.6V133.536C159.18 132.64 159.852 132.048 160.844 132.048C161.9 132.048 162.572 132.672 162.572 133.696V134.064H164.172V133.648C164.172 131.744 162.796 130.576 160.876 130.576C158.988 130.576 157.58 131.712 157.58 133.504V133.6C157.58 134.4 157.9 135.104 158.396 135.744V135.952C157.548 136.592 156.716 137.568 156.716 138.864ZM158.316 138.864V138.8C158.316 138.096 158.716 137.504 159.388 137.056H159.596L162.268 139.664V139.888C161.788 140.4 161.164 140.768 160.3 140.768C159.02 140.768 158.316 139.824 158.316 138.864ZM172.996 130.8V142H180.1V140.528H174.596V130.8H172.996ZM181.286 136.224L182.582 136.816C182.95 135.904 183.702 135.28 184.982 135.28C186.262 135.28 187.014 135.92 187.014 136.992V137.2L184.118 137.472C182.102 137.664 181.126 138.432 181.126 139.856C181.126 141.264 182.262 142.224 184.022 142.224C185.638 142.224 186.454 141.472 186.79 140.768H187.014V142H188.486V137.056C188.486 135.168 187.126 133.936 185.014 133.936C183.094 133.936 181.846 135.008 181.286 136.224ZM182.646 139.792C182.646 138.992 183.366 138.72 184.278 138.64L187.014 138.384V138.512C187.014 139.872 186.118 140.976 184.278 140.976C183.238 140.976 182.646 140.528 182.646 139.792ZM190.636 130.8V142H192.108V140.768H192.332C192.764 141.488 193.484 142.224 195.02 142.224C197.084 142.224 198.7 140.512 198.7 138.08C198.7 135.648 197.084 133.936 195.02 133.936C193.484 133.936 192.764 134.672 192.332 135.392H192.14V130.8H190.636ZM194.636 135.28C196.14 135.28 197.196 136.288 197.196 138.08C197.196 139.872 196.14 140.88 194.636 140.88C193.1 140.88 192.14 139.808 192.14 138.08C192.14 136.352 193.1 135.28 194.636 135.28ZM200.21 136.256C200.21 137.744 201.378 138.32 203.138 138.576L203.794 138.672C204.642 138.8 205.65 138.864 205.65 139.68C205.65 140.448 204.85 140.944 203.73 140.944C202.45 140.944 201.442 140.224 200.946 139.04L199.602 139.76C200.21 140.912 201.458 142.224 203.682 142.224C205.698 142.224 207.138 141.2 207.138 139.632C207.138 138 205.746 137.568 203.97 137.312L203.314 137.216C202.466 137.088 201.698 137.008 201.698 136.24C201.698 135.568 202.354 135.184 203.234 135.184C204.162 135.184 205.106 135.616 205.97 136.736L207.09 135.936C205.858 134.56 204.802 133.936 203.202 133.936C201.602 133.936 200.21 134.768 200.21 136.256ZM213.348 136.224L214.644 136.816C215.012 135.904 215.764 135.28 217.044 135.28C218.324 135.28 219.076 135.92 219.076 136.992V137.2L216.18 137.472C214.164 137.664 213.188 138.432 213.188 139.856C213.188 141.264 214.324 142.224 216.084 142.224C217.7 142.224 218.516 141.472 218.852 140.768H219.076V142H220.548V137.056C220.548 135.168 219.188 133.936 217.076 133.936C215.156 133.936 213.908 135.008 213.348 136.224ZM214.708 139.792C214.708 138.992 215.428 138.72 216.34 138.64L219.076 138.384V138.512C219.076 139.872 218.18 140.976 216.34 140.976C215.3 140.976 214.708 140.528 214.708 139.792ZM221.646 134.16V135.472H223.822V140.656C223.822 141.456 224.366 142 225.134 142H227.182V140.688H225.742C225.454 140.688 225.326 140.56 225.326 140.24V135.472H227.63V134.16H225.326V131.44H223.822V134.16H221.646ZM236.075 130.8L232.939 135.696H234.699L236.779 132.288H236.971V142H238.571V130.8H236.075ZM240.263 134.448C240.263 136.752 241.911 138.24 243.783 138.24C245.367 138.24 246.087 137.472 246.471 136.864H246.663V138.368C246.663 139.776 245.751 140.752 244.231 140.752C242.711 140.752 242.023 139.952 242.023 138.736H240.423C240.423 140.896 241.943 142.224 244.231 142.224C246.567 142.224 248.263 140.64 248.263 138.352V134.432C248.263 132.128 246.551 130.576 244.295 130.576C241.975 130.576 240.263 132.144 240.263 134.448ZM244.295 136.832C242.839 136.832 241.863 135.872 241.863 134.448C241.863 133.024 242.839 132.048 244.295 132.048C245.687 132.048 246.663 133.024 246.663 134.448C246.663 135.872 245.687 136.832 244.295 136.832ZM249.831 135.088C249.831 135.792 250.391 136.336 251.079 136.336C251.767 136.336 252.327 135.792 252.327 135.088C252.327 134.384 251.767 133.84 251.079 133.84C250.391 133.84 249.831 134.384 249.831 135.088ZM249.831 140.976C249.831 141.68 250.391 142.224 251.079 142.224C251.767 142.224 252.327 141.68 252.327 140.976C252.327 140.272 251.767 139.728 251.079 139.728C250.391 139.728 249.831 140.272 249.831 140.976ZM254.069 130.8V132.272H259.429L256.325 135.04V136.512H258.069C259.253 136.512 260.229 137.264 260.229 138.528C260.229 139.824 259.285 140.752 257.797 140.752C256.213 140.752 255.237 139.808 255.237 138.384V137.728H253.637V138.48C253.637 140.688 255.397 142.224 257.829 142.224C260.037 142.224 261.829 140.736 261.829 138.56C261.829 136.576 260.453 135.296 258.757 135.296H258.341V135.104L261.637 132.224V130.8H254.069ZM263.268 135.152V137.648C263.268 140.528 264.868 142.224 267.46 142.224C270.052 142.224 271.652 140.528 271.652 137.648V135.152C271.652 132.272 269.988 130.576 267.46 130.576C264.868 130.576 263.268 132.272 263.268 135.152ZM264.868 135.12C264.868 133.136 265.732 132.048 267.46 132.048C269.188 132.048 270.052 133.136 270.052 135.12V137.68C270.052 139.664 269.188 140.752 267.46 140.752C265.732 140.752 264.868 139.664 264.868 137.68V135.12Z" fill="#434343"/>
<rect x="64" y="36" width="439" height="32" fill="#324BD9"/>
<path d="M76.448 46.8L78 58H80.752L82.432 48.24H82.624L84.304 58H87.056L88.608 46.8H86.976L85.696 56.56H85.504L83.824 46.8H81.232L79.552 56.56H79.36L78.08 46.8H76.448ZM89.4361 54.016C89.4361 56.384 91.1001 58.224 93.5321 58.224C95.4041 58.224 96.4121 57.184 97.0041 56.224L95.7401 55.504C95.3241 56.336 94.6521 56.912 93.5001 56.912C92.0921 56.912 91.1001 56.032 91.0041 54.624H97.1801V53.872C97.1801 51.6 95.6441 49.904 93.3401 49.904C91.0681 49.904 89.4361 51.712 89.4361 54.016ZM91.0041 53.408C91.1161 52.016 91.9641 51.216 93.3401 51.216C94.7161 51.216 95.5801 52.064 95.6121 53.408H91.0041ZM98.3268 54.016C98.3268 56.384 99.9908 58.224 102.423 58.224C104.295 58.224 105.303 57.184 105.895 56.224L104.631 55.504C104.215 56.336 103.543 56.912 102.391 56.912C100.983 56.912 99.9908 56.032 99.8948 54.624H106.071V53.872C106.071 51.6 104.535 49.904 102.231 49.904C99.9588 49.904 98.3268 51.712 98.3268 54.016ZM99.8948 53.408C100.007 52.016 100.855 51.216 102.231 51.216C103.607 51.216 104.471 52.064 104.503 53.408H99.8948ZM115.537 50.16H113.329L109.425 53.472H109.233V46.8H107.729V58H109.233V55.456L110.849 54.112L113.665 58H115.473L111.937 53.184L115.537 50.16ZM123.763 46.8L120.627 51.696H122.387L124.467 48.288H124.659V58H126.259V46.8H123.763ZM128.718 54.656H133.454V53.28H128.718V54.656ZM139.598 46.8L135.15 54.416V55.824H140.718V58H142.318V55.824H144.206V54.352H142.318V46.8H139.598ZM140.526 48.064H140.718V54.352H136.926L140.526 48.064ZM145.159 51.088C145.159 51.792 145.719 52.336 146.407 52.336C147.095 52.336 147.655 51.792 147.655 51.088C147.655 50.384 147.095 49.84 146.407 49.84C145.719 49.84 145.159 50.384 145.159 51.088ZM145.159 56.976C145.159 57.68 145.719 58.224 146.407 58.224C147.095 58.224 147.655 57.68 147.655 56.976C147.655 56.272 147.095 55.728 146.407 55.728C145.719 55.728 145.159 56.272 145.159 56.976ZM154.402 46.8V58H161.506V56.528H156.002V46.8H154.402ZM162.436 54.016C162.436 56.384 164.1 58.224 166.532 58.224C168.404 58.224 169.412 57.184 170.004 56.224L168.74 55.504C168.324 56.336 167.652 56.912 166.5 56.912C165.092 56.912 164.1 56.032 164.004 54.624H170.18V53.872C170.18 51.6 168.644 49.904 166.34 49.904C164.068 49.904 162.436 51.712 162.436 54.016ZM164.004 53.408C164.116 52.016 164.964 51.216 166.34 51.216C167.716 51.216 168.58 52.064 168.612 53.408H164.004ZM171.327 54.08C171.327 56.48 173.055 58.224 175.423 58.224C177.743 58.224 178.879 56.672 179.231 55.184L177.743 54.896C177.535 55.904 176.927 56.848 175.423 56.848C173.887 56.848 172.831 55.744 172.831 54.08C172.831 52.416 173.887 51.312 175.391 51.312C176.783 51.312 177.599 52.176 177.727 53.28L179.199 52.976C178.879 51.232 177.503 49.936 175.391 49.936C173.055 49.936 171.327 51.68 171.327 54.08ZM179.927 50.16V51.472H182.103V56.656C182.103 57.456 182.647 58 183.415 58H185.463V56.688H184.023C183.735 56.688 183.607 56.56 183.607 56.24V51.472H185.911V50.16H183.607V47.44H182.103V50.16H179.927ZM194.775 58V50.16H193.271V54.256C193.271 55.888 192.359 56.816 190.903 56.816C189.623 56.816 188.887 56.112 188.887 54.752V50.16H187.383V54.88C187.383 57.04 188.791 58.128 190.439 58.128C191.991 58.128 192.711 57.408 193.079 56.672H193.303V58H194.775ZM198.451 50.16H197.011V58H198.515V53.424C198.515 52.24 199.123 51.6 200.243 51.6H201.619V50.128H200.723C199.587 50.128 198.947 50.608 198.675 51.44H198.451V50.16ZM202.108 54.016C202.108 56.384 203.772 58.224 206.204 58.224C208.076 58.224 209.084 57.184 209.676 56.224L208.412 55.504C207.996 56.336 207.324 56.912 206.172 56.912C204.764 56.912 203.772 56.032 203.676 54.624H209.852V53.872C209.852 51.6 208.316 49.904 206.012 49.904C203.74 49.904 202.108 51.712 202.108 54.016ZM203.676 53.408C203.788 52.016 204.636 51.216 206.012 51.216C207.388 51.216 208.252 52.064 208.284 53.408H203.676ZM211.288 52.256C211.288 53.744 212.456 54.32 214.216 54.576L214.872 54.672C215.72 54.8 216.728 54.864 216.728 55.68C216.728 56.448 215.928 56.944 214.808 56.944C213.528 56.944 212.52 56.224 212.024 55.04L210.68 55.76C211.288 56.912 212.536 58.224 214.76 58.224C216.776 58.224 218.216 57.2 218.216 55.632C218.216 54 216.824 53.568 215.048 53.312L214.392 53.216C213.544 53.088 212.776 53.008 212.776 52.24C212.776 51.568 213.432 51.184 214.312 51.184C215.24 51.184 216.184 51.616 217.048 52.736L218.168 51.936C216.936 50.56 215.88 49.936 214.28 49.936C212.68 49.936 211.288 50.768 211.288 52.256Z" fill="white"/>
<circle cx="369" cy="52" r="5" fill="#A2C7FA"/>
<circle cx="436" cy="52" r="5" fill="#A2C7FA"/>
<path d="M255.152 6.8V18H256.752V8.496H256.944L259.776 18H262.176L265.008 8.496H265.2V18H266.8V6.8H263.92L261.072 16.336H260.88L258.032 6.8H255.152Z" fill="#434343"/>
<path d="M292.32 6.8V8.272H295.936V18H297.536V8.272H301.152V6.8H292.32Z" fill="#434343"/>
<path d="M326.448 6.8L328 18H330.752L332.432 8.24H332.624L334.304 18H337.056L338.608 6.8H336.976L335.696 16.56H335.504L333.824 6.8H331.232L329.552 16.56H329.36L328.08 6.8H326.448Z" fill="#434343"/>
<path d="M364.32 6.8V8.272H367.936V18H369.536V8.272H373.152V6.8H364.32Z" fill="#434343"/>
<path d="M399.152 6.8V18H400.752V13.12H405.84V11.648H400.752V8.272H406.128V6.8H399.152Z" fill="#434343"/>
<path d="M435.768 6.576C433.688 6.576 432.024 7.776 432.024 9.68C432.024 11.76 433.48 12.512 435.48 12.944L436.216 13.104C437.64 13.408 438.36 13.84 438.36 14.912C438.36 15.984 437.464 16.784 435.976 16.784C434.136 16.784 433.112 15.808 433.112 14.032V13.648H431.512V14.16C431.512 16.624 433.224 18.224 435.96 18.224C438.264 18.224 439.96 16.928 439.96 14.864C439.96 12.944 438.696 12.048 436.616 11.6L435.88 11.44C434.296 11.088 433.624 10.688 433.624 9.664C433.624 8.672 434.52 8.016 435.768 8.016C437.24 8.016 438.264 8.784 438.264 10.224V10.608H439.864V10.096C439.864 7.808 438.088 6.576 435.768 6.576Z" fill="#434343"/>
<path d="M469.768 6.576C467.688 6.576 466.024 7.776 466.024 9.68C466.024 11.76 467.48 12.512 469.48 12.944L470.216 13.104C471.64 13.408 472.36 13.84 472.36 14.912C472.36 15.984 471.464 16.784 469.976 16.784C468.136 16.784 467.112 15.808 467.112 14.032V13.648H465.512V14.16C465.512 16.624 467.224 18.224 469.96 18.224C472.264 18.224 473.96 16.928 473.96 14.864C473.96 12.944 472.696 12.048 470.616 11.6L469.88 11.44C468.296 11.088 467.624 10.688 467.624 9.664C467.624 8.672 468.52 8.016 469.768 8.016C471.24 8.016 472.264 8.784 472.264 10.224V10.608H473.864V10.096C473.864 7.808 472.088 6.576 469.768 6.576Z" fill="#434343"/>
<path d="M8 163.56L22 163.56L22 161.56L10.12 161.56L10.12 161.32L22 157.78L22 154.78L10.12 151.24L10.12 151L22 151L22 149L8 149L8 152.6L19.92 156.16L19.92 156.4L8 159.96L8 163.56ZM17.1 146.799C20.14 146.799 22.28 144.639 22.28 141.759C22.28 138.879 20.14 136.719 17.1 136.719C14.06 136.719 11.92 138.879 11.92 141.759C11.92 144.639 14.06 146.799 17.1 146.799ZM17.1 144.919C14.94 144.919 13.64 143.639 13.64 141.759C13.64 139.879 14.94 138.599 17.1 138.599C19.26 138.599 20.56 139.879 20.56 141.759C20.56 143.639 19.26 144.919 17.1 144.919ZM8 125.117L8 126.997L13.74 126.997L13.74 127.237C12.84 127.777 11.92 128.677 11.92 130.597C11.92 133.177 14.06 135.197 17.1 135.197C20.14 135.197 22.28 133.177 22.28 130.597C22.28 128.677 21.36 127.777 20.46 127.237L20.46 126.957L22 126.957L22 125.117L8 125.117ZM13.6 130.117C13.6 128.197 14.94 126.997 17.1 126.997C19.26 126.997 20.6 128.197 20.6 130.117C20.6 131.997 19.34 133.317 17.1 133.317C14.86 133.317 13.6 131.997 13.6 130.117ZM22 113.191L12.2 113.191L12.2 115.071L17.32 115.071C19.36 115.071 20.52 116.211 20.52 118.031C20.52 119.631 19.64 120.551 17.94 120.551L12.2 120.551L12.2 122.431L18.1 122.431C20.8 122.431 22.16 120.671 22.16 118.611C22.16 116.671 21.26 115.771 20.34 115.311L20.34 115.031L22 115.031L22 113.191ZM8 108.517L8 110.397L22 110.397L22 108.517L8 108.517ZM17.02 106.349C19.98 106.349 22.28 104.269 22.28 101.229C22.28 98.8894 20.98 97.6294 19.78 96.8894L18.88 98.4694C19.92 98.9894 20.64 99.8294 20.64 101.269C20.64 103.029 19.54 104.269 17.78 104.389L17.78 96.6694L16.84 96.6694C14 96.6694 11.88 98.5894 11.88 101.469C11.88 104.309 14.14 106.349 17.02 106.349ZM16.26 104.389C14.52 104.249 13.52 103.189 13.52 101.469C13.52 99.7494 14.58 98.6694 16.26 98.6294L16.26 104.389ZM7.72 84.04C7.72 86.64 9.22 88.72 11.6 88.72C14.2 88.72 15.14 86.9 15.68 84.4L15.88 83.48C16.26 81.7 16.8 80.8 18.14 80.8C19.48 80.8 20.48 81.92 20.48 83.78C20.48 86.08 19.26 87.36 17.04 87.36L16.56 87.36L16.56 89.36L17.2 89.36C20.28 89.36 22.28 87.22 22.28 83.8C22.28 80.92 20.66 78.8 18.08 78.8C15.68 78.8 14.56 80.38 14 82.98L13.8 83.9C13.36 85.88 12.86 86.72 11.58 86.72C10.34 86.72 9.52 85.6 9.52 84.04C9.52 82.2 10.48 80.92 12.28 80.92L12.76 80.92L12.76 78.92L12.12 78.92C9.26 78.92 7.72 81.14 7.72 84.04ZM12.2 77.6497L13.84 77.6497L13.84 74.9297L20.32 74.9297C21.32 74.9297 22 74.2497 22 73.2897L22 70.7297L20.36 70.7297L20.36 72.5297C20.36 72.8897 20.2 73.0497 19.8 73.0497L13.84 73.0497L13.84 70.1697L12.2 70.1697L12.2 73.0497L8.8 73.0497L8.8 74.9297L12.2 74.9297L12.2 77.6497ZM12.2 66.4094L12.2 68.2094L22 68.2094L22 66.3294L16.28 66.3294C14.8 66.3294 14 65.5694 14 64.1694L14 62.4494L12.16 62.4494L12.16 63.5694C12.16 64.9894 12.76 65.7894 13.8 66.1294L13.8 66.4094L12.2 66.4094ZM22 51.5698L12.2 51.5698L12.2 53.4498L17.32 53.4498C19.36 53.4498 20.52 54.5898 20.52 56.4098C20.52 58.0098 19.64 58.9298 17.94 58.9298L12.2 58.9298L12.2 60.8098L18.1 60.8098C20.8 60.8098 22.16 59.0498 22.16 56.9898C22.16 55.0498 21.26 54.1498 20.34 53.6898L20.34 53.4098L22 53.4098L22 51.5698ZM17.1 49.4158C20.1 49.4158 22.28 47.2558 22.28 44.2958C22.28 41.3958 20.34 39.9758 18.48 39.5358L18.12 41.3958C19.38 41.6558 20.56 42.4158 20.56 44.2958C20.56 46.2158 19.18 47.5358 17.1 47.5358C15.02 47.5358 13.64 46.2158 13.64 44.3358C13.64 42.5958 14.72 41.5758 16.1 41.4158L15.72 39.5758C13.54 39.9758 11.92 41.6958 11.92 44.3358C11.92 47.2558 14.1 49.4158 17.1 49.4158ZM12.2 38.6653L13.84 38.6653L13.84 35.9453L20.32 35.9453C21.32 35.9453 22 35.2653 22 34.3053L22 31.7453L20.36 31.7453L20.36 33.5453C20.36 33.9053 20.2 34.0653 19.8 34.0653L13.84 34.0653L13.84 31.1853L12.2 31.1853L12.2 34.0653L8.79999 34.0653L8.79999 35.9453L12.2 35.9453L12.2 38.6653ZM22 20.105L12.2 20.105L12.2 21.985L17.32 21.985C19.36 21.985 20.52 23.125 20.52 24.945C20.52 26.545 19.64 27.465 17.94 27.465L12.2 27.465L12.2 29.345L18.1 29.345C20.8 29.345 22.16 27.585 22.16 25.525C22.16 23.585 21.26 22.685 20.34 22.225L20.34 21.945L22 21.945L22 20.105ZM12.2 15.5109L12.2 17.3109L22 17.3109L22 15.4309L16.28 15.4309C14.8 15.4309 14 14.6709 14 13.2709L14 11.5509L12.16 11.5509L12.16 12.6709C12.16 14.0909 12.76 14.8909 13.8 15.2309L13.8 15.5109L12.2 15.5109ZM17.02 10.9392C19.98 10.9392 22.28 8.85922 22.28 5.81922C22.28 3.47922 20.98 2.21922 19.78 1.47922L18.88 3.05922C19.92 3.57922 20.64 4.41922 20.64 5.85922C20.64 7.61922 19.54 8.85922 17.78 8.97922L17.78 1.25922L16.84 1.25922C14 1.25922 11.88 3.17922 11.88 6.05922C11.88 8.89922 14.14 10.9392 17.02 10.9392ZM16.26 8.97922C14.52 8.83922 13.52 7.77922 13.52 6.05922C13.52 4.33922 14.58 3.25922 16.26 3.21922L16.26 8.97922Z" fill="#434343"/>
<path d="M74 136C74 138.761 71.7614 141 69 141C66.2386 141 64 138.761 64 136C64 133.239 66.2386 131 69 131C71.7614 131 74 133.239 74 136Z" fill="#A2C7FA"/>
<path d="M7.72 396.04C7.72 398.64 9.22 400.72 11.6 400.72C14.2 400.72 15.14 398.9 15.68 396.4L15.88 395.48C16.26 393.7 16.8 392.8 18.14 392.8C19.48 392.8 20.48 393.92 20.48 395.78C20.48 398.08 19.26 399.36 17.04 399.36L16.56 399.36L16.56 401.36L17.2 401.36C20.28 401.36 22.28 399.22 22.28 395.8C22.28 392.92 20.66 390.8 18.08 390.8C15.68 390.8 14.56 392.38 14 394.98L13.8 395.9C13.36 397.88 12.86 398.72 11.58 398.72C10.34 398.72 9.52 397.6 9.52 396.04C9.52 394.2 10.48 392.92 12.28 392.92L12.76 392.92L12.76 390.92L12.12 390.92C9.26 390.92 7.72 393.14 7.72 396.04ZM17.02 389.17C19.98 389.17 22.28 387.09 22.28 384.05C22.28 381.71 20.98 380.45 19.78 379.71L18.88 381.29C19.92 381.81 20.64 382.65 20.64 384.09C20.64 385.85 19.54 387.09 17.78 387.21L17.78 379.49L16.84 379.49C14 379.49 11.88 381.41 11.88 384.29C11.88 387.13 14.14 389.17 17.02 389.17ZM16.26 387.21C14.52 387.07 13.52 386.01 13.52 384.29C13.52 382.57 14.58 381.49 16.26 381.45L16.26 387.21ZM14.82 377.695C16.68 377.695 17.4 376.235 17.72 374.035L17.84 373.215C18 372.155 18.08 370.895 19.1 370.895C20.06 370.895 20.68 371.895 20.68 373.295C20.68 374.895 19.78 376.155 18.3 376.775L19.2 378.455C20.64 377.695 22.28 376.135 22.28 373.355C22.28 370.835 21 369.035 19.04 369.035C17 369.035 16.46 370.775 16.14 372.995L16.02 373.815C15.86 374.875 15.76 375.835 14.8 375.835C13.96 375.835 13.48 375.015 13.48 373.915C13.48 372.755 14.02 371.575 15.42 370.495L14.42 369.095C12.7 370.635 11.92 371.955 11.92 373.955C11.92 375.955 12.96 377.695 14.82 377.695ZM14.82 367.343C16.68 367.343 17.4 365.883 17.72 363.683L17.84 362.863C18 361.803 18.08 360.543 19.1 360.543C20.06 360.543 20.68 361.543 20.68 362.943C20.68 364.543 19.78 365.803 18.3 366.423L19.2 368.103C20.64 367.343 22.28 365.783 22.28 363.003C22.28 360.483 21 358.683 19.04 358.683C17 358.683 16.46 360.423 16.14 362.643L16.02 363.463C15.86 364.523 15.76 365.483 14.8 365.483C13.96 365.483 13.48 364.663 13.48 363.563C13.48 362.403 14.02 361.223 15.42 360.143L14.42 358.743C12.7 360.283 11.92 361.603 11.92 363.603C11.92 365.603 12.96 367.343 14.82 367.343ZM9.2 357.176C10.04 357.176 10.68 356.496 10.68 355.656C10.68 354.816 10.04 354.136 9.2 354.136C8.36 354.136 7.72 354.816 7.72 355.656C7.72 356.496 8.36 357.176 9.2 357.176ZM12.2 354.716L12.2 356.596L22 356.596L22 354.716L12.2 354.716ZM17.1 352.549C20.14 352.549 22.28 350.389 22.28 347.509C22.28 344.629 20.14 342.469 17.1 342.469C14.06 342.469 11.92 344.629 11.92 347.509C11.92 350.389 14.06 352.549 17.1 352.549ZM17.1 350.669C14.94 350.669 13.64 349.389 13.64 347.509C13.64 345.629 14.94 344.349 17.1 344.349C19.26 344.349 20.56 345.629 20.56 347.509C20.56 349.389 19.26 350.669 17.1 350.669ZM12.2 340.307L22 340.307L22 338.427L16.88 338.427C14.84 338.427 13.68 337.287 13.68 335.467C13.68 333.867 14.56 332.947 16.26 332.947L22 332.947L22 331.067L16.1 331.067C13.4 331.067 12.04 332.827 12.04 334.887C12.04 336.827 12.94 337.727 13.86 338.187L13.86 338.467L12.2 338.467L12.2 340.307ZM8 322.357L22 322.357L22 316.537C22 314.137 20.58 312.397 18.22 312.397C16.58 312.397 15.48 313.417 15.1 314.757L14.86 314.757C14.5 313.357 13.4 312.437 11.76 312.437C9.36 312.437 8 314.157 8 316.577L8 322.357ZM9.84 320.357L9.84 316.757C9.84 315.337 10.64 314.357 11.92 314.357C13.26 314.357 14.06 315.277 14.06 316.717L14.06 320.357L9.84 320.357ZM15.9 320.357L15.9 316.677C15.9 315.237 16.72 314.317 18.06 314.317C19.36 314.317 20.16 315.297 20.16 316.717L20.16 320.357L15.9 320.357ZM12.2 308.312L12.2 310.112L22 310.112L22 308.232L16.28 308.232C14.8 308.232 14 307.472 14 306.072L14 304.352L12.16 304.352L12.16 305.472C12.16 306.892 12.76 307.692 13.8 308.032L13.8 308.312L12.2 308.312ZM17.02 303.74C19.98 303.74 22.28 301.66 22.28 298.62C22.28 296.28 20.98 295.02 19.78 294.28L18.88 295.86C19.92 296.38 20.64 297.22 20.64 298.66C20.64 300.42 19.54 301.66 17.78 301.78L17.78 294.06L16.84 294.06C14 294.06 11.88 295.98 11.88 298.86C11.88 301.7 14.14 303.74 17.02 303.74ZM16.26 301.78C14.52 301.64 13.52 300.58 13.52 298.86C13.52 297.14 14.58 296.06 16.26 296.02L16.26 301.78ZM14.78 292.385L15.52 290.765C14.38 290.305 13.6 289.365 13.6 287.765C13.6 286.165 14.4 285.225 15.74 285.225L16 285.225L16.34 288.845C16.58 291.365 17.54 292.585 19.32 292.585C21.08 292.585 22.28 291.165 22.28 288.965C22.28 286.945 21.34 285.925 20.46 285.505L20.46 285.225L22 285.225L22 283.385L15.82 283.385C13.46 283.385 11.92 285.085 11.92 287.725C11.92 290.125 13.26 291.685 14.78 292.385ZM19.24 290.685C18.24 290.685 17.9 289.785 17.8 288.645L17.48 285.225L17.64 285.225C19.34 285.225 20.72 286.345 20.72 288.645C20.72 289.945 20.16 290.685 19.24 290.685ZM12.2 270.938L12.2 273.698L16.34 278.578L16.34 278.818L8 278.818L8 280.698L22 280.698L22 278.818L18.82 278.818L17.14 276.798L22 273.278L22 271.018L15.98 275.438L12.2 270.938ZM22 260.132L12.2 260.132L12.2 262.012L17.32 262.012C19.36 262.012 20.52 263.152 20.52 264.972C20.52 266.572 19.64 267.492 17.94 267.492L12.2 267.492L12.2 269.372L18.1 269.372C20.8 269.372 22.16 267.612 22.16 265.552C22.16 263.612 21.26 262.712 20.34 262.252L20.34 261.972L22 261.972L22 260.132ZM26 257.338L26 255.458L20.46 255.458L20.46 255.218C21.36 254.678 22.28 253.778 22.28 251.858C22.28 249.278 20.14 247.258 17.1 247.258C14.06 247.258 11.92 249.278 11.92 251.858C11.92 253.778 12.84 254.678 13.74 255.218L13.74 255.498L12.2 255.498L12.2 257.338L26 257.338ZM20.6 252.338C20.6 254.258 19.26 255.458 17.1 255.458C14.94 255.458 13.6 254.258 13.6 252.338C13.6 250.458 14.86 249.138 17.1 249.138C19.34 249.138 20.6 250.458 20.6 252.338Z" fill="#FAFAFA"/>
<path d="M67.2 315.8L64.064 320.696H65.824L67.904 317.288H68.096V327H69.696V315.8H67.2ZM71.9638 315.8V321.816H74.3958C74.6038 321.432 75.0838 320.888 76.0758 320.888C77.3078 320.888 78.1718 321.72 78.1718 323.16C78.1718 324.728 77.2598 325.752 75.6918 325.752C74.0278 325.752 73.1158 324.728 73.1158 323.192V323.032H71.5158V323.224C71.5158 325.688 73.2278 327.224 75.6918 327.224C78.1238 327.224 79.7718 325.496 79.7718 323.16C79.7718 320.936 78.2998 319.448 76.3798 319.448C74.9078 319.448 74.2038 320.056 73.7398 320.824H73.5478V317.272H79.4198V315.8H71.9638ZM81.6558 323.656H86.3918V322.28H81.6558V323.656ZM88.4391 319.384V319.832H90.0391V319.48C90.0391 317.912 90.9511 317.048 92.5511 317.048C93.7991 317.048 94.7751 317.8 94.7751 319.128C94.7751 320.712 93.6231 321.304 91.7671 321.912C89.7351 322.584 88.4391 323.464 88.4391 325.56V327H96.2151V325.528H90.0711V325.368C90.0711 324.088 90.8711 323.72 92.4391 323.192C94.5991 322.472 96.3751 321.608 96.3751 319.192C96.3751 317.016 94.7591 315.576 92.5511 315.576C90.1031 315.576 88.4391 317.064 88.4391 319.384ZM97.7836 320.152V322.648C97.7836 325.528 99.3836 327.224 101.976 327.224C104.568 327.224 106.168 325.528 106.168 322.648V320.152C106.168 317.272 104.504 315.576 101.976 315.576C99.3836 315.576 97.7836 317.272 97.7836 320.152ZM99.3836 320.12C99.3836 318.136 100.248 317.048 101.976 317.048C103.704 317.048 104.568 318.136 104.568 320.12V322.68C104.568 324.664 103.704 325.752 101.976 325.752C100.248 325.752 99.3836 324.664 99.3836 322.68V320.12ZM112.854 319.16V327H114.358V322.104C114.358 320.92 115.142 320.312 116.15 320.312C117.062 320.312 117.686 320.824 117.686 321.736V327H119.19V322.104C119.19 320.92 119.926 320.312 120.902 320.312C121.83 320.312 122.518 320.824 122.518 321.736V327H124.022V321.64C124.022 320.024 122.758 319.032 121.366 319.032C120.086 319.032 119.414 319.688 119.094 320.344H118.87C118.486 319.624 117.83 319.032 116.694 319.032C115.654 319.032 114.95 319.512 114.55 320.184H114.326V319.16H112.854ZM125.703 316.76C125.703 317.432 126.247 317.944 126.919 317.944C127.591 317.944 128.135 317.432 128.135 316.76C128.135 316.088 127.591 315.576 126.919 315.576C126.247 315.576 125.703 316.088 125.703 316.76ZM127.671 319.16H126.167V327H127.671V319.16ZM129.917 319.16V327H131.421V322.904C131.421 321.272 132.333 320.344 133.789 320.344C135.069 320.344 135.805 321.048 135.805 322.408V327H137.309V322.28C137.309 320.12 135.901 319.032 134.253 319.032C132.701 319.032 131.981 319.752 131.613 320.488H131.389V319.16H129.917ZM143.605 319.16L145.349 327H147.589L149.045 320.728H149.269L150.693 327H152.965L154.709 319.16H153.141L151.909 325.432H151.685L150.261 319.16H148.053L146.629 325.432H146.405L145.173 319.16H143.605ZM155.844 316.76C155.844 317.432 156.388 317.944 157.06 317.944C157.732 317.944 158.276 317.432 158.276 316.76C158.276 316.088 157.732 315.576 157.06 315.576C156.388 315.576 155.844 316.088 155.844 316.76ZM157.812 319.16H156.308V327H157.812V319.16ZM159.162 319.16V320.472H161.338V325.656C161.338 326.456 161.882 327 162.65 327H164.698V325.688H163.258C162.97 325.688 162.842 325.56 162.842 325.24V320.472H165.146V319.16H162.842V316.44H161.338V319.16H159.162ZM166.714 315.8V327H168.218V322.904C168.218 321.272 169.13 320.344 170.586 320.344C171.866 320.344 172.602 321.048 172.602 322.408V327H174.106V322.28C174.106 320.12 172.698 319.032 171.05 319.032C169.498 319.032 168.778 319.752 168.41 320.488H168.218V315.8H166.714ZM65.152 339.8V351H66.752V346.52H69.504C71.504 346.52 72.96 345.192 72.96 343.16C72.96 341.128 71.552 339.8 69.504 339.8H65.152ZM66.752 341.272H69.328C70.656 341.272 71.36 341.944 71.36 343.16C71.36 344.376 70.624 345.048 69.328 345.048H66.752V341.272ZM75.935 343.16H74.495V351H75.999V346.424C75.999 345.24 76.607 344.6 77.727 344.6H79.103V343.128H78.207C77.071 343.128 76.431 343.608 76.159 344.44H75.935V343.16ZM79.5924 347.08C79.5924 349.512 81.3204 351.224 83.6244 351.224C85.9284 351.224 87.6564 349.512 87.6564 347.08C87.6564 344.648 85.9284 342.936 83.6244 342.936C81.3204 342.936 79.5924 344.648 79.5924 347.08ZM81.0964 347.08C81.0964 345.352 82.1204 344.312 83.6244 344.312C85.1284 344.312 86.1524 345.352 86.1524 347.08C86.1524 348.808 85.1284 349.848 83.6244 349.848C82.1204 349.848 81.0964 348.808 81.0964 347.08ZM88.4115 343.16V344.472H90.5875V351H92.0915V344.472H94.3315V343.16H92.0915V341.56C92.0915 341.24 92.2195 341.112 92.5075 341.112H93.9155V339.8H91.9315C91.1315 339.8 90.5875 340.344 90.5875 341.176V343.16H88.4115ZM95.0924 347.016C95.0924 349.384 96.7564 351.224 99.1884 351.224C101.06 351.224 102.068 350.184 102.66 349.224L101.396 348.504C100.98 349.336 100.308 349.912 99.1564 349.912C97.7484 349.912 96.7564 349.032 96.6604 347.624H102.836V346.872C102.836 344.6 101.3 342.904 98.9964 342.904C96.7244 342.904 95.0924 344.712 95.0924 347.016ZM96.6604 346.408C96.7724 345.016 97.6204 344.216 98.9964 344.216C100.372 344.216 101.236 345.064 101.268 346.408H96.6604ZM104.273 345.256C104.273 346.744 105.441 347.32 107.201 347.576L107.857 347.672C108.705 347.8 109.713 347.864 109.713 348.68C109.713 349.448 108.913 349.944 107.793 349.944C106.513 349.944 105.505 349.224 105.009 348.04L103.665 348.76C104.273 349.912 105.521 351.224 107.745 351.224C109.761 351.224 111.201 350.2 111.201 348.632C111.201 347 109.809 346.568 108.033 346.312L107.377 346.216C106.529 346.088 105.761 346.008 105.761 345.24C105.761 344.568 106.417 344.184 107.297 344.184C108.225 344.184 109.169 344.616 110.033 345.736L111.153 344.936C109.921 343.56 108.865 342.936 107.265 342.936C105.664 342.936 104.273 343.768 104.273 345.256ZM112.554 345.256C112.554 346.744 113.722 347.32 115.482 347.576L116.138 347.672C116.986 347.8 117.994 347.864 117.994 348.68C117.994 349.448 117.194 349.944 116.074 349.944C114.794 349.944 113.786 349.224 113.29 348.04L111.946 348.76C112.554 349.912 113.802 351.224 116.026 351.224C118.042 351.224 119.482 350.2 119.482 348.632C119.482 347 118.09 346.568 116.314 346.312L115.658 346.216C114.81 346.088 114.042 346.008 114.042 345.24C114.042 344.568 114.698 344.184 115.578 344.184C116.506 344.184 117.45 344.616 118.314 345.736L119.434 344.936C118.202 343.56 117.146 342.936 115.546 342.936C113.946 342.936 112.554 343.768 112.554 345.256ZM120.639 347.08C120.639 349.512 122.367 351.224 124.671 351.224C126.975 351.224 128.703 349.512 128.703 347.08C128.703 344.648 126.975 342.936 124.671 342.936C122.367 342.936 120.639 344.648 120.639 347.08ZM122.143 347.08C122.143 345.352 123.167 344.312 124.671 344.312C126.175 344.312 127.199 345.352 127.199 347.08C127.199 348.808 126.175 349.848 124.671 349.848C123.167 349.848 122.143 348.808 122.143 347.08ZM131.873 343.16H130.433V351H131.937V346.424C131.937 345.24 132.545 344.6 133.665 344.6H135.041V343.128H134.145C133.009 343.128 132.369 343.608 132.097 344.44H131.873V343.16ZM136.132 345.256C136.132 346.744 137.3 347.32 139.06 347.576L139.716 347.672C140.564 347.8 141.572 347.864 141.572 348.68C141.572 349.448 140.772 349.944 139.652 349.944C138.372 349.944 137.364 349.224 136.868 348.04L135.524 348.76C136.132 349.912 137.38 351.224 139.604 351.224C141.62 351.224 143.06 350.2 143.06 348.632C143.06 347 141.668 346.568 139.892 346.312L139.236 346.216C138.388 346.088 137.62 346.008 137.62 345.24C137.62 344.568 138.276 344.184 139.156 344.184C140.084 344.184 141.028 344.616 141.892 345.736L143.012 344.936C141.78 343.56 140.724 342.936 139.124 342.936C137.524 342.936 136.132 343.768 136.132 345.256Z" fill="#434343"/>
<path d="M68.768 403.576C66.688 403.576 65.024 404.776 65.024 406.68C65.024 408.76 66.48 409.512 68.48 409.944L69.216 410.104C70.64 410.408 71.36 410.84 71.36 411.912C71.36 412.984 70.464 413.784 68.976 413.784C67.136 413.784 66.112 412.808 66.112 411.032V410.648H64.512V411.16C64.512 413.624 66.224 415.224 68.96 415.224C71.264 415.224 72.96 413.928 72.96 411.864C72.96 409.944 71.696 409.048 69.616 408.6L68.88 408.44C67.296 408.088 66.624 407.688 66.624 406.664C66.624 405.672 67.52 405.016 68.768 405.016C70.24 405.016 71.264 405.784 71.264 407.224V407.608H72.864V407.096C72.864 404.808 71.088 403.576 68.768 403.576ZM73.8803 407.16V408.472H76.0563V413.656C76.0563 414.456 76.6003 415 77.3683 415H79.4163V413.688H77.9763C77.6883 413.688 77.5603 413.56 77.5603 413.24V408.472H79.8643V407.16H77.5603V404.44H76.0563V407.16H73.8803ZM82.8725 407.16H81.4325V415H82.9365V410.424C82.9365 409.24 83.5445 408.6 84.6645 408.6H86.0405V407.128H85.1445C84.0085 407.128 83.3685 407.608 83.0965 408.44H82.8725V407.16ZM94.7441 415V407.16H93.2401V411.256C93.2401 412.888 92.3281 413.816 90.8721 413.816C89.5921 413.816 88.8561 413.112 88.8561 411.752V407.16H87.3521V411.88C87.3521 414.04 88.7601 415.128 90.4081 415.128C91.9601 415.128 92.6801 414.408 93.0481 413.672H93.2721V415H94.7441ZM96.4674 411.08C96.4674 413.48 98.1954 415.224 100.563 415.224C102.883 415.224 104.019 413.672 104.371 412.184L102.883 411.896C102.675 412.904 102.067 413.848 100.563 413.848C99.0274 413.848 97.9714 412.744 97.9714 411.08C97.9714 409.416 99.0274 408.312 100.531 408.312C101.923 408.312 102.739 409.176 102.867 410.28L104.339 409.976C104.019 408.232 102.643 406.936 100.531 406.936C98.1954 406.936 96.4674 408.68 96.4674 411.08ZM105.068 407.16V408.472H107.244V413.656C107.244 414.456 107.788 415 108.556 415H110.604V413.688H109.164C108.876 413.688 108.748 413.56 108.748 413.24V408.472H111.052V407.16H108.748V404.44H107.244V407.16H105.068ZM119.916 415V407.16H118.412V411.256C118.412 412.888 117.5 413.816 116.044 413.816C114.764 413.816 114.028 413.112 114.028 411.752V407.16H112.524V411.88C112.524 414.04 113.932 415.128 115.58 415.128C117.132 415.128 117.852 414.408 118.22 413.672H118.444V415H119.916ZM123.591 407.16H122.151V415H123.655V410.424C123.655 409.24 124.263 408.6 125.383 408.6H126.759V407.128H125.863C124.727 407.128 124.087 407.608 123.815 408.44H123.591V407.16ZM127.249 411.016C127.249 413.384 128.913 415.224 131.345 415.224C133.217 415.224 134.225 414.184 134.817 413.224L133.553 412.504C133.137 413.336 132.465 413.912 131.313 413.912C129.905 413.912 128.913 413.032 128.817 411.624H134.993V410.872C134.993 408.6 133.457 406.904 131.153 406.904C128.881 406.904 127.249 408.712 127.249 411.016ZM128.817 410.408C128.929 409.016 129.777 408.216 131.153 408.216C132.529 408.216 133.393 409.064 133.425 410.408H128.817ZM142.888 407.16H141.448V415H142.952V410.424C142.952 409.24 143.56 408.6 144.68 408.6H146.056V407.128H145.16C144.024 407.128 143.384 407.608 143.112 408.44H142.888V407.16ZM146.546 411.016C146.546 413.384 148.21 415.224 150.641 415.224C152.514 415.224 153.522 414.184 154.114 413.224L152.85 412.504C152.434 413.336 151.762 413.912 150.61 413.912C149.202 413.912 148.21 413.032 148.114 411.624H154.29V410.872C154.29 408.6 152.754 406.904 150.45 406.904C148.178 406.904 146.546 408.712 146.546 411.016ZM148.114 410.408C148.226 409.016 149.074 408.216 150.45 408.216C151.826 408.216 152.69 409.064 152.722 410.408H148.114ZM155.948 418.2H157.452V413.768H157.644C158.076 414.488 158.796 415.224 160.332 415.224C162.396 415.224 164.012 413.512 164.012 411.08C164.012 408.648 162.396 406.936 160.332 406.936C158.796 406.936 158.076 407.672 157.644 408.392H157.42V407.16H155.948V418.2ZM159.948 413.88C158.412 413.88 157.452 412.808 157.452 411.08C157.452 409.352 158.412 408.28 159.948 408.28C161.452 408.28 162.508 409.288 162.508 411.08C162.508 412.872 161.452 413.88 159.948 413.88ZM165.233 411.016C165.233 413.384 166.897 415.224 169.329 415.224C171.201 415.224 172.209 414.184 172.801 413.224L171.537 412.504C171.121 413.336 170.449 413.912 169.297 413.912C167.889 413.912 166.897 413.032 166.801 411.624H172.977V410.872C172.977 408.6 171.441 406.904 169.137 406.904C166.865 406.904 165.233 408.712 165.233 411.016ZM166.801 410.408C166.913 409.016 167.761 408.216 169.137 408.216C170.513 408.216 171.377 409.064 171.409 410.408H166.801ZM174.317 409.224L175.613 409.816C175.981 408.904 176.733 408.28 178.013 408.28C179.293 408.28 180.045 408.92 180.045 409.992V410.2L177.149 410.472C175.133 410.664 174.157 411.432 174.157 412.856C174.157 414.264 175.293 415.224 177.053 415.224C178.669 415.224 179.485 414.472 179.821 413.768H180.045V415H181.517V410.056C181.517 408.168 180.157 406.936 178.045 406.936C176.125 406.936 174.877 408.008 174.317 409.224ZM175.677 412.792C175.677 411.992 176.397 411.72 177.309 411.64L180.045 411.384V411.512C180.045 412.872 179.149 413.976 177.309 413.976C176.269 413.976 175.677 413.528 175.677 412.792ZM182.615 407.16V408.472H184.791V413.656C184.791 414.456 185.335 415 186.103 415H188.151V413.688H186.711C186.423 413.688 186.295 413.56 186.295 413.24V408.472H188.599V407.16H186.295V404.44H184.791V407.16H182.615ZM190.007 409.256C190.007 410.744 191.175 411.32 192.935 411.576L193.591 411.672C194.439 411.8 195.447 411.864 195.447 412.68C195.447 413.448 194.647 413.944 193.527 413.944C192.247 413.944 191.239 413.224 190.743 412.04L189.399 412.76C190.007 413.912 191.255 415.224 193.479 415.224C195.495 415.224 196.935 414.2 196.935 412.632C196.935 411 195.543 410.568 193.767 410.312L193.111 410.216C192.263 410.088 191.495 410.008 191.495 409.24C191.495 408.568 192.151 408.184 193.031 408.184C193.959 408.184 194.903 408.616 195.767 409.736L196.887 408.936C195.655 407.56 194.599 406.936 192.999 406.936C191.399 406.936 190.007 407.768 190.007 409.256ZM203.225 403.8V405.272H208.585L205.481 408.04V409.512H207.225C208.409 409.512 209.385 410.264 209.385 411.528C209.385 412.824 208.441 413.752 206.953 413.752C205.369 413.752 204.393 412.808 204.393 411.384V410.728H202.793V411.48C202.793 413.688 204.553 415.224 206.985 415.224C209.193 415.224 210.985 413.736 210.985 411.56C210.985 409.576 209.609 408.296 207.913 408.296H207.497V408.104L210.793 405.224V403.8H203.225ZM212.968 411.656H220.136V410.28H212.968V411.656ZM226.285 403.8L221.837 411.416V412.824H227.405V415H229.005V412.824H230.893V411.352H229.005V403.8H226.285ZM227.213 405.064H227.405V411.352H223.613L227.213 405.064ZM236.068 407.16V408.472H238.244V413.656C238.244 414.456 238.788 415 239.556 415H241.604V413.688H240.164C239.876 413.688 239.748 413.56 239.748 413.24V408.472H242.052V407.16H239.748V404.44H238.244V407.16H236.068ZM243.156 404.76C243.156 405.432 243.7 405.944 244.372 405.944C245.044 405.944 245.588 405.432 245.588 404.76C245.588 404.088 245.044 403.576 244.372 403.576C243.7 403.576 243.156 404.088 243.156 404.76ZM245.124 407.16H243.62V415H245.124V407.16ZM247.37 407.16V415H248.874V410.104C248.874 408.92 249.658 408.312 250.666 408.312C251.578 408.312 252.202 408.824 252.202 409.736V415H253.706V410.104C253.706 408.92 254.442 408.312 255.418 408.312C256.346 408.312 257.034 408.824 257.034 409.736V415H258.538V409.64C258.538 408.024 257.274 407.032 255.882 407.032C254.602 407.032 253.93 407.688 253.61 408.344H253.386C253.002 407.624 252.346 407.032 251.21 407.032C250.17 407.032 249.466 407.512 249.066 408.184H248.842V407.16H247.37ZM260.171 411.016C260.171 413.384 261.835 415.224 264.266 415.224C266.139 415.224 267.147 414.184 267.739 413.224L266.475 412.504C266.059 413.336 265.387 413.912 264.235 413.912C262.827 413.912 261.835 413.032 261.739 411.624H267.915V410.872C267.915 408.6 266.379 406.904 264.075 406.904C261.803 406.904 260.171 408.712 260.171 411.016ZM261.739 410.408C261.851 409.016 262.699 408.216 264.075 408.216C265.451 408.216 266.315 409.064 266.347 410.408H261.739ZM269.351 409.256C269.351 410.744 270.519 411.32 272.279 411.576L272.935 411.672C273.783 411.8 274.791 411.864 274.791 412.68C274.791 413.448 273.991 413.944 272.871 413.944C271.591 413.944 270.583 413.224 270.087 412.04L268.743 412.76C269.351 413.912 270.599 415.224 272.823 415.224C274.839 415.224 276.279 414.2 276.279 412.632C276.279 411 274.887 410.568 273.111 410.312L272.455 410.216C271.607 410.088 270.839 410.008 270.839 409.24C270.839 408.568 271.495 408.184 272.375 408.184C273.303 408.184 274.247 408.616 275.111 409.736L276.231 408.936C274.999 407.56 273.943 406.936 272.343 406.936C270.743 406.936 269.351 407.768 269.351 409.256ZM281.849 407.16V408.472H284.025V415H285.529V408.472H287.769V407.16H285.529V405.56C285.529 405.24 285.657 405.112 285.945 405.112H287.353V403.8H285.369C284.569 403.8 284.025 404.344 284.025 405.176V407.16H281.849ZM288.53 411.08C288.53 413.512 290.258 415.224 292.562 415.224C294.866 415.224 296.594 413.512 296.594 411.08C296.594 408.648 294.866 406.936 292.562 406.936C290.258 406.936 288.53 408.648 288.53 411.08ZM290.034 411.08C290.034 409.352 291.058 408.312 292.562 408.312C294.066 408.312 295.09 409.352 295.09 411.08C295.09 412.808 294.066 413.848 292.562 413.848C291.058 413.848 290.034 412.808 290.034 411.08ZM299.763 407.16H298.323V415H299.827V410.424C299.827 409.24 300.435 408.6 301.555 408.6H302.931V407.128H302.035C300.899 407.128 300.259 407.608 299.987 408.44H299.763V407.16ZM308.88 409.224L310.176 409.816C310.544 408.904 311.296 408.28 312.576 408.28C313.856 408.28 314.608 408.92 314.608 409.992V410.2L311.712 410.472C309.696 410.664 308.72 411.432 308.72 412.856C308.72 414.264 309.856 415.224 311.616 415.224C313.232 415.224 314.048 414.472 314.384 413.768H314.608V415H316.08V410.056C316.08 408.168 314.72 406.936 312.608 406.936C310.688 406.936 309.44 408.008 308.88 409.224ZM310.24 412.792C310.24 411.992 310.96 411.72 311.872 411.64L314.608 411.384V411.512C314.608 412.872 313.712 413.976 311.872 413.976C310.832 413.976 310.24 413.528 310.24 412.792ZM322.866 409.256C322.866 410.744 324.034 411.32 325.794 411.576L326.45 411.672C327.298 411.8 328.306 411.864 328.306 412.68C328.306 413.448 327.506 413.944 326.386 413.944C325.106 413.944 324.098 413.224 323.602 412.04L322.258 412.76C322.866 413.912 324.114 415.224 326.338 415.224C328.354 415.224 329.794 414.2 329.794 412.632C329.794 411 328.402 410.568 326.626 410.312L325.97 410.216C325.122 410.088 324.354 410.008 324.354 409.24C324.354 408.568 325.01 408.184 325.89 408.184C326.818 408.184 327.762 408.616 328.626 409.736L329.746 408.936C328.514 407.56 327.458 406.936 325.858 406.936C324.258 406.936 322.866 407.768 322.866 409.256ZM330.952 411.016C330.952 413.384 332.616 415.224 335.048 415.224C336.92 415.224 337.928 414.184 338.52 413.224L337.256 412.504C336.84 413.336 336.168 413.912 335.016 413.912C333.608 413.912 332.616 413.032 332.52 411.624H338.696V410.872C338.696 408.6 337.16 406.904 334.856 406.904C332.584 406.904 330.952 408.712 330.952 411.016ZM332.52 410.408C332.632 409.016 333.48 408.216 334.856 408.216C336.232 408.216 337.096 409.064 337.128 410.408H332.52ZM340.132 409.256C340.132 410.744 341.3 411.32 343.06 411.576L343.716 411.672C344.564 411.8 345.572 411.864 345.572 412.68C345.572 413.448 344.772 413.944 343.652 413.944C342.372 413.944 341.364 413.224 340.868 412.04L339.524 412.76C340.132 413.912 341.38 415.224 343.604 415.224C345.62 415.224 347.06 414.2 347.06 412.632C347.06 411 345.668 410.568 343.892 410.312L343.236 410.216C342.388 410.088 341.62 410.008 341.62 409.24C341.62 408.568 342.276 408.184 343.156 408.184C344.084 408.184 345.028 408.616 345.892 409.736L347.012 408.936C345.78 407.56 344.724 406.936 343.124 406.936C341.524 406.936 340.132 407.768 340.132 409.256ZM348.413 409.256C348.413 410.744 349.581 411.32 351.341 411.576L351.997 411.672C352.845 411.8 353.853 411.864 353.853 412.68C353.853 413.448 353.053 413.944 351.933 413.944C350.653 413.944 349.645 413.224 349.149 412.04L347.805 412.76C348.413 413.912 349.661 415.224 351.885 415.224C353.901 415.224 355.341 414.2 355.341 412.632C355.341 411 353.949 410.568 352.173 410.312L351.517 410.216C350.669 410.088 349.901 410.008 349.901 409.24C349.901 408.568 350.557 408.184 351.437 408.184C352.365 408.184 353.309 408.616 354.173 409.736L355.293 408.936C354.061 407.56 353.005 406.936 351.405 406.936C349.805 406.936 348.413 407.768 348.413 409.256ZM356.547 404.76C356.547 405.432 357.091 405.944 357.763 405.944C358.435 405.944 358.979 405.432 358.979 404.76C358.979 404.088 358.435 403.576 357.763 403.576C357.091 403.576 356.547 404.088 356.547 404.76ZM358.515 407.16H357.011V415H358.515V407.16ZM360.249 411.08C360.249 413.512 361.977 415.224 364.281 415.224C366.585 415.224 368.313 413.512 368.313 411.08C368.313 408.648 366.585 406.936 364.281 406.936C361.977 406.936 360.249 408.648 360.249 411.08ZM361.753 411.08C361.753 409.352 362.777 408.312 364.281 408.312C365.785 408.312 366.809 409.352 366.809 411.08C366.809 412.808 365.785 413.848 364.281 413.848C362.777 413.848 361.753 412.808 361.753 411.08ZM370.042 407.16V415H371.546V410.904C371.546 409.272 372.458 408.344 373.914 408.344C375.194 408.344 375.93 409.048 375.93 410.408V415H377.434V410.28C377.434 408.12 376.026 407.032 374.378 407.032C372.826 407.032 372.106 407.752 371.738 408.488H371.514V407.16H370.042ZM383.858 411.08C383.858 413.512 385.586 415.224 387.89 415.224C390.194 415.224 391.922 413.512 391.922 411.08C391.922 408.648 390.194 406.936 387.89 406.936C385.586 406.936 383.858 408.648 383.858 411.08ZM385.362 411.08C385.362 409.352 386.386 408.312 387.89 408.312C389.394 408.312 390.418 409.352 390.418 411.08C390.418 412.808 389.394 413.848 387.89 413.848C386.386 413.848 385.362 412.808 385.362 411.08ZM392.677 407.16V408.472H394.853V415H396.357V408.472H398.597V407.16H396.357V405.56C396.357 405.24 396.485 405.112 396.773 405.112H398.181V403.8H396.197C395.397 403.8 394.853 404.344 394.853 405.176V407.16H392.677ZM406.825 403.8L403.689 408.696H405.449L407.529 405.288H407.721V415H409.321V403.8H406.825ZM411.269 413.976C411.269 414.68 411.829 415.224 412.517 415.224C413.205 415.224 413.765 414.68 413.765 413.976C413.765 413.272 413.205 412.728 412.517 412.728C411.829 412.728 411.269 413.272 411.269 413.976ZM415.683 403.8V409.816H418.115C418.323 409.432 418.803 408.888 419.795 408.888C421.027 408.888 421.891 409.72 421.891 411.16C421.891 412.728 420.979 413.752 419.411 413.752C417.747 413.752 416.835 412.728 416.835 411.192V411.032H415.235V411.224C415.235 413.688 416.947 415.224 419.411 415.224C421.843 415.224 423.491 413.496 423.491 411.16C423.491 408.936 422.019 407.448 420.099 407.448C418.627 407.448 417.923 408.056 417.459 408.824H417.267V405.272H423.139V403.8H415.683ZM425.375 411.656H432.543V410.28H425.375V411.656ZM434.595 407.384V407.832H436.195V407.48C436.195 405.912 437.107 405.048 438.707 405.048C439.955 405.048 440.931 405.8 440.931 407.128C440.931 408.712 439.779 409.304 437.923 409.912C435.891 410.584 434.595 411.464 434.595 413.56V415H442.371V413.528H436.227V413.368C436.227 412.088 437.027 411.72 438.595 411.192C440.755 410.472 442.531 409.608 442.531 407.192C442.531 405.016 440.915 403.576 438.707 403.576C436.259 403.576 434.595 405.064 434.595 407.384ZM443.972 413.976C443.972 414.68 444.532 415.224 445.22 415.224C445.908 415.224 446.468 414.68 446.468 413.976C446.468 413.272 445.908 412.728 445.22 412.728C444.532 412.728 443.972 413.272 443.972 413.976ZM448.386 403.8V409.816H450.818C451.026 409.432 451.506 408.888 452.498 408.888C453.73 408.888 454.594 409.72 454.594 411.16C454.594 412.728 453.682 413.752 452.114 413.752C450.45 413.752 449.538 412.728 449.538 411.192V411.032H447.938V411.224C447.938 413.688 449.65 415.224 452.114 415.224C454.546 415.224 456.194 413.496 456.194 411.16C456.194 408.936 454.722 407.448 452.802 407.448C451.33 407.448 450.626 408.056 450.162 408.824H449.97V405.272H455.842V403.8H448.386ZM462.715 403.8V415H464.315V410.12H469.179V415H470.779V403.8H469.179V408.648H464.315V403.8H462.715ZM474.498 407.16H473.058V415H474.562V410.424C474.562 409.24 475.17 408.6 476.29 408.6H477.666V407.128H476.77C475.634 407.128 474.994 407.608 474.722 408.44H474.498V407.16ZM478.757 409.256C478.757 410.744 479.925 411.32 481.685 411.576L482.341 411.672C483.189 411.8 484.197 411.864 484.197 412.68C484.197 413.448 483.397 413.944 482.277 413.944C480.997 413.944 479.989 413.224 479.493 412.04L478.149 412.76C478.757 413.912 480.005 415.224 482.229 415.224C484.245 415.224 485.685 414.2 485.685 412.632C485.685 411 484.293 410.568 482.517 410.312L481.861 410.216C481.013 410.088 480.245 410.008 480.245 409.24C480.245 408.568 480.901 408.184 481.781 408.184C482.709 408.184 483.653 408.616 484.517 409.736L485.637 408.936C484.405 407.56 483.349 406.936 481.749 406.936C480.149 406.936 478.757 407.768 478.757 409.256Z" fill="#434343"/>
<path d="M385.48 319.16L387.224 327H389.464L390.92 320.728H391.144L392.568 327H394.84L396.584 319.16H395.016L393.784 325.432H393.56L392.136 319.16H389.928L388.504 325.432H388.28L387.048 319.16H385.48ZM397.719 316.76C397.719 317.432 398.263 317.944 398.935 317.944C399.607 317.944 400.151 317.432 400.151 316.76C400.151 316.088 399.607 315.576 398.935 315.576C398.263 315.576 397.719 316.088 397.719 316.76ZM399.687 319.16H398.183V327H399.687V319.16ZM401.037 319.16V320.472H403.213V325.656C403.213 326.456 403.757 327 404.525 327H406.573V325.688H405.133C404.845 325.688 404.717 325.56 404.717 325.24V320.472H407.021V319.16H404.717V316.44H403.213V319.16H401.037ZM408.589 315.8V327H410.093V322.904C410.093 321.272 411.005 320.344 412.461 320.344C413.741 320.344 414.477 321.048 414.477 322.408V327H415.981V322.28C415.981 320.12 414.573 319.032 412.925 319.032C411.373 319.032 410.653 319.752 410.285 320.488H410.093V315.8H408.589ZM422.949 315.8V327H424.549V317.496H424.741L427.573 327H429.973L432.805 317.496H432.997V327H434.597V315.8H431.717L428.869 325.336H428.677L425.829 315.8H422.949ZM436.358 323.016C436.358 325.384 438.022 327.224 440.454 327.224C442.326 327.224 443.334 326.184 443.926 325.224L442.662 324.504C442.246 325.336 441.574 325.912 440.422 325.912C439.014 325.912 438.022 325.032 437.926 323.624H444.102V322.872C444.102 320.6 442.566 318.904 440.262 318.904C437.99 318.904 436.358 320.712 436.358 323.016ZM437.926 322.408C438.038 321.016 438.886 320.216 440.262 320.216C441.638 320.216 442.502 321.064 442.534 322.408H437.926ZM445.761 319.16V327H447.265V322.904C447.265 321.272 448.177 320.344 449.633 320.344C450.913 320.344 451.649 321.048 451.649 322.408V327H453.153V322.28C453.153 320.12 451.745 319.032 450.097 319.032C448.545 319.032 447.825 319.752 447.457 320.488H447.233V319.16H445.761ZM454.24 319.16V320.472H456.416V325.656C456.416 326.456 456.96 327 457.728 327H459.776V325.688H458.336C458.048 325.688 457.92 325.56 457.92 325.24V320.472H460.224V319.16H457.92V316.44H456.416V319.16H454.24ZM461.202 323.08C461.202 325.512 462.93 327.224 465.234 327.224C467.538 327.224 469.266 325.512 469.266 323.08C469.266 320.648 467.538 318.936 465.234 318.936C462.93 318.936 461.202 320.648 461.202 323.08ZM462.706 323.08C462.706 321.352 463.73 320.312 465.234 320.312C466.738 320.312 467.762 321.352 467.762 323.08C467.762 324.808 466.738 325.848 465.234 325.848C463.73 325.848 462.706 324.808 462.706 323.08ZM472.435 319.16H470.995V327H472.499V322.424C472.499 321.24 473.107 320.6 474.227 320.6H475.603V319.128H474.707C473.571 319.128 472.931 319.608 472.659 320.44H472.435V319.16Z" fill="#434343"/>
<path d="M257.48 319.16L259.224 327H261.464L262.92 320.728H263.144L264.568 327H266.84L268.584 319.16H267.016L265.784 325.432H265.56L264.136 319.16H261.928L260.504 325.432H260.28L259.048 319.16H257.48ZM269.719 316.76C269.719 317.432 270.263 317.944 270.935 317.944C271.607 317.944 272.151 317.432 272.151 316.76C272.151 316.088 271.607 315.576 270.935 315.576C270.263 315.576 269.719 316.088 269.719 316.76ZM271.687 319.16H270.183V327H271.687V319.16ZM273.037 319.16V320.472H275.213V325.656C275.213 326.456 275.757 327 276.525 327H278.573V325.688H277.133C276.845 325.688 276.717 325.56 276.717 325.24V320.472H279.021V319.16H276.717V316.44H275.213V319.16H273.037ZM280.589 315.8V327H282.093V322.904C282.093 321.272 283.005 320.344 284.461 320.344C285.741 320.344 286.477 321.048 286.477 322.408V327H287.981V322.28C287.981 320.12 286.573 319.032 284.925 319.032C283.373 319.032 282.653 319.752 282.285 320.488H282.093V315.8H280.589ZM294.949 315.8V327H296.549V317.496H296.741L299.573 327H301.973L304.805 317.496H304.997V327H306.597V315.8H303.717L300.869 325.336H300.677L297.829 315.8H294.949ZM308.358 323.016C308.358 325.384 310.022 327.224 312.454 327.224C314.326 327.224 315.334 326.184 315.926 325.224L314.662 324.504C314.246 325.336 313.574 325.912 312.422 325.912C311.014 325.912 310.022 325.032 309.926 323.624H316.102V322.872C316.102 320.6 314.566 318.904 312.262 318.904C309.99 318.904 308.358 320.712 308.358 323.016ZM309.926 322.408C310.038 321.016 310.886 320.216 312.262 320.216C313.638 320.216 314.502 321.064 314.534 322.408H309.926ZM317.761 319.16V327H319.265V322.904C319.265 321.272 320.177 320.344 321.633 320.344C322.913 320.344 323.649 321.048 323.649 322.408V327H325.153V322.28C325.153 320.12 323.745 319.032 322.097 319.032C320.545 319.032 319.825 319.752 319.457 320.488H319.233V319.16H317.761ZM326.24 319.16V320.472H328.416V325.656C328.416 326.456 328.96 327 329.728 327H331.776V325.688H330.336C330.048 325.688 329.92 325.56 329.92 325.24V320.472H332.224V319.16H329.92V316.44H328.416V319.16H326.24ZM333.202 323.08C333.202 325.512 334.93 327.224 337.234 327.224C339.538 327.224 341.266 325.512 341.266 323.08C341.266 320.648 339.538 318.936 337.234 318.936C334.93 318.936 333.202 320.648 333.202 323.08ZM334.706 323.08C334.706 321.352 335.73 320.312 337.234 320.312C338.738 320.312 339.762 321.352 339.762 323.08C339.762 324.808 338.738 325.848 337.234 325.848C335.73 325.848 334.706 324.808 334.706 323.08ZM344.435 319.16H342.995V327H344.499V322.424C344.499 321.24 345.107 320.6 346.227 320.6H347.603V319.128H346.707C345.571 319.128 344.931 319.608 344.659 320.44H344.435V319.16Z" fill="#434343"/>
<rect x="64" y="245" width="183" height="32" fill="#324BD9"/>
<path d="M64 285V301H247V285" stroke="#434343" stroke-dasharray="3 4"/>
<path d="M64 373V389H503V373" stroke="#434343" stroke-dasharray="3 4"/>
<path d="M257 285V301H375V285" stroke="#434343" stroke-dasharray="3 4"/>
<path d="M385 285V301H503V285" stroke="#434343" stroke-dasharray="3 4"/>
<rect x="257" y="245" width="118" height="32" fill="#586FF1"/>
<path d="M305.237 255.576C302.517 255.576 300.885 257.272 300.885 260.152V262.648C300.885 265.24 302.197 266.872 304.437 267.176V268.456C304.437 269.256 304.981 269.8 305.749 269.8H307.333V268.392H306.485C306.197 268.392 306.037 268.232 306.037 267.912V267.176C308.277 266.872 309.589 265.24 309.589 262.648V260.152C309.589 257.272 307.893 255.576 305.237 255.576ZM307.989 262.68C307.989 264.664 307.093 265.752 305.237 265.752C303.381 265.752 302.485 264.664 302.485 262.68V260.12C302.485 258.136 303.381 257.048 305.237 257.048C307.093 257.048 307.989 258.136 307.989 260.12V262.68ZM318.768 267V259.16H317.264V263.256C317.264 264.888 316.352 265.816 314.896 265.816C313.616 265.816 312.88 265.112 312.88 263.752V259.16H311.376V263.88C311.376 266.04 312.784 267.128 314.432 267.128C315.984 267.128 316.704 266.408 317.072 265.672H317.296V267H318.768ZM320.539 256.76C320.539 257.432 321.083 257.944 321.755 257.944C322.427 257.944 322.971 257.432 322.971 256.76C322.971 256.088 322.427 255.576 321.755 255.576C321.083 255.576 320.539 256.088 320.539 256.76ZM322.507 259.16H321.003V267H322.507V259.16ZM324.561 259.16V260.44H329.153L324.401 265.816V267H331.217V265.72H326.337L331.089 260.344V259.16H324.561Z" fill="white"/>
<path d="M92.3942 255.8V267H99.4982V265.528H93.9942V255.8H92.3942ZM100.428 263.016C100.428 265.384 102.092 267.224 104.524 267.224C106.396 267.224 107.404 266.184 107.996 265.224L106.732 264.504C106.316 265.336 105.644 265.912 104.492 265.912C103.084 265.912 102.092 265.032 101.996 263.624H108.172V262.872C108.172 260.6 106.636 258.904 104.332 258.904C102.06 258.904 100.428 260.712 100.428 263.016ZM101.996 262.408C102.108 261.016 102.956 260.216 104.332 260.216C105.708 260.216 106.572 261.064 106.604 262.408H101.996ZM109.319 263.08C109.319 265.48 111.047 267.224 113.415 267.224C115.735 267.224 116.871 265.672 117.223 264.184L115.735 263.896C115.527 264.904 114.919 265.848 113.415 265.848C111.879 265.848 110.823 264.744 110.823 263.08C110.823 261.416 111.879 260.312 113.383 260.312C114.775 260.312 115.591 261.176 115.719 262.28L117.191 261.976C116.871 260.232 115.495 258.936 113.383 258.936C111.047 258.936 109.319 260.68 109.319 263.08ZM117.919 259.16V260.472H120.095V265.656C120.095 266.456 120.639 267 121.407 267H123.455V265.688H122.015C121.727 265.688 121.599 265.56 121.599 265.24V260.472H123.903V259.16H121.599V256.44H120.095V259.16H117.919ZM132.768 267V259.16H131.264V263.256C131.264 264.888 130.352 265.816 128.896 265.816C127.616 265.816 126.88 265.112 126.88 263.752V259.16H125.376V263.88C125.376 266.04 126.784 267.128 128.432 267.128C129.984 267.128 130.704 266.408 131.072 265.672H131.296V267H132.768ZM136.443 259.16H135.003V267H136.507V262.424C136.507 261.24 137.115 260.6 138.235 260.6H139.611V259.128H138.715C137.579 259.128 136.939 259.608 136.667 260.44H136.443V259.16ZM140.1 263.016C140.1 265.384 141.764 267.224 144.196 267.224C146.068 267.224 147.076 266.184 147.668 265.224L146.404 264.504C145.988 265.336 145.316 265.912 144.164 265.912C142.756 265.912 141.764 265.032 141.668 263.624H147.844V262.872C147.844 260.6 146.308 258.904 144.004 258.904C141.732 258.904 140.1 260.712 140.1 263.016ZM141.668 262.408C141.78 261.016 142.628 260.216 144.004 260.216C145.38 260.216 146.244 261.064 146.276 262.408H141.668ZM157.948 255.576C155.868 255.576 154.204 256.776 154.204 258.68C154.204 260.76 155.66 261.512 157.66 261.944L158.396 262.104C159.82 262.408 160.54 262.84 160.54 263.912C160.54 264.984 159.644 265.784 158.156 265.784C156.316 265.784 155.292 264.808 155.292 263.032V262.648H153.692V263.16C153.692 265.624 155.404 267.224 158.14 267.224C160.444 267.224 162.14 265.928 162.14 263.864C162.14 261.944 160.876 261.048 158.796 260.6L158.06 260.44C156.476 260.088 155.804 259.688 155.804 258.664C155.804 257.672 156.7 257.016 157.948 257.016C159.42 257.016 160.444 257.784 160.444 259.224V259.608H162.044V259.096C162.044 256.808 160.268 255.576 157.948 255.576ZM163.444 263.016C163.444 265.384 165.108 267.224 167.54 267.224C169.412 267.224 170.42 266.184 171.012 265.224L169.748 264.504C169.332 265.336 168.66 265.912 167.508 265.912C166.1 265.912 165.108 265.032 165.012 263.624H171.188V262.872C171.188 260.6 169.652 258.904 167.348 258.904C165.076 258.904 163.444 260.712 163.444 263.016ZM165.012 262.408C165.124 261.016 165.972 260.216 167.348 260.216C168.724 260.216 169.588 261.064 169.62 262.408H165.012ZM178.927 259.16V260.392H178.703C178.271 259.672 177.551 258.936 176.015 258.936C173.951 258.936 172.335 260.6 172.335 262.984C172.335 265.368 173.951 267.032 176.015 267.032C177.551 267.032 178.271 266.296 178.703 265.576H178.895V266.68C178.895 268.312 177.887 269.08 176.447 269.08C175.071 269.08 174.255 268.312 173.807 267.464L172.463 268.248C173.231 269.384 174.431 270.424 176.543 270.424C178.895 270.424 180.399 268.872 180.399 266.76V259.16H178.927ZM176.399 265.688C174.895 265.688 173.839 264.728 173.839 262.984C173.839 261.24 174.895 260.28 176.399 260.28C177.935 260.28 178.895 261.304 178.895 262.984C178.895 264.664 177.935 265.688 176.399 265.688ZM182.643 259.16V267H184.147V262.104C184.147 260.92 184.931 260.312 185.939 260.312C186.851 260.312 187.475 260.824 187.475 261.736V267H188.979V262.104C188.979 260.92 189.715 260.312 190.691 260.312C191.619 260.312 192.307 260.824 192.307 261.736V267H193.811V261.64C193.811 260.024 192.547 259.032 191.155 259.032C189.875 259.032 189.203 259.688 188.883 260.344H188.659C188.275 259.624 187.619 259.032 186.483 259.032C185.443 259.032 184.739 259.512 184.339 260.184H184.115V259.16H182.643ZM195.444 263.016C195.444 265.384 197.108 267.224 199.54 267.224C201.412 267.224 202.42 266.184 203.012 265.224L201.748 264.504C201.332 265.336 200.66 265.912 199.508 265.912C198.1 265.912 197.108 265.032 197.012 263.624H203.188V262.872C203.188 260.6 201.652 258.904 199.348 258.904C197.076 258.904 195.444 260.712 195.444 263.016ZM197.012 262.408C197.124 261.016 197.972 260.216 199.348 260.216C200.724 260.216 201.588 261.064 201.62 262.408H197.012ZM204.847 259.16V267H206.351V262.904C206.351 261.272 207.263 260.344 208.719 260.344C209.999 260.344 210.735 261.048 210.735 262.408V267H212.239V262.28C212.239 260.12 210.831 259.032 209.183 259.032C207.631 259.032 206.911 259.752 206.543 260.488H206.319V259.16H204.847ZM213.326 259.16V260.472H215.502V265.656C215.502 266.456 216.046 267 216.814 267H218.862V265.688H217.422C217.134 265.688 217.006 265.56 217.006 265.24V260.472H219.31V259.16H217.006V256.44H215.502V259.16H213.326Z" fill="white"/>
<rect x="385" y="245" width="118" height="32" fill="#A2C7FA"/>
<path d="M400.62 255.8V267H407.724V265.528H402.22V255.8H400.62ZM408.91 261.224L410.206 261.816C410.574 260.904 411.326 260.28 412.606 260.28C413.886 260.28 414.638 260.92 414.638 261.992V262.2L411.742 262.472C409.726 262.664 408.75 263.432 408.75 264.856C408.75 266.264 409.886 267.224 411.646 267.224C413.262 267.224 414.078 266.472 414.414 265.768H414.638V267H416.11V262.056C416.11 260.168 414.75 258.936 412.638 258.936C410.718 258.936 409.47 260.008 408.91 261.224ZM410.27 264.792C410.27 263.992 410.99 263.72 411.902 263.64L414.638 263.384V263.512C414.638 264.872 413.742 265.976 411.902 265.976C410.862 265.976 410.27 265.528 410.27 264.792ZM418.26 255.8V267H419.732V265.768H419.956C420.388 266.488 421.108 267.224 422.644 267.224C424.708 267.224 426.324 265.512 426.324 263.08C426.324 260.648 424.708 258.936 422.644 258.936C421.108 258.936 420.388 259.672 419.956 260.392H419.764V255.8H418.26ZM422.26 260.28C423.764 260.28 424.82 261.288 424.82 263.08C424.82 264.872 423.764 265.88 422.26 265.88C420.724 265.88 419.764 264.808 419.764 263.08C419.764 261.352 420.724 260.28 422.26 260.28ZM436.502 255.576C434.422 255.576 432.758 256.776 432.758 258.68C432.758 260.76 434.214 261.512 436.214 261.944L436.95 262.104C438.374 262.408 439.094 262.84 439.094 263.912C439.094 264.984 438.198 265.784 436.71 265.784C434.87 265.784 433.846 264.808 433.846 263.032V262.648H432.246V263.16C432.246 265.624 433.958 267.224 436.694 267.224C438.998 267.224 440.694 265.928 440.694 263.864C440.694 261.944 439.43 261.048 437.35 260.6L436.614 260.44C435.03 260.088 434.358 259.688 434.358 258.664C434.358 257.672 435.254 257.016 436.502 257.016C437.974 257.016 438.998 257.784 438.998 259.224V259.608H440.598V259.096C440.598 256.808 438.822 255.576 436.502 255.576ZM441.998 263.016C441.998 265.384 443.662 267.224 446.094 267.224C447.966 267.224 448.974 266.184 449.566 265.224L448.302 264.504C447.886 265.336 447.214 265.912 446.062 265.912C444.654 265.912 443.662 265.032 443.566 263.624H449.742V262.872C449.742 260.6 448.206 258.904 445.902 258.904C443.63 258.904 441.998 260.712 441.998 263.016ZM443.566 262.408C443.678 261.016 444.526 260.216 445.902 260.216C447.278 260.216 448.142 261.064 448.174 262.408H443.566ZM451.178 261.256C451.178 262.744 452.346 263.32 454.106 263.576L454.762 263.672C455.61 263.8 456.618 263.864 456.618 264.68C456.618 265.448 455.818 265.944 454.698 265.944C453.418 265.944 452.41 265.224 451.914 264.04L450.57 264.76C451.178 265.912 452.426 267.224 454.65 267.224C456.666 267.224 458.106 266.2 458.106 264.632C458.106 263 456.714 262.568 454.938 262.312L454.282 262.216C453.434 262.088 452.666 262.008 452.666 261.24C452.666 260.568 453.322 260.184 454.202 260.184C455.13 260.184 456.074 260.616 456.938 261.736L458.058 260.936C456.826 259.56 455.77 258.936 454.17 258.936C452.57 258.936 451.178 259.768 451.178 261.256ZM459.459 261.256C459.459 262.744 460.627 263.32 462.387 263.576L463.043 263.672C463.891 263.8 464.899 263.864 464.899 264.68C464.899 265.448 464.099 265.944 462.979 265.944C461.699 265.944 460.691 265.224 460.195 264.04L458.851 264.76C459.459 265.912 460.707 267.224 462.931 267.224C464.947 267.224 466.387 266.2 466.387 264.632C466.387 263 464.995 262.568 463.219 262.312L462.563 262.216C461.715 262.088 460.947 262.008 460.947 261.24C460.947 260.568 461.603 260.184 462.483 260.184C463.411 260.184 464.355 260.616 465.219 261.736L466.339 260.936C465.107 259.56 464.051 258.936 462.451 258.936C460.851 258.936 459.459 259.768 459.459 261.256ZM467.593 256.76C467.593 257.432 468.137 257.944 468.809 257.944C469.481 257.944 470.025 257.432 470.025 256.76C470.025 256.088 469.481 255.576 468.809 255.576C468.137 255.576 467.593 256.088 467.593 256.76ZM469.561 259.16H468.057V267H469.561V259.16ZM471.295 263.08C471.295 265.512 473.023 267.224 475.327 267.224C477.631 267.224 479.359 265.512 479.359 263.08C479.359 260.648 477.631 258.936 475.327 258.936C473.023 258.936 471.295 260.648 471.295 263.08ZM472.799 263.08C472.799 261.352 473.823 260.312 475.327 260.312C476.831 260.312 477.855 261.352 477.855 263.08C477.855 264.808 476.831 265.848 475.327 265.848C473.823 265.848 472.799 264.808 472.799 263.08ZM481.088 259.16V267H482.592V262.904C482.592 261.272 483.504 260.344 484.96 260.344C486.24 260.344 486.976 261.048 486.976 262.408V267H488.48V262.28C488.48 260.12 487.072 259.032 485.424 259.032C483.872 259.032 483.152 259.752 482.784 260.488H482.56V259.16H481.088Z" fill="white"/>
<path d="M7.72 395.04C7.72 397.64 9.22 399.72 11.6 399.72C14.2 399.72 15.14 397.9 15.68 395.4L15.88 394.48C16.26 392.7 16.8 391.8 18.14 391.8C19.48 391.8 20.48 392.92 20.48 394.78C20.48 397.08 19.26 398.36 17.04 398.36L16.56 398.36L16.56 400.36L17.2 400.36C20.28 400.36 22.28 398.22 22.28 394.8C22.28 391.92 20.66 389.8 18.08 389.8C15.68 389.8 14.56 391.38 14 393.98L13.8 394.9C13.36 396.88 12.86 397.72 11.58 397.72C10.34 397.72 9.52 396.6 9.52 395.04C9.52 393.2 10.48 391.92 12.28 391.92L12.76 391.92L12.76 389.92L12.12 389.92C9.26 389.92 7.72 392.14 7.72 395.04ZM17.02 388.17C19.98 388.17 22.28 386.09 22.28 383.05C22.28 380.71 20.98 379.45 19.78 378.71L18.88 380.29C19.92 380.81 20.64 381.65 20.64 383.09C20.64 384.85 19.54 386.09 17.78 386.21L17.78 378.49L16.84 378.49C14 378.49 11.88 380.41 11.88 383.29C11.88 386.13 14.14 388.17 17.02 388.17ZM16.26 386.21C14.52 386.07 13.52 385.01 13.52 383.29C13.52 381.57 14.58 380.49 16.26 380.45L16.26 386.21ZM14.82 376.695C16.68 376.695 17.4 375.235 17.72 373.035L17.84 372.215C18 371.155 18.08 369.895 19.1 369.895C20.06 369.895 20.68 370.895 20.68 372.295C20.68 373.895 19.78 375.155 18.3 375.775L19.2 377.455C20.64 376.695 22.28 375.135 22.28 372.355C22.28 369.835 21 368.035 19.04 368.035C17 368.035 16.46 369.775 16.14 371.995L16.02 372.815C15.86 373.875 15.76 374.835 14.8 374.835C13.96 374.835 13.48 374.015 13.48 372.915C13.48 371.755 14.02 370.575 15.42 369.495L14.42 368.095C12.7 369.635 11.92 370.955 11.92 372.955C11.92 374.955 12.96 376.695 14.82 376.695ZM14.82 366.343C16.68 366.343 17.4 364.883 17.72 362.683L17.84 361.863C18 360.803 18.08 359.543 19.1 359.543C20.06 359.543 20.68 360.543 20.68 361.943C20.68 363.543 19.78 364.803 18.3 365.423L19.2 367.103C20.64 366.343 22.28 364.783 22.28 362.003C22.28 359.483 21 357.683 19.04 357.683C17 357.683 16.46 359.423 16.14 361.643L16.02 362.463C15.86 363.523 15.76 364.483 14.8 364.483C13.96 364.483 13.48 363.663 13.48 362.563C13.48 361.403 14.02 360.223 15.42 359.143L14.42 357.743C12.7 359.283 11.92 360.603 11.92 362.603C11.92 364.603 12.96 366.343 14.82 366.343ZM9.2 356.176C10.04 356.176 10.68 355.496 10.68 354.656C10.68 353.816 10.04 353.136 9.2 353.136C8.36 353.136 7.72 353.816 7.72 354.656C7.72 355.496 8.36 356.176 9.2 356.176ZM12.2 353.716L12.2 355.596L22 355.596L22 353.716L12.2 353.716ZM17.1 351.549C20.14 351.549 22.28 349.389 22.28 346.509C22.28 343.629 20.14 341.469 17.1 341.469C14.06 341.469 11.92 343.629 11.92 346.509C11.92 349.389 14.06 351.549 17.1 351.549ZM17.1 349.669C14.94 349.669 13.64 348.389 13.64 346.509C13.64 344.629 14.94 343.349 17.1 343.349C19.26 343.349 20.56 344.629 20.56 346.509C20.56 348.389 19.26 349.669 17.1 349.669ZM12.2 339.307L22 339.307L22 337.427L16.88 337.427C14.84 337.427 13.68 336.287 13.68 334.467C13.68 332.867 14.56 331.947 16.26 331.947L22 331.947L22 330.067L16.1 330.067C13.4 330.067 12.04 331.827 12.04 333.887C12.04 335.827 12.94 336.727 13.86 337.187L13.86 337.467L12.2 337.467L12.2 339.307ZM8 321.357L22 321.357L22 315.537C22 313.137 20.58 311.397 18.22 311.397C16.58 311.397 15.48 312.417 15.1 313.757L14.86 313.757C14.5 312.357 13.4 311.437 11.76 311.437C9.36 311.437 8 313.157 8 315.577L8 321.357ZM9.84 319.357L9.84 315.757C9.84 314.337 10.64 313.357 11.92 313.357C13.26 313.357 14.06 314.277 14.06 315.717L14.06 319.357L9.84 319.357ZM15.9 319.357L15.9 315.677C15.9 314.237 16.72 313.317 18.06 313.317C19.36 313.317 20.16 314.297 20.16 315.717L20.16 319.357L15.9 319.357ZM12.2 307.312L12.2 309.112L22 309.112L22 307.232L16.28 307.232C14.8 307.232 14 306.472 14 305.072L14 303.352L12.16 303.352L12.16 304.472C12.16 305.892 12.76 306.692 13.8 307.032L13.8 307.312L12.2 307.312ZM17.02 302.74C19.98 302.74 22.28 300.66 22.28 297.62C22.28 295.28 20.98 294.02 19.78 293.28L18.88 294.86C19.92 295.38 20.64 296.22 20.64 297.66C20.64 299.42 19.54 300.66 17.78 300.78L17.78 293.06L16.84 293.06C14 293.06 11.88 294.98 11.88 297.86C11.88 300.7 14.14 302.74 17.02 302.74ZM16.26 300.78C14.52 300.64 13.52 299.58 13.52 297.86C13.52 296.14 14.58 295.06 16.26 295.02L16.26 300.78ZM14.78 291.385L15.52 289.765C14.38 289.305 13.6 288.365 13.6 286.765C13.6 285.165 14.4 284.225 15.74 284.225L16 284.225L16.34 287.845C16.58 290.365 17.54 291.585 19.32 291.585C21.08 291.585 22.28 290.165 22.28 287.965C22.28 285.945 21.34 284.925 20.46 284.505L20.46 284.225L22 284.225L22 282.385L15.82 282.385C13.46 282.385 11.92 284.085 11.92 286.725C11.92 289.125 13.26 290.685 14.78 291.385ZM19.24 289.685C18.24 289.685 17.9 288.785 17.8 287.645L17.48 284.225L17.64 284.225C19.34 284.225 20.72 285.345 20.72 287.645C20.72 288.945 20.16 289.685 19.24 289.685ZM12.2 269.938L12.2 272.698L16.34 277.578L16.34 277.818L8 277.818L8 279.698L22 279.698L22 277.818L18.82 277.818L17.14 275.798L22 272.278L22 270.018L15.98 274.438L12.2 269.938ZM22 259.132L12.2 259.132L12.2 261.012L17.32 261.012C19.36 261.012 20.52 262.152 20.52 263.972C20.52 265.572 19.64 266.492 17.94 266.492L12.2 266.492L12.2 268.372L18.1 268.372C20.8 268.372 22.16 266.612 22.16 264.552C22.16 262.612 21.26 261.712 20.34 261.252L20.34 260.972L22 260.972L22 259.132ZM26 256.338L26 254.458L20.46 254.458L20.46 254.218C21.36 253.678 22.28 252.778 22.28 250.858C22.28 248.278 20.14 246.258 17.1 246.258C14.06 246.258 11.92 248.278 11.92 250.858C11.92 252.778 12.84 253.678 13.74 254.218L13.74 254.498L12.2 254.498L12.2 256.338L26 256.338ZM20.6 251.338C20.6 253.258 19.26 254.458 17.1 254.458C14.94 254.458 13.6 253.258 13.6 251.338C13.6 249.458 14.86 248.138 17.1 248.138C19.34 248.138 20.6 249.458 20.6 251.338Z" fill="#434343"/>
</svg>
