<svg width="360" height="404" viewBox="0 0 360 404" fill="none" xmlns="http://www.w3.org/2000/svg">
<g clip-path="url(#clip0_5460_5154)">
<rect width="360" height="404" fill="white"/>
<rect width="79.4847" height="35" transform="translate(95.4849 78) rotate(180)" fill="#DCE0FA"/>
<path d="M46.7107 55.2L43.8267 65L45.4927 65L46.1507 62.718L49.7907 62.718L50.4487 65L52.1007 65L49.2167 55.2L46.7107 55.2ZM46.5427 61.248L47.9007 56.558L48.0407 56.558L49.3847 61.248L46.5427 61.248ZM53.6202 55.2L53.6202 65L55.2442 65L55.2442 55.2L53.6202 55.2ZM63.8317 55.2L61.2417 59.568L62.9637 59.568L64.5177 56.922L64.6857 56.922L64.6857 65L66.3097 65L66.3097 55.2L63.8317 55.2Z" fill="#1E2029"/>
<rect width="248.515" height="35" transform="translate(95.4849 43)" fill="#E3C668"/>
<path d="M106.029 54.6L103.557 63H104.985L105.549 61.044H108.669L109.233 63H110.649L108.177 54.6H106.029ZM105.885 59.784L107.049 55.764H107.169L108.321 59.784H105.885ZM111.591 54.6V63H112.983V54.6H111.591ZM118.136 54.6V63H121.856C123.296 63 124.34 62.148 124.34 60.732C124.34 59.508 123.524 58.992 122.912 58.824V58.704C123.524 58.524 124.304 58.032 124.304 56.82C124.304 55.452 123.284 54.6 121.832 54.6H118.136ZM119.528 55.86H121.688C122.456 55.86 122.972 56.304 122.972 57C122.972 57.696 122.468 58.152 121.688 58.152H119.528V55.86ZM119.528 59.4H121.688C122.516 59.4 123.008 59.844 123.008 60.576C123.008 61.284 122.516 61.74 121.712 61.74H119.528V59.4ZM125.531 58.62L126.755 59.028C126.875 58.416 127.295 57.972 128.123 57.972C128.951 57.972 129.347 58.44 129.347 59.076V59.436H127.595C126.275 59.436 125.327 60.06 125.327 61.284C125.327 62.484 126.275 63.168 127.499 63.168C128.627 63.168 129.047 62.58 129.215 62.256H129.371V63H130.631V59.172C130.631 57.72 129.671 56.904 128.135 56.904C126.611 56.904 125.819 57.696 125.531 58.62ZM126.647 61.248C126.647 60.756 127.043 60.456 127.679 60.456H129.347V60.564C129.347 61.5 128.687 62.088 127.751 62.088C127.043 62.088 126.647 61.752 126.647 61.248ZM132.049 58.704C132.049 59.832 132.985 60.276 134.185 60.492L134.593 60.564C135.373 60.708 135.769 60.9 135.769 61.356C135.769 61.812 135.349 62.148 134.593 62.148C133.825 62.148 133.201 61.836 133.033 60.864L131.809 61.164C132.013 62.484 133.069 63.168 134.593 63.168C136.081 63.168 137.041 62.472 137.041 61.26C137.041 60.048 136.069 59.7 134.773 59.46L134.365 59.388C133.717 59.268 133.321 59.076 133.321 58.62C133.321 58.188 133.705 57.924 134.353 57.924C135.001 57.924 135.469 58.2 135.613 58.92L136.813 58.56C136.549 57.564 135.685 56.916 134.353 56.916C132.961 56.916 132.049 57.564 132.049 58.704ZM137.965 55.32C137.965 55.872 138.385 56.256 138.937 56.256C139.489 56.256 139.909 55.872 139.909 55.32C139.909 54.756 139.489 54.372 138.937 54.372C138.385 54.372 137.965 54.756 137.965 55.32ZM139.597 57.084H138.289V63H139.597V57.084ZM140.837 60.036C140.837 61.872 142.193 63.168 143.921 63.168C145.553 63.168 146.525 62.196 146.837 60.9L145.553 60.6C145.421 61.428 144.917 62.016 143.933 62.016C142.925 62.016 142.157 61.26 142.157 60.036C142.157 58.824 142.925 58.068 143.933 58.068C144.893 58.068 145.421 58.668 145.517 59.46L146.789 59.196C146.549 57.888 145.541 56.916 143.909 56.916C142.193 56.916 140.837 58.2 140.837 60.036ZM147.889 58.704C147.889 59.832 148.825 60.276 150.025 60.492L150.433 60.564C151.213 60.708 151.609 60.9 151.609 61.356C151.609 61.812 151.189 62.148 150.433 62.148C149.665 62.148 149.041 61.836 148.873 60.864L147.649 61.164C147.853 62.484 148.909 63.168 150.433 63.168C151.921 63.168 152.881 62.472 152.881 61.26C152.881 60.048 151.909 59.7 150.613 59.46L150.205 59.388C149.557 59.268 149.161 59.076 149.161 58.62C149.161 58.188 149.545 57.924 150.193 57.924C150.841 57.924 151.309 58.2 151.453 58.92L152.653 58.56C152.389 57.564 151.525 56.916 150.193 56.916C148.801 56.916 147.889 57.564 147.889 58.704Z" fill="#1E2029"/>
<rect width="79" height="35" transform="translate(95 119) rotate(180)" fill="#DCE0FA"/>
<path d="M41.882 96.2L41.882 106H45.102C47.72 106 49.134 104.67 49.134 102.01V100.19C49.134 97.53 47.72 96.2 45.102 96.2H41.882ZM43.506 97.67H45.116C46.74 97.67 47.524 98.51 47.524 100.134V102.066C47.524 103.69 46.754 104.53 45.116 104.53H43.506V97.67ZM54.33 96.004C52.272 96.004 50.928 97.054 50.928 98.804C50.928 100.54 52.076 101.226 54.022 101.66L54.484 101.758C55.758 102.052 56.486 102.374 56.486 103.27C56.486 104.152 55.772 104.768 54.428 104.768C53.07 104.768 52.216 104.124 52.216 102.78V102.654H50.62V102.78C50.62 104.978 52.202 106.196 54.428 106.196C56.654 106.196 58.082 104.992 58.082 103.228C58.082 101.464 56.766 100.75 54.806 100.33L54.344 100.218C53.112 99.938 52.524 99.588 52.524 98.748C52.524 97.922 53.154 97.432 54.33 97.432C55.534 97.432 56.318 97.922 56.318 99.14V99.448H57.914V99.14C57.914 97.054 56.388 96.004 54.33 96.004ZM66.216 96.2L63.626 100.568H65.348L66.902 97.922H67.07V106H68.694V96.2L66.216 96.2Z" fill="#1E2029"/>
<rect width="249" height="35" transform="translate(95 84)" fill="#E3C668"/>
<path d="M103.816 95.6V104H106.456C108.676 104 109.924 102.884 109.924 100.58V99.02C109.924 96.716 108.676 95.6 106.456 95.6H103.816ZM105.004 96.668H106.468C107.968 96.668 108.736 97.424 108.736 98.984V100.616C108.736 102.164 107.992 102.932 106.468 102.932H105.004V96.668ZM111.233 99.692L112.289 100.028C112.433 99.356 112.913 98.864 113.801 98.864C114.701 98.864 115.145 99.368 115.145 100.1V100.484H113.273C111.989 100.484 111.041 101.096 111.041 102.308C111.041 103.496 111.989 104.168 113.213 104.168C114.353 104.168 114.809 103.604 115.025 103.208H115.169V104H116.249V100.172C116.249 98.756 115.325 97.94 113.813 97.94C112.313 97.94 111.521 98.732 111.233 99.692ZM112.169 102.284C112.169 101.708 112.637 101.396 113.333 101.396H115.145V101.516C115.145 102.584 114.437 103.244 113.405 103.244C112.637 103.244 112.169 102.86 112.169 102.284ZM117.082 99.032H118.786V102.896C118.786 103.568 119.218 104 119.878 104H121.51V103.076H120.25C120.034 103.076 119.914 102.956 119.914 102.716V99.032H121.738V98.108H119.914V96.092H118.786V98.108H117.082V99.032ZM122.911 99.692L123.967 100.028C124.111 99.356 124.591 98.864 125.479 98.864C126.379 98.864 126.823 99.368 126.823 100.1V100.484H124.951C123.667 100.484 122.719 101.096 122.719 102.308C122.719 103.496 123.667 104.168 124.891 104.168C126.031 104.168 126.487 103.604 126.703 103.208H126.847V104H127.927V100.172C127.927 98.756 127.003 97.94 125.491 97.94C123.991 97.94 123.199 98.732 122.911 99.692ZM123.847 102.284C123.847 101.708 124.315 101.396 125.011 101.396H126.823V101.516C126.823 102.584 126.115 103.244 125.083 103.244C124.315 103.244 123.847 102.86 123.847 102.284ZM136.028 95.432C134.3 95.432 133.136 96.32 133.136 97.772C133.136 99.224 134.12 99.812 135.692 100.172L136.208 100.292C137.312 100.544 137.996 100.844 137.996 101.696C137.996 102.536 137.312 103.124 136.088 103.124C134.852 103.124 134.036 102.512 134.036 101.216V101.108H132.86V101.216C132.86 103.148 134.204 104.168 136.088 104.168C137.96 104.168 139.16 103.16 139.16 101.672C139.16 100.172 138.056 99.596 136.484 99.236L135.968 99.116C134.876 98.864 134.312 98.564 134.312 97.748C134.312 96.932 134.96 96.476 136.028 96.476C137.12 96.476 137.888 96.932 137.888 98.072V98.396H139.064V98.072C139.064 96.32 137.756 95.432 136.028 95.432ZM140.175 101.06C140.175 102.884 141.531 104.168 143.235 104.168C144.855 104.168 145.815 103.196 146.103 101.924L145.011 101.672C144.855 102.548 144.303 103.172 143.247 103.172C142.155 103.172 141.315 102.332 141.315 101.06C141.315 99.776 142.143 98.936 143.247 98.936C144.255 98.936 144.867 99.572 144.963 100.424L146.067 100.196C145.839 98.936 144.831 97.94 143.235 97.94C141.531 97.94 140.175 99.224 140.175 101.06ZM147.129 96.32C147.129 96.812 147.501 97.172 147.993 97.172C148.497 97.172 148.869 96.812 148.869 96.32C148.869 95.816 148.497 95.456 147.993 95.456C147.501 95.456 147.129 95.816 147.129 96.32ZM148.557 98.108H147.429V104H148.557V98.108ZM149.908 101.012C149.908 102.824 151.12 104.168 152.944 104.168C154.564 104.168 155.248 103.232 155.608 102.62L154.672 102.092C154.384 102.668 153.904 103.184 152.944 103.184C151.876 103.184 151.132 102.464 151.06 101.444H155.704V100.892C155.704 99.08 154.54 97.94 152.86 97.94C151.144 97.94 149.908 99.212 149.908 101.012ZM151.072 100.532C151.192 99.548 151.84 98.924 152.86 98.924C153.832 98.924 154.492 99.512 154.552 100.532H151.072ZM157.009 98.108V104H158.137V101C158.137 99.656 158.845 98.936 159.901 98.936C160.849 98.936 161.425 99.428 161.425 100.508V104H162.541V100.448C162.541 98.912 161.545 98 160.225 98C159.061 98 158.497 98.528 158.233 99.056H158.113V98.108H157.009ZM163.823 101.06C163.823 102.884 165.179 104.168 166.883 104.168C168.503 104.168 169.463 103.196 169.751 101.924L168.659 101.672C168.503 102.548 167.951 103.172 166.895 103.172C165.803 103.172 164.963 102.332 164.963 101.06C164.963 99.776 165.791 98.936 166.895 98.936C167.903 98.936 168.515 99.572 168.611 100.424L169.715 100.196C169.487 98.936 168.479 97.94 166.883 97.94C165.179 97.94 163.823 99.224 163.823 101.06ZM170.705 101.012C170.705 102.824 171.917 104.168 173.741 104.168C175.361 104.168 176.045 103.232 176.405 102.62L175.469 102.092C175.181 102.668 174.701 103.184 173.741 103.184C172.673 103.184 171.929 102.464 171.857 101.444H176.501V100.892C176.501 99.08 175.337 97.94 173.657 97.94C171.941 97.94 170.705 99.212 170.705 101.012ZM171.869 100.532C171.989 99.548 172.637 98.924 173.657 98.924C174.629 98.924 175.289 99.512 175.349 100.532H171.869ZM181.489 95.6V104H185.089C186.529 104 187.585 103.16 187.585 101.744C187.585 100.532 186.769 100.004 186.145 99.824V99.704C186.769 99.524 187.549 99.008 187.549 97.808C187.549 96.452 186.517 95.6 185.077 95.6H181.489ZM182.677 96.668H184.957C185.833 96.668 186.409 97.184 186.409 97.94C186.409 98.72 185.857 99.236 184.969 99.236H182.677V96.668ZM182.677 100.316H184.957C185.893 100.316 186.433 100.808 186.433 101.612C186.433 102.392 185.893 102.932 184.981 102.932H182.677V100.316ZM188.86 99.692L189.916 100.028C190.06 99.356 190.54 98.864 191.428 98.864C192.328 98.864 192.772 99.368 192.772 100.1V100.484H190.9C189.616 100.484 188.668 101.096 188.668 102.308C188.668 103.496 189.616 104.168 190.84 104.168C191.98 104.168 192.436 103.604 192.652 103.208H192.796V104H193.876V100.172C193.876 98.756 192.952 97.94 191.44 97.94C189.94 97.94 189.148 98.732 188.86 99.692ZM189.796 102.284C189.796 101.708 190.264 101.396 190.96 101.396H192.772V101.516C192.772 102.584 192.064 103.244 191.032 103.244C190.264 103.244 189.796 102.86 189.796 102.284ZM195.414 99.68C195.414 100.772 196.326 101.216 197.466 101.42L197.97 101.504C198.786 101.636 199.242 101.864 199.242 102.38C199.242 102.92 198.75 103.28 197.922 103.28C197.094 103.28 196.398 102.932 196.218 101.852L195.162 102.116C195.378 103.496 196.434 104.168 197.922 104.168C199.374 104.168 200.334 103.484 200.334 102.308C200.334 101.12 199.386 100.76 198.138 100.544L197.634 100.472C196.962 100.352 196.518 100.136 196.518 99.62C196.518 99.128 196.962 98.828 197.682 98.828C198.402 98.828 198.918 99.128 199.086 99.92L200.118 99.62C199.866 98.588 199.002 97.94 197.682 97.94C196.302 97.94 195.414 98.588 195.414 99.68ZM201.377 96.32C201.377 96.812 201.749 97.172 202.241 97.172C202.745 97.172 203.117 96.812 203.117 96.32C203.117 95.816 202.745 95.456 202.241 95.456C201.749 95.456 201.377 95.816 201.377 96.32ZM202.805 98.108H201.677V104H202.805V98.108ZM204.156 101.06C204.156 102.884 205.512 104.168 207.216 104.168C208.836 104.168 209.796 103.196 210.084 101.924L208.992 101.672C208.836 102.548 208.284 103.172 207.228 103.172C206.136 103.172 205.296 102.332 205.296 101.06C205.296 99.776 206.124 98.936 207.228 98.936C208.236 98.936 208.848 99.572 208.944 100.424L210.048 100.196C209.82 98.936 208.812 97.94 207.216 97.94C205.512 97.94 204.156 99.224 204.156 101.06ZM211.254 99.68C211.254 100.772 212.166 101.216 213.306 101.42L213.81 101.504C214.626 101.636 215.082 101.864 215.082 102.38C215.082 102.92 214.59 103.28 213.762 103.28C212.934 103.28 212.238 102.932 212.058 101.852L211.002 102.116C211.218 103.496 212.274 104.168 213.762 104.168C215.214 104.168 216.174 103.484 216.174 102.308C216.174 101.12 215.226 100.76 213.978 100.544L213.474 100.472C212.802 100.352 212.358 100.136 212.358 99.62C212.358 99.128 212.802 98.828 213.522 98.828C214.242 98.828 214.758 99.128 214.926 99.92L215.958 99.62C215.706 98.588 214.842 97.94 213.522 97.94C212.142 97.94 211.254 98.588 211.254 99.68Z" fill="#1E2029"/>
<rect width="79.4847" height="32" transform="translate(95.4849 157) rotate(180)" fill="#DCE0FA"/>
<path d="M45.7107 135.7L42.8267 145.5L44.4927 145.5L45.1507 143.218L48.7907 143.218L49.4487 145.5L51.1007 145.5L48.2167 135.7L45.7107 135.7ZM45.5427 141.748L46.9007 137.058L47.0407 137.058L48.3847 141.748L45.5427 141.748ZM52.6202 135.7L52.6202 145.5L54.2442 145.5L54.2442 135.7L52.6202 135.7ZM60.6897 138.948L60.6897 139.284L62.2997 139.284L62.2997 138.976C62.2997 137.604 63.2097 136.946 64.3437 136.946C65.4497 136.946 66.1917 137.59 66.1917 138.682C66.1917 139.886 65.3237 140.418 63.8397 140.81C61.9917 141.286 60.7037 142.126 60.7037 143.974L60.7037 145.5L67.7737 145.5L67.7737 144.03L62.3277 144.03L62.3277 143.834C62.3277 142.742 63.1397 142.434 64.6097 142.056C66.6537 141.538 67.8157 140.628 67.8157 138.724C67.8157 136.736 66.2337 135.504 64.3157 135.504C62.3417 135.504 60.6897 136.694 60.6897 138.948Z" fill="#1E2029"/>
<rect width="248.515" height="32" transform="translate(95.4849 125)" fill="#E3C668"/>
<path d="M103.929 141.76C103.929 143.944 105.249 145.168 107.337 145.168C109.401 145.168 110.601 143.98 110.601 142.156V141.868H109.221V142.18C109.221 143.164 108.597 143.932 107.337 143.932C106.089 143.932 105.321 143.116 105.321 141.784V139.816C105.321 138.484 106.077 137.668 107.337 137.668C108.573 137.668 109.221 138.448 109.221 139.432V139.66H110.601V139.456C110.601 137.62 109.425 136.432 107.337 136.432C105.249 136.432 103.929 137.656 103.929 139.84V141.76ZM111.477 142.036C111.477 143.956 112.785 145.168 114.561 145.168C116.337 145.168 117.633 143.956 117.633 142.036C117.633 140.128 116.337 138.916 114.561 138.916C112.785 138.916 111.477 140.128 111.477 142.036ZM112.797 142.036C112.797 140.824 113.517 140.068 114.561 140.068C115.593 140.068 116.313 140.812 116.313 142.036C116.313 143.26 115.593 144.016 114.561 144.016C113.517 144.016 112.797 143.272 112.797 142.036ZM118.871 139.084V145H120.179V141.964C120.179 140.74 120.815 140.056 121.799 140.056C122.675 140.056 123.191 140.524 123.191 141.52V145H124.511V141.448C124.511 139.936 123.551 138.976 122.195 138.976C121.067 138.976 120.539 139.48 120.275 139.996H120.155V139.084H118.871ZM125.128 139.084L127.252 145H129.184L131.296 139.084H129.868L128.272 143.872H128.152L126.556 139.084H125.128ZM131.77 142.036C131.77 143.956 133.078 145.168 134.854 145.168C136.63 145.168 137.926 143.956 137.926 142.036C137.926 140.128 136.63 138.916 134.854 138.916C133.078 138.916 131.77 140.128 131.77 142.036ZM133.09 142.036C133.09 140.824 133.81 140.068 134.854 140.068C135.886 140.068 136.606 140.812 136.606 142.036C136.606 143.26 135.886 144.016 134.854 144.016C133.81 144.016 133.09 143.272 133.09 142.036ZM140.473 136.6H139.165V145H140.473V136.6ZM147.726 145V139.084H146.418V142.12C146.418 143.332 145.782 144.016 144.798 144.016C143.922 144.016 143.406 143.548 143.406 142.564V139.084H142.086V142.636C142.086 144.136 143.046 145.096 144.402 145.096C145.53 145.096 146.058 144.604 146.322 144.076H146.442V145H147.726ZM148.659 140.152H150.255V143.776C150.255 144.52 150.735 145 151.455 145H153.123V143.92H151.911C151.695 143.92 151.575 143.8 151.575 143.56V140.152H153.303V139.084H151.575V137.152H150.255V139.084H148.659V140.152ZM154.213 137.32C154.213 137.872 154.633 138.256 155.185 138.256C155.737 138.256 156.157 137.872 156.157 137.32C156.157 136.756 155.737 136.372 155.185 136.372C154.633 136.372 154.213 136.756 154.213 137.32ZM155.845 139.084H154.537V145H155.845V139.084ZM157.085 142.036C157.085 143.956 158.393 145.168 160.169 145.168C161.945 145.168 163.241 143.956 163.241 142.036C163.241 140.128 161.945 138.916 160.169 138.916C158.393 138.916 157.085 140.128 157.085 142.036ZM158.405 142.036C158.405 140.824 159.125 140.068 160.169 140.068C161.201 140.068 161.921 140.812 161.921 142.036C161.921 143.26 161.201 144.016 160.169 144.016C159.125 144.016 158.405 143.272 158.405 142.036ZM164.48 139.084V145H165.788V141.964C165.788 140.74 166.424 140.056 167.408 140.056C168.284 140.056 168.8 140.524 168.8 141.52V145H170.12V141.448C170.12 139.936 169.16 138.976 167.804 138.976C166.676 138.976 166.148 139.48 165.884 139.996H165.764V139.084H164.48ZM171.546 140.62L172.77 141.028C172.89 140.416 173.31 139.972 174.138 139.972C174.966 139.972 175.362 140.44 175.362 141.076V141.436H173.61C172.29 141.436 171.342 142.06 171.342 143.284C171.342 144.484 172.29 145.168 173.514 145.168C174.642 145.168 175.062 144.58 175.23 144.256H175.386V145H176.646V141.172C176.646 139.72 175.686 138.904 174.15 138.904C172.626 138.904 171.834 139.696 171.546 140.62ZM172.662 143.248C172.662 142.756 173.058 142.456 173.694 142.456H175.362V142.564C175.362 143.5 174.702 144.088 173.766 144.088C173.058 144.088 172.662 143.752 172.662 143.248ZM179.481 136.6H178.173V145H179.481V136.6ZM184.624 136.6V145H186.016V138.016H186.136L188.572 145H190.948V136.6H189.568V143.584H189.448L187 136.6H184.624ZM192.2 142.012C192.2 143.872 193.424 145.168 195.224 145.168C196.856 145.168 197.552 144.232 197.9 143.608L196.808 143.02C196.568 143.536 196.148 144.028 195.248 144.028C194.3 144.028 193.604 143.368 193.556 142.456H198.044V141.916C198.044 140.104 196.892 138.904 195.176 138.904C193.436 138.904 192.2 140.164 192.2 142.012ZM193.568 141.436C193.676 140.608 194.252 140.044 195.164 140.044C196.04 140.044 196.628 140.584 196.7 141.436H193.568ZM204.871 145V139.084H203.563V142.12C203.563 143.332 202.927 144.016 201.943 144.016C201.067 144.016 200.551 143.548 200.551 142.564V139.084H199.231V142.636C199.231 144.136 200.191 145.096 201.547 145.096C202.675 145.096 203.203 144.604 203.467 144.076H203.587V145H204.871ZM207.76 139.084H206.476V145H207.784V141.496C207.784 140.596 208.348 140.176 209.14 140.176H210.052V139.06H209.368C208.6 139.06 208.12 139.288 207.88 139.9H207.76V139.084ZM210.882 140.62L212.106 141.028C212.226 140.416 212.646 139.972 213.474 139.972C214.302 139.972 214.698 140.44 214.698 141.076V141.436H212.946C211.626 141.436 210.678 142.06 210.678 143.284C210.678 144.484 211.626 145.168 212.85 145.168C213.978 145.168 214.398 144.58 214.566 144.256H214.722V145H215.982V141.172C215.982 139.72 215.022 138.904 213.486 138.904C211.962 138.904 211.17 139.696 210.882 140.62ZM211.998 143.248C211.998 142.756 212.394 142.456 213.03 142.456H214.698V142.564C214.698 143.5 214.038 144.088 213.102 144.088C212.394 144.088 211.998 143.752 211.998 143.248ZM218.817 136.6H217.509V145H218.817V136.6ZM223.96 136.6V145H225.352V138.016H225.472L227.908 145H230.284V136.6H228.904V143.584H228.784L226.336 136.6H223.96ZM231.536 142.012C231.536 143.872 232.76 145.168 234.56 145.168C236.192 145.168 236.888 144.232 237.236 143.608L236.144 143.02C235.904 143.536 235.484 144.028 234.584 144.028C233.636 144.028 232.94 143.368 232.892 142.456H237.38V141.916C237.38 140.104 236.228 138.904 234.512 138.904C232.772 138.904 231.536 140.164 231.536 142.012ZM232.904 141.436C233.012 140.608 233.588 140.044 234.5 140.044C235.376 140.044 235.964 140.584 236.036 141.436H232.904ZM237.836 140.152H239.432V143.776C239.432 144.52 239.912 145 240.632 145H242.3V143.92H241.088C240.872 143.92 240.752 143.8 240.752 143.56V140.152H242.48V139.084H240.752V137.152H239.432V139.084H237.836V140.152ZM243.198 139.084L244.458 145H246.342L247.446 140.2H247.566L248.658 145H250.542L251.802 139.084H250.47L249.63 143.884H249.51L248.418 139.084H246.582L245.49 143.884H245.37L244.53 139.084H243.198ZM252.462 142.036C252.462 143.956 253.77 145.168 255.546 145.168C257.322 145.168 258.618 143.956 258.618 142.036C258.618 140.128 257.322 138.916 255.546 138.916C253.77 138.916 252.462 140.128 252.462 142.036ZM253.782 142.036C253.782 140.824 254.502 140.068 255.546 140.068C256.578 140.068 257.298 140.812 257.298 142.036C257.298 143.26 256.578 144.016 255.546 144.016C254.502 144.016 253.782 143.272 253.782 142.036ZM261.141 139.084H259.857V145H261.165V141.496C261.165 140.596 261.729 140.176 262.521 140.176H263.433V139.06H262.749C261.981 139.06 261.501 139.288 261.261 139.9H261.141V139.084ZM270.43 139.084H268.474L265.738 141.484V136.6H264.43V145H265.738V143.092L266.698 142.264L268.762 145H270.382L267.646 141.46L270.43 139.084ZM271.309 140.704C271.309 141.832 272.245 142.276 273.445 142.492L273.853 142.564C274.633 142.708 275.029 142.9 275.029 143.356C275.029 143.812 274.609 144.148 273.853 144.148C273.085 144.148 272.461 143.836 272.293 142.864L271.069 143.164C271.273 144.484 272.329 145.168 273.853 145.168C275.341 145.168 276.301 144.472 276.301 143.26C276.301 142.048 275.329 141.7 274.033 141.46L273.625 141.388C272.977 141.268 272.581 141.076 272.581 140.62C272.581 140.188 272.965 139.924 273.613 139.924C274.261 139.924 274.729 140.2 274.873 140.92L276.073 140.56C275.809 139.564 274.945 138.916 273.613 138.916C272.221 138.916 271.309 139.564 271.309 140.704Z" fill="#1E2029"/>
<rect width="79" height="35" transform="translate(95 208) rotate(180)" fill="#636CAD"/>
<path d="M45.468 185.2L42.584 195H44.25L44.908 192.718H48.548L49.206 195H50.858L47.974 185.2H45.468ZM45.3 191.248L46.658 186.558H46.798L48.142 191.248H45.3ZM52.3775 185.2V195H54.0015V185.2H52.3775ZM60.573 185.2V186.67H65.249L62.589 188.896V190.366H64.185C65.221 190.366 65.991 190.884 65.991 191.962C65.991 192.984 65.249 193.754 64.003 193.754C62.673 193.754 61.917 192.956 61.917 191.822V191.444H60.307V191.864C60.307 193.852 61.721 195.196 64.003 195.196C66.117 195.196 67.615 193.908 67.615 191.962C67.615 190.156 66.369 189.176 64.899 189.176H64.549V189.022L67.447 186.628V185.2H60.573Z" fill="white"/>
<rect width="249" height="35" transform="translate(95 173)" fill="#B49848"/>
<path d="M103.816 184.6V193H105.004V185.836H105.124L107.98 193H110.008V184.6H108.82V191.764H108.7L105.844 184.6H103.816ZM111.608 188.692L112.664 189.028C112.808 188.356 113.288 187.864 114.176 187.864C115.076 187.864 115.52 188.368 115.52 189.1V189.484H113.648C112.364 189.484 111.416 190.096 111.416 191.308C111.416 192.496 112.364 193.168 113.588 193.168C114.728 193.168 115.184 192.604 115.4 192.208H115.544V193H116.624V189.172C116.624 187.756 115.7 186.94 114.188 186.94C112.688 186.94 111.896 187.732 111.608 188.692ZM112.544 191.284C112.544 190.708 113.012 190.396 113.708 190.396H115.52V190.516C115.52 191.584 114.812 192.244 113.78 192.244C113.012 192.244 112.544 191.86 112.544 191.284ZM117.457 188.032H119.161V191.896C119.161 192.568 119.593 193 120.253 193H121.885V192.076H120.625C120.409 192.076 120.289 191.956 120.289 191.716V188.032H122.113V187.108H120.289V185.092H119.161V187.108H117.457V188.032ZM128.95 193V187.108H127.822V190.108C127.822 191.452 127.114 192.172 126.058 192.172C125.11 192.172 124.534 191.68 124.534 190.6V187.108H123.418V190.66C123.418 192.196 124.414 193.108 125.734 193.108C126.898 193.108 127.462 192.58 127.726 192.052H127.846V193H128.95ZM131.779 187.108H130.675V193H131.803V189.448C131.803 188.5 132.355 188.056 133.183 188.056H134.107V187.084H133.375C132.595 187.084 132.127 187.312 131.899 187.9H131.779V187.108ZM135.01 188.692L136.066 189.028C136.21 188.356 136.69 187.864 137.578 187.864C138.478 187.864 138.922 188.368 138.922 189.1V189.484H137.05C135.766 189.484 134.818 190.096 134.818 191.308C134.818 192.496 135.766 193.168 136.99 193.168C138.13 193.168 138.586 192.604 138.802 192.208H138.946V193H140.026V189.172C140.026 187.756 139.102 186.94 137.59 186.94C136.09 186.94 135.298 187.732 135.01 188.692ZM135.946 191.284C135.946 190.708 136.414 190.396 137.11 190.396H138.922V190.516C138.922 191.584 138.214 192.244 137.182 192.244C136.414 192.244 135.946 191.86 135.946 191.284ZM142.812 184.6H141.684V193H142.812V184.6ZM148.217 184.6V193H153.593V191.932H149.405V184.6H148.217ZM154.568 188.692L155.624 189.028C155.768 188.356 156.248 187.864 157.136 187.864C158.036 187.864 158.48 188.368 158.48 189.1V189.484H156.608C155.324 189.484 154.376 190.096 154.376 191.308C154.376 192.496 155.324 193.168 156.548 193.168C157.688 193.168 158.144 192.604 158.36 192.208H158.504V193H159.584V189.172C159.584 187.756 158.66 186.94 157.148 186.94C155.648 186.94 154.856 187.732 154.568 188.692ZM155.504 191.284C155.504 190.708 155.972 190.396 156.668 190.396H158.48V190.516C158.48 191.584 157.772 192.244 156.74 192.244C155.972 192.244 155.504 191.86 155.504 191.284ZM161.242 187.108V193H162.37V190C162.37 188.656 163.078 187.936 164.134 187.936C165.082 187.936 165.658 188.428 165.658 189.508V193H166.774V189.448C166.774 187.912 165.778 187 164.458 187C163.294 187 162.73 187.528 162.466 188.056H162.346V187.108H161.242ZM173.049 187.108V188.056H172.929C172.569 187.468 171.945 186.94 170.793 186.94C169.305 186.94 168.057 188.14 168.057 189.976C168.057 191.824 169.305 193.012 170.793 193.012C171.945 193.012 172.569 192.472 172.905 191.944H173.025V192.64C173.025 193.948 172.257 194.608 171.105 194.608C169.965 194.608 169.401 193.948 169.185 193.252L168.165 193.672C168.453 194.536 169.341 195.568 171.129 195.568C172.941 195.568 174.153 194.536 174.153 192.688V187.108H173.049ZM171.105 192.04C169.989 192.04 169.197 191.248 169.197 189.976C169.197 188.716 169.989 187.924 171.105 187.924C172.221 187.924 173.037 188.716 173.037 189.976C173.037 191.236 172.221 192.04 171.105 192.04ZM181.405 193V187.108H180.277V190.108C180.277 191.452 179.569 192.172 178.513 192.172C177.565 192.172 176.989 191.68 176.989 190.6V187.108H175.873V190.66C175.873 192.196 176.869 193.108 178.189 193.108C179.353 193.108 179.917 192.58 180.181 192.052H180.301V193H181.405ZM182.986 188.692L184.042 189.028C184.186 188.356 184.666 187.864 185.554 187.864C186.454 187.864 186.898 188.368 186.898 189.1V189.484H185.026C183.742 189.484 182.794 190.096 182.794 191.308C182.794 192.496 183.742 193.168 184.966 193.168C186.106 193.168 186.562 192.604 186.778 192.208H186.922V193H188.002V189.172C188.002 187.756 187.078 186.94 185.566 186.94C184.066 186.94 183.274 187.732 182.986 188.692ZM183.922 191.284C183.922 190.708 184.39 190.396 185.086 190.396H186.898V190.516C186.898 191.584 186.19 192.244 185.158 192.244C184.39 192.244 183.922 191.86 183.922 191.284ZM194.28 187.108V188.056H194.16C193.8 187.468 193.176 186.94 192.024 186.94C190.536 186.94 189.288 188.14 189.288 189.976C189.288 191.824 190.536 193.012 192.024 193.012C193.176 193.012 193.8 192.472 194.136 191.944H194.256V192.64C194.256 193.948 193.488 194.608 192.336 194.608C191.196 194.608 190.632 193.948 190.416 193.252L189.396 193.672C189.684 194.536 190.572 195.568 192.36 195.568C194.172 195.568 195.384 194.536 195.384 192.688V187.108H194.28ZM192.336 192.04C191.22 192.04 190.428 191.248 190.428 189.976C190.428 188.716 191.22 187.924 192.336 187.924C193.452 187.924 194.268 188.716 194.268 189.976C194.268 191.236 193.452 192.04 192.336 192.04ZM196.744 190.012C196.744 191.824 197.956 193.168 199.78 193.168C201.4 193.168 202.084 192.232 202.444 191.62L201.508 191.092C201.22 191.668 200.74 192.184 199.78 192.184C198.712 192.184 197.968 191.464 197.896 190.444H202.54V189.892C202.54 188.08 201.376 186.94 199.696 186.94C197.98 186.94 196.744 188.212 196.744 190.012ZM197.908 189.532C198.028 188.548 198.676 187.924 199.696 187.924C200.668 187.924 201.328 188.512 201.388 189.532H197.908ZM207.528 184.6V193H208.716V189.712H210.816C212.328 189.712 213.468 188.74 213.468 187.156C213.468 185.584 212.352 184.6 210.816 184.6H207.528ZM208.716 185.668H210.696C211.68 185.668 212.28 186.232 212.28 187.156C212.28 188.08 211.68 188.644 210.696 188.644H208.716V185.668ZM215.759 187.108H214.655V193H215.783V189.448C215.783 188.5 216.335 188.056 217.163 188.056H218.087V187.084H217.355C216.575 187.084 216.107 187.312 215.879 187.9H215.759V187.108ZM218.564 190.06C218.564 191.932 219.824 193.168 221.6 193.168C223.376 193.168 224.648 191.932 224.648 190.06C224.648 188.176 223.376 186.94 221.6 186.94C219.824 186.94 218.564 188.176 218.564 190.06ZM219.692 190.06C219.692 188.788 220.46 187.936 221.6 187.936C222.74 187.936 223.52 188.764 223.52 190.06C223.52 191.344 222.74 192.172 221.6 192.172C220.46 192.172 219.692 191.368 219.692 190.06ZM225.633 190.06C225.633 191.884 226.989 193.168 228.693 193.168C230.313 193.168 231.273 192.196 231.561 190.924L230.469 190.672C230.313 191.548 229.761 192.172 228.705 192.172C227.613 192.172 226.773 191.332 226.773 190.06C226.773 188.776 227.601 187.936 228.705 187.936C229.713 187.936 230.325 188.572 230.421 189.424L231.525 189.196C231.297 187.936 230.289 186.94 228.693 186.94C226.989 186.94 225.633 188.224 225.633 190.06ZM232.515 190.012C232.515 191.824 233.727 193.168 235.551 193.168C237.171 193.168 237.855 192.232 238.215 191.62L237.279 191.092C236.991 191.668 236.511 192.184 235.551 192.184C234.483 192.184 233.739 191.464 233.667 190.444H238.311V189.892C238.311 188.08 237.147 186.94 235.467 186.94C233.751 186.94 232.515 188.212 232.515 190.012ZM233.679 189.532C233.799 188.548 234.447 187.924 235.467 187.924C236.439 187.924 237.099 188.512 237.159 189.532H233.679ZM239.461 188.68C239.461 189.772 240.373 190.216 241.513 190.42L242.017 190.504C242.833 190.636 243.289 190.864 243.289 191.38C243.289 191.92 242.797 192.28 241.969 192.28C241.141 192.28 240.445 191.932 240.265 190.852L239.209 191.116C239.425 192.496 240.481 193.168 241.969 193.168C243.421 193.168 244.381 192.484 244.381 191.308C244.381 190.12 243.433 189.76 242.185 189.544L241.681 189.472C241.009 189.352 240.565 189.136 240.565 188.62C240.565 188.128 241.009 187.828 241.729 187.828C242.449 187.828 242.965 188.128 243.133 188.92L244.165 188.62C243.913 187.588 243.049 186.94 241.729 186.94C240.349 186.94 239.461 187.588 239.461 188.68ZM245.499 188.68C245.499 189.772 246.411 190.216 247.551 190.42L248.055 190.504C248.871 190.636 249.327 190.864 249.327 191.38C249.327 191.92 248.835 192.28 248.007 192.28C247.179 192.28 246.483 191.932 246.303 190.852L245.247 191.116C245.463 192.496 246.519 193.168 248.007 193.168C249.459 193.168 250.419 192.484 250.419 191.308C250.419 190.12 249.471 189.76 248.223 189.544L247.719 189.472C247.047 189.352 246.603 189.136 246.603 188.62C246.603 188.128 247.047 187.828 247.767 187.828C248.487 187.828 249.003 188.128 249.171 188.92L250.203 188.62C249.951 187.588 249.087 186.94 247.767 186.94C246.387 186.94 245.499 187.588 245.499 188.68ZM251.462 185.32C251.462 185.812 251.834 186.172 252.326 186.172C252.83 186.172 253.202 185.812 253.202 185.32C253.202 184.816 252.83 184.456 252.326 184.456C251.834 184.456 251.462 184.816 251.462 185.32ZM252.89 187.108H251.762V193H252.89V187.108ZM254.613 187.108V193H255.741V190C255.741 188.656 256.449 187.936 257.505 187.936C258.453 187.936 259.029 188.428 259.029 189.508V193H260.145V189.448C260.145 187.912 259.149 187 257.829 187C256.665 187 256.101 187.528 255.837 188.056H255.717V187.108H254.613ZM266.419 187.108V188.056H266.299C265.939 187.468 265.315 186.94 264.163 186.94C262.675 186.94 261.427 188.14 261.427 189.976C261.427 191.824 262.675 193.012 264.163 193.012C265.315 193.012 265.939 192.472 266.275 191.944H266.395V192.64C266.395 193.948 265.627 194.608 264.475 194.608C263.335 194.608 262.771 193.948 262.555 193.252L261.535 193.672C261.823 194.536 262.711 195.568 264.499 195.568C266.311 195.568 267.523 194.536 267.523 192.688V187.108H266.419ZM264.475 192.04C263.359 192.04 262.567 191.248 262.567 189.976C262.567 188.716 263.359 187.924 264.475 187.924C265.591 187.924 266.407 188.716 266.407 189.976C266.407 191.236 265.591 192.04 264.475 192.04Z" fill="white"/>
<rect width="79" height="35" transform="translate(95 259) rotate(180)" fill="#2F3564"/>
<path d="M45.468 236.2L42.584 246H44.25L44.908 243.718H48.548L49.206 246H50.858L47.974 236.2H45.468ZM45.3 242.248L46.658 237.558H46.798L48.142 242.248H45.3ZM52.3775 236.2V246H54.0015V236.2H52.3775ZM60.699 236.2V241.576H62.855C63.037 241.226 63.429 240.764 64.269 240.764C65.277 240.764 65.977 241.464 65.977 242.626C65.977 243.928 65.221 244.754 63.975 244.754C62.715 244.754 61.973 243.97 61.973 242.71V242.528H60.363V242.822C60.363 244.866 61.847 246.196 64.017 246.196C66.173 246.196 67.601 244.726 67.601 242.556C67.601 240.582 66.243 239.392 64.675 239.392C63.317 239.392 62.743 240.092 62.477 240.526H62.309V237.67H67.279V236.2H60.699Z" fill="white"/>
<rect width="249" height="35" transform="translate(95 224)" fill="#76623B"/>
<path d="M107.487 235.6V244H108.675V240.712H110.775C112.287 240.712 113.427 239.74 113.427 238.156C113.427 236.584 112.311 235.6 110.775 235.6H107.487ZM108.675 236.668H110.655C111.639 236.668 112.239 237.232 112.239 238.156C112.239 239.08 111.639 239.644 110.655 239.644H108.675V236.668ZM115.718 238.108H114.614V244H115.742V240.448C115.742 239.5 116.294 239.056 117.122 239.056H118.046V238.084H117.314C116.534 238.084 116.066 238.312 115.838 238.9H115.718V238.108ZM118.522 241.06C118.522 242.932 119.782 244.168 121.558 244.168C123.334 244.168 124.606 242.932 124.606 241.06C124.606 239.176 123.334 237.94 121.558 237.94C119.782 237.94 118.522 239.176 118.522 241.06ZM119.65 241.06C119.65 239.788 120.418 238.936 121.558 238.936C122.698 238.936 123.478 239.764 123.478 241.06C123.478 242.344 122.698 243.172 121.558 243.172C120.418 243.172 119.65 242.368 119.65 241.06ZM131.688 235.6H130.56V239.02H130.44C130.104 238.468 129.492 237.94 128.328 237.94C126.84 237.94 125.592 239.152 125.592 241.06C125.592 242.968 126.84 244.168 128.328 244.168C129.492 244.168 130.104 243.64 130.464 243.064H130.584V244H131.688V235.6ZM128.64 238.924C129.756 238.924 130.572 239.728 130.572 241.06C130.572 242.38 129.756 243.184 128.64 243.184C127.524 243.184 126.732 242.392 126.732 241.06C126.732 239.716 127.524 238.924 128.64 238.924ZM138.94 244V238.108H137.812V241.108C137.812 242.452 137.104 243.172 136.048 243.172C135.1 243.172 134.524 242.68 134.524 241.6V238.108H133.408V241.66C133.408 243.196 134.404 244.108 135.724 244.108C136.888 244.108 137.452 243.58 137.716 243.052H137.836V244H138.94ZM140.293 241.06C140.293 242.884 141.649 244.168 143.353 244.168C144.973 244.168 145.933 243.196 146.221 241.924L145.129 241.672C144.973 242.548 144.421 243.172 143.365 243.172C142.273 243.172 141.433 242.332 141.433 241.06C141.433 239.776 142.261 238.936 143.365 238.936C144.373 238.936 144.985 239.572 145.081 240.424L146.185 240.196C145.957 238.936 144.949 237.94 143.353 237.94C141.649 237.94 140.293 239.224 140.293 241.06ZM146.78 239.032H148.484V242.896C148.484 243.568 148.916 244 149.576 244H151.208V243.076H149.948C149.732 243.076 149.612 242.956 149.612 242.716V239.032H151.436V238.108H149.612V236.092H148.484V238.108H146.78V239.032ZM152.452 236.32C152.452 236.812 152.824 237.172 153.316 237.172C153.82 237.172 154.192 236.812 154.192 236.32C154.192 235.816 153.82 235.456 153.316 235.456C152.824 235.456 152.452 235.816 152.452 236.32ZM153.88 238.108H152.752V244H153.88V238.108ZM155.231 241.06C155.231 242.932 156.491 244.168 158.267 244.168C160.043 244.168 161.315 242.932 161.315 241.06C161.315 239.176 160.043 237.94 158.267 237.94C156.491 237.94 155.231 239.176 155.231 241.06ZM156.359 241.06C156.359 239.788 157.127 238.936 158.267 238.936C159.407 238.936 160.187 239.764 160.187 241.06C160.187 242.344 159.407 243.172 158.267 243.172C157.127 243.172 156.359 242.368 156.359 241.06ZM162.672 238.108V244H163.8V241C163.8 239.656 164.508 238.936 165.564 238.936C166.512 238.936 167.088 239.428 167.088 240.508V244H168.204V240.448C168.204 238.912 167.208 238 165.888 238C164.724 238 164.16 238.528 163.896 239.056H163.776V238.108H162.672ZM169.558 236.32C169.558 236.812 169.93 237.172 170.422 237.172C170.926 237.172 171.298 236.812 171.298 236.32C171.298 235.816 170.926 235.456 170.422 235.456C169.93 235.456 169.558 235.816 169.558 236.32ZM170.986 238.108H169.858V244H170.986V238.108ZM172.589 238.108V239.032H176.177L172.469 243.16V244H177.773V243.076H173.981L177.677 238.948V238.108H172.589ZM178.88 236.32C178.88 236.812 179.252 237.172 179.744 237.172C180.248 237.172 180.62 236.812 180.62 236.32C180.62 235.816 180.248 235.456 179.744 235.456C179.252 235.456 178.88 235.816 178.88 236.32ZM180.308 238.108H179.18V244H180.308V238.108ZM182.031 238.108V244H183.159V241C183.159 239.656 183.867 238.936 184.923 238.936C185.871 238.936 186.447 239.428 186.447 240.508V244H187.563V240.448C187.563 238.912 186.567 238 185.247 238C184.083 238 183.519 238.528 183.255 239.056H183.135V238.108H182.031ZM193.837 238.108V239.056H193.717C193.357 238.468 192.733 237.94 191.581 237.94C190.093 237.94 188.845 239.14 188.845 240.976C188.845 242.824 190.093 244.012 191.581 244.012C192.733 244.012 193.357 243.472 193.693 242.944H193.813V243.64C193.813 244.948 193.045 245.608 191.893 245.608C190.753 245.608 190.189 244.948 189.973 244.252L188.953 244.672C189.241 245.536 190.129 246.568 191.917 246.568C193.729 246.568 194.941 245.536 194.941 243.688V238.108H193.837ZM191.893 243.04C190.777 243.04 189.985 242.248 189.985 240.976C189.985 239.716 190.777 238.924 191.893 238.924C193.009 238.924 193.825 239.716 193.825 240.976C193.825 242.236 193.009 243.04 191.893 243.04ZM202.252 235.6L199.66 244H200.884L201.508 241.96H204.82L205.444 244H206.68L204.088 235.6H202.252ZM201.808 240.88L203.104 236.632H203.224L204.52 240.88H201.808ZM207.742 235.6V244H208.93V235.6H207.742ZM215.065 243.652C215.065 246.016 216.349 246.976 218.197 246.976V245.956C216.853 245.92 216.193 245.152 216.193 243.556V237.724C216.193 236.128 216.853 235.36 218.197 235.324V234.304C216.349 234.304 215.065 235.264 215.065 237.628V243.652ZM219.375 235.6V244H220.539V236.836H220.659L222.963 244H224.643L226.935 236.836H227.055V244H228.219V235.6H226.167L223.863 242.788H223.743L221.427 235.6H219.375ZM229.972 235.6V244H235.348V242.932H231.16V235.6H229.972ZM236.19 238.828V240.772C236.19 242.98 237.498 244.168 239.538 244.168C241.578 244.168 242.886 242.98 242.886 240.772V238.828C242.886 236.62 241.578 235.432 239.538 235.432C237.498 235.432 236.19 236.62 236.19 238.828ZM237.378 238.78C237.378 237.364 238.182 236.488 239.538 236.488C240.894 236.488 241.698 237.364 241.698 238.78V240.82C241.698 242.236 240.894 243.112 239.538 243.112C238.182 243.112 237.378 242.236 237.378 240.82V238.78ZM244.344 246.4H245.472V243.1H245.592C245.928 243.64 246.54 244.168 247.692 244.168C249.192 244.168 250.44 242.968 250.44 241.06C250.44 239.152 249.192 237.94 247.692 237.94C246.54 237.94 245.928 238.468 245.568 239.056H245.448V238.108H244.344V246.4ZM247.392 243.184C246.264 243.184 245.46 242.38 245.46 241.06C245.46 239.728 246.264 238.924 247.392 238.924C248.508 238.924 249.3 239.716 249.3 241.06C249.3 242.392 248.508 243.184 247.392 243.184ZM251.645 239.68C251.645 240.772 252.557 241.216 253.697 241.42L254.201 241.504C255.017 241.636 255.473 241.864 255.473 242.38C255.473 242.92 254.981 243.28 254.153 243.28C253.325 243.28 252.629 242.932 252.449 241.852L251.393 242.116C251.609 243.496 252.665 244.168 254.153 244.168C255.605 244.168 256.565 243.484 256.565 242.308C256.565 241.12 255.617 240.76 254.369 240.544L253.865 240.472C253.193 240.352 252.749 240.136 252.749 239.62C252.749 239.128 253.193 238.828 253.913 238.828C254.633 238.828 255.149 239.128 255.317 239.92L256.349 239.62C256.097 238.588 255.233 237.94 253.913 237.94C252.533 237.94 251.645 238.588 251.645 239.68ZM260.476 243.652V237.628C260.476 235.264 259.204 234.304 257.344 234.304V235.324C258.7 235.36 259.36 236.128 259.36 237.724V243.556C259.36 245.152 258.7 245.92 257.344 245.956V246.976C259.204 246.976 260.476 246.016 260.476 243.652Z" fill="white"/>
<path d="M16.518 282.938V285.262C16.518 287.796 18.072 289.196 20.494 289.196C22.916 289.196 24.456 287.796 24.456 285.262V282.938C24.456 280.404 22.916 279.004 20.494 279.004C18.072 279.004 16.518 280.404 16.518 282.938ZM18.142 282.882C18.142 281.398 19.01 280.446 20.494 280.446C21.964 280.446 22.832 281.398 22.832 282.882V285.318C22.832 286.802 21.964 287.754 20.494 287.754C19.01 287.754 18.142 286.802 18.142 285.318V282.882ZM26.2568 291.8H27.7828V288.02H27.9228C28.3148 288.622 29.0148 289.196 30.2888 289.196C31.9828 289.196 33.4528 287.796 33.4528 285.542C33.4528 283.302 31.9828 281.902 30.2888 281.902C29.0148 281.902 28.3148 282.476 27.8948 283.106H27.7548V282.098H26.2568V291.8ZM29.8408 287.866C28.6508 287.866 27.7688 286.998 27.7688 285.542C27.7688 284.086 28.6508 283.218 29.8408 283.218C31.0448 283.218 31.9128 284.086 31.9128 285.542C31.9128 287.012 31.0448 287.866 29.8408 287.866ZM34.3283 283.344H36.1903V287.572C36.1903 288.44 36.7503 289 37.5903 289H39.5363V287.74H38.1223C37.8703 287.74 37.7303 287.6 37.7303 287.32V283.344H39.7463V282.098H37.7303V279.844H36.1903V282.098H34.3283V283.344ZM41.0879 280.04C41.0879 280.684 41.5779 281.132 42.2219 281.132C42.8659 281.132 43.3559 280.684 43.3559 280.04C43.3559 279.382 42.8659 278.934 42.2219 278.934C41.5779 278.934 41.0879 279.382 41.0879 280.04ZM42.9919 282.098H41.4659V289H42.9919V282.098ZM44.7195 285.542C44.7195 287.782 46.2455 289.196 48.3175 289.196C50.3895 289.196 51.9015 287.782 51.9015 285.542C51.9015 283.316 50.3895 281.902 48.3175 281.902C46.2455 281.902 44.7195 283.316 44.7195 285.542ZM46.2595 285.542C46.2595 284.128 47.0995 283.246 48.3175 283.246C49.5215 283.246 50.3615 284.114 50.3615 285.542C50.3615 286.97 49.5215 287.852 48.3175 287.852C47.0995 287.852 46.2595 286.984 46.2595 285.542ZM53.6262 282.098V289H55.1522V285.458C55.1522 284.03 55.8942 283.232 57.0422 283.232C58.0642 283.232 58.6662 283.778 58.6662 284.94V289H60.2062V284.856C60.2062 283.092 59.0862 281.972 57.5042 281.972C56.1882 281.972 55.5722 282.56 55.2642 283.162H55.1242V282.098H53.6262ZM62.1507 283.89L63.5787 284.366C63.7187 283.652 64.2087 283.134 65.1747 283.134C66.1407 283.134 66.6027 283.68 66.6027 284.422V284.842H64.5587C63.0187 284.842 61.9127 285.57 61.9127 286.998C61.9127 288.398 63.0187 289.196 64.4467 289.196C65.7627 289.196 66.2527 288.51 66.4487 288.132H66.6307V289H68.1007V284.534C68.1007 282.84 66.9807 281.888 65.1887 281.888C63.4107 281.888 62.4867 282.812 62.1507 283.89ZM63.4527 286.956C63.4527 286.382 63.9147 286.032 64.6567 286.032H66.6027V286.158C66.6027 287.25 65.8327 287.936 64.7407 287.936C63.9147 287.936 63.4527 287.544 63.4527 286.956ZM71.6875 279.2H70.1615V289H71.6875V279.2ZM78.2479 279.2V289H84.6739V287.53H79.8719V284.8H84.1979V283.33H79.8719V280.67H84.5899V279.2H78.2479ZM87.9319 279.2H86.4059V289H87.9319V279.2ZM89.6595 285.514C89.6595 287.684 91.0875 289.196 93.1875 289.196C95.0915 289.196 95.9035 288.104 96.3095 287.376L95.0355 286.69C94.7555 287.292 94.2655 287.866 93.2155 287.866C92.1095 287.866 91.2975 287.096 91.2415 286.032H96.4775V285.402C96.4775 283.288 95.1335 281.888 93.1315 281.888C91.1015 281.888 89.6595 283.358 89.6595 285.514ZM91.2555 284.842C91.3815 283.876 92.0535 283.218 93.1175 283.218C94.1395 283.218 94.8255 283.848 94.9095 284.842H91.2555ZM97.7084 285.542C97.7084 287.684 99.2904 289.196 101.306 289.196C103.21 289.196 104.344 288.062 104.708 286.55L103.21 286.2C103.056 287.166 102.468 287.852 101.32 287.852C100.144 287.852 99.2484 286.97 99.2484 285.542C99.2484 284.128 100.144 283.246 101.32 283.246C102.44 283.246 103.056 283.946 103.168 284.87L104.652 284.562C104.372 283.036 103.196 281.902 101.292 281.902C99.2904 281.902 97.7084 283.4 97.7084 285.542ZM105.517 283.344H107.379V287.572C107.379 288.44 107.939 289 108.779 289H110.725V287.74H109.311C109.059 287.74 108.919 287.6 108.919 287.32V283.344H110.935V282.098H108.919V279.844H107.379V282.098H105.517V283.344ZM112.276 280.04C112.276 280.684 112.766 281.132 113.41 281.132C114.054 281.132 114.544 280.684 114.544 280.04C114.544 279.382 114.054 278.934 113.41 278.934C112.766 278.934 112.276 279.382 112.276 280.04ZM114.18 282.098H112.654V289H114.18V282.098ZM115.586 282.098L118.064 289H120.318L122.782 282.098H121.116L119.254 287.684H119.114L117.252 282.098H115.586ZM123.615 285.514C123.615 287.684 125.043 289.196 127.143 289.196C129.047 289.196 129.859 288.104 130.265 287.376L128.991 286.69C128.711 287.292 128.221 287.866 127.171 287.866C126.065 287.866 125.253 287.096 125.197 286.032H130.433V285.402C130.433 283.288 129.089 281.888 127.087 281.888C125.057 281.888 123.615 283.358 123.615 285.514ZM125.211 284.842C125.337 283.876 126.009 283.218 127.073 283.218C128.095 283.218 128.781 283.848 128.865 284.842H125.211ZM131.944 283.988C131.944 285.304 133.036 285.822 134.436 286.074L134.912 286.158C135.822 286.326 136.284 286.55 136.284 287.082C136.284 287.614 135.794 288.006 134.912 288.006C134.016 288.006 133.288 287.642 133.092 286.508L131.664 286.858C131.902 288.398 133.134 289.196 134.912 289.196C136.648 289.196 137.768 288.384 137.768 286.97C137.768 285.556 136.634 285.15 135.122 284.87L134.646 284.786C133.89 284.646 133.428 284.422 133.428 283.89C133.428 283.386 133.876 283.078 134.632 283.078C135.388 283.078 135.934 283.4 136.102 284.24L137.502 283.82C137.194 282.658 136.186 281.902 134.632 281.902C133.008 281.902 131.944 282.658 131.944 283.988Z" fill="#434343"/>
<rect width="78" height="48" transform="translate(94 346) rotate(180)" fill="#1F5F57"/>
<path d="M44.968 316.7L42.084 326.5H43.75L44.408 324.218H48.048L48.706 326.5H50.358L47.474 316.7H44.968ZM44.8 322.748L46.158 318.058H46.298L47.642 322.748H44.8ZM51.4855 317.54C51.4855 318.184 51.9755 318.632 52.6195 318.632C53.2635 318.632 53.7535 318.184 53.7535 317.54C53.7535 316.882 53.2635 316.434 52.6195 316.434C51.9755 316.434 51.4855 316.882 51.4855 317.54ZM53.3895 319.598H51.8635V326.5H53.3895V319.598ZM63.5063 316.7L59.4603 323.14V324.554H64.4303V326.5H66.0543V324.554H67.6783V323.084H66.0543V316.7H63.5063ZM64.2623 318.114H64.4303V323.084H61.1543L64.2623 318.114Z" fill="white"/>
<rect width="250" height="48" transform="translate(94 298)" fill="#B49848"/>
<path d="M108.996 312.12C108.996 310.56 107.88 309.6 106.344 309.6H102.816V318H104.004V314.64H105.768L107.484 318H108.84L107.004 314.58C108.168 314.34 108.996 313.44 108.996 312.12ZM104.004 310.668H106.224C107.208 310.668 107.808 311.22 107.808 312.12C107.808 313.032 107.208 313.584 106.224 313.584H104.004V310.668ZM109.935 315.012C109.935 316.824 111.147 318.168 112.971 318.168C114.591 318.168 115.275 317.232 115.635 316.62L114.699 316.092C114.411 316.668 113.931 317.184 112.971 317.184C111.903 317.184 111.159 316.464 111.087 315.444H115.731V314.892C115.731 313.08 114.567 311.94 112.887 311.94C111.171 311.94 109.935 313.212 109.935 315.012ZM111.099 314.532C111.219 313.548 111.867 312.924 112.887 312.924C113.859 312.924 114.519 313.512 114.579 314.532H111.099ZM116.736 310.32C116.736 310.812 117.108 311.172 117.6 311.172C118.104 311.172 118.476 310.812 118.476 310.32C118.476 309.816 118.104 309.456 117.6 309.456C117.108 309.456 116.736 309.816 116.736 310.32ZM118.164 312.108H117.036V318H118.164V312.108ZM119.887 312.108V318H121.015V315C121.015 313.656 121.723 312.936 122.779 312.936C123.727 312.936 124.303 313.428 124.303 314.508V318H125.419V314.448C125.419 312.912 124.423 312 123.103 312C121.939 312 121.375 312.528 121.111 313.056H120.991V312.108H119.887ZM126.38 312.108V313.032H128.096V318H129.224V313.032H130.976V312.108H129.224V310.884C129.224 310.644 129.344 310.524 129.56 310.524H130.736V309.6H129.188C128.528 309.6 128.096 310.02 128.096 310.704V312.108H126.38ZM131.755 315.06C131.755 316.932 133.015 318.168 134.791 318.168C136.567 318.168 137.839 316.932 137.839 315.06C137.839 313.176 136.567 311.94 134.791 311.94C133.015 311.94 131.755 313.176 131.755 315.06ZM132.883 315.06C132.883 313.788 133.651 312.936 134.791 312.936C135.931 312.936 136.711 313.764 136.711 315.06C136.711 316.344 135.931 317.172 134.791 317.172C133.651 317.172 132.883 316.368 132.883 315.06ZM140.3 312.108H139.196V318H140.324V314.448C140.324 313.5 140.876 313.056 141.704 313.056H142.628V312.084H141.896C141.116 312.084 140.648 312.312 140.42 312.9H140.3V312.108ZM143.104 315.06C143.104 316.884 144.46 318.168 146.164 318.168C147.784 318.168 148.744 317.196 149.032 315.924L147.94 315.672C147.784 316.548 147.232 317.172 146.176 317.172C145.084 317.172 144.244 316.332 144.244 315.06C144.244 313.776 145.072 312.936 146.176 312.936C147.184 312.936 147.796 313.572 147.892 314.424L148.996 314.196C148.768 312.936 147.76 311.94 146.164 311.94C144.46 311.94 143.104 313.224 143.104 315.06ZM149.986 315.012C149.986 316.824 151.198 318.168 153.022 318.168C154.642 318.168 155.326 317.232 155.686 316.62L154.75 316.092C154.462 316.668 153.982 317.184 153.022 317.184C151.954 317.184 151.21 316.464 151.138 315.444H155.782V314.892C155.782 313.08 154.618 311.94 152.938 311.94C151.222 311.94 149.986 313.212 149.986 315.012ZM151.15 314.532C151.27 313.548 151.918 312.924 152.938 312.924C153.91 312.924 154.57 313.512 154.63 314.532H151.15ZM157.087 312.108V318H158.215V314.448C158.215 313.476 158.755 312.936 159.559 312.936C160.315 312.936 160.747 313.38 160.747 314.124V318H161.875V314.448C161.875 313.476 162.415 312.936 163.219 312.936C163.975 312.936 164.419 313.38 164.419 314.124V318H165.535V314.052C165.535 312.744 164.695 312 163.555 312C162.607 312 162.079 312.42 161.767 313.02H161.647C161.383 312.432 160.855 312 159.955 312C159.079 312 158.575 312.372 158.311 312.864H158.191V312.108H157.087ZM166.831 315.012C166.831 316.824 168.043 318.168 169.867 318.168C171.487 318.168 172.171 317.232 172.531 316.62L171.595 316.092C171.307 316.668 170.827 317.184 169.867 317.184C168.799 317.184 168.055 316.464 167.983 315.444H172.627V314.892C172.627 313.08 171.463 311.94 169.783 311.94C168.067 311.94 166.831 313.212 166.831 315.012ZM167.995 314.532C168.115 313.548 168.763 312.924 169.783 312.924C170.755 312.924 171.415 313.512 171.475 314.532H167.995ZM173.933 312.108V318H175.061V315C175.061 313.656 175.769 312.936 176.825 312.936C177.773 312.936 178.349 313.428 178.349 314.508V318H179.465V314.448C179.465 312.912 178.469 312 177.149 312C175.985 312 175.421 312.528 175.157 313.056H175.037V312.108H173.933ZM180.294 313.032H181.998V316.896C181.998 317.568 182.43 318 183.09 318H184.722V317.076H183.462C183.246 317.076 183.126 316.956 183.126 316.716V313.032H184.95V312.108H183.126V310.092H181.998V312.108H180.294V313.032ZM189.949 309.6V318H195.325V316.932H191.137V309.6H189.949ZM196.072 315.012C196.072 316.824 197.284 318.168 199.108 318.168C200.728 318.168 201.412 317.232 201.772 316.62L200.836 316.092C200.548 316.668 200.068 317.184 199.108 317.184C198.04 317.184 197.296 316.464 197.224 315.444H201.868V314.892C201.868 313.08 200.704 311.94 199.024 311.94C197.308 311.94 196.072 313.212 196.072 315.012ZM197.236 314.532C197.356 313.548 198.004 312.924 199.024 312.924C199.996 312.924 200.656 313.512 200.716 314.532H197.236ZM203.006 313.692L204.062 314.028C204.206 313.356 204.686 312.864 205.574 312.864C206.474 312.864 206.918 313.368 206.918 314.1V314.484H205.046C203.762 314.484 202.814 315.096 202.814 316.308C202.814 317.496 203.762 318.168 204.986 318.168C206.126 318.168 206.582 317.604 206.798 317.208H206.942V318H208.022V314.172C208.022 312.756 207.098 311.94 205.586 311.94C204.086 311.94 203.294 312.732 203.006 313.692ZM203.942 316.284C203.942 315.708 204.41 315.396 205.106 315.396H206.918V315.516C206.918 316.584 206.21 317.244 205.178 317.244C204.41 317.244 203.942 316.86 203.942 316.284ZM210.784 312.108H209.68V318H210.808V314.448C210.808 313.5 211.36 313.056 212.188 313.056H213.112V312.084H212.38C211.6 312.084 211.132 312.312 210.904 312.9H210.784V312.108ZM214.218 312.108V318H215.346V315C215.346 313.656 216.054 312.936 217.11 312.936C218.058 312.936 218.634 313.428 218.634 314.508V318H219.75V314.448C219.75 312.912 218.754 312 217.434 312C216.27 312 215.706 312.528 215.442 313.056H215.322V312.108H214.218ZM221.104 310.32C221.104 310.812 221.476 311.172 221.968 311.172C222.472 311.172 222.844 310.812 222.844 310.32C222.844 309.816 222.472 309.456 221.968 309.456C221.476 309.456 221.104 309.816 221.104 310.32ZM222.532 312.108H221.404V318H222.532V312.108ZM224.255 312.108V318H225.383V315C225.383 313.656 226.091 312.936 227.147 312.936C228.095 312.936 228.671 313.428 228.671 314.508V318H229.787V314.448C229.787 312.912 228.791 312 227.471 312C226.307 312 225.743 312.528 225.479 313.056H225.359V312.108H224.255ZM236.061 312.108V313.056H235.941C235.581 312.468 234.957 311.94 233.805 311.94C232.317 311.94 231.069 313.14 231.069 314.976C231.069 316.824 232.317 318.012 233.805 318.012C234.957 318.012 235.581 317.472 235.917 316.944H236.037V317.64C236.037 318.948 235.269 319.608 234.117 319.608C232.977 319.608 232.413 318.948 232.197 318.252L231.177 318.672C231.465 319.536 232.353 320.568 234.141 320.568C235.953 320.568 237.165 319.536 237.165 317.688V312.108H236.061ZM234.117 317.04C233.001 317.04 232.209 316.248 232.209 314.976C232.209 313.716 233.001 312.924 234.117 312.924C235.233 312.924 236.049 313.716 236.049 314.976C236.049 316.236 235.233 317.04 234.117 317.04ZM246.204 309.6H244.752C243.384 309.6 242.304 310.38 242.304 311.832C242.304 312.864 242.904 313.428 243.66 313.668V313.812C242.892 314.064 242.232 314.712 242.232 315.768C242.232 317.184 243.276 318 244.704 318H247.548V314.232H248.7V313.284H247.548V312.048H246.432V313.284H244.92C244.116 313.284 243.432 312.864 243.432 311.916C243.432 310.992 244.092 310.548 244.92 310.548H246.204V309.6ZM244.872 314.232H246.432V317.052H244.872C244.056 317.052 243.372 316.608 243.372 315.636C243.372 314.688 244.032 314.232 244.872 314.232ZM253.278 314.724C253.278 316.92 254.574 318.168 256.65 318.168C258.642 318.168 259.818 317.004 259.818 315.072V313.932H256.29V314.952H258.654V315.18C258.654 316.38 257.994 317.112 256.65 317.112C255.294 317.112 254.466 316.212 254.466 314.748V312.852C254.466 311.388 255.294 310.488 256.662 310.488C257.958 310.488 258.582 311.268 258.582 312.384V312.516H259.77V312.396C259.77 310.608 258.702 309.432 256.662 309.432C254.598 309.432 253.278 310.68 253.278 312.876V314.724ZM260.907 315.012C260.907 316.824 262.119 318.168 263.943 318.168C265.563 318.168 266.247 317.232 266.607 316.62L265.671 316.092C265.383 316.668 264.903 317.184 263.943 317.184C262.875 317.184 262.131 316.464 262.059 315.444H266.703V314.892C266.703 313.08 265.539 311.94 263.859 311.94C262.143 311.94 260.907 313.212 260.907 315.012ZM262.071 314.532C262.191 313.548 262.839 312.924 263.859 312.924C264.831 312.924 265.491 313.512 265.551 314.532H262.071ZM268.009 312.108V318H269.137V315C269.137 313.656 269.845 312.936 270.901 312.936C271.849 312.936 272.425 313.428 272.425 314.508V318H273.541V314.448C273.541 312.912 272.545 312 271.225 312C270.061 312 269.497 312.528 269.233 313.056H269.113V312.108H268.009ZM274.823 315.012C274.823 316.824 276.035 318.168 277.859 318.168C279.479 318.168 280.163 317.232 280.523 316.62L279.587 316.092C279.299 316.668 278.819 317.184 277.859 317.184C276.791 317.184 276.047 316.464 275.975 315.444H280.619V314.892C280.619 313.08 279.455 311.94 277.775 311.94C276.059 311.94 274.823 313.212 274.823 315.012ZM275.987 314.532C276.107 313.548 276.755 312.924 277.775 312.924C278.747 312.924 279.407 313.512 279.467 314.532H275.987ZM283.029 312.108H281.925V318H283.053V314.448C283.053 313.5 283.605 313.056 284.433 313.056H285.357V312.084H284.625C283.845 312.084 283.377 312.312 283.149 312.9H283.029V312.108ZM286.26 313.692L287.316 314.028C287.46 313.356 287.94 312.864 288.828 312.864C289.728 312.864 290.172 313.368 290.172 314.1V314.484H288.3C287.016 314.484 286.068 315.096 286.068 316.308C286.068 317.496 287.016 318.168 288.24 318.168C289.38 318.168 289.836 317.604 290.052 317.208H290.196V318H291.276V314.172C291.276 312.756 290.352 311.94 288.84 311.94C287.34 311.94 286.548 312.732 286.26 313.692ZM287.196 316.284C287.196 315.708 287.664 315.396 288.36 315.396H290.172V315.516C290.172 316.584 289.464 317.244 288.432 317.244C287.664 317.244 287.196 316.86 287.196 316.284ZM292.109 313.032H293.813V316.896C293.813 317.568 294.245 318 294.905 318H296.537V317.076H295.277C295.061 317.076 294.941 316.956 294.941 316.716V313.032H296.765V312.108H294.941V310.092H293.813V312.108H292.109V313.032ZM297.781 310.32C297.781 310.812 298.153 311.172 298.645 311.172C299.149 311.172 299.521 310.812 299.521 310.32C299.521 309.816 299.149 309.456 298.645 309.456C298.153 309.456 297.781 309.816 297.781 310.32ZM299.209 312.108H298.081V318H299.209V312.108ZM300.308 312.108L302.48 318H304.112L306.296 312.108H305.072L303.356 317.004H303.236L301.532 312.108H300.308ZM306.914 315.012C306.914 316.824 308.126 318.168 309.95 318.168C311.57 318.168 312.254 317.232 312.614 316.62L311.678 316.092C311.39 316.668 310.91 317.184 309.95 317.184C308.882 317.184 308.138 316.464 308.066 315.444H312.71V314.892C312.71 313.08 311.546 311.94 309.866 311.94C308.15 311.94 306.914 313.212 306.914 315.012ZM308.078 314.532C308.198 313.548 308.846 312.924 309.866 312.924C310.838 312.924 311.498 313.512 311.558 314.532H308.078ZM102.816 325.6V334H103.98V326.836H104.1L106.404 334H108.084L110.376 326.836H110.496V334H111.66V325.6H109.608L107.304 332.788H107.184L104.868 325.6H102.816ZM113.029 331.06C113.029 332.932 114.289 334.168 116.065 334.168C117.841 334.168 119.113 332.932 119.113 331.06C119.113 329.176 117.841 327.94 116.065 327.94C114.289 327.94 113.029 329.176 113.029 331.06ZM114.157 331.06C114.157 329.788 114.925 328.936 116.065 328.936C117.205 328.936 117.985 329.764 117.985 331.06C117.985 332.344 117.205 333.172 116.065 333.172C114.925 333.172 114.157 332.368 114.157 331.06ZM126.194 325.6H125.066V329.02H124.946C124.61 328.468 123.998 327.94 122.834 327.94C121.346 327.94 120.098 329.152 120.098 331.06C120.098 332.968 121.346 334.168 122.834 334.168C123.998 334.168 124.61 333.64 124.97 333.064H125.09V334H126.194V325.6ZM123.146 328.924C124.262 328.924 125.078 329.728 125.078 331.06C125.078 332.38 124.262 333.184 123.146 333.184C122.03 333.184 121.238 332.392 121.238 331.06C121.238 329.716 122.03 328.924 123.146 328.924ZM127.554 331.012C127.554 332.824 128.766 334.168 130.59 334.168C132.21 334.168 132.894 333.232 133.254 332.62L132.318 332.092C132.03 332.668 131.55 333.184 130.59 333.184C129.522 333.184 128.778 332.464 128.706 331.444H133.35V330.892C133.35 329.08 132.186 327.94 130.506 327.94C128.79 327.94 127.554 329.212 127.554 331.012ZM128.718 330.532C128.838 329.548 129.486 328.924 130.506 328.924C131.478 328.924 132.138 329.512 132.198 330.532H128.718ZM135.783 325.6H134.655V334H135.783V325.6ZM137.386 329.68C137.386 330.772 138.298 331.216 139.438 331.42L139.942 331.504C140.758 331.636 141.214 331.864 141.214 332.38C141.214 332.92 140.722 333.28 139.894 333.28C139.066 333.28 138.37 332.932 138.19 331.852L137.134 332.116C137.35 333.496 138.406 334.168 139.894 334.168C141.346 334.168 142.306 333.484 142.306 332.308C142.306 331.12 141.358 330.76 140.11 330.544L139.606 330.472C138.934 330.352 138.49 330.136 138.49 329.62C138.49 329.128 138.934 328.828 139.654 328.828C140.374 328.828 140.89 329.128 141.058 329.92L142.09 329.62C141.838 328.588 140.974 327.94 139.654 327.94C138.274 327.94 137.386 328.588 137.386 329.68Z" fill="white"/>
<path d="M16 370V382H344V370" stroke="#787878"/>
<path d="M148.882 396.76C148.882 398.944 150.202 400.168 152.29 400.168C154.354 400.168 155.554 398.98 155.554 397.156V396.868H154.174V397.18C154.174 398.164 153.55 398.932 152.29 398.932C151.042 398.932 150.274 398.116 150.274 396.784V394.816C150.274 393.484 151.03 392.668 152.29 392.668C153.526 392.668 154.174 393.448 154.174 394.432V394.66H155.554V394.456C155.554 392.62 154.378 391.432 152.29 391.432C150.202 391.432 148.882 392.656 148.882 394.84V396.76ZM156.67 397.036C156.67 398.956 157.978 400.168 159.754 400.168C161.53 400.168 162.826 398.956 162.826 397.036C162.826 395.128 161.53 393.916 159.754 393.916C157.978 393.916 156.67 395.128 156.67 397.036ZM157.99 397.036C157.99 395.824 158.71 395.068 159.754 395.068C160.786 395.068 161.506 395.812 161.506 397.036C161.506 398.26 160.786 399.016 159.754 399.016C158.71 399.016 157.99 398.272 157.99 397.036ZM169.944 400V394.084H168.636V397.12C168.636 398.332 168 399.016 167.016 399.016C166.14 399.016 165.624 398.548 165.624 397.564V394.084H164.304V397.636C164.304 399.136 165.264 400.096 166.62 400.096C167.748 400.096 168.276 399.604 168.54 399.076H168.66V400H169.944ZM173.073 394.084H171.789V400H173.097V396.496C173.097 395.596 173.661 395.176 174.453 395.176H175.365V394.06H174.681C173.913 394.06 173.433 394.288 173.193 394.9H173.073V394.084ZM176.377 395.704C176.377 396.832 177.313 397.276 178.513 397.492L178.921 397.564C179.701 397.708 180.097 397.9 180.097 398.356C180.097 398.812 179.677 399.148 178.921 399.148C178.153 399.148 177.529 398.836 177.361 397.864L176.137 398.164C176.341 399.484 177.397 400.168 178.921 400.168C180.409 400.168 181.369 399.472 181.369 398.26C181.369 397.048 180.397 396.7 179.101 396.46L178.693 396.388C178.045 396.268 177.649 396.076 177.649 395.62C177.649 395.188 178.033 394.924 178.681 394.924C179.329 394.924 179.797 395.2 179.941 395.92L181.141 395.56C180.877 394.564 180.013 393.916 178.681 393.916C177.289 393.916 176.377 394.564 176.377 395.704ZM182.485 397.012C182.485 398.872 183.709 400.168 185.509 400.168C187.141 400.168 187.837 399.232 188.185 398.608L187.093 398.02C186.853 398.536 186.433 399.028 185.533 399.028C184.585 399.028 183.889 398.368 183.841 397.456H188.329V396.916C188.329 395.104 187.177 393.904 185.461 393.904C183.721 393.904 182.485 395.164 182.485 397.012ZM183.853 396.436C183.961 395.608 184.537 395.044 185.449 395.044C186.325 395.044 186.913 395.584 186.985 396.436H183.853ZM189.624 395.704C189.624 396.832 190.56 397.276 191.76 397.492L192.168 397.564C192.948 397.708 193.344 397.9 193.344 398.356C193.344 398.812 192.924 399.148 192.168 399.148C191.4 399.148 190.776 398.836 190.608 397.864L189.384 398.164C189.588 399.484 190.644 400.168 192.168 400.168C193.656 400.168 194.616 399.472 194.616 398.26C194.616 397.048 193.644 396.7 192.348 396.46L191.94 396.388C191.292 396.268 190.896 396.076 190.896 395.62C190.896 395.188 191.28 394.924 191.928 394.924C192.576 394.924 193.044 395.2 193.188 395.92L194.388 395.56C194.124 394.564 193.26 393.916 191.928 393.916C190.536 393.916 189.624 394.564 189.624 395.704Z" fill="#787878"/>
<path d="M16.882 4.2L16.882 14H18.45L18.45 5.88H18.59L20.998 14H23.28L25.674 5.88H25.814L25.814 14H27.396L27.396 4.2H24.61L22.202 12.362H22.062L19.668 4.2H16.882ZM29.4393 8.89L30.8673 9.366C31.0073 8.652 31.4973 8.134 32.4633 8.134C33.4293 8.134 33.8913 8.68 33.8913 9.422L33.8913 9.842H31.8473C30.3073 9.842 29.2013 10.57 29.2013 11.998C29.2013 13.398 30.3073 14.196 31.7353 14.196C33.0513 14.196 33.5413 13.51 33.7373 13.132H33.9193L33.9193 14H35.3893L35.3893 9.534C35.3893 7.84 34.2693 6.888 32.4773 6.888C30.6993 6.888 29.7753 7.812 29.4393 8.89ZM30.7413 11.956C30.7413 11.382 31.2033 11.032 31.9453 11.032H33.8913L33.8913 11.158C33.8913 12.25 33.1213 12.936 32.0293 12.936C31.2033 12.936 30.7413 12.544 30.7413 11.956ZM37.3242 8.988C37.3242 10.304 38.4162 10.822 39.8162 11.074L40.2922 11.158C41.2022 11.326 41.6642 11.55 41.6642 12.082C41.6642 12.614 41.1742 13.006 40.2922 13.006C39.3962 13.006 38.6682 12.642 38.4722 11.508L37.0442 11.858C37.2822 13.398 38.5142 14.196 40.2922 14.196C42.0282 14.196 43.1482 13.384 43.1482 11.97C43.1482 10.556 42.0142 10.15 40.5022 9.87L40.0262 9.786C39.2702 9.646 38.8082 9.422 38.8082 8.89C38.8082 8.386 39.2562 8.078 40.0122 8.078C40.7682 8.078 41.3142 8.4 41.4822 9.24L42.8822 8.82C42.5742 7.658 41.5662 6.902 40.0122 6.902C38.3882 6.902 37.3242 7.658 37.3242 8.988ZM44.0725 8.344H45.9345L45.9345 12.572C45.9345 13.44 46.4945 14 47.3345 14H49.2805L49.2805 12.74H47.8665C47.6145 12.74 47.4745 12.6 47.4745 12.32L47.4745 8.344H49.4905L49.4905 7.098H47.4745L47.4745 4.844H45.9345L45.9345 7.098H44.0725L44.0725 8.344ZM50.6257 10.514C50.6257 12.684 52.0537 14.196 54.1537 14.196C56.0577 14.196 56.8697 13.104 57.2757 12.376L56.0017 11.69C55.7217 12.292 55.2317 12.866 54.1817 12.866C53.0757 12.866 52.2637 12.096 52.2077 11.032H57.4437L57.4437 10.402C57.4437 8.288 56.0997 6.888 54.0977 6.888C52.0677 6.888 50.6257 8.358 50.6257 10.514ZM52.2217 9.842C52.3477 8.876 53.0197 8.218 54.0837 8.218C55.1057 8.218 55.7917 8.848 55.8757 9.842H52.2217ZM60.6066 7.098H59.1086L59.1086 14L60.6346 14L60.6346 9.912C60.6346 8.862 61.2926 8.372 62.2166 8.372H63.2806L63.2806 7.07H62.4826C61.5866 7.07 61.0266 7.336 60.7466 8.05H60.6066L60.6066 7.098ZM69.1228 4.2L69.1228 14H70.6908L70.6908 5.88H70.8308L73.2388 14H75.5208L77.9148 5.88H78.0548L78.0548 14H79.6368L79.6368 4.2H76.8508L74.4428 12.362H74.3028L71.9088 4.2H69.1228ZM81.8201 4.2L81.8201 14H88.1481L88.1481 12.53H83.4441L83.4441 4.2H81.8201ZM98.1791 4.2H96.5691C94.9311 4.2 93.6851 5.124 93.6851 6.818C93.6851 7.994 94.3711 8.666 95.2811 8.932L95.2811 9.128C94.3711 9.408 93.6291 10.164 93.6291 11.368C93.6291 13.02 94.8191 14 96.5131 14H99.9291L99.9291 9.688H101.245L101.245 8.4H99.9291L99.9291 7.056H98.3891L98.3891 8.4H96.8351C95.9671 8.4 95.2391 7.966 95.2391 6.944C95.2391 5.964 95.9251 5.488 96.8351 5.488H98.1791L98.1791 4.2ZM96.7791 9.688H98.3891L98.3891 12.712H96.7791C95.9111 12.712 95.1691 12.236 95.1691 11.2C95.1691 10.192 95.8691 9.688 96.7791 9.688ZM109.252 4.2L106.368 14H108.034L108.692 11.718H112.332L112.99 14H114.642L111.758 4.2L109.252 4.2ZM109.084 10.248L110.442 5.558H110.582L111.926 10.248H109.084ZM116.022 4.2L116.022 14L117.646 14L117.646 4.2H116.022Z" fill="#1E2029"/>
</g>
<defs>
<clipPath id="clip0_5460_5154">
<rect width="360" height="404" fill="white"/>
</clipPath>
</defs>
</svg>
