<svg width="360" height="473" viewBox="0 0 360 473" fill="none" xmlns="http://www.w3.org/2000/svg">
<g clip-path="url(#clip0)">
<rect width="360" height="473" fill="white"/>
<rect width="79.4847" height="35" transform="translate(95.4844 78) rotate(180)" fill="#DCE0FA"/>
<path d="M46.7102 55.2L43.8262 65L45.4922 65L46.1502 62.718L49.7902 62.718L50.4482 65L52.1002 65L49.2162 55.2L46.7102 55.2ZM46.5422 61.248L47.9002 56.558L48.0402 56.558L49.3842 61.248L46.5422 61.248ZM53.6197 55.2L53.6197 65L55.2437 65L55.2437 55.2L53.6197 55.2ZM63.8312 55.2L61.2412 59.568L62.9632 59.568L64.5172 56.922L64.6852 56.922L64.6852 65L66.3092 65L66.3092 55.2L63.8312 55.2Z" fill="#1E2029"/>
<rect width="248.515" height="35" transform="translate(95.4844 43)" fill="#E3C668"/>
<path d="M106.028 54.6L103.556 63H104.984L105.548 61.044H108.668L109.232 63H110.648L108.176 54.6H106.028ZM105.884 59.784L107.048 55.764H107.168L108.32 59.784H105.884ZM111.591 54.6V63H112.983V54.6H111.591ZM118.136 54.6V63H121.856C123.296 63 124.34 62.148 124.34 60.732C124.34 59.508 123.524 58.992 122.912 58.824V58.704C123.524 58.524 124.304 58.032 124.304 56.82C124.304 55.452 123.284 54.6 121.832 54.6H118.136ZM119.528 55.86H121.688C122.456 55.86 122.972 56.304 122.972 57C122.972 57.696 122.468 58.152 121.688 58.152H119.528V55.86ZM119.528 59.4H121.688C122.516 59.4 123.008 59.844 123.008 60.576C123.008 61.284 122.516 61.74 121.712 61.74H119.528V59.4ZM125.53 58.62L126.754 59.028C126.874 58.416 127.294 57.972 128.122 57.972C128.95 57.972 129.346 58.44 129.346 59.076V59.436H127.594C126.274 59.436 125.326 60.06 125.326 61.284C125.326 62.484 126.274 63.168 127.498 63.168C128.626 63.168 129.046 62.58 129.214 62.256H129.37V63H130.63V59.172C130.63 57.72 129.67 56.904 128.134 56.904C126.61 56.904 125.818 57.696 125.53 58.62ZM126.646 61.248C126.646 60.756 127.042 60.456 127.678 60.456H129.346V60.564C129.346 61.5 128.686 62.088 127.75 62.088C127.042 62.088 126.646 61.752 126.646 61.248ZM132.049 58.704C132.049 59.832 132.985 60.276 134.185 60.492L134.593 60.564C135.373 60.708 135.769 60.9 135.769 61.356C135.769 61.812 135.349 62.148 134.593 62.148C133.825 62.148 133.201 61.836 133.033 60.864L131.809 61.164C132.013 62.484 133.069 63.168 134.593 63.168C136.081 63.168 137.041 62.472 137.041 61.26C137.041 60.048 136.069 59.7 134.773 59.46L134.365 59.388C133.717 59.268 133.321 59.076 133.321 58.62C133.321 58.188 133.705 57.924 134.353 57.924C135.001 57.924 135.469 58.2 135.613 58.92L136.813 58.56C136.549 57.564 135.685 56.916 134.353 56.916C132.961 56.916 132.049 57.564 132.049 58.704ZM137.964 55.32C137.964 55.872 138.384 56.256 138.936 56.256C139.488 56.256 139.908 55.872 139.908 55.32C139.908 54.756 139.488 54.372 138.936 54.372C138.384 54.372 137.964 54.756 137.964 55.32ZM139.596 57.084H138.288V63H139.596V57.084ZM140.837 60.036C140.837 61.872 142.193 63.168 143.921 63.168C145.553 63.168 146.525 62.196 146.837 60.9L145.553 60.6C145.421 61.428 144.917 62.016 143.933 62.016C142.925 62.016 142.157 61.26 142.157 60.036C142.157 58.824 142.925 58.068 143.933 58.068C144.893 58.068 145.421 58.668 145.517 59.46L146.789 59.196C146.549 57.888 145.541 56.916 143.909 56.916C142.193 56.916 140.837 58.2 140.837 60.036ZM147.889 58.704C147.889 59.832 148.825 60.276 150.025 60.492L150.433 60.564C151.213 60.708 151.609 60.9 151.609 61.356C151.609 61.812 151.189 62.148 150.433 62.148C149.665 62.148 149.041 61.836 148.873 60.864L147.649 61.164C147.853 62.484 148.909 63.168 150.433 63.168C151.921 63.168 152.881 62.472 152.881 61.26C152.881 60.048 151.909 59.7 150.613 59.46L150.205 59.388C149.557 59.268 149.161 59.076 149.161 58.62C149.161 58.188 149.545 57.924 150.193 57.924C150.841 57.924 151.309 58.2 151.453 58.92L152.653 58.56C152.389 57.564 151.525 56.916 150.193 56.916C148.801 56.916 147.889 57.564 147.889 58.704Z" fill="white"/>
<rect width="79.4847" height="32" transform="translate(95.4844 116) rotate(180)" fill="#DCE0FA"/>
<path d="M45.7102 94.7L42.8262 104.5L44.4922 104.5L45.1502 102.218L48.7902 102.218L49.4482 104.5L51.1002 104.5L48.2162 94.7L45.7102 94.7ZM45.5422 100.748L46.9002 96.058L47.0402 96.058L48.3842 100.748L45.5422 100.748ZM52.6197 94.7L52.6197 104.5L54.2437 104.5L54.2437 94.7L52.6197 94.7ZM60.6892 97.948L60.6892 98.284L62.2992 98.284L62.2992 97.976C62.2992 96.604 63.2092 95.946 64.3432 95.946C65.4492 95.946 66.1912 96.59 66.1912 97.682C66.1912 98.886 65.3232 99.418 63.8392 99.81C61.9912 100.286 60.7032 101.126 60.7032 102.974L60.7032 104.5L67.7732 104.5L67.7732 103.03L62.3272 103.03L62.3272 102.834C62.3272 101.742 63.1392 101.434 64.6092 101.056C66.6532 100.538 67.8152 99.628 67.8152 97.724C67.8152 95.736 66.2332 94.504 64.3152 94.504C62.3412 94.504 60.6892 95.694 60.6892 97.948Z" fill="#1E2029"/>
<rect width="248.515" height="32" transform="translate(95.4844 84)" fill="#E3C668"/>
<path d="M103.928 100.76C103.928 102.944 105.248 104.168 107.336 104.168C109.4 104.168 110.6 102.98 110.6 101.156V100.868H109.22V101.18C109.22 102.164 108.596 102.932 107.336 102.932C106.088 102.932 105.32 102.116 105.32 100.784V98.816C105.32 97.484 106.076 96.668 107.336 96.668C108.572 96.668 109.22 97.448 109.22 98.432V98.66H110.6V98.456C110.6 96.62 109.424 95.432 107.336 95.432C105.248 95.432 103.928 96.656 103.928 98.84V100.76ZM111.86 95.6V104H113.252V97.016H113.372L115.808 104H118.184V95.6H116.804V102.584H116.684L114.236 95.6H111.86ZM119.82 95.6V104H121.212V97.016H121.332L123.768 104H126.144V95.6H124.764V102.584H124.644L122.196 95.6H119.82Z" fill="white"/>
<rect width="79" height="35" transform="translate(95 157) rotate(180)" fill="#DCE0FA"/>
<path d="M41.882 134.2L41.882 144H45.102C47.72 144 49.134 142.67 49.134 140.01V138.19C49.134 135.53 47.72 134.2 45.102 134.2H41.882ZM43.506 135.67H45.116C46.74 135.67 47.524 136.51 47.524 138.134V140.066C47.524 141.69 46.754 142.53 45.116 142.53H43.506V135.67ZM54.33 134.004C52.272 134.004 50.928 135.054 50.928 136.804C50.928 138.54 52.076 139.226 54.022 139.66L54.484 139.758C55.758 140.052 56.486 140.374 56.486 141.27C56.486 142.152 55.772 142.768 54.428 142.768C53.07 142.768 52.216 142.124 52.216 140.78V140.654H50.62V140.78C50.62 142.978 52.202 144.196 54.428 144.196C56.654 144.196 58.082 142.992 58.082 141.228C58.082 139.464 56.766 138.75 54.806 138.33L54.344 138.218C53.112 137.938 52.524 137.588 52.524 136.748C52.524 135.922 53.154 135.432 54.33 135.432C55.534 135.432 56.318 135.922 56.318 137.14V137.448H57.914V137.14C57.914 135.054 56.388 134.004 54.33 134.004ZM66.216 134.2L63.626 138.568H65.348L66.902 135.922H67.07V144H68.694V134.2H66.216Z" fill="#1E2029"/>
<rect width="249" height="35" transform="translate(95 122)" fill="#E3C668"/>
<path d="M103.816 133.6V142H106.456C108.676 142 109.924 140.884 109.924 138.58V137.02C109.924 134.716 108.676 133.6 106.456 133.6H103.816ZM105.004 134.668H106.468C107.968 134.668 108.736 135.424 108.736 136.984V138.616C108.736 140.164 107.992 140.932 106.468 140.932H105.004V134.668ZM111.233 137.692L112.289 138.028C112.433 137.356 112.913 136.864 113.801 136.864C114.701 136.864 115.145 137.368 115.145 138.1V138.484H113.273C111.989 138.484 111.041 139.096 111.041 140.308C111.041 141.496 111.989 142.168 113.213 142.168C114.353 142.168 114.809 141.604 115.025 141.208H115.169V142H116.249V138.172C116.249 136.756 115.325 135.94 113.813 135.94C112.313 135.94 111.521 136.732 111.233 137.692ZM112.169 140.284C112.169 139.708 112.637 139.396 113.333 139.396H115.145V139.516C115.145 140.584 114.437 141.244 113.405 141.244C112.637 141.244 112.169 140.86 112.169 140.284ZM117.082 137.032H118.786V140.896C118.786 141.568 119.218 142 119.878 142H121.51V141.076H120.25C120.034 141.076 119.914 140.956 119.914 140.716V137.032H121.738V136.108H119.914V134.092H118.786V136.108H117.082V137.032ZM122.911 137.692L123.967 138.028C124.111 137.356 124.591 136.864 125.479 136.864C126.379 136.864 126.823 137.368 126.823 138.1V138.484H124.951C123.667 138.484 122.719 139.096 122.719 140.308C122.719 141.496 123.667 142.168 124.891 142.168C126.031 142.168 126.487 141.604 126.703 141.208H126.847V142H127.927V138.172C127.927 136.756 127.003 135.94 125.491 135.94C123.991 135.94 123.199 136.732 122.911 137.692ZM123.847 140.284C123.847 139.708 124.315 139.396 125.011 139.396H126.823V139.516C126.823 140.584 126.115 141.244 125.083 141.244C124.315 141.244 123.847 140.86 123.847 140.284ZM136.028 133.432C134.3 133.432 133.136 134.32 133.136 135.772C133.136 137.224 134.12 137.812 135.692 138.172L136.208 138.292C137.312 138.544 137.996 138.844 137.996 139.696C137.996 140.536 137.312 141.124 136.088 141.124C134.852 141.124 134.036 140.512 134.036 139.216V139.108H132.86V139.216C132.86 141.148 134.204 142.168 136.088 142.168C137.96 142.168 139.16 141.16 139.16 139.672C139.16 138.172 138.056 137.596 136.484 137.236L135.968 137.116C134.876 136.864 134.312 136.564 134.312 135.748C134.312 134.932 134.96 134.476 136.028 134.476C137.12 134.476 137.888 134.932 137.888 136.072V136.396H139.064V136.072C139.064 134.32 137.756 133.432 136.028 133.432ZM140.175 139.06C140.175 140.884 141.531 142.168 143.235 142.168C144.855 142.168 145.815 141.196 146.103 139.924L145.011 139.672C144.855 140.548 144.303 141.172 143.247 141.172C142.155 141.172 141.315 140.332 141.315 139.06C141.315 137.776 142.143 136.936 143.247 136.936C144.255 136.936 144.867 137.572 144.963 138.424L146.067 138.196C145.839 136.936 144.831 135.94 143.235 135.94C141.531 135.94 140.175 137.224 140.175 139.06ZM147.129 134.32C147.129 134.812 147.501 135.172 147.993 135.172C148.497 135.172 148.869 134.812 148.869 134.32C148.869 133.816 148.497 133.456 147.993 133.456C147.501 133.456 147.129 133.816 147.129 134.32ZM148.557 136.108H147.429V142H148.557V136.108ZM149.908 139.012C149.908 140.824 151.12 142.168 152.944 142.168C154.564 142.168 155.248 141.232 155.608 140.62L154.672 140.092C154.384 140.668 153.904 141.184 152.944 141.184C151.876 141.184 151.132 140.464 151.06 139.444H155.704V138.892C155.704 137.08 154.54 135.94 152.86 135.94C151.144 135.94 149.908 137.212 149.908 139.012ZM151.072 138.532C151.192 137.548 151.84 136.924 152.86 136.924C153.832 136.924 154.492 137.512 154.552 138.532H151.072ZM157.009 136.108V142H158.137V139C158.137 137.656 158.845 136.936 159.901 136.936C160.849 136.936 161.425 137.428 161.425 138.508V142H162.541V138.448C162.541 136.912 161.545 136 160.225 136C159.061 136 158.497 136.528 158.233 137.056H158.113V136.108H157.009ZM163.823 139.06C163.823 140.884 165.179 142.168 166.883 142.168C168.503 142.168 169.463 141.196 169.751 139.924L168.659 139.672C168.503 140.548 167.951 141.172 166.895 141.172C165.803 141.172 164.963 140.332 164.963 139.06C164.963 137.776 165.791 136.936 166.895 136.936C167.903 136.936 168.515 137.572 168.611 138.424L169.715 138.196C169.487 136.936 168.479 135.94 166.883 135.94C165.179 135.94 163.823 137.224 163.823 139.06ZM170.705 139.012C170.705 140.824 171.917 142.168 173.741 142.168C175.361 142.168 176.045 141.232 176.405 140.62L175.469 140.092C175.181 140.668 174.701 141.184 173.741 141.184C172.673 141.184 171.929 140.464 171.857 139.444H176.501V138.892C176.501 137.08 175.337 135.94 173.657 135.94C171.941 135.94 170.705 137.212 170.705 139.012ZM171.869 138.532C171.989 137.548 172.637 136.924 173.657 136.924C174.629 136.924 175.289 137.512 175.349 138.532H171.869ZM181.489 133.6V142H185.089C186.529 142 187.585 141.16 187.585 139.744C187.585 138.532 186.769 138.004 186.145 137.824V137.704C186.769 137.524 187.549 137.008 187.549 135.808C187.549 134.452 186.517 133.6 185.077 133.6H181.489ZM182.677 134.668H184.957C185.833 134.668 186.409 135.184 186.409 135.94C186.409 136.72 185.857 137.236 184.969 137.236H182.677V134.668ZM182.677 138.316H184.957C185.893 138.316 186.433 138.808 186.433 139.612C186.433 140.392 185.893 140.932 184.981 140.932H182.677V138.316ZM188.86 137.692L189.916 138.028C190.06 137.356 190.54 136.864 191.428 136.864C192.328 136.864 192.772 137.368 192.772 138.1V138.484H190.9C189.616 138.484 188.668 139.096 188.668 140.308C188.668 141.496 189.616 142.168 190.84 142.168C191.98 142.168 192.436 141.604 192.652 141.208H192.796V142H193.876V138.172C193.876 136.756 192.952 135.94 191.44 135.94C189.94 135.94 189.148 136.732 188.86 137.692ZM189.796 140.284C189.796 139.708 190.264 139.396 190.96 139.396H192.772V139.516C192.772 140.584 192.064 141.244 191.032 141.244C190.264 141.244 189.796 140.86 189.796 140.284ZM195.414 137.68C195.414 138.772 196.326 139.216 197.466 139.42L197.97 139.504C198.786 139.636 199.242 139.864 199.242 140.38C199.242 140.92 198.75 141.28 197.922 141.28C197.094 141.28 196.398 140.932 196.218 139.852L195.162 140.116C195.378 141.496 196.434 142.168 197.922 142.168C199.374 142.168 200.334 141.484 200.334 140.308C200.334 139.12 199.386 138.76 198.138 138.544L197.634 138.472C196.962 138.352 196.518 138.136 196.518 137.62C196.518 137.128 196.962 136.828 197.682 136.828C198.402 136.828 198.918 137.128 199.086 137.92L200.118 137.62C199.866 136.588 199.002 135.94 197.682 135.94C196.302 135.94 195.414 136.588 195.414 137.68ZM201.377 134.32C201.377 134.812 201.749 135.172 202.241 135.172C202.745 135.172 203.117 134.812 203.117 134.32C203.117 133.816 202.745 133.456 202.241 133.456C201.749 133.456 201.377 133.816 201.377 134.32ZM202.805 136.108H201.677V142H202.805V136.108ZM204.156 139.06C204.156 140.884 205.512 142.168 207.216 142.168C208.836 142.168 209.796 141.196 210.084 139.924L208.992 139.672C208.836 140.548 208.284 141.172 207.228 141.172C206.136 141.172 205.296 140.332 205.296 139.06C205.296 137.776 206.124 136.936 207.228 136.936C208.236 136.936 208.848 137.572 208.944 138.424L210.048 138.196C209.82 136.936 208.812 135.94 207.216 135.94C205.512 135.94 204.156 137.224 204.156 139.06ZM211.254 137.68C211.254 138.772 212.166 139.216 213.306 139.42L213.81 139.504C214.626 139.636 215.082 139.864 215.082 140.38C215.082 140.92 214.59 141.28 213.762 141.28C212.934 141.28 212.238 140.932 212.058 139.852L211.002 140.116C211.218 141.496 212.274 142.168 213.762 142.168C215.214 142.168 216.174 141.484 216.174 140.308C216.174 139.12 215.226 138.76 213.978 138.544L213.474 138.472C212.802 138.352 212.358 138.136 212.358 137.62C212.358 137.128 212.802 136.828 213.522 136.828C214.242 136.828 214.758 137.128 214.926 137.92L215.958 137.62C215.706 136.588 214.842 135.94 213.522 135.94C212.142 135.94 211.254 136.588 211.254 137.68Z" fill="white"/>
<rect width="79" height="35" transform="translate(95 208) rotate(180)" fill="#636CAD"/>
<path d="M45.468 185.2L42.584 195H44.25L44.908 192.718H48.548L49.206 195H50.858L47.974 185.2H45.468ZM45.3 191.248L46.658 186.558H46.798L48.142 191.248H45.3ZM52.3775 185.2V195H54.0015V185.2H52.3775ZM60.573 185.2V186.67H65.249L62.589 188.896V190.366H64.185C65.221 190.366 65.991 190.884 65.991 191.962C65.991 192.984 65.249 193.754 64.003 193.754C62.673 193.754 61.917 192.956 61.917 191.822V191.444H60.307V191.864C60.307 193.852 61.721 195.196 64.003 195.196C66.117 195.196 67.615 193.908 67.615 191.962C67.615 190.156 66.369 189.176 64.899 189.176H64.549V189.022L67.447 186.628V185.2H60.573Z" fill="white"/>
<rect width="249" height="35" transform="translate(95 173)" fill="#B49848"/>
<path d="M103.816 184.6V193H105.004V185.836H105.124L107.98 193H110.008V184.6H108.82V191.764H108.7L105.844 184.6H103.816ZM111.764 184.6V193H117.14V191.932H112.952V184.6H111.764ZM118.271 184.6V193H119.459V189.712H121.559C123.071 189.712 124.211 188.74 124.211 187.156C124.211 185.584 123.095 184.6 121.559 184.6H118.271ZM119.459 185.668H121.439C122.423 185.668 123.023 186.232 123.023 187.156C123.023 188.08 122.423 188.644 121.439 188.644H119.459V185.668Z" fill="white"/>
<rect width="78" height="35" transform="translate(94 249) rotate(180)" fill="#636CAD"/>
<path d="M40.382 226.2L40.382 236H43.602C46.22 236 47.634 234.67 47.634 232.01V230.19C47.634 227.53 46.22 226.2 43.602 226.2H40.382ZM42.006 227.67H43.616C45.24 227.67 46.024 228.51 46.024 230.134V232.066C46.024 233.69 45.254 234.53 43.616 234.53H42.006V227.67ZM52.83 226.004C50.772 226.004 49.428 227.054 49.428 228.804C49.428 230.54 50.576 231.226 52.522 231.66L52.984 231.758C54.258 232.052 54.986 232.374 54.986 233.27C54.986 234.152 54.272 234.768 52.928 234.768C51.57 234.768 50.716 234.124 50.716 232.78V232.654H49.12V232.78C49.12 234.978 50.702 236.196 52.928 236.196C55.154 236.196 56.582 234.992 56.582 233.228C56.582 231.464 55.266 230.75 53.306 230.33L52.844 230.218C51.612 229.938 51.024 229.588 51.024 228.748C51.024 227.922 51.654 227.432 52.83 227.432C54.034 227.432 54.818 227.922 54.818 229.14V229.448H56.414V229.14C56.414 227.054 54.888 226.004 52.83 226.004ZM62.574 229.448V229.784H64.184V229.476C64.184 228.104 65.094 227.446 66.228 227.446C67.334 227.446 68.076 228.09 68.076 229.182C68.076 230.386 67.208 230.918 65.724 231.31C63.876 231.786 62.588 232.626 62.588 234.474V236H69.658V234.53H64.212V234.334C64.212 233.242 65.024 232.934 66.494 232.556C68.538 232.038 69.7 231.128 69.7 229.224C69.7 227.236 68.118 226.004 66.2 226.004C64.226 226.004 62.574 227.194 62.574 229.448Z" fill="white"/>
<rect width="250" height="35" transform="translate(94 214)" fill="#B49848"/>
<path d="M102.816 225.6V234H105.456C107.676 234 108.924 232.884 108.924 230.58V229.02C108.924 226.716 107.676 225.6 105.456 225.6H102.816ZM104.004 226.668H105.468C106.968 226.668 107.736 227.424 107.736 228.984V230.616C107.736 232.164 106.992 232.932 105.468 232.932H104.004V226.668ZM110.233 229.692L111.289 230.028C111.433 229.356 111.913 228.864 112.801 228.864C113.701 228.864 114.145 229.368 114.145 230.1V230.484H112.273C110.989 230.484 110.041 231.096 110.041 232.308C110.041 233.496 110.989 234.168 112.213 234.168C113.353 234.168 113.809 233.604 114.025 233.208H114.169V234H115.249V230.172C115.249 228.756 114.325 227.94 112.813 227.94C111.313 227.94 110.521 228.732 110.233 229.692ZM111.169 232.284C111.169 231.708 111.637 231.396 112.333 231.396H114.145V231.516C114.145 232.584 113.437 233.244 112.405 233.244C111.637 233.244 111.169 232.86 111.169 232.284ZM116.082 229.032H117.786V232.896C117.786 233.568 118.218 234 118.878 234H120.51V233.076H119.25C119.034 233.076 118.914 232.956 118.914 232.716V229.032H120.738V228.108H118.914V226.092H117.786V228.108H116.082V229.032ZM121.911 229.692L122.967 230.028C123.111 229.356 123.591 228.864 124.479 228.864C125.379 228.864 125.823 229.368 125.823 230.1V230.484H123.951C122.667 230.484 121.719 231.096 121.719 232.308C121.719 233.496 122.667 234.168 123.891 234.168C125.031 234.168 125.487 233.604 125.703 233.208H125.847V234H126.927V230.172C126.927 228.756 126.003 227.94 124.491 227.94C122.991 227.94 122.199 228.732 121.911 229.692ZM122.847 232.284C122.847 231.708 123.315 231.396 124.011 231.396H125.823V231.516C125.823 232.584 125.115 233.244 124.083 233.244C123.315 233.244 122.847 232.86 122.847 232.284ZM135.028 225.432C133.3 225.432 132.136 226.32 132.136 227.772C132.136 229.224 133.12 229.812 134.692 230.172L135.208 230.292C136.312 230.544 136.996 230.844 136.996 231.696C136.996 232.536 136.312 233.124 135.088 233.124C133.852 233.124 133.036 232.512 133.036 231.216V231.108H131.86V231.216C131.86 233.148 133.204 234.168 135.088 234.168C136.96 234.168 138.16 233.16 138.16 231.672C138.16 230.172 137.056 229.596 135.484 229.236L134.968 229.116C133.876 228.864 133.312 228.564 133.312 227.748C133.312 226.932 133.96 226.476 135.028 226.476C136.12 226.476 136.888 226.932 136.888 228.072V228.396H138.064V228.072C138.064 226.32 136.756 225.432 135.028 225.432ZM139.175 231.06C139.175 232.884 140.531 234.168 142.235 234.168C143.855 234.168 144.815 233.196 145.103 231.924L144.011 231.672C143.855 232.548 143.303 233.172 142.247 233.172C141.155 233.172 140.315 232.332 140.315 231.06C140.315 229.776 141.143 228.936 142.247 228.936C143.255 228.936 143.867 229.572 143.963 230.424L145.067 230.196C144.839 228.936 143.831 227.94 142.235 227.94C140.531 227.94 139.175 229.224 139.175 231.06ZM146.129 226.32C146.129 226.812 146.501 227.172 146.993 227.172C147.497 227.172 147.869 226.812 147.869 226.32C147.869 225.816 147.497 225.456 146.993 225.456C146.501 225.456 146.129 225.816 146.129 226.32ZM147.557 228.108H146.429V234H147.557V228.108ZM148.908 231.012C148.908 232.824 150.12 234.168 151.944 234.168C153.564 234.168 154.248 233.232 154.608 232.62L153.672 232.092C153.384 232.668 152.904 233.184 151.944 233.184C150.876 233.184 150.132 232.464 150.06 231.444H154.704V230.892C154.704 229.08 153.54 227.94 151.86 227.94C150.144 227.94 148.908 229.212 148.908 231.012ZM150.072 230.532C150.192 229.548 150.84 228.924 151.86 228.924C152.832 228.924 153.492 229.512 153.552 230.532H150.072ZM156.009 228.108V234H157.137V231C157.137 229.656 157.845 228.936 158.901 228.936C159.849 228.936 160.425 229.428 160.425 230.508V234H161.541V230.448C161.541 228.912 160.545 228 159.225 228C158.061 228 157.497 228.528 157.233 229.056H157.113V228.108H156.009ZM162.823 231.06C162.823 232.884 164.179 234.168 165.883 234.168C167.503 234.168 168.463 233.196 168.751 231.924L167.659 231.672C167.503 232.548 166.951 233.172 165.895 233.172C164.803 233.172 163.963 232.332 163.963 231.06C163.963 229.776 164.791 228.936 165.895 228.936C166.903 228.936 167.515 229.572 167.611 230.424L168.715 230.196C168.487 228.936 167.479 227.94 165.883 227.94C164.179 227.94 162.823 229.224 162.823 231.06ZM169.705 231.012C169.705 232.824 170.917 234.168 172.741 234.168C174.361 234.168 175.045 233.232 175.405 232.62L174.469 232.092C174.181 232.668 173.701 233.184 172.741 233.184C171.673 233.184 170.929 232.464 170.857 231.444H175.501V230.892C175.501 229.08 174.337 227.94 172.657 227.94C170.941 227.94 169.705 229.212 169.705 231.012ZM170.869 230.532C170.989 229.548 171.637 228.924 172.657 228.924C173.629 228.924 174.289 229.512 174.349 230.532H170.869ZM180.489 225.6V234H181.677V225.6H180.489ZM183.434 225.6V234H184.622V225.6H183.434Z" fill="white"/>
<rect width="79" height="35" transform="translate(95 300) rotate(180)" fill="#2F3564"/>
<path d="M45.468 277.2L42.584 287H44.25L44.908 284.718H48.548L49.206 287H50.858L47.974 277.2H45.468ZM45.3 283.248L46.658 278.558H46.798L48.142 283.248H45.3ZM52.3775 277.2V287H54.0015V277.2H52.3775ZM60.699 277.2V282.576H62.855C63.037 282.226 63.429 281.764 64.269 281.764C65.277 281.764 65.977 282.464 65.977 283.626C65.977 284.928 65.221 285.754 63.975 285.754C62.715 285.754 61.973 284.97 61.973 283.71V283.528H60.363V283.822C60.363 285.866 61.847 287.196 64.017 287.196C66.173 287.196 67.601 285.726 67.601 283.556C67.601 281.582 66.243 280.392 64.675 280.392C63.317 280.392 62.743 281.092 62.477 281.526H62.309V278.67H67.279V277.2H60.699Z" fill="white"/>
<rect width="249" height="35" transform="translate(95 265)" fill="#76623B"/>
<path d="M107.487 276.6V285H108.675V281.712H110.775C112.287 281.712 113.427 280.74 113.427 279.156C113.427 277.584 112.311 276.6 110.775 276.6H107.487ZM108.675 277.668H110.655C111.639 277.668 112.239 278.232 112.239 279.156C112.239 280.08 111.639 280.644 110.655 280.644H108.675V277.668ZM115.718 279.108H114.614V285H115.742V281.448C115.742 280.5 116.294 280.056 117.122 280.056H118.046V279.084H117.314C116.534 279.084 116.066 279.312 115.838 279.9H115.718V279.108ZM118.522 282.06C118.522 283.932 119.782 285.168 121.558 285.168C123.334 285.168 124.606 283.932 124.606 282.06C124.606 280.176 123.334 278.94 121.558 278.94C119.782 278.94 118.522 280.176 118.522 282.06ZM119.65 282.06C119.65 280.788 120.418 279.936 121.558 279.936C122.698 279.936 123.478 280.764 123.478 282.06C123.478 283.344 122.698 284.172 121.558 284.172C120.418 284.172 119.65 283.368 119.65 282.06ZM131.688 276.6H130.56V280.02H130.44C130.104 279.468 129.492 278.94 128.328 278.94C126.84 278.94 125.592 280.152 125.592 282.06C125.592 283.968 126.84 285.168 128.328 285.168C129.492 285.168 130.104 284.64 130.464 284.064H130.584V285H131.688V276.6ZM128.64 279.924C129.756 279.924 130.572 280.728 130.572 282.06C130.572 283.38 129.756 284.184 128.64 284.184C127.524 284.184 126.732 283.392 126.732 282.06C126.732 280.716 127.524 279.924 128.64 279.924ZM138.94 285V279.108H137.812V282.108C137.812 283.452 137.104 284.172 136.048 284.172C135.1 284.172 134.524 283.68 134.524 282.6V279.108H133.408V282.66C133.408 284.196 134.404 285.108 135.724 285.108C136.888 285.108 137.452 284.58 137.716 284.052H137.836V285H138.94ZM140.293 282.06C140.293 283.884 141.649 285.168 143.353 285.168C144.973 285.168 145.933 284.196 146.221 282.924L145.129 282.672C144.973 283.548 144.421 284.172 143.365 284.172C142.273 284.172 141.433 283.332 141.433 282.06C141.433 280.776 142.261 279.936 143.365 279.936C144.373 279.936 144.985 280.572 145.081 281.424L146.185 281.196C145.957 279.936 144.949 278.94 143.353 278.94C141.649 278.94 140.293 280.224 140.293 282.06ZM146.78 280.032H148.484V283.896C148.484 284.568 148.916 285 149.576 285H151.208V284.076H149.948C149.732 284.076 149.612 283.956 149.612 283.716V280.032H151.436V279.108H149.612V277.092H148.484V279.108H146.78V280.032ZM152.452 277.32C152.452 277.812 152.824 278.172 153.316 278.172C153.82 278.172 154.192 277.812 154.192 277.32C154.192 276.816 153.82 276.456 153.316 276.456C152.824 276.456 152.452 276.816 152.452 277.32ZM153.88 279.108H152.752V285H153.88V279.108ZM155.231 282.06C155.231 283.932 156.491 285.168 158.267 285.168C160.043 285.168 161.315 283.932 161.315 282.06C161.315 280.176 160.043 278.94 158.267 278.94C156.491 278.94 155.231 280.176 155.231 282.06ZM156.359 282.06C156.359 280.788 157.127 279.936 158.267 279.936C159.407 279.936 160.187 280.764 160.187 282.06C160.187 283.344 159.407 284.172 158.267 284.172C157.127 284.172 156.359 283.368 156.359 282.06ZM162.672 279.108V285H163.8V282C163.8 280.656 164.508 279.936 165.564 279.936C166.512 279.936 167.088 280.428 167.088 281.508V285H168.204V281.448C168.204 279.912 167.208 279 165.888 279C164.724 279 164.16 279.528 163.896 280.056H163.776V279.108H162.672ZM169.558 277.32C169.558 277.812 169.93 278.172 170.422 278.172C170.926 278.172 171.298 277.812 171.298 277.32C171.298 276.816 170.926 276.456 170.422 276.456C169.93 276.456 169.558 276.816 169.558 277.32ZM170.986 279.108H169.858V285H170.986V279.108ZM172.589 279.108V280.032H176.177L172.469 284.16V285H177.773V284.076H173.981L177.677 279.948V279.108H172.589ZM178.88 277.32C178.88 277.812 179.252 278.172 179.744 278.172C180.248 278.172 180.62 277.812 180.62 277.32C180.62 276.816 180.248 276.456 179.744 276.456C179.252 276.456 178.88 276.816 178.88 277.32ZM180.308 279.108H179.18V285H180.308V279.108ZM182.031 279.108V285H183.159V282C183.159 280.656 183.867 279.936 184.923 279.936C185.871 279.936 186.447 280.428 186.447 281.508V285H187.563V281.448C187.563 279.912 186.567 279 185.247 279C184.083 279 183.519 279.528 183.255 280.056H183.135V279.108H182.031ZM193.837 279.108V280.056H193.717C193.357 279.468 192.733 278.94 191.581 278.94C190.093 278.94 188.845 280.14 188.845 281.976C188.845 283.824 190.093 285.012 191.581 285.012C192.733 285.012 193.357 284.472 193.693 283.944H193.813V284.64C193.813 285.948 193.045 286.608 191.893 286.608C190.753 286.608 190.189 285.948 189.973 285.252L188.953 285.672C189.241 286.536 190.129 287.568 191.917 287.568C193.729 287.568 194.941 286.536 194.941 284.688V279.108H193.837ZM191.893 284.04C190.777 284.04 189.985 283.248 189.985 281.976C189.985 280.716 190.777 279.924 191.893 279.924C193.009 279.924 193.825 280.716 193.825 281.976C193.825 283.236 193.009 284.04 191.893 284.04ZM202.252 276.6L199.66 285H200.884L201.508 282.96H204.82L205.444 285H206.68L204.088 276.6H202.252ZM201.808 281.88L203.104 277.632H203.224L204.52 281.88H201.808ZM207.742 276.6V285H208.93V276.6H207.742ZM215.065 284.652C215.065 287.016 216.349 287.976 218.197 287.976V286.956C216.853 286.92 216.193 286.152 216.193 284.556V278.724C216.193 277.128 216.853 276.36 218.197 276.324V275.304C216.349 275.304 215.065 276.264 215.065 278.628V284.652ZM219.375 276.6V285H220.539V277.836H220.659L222.963 285H224.643L226.935 277.836H227.055V285H228.219V276.6H226.167L223.863 283.788H223.743L221.427 276.6H219.375ZM229.972 276.6V285H235.348V283.932H231.16V276.6H229.972ZM236.19 279.828V281.772C236.19 283.98 237.498 285.168 239.538 285.168C241.578 285.168 242.886 283.98 242.886 281.772V279.828C242.886 277.62 241.578 276.432 239.538 276.432C237.498 276.432 236.19 277.62 236.19 279.828ZM237.378 279.78C237.378 278.364 238.182 277.488 239.538 277.488C240.894 277.488 241.698 278.364 241.698 279.78V281.82C241.698 283.236 240.894 284.112 239.538 284.112C238.182 284.112 237.378 283.236 237.378 281.82V279.78ZM244.344 287.4H245.472V284.1H245.592C245.928 284.64 246.54 285.168 247.692 285.168C249.192 285.168 250.44 283.968 250.44 282.06C250.44 280.152 249.192 278.94 247.692 278.94C246.54 278.94 245.928 279.468 245.568 280.056H245.448V279.108H244.344V287.4ZM247.392 284.184C246.264 284.184 245.46 283.38 245.46 282.06C245.46 280.728 246.264 279.924 247.392 279.924C248.508 279.924 249.3 280.716 249.3 282.06C249.3 283.392 248.508 284.184 247.392 284.184ZM251.645 280.68C251.645 281.772 252.557 282.216 253.697 282.42L254.201 282.504C255.017 282.636 255.473 282.864 255.473 283.38C255.473 283.92 254.981 284.28 254.153 284.28C253.325 284.28 252.629 283.932 252.449 282.852L251.393 283.116C251.609 284.496 252.665 285.168 254.153 285.168C255.605 285.168 256.565 284.484 256.565 283.308C256.565 282.12 255.617 281.76 254.369 281.544L253.865 281.472C253.193 281.352 252.749 281.136 252.749 280.62C252.749 280.128 253.193 279.828 253.913 279.828C254.633 279.828 255.149 280.128 255.317 280.92L256.349 280.62C256.097 279.588 255.233 278.94 253.913 278.94C252.533 278.94 251.645 279.588 251.645 280.68ZM260.476 284.652V278.628C260.476 276.264 259.204 275.304 257.344 275.304V276.324C258.7 276.36 259.36 277.128 259.36 278.724V284.556C259.36 286.152 258.7 286.92 257.344 286.956V287.976C259.204 287.976 260.476 287.016 260.476 284.652Z" fill="white"/>
<rect width="328" height="23" transform="translate(16 316)" fill="white"/>
<path d="M16.518 325.938V328.262C16.518 330.796 18.072 332.196 20.494 332.196C22.916 332.196 24.456 330.796 24.456 328.262V325.938C24.456 323.404 22.916 322.004 20.494 322.004C18.072 322.004 16.518 323.404 16.518 325.938ZM18.142 325.882C18.142 324.398 19.01 323.446 20.494 323.446C21.964 323.446 22.832 324.398 22.832 325.882V328.318C22.832 329.802 21.964 330.754 20.494 330.754C19.01 330.754 18.142 329.802 18.142 328.318V325.882ZM26.2568 334.8H27.7828V331.02H27.9228C28.3148 331.622 29.0148 332.196 30.2888 332.196C31.9828 332.196 33.4528 330.796 33.4528 328.542C33.4528 326.302 31.9828 324.902 30.2888 324.902C29.0148 324.902 28.3148 325.476 27.8948 326.106H27.7548V325.098H26.2568V334.8ZM29.8408 330.866C28.6508 330.866 27.7688 329.998 27.7688 328.542C27.7688 327.086 28.6508 326.218 29.8408 326.218C31.0448 326.218 31.9128 327.086 31.9128 328.542C31.9128 330.012 31.0448 330.866 29.8408 330.866ZM34.3283 326.344H36.1903V330.572C36.1903 331.44 36.7503 332 37.5903 332H39.5363V330.74H38.1223C37.8703 330.74 37.7303 330.6 37.7303 330.32V326.344H39.7463V325.098H37.7303V322.844H36.1903V325.098H34.3283V326.344ZM41.0879 323.04C41.0879 323.684 41.5779 324.132 42.2219 324.132C42.8659 324.132 43.3559 323.684 43.3559 323.04C43.3559 322.382 42.8659 321.934 42.2219 321.934C41.5779 321.934 41.0879 322.382 41.0879 323.04ZM42.9919 325.098H41.4659V332H42.9919V325.098ZM44.7195 328.542C44.7195 330.782 46.2455 332.196 48.3175 332.196C50.3895 332.196 51.9015 330.782 51.9015 328.542C51.9015 326.316 50.3895 324.902 48.3175 324.902C46.2455 324.902 44.7195 326.316 44.7195 328.542ZM46.2595 328.542C46.2595 327.128 47.0995 326.246 48.3175 326.246C49.5215 326.246 50.3615 327.114 50.3615 328.542C50.3615 329.97 49.5215 330.852 48.3175 330.852C47.0995 330.852 46.2595 329.984 46.2595 328.542ZM53.6262 325.098V332H55.1522V328.458C55.1522 327.03 55.8942 326.232 57.0422 326.232C58.0642 326.232 58.6662 326.778 58.6662 327.94V332H60.2062V327.856C60.2062 326.092 59.0862 324.972 57.5042 324.972C56.1882 324.972 55.5722 325.56 55.2642 326.162H55.1242V325.098H53.6262ZM62.1507 326.89L63.5787 327.366C63.7187 326.652 64.2087 326.134 65.1747 326.134C66.1407 326.134 66.6027 326.68 66.6027 327.422V327.842H64.5587C63.0187 327.842 61.9127 328.57 61.9127 329.998C61.9127 331.398 63.0187 332.196 64.4467 332.196C65.7627 332.196 66.2527 331.51 66.4487 331.132H66.6307V332H68.1007V327.534C68.1007 325.84 66.9807 324.888 65.1887 324.888C63.4107 324.888 62.4867 325.812 62.1507 326.89ZM63.4527 329.956C63.4527 329.382 63.9147 329.032 64.6567 329.032H66.6027V329.158C66.6027 330.25 65.8327 330.936 64.7407 330.936C63.9147 330.936 63.4527 330.544 63.4527 329.956ZM71.6875 322.2H70.1615V332H71.6875V322.2ZM78.2479 322.2V332H84.6739V330.53H79.8719V327.8H84.1979V326.33H79.8719V323.67H84.5899V322.2H78.2479ZM87.9319 322.2H86.4059V332H87.9319V322.2ZM89.6595 328.514C89.6595 330.684 91.0875 332.196 93.1875 332.196C95.0915 332.196 95.9035 331.104 96.3095 330.376L95.0355 329.69C94.7555 330.292 94.2655 330.866 93.2155 330.866C92.1095 330.866 91.2975 330.096 91.2415 329.032H96.4775V328.402C96.4775 326.288 95.1335 324.888 93.1315 324.888C91.1015 324.888 89.6595 326.358 89.6595 328.514ZM91.2555 327.842C91.3815 326.876 92.0535 326.218 93.1175 326.218C94.1395 326.218 94.8255 326.848 94.9095 327.842H91.2555ZM97.7084 328.542C97.7084 330.684 99.2904 332.196 101.306 332.196C103.21 332.196 104.344 331.062 104.708 329.55L103.21 329.2C103.056 330.166 102.468 330.852 101.32 330.852C100.144 330.852 99.2484 329.97 99.2484 328.542C99.2484 327.128 100.144 326.246 101.32 326.246C102.44 326.246 103.056 326.946 103.168 327.87L104.652 327.562C104.372 326.036 103.196 324.902 101.292 324.902C99.2904 324.902 97.7084 326.4 97.7084 328.542ZM105.517 326.344H107.379V330.572C107.379 331.44 107.939 332 108.779 332H110.725V330.74H109.311C109.059 330.74 108.919 330.6 108.919 330.32V326.344H110.935V325.098H108.919V322.844H107.379V325.098H105.517V326.344ZM112.276 323.04C112.276 323.684 112.766 324.132 113.41 324.132C114.054 324.132 114.544 323.684 114.544 323.04C114.544 322.382 114.054 321.934 113.41 321.934C112.766 321.934 112.276 322.382 112.276 323.04ZM114.18 325.098H112.654V332H114.18V325.098ZM115.586 325.098L118.064 332H120.318L122.782 325.098H121.116L119.254 330.684H119.114L117.252 325.098H115.586ZM123.615 328.514C123.615 330.684 125.043 332.196 127.143 332.196C129.047 332.196 129.859 331.104 130.265 330.376L128.991 329.69C128.711 330.292 128.221 330.866 127.171 330.866C126.065 330.866 125.253 330.096 125.197 329.032H130.433V328.402C130.433 326.288 129.089 324.888 127.087 324.888C125.057 324.888 123.615 326.358 123.615 328.514ZM125.211 327.842C125.337 326.876 126.009 326.218 127.073 326.218C128.095 326.218 128.781 326.848 128.865 327.842H125.211ZM131.944 326.988C131.944 328.304 133.036 328.822 134.436 329.074L134.912 329.158C135.822 329.326 136.284 329.55 136.284 330.082C136.284 330.614 135.794 331.006 134.912 331.006C134.016 331.006 133.288 330.642 133.092 329.508L131.664 329.858C131.902 331.398 133.134 332.196 134.912 332.196C136.648 332.196 137.768 331.384 137.768 329.97C137.768 328.556 136.634 328.15 135.122 327.87L134.646 327.786C133.89 327.646 133.428 327.422 133.428 326.89C133.428 326.386 133.876 326.078 134.632 326.078C135.388 326.078 135.934 326.4 136.102 327.24L137.502 326.82C137.194 325.658 136.186 324.902 134.632 324.902C133.008 324.902 131.944 325.658 131.944 326.988Z" fill="#434343"/>
<rect width="79" height="35" transform="translate(95 375) rotate(180)" fill="#1F5F57"/>
<path d="M40.968 352.2L38.084 362H39.75L40.408 359.718H44.048L44.706 362H46.358L43.474 352.2H40.968ZM40.8 358.248L42.158 353.558H42.298L43.642 358.248H40.8ZM47.8775 352.2V362H49.5015V352.2H47.8775ZM59.643 352.2L55.597 358.64V360.054H60.567V362H62.191V360.054H63.815V358.584H62.191V352.2H59.643ZM60.399 353.614H60.567V358.584H57.291L60.399 353.614ZM67.4346 352.2L64.5506 362H66.2166L66.8746 359.718H70.5146L71.1726 362H72.8246L69.9406 352.2H67.4346ZM67.2666 358.248L68.6246 353.558H68.7646L70.1086 358.248H67.2666Z" fill="white"/>
<rect width="249" height="35" transform="translate(95 340)" fill="#B49848"/>
<path d="M109.996 354.12C109.996 352.56 108.88 351.6 107.344 351.6H103.816V360H105.004V356.64H106.768L108.484 360H109.84L108.004 356.58C109.168 356.34 109.996 355.44 109.996 354.12ZM105.004 352.668H107.224C108.208 352.668 108.808 353.22 108.808 354.12C108.808 355.032 108.208 355.584 107.224 355.584H105.004V352.668ZM110.935 357.012C110.935 358.824 112.147 360.168 113.971 360.168C115.591 360.168 116.275 359.232 116.635 358.62L115.699 358.092C115.411 358.668 114.931 359.184 113.971 359.184C112.903 359.184 112.159 358.464 112.087 357.444H116.731V356.892C116.731 355.08 115.567 353.94 113.887 353.94C112.171 353.94 110.935 355.212 110.935 357.012ZM112.099 356.532C112.219 355.548 112.867 354.924 113.887 354.924C114.859 354.924 115.519 355.512 115.579 356.532H112.099ZM117.736 352.32C117.736 352.812 118.108 353.172 118.6 353.172C119.104 353.172 119.476 352.812 119.476 352.32C119.476 351.816 119.104 351.456 118.6 351.456C118.108 351.456 117.736 351.816 117.736 352.32ZM119.164 354.108H118.036V360H119.164V354.108ZM120.887 354.108V360H122.015V357C122.015 355.656 122.723 354.936 123.779 354.936C124.727 354.936 125.303 355.428 125.303 356.508V360H126.419V356.448C126.419 354.912 125.423 354 124.103 354C122.939 354 122.375 354.528 122.111 355.056H121.991V354.108H120.887ZM127.38 354.108V355.032H129.096V360H130.224V355.032H131.976V354.108H130.224V352.884C130.224 352.644 130.344 352.524 130.56 352.524H131.736V351.6H130.188C129.528 351.6 129.096 352.02 129.096 352.704V354.108H127.38ZM132.755 357.06C132.755 358.932 134.015 360.168 135.791 360.168C137.567 360.168 138.839 358.932 138.839 357.06C138.839 355.176 137.567 353.94 135.791 353.94C134.015 353.94 132.755 355.176 132.755 357.06ZM133.883 357.06C133.883 355.788 134.651 354.936 135.791 354.936C136.931 354.936 137.711 355.764 137.711 357.06C137.711 358.344 136.931 359.172 135.791 359.172C134.651 359.172 133.883 358.368 133.883 357.06ZM141.3 354.108H140.196V360H141.324V356.448C141.324 355.5 141.876 355.056 142.704 355.056H143.628V354.084H142.896C142.116 354.084 141.648 354.312 141.42 354.9H141.3V354.108ZM144.104 357.06C144.104 358.884 145.46 360.168 147.164 360.168C148.784 360.168 149.744 359.196 150.032 357.924L148.94 357.672C148.784 358.548 148.232 359.172 147.176 359.172C146.084 359.172 145.244 358.332 145.244 357.06C145.244 355.776 146.072 354.936 147.176 354.936C148.184 354.936 148.796 355.572 148.892 356.424L149.996 356.196C149.768 354.936 148.76 353.94 147.164 353.94C145.46 353.94 144.104 355.224 144.104 357.06ZM150.986 357.012C150.986 358.824 152.198 360.168 154.022 360.168C155.642 360.168 156.326 359.232 156.686 358.62L155.75 358.092C155.462 358.668 154.982 359.184 154.022 359.184C152.954 359.184 152.21 358.464 152.138 357.444H156.782V356.892C156.782 355.08 155.618 353.94 153.938 353.94C152.222 353.94 150.986 355.212 150.986 357.012ZM152.15 356.532C152.27 355.548 152.918 354.924 153.938 354.924C154.91 354.924 155.57 355.512 155.63 356.532H152.15ZM158.087 354.108V360H159.215V356.448C159.215 355.476 159.755 354.936 160.559 354.936C161.315 354.936 161.747 355.38 161.747 356.124V360H162.875V356.448C162.875 355.476 163.415 354.936 164.219 354.936C164.975 354.936 165.419 355.38 165.419 356.124V360H166.535V356.052C166.535 354.744 165.695 354 164.555 354C163.607 354 163.079 354.42 162.767 355.02H162.647C162.383 354.432 161.855 354 160.955 354C160.079 354 159.575 354.372 159.311 354.864H159.191V354.108H158.087ZM167.831 357.012C167.831 358.824 169.043 360.168 170.867 360.168C172.487 360.168 173.171 359.232 173.531 358.62L172.595 358.092C172.307 358.668 171.827 359.184 170.867 359.184C169.799 359.184 169.055 358.464 168.983 357.444H173.627V356.892C173.627 355.08 172.463 353.94 170.783 353.94C169.067 353.94 167.831 355.212 167.831 357.012ZM168.995 356.532C169.115 355.548 169.763 354.924 170.783 354.924C171.755 354.924 172.415 355.512 172.475 356.532H168.995ZM174.933 354.108V360H176.061V357C176.061 355.656 176.769 354.936 177.825 354.936C178.773 354.936 179.349 355.428 179.349 356.508V360H180.465V356.448C180.465 354.912 179.469 354 178.149 354C176.985 354 176.421 354.528 176.157 355.056H176.037V354.108H174.933ZM181.294 355.032H182.998V358.896C182.998 359.568 183.43 360 184.09 360H185.722V359.076H184.462C184.246 359.076 184.126 358.956 184.126 358.716V355.032H185.95V354.108H184.126V352.092H182.998V354.108H181.294V355.032ZM190.949 351.6V360H196.325V358.932H192.137V351.6H190.949ZM197.072 357.012C197.072 358.824 198.284 360.168 200.108 360.168C201.728 360.168 202.412 359.232 202.772 358.62L201.836 358.092C201.548 358.668 201.068 359.184 200.108 359.184C199.04 359.184 198.296 358.464 198.224 357.444H202.868V356.892C202.868 355.08 201.704 353.94 200.024 353.94C198.308 353.94 197.072 355.212 197.072 357.012ZM198.236 356.532C198.356 355.548 199.004 354.924 200.024 354.924C200.996 354.924 201.656 355.512 201.716 356.532H198.236ZM204.006 355.692L205.062 356.028C205.206 355.356 205.686 354.864 206.574 354.864C207.474 354.864 207.918 355.368 207.918 356.1V356.484H206.046C204.762 356.484 203.814 357.096 203.814 358.308C203.814 359.496 204.762 360.168 205.986 360.168C207.126 360.168 207.582 359.604 207.798 359.208H207.942V360H209.022V356.172C209.022 354.756 208.098 353.94 206.586 353.94C205.086 353.94 204.294 354.732 204.006 355.692ZM204.942 358.284C204.942 357.708 205.41 357.396 206.106 357.396H207.918V357.516C207.918 358.584 207.21 359.244 206.178 359.244C205.41 359.244 204.942 358.86 204.942 358.284ZM211.784 354.108H210.68V360H211.808V356.448C211.808 355.5 212.36 355.056 213.188 355.056H214.112V354.084H213.38C212.6 354.084 212.132 354.312 211.904 354.9H211.784V354.108ZM215.218 354.108V360H216.346V357C216.346 355.656 217.054 354.936 218.11 354.936C219.058 354.936 219.634 355.428 219.634 356.508V360H220.75V356.448C220.75 354.912 219.754 354 218.434 354C217.27 354 216.706 354.528 216.442 355.056H216.322V354.108H215.218ZM222.104 352.32C222.104 352.812 222.476 353.172 222.968 353.172C223.472 353.172 223.844 352.812 223.844 352.32C223.844 351.816 223.472 351.456 222.968 351.456C222.476 351.456 222.104 351.816 222.104 352.32ZM223.532 354.108H222.404V360H223.532V354.108ZM225.255 354.108V360H226.383V357C226.383 355.656 227.091 354.936 228.147 354.936C229.095 354.936 229.671 355.428 229.671 356.508V360H230.787V356.448C230.787 354.912 229.791 354 228.471 354C227.307 354 226.743 354.528 226.479 355.056H226.359V354.108H225.255ZM237.061 354.108V355.056H236.941C236.581 354.468 235.957 353.94 234.805 353.94C233.317 353.94 232.069 355.14 232.069 356.976C232.069 358.824 233.317 360.012 234.805 360.012C235.957 360.012 236.581 359.472 236.917 358.944H237.037V359.64C237.037 360.948 236.269 361.608 235.117 361.608C233.977 361.608 233.413 360.948 233.197 360.252L232.177 360.672C232.465 361.536 233.353 362.568 235.141 362.568C236.953 362.568 238.165 361.536 238.165 359.688V354.108H237.061ZM235.117 359.04C234.001 359.04 233.209 358.248 233.209 356.976C233.209 355.716 234.001 354.924 235.117 354.924C236.233 354.924 237.049 355.716 237.049 356.976C237.049 358.236 236.233 359.04 235.117 359.04Z" fill="white"/>
<rect width="79" height="35" transform="translate(95 411) rotate(180)" fill="#1F5F57"/>
<path d="M40.468 388.2L37.584 398H39.25L39.908 395.718H43.548L44.206 398H45.858L42.974 388.2H40.468ZM40.3 394.248L41.658 389.558H41.798L43.142 394.248H40.3ZM47.3775 388.2V398H49.0015V388.2H47.3775ZM59.143 388.2L55.097 394.64V396.054H60.067V398H61.691V396.054H63.315V394.584H61.691V388.2H59.143ZM59.899 389.614H60.067V394.584H56.791L59.899 389.614ZM64.8486 388.2V398H69.1886C70.8686 398 72.0866 397.006 72.0866 395.354C72.0866 393.926 71.1346 393.324 70.4206 393.128V392.988C71.1346 392.778 72.0446 392.204 72.0446 390.79C72.0446 389.194 70.8546 388.2 69.1606 388.2H64.8486ZM66.4726 389.67H68.9926C69.8886 389.67 70.4906 390.188 70.4906 391C70.4906 391.812 69.9026 392.344 68.9926 392.344H66.4726V389.67ZM66.4726 393.8H68.9926C69.9586 393.8 70.5326 394.318 70.5326 395.172C70.5326 395.998 69.9586 396.53 69.0206 396.53H66.4726V393.8Z" fill="white"/>
<rect width="249" height="35" transform="translate(95 376)" fill="#B49848"/>
<path d="M103.528 392.724C103.528 394.92 104.824 396.168 106.9 396.168C108.892 396.168 110.068 395.004 110.068 393.072V391.932H106.54V392.952H108.904V393.18C108.904 394.38 108.244 395.112 106.9 395.112C105.544 395.112 104.716 394.212 104.716 392.748V390.852C104.716 389.388 105.544 388.488 106.912 388.488C108.208 388.488 108.832 389.268 108.832 390.384V390.516H110.02V390.396C110.02 388.608 108.952 387.432 106.912 387.432C104.848 387.432 103.528 388.68 103.528 390.876V392.724ZM111.157 393.012C111.157 394.824 112.369 396.168 114.193 396.168C115.813 396.168 116.497 395.232 116.857 394.62L115.921 394.092C115.633 394.668 115.153 395.184 114.193 395.184C113.125 395.184 112.381 394.464 112.309 393.444H116.953V392.892C116.953 391.08 115.789 389.94 114.109 389.94C112.393 389.94 111.157 391.212 111.157 393.012ZM112.321 392.532C112.441 391.548 113.089 390.924 114.109 390.924C115.081 390.924 115.741 391.512 115.801 392.532H112.321ZM118.259 390.108V396H119.387V393C119.387 391.656 120.095 390.936 121.151 390.936C122.099 390.936 122.675 391.428 122.675 392.508V396H123.791V392.448C123.791 390.912 122.795 390 121.475 390C120.311 390 119.747 390.528 119.483 391.056H119.363V390.108H118.259ZM125.073 393.012C125.073 394.824 126.285 396.168 128.109 396.168C129.729 396.168 130.413 395.232 130.773 394.62L129.837 394.092C129.549 394.668 129.069 395.184 128.109 395.184C127.041 395.184 126.297 394.464 126.225 393.444H130.869V392.892C130.869 391.08 129.705 389.94 128.025 389.94C126.309 389.94 125.073 391.212 125.073 393.012ZM126.237 392.532C126.357 391.548 127.005 390.924 128.025 390.924C128.997 390.924 129.657 391.512 129.717 392.532H126.237ZM133.279 390.108H132.175V396H133.303V392.448C133.303 391.5 133.855 391.056 134.683 391.056H135.607V390.084H134.875C134.095 390.084 133.627 390.312 133.399 390.9H133.279V390.108ZM136.51 391.692L137.566 392.028C137.71 391.356 138.19 390.864 139.078 390.864C139.978 390.864 140.422 391.368 140.422 392.1V392.484H138.55C137.266 392.484 136.318 393.096 136.318 394.308C136.318 395.496 137.266 396.168 138.49 396.168C139.63 396.168 140.086 395.604 140.302 395.208H140.446V396H141.526V392.172C141.526 390.756 140.602 389.94 139.09 389.94C137.59 389.94 136.798 390.732 136.51 391.692ZM137.446 394.284C137.446 393.708 137.914 393.396 138.61 393.396H140.422V393.516C140.422 394.584 139.714 395.244 138.682 395.244C137.914 395.244 137.446 394.86 137.446 394.284ZM142.359 391.032H144.063V394.896C144.063 395.568 144.495 396 145.155 396H146.787V395.076H145.527C145.311 395.076 145.191 394.956 145.191 394.716V391.032H147.015V390.108H145.191V388.092H144.063V390.108H142.359V391.032ZM148.032 388.32C148.032 388.812 148.404 389.172 148.896 389.172C149.4 389.172 149.772 388.812 149.772 388.32C149.772 387.816 149.4 387.456 148.896 387.456C148.404 387.456 148.032 387.816 148.032 388.32ZM149.46 390.108H148.332V396H149.46V390.108ZM150.558 390.108L152.73 396H154.362L156.546 390.108H155.322L153.606 395.004H153.486L151.782 390.108H150.558ZM157.164 393.012C157.164 394.824 158.376 396.168 160.2 396.168C161.82 396.168 162.504 395.232 162.864 394.62L161.928 394.092C161.64 394.668 161.16 395.184 160.2 395.184C159.132 395.184 158.388 394.464 158.316 393.444H162.96V392.892C162.96 391.08 161.796 389.94 160.116 389.94C158.4 389.94 157.164 391.212 157.164 393.012ZM158.328 392.532C158.448 391.548 159.096 390.924 160.116 390.924C161.088 390.924 161.748 391.512 161.808 392.532H158.328ZM167.948 387.6V396H169.112V388.836H169.232L171.536 396H173.217L175.508 388.836H175.628V396H176.793V387.6H174.74L172.437 394.788H172.316L170 387.6H167.948ZM178.161 393.06C178.161 394.932 179.421 396.168 181.197 396.168C182.973 396.168 184.245 394.932 184.245 393.06C184.245 391.176 182.973 389.94 181.197 389.94C179.421 389.94 178.161 391.176 178.161 393.06ZM179.289 393.06C179.289 391.788 180.057 390.936 181.197 390.936C182.337 390.936 183.117 391.764 183.117 393.06C183.117 394.344 182.337 395.172 181.197 395.172C180.057 395.172 179.289 394.368 179.289 393.06ZM191.326 387.6H190.198V391.02H190.078C189.742 390.468 189.13 389.94 187.966 389.94C186.478 389.94 185.23 391.152 185.23 393.06C185.23 394.968 186.478 396.168 187.966 396.168C189.13 396.168 189.742 395.64 190.102 395.064H190.222V396H191.326V387.6ZM188.278 390.924C189.394 390.924 190.21 391.728 190.21 393.06C190.21 394.38 189.394 395.184 188.278 395.184C187.162 395.184 186.37 394.392 186.37 393.06C186.37 391.716 187.162 390.924 188.278 390.924ZM192.686 393.012C192.686 394.824 193.898 396.168 195.722 396.168C197.342 396.168 198.026 395.232 198.386 394.62L197.45 394.092C197.162 394.668 196.682 395.184 195.722 395.184C194.654 395.184 193.91 394.464 193.838 393.444H198.482V392.892C198.482 391.08 197.318 389.94 195.638 389.94C193.922 389.94 192.686 391.212 192.686 393.012ZM193.85 392.532C193.97 391.548 194.618 390.924 195.638 390.924C196.61 390.924 197.27 391.512 197.33 392.532H193.85ZM200.916 387.6H199.788V396H200.916V387.6ZM202.518 391.68C202.518 392.772 203.43 393.216 204.57 393.42L205.074 393.504C205.89 393.636 206.346 393.864 206.346 394.38C206.346 394.92 205.854 395.28 205.026 395.28C204.198 395.28 203.502 394.932 203.322 393.852L202.266 394.116C202.482 395.496 203.538 396.168 205.026 396.168C206.478 396.168 207.438 395.484 207.438 394.308C207.438 393.12 206.49 392.76 205.242 392.544L204.738 392.472C204.066 392.352 203.622 392.136 203.622 391.62C203.622 391.128 204.066 390.828 204.786 390.828C205.506 390.828 206.022 391.128 206.19 391.92L207.222 391.62C206.97 390.588 206.106 389.94 204.786 389.94C203.406 389.94 202.518 390.588 202.518 391.68Z" fill="white"/>
<path d="M16 443V455H344V443" stroke="#787878"/>
<path d="M148.882 469.76C148.882 471.944 150.202 473.168 152.29 473.168C154.354 473.168 155.554 471.98 155.554 470.156V469.868H154.174V470.18C154.174 471.164 153.55 471.932 152.29 471.932C151.042 471.932 150.274 471.116 150.274 469.784V467.816C150.274 466.484 151.03 465.668 152.29 465.668C153.526 465.668 154.174 466.448 154.174 467.432V467.66H155.554V467.456C155.554 465.62 154.378 464.432 152.29 464.432C150.202 464.432 148.882 465.656 148.882 467.84V469.76ZM156.67 470.036C156.67 471.956 157.978 473.168 159.754 473.168C161.53 473.168 162.826 471.956 162.826 470.036C162.826 468.128 161.53 466.916 159.754 466.916C157.978 466.916 156.67 468.128 156.67 470.036ZM157.99 470.036C157.99 468.824 158.71 468.068 159.754 468.068C160.786 468.068 161.506 468.812 161.506 470.036C161.506 471.26 160.786 472.016 159.754 472.016C158.71 472.016 157.99 471.272 157.99 470.036ZM169.944 473V467.084H168.636V470.12C168.636 471.332 168 472.016 167.016 472.016C166.14 472.016 165.624 471.548 165.624 470.564V467.084H164.304V470.636C164.304 472.136 165.264 473.096 166.62 473.096C167.748 473.096 168.276 472.604 168.54 472.076H168.66V473H169.944ZM173.073 467.084H171.789V473H173.097V469.496C173.097 468.596 173.661 468.176 174.453 468.176H175.365V467.06H174.681C173.913 467.06 173.433 467.288 173.193 467.9H173.073V467.084ZM176.377 468.704C176.377 469.832 177.313 470.276 178.513 470.492L178.921 470.564C179.701 470.708 180.097 470.9 180.097 471.356C180.097 471.812 179.677 472.148 178.921 472.148C178.153 472.148 177.529 471.836 177.361 470.864L176.137 471.164C176.341 472.484 177.397 473.168 178.921 473.168C180.409 473.168 181.369 472.472 181.369 471.26C181.369 470.048 180.397 469.7 179.101 469.46L178.693 469.388C178.045 469.268 177.649 469.076 177.649 468.62C177.649 468.188 178.033 467.924 178.681 467.924C179.329 467.924 179.797 468.2 179.941 468.92L181.141 468.56C180.877 467.564 180.013 466.916 178.681 466.916C177.289 466.916 176.377 467.564 176.377 468.704ZM182.485 470.012C182.485 471.872 183.709 473.168 185.509 473.168C187.141 473.168 187.837 472.232 188.185 471.608L187.093 471.02C186.853 471.536 186.433 472.028 185.533 472.028C184.585 472.028 183.889 471.368 183.841 470.456H188.329V469.916C188.329 468.104 187.177 466.904 185.461 466.904C183.721 466.904 182.485 468.164 182.485 470.012ZM183.853 469.436C183.961 468.608 184.537 468.044 185.449 468.044C186.325 468.044 186.913 468.584 186.985 469.436H183.853ZM189.624 468.704C189.624 469.832 190.56 470.276 191.76 470.492L192.168 470.564C192.948 470.708 193.344 470.9 193.344 471.356C193.344 471.812 192.924 472.148 192.168 472.148C191.4 472.148 190.776 471.836 190.608 470.864L189.384 471.164C189.588 472.484 190.644 473.168 192.168 473.168C193.656 473.168 194.616 472.472 194.616 471.26C194.616 470.048 193.644 469.7 192.348 469.46L191.94 469.388C191.292 469.268 190.896 469.076 190.896 468.62C190.896 468.188 191.28 467.924 191.928 467.924C192.576 467.924 193.044 468.2 193.188 468.92L194.388 468.56C194.124 467.564 193.26 466.916 191.928 466.916C190.536 466.916 189.624 467.564 189.624 468.704Z" fill="#787878"/>
<path d="M16.882 4.2L16.882 14H18.45L18.45 5.88H18.59L20.998 14H23.28L25.674 5.88H25.814L25.814 14H27.396L27.396 4.2H24.61L22.202 12.362H22.062L19.668 4.2H16.882ZM29.4393 8.89L30.8673 9.366C31.0073 8.652 31.4973 8.134 32.4633 8.134C33.4293 8.134 33.8913 8.68 33.8913 9.422L33.8913 9.842H31.8473C30.3073 9.842 29.2013 10.57 29.2013 11.998C29.2013 13.398 30.3073 14.196 31.7353 14.196C33.0513 14.196 33.5413 13.51 33.7373 13.132H33.9193L33.9193 14H35.3893L35.3893 9.534C35.3893 7.84 34.2693 6.888 32.4773 6.888C30.6993 6.888 29.7753 7.812 29.4393 8.89ZM30.7413 11.956C30.7413 11.382 31.2033 11.032 31.9453 11.032H33.8913L33.8913 11.158C33.8913 12.25 33.1213 12.936 32.0293 12.936C31.2033 12.936 30.7413 12.544 30.7413 11.956ZM37.3242 8.988C37.3242 10.304 38.4162 10.822 39.8162 11.074L40.2922 11.158C41.2022 11.326 41.6642 11.55 41.6642 12.082C41.6642 12.614 41.1742 13.006 40.2922 13.006C39.3962 13.006 38.6682 12.642 38.4722 11.508L37.0442 11.858C37.2822 13.398 38.5142 14.196 40.2922 14.196C42.0282 14.196 43.1482 13.384 43.1482 11.97C43.1482 10.556 42.0142 10.15 40.5022 9.87L40.0262 9.786C39.2702 9.646 38.8082 9.422 38.8082 8.89C38.8082 8.386 39.2562 8.078 40.0122 8.078C40.7682 8.078 41.3142 8.4 41.4822 9.24L42.8822 8.82C42.5742 7.658 41.5662 6.902 40.0122 6.902C38.3882 6.902 37.3242 7.658 37.3242 8.988ZM44.0725 8.344H45.9345L45.9345 12.572C45.9345 13.44 46.4945 14 47.3345 14H49.2805L49.2805 12.74H47.8665C47.6145 12.74 47.4745 12.6 47.4745 12.32L47.4745 8.344H49.4905L49.4905 7.098H47.4745L47.4745 4.844H45.9345L45.9345 7.098H44.0725L44.0725 8.344ZM50.6257 10.514C50.6257 12.684 52.0537 14.196 54.1537 14.196C56.0577 14.196 56.8697 13.104 57.2757 12.376L56.0017 11.69C55.7217 12.292 55.2317 12.866 54.1817 12.866C53.0757 12.866 52.2637 12.096 52.2077 11.032H57.4437L57.4437 10.402C57.4437 8.288 56.0997 6.888 54.0977 6.888C52.0677 6.888 50.6257 8.358 50.6257 10.514ZM52.2217 9.842C52.3477 8.876 53.0197 8.218 54.0837 8.218C55.1057 8.218 55.7917 8.848 55.8757 9.842H52.2217ZM60.6066 7.098H59.1086L59.1086 14L60.6346 14L60.6346 9.912C60.6346 8.862 61.2926 8.372 62.2166 8.372H63.2806L63.2806 7.07H62.4826C61.5866 7.07 61.0266 7.336 60.7466 8.05H60.6066L60.6066 7.098ZM69.1228 4.2L69.1228 14H70.6908L70.6908 5.88H70.8308L73.2388 14H75.5208L77.9148 5.88H78.0548L78.0548 14H79.6368L79.6368 4.2H76.8508L74.4428 12.362H74.3028L71.9088 4.2H69.1228ZM81.8201 4.2L81.8201 14H88.1481L88.1481 12.53H83.4441L83.4441 4.2H81.8201ZM98.1791 4.2H96.5691C94.9311 4.2 93.6851 5.124 93.6851 6.818C93.6851 7.994 94.3711 8.666 95.2811 8.932L95.2811 9.128C94.3711 9.408 93.6291 10.164 93.6291 11.368C93.6291 13.02 94.8191 14 96.5131 14H99.9291L99.9291 9.688H101.245L101.245 8.4H99.9291L99.9291 7.056H98.3891L98.3891 8.4H96.8351C95.9671 8.4 95.2391 7.966 95.2391 6.944C95.2391 5.964 95.9251 5.488 96.8351 5.488H98.1791L98.1791 4.2ZM96.7791 9.688H98.3891L98.3891 12.712H96.7791C95.9111 12.712 95.1691 12.236 95.1691 11.2C95.1691 10.192 95.8691 9.688 96.7791 9.688ZM109.252 4.2L106.368 14H108.034L108.692 11.718H112.332L112.99 14H114.642L111.758 4.2L109.252 4.2ZM109.084 10.248L110.442 5.558H110.582L111.926 10.248H109.084ZM116.022 4.2L116.022 14L117.646 14L117.646 4.2H116.022Z" fill="#1E2029"/>
</g>
<defs>
<clipPath id="clip0">
<rect width="360" height="473" fill="white"/>
</clipPath>
</defs>
</svg>
