<svg width="918" height="145" viewBox="0 0 918 145" fill="none" xmlns="http://www.w3.org/2000/svg">
<rect width="918" height="145" fill="white"/>
<rect width="128" height="27" transform="translate(0 23)" fill="#DCE0FA"/>
<path d="M14.968 31.2L12.084 41H13.75L14.408 38.718H18.048L18.706 41H20.358L17.474 31.2H14.968ZM14.8 37.248L16.158 32.558H16.298L17.642 37.248H14.8ZM21.8775 31.2V41H23.5015V31.2H21.8775ZM32.089 31.2L29.499 35.568H31.221L32.775 32.922H32.943V41H34.567V31.2H32.089Z" fill="#1E2029"/>
<rect width="128" height="80" transform="translate(0 50)" fill="#E3C668"/>
<path d="M14.712 61.6L12.12 70H13.344L13.968 67.96H17.28L17.904 70H19.14L16.548 61.6H14.712ZM14.268 66.88L15.564 62.632H15.684L16.98 66.88H14.268ZM20.2016 61.6V70H21.3896V61.6H20.2016ZM26.8166 61.6V70H30.4166C31.8566 70 32.9126 69.16 32.9126 67.744C32.9126 66.532 32.0966 66.004 31.4726 65.824V65.704C32.0966 65.524 32.8766 65.008 32.8766 63.808C32.8766 62.452 31.8446 61.6 30.4046 61.6H26.8166ZM28.0046 62.668H30.2846C31.1606 62.668 31.7366 63.184 31.7366 63.94C31.7366 64.72 31.1846 65.236 30.2966 65.236H28.0046V62.668ZM28.0046 66.316H30.2846C31.2206 66.316 31.7606 66.808 31.7606 67.612C31.7606 68.392 31.2206 68.932 30.3086 68.932H28.0046V66.316ZM34.1869 65.692L35.2429 66.028C35.3869 65.356 35.8669 64.864 36.7549 64.864C37.6549 64.864 38.0989 65.368 38.0989 66.1V66.484H36.2269C34.9429 66.484 33.9949 67.096 33.9949 68.308C33.9949 69.496 34.9429 70.168 36.1669 70.168C37.3069 70.168 37.7629 69.604 37.9789 69.208H38.1229V70H39.2029V66.172C39.2029 64.756 38.2789 63.94 36.7669 63.94C35.2669 63.94 34.4749 64.732 34.1869 65.692ZM35.1229 68.284C35.1229 67.708 35.5909 67.396 36.2869 67.396H38.0989V67.516C38.0989 68.584 37.3909 69.244 36.3589 69.244C35.5909 69.244 35.1229 68.86 35.1229 68.284ZM40.741 65.68C40.741 66.772 41.653 67.216 42.793 67.42L43.297 67.504C44.113 67.636 44.569 67.864 44.569 68.38C44.569 68.92 44.077 69.28 43.249 69.28C42.421 69.28 41.725 68.932 41.545 67.852L40.489 68.116C40.705 69.496 41.761 70.168 43.249 70.168C44.701 70.168 45.661 69.484 45.661 68.308C45.661 67.12 44.713 66.76 43.465 66.544L42.961 66.472C42.289 66.352 41.845 66.136 41.845 65.62C41.845 65.128 42.289 64.828 43.009 64.828C43.729 64.828 44.245 65.128 44.413 65.92L45.445 65.62C45.193 64.588 44.329 63.94 43.009 63.94C41.629 63.94 40.741 64.588 40.741 65.68ZM46.7045 62.32C46.7045 62.812 47.0765 63.172 47.5685 63.172C48.0725 63.172 48.4445 62.812 48.4445 62.32C48.4445 61.816 48.0725 61.456 47.5685 61.456C47.0765 61.456 46.7045 61.816 46.7045 62.32ZM48.1325 64.108H47.0045V70H48.1325V64.108ZM49.4829 67.06C49.4829 68.884 50.8389 70.168 52.5429 70.168C54.1629 70.168 55.1229 69.196 55.4109 67.924L54.3189 67.672C54.1629 68.548 53.6109 69.172 52.5549 69.172C51.4629 69.172 50.6229 68.332 50.6229 67.06C50.6229 65.776 51.4509 64.936 52.5549 64.936C53.5629 64.936 54.1749 65.572 54.2709 66.424L55.3749 66.196C55.1469 64.936 54.1389 63.94 52.5429 63.94C50.8389 63.94 49.4829 65.224 49.4829 67.06ZM56.5815 65.68C56.5815 66.772 57.4935 67.216 58.6335 67.42L59.1375 67.504C59.9535 67.636 60.4095 67.864 60.4095 68.38C60.4095 68.92 59.9175 69.28 59.0895 69.28C58.2615 69.28 57.5655 68.932 57.3855 67.852L56.3295 68.116C56.5455 69.496 57.6015 70.168 59.0895 70.168C60.5415 70.168 61.5015 69.484 61.5015 68.308C61.5015 67.12 60.5535 66.76 59.3055 66.544L58.8015 66.472C58.1295 66.352 57.6855 66.136 57.6855 65.62C57.6855 65.128 58.1295 64.828 58.8495 64.828C59.5695 64.828 60.0855 65.128 60.2535 65.92L61.2855 65.62C61.0335 64.588 60.1695 63.94 58.8495 63.94C57.4695 63.94 56.5815 64.588 56.5815 65.68Z" fill="#1E2029"/>
<rect width="128" height="27" transform="translate(136 23)" fill="#DCE0FA"/>
<path d="M148.882 31.2V41H152.102C154.72 41 156.134 39.67 156.134 37.01V35.19C156.134 32.53 154.72 31.2 152.102 31.2H148.882ZM150.506 32.67H152.116C153.74 32.67 154.524 33.51 154.524 35.134V37.066C154.524 38.69 153.754 39.53 152.116 39.53H150.506V32.67ZM161.33 31.004C159.272 31.004 157.928 32.054 157.928 33.804C157.928 35.54 159.076 36.226 161.022 36.66L161.484 36.758C162.758 37.052 163.486 37.374 163.486 38.27C163.486 39.152 162.772 39.768 161.428 39.768C160.07 39.768 159.216 39.124 159.216 37.78V37.654H157.62V37.78C157.62 39.978 159.202 41.196 161.428 41.196C163.654 41.196 165.082 39.992 165.082 38.228C165.082 36.464 163.766 35.75 161.806 35.33L161.344 35.218C160.112 34.938 159.524 34.588 159.524 33.748C159.524 32.922 160.154 32.432 161.33 32.432C162.534 32.432 163.318 32.922 163.318 34.14V34.448H164.914V34.14C164.914 32.054 163.388 31.004 161.33 31.004ZM173.216 31.2L170.626 35.568H172.348L173.902 32.922H174.07V41H175.694V31.2H173.216Z" fill="#1E2029"/>
<rect width="128" height="80" transform="translate(136 50)" fill="#E3C668"/>
<path d="M148.816 61.6V70H151.456C153.676 70 154.924 68.884 154.924 66.58V65.02C154.924 62.716 153.676 61.6 151.456 61.6H148.816ZM150.004 62.668H151.468C152.968 62.668 153.736 63.424 153.736 64.984V66.616C153.736 68.164 152.992 68.932 151.468 68.932H150.004V62.668ZM156.233 65.692L157.289 66.028C157.433 65.356 157.913 64.864 158.801 64.864C159.701 64.864 160.145 65.368 160.145 66.1V66.484H158.273C156.989 66.484 156.041 67.096 156.041 68.308C156.041 69.496 156.989 70.168 158.213 70.168C159.353 70.168 159.809 69.604 160.025 69.208H160.169V70H161.249V66.172C161.249 64.756 160.325 63.94 158.813 63.94C157.313 63.94 156.521 64.732 156.233 65.692ZM157.169 68.284C157.169 67.708 157.637 67.396 158.333 67.396H160.145V67.516C160.145 68.584 159.437 69.244 158.405 69.244C157.637 69.244 157.169 68.86 157.169 68.284ZM162.082 65.032H163.786V68.896C163.786 69.568 164.218 70 164.878 70H166.51V69.076H165.25C165.034 69.076 164.914 68.956 164.914 68.716V65.032H166.738V64.108H164.914V62.092H163.786V64.108H162.082V65.032ZM167.911 65.692L168.967 66.028C169.111 65.356 169.591 64.864 170.479 64.864C171.379 64.864 171.823 65.368 171.823 66.1V66.484H169.951C168.667 66.484 167.719 67.096 167.719 68.308C167.719 69.496 168.667 70.168 169.891 70.168C171.031 70.168 171.487 69.604 171.703 69.208H171.847V70H172.927V66.172C172.927 64.756 172.003 63.94 170.491 63.94C168.991 63.94 168.199 64.732 167.911 65.692ZM168.847 68.284C168.847 67.708 169.315 67.396 170.011 67.396H171.823V67.516C171.823 68.584 171.115 69.244 170.083 69.244C169.315 69.244 168.847 68.86 168.847 68.284ZM181.028 61.432C179.3 61.432 178.136 62.32 178.136 63.772C178.136 65.224 179.12 65.812 180.692 66.172L181.208 66.292C182.312 66.544 182.996 66.844 182.996 67.696C182.996 68.536 182.312 69.124 181.088 69.124C179.852 69.124 179.036 68.512 179.036 67.216V67.108H177.86V67.216C177.86 69.148 179.204 70.168 181.088 70.168C182.96 70.168 184.16 69.16 184.16 67.672C184.16 66.172 183.056 65.596 181.484 65.236L180.968 65.116C179.876 64.864 179.312 64.564 179.312 63.748C179.312 62.932 179.96 62.476 181.028 62.476C182.12 62.476 182.888 62.932 182.888 64.072V64.396H184.064V64.072C184.064 62.32 182.756 61.432 181.028 61.432ZM185.175 67.06C185.175 68.884 186.531 70.168 188.235 70.168C189.855 70.168 190.815 69.196 191.103 67.924L190.011 67.672C189.855 68.548 189.303 69.172 188.247 69.172C187.155 69.172 186.315 68.332 186.315 67.06C186.315 65.776 187.143 64.936 188.247 64.936C189.255 64.936 189.867 65.572 189.963 66.424L191.067 66.196C190.839 64.936 189.831 63.94 188.235 63.94C186.531 63.94 185.175 65.224 185.175 67.06ZM192.129 62.32C192.129 62.812 192.501 63.172 192.993 63.172C193.497 63.172 193.869 62.812 193.869 62.32C193.869 61.816 193.497 61.456 192.993 61.456C192.501 61.456 192.129 61.816 192.129 62.32ZM193.557 64.108H192.429V70H193.557V64.108ZM194.908 67.012C194.908 68.824 196.12 70.168 197.944 70.168C199.564 70.168 200.248 69.232 200.608 68.62L199.672 68.092C199.384 68.668 198.904 69.184 197.944 69.184C196.876 69.184 196.132 68.464 196.06 67.444H200.704V66.892C200.704 65.08 199.54 63.94 197.86 63.94C196.144 63.94 194.908 65.212 194.908 67.012ZM196.072 66.532C196.192 65.548 196.84 64.924 197.86 64.924C198.832 64.924 199.492 65.512 199.552 66.532H196.072ZM202.009 64.108V70H203.137V67C203.137 65.656 203.845 64.936 204.901 64.936C205.849 64.936 206.425 65.428 206.425 66.508V70H207.541V66.448C207.541 64.912 206.545 64 205.225 64C204.061 64 203.497 64.528 203.233 65.056H203.113V64.108H202.009ZM208.823 67.06C208.823 68.884 210.179 70.168 211.883 70.168C213.503 70.168 214.463 69.196 214.751 67.924L213.659 67.672C213.503 68.548 212.951 69.172 211.895 69.172C210.803 69.172 209.963 68.332 209.963 67.06C209.963 65.776 210.791 64.936 211.895 64.936C212.903 64.936 213.515 65.572 213.611 66.424L214.715 66.196C214.487 64.936 213.479 63.94 211.883 63.94C210.179 63.94 208.823 65.224 208.823 67.06ZM215.705 67.012C215.705 68.824 216.917 70.168 218.741 70.168C220.361 70.168 221.045 69.232 221.405 68.62L220.469 68.092C220.181 68.668 219.701 69.184 218.741 69.184C217.673 69.184 216.929 68.464 216.857 67.444H221.501V66.892C221.501 65.08 220.337 63.94 218.657 63.94C216.941 63.94 215.705 65.212 215.705 67.012ZM216.869 66.532C216.989 65.548 217.637 64.924 218.657 64.924C219.629 64.924 220.289 65.512 220.349 66.532H216.869ZM148.816 77.6V86H152.416C153.856 86 154.912 85.16 154.912 83.744C154.912 82.532 154.096 82.004 153.472 81.824V81.704C154.096 81.524 154.876 81.008 154.876 79.808C154.876 78.452 153.844 77.6 152.404 77.6H148.816ZM150.004 78.668H152.284C153.16 78.668 153.736 79.184 153.736 79.94C153.736 80.72 153.184 81.236 152.296 81.236H150.004V78.668ZM150.004 82.316H152.284C153.22 82.316 153.76 82.808 153.76 83.612C153.76 84.392 153.22 84.932 152.308 84.932H150.004V82.316ZM156.186 81.692L157.242 82.028C157.386 81.356 157.866 80.864 158.754 80.864C159.654 80.864 160.098 81.368 160.098 82.1V82.484H158.226C156.942 82.484 155.994 83.096 155.994 84.308C155.994 85.496 156.942 86.168 158.166 86.168C159.306 86.168 159.762 85.604 159.978 85.208H160.122V86H161.202V82.172C161.202 80.756 160.278 79.94 158.766 79.94C157.266 79.94 156.474 80.732 156.186 81.692ZM157.122 84.284C157.122 83.708 157.59 83.396 158.286 83.396H160.098V83.516C160.098 84.584 159.39 85.244 158.358 85.244C157.59 85.244 157.122 84.86 157.122 84.284ZM162.74 81.68C162.74 82.772 163.652 83.216 164.792 83.42L165.296 83.504C166.112 83.636 166.568 83.864 166.568 84.38C166.568 84.92 166.076 85.28 165.248 85.28C164.42 85.28 163.724 84.932 163.544 83.852L162.488 84.116C162.704 85.496 163.76 86.168 165.248 86.168C166.7 86.168 167.66 85.484 167.66 84.308C167.66 83.12 166.712 82.76 165.464 82.544L164.96 82.472C164.288 82.352 163.844 82.136 163.844 81.62C163.844 81.128 164.288 80.828 165.008 80.828C165.728 80.828 166.244 81.128 166.412 81.92L167.444 81.62C167.192 80.588 166.328 79.94 165.008 79.94C163.628 79.94 162.74 80.588 162.74 81.68ZM168.704 78.32C168.704 78.812 169.076 79.172 169.568 79.172C170.072 79.172 170.444 78.812 170.444 78.32C170.444 77.816 170.072 77.456 169.568 77.456C169.076 77.456 168.704 77.816 168.704 78.32ZM170.132 80.108H169.004V86H170.132V80.108ZM171.482 83.06C171.482 84.884 172.838 86.168 174.542 86.168C176.162 86.168 177.122 85.196 177.41 83.924L176.318 83.672C176.162 84.548 175.61 85.172 174.554 85.172C173.462 85.172 172.622 84.332 172.622 83.06C172.622 81.776 173.45 80.936 174.554 80.936C175.562 80.936 176.174 81.572 176.27 82.424L177.374 82.196C177.146 80.936 176.138 79.94 174.542 79.94C172.838 79.94 171.482 81.224 171.482 83.06ZM178.581 81.68C178.581 82.772 179.493 83.216 180.633 83.42L181.137 83.504C181.953 83.636 182.409 83.864 182.409 84.38C182.409 84.92 181.917 85.28 181.089 85.28C180.261 85.28 179.565 84.932 179.385 83.852L178.329 84.116C178.545 85.496 179.601 86.168 181.089 86.168C182.541 86.168 183.501 85.484 183.501 84.308C183.501 83.12 182.553 82.76 181.305 82.544L180.801 82.472C180.129 82.352 179.685 82.136 179.685 81.62C179.685 81.128 180.129 80.828 180.849 80.828C181.569 80.828 182.085 81.128 182.253 81.92L183.285 81.62C183.033 80.588 182.169 79.94 180.849 79.94C179.469 79.94 178.581 80.588 178.581 81.68Z" fill="#1E2029"/>
<rect width="128" height="27" transform="translate(272 23)" fill="#DCE0FA"/>
<path d="M286.968 31.2L284.084 41H285.75L286.408 38.718H290.048L290.706 41H292.358L289.474 31.2H286.968ZM286.8 37.248L288.158 32.558H288.298L289.642 37.248H286.8ZM293.878 31.2V41H295.502V31.2H293.878ZM301.947 34.448V34.784H303.557V34.476C303.557 33.104 304.467 32.446 305.601 32.446C306.707 32.446 307.449 33.09 307.449 34.182C307.449 35.386 306.581 35.918 305.097 36.31C303.249 36.786 301.961 37.626 301.961 39.474V41H309.031V39.53H303.585V39.334C303.585 38.242 304.397 37.934 305.867 37.556C307.911 37.038 309.073 36.128 309.073 34.224C309.073 32.236 307.491 31.004 305.573 31.004C303.599 31.004 301.947 32.194 301.947 34.448Z" fill="#1E2029"/>
<rect width="128" height="80" transform="translate(272 50)" fill="#E3C668"/>
<path d="M284.528 66.724C284.528 68.92 285.812 70.168 287.9 70.168C289.892 70.168 291.092 69.004 291.092 67.168V66.904H289.904V67.18C289.904 68.308 289.244 69.112 287.9 69.112C286.544 69.112 285.716 68.212 285.716 66.748V64.852C285.716 63.388 286.532 62.488 287.9 62.488C289.208 62.488 289.904 63.304 289.904 64.432V64.636H291.092V64.444C291.092 62.608 289.94 61.432 287.9 61.432C285.836 61.432 284.528 62.68 284.528 64.876V66.724ZM292.099 67.06C292.099 68.932 293.359 70.168 295.135 70.168C296.911 70.168 298.183 68.932 298.183 67.06C298.183 65.176 296.911 63.94 295.135 63.94C293.359 63.94 292.099 65.176 292.099 67.06ZM293.227 67.06C293.227 65.788 293.995 64.936 295.135 64.936C296.275 64.936 297.055 65.764 297.055 67.06C297.055 68.344 296.275 69.172 295.135 69.172C293.995 69.172 293.227 68.368 293.227 67.06ZM299.54 64.108V70H300.668V67C300.668 65.656 301.376 64.936 302.432 64.936C303.38 64.936 303.956 65.428 303.956 66.508V70H305.072V66.448C305.072 64.912 304.076 64 302.756 64C301.592 64 301.028 64.528 300.764 65.056H300.644V64.108H299.54ZM305.81 64.108L307.982 70H309.614L311.798 64.108H310.574L308.858 69.004H308.738L307.034 64.108H305.81ZM312.416 67.06C312.416 68.932 313.676 70.168 315.452 70.168C317.228 70.168 318.5 68.932 318.5 67.06C318.5 65.176 317.228 63.94 315.452 63.94C313.676 63.94 312.416 65.176 312.416 67.06ZM313.544 67.06C313.544 65.788 314.312 64.936 315.452 64.936C316.592 64.936 317.372 65.764 317.372 67.06C317.372 68.344 316.592 69.172 315.452 69.172C314.312 69.172 313.544 68.368 313.544 67.06ZM320.985 61.6H319.857V70H320.985V61.6ZM328.228 70V64.108H327.1V67.108C327.1 68.452 326.392 69.172 325.336 69.172C324.388 69.172 323.812 68.68 323.812 67.6V64.108H322.696V67.66C322.696 69.196 323.692 70.108 325.012 70.108C326.176 70.108 326.74 69.58 327.004 69.052H327.124V70H328.228ZM329.245 65.032H330.949V68.896C330.949 69.568 331.381 70 332.041 70H333.673V69.076H332.413C332.197 69.076 332.077 68.956 332.077 68.716V65.032H333.901V64.108H332.077V62.092H330.949V64.108H329.245V65.032ZM334.917 62.32C334.917 62.812 335.289 63.172 335.781 63.172C336.285 63.172 336.657 62.812 336.657 62.32C336.657 61.816 336.285 61.456 335.781 61.456C335.289 61.456 334.917 61.816 334.917 62.32ZM336.345 64.108H335.217V70H336.345V64.108ZM337.696 67.06C337.696 68.932 338.956 70.168 340.732 70.168C342.508 70.168 343.78 68.932 343.78 67.06C343.78 65.176 342.508 63.94 340.732 63.94C338.956 63.94 337.696 65.176 337.696 67.06ZM338.824 67.06C338.824 65.788 339.592 64.936 340.732 64.936C341.872 64.936 342.652 65.764 342.652 67.06C342.652 68.344 341.872 69.172 340.732 69.172C339.592 69.172 338.824 68.368 338.824 67.06ZM345.137 64.108V70H346.265V67C346.265 65.656 346.973 64.936 348.029 64.936C348.977 64.936 349.553 65.428 349.553 66.508V70H350.669V66.448C350.669 64.912 349.673 64 348.353 64C347.189 64 346.625 64.528 346.361 65.056H346.241V64.108L345.137 64.108ZM352.179 65.692L353.235 66.028C353.379 65.356 353.859 64.864 354.747 64.864C355.647 64.864 356.091 65.368 356.091 66.1V66.484H354.219C352.935 66.484 351.987 67.096 351.987 68.308C351.987 69.496 352.935 70.168 354.159 70.168C355.299 70.168 355.755 69.604 355.971 69.208H356.115V70H357.195V66.172C357.195 64.756 356.271 63.94 354.759 63.94C353.259 63.94 352.467 64.732 352.179 65.692ZM353.115 68.284C353.115 67.708 353.583 67.396 354.279 67.396H356.091V67.516C356.091 68.584 355.383 69.244 354.351 69.244C353.583 69.244 353.115 68.86 353.115 68.284ZM359.981 61.6H358.853V70H359.981V61.6ZM284.816 77.6V86H286.004V78.836H286.124L288.98 86H291.008V77.6H289.82V84.764H289.7L286.844 77.6H284.816ZM292.38 83.012C292.38 84.824 293.592 86.168 295.416 86.168C297.036 86.168 297.72 85.232 298.08 84.62L297.144 84.092C296.856 84.668 296.376 85.184 295.416 85.184C294.348 85.184 293.604 84.464 293.532 83.444H298.176V82.892C298.176 81.08 297.012 79.94 295.332 79.94C293.616 79.94 292.38 81.212 292.38 83.012ZM293.544 82.532C293.664 81.548 294.312 80.924 295.332 80.924C296.304 80.924 296.964 81.512 297.024 82.532H293.544ZM305.001 86V80.108H303.874V83.108C303.874 84.452 303.165 85.172 302.109 85.172C301.161 85.172 300.585 84.68 300.585 83.6V80.108H299.469V83.66C299.469 85.196 300.465 86.108 301.785 86.108C302.949 86.108 303.514 85.58 303.777 85.052H303.898V86H305.001ZM307.831 80.108H306.727V86H307.855V82.448C307.855 81.5 308.407 81.056 309.235 81.056H310.159V80.084H309.427C308.647 80.084 308.179 80.312 307.951 80.9H307.831V80.108ZM311.062 81.692L312.118 82.028C312.262 81.356 312.742 80.864 313.63 80.864C314.53 80.864 314.974 81.368 314.974 82.1V82.484H313.102C311.818 82.484 310.87 83.096 310.87 84.308C310.87 85.496 311.818 86.168 313.042 86.168C314.182 86.168 314.638 85.604 314.854 85.208H314.998V86H316.078V82.172C316.078 80.756 315.154 79.94 313.642 79.94C312.142 79.94 311.35 80.732 311.062 81.692ZM311.998 84.284C311.998 83.708 312.466 83.396 313.162 83.396H314.974V83.516C314.974 84.584 314.266 85.244 313.234 85.244C312.466 85.244 311.998 84.86 311.998 84.284ZM318.864 77.6H317.736V86H318.864V77.6ZM324.269 77.6V86H325.457V78.836H325.577L328.433 86H330.461V77.6H329.273V84.764H329.153L326.297 77.6H324.269ZM331.833 83.012C331.833 84.824 333.045 86.168 334.869 86.168C336.489 86.168 337.173 85.232 337.533 84.62L336.597 84.092C336.309 84.668 335.829 85.184 334.869 85.184C333.801 85.184 333.057 84.464 332.985 83.444H337.629V82.892C337.629 81.08 336.465 79.94 334.785 79.94C333.069 79.94 331.833 81.212 331.833 83.012ZM332.997 82.532C333.117 81.548 333.765 80.924 334.785 80.924C335.757 80.924 336.417 81.512 336.477 82.532H332.997ZM338.168 81.032H339.872V84.896C339.872 85.568 340.304 86 340.964 86H342.596V85.076H341.336C341.12 85.076 341 84.956 341 84.716V81.032H342.824V80.108H341V78.092H339.872V80.108H338.168V81.032ZM343.673 80.108L345.005 86H346.625L347.873 81.104H347.993L349.241 86H350.861L352.193 80.108H351.053L350.081 85.004H349.961L348.713 80.108H347.153L345.905 85.004H345.785L344.813 80.108H343.673ZM353.018 83.06C353.018 84.932 354.278 86.168 356.054 86.168C357.83 86.168 359.102 84.932 359.102 83.06C359.102 81.176 357.83 79.94 356.054 79.94C354.278 79.94 353.018 81.176 353.018 83.06ZM354.146 83.06C354.146 81.788 354.914 80.936 356.054 80.936C357.194 80.936 357.974 81.764 357.974 83.06C357.974 84.344 357.194 85.172 356.054 85.172C354.914 85.172 354.146 84.368 354.146 83.06ZM361.563 80.108H360.459V86H361.587V82.448C361.587 81.5 362.139 81.056 362.967 81.056H363.891V80.084H363.159C362.379 80.084 361.911 80.312 361.683 80.9H361.563V80.108ZM370.781 80.108H369.113L366.125 82.748V77.6H364.997V86H366.125V84.128L367.217 83.18L369.353 86H370.733L368.021 82.484L370.781 80.108ZM371.77 81.68C371.77 82.772 372.682 83.216 373.822 83.42L374.326 83.504C375.142 83.636 375.598 83.864 375.598 84.38C375.598 84.92 375.106 85.28 374.278 85.28C373.45 85.28 372.754 84.932 372.574 83.852L371.518 84.116C371.734 85.496 372.79 86.168 374.278 86.168C375.73 86.168 376.69 85.484 376.69 84.308C376.69 83.12 375.742 82.76 374.494 82.544L373.99 82.472C373.318 82.352 372.874 82.136 372.874 81.62C372.874 81.128 373.318 80.828 374.038 80.828C374.758 80.828 375.274 81.128 375.442 81.92L376.474 81.62C376.222 80.588 375.358 79.94 374.038 79.94C372.658 79.94 371.77 80.588 371.77 81.68Z" fill="#1E2029"/>
<rect width="128" height="27" transform="translate(424 23)" fill="#636CAD"/>
<path d="M438.968 31.2L436.084 41H437.75L438.408 38.718H442.048L442.706 41H444.358L441.474 31.2H438.968ZM438.8 37.248L440.158 32.558H440.298L441.642 37.248H438.8ZM445.878 31.2V41H447.502V31.2H445.878ZM454.073 31.2V32.67H458.749L456.089 34.896V36.366H457.685C458.721 36.366 459.491 36.884 459.491 37.962C459.491 38.984 458.749 39.754 457.503 39.754C456.173 39.754 455.417 38.956 455.417 37.822V37.444H453.807V37.864C453.807 39.852 455.221 41.196 457.503 41.196C459.617 41.196 461.115 39.908 461.115 37.962C461.115 36.156 459.869 35.176 458.399 35.176H458.049V35.022L460.947 32.628V31.2H454.073Z" fill="white"/>
<rect width="128" height="80" transform="translate(424 50)" fill="#B49848"/>
<path d="M436.816 61.6V70H438.004V62.836H438.124L440.98 70H443.008V61.6H441.82V68.764H441.7L438.844 61.6H436.816ZM444.608 65.692L445.664 66.028C445.808 65.356 446.288 64.864 447.176 64.864C448.076 64.864 448.52 65.368 448.52 66.1V66.484H446.648C445.364 66.484 444.416 67.096 444.416 68.308C444.416 69.496 445.364 70.168 446.588 70.168C447.728 70.168 448.184 69.604 448.4 69.208H448.544V70H449.624V66.172C449.624 64.756 448.7 63.94 447.188 63.94C445.688 63.94 444.896 64.732 444.608 65.692ZM445.544 68.284C445.544 67.708 446.012 67.396 446.708 67.396H448.52V67.516C448.52 68.584 447.812 69.244 446.78 69.244C446.012 69.244 445.544 68.86 445.544 68.284ZM450.457 65.032H452.161V68.896C452.161 69.568 452.593 70 453.253 70H454.885V69.076H453.625C453.409 69.076 453.289 68.956 453.289 68.716V65.032H455.113V64.108H453.289V62.092H452.161V64.108H450.457V65.032ZM461.95 70V64.108H460.822V67.108C460.822 68.452 460.114 69.172 459.058 69.172C458.11 69.172 457.534 68.68 457.534 67.6V64.108H456.418V67.66C456.418 69.196 457.414 70.108 458.734 70.108C459.898 70.108 460.462 69.58 460.726 69.052H460.846V70H461.95ZM464.779 64.108H463.675V70H464.803V66.448C464.803 65.5 465.355 65.056 466.183 65.056H467.107V64.084H466.375C465.595 64.084 465.127 64.312 464.899 64.9H464.779V64.108ZM468.01 65.692L469.066 66.028C469.21 65.356 469.69 64.864 470.578 64.864C471.478 64.864 471.922 65.368 471.922 66.1V66.484H470.05C468.766 66.484 467.818 67.096 467.818 68.308C467.818 69.496 468.766 70.168 469.99 70.168C471.13 70.168 471.586 69.604 471.802 69.208H471.946V70H473.026V66.172C473.026 64.756 472.102 63.94 470.59 63.94C469.09 63.94 468.298 64.732 468.01 65.692ZM468.946 68.284C468.946 67.708 469.414 67.396 470.11 67.396H471.922V67.516C471.922 68.584 471.214 69.244 470.182 69.244C469.414 69.244 468.946 68.86 468.946 68.284ZM475.812 61.6H474.684V70H475.812V61.6ZM481.217 61.6V70H486.593V68.932H482.405V61.6H481.217ZM487.568 65.692L488.624 66.028C488.768 65.356 489.248 64.864 490.136 64.864C491.036 64.864 491.48 65.368 491.48 66.1V66.484H489.608C488.324 66.484 487.376 67.096 487.376 68.308C487.376 69.496 488.324 70.168 489.548 70.168C490.688 70.168 491.144 69.604 491.36 69.208H491.504V70H492.584V66.172C492.584 64.756 491.66 63.94 490.148 63.94C488.648 63.94 487.856 64.732 487.568 65.692ZM488.504 68.284C488.504 67.708 488.972 67.396 489.668 67.396H491.48V67.516C491.48 68.584 490.772 69.244 489.74 69.244C488.972 69.244 488.504 68.86 488.504 68.284ZM494.242 64.108V70H495.37V67C495.37 65.656 496.078 64.936 497.134 64.936C498.082 64.936 498.658 65.428 498.658 66.508V70H499.774V66.448C499.774 64.912 498.778 64 497.458 64C496.294 64 495.73 64.528 495.466 65.056H495.346V64.108H494.242ZM506.049 64.108V65.056H505.929C505.569 64.468 504.945 63.94 503.793 63.94C502.305 63.94 501.057 65.14 501.057 66.976C501.057 68.824 502.305 70.012 503.793 70.012C504.945 70.012 505.569 69.472 505.905 68.944H506.025V69.64C506.025 70.948 505.257 71.608 504.105 71.608C502.965 71.608 502.401 70.948 502.185 70.252L501.165 70.672C501.453 71.536 502.341 72.568 504.129 72.568C505.941 72.568 507.153 71.536 507.153 69.688V64.108H506.049ZM504.105 69.04C502.989 69.04 502.197 68.248 502.197 66.976C502.197 65.716 502.989 64.924 504.105 64.924C505.221 64.924 506.037 65.716 506.037 66.976C506.037 68.236 505.221 69.04 504.105 69.04ZM514.405 70V64.108H513.277V67.108C513.277 68.452 512.569 69.172 511.513 69.172C510.565 69.172 509.989 68.68 509.989 67.6V64.108H508.873V67.66C508.873 69.196 509.869 70.108 511.189 70.108C512.353 70.108 512.917 69.58 513.181 69.052H513.301V70H514.405ZM515.986 65.692L517.042 66.028C517.186 65.356 517.666 64.864 518.554 64.864C519.454 64.864 519.898 65.368 519.898 66.1V66.484H518.026C516.742 66.484 515.794 67.096 515.794 68.308C515.794 69.496 516.742 70.168 517.966 70.168C519.106 70.168 519.562 69.604 519.778 69.208H519.922V70H521.002V66.172C521.002 64.756 520.078 63.94 518.566 63.94C517.066 63.94 516.274 64.732 515.986 65.692ZM516.922 68.284C516.922 67.708 517.39 67.396 518.086 67.396H519.898V67.516C519.898 68.584 519.19 69.244 518.158 69.244C517.39 69.244 516.922 68.86 516.922 68.284ZM527.28 64.108V65.056H527.16C526.8 64.468 526.176 63.94 525.024 63.94C523.536 63.94 522.288 65.14 522.288 66.976C522.288 68.824 523.536 70.012 525.024 70.012C526.176 70.012 526.8 69.472 527.136 68.944H527.256V69.64C527.256 70.948 526.488 71.608 525.336 71.608C524.196 71.608 523.632 70.948 523.416 70.252L522.396 70.672C522.684 71.536 523.572 72.568 525.36 72.568C527.172 72.568 528.384 71.536 528.384 69.688V64.108H527.28ZM525.336 69.04C524.22 69.04 523.428 68.248 523.428 66.976C523.428 65.716 524.22 64.924 525.336 64.924C526.452 64.924 527.268 65.716 527.268 66.976C527.268 68.236 526.452 69.04 525.336 69.04ZM529.744 67.012C529.744 68.824 530.956 70.168 532.78 70.168C534.4 70.168 535.084 69.232 535.444 68.62L534.508 68.092C534.22 68.668 533.74 69.184 532.78 69.184C531.712 69.184 530.968 68.464 530.896 67.444H535.54V66.892C535.54 65.08 534.376 63.94 532.696 63.94C530.98 63.94 529.744 65.212 529.744 67.012ZM530.908 66.532C531.028 65.548 531.676 64.924 532.696 64.924C533.668 64.924 534.328 65.512 534.388 66.532H530.908ZM436.816 77.6V86H438.004V82.712H440.104C441.616 82.712 442.756 81.74 442.756 80.156C442.756 78.584 441.64 77.6 440.104 77.6H436.816ZM438.004 78.668H439.984C440.968 78.668 441.568 79.232 441.568 80.156C441.568 81.08 440.968 81.644 439.984 81.644H438.004V78.668ZM445.048 80.108H443.944V86H445.072V82.448C445.072 81.5 445.624 81.056 446.452 81.056H447.376V80.084H446.644C445.864 80.084 445.396 80.312 445.168 80.9H445.048V80.108ZM447.852 83.06C447.852 84.932 449.112 86.168 450.888 86.168C452.664 86.168 453.936 84.932 453.936 83.06C453.936 81.176 452.664 79.94 450.888 79.94C449.112 79.94 447.852 81.176 447.852 83.06ZM448.98 83.06C448.98 81.788 449.748 80.936 450.888 80.936C452.028 80.936 452.808 81.764 452.808 83.06C452.808 84.344 452.028 85.172 450.888 85.172C449.748 85.172 448.98 84.368 448.98 83.06ZM454.921 83.06C454.921 84.884 456.277 86.168 457.981 86.168C459.601 86.168 460.561 85.196 460.849 83.924L459.757 83.672C459.601 84.548 459.049 85.172 457.993 85.172C456.901 85.172 456.061 84.332 456.061 83.06C456.061 81.776 456.889 80.936 457.993 80.936C459.001 80.936 459.613 81.572 459.709 82.424L460.813 82.196C460.585 80.936 459.577 79.94 457.981 79.94C456.277 79.94 454.921 81.224 454.921 83.06ZM461.803 83.012C461.803 84.824 463.015 86.168 464.839 86.168C466.459 86.168 467.143 85.232 467.503 84.62L466.567 84.092C466.279 84.668 465.799 85.184 464.839 85.184C463.771 85.184 463.027 84.464 462.955 83.444H467.599V82.892C467.599 81.08 466.435 79.94 464.755 79.94C463.039 79.94 461.803 81.212 461.803 83.012ZM462.967 82.532C463.087 81.548 463.735 80.924 464.755 80.924C465.727 80.924 466.387 81.512 466.447 82.532H462.967ZM468.749 81.68C468.749 82.772 469.661 83.216 470.801 83.42L471.305 83.504C472.121 83.636 472.577 83.864 472.577 84.38C472.577 84.92 472.085 85.28 471.257 85.28C470.429 85.28 469.733 84.932 469.553 83.852L468.497 84.116C468.713 85.496 469.769 86.168 471.257 86.168C472.709 86.168 473.669 85.484 473.669 84.308C473.669 83.12 472.721 82.76 471.473 82.544L470.969 82.472C470.297 82.352 469.853 82.136 469.853 81.62C469.853 81.128 470.297 80.828 471.017 80.828C471.737 80.828 472.253 81.128 472.421 81.92L473.453 81.62C473.201 80.588 472.337 79.94 471.017 79.94C469.637 79.94 468.749 80.588 468.749 81.68ZM474.787 81.68C474.787 82.772 475.699 83.216 476.839 83.42L477.343 83.504C478.159 83.636 478.615 83.864 478.615 84.38C478.615 84.92 478.123 85.28 477.295 85.28C476.467 85.28 475.771 84.932 475.591 83.852L474.535 84.116C474.751 85.496 475.807 86.168 477.295 86.168C478.747 86.168 479.707 85.484 479.707 84.308C479.707 83.12 478.759 82.76 477.511 82.544L477.007 82.472C476.335 82.352 475.891 82.136 475.891 81.62C475.891 81.128 476.335 80.828 477.055 80.828C477.775 80.828 478.291 81.128 478.459 81.92L479.491 81.62C479.239 80.588 478.375 79.94 477.055 79.94C475.675 79.94 474.787 80.588 474.787 81.68ZM480.75 78.32C480.75 78.812 481.122 79.172 481.614 79.172C482.118 79.172 482.49 78.812 482.49 78.32C482.49 77.816 482.118 77.456 481.614 77.456C481.122 77.456 480.75 77.816 480.75 78.32ZM482.178 80.108H481.05V86H482.178V80.108ZM483.901 80.108V86H485.029V83C485.029 81.656 485.737 80.936 486.793 80.936C487.741 80.936 488.317 81.428 488.317 82.508V86H489.433V82.448C489.433 80.912 488.437 80 487.117 80C485.953 80 485.389 80.528 485.125 81.056H485.005V80.108H483.901ZM495.707 80.108V81.056H495.587C495.227 80.468 494.603 79.94 493.451 79.94C491.963 79.94 490.715 81.14 490.715 82.976C490.715 84.824 491.963 86.012 493.451 86.012C494.603 86.012 495.227 85.472 495.563 84.944H495.683V85.64C495.683 86.948 494.915 87.608 493.763 87.608C492.623 87.608 492.059 86.948 491.843 86.252L490.823 86.672C491.111 87.536 491.999 88.568 493.787 88.568C495.599 88.568 496.811 87.536 496.811 85.688V80.108H495.707ZM493.763 85.04C492.647 85.04 491.855 84.248 491.855 82.976C491.855 81.716 492.647 80.924 493.763 80.924C494.879 80.924 495.695 81.716 495.695 82.976C495.695 84.236 494.879 85.04 493.763 85.04Z" fill="white"/>
<rect width="128" height="27" transform="translate(576 23)" fill="#2F3564"/>
<path d="M590.968 31.2L588.084 41H589.75L590.408 38.718H594.048L594.706 41H596.358L593.474 31.2H590.968ZM590.8 37.248L592.158 32.558H592.298L593.642 37.248H590.8ZM597.878 31.2V41H599.502V31.2H597.878ZM606.199 31.2V36.576H608.355C608.537 36.226 608.929 35.764 609.769 35.764C610.777 35.764 611.477 36.464 611.477 37.626C611.477 38.928 610.721 39.754 609.475 39.754C608.215 39.754 607.473 38.97 607.473 37.71V37.528H605.863V37.822C605.863 39.866 607.347 41.196 609.517 41.196C611.673 41.196 613.101 39.726 613.101 37.556C613.101 35.582 611.743 34.392 610.175 34.392C608.817 34.392 608.243 35.092 607.977 35.526H607.809V32.67H612.779V31.2H606.199Z" fill="white"/>
<rect width="128" height="80" transform="translate(576 50)" fill="#76623B"/>
<path d="M588.816 61.6V70H590.004V66.712H592.104C593.616 66.712 594.756 65.74 594.756 64.156C594.756 62.584 593.64 61.6 592.104 61.6H588.816ZM590.004 62.668H591.984C592.968 62.668 593.568 63.232 593.568 64.156C593.568 65.08 592.968 65.644 591.984 65.644H590.004V62.668ZM597.048 64.108H595.944V70H597.072V66.448C597.072 65.5 597.624 65.056 598.452 65.056H599.376V64.084H598.644C597.864 64.084 597.396 64.312 597.168 64.9H597.048V64.108ZM599.852 67.06C599.852 68.932 601.112 70.168 602.888 70.168C604.664 70.168 605.936 68.932 605.936 67.06C605.936 65.176 604.664 63.94 602.888 63.94C601.112 63.94 599.852 65.176 599.852 67.06ZM600.98 67.06C600.98 65.788 601.748 64.936 602.888 64.936C604.028 64.936 604.808 65.764 604.808 67.06C604.808 68.344 604.028 69.172 602.888 69.172C601.748 69.172 600.98 68.368 600.98 67.06ZM613.017 61.6H611.889V65.02H611.769C611.433 64.468 610.821 63.94 609.657 63.94C608.169 63.94 606.921 65.152 606.921 67.06C606.921 68.968 608.169 70.168 609.657 70.168C610.821 70.168 611.433 69.64 611.793 69.064H611.913V70H613.017V61.6ZM609.969 64.924C611.085 64.924 611.901 65.728 611.901 67.06C611.901 68.38 611.085 69.184 609.969 69.184C608.853 69.184 608.061 68.392 608.061 67.06C608.061 65.716 608.853 64.924 609.969 64.924ZM620.269 70V64.108H619.141V67.108C619.141 68.452 618.433 69.172 617.377 69.172C616.429 69.172 615.853 68.68 615.853 67.6V64.108H614.737V67.66C614.737 69.196 615.733 70.108 617.053 70.108C618.217 70.108 618.781 69.58 619.045 69.052H619.165V70H620.269ZM621.622 67.06C621.622 68.884 622.978 70.168 624.682 70.168C626.302 70.168 627.262 69.196 627.55 67.924L626.458 67.672C626.302 68.548 625.75 69.172 624.694 69.172C623.602 69.172 622.762 68.332 622.762 67.06C622.762 65.776 623.59 64.936 624.694 64.936C625.702 64.936 626.314 65.572 626.41 66.424L627.514 66.196C627.286 64.936 626.278 63.94 624.682 63.94C622.978 63.94 621.622 65.224 621.622 67.06ZM628.109 65.032H629.813V68.896C629.813 69.568 630.245 70 630.905 70H632.537V69.076H631.277C631.061 69.076 630.941 68.956 630.941 68.716V65.032H632.765V64.108H630.941V62.092H629.813V64.108H628.109V65.032ZM633.782 62.32C633.782 62.812 634.154 63.172 634.646 63.172C635.15 63.172 635.522 62.812 635.522 62.32C635.522 61.816 635.15 61.456 634.646 61.456C634.154 61.456 633.782 61.816 633.782 62.32ZM635.21 64.108H634.082V70H635.21V64.108ZM636.56 67.06C636.56 68.932 637.82 70.168 639.596 70.168C641.372 70.168 642.644 68.932 642.644 67.06C642.644 65.176 641.372 63.94 639.596 63.94C637.82 63.94 636.56 65.176 636.56 67.06ZM637.688 67.06C637.688 65.788 638.456 64.936 639.596 64.936C640.736 64.936 641.516 65.764 641.516 67.06C641.516 68.344 640.736 69.172 639.596 69.172C638.456 69.172 637.688 68.368 637.688 67.06ZM644.001 64.108V70H645.129V67C645.129 65.656 645.837 64.936 646.893 64.936C647.841 64.936 648.417 65.428 648.417 66.508V70H649.533V66.448C649.533 64.912 648.537 64 647.217 64C646.053 64 645.489 64.528 645.225 65.056H645.105V64.108H644.001ZM650.888 62.32C650.888 62.812 651.26 63.172 651.752 63.172C652.256 63.172 652.628 62.812 652.628 62.32C652.628 61.816 652.256 61.456 651.752 61.456C651.26 61.456 650.888 61.816 650.888 62.32ZM652.316 64.108H651.188V70H652.316V64.108ZM653.918 64.108V65.032H657.506L653.798 69.16V70H659.102V69.076H655.31L659.006 64.948V64.108H653.918ZM660.21 62.32C660.21 62.812 660.582 63.172 661.074 63.172C661.578 63.172 661.95 62.812 661.95 62.32C661.95 61.816 661.578 61.456 661.074 61.456C660.582 61.456 660.21 61.816 660.21 62.32ZM661.638 64.108H660.51V70H661.638V64.108ZM663.36 64.108V70H664.488V67C664.488 65.656 665.196 64.936 666.252 64.936C667.2 64.936 667.776 65.428 667.776 66.508V70H668.892V66.448C668.892 64.912 667.896 64 666.576 64C665.412 64 664.848 64.528 664.584 65.056H664.464V64.108H663.36ZM675.167 64.108V65.056H675.047C674.687 64.468 674.063 63.94 672.911 63.94C671.423 63.94 670.175 65.14 670.175 66.976C670.175 68.824 671.423 70.012 672.911 70.012C674.063 70.012 674.687 69.472 675.023 68.944H675.143V69.64C675.143 70.948 674.375 71.608 673.223 71.608C672.083 71.608 671.519 70.948 671.303 70.252L670.283 70.672C670.571 71.536 671.459 72.568 673.247 72.568C675.059 72.568 676.271 71.536 676.271 69.688V64.108H675.167ZM673.223 69.04C672.107 69.04 671.315 68.248 671.315 66.976C671.315 65.716 672.107 64.924 673.223 64.924C674.339 64.924 675.155 65.716 675.155 66.976C675.155 68.236 674.339 69.04 673.223 69.04ZM683.581 61.6L680.989 70H682.213L682.837 67.96H686.149L686.773 70H688.009L685.417 61.6H683.581ZM683.137 66.88L684.433 62.632H684.553L685.849 66.88H683.137ZM689.071 61.6V70H690.259V61.6H689.071ZM589.524 85.652C589.524 88.016 590.808 88.976 592.656 88.976V87.956C591.312 87.92 590.652 87.152 590.652 85.556V79.724C590.652 78.128 591.312 77.36 592.656 77.324V76.304C590.808 76.304 589.524 77.264 589.524 79.628V85.652ZM593.834 77.6V86H594.998V78.836H595.118L597.422 86H599.102L601.394 78.836H601.514V86H602.678V77.6H600.626L598.322 84.788H598.202L595.886 77.6H593.834ZM604.431 77.6V86H609.807V84.932H605.619V77.6H604.431ZM610.65 80.828V82.772C610.65 84.98 611.958 86.168 613.998 86.168C616.038 86.168 617.346 84.98 617.346 82.772V80.828C617.346 78.62 616.038 77.432 613.998 77.432C611.958 77.432 610.65 78.62 610.65 80.828ZM611.838 80.78C611.838 79.364 612.642 78.488 613.998 78.488C615.354 78.488 616.158 79.364 616.158 80.78V82.82C616.158 84.236 615.354 85.112 613.998 85.112C612.642 85.112 611.838 84.236 611.838 82.82V80.78ZM618.804 88.4H619.932V85.1H620.052C620.388 85.64 621 86.168 622.152 86.168C623.652 86.168 624.9 84.968 624.9 83.06C624.9 81.152 623.652 79.94 622.152 79.94C621 79.94 620.388 80.468 620.028 81.056H619.908V80.108H618.804V88.4ZM621.852 85.184C620.724 85.184 619.92 84.38 619.92 83.06C619.92 81.728 620.724 80.924 621.852 80.924C622.968 80.924 623.76 81.716 623.76 83.06C623.76 84.392 622.968 85.184 621.852 85.184ZM626.104 81.68C626.104 82.772 627.016 83.216 628.156 83.42L628.66 83.504C629.476 83.636 629.932 83.864 629.932 84.38C629.932 84.92 629.44 85.28 628.612 85.28C627.784 85.28 627.088 84.932 626.908 83.852L625.852 84.116C626.068 85.496 627.124 86.168 628.612 86.168C630.064 86.168 631.024 85.484 631.024 84.308C631.024 83.12 630.076 82.76 628.828 82.544L628.324 82.472C627.652 82.352 627.208 82.136 627.208 81.62C627.208 81.128 627.652 80.828 628.372 80.828C629.092 80.828 629.608 81.128 629.776 81.92L630.808 81.62C630.556 80.588 629.692 79.94 628.372 79.94C626.992 79.94 626.104 80.588 626.104 81.68ZM634.936 85.652V79.628C634.936 77.264 633.664 76.304 631.804 76.304V77.324C633.16 77.36 633.82 78.128 633.82 79.724V85.556C633.82 87.152 633.16 87.92 631.804 87.956V88.976C633.664 88.976 634.936 88.016 634.936 85.652Z" fill="white"/>
<rect width="128" height="27" transform="translate(728 23)" fill="#1F5F57"/>
<path d="M742.968 31.2L740.084 41H741.75L742.408 38.718H746.048L746.706 41H748.358L745.474 31.2H742.968ZM742.8 37.248L744.158 32.558H744.298L745.642 37.248H742.8ZM749.878 31.2V41H751.502V31.2H749.878ZM761.643 31.2L757.597 37.64V39.054H762.567V41H764.191V39.054H765.815V37.584H764.191V31.2H761.643ZM762.399 32.614H762.567V37.584H759.291L762.399 32.614Z" fill="white"/>
<rect width="128" height="80" transform="translate(728 50)" fill="#B49848"/>
<path d="M746.996 64.12C746.996 62.56 745.88 61.6 744.344 61.6H740.816V70H742.004V66.64H743.768L745.484 70H746.84L745.004 66.58C746.168 66.34 746.996 65.44 746.996 64.12ZM742.004 62.668H744.224C745.208 62.668 745.808 63.22 745.808 64.12C745.808 65.032 745.208 65.584 744.224 65.584H742.004V62.668ZM747.935 67.012C747.935 68.824 749.147 70.168 750.971 70.168C752.591 70.168 753.275 69.232 753.635 68.62L752.699 68.092C752.411 68.668 751.931 69.184 750.971 69.184C749.903 69.184 749.159 68.464 749.087 67.444H753.731V66.892C753.731 65.08 752.567 63.94 750.887 63.94C749.171 63.94 747.935 65.212 747.935 67.012ZM749.099 66.532C749.219 65.548 749.867 64.924 750.887 64.924C751.859 64.924 752.519 65.512 752.579 66.532H749.099ZM754.736 62.32C754.736 62.812 755.108 63.172 755.6 63.172C756.104 63.172 756.476 62.812 756.476 62.32C756.476 61.816 756.104 61.456 755.6 61.456C755.108 61.456 754.736 61.816 754.736 62.32ZM756.164 64.108H755.036V70H756.164V64.108ZM757.887 64.108V70H759.015V67C759.015 65.656 759.723 64.936 760.779 64.936C761.727 64.936 762.303 65.428 762.303 66.508V70H763.419V66.448C763.419 64.912 762.423 64 761.103 64C759.939 64 759.375 64.528 759.111 65.056H758.991V64.108H757.887ZM764.38 64.108V65.032H766.096V70H767.224V65.032H768.976V64.108H767.224V62.884C767.224 62.644 767.344 62.524 767.56 62.524H768.736V61.6H767.188C766.528 61.6 766.096 62.02 766.096 62.704V64.108H764.38ZM769.755 67.06C769.755 68.932 771.015 70.168 772.791 70.168C774.567 70.168 775.839 68.932 775.839 67.06C775.839 65.176 774.567 63.94 772.791 63.94C771.015 63.94 769.755 65.176 769.755 67.06ZM770.883 67.06C770.883 65.788 771.651 64.936 772.791 64.936C773.931 64.936 774.711 65.764 774.711 67.06C774.711 68.344 773.931 69.172 772.791 69.172C771.651 69.172 770.883 68.368 770.883 67.06ZM778.3 64.108H777.196V70H778.324V66.448C778.324 65.5 778.876 65.056 779.704 65.056H780.628V64.084H779.896C779.116 64.084 778.648 64.312 778.42 64.9H778.3V64.108ZM781.104 67.06C781.104 68.884 782.46 70.168 784.164 70.168C785.784 70.168 786.744 69.196 787.032 67.924L785.94 67.672C785.784 68.548 785.232 69.172 784.176 69.172C783.084 69.172 782.244 68.332 782.244 67.06C782.244 65.776 783.072 64.936 784.176 64.936C785.184 64.936 785.796 65.572 785.892 66.424L786.996 66.196C786.768 64.936 785.76 63.94 784.164 63.94C782.46 63.94 781.104 65.224 781.104 67.06ZM787.986 67.012C787.986 68.824 789.198 70.168 791.022 70.168C792.642 70.168 793.326 69.232 793.686 68.62L792.75 68.092C792.462 68.668 791.982 69.184 791.022 69.184C789.954 69.184 789.21 68.464 789.138 67.444H793.782V66.892C793.782 65.08 792.618 63.94 790.938 63.94C789.222 63.94 787.986 65.212 787.986 67.012ZM789.15 66.532C789.27 65.548 789.918 64.924 790.938 64.924C791.91 64.924 792.57 65.512 792.63 66.532H789.15ZM795.087 64.108V70H796.215V66.448C796.215 65.476 796.755 64.936 797.559 64.936C798.315 64.936 798.747 65.38 798.747 66.124V70H799.875V66.448C799.875 65.476 800.415 64.936 801.219 64.936C801.975 64.936 802.419 65.38 802.419 66.124V70H803.535V66.052C803.535 64.744 802.695 64 801.555 64C800.607 64 800.079 64.42 799.767 65.02H799.647C799.383 64.432 798.855 64 797.955 64C797.079 64 796.575 64.372 796.311 64.864H796.191V64.108H795.087ZM804.831 67.012C804.831 68.824 806.043 70.168 807.867 70.168C809.487 70.168 810.171 69.232 810.531 68.62L809.595 68.092C809.307 68.668 808.827 69.184 807.867 69.184C806.799 69.184 806.055 68.464 805.983 67.444H810.627V66.892C810.627 65.08 809.463 63.94 807.783 63.94C806.067 63.94 804.831 65.212 804.831 67.012ZM805.995 66.532C806.115 65.548 806.763 64.924 807.783 64.924C808.755 64.924 809.415 65.512 809.475 66.532H805.995ZM811.933 64.108V70H813.061V67C813.061 65.656 813.769 64.936 814.825 64.936C815.773 64.936 816.349 65.428 816.349 66.508V70H817.465V66.448C817.465 64.912 816.469 64 815.149 64C813.985 64 813.421 64.528 813.157 65.056H813.037V64.108H811.933ZM818.294 65.032H819.998V68.896C819.998 69.568 820.43 70 821.09 70H822.722V69.076H821.462C821.246 69.076 821.126 68.956 821.126 68.716V65.032H822.95V64.108H821.126V62.092H819.998V64.108H818.294V65.032ZM740.816 77.6V86H746.192V84.932H742.004V77.6H740.816ZM746.939 83.012C746.939 84.824 748.151 86.168 749.975 86.168C751.595 86.168 752.279 85.232 752.639 84.62L751.703 84.092C751.415 84.668 750.935 85.184 749.975 85.184C748.907 85.184 748.163 84.464 748.091 83.444H752.735V82.892C752.735 81.08 751.571 79.94 749.891 79.94C748.175 79.94 746.939 81.212 746.939 83.012ZM748.103 82.532C748.223 81.548 748.871 80.924 749.891 80.924C750.863 80.924 751.523 81.512 751.583 82.532H748.103ZM753.873 81.692L754.929 82.028C755.073 81.356 755.553 80.864 756.441 80.864C757.341 80.864 757.785 81.368 757.785 82.1V82.484H755.913C754.629 82.484 753.681 83.096 753.681 84.308C753.681 85.496 754.629 86.168 755.853 86.168C756.993 86.168 757.449 85.604 757.665 85.208H757.809V86H758.889V82.172C758.889 80.756 757.965 79.94 756.453 79.94C754.953 79.94 754.161 80.732 753.873 81.692ZM754.809 84.284C754.809 83.708 755.277 83.396 755.973 83.396H757.785V83.516C757.785 84.584 757.077 85.244 756.045 85.244C755.277 85.244 754.809 84.86 754.809 84.284ZM761.651 80.108H760.547V86H761.675V82.448C761.675 81.5 762.227 81.056 763.055 81.056H763.979V80.084H763.247C762.467 80.084 761.999 80.312 761.771 80.9H761.651V80.108ZM765.085 80.108V86H766.213V83C766.213 81.656 766.921 80.936 767.977 80.936C768.925 80.936 769.501 81.428 769.501 82.508V86H770.617V82.448C770.617 80.912 769.621 80 768.301 80C767.137 80 766.573 80.528 766.309 81.056H766.189V80.108H765.085ZM771.971 78.32C771.971 78.812 772.343 79.172 772.835 79.172C773.339 79.172 773.711 78.812 773.711 78.32C773.711 77.816 773.339 77.456 772.835 77.456C772.343 77.456 771.971 77.816 771.971 78.32ZM773.399 80.108H772.271V86H773.399V80.108ZM775.122 80.108V86H776.25V83C776.25 81.656 776.958 80.936 778.014 80.936C778.962 80.936 779.538 81.428 779.538 82.508V86H780.654V82.448C780.654 80.912 779.658 80 778.338 80C777.174 80 776.61 80.528 776.346 81.056H776.226V80.108H775.122ZM786.928 80.108V81.056H786.808C786.448 80.468 785.824 79.94 784.672 79.94C783.184 79.94 781.936 81.14 781.936 82.976C781.936 84.824 783.184 86.012 784.672 86.012C785.824 86.012 786.448 85.472 786.784 84.944H786.904V85.64C786.904 86.948 786.136 87.608 784.984 87.608C783.844 87.608 783.28 86.948 783.064 86.252L782.044 86.672C782.332 87.536 783.22 88.568 785.008 88.568C786.82 88.568 788.032 87.536 788.032 85.688V80.108H786.928ZM784.984 85.04C783.868 85.04 783.076 84.248 783.076 82.976C783.076 81.716 783.868 80.924 784.984 80.924C786.1 80.924 786.916 81.716 786.916 82.976C786.916 84.236 786.1 85.04 784.984 85.04ZM797.071 77.6H795.619C794.251 77.6 793.171 78.38 793.171 79.832C793.171 80.864 793.771 81.428 794.527 81.668V81.812C793.759 82.064 793.099 82.712 793.099 83.768C793.099 85.184 794.143 86 795.571 86H798.415V82.232H799.567V81.284H798.415V80.048H797.299V81.284H795.787C794.983 81.284 794.299 80.864 794.299 79.916C794.299 78.992 794.959 78.548 795.787 78.548H797.071V77.6ZM795.739 82.232H797.299V85.052H795.739C794.923 85.052 794.239 84.608 794.239 83.636C794.239 82.688 794.899 82.232 795.739 82.232ZM740.528 98.724C740.528 100.92 741.824 102.168 743.9 102.168C745.892 102.168 747.068 101.004 747.068 99.072V97.932H743.54V98.952H745.904V99.18C745.904 100.38 745.244 101.112 743.9 101.112C742.544 101.112 741.716 100.212 741.716 98.748V96.852C741.716 95.388 742.544 94.488 743.912 94.488C745.208 94.488 745.832 95.268 745.832 96.384V96.516H747.02V96.396C747.02 94.608 745.952 93.432 743.912 93.432C741.848 93.432 740.528 94.68 740.528 96.876V98.724ZM748.157 99.012C748.157 100.824 749.369 102.168 751.193 102.168C752.813 102.168 753.497 101.232 753.857 100.62L752.921 100.092C752.633 100.668 752.153 101.184 751.193 101.184C750.125 101.184 749.381 100.464 749.309 99.444H753.953V98.892C753.953 97.08 752.789 95.94 751.109 95.94C749.393 95.94 748.157 97.212 748.157 99.012ZM749.321 98.532C749.441 97.548 750.089 96.924 751.109 96.924C752.081 96.924 752.741 97.512 752.801 98.532H749.321ZM755.259 96.108V102H756.387V99C756.387 97.656 757.095 96.936 758.151 96.936C759.099 96.936 759.675 97.428 759.675 98.508V102H760.791V98.448C760.791 96.912 759.795 96 758.475 96C757.311 96 756.747 96.528 756.483 97.056H756.363V96.108H755.259ZM762.073 99.012C762.073 100.824 763.285 102.168 765.109 102.168C766.729 102.168 767.413 101.232 767.773 100.62L766.837 100.092C766.549 100.668 766.069 101.184 765.109 101.184C764.041 101.184 763.297 100.464 763.225 99.444H767.869V98.892C767.869 97.08 766.705 95.94 765.025 95.94C763.309 95.94 762.073 97.212 762.073 99.012ZM763.237 98.532C763.357 97.548 764.005 96.924 765.025 96.924C765.997 96.924 766.657 97.512 766.717 98.532H763.237ZM770.279 96.108H769.175V102H770.303V98.448C770.303 97.5 770.855 97.056 771.683 97.056H772.607V96.084H771.875C771.095 96.084 770.627 96.312 770.399 96.9H770.279V96.108ZM773.51 97.692L774.566 98.028C774.71 97.356 775.19 96.864 776.078 96.864C776.978 96.864 777.422 97.368 777.422 98.1V98.484H775.55C774.266 98.484 773.318 99.096 773.318 100.308C773.318 101.496 774.266 102.168 775.49 102.168C776.63 102.168 777.086 101.604 777.302 101.208H777.446V102H778.526V98.172C778.526 96.756 777.602 95.94 776.09 95.94C774.59 95.94 773.798 96.732 773.51 97.692ZM774.446 100.284C774.446 99.708 774.914 99.396 775.61 99.396H777.422V99.516C777.422 100.584 776.714 101.244 775.682 101.244C774.914 101.244 774.446 100.86 774.446 100.284ZM779.359 97.032H781.063V100.896C781.063 101.568 781.495 102 782.155 102H783.787V101.076H782.527C782.311 101.076 782.191 100.956 782.191 100.716V97.032H784.015V96.108H782.191V94.092H781.063V96.108H779.359V97.032ZM785.032 94.32C785.032 94.812 785.404 95.172 785.896 95.172C786.4 95.172 786.772 94.812 786.772 94.32C786.772 93.816 786.4 93.456 785.896 93.456C785.404 93.456 785.032 93.816 785.032 94.32ZM786.46 96.108H785.332V102H786.46V96.108ZM787.558 96.108L789.73 102H791.362L793.546 96.108H792.322L790.606 101.004H790.486L788.782 96.108H787.558ZM794.164 99.012C794.164 100.824 795.376 102.168 797.2 102.168C798.82 102.168 799.504 101.232 799.864 100.62L798.928 100.092C798.64 100.668 798.16 101.184 797.2 101.184C796.132 101.184 795.388 100.464 795.316 99.444H799.96V98.892C799.96 97.08 798.796 95.94 797.116 95.94C795.4 95.94 794.164 97.212 794.164 99.012ZM795.328 98.532C795.448 97.548 796.096 96.924 797.116 96.924C798.088 96.924 798.748 97.512 798.808 98.532H795.328ZM740.816 109.6V118H741.98V110.836H742.1L744.404 118H746.084L748.376 110.836H748.496V118H749.66V109.6H747.608L745.304 116.788H745.184L742.868 109.6H740.816ZM751.029 115.06C751.029 116.932 752.289 118.168 754.065 118.168C755.841 118.168 757.113 116.932 757.113 115.06C757.113 113.176 755.841 111.94 754.065 111.94C752.289 111.94 751.029 113.176 751.029 115.06ZM752.157 115.06C752.157 113.788 752.925 112.936 754.065 112.936C755.205 112.936 755.985 113.764 755.985 115.06C755.985 116.344 755.205 117.172 754.065 117.172C752.925 117.172 752.157 116.368 752.157 115.06ZM764.194 109.6H763.066V113.02H762.946C762.61 112.468 761.998 111.94 760.834 111.94C759.346 111.94 758.098 113.152 758.098 115.06C758.098 116.968 759.346 118.168 760.834 118.168C761.998 118.168 762.61 117.64 762.97 117.064H763.09V118H764.194V109.6ZM761.146 112.924C762.262 112.924 763.078 113.728 763.078 115.06C763.078 116.38 762.262 117.184 761.146 117.184C760.03 117.184 759.238 116.392 759.238 115.06C759.238 113.716 760.03 112.924 761.146 112.924ZM765.554 115.012C765.554 116.824 766.766 118.168 768.59 118.168C770.21 118.168 770.894 117.232 771.254 116.62L770.318 116.092C770.03 116.668 769.55 117.184 768.59 117.184C767.522 117.184 766.778 116.464 766.706 115.444H771.35V114.892C771.35 113.08 770.186 111.94 768.506 111.94C766.79 111.94 765.554 113.212 765.554 115.012ZM766.718 114.532C766.838 113.548 767.486 112.924 768.506 112.924C769.478 112.924 770.138 113.512 770.198 114.532H766.718ZM773.783 109.6H772.655V118H773.783V109.6ZM775.386 113.68C775.386 114.772 776.298 115.216 777.438 115.42L777.942 115.504C778.758 115.636 779.214 115.864 779.214 116.38C779.214 116.92 778.722 117.28 777.894 117.28C777.066 117.28 776.37 116.932 776.19 115.852L775.134 116.116C775.35 117.496 776.406 118.168 777.894 118.168C779.346 118.168 780.306 117.484 780.306 116.308C780.306 115.12 779.358 114.76 778.11 114.544L777.606 114.472C776.934 114.352 776.49 114.136 776.49 113.62C776.49 113.128 776.934 112.828 777.654 112.828C778.374 112.828 778.89 113.128 779.058 113.92L780.09 113.62C779.838 112.588 778.974 111.94 777.654 111.94C776.274 111.94 775.386 112.588 775.386 113.68Z" fill="white"/>
<path d="M0.882 4.2L0.881999 14L2.45 14L2.45 5.88L2.59 5.88L4.998 14L7.28 14L9.674 5.88L9.814 5.88L9.814 14L11.396 14L11.396 4.2L8.61 4.2L6.202 12.362L6.062 12.362L3.668 4.2L0.882 4.2ZM13.4393 8.89L14.8673 9.366C15.0073 8.652 15.4973 8.134 16.4633 8.134C17.4293 8.134 17.8913 8.68 17.8913 9.422L17.8913 9.842L15.8473 9.842C14.3073 9.842 13.2013 10.57 13.2013 11.998C13.2013 13.398 14.3073 14.196 15.7353 14.196C17.0513 14.196 17.5413 13.51 17.7373 13.132L17.9193 13.132L17.9193 14L19.3893 14L19.3893 9.534C19.3893 7.84 18.2693 6.888 16.4773 6.888C14.6993 6.888 13.7753 7.812 13.4393 8.89ZM14.7413 11.956C14.7413 11.382 15.2033 11.032 15.9453 11.032L17.8913 11.032L17.8913 11.158C17.8913 12.25 17.1213 12.936 16.0293 12.936C15.2033 12.936 14.7413 12.544 14.7413 11.956ZM21.3242 8.988C21.3242 10.304 22.4162 10.822 23.8162 11.074L24.2922 11.158C25.2022 11.326 25.6642 11.55 25.6642 12.082C25.6642 12.614 25.1742 13.006 24.2922 13.006C23.3962 13.006 22.6682 12.642 22.4722 11.508L21.0442 11.858C21.2822 13.398 22.5142 14.196 24.2922 14.196C26.0282 14.196 27.1482 13.384 27.1482 11.97C27.1482 10.556 26.0142 10.15 24.5022 9.87L24.0262 9.786C23.2702 9.646 22.8082 9.422 22.8082 8.89C22.8082 8.386 23.2562 8.078 24.0122 8.078C24.7682 8.078 25.3142 8.4 25.4822 9.24L26.8822 8.82C26.5742 7.658 25.5662 6.902 24.0122 6.902C22.3882 6.902 21.3242 7.658 21.3242 8.988ZM28.0725 8.344L29.9345 8.344L29.9345 12.572C29.9345 13.44 30.4945 14 31.3345 14L33.2805 14L33.2805 12.74L31.8665 12.74C31.6145 12.74 31.4745 12.6 31.4745 12.32L31.4745 8.344L33.4905 8.344L33.4905 7.098L31.4745 7.098L31.4745 4.844L29.9345 4.844L29.9345 7.098L28.0725 7.098L28.0725 8.344ZM34.6257 10.514C34.6257 12.684 36.0537 14.196 38.1537 14.196C40.0577 14.196 40.8697 13.104 41.2757 12.376L40.0017 11.69C39.7217 12.292 39.2317 12.866 38.1817 12.866C37.0757 12.866 36.2637 12.096 36.2077 11.032L41.4437 11.032L41.4437 10.402C41.4437 8.288 40.0997 6.888 38.0977 6.888C36.0677 6.888 34.6257 8.358 34.6257 10.514ZM36.2217 9.842C36.3477 8.876 37.0197 8.218 38.0837 8.218C39.1057 8.218 39.7917 8.848 39.8757 9.842L36.2217 9.842ZM44.6066 7.098L43.1086 7.098L43.1086 14L44.6346 14L44.6346 9.912C44.6346 8.862 45.2926 8.372 46.2166 8.372L47.2806 8.372L47.2806 7.07L46.4826 7.07C45.5866 7.07 45.0266 7.336 44.7466 8.05L44.6066 8.05L44.6066 7.098ZM53.1228 4.2L53.1228 14L54.6908 14L54.6908 5.88L54.8308 5.88L57.2388 14L59.5208 14L61.9148 5.88L62.0548 5.88L62.0548 14L63.6368 14L63.6368 4.2L60.8508 4.2L58.4428 12.362L58.3028 12.362L55.9088 4.2L53.1228 4.2ZM65.8201 4.2L65.8201 14L72.1481 14L72.1481 12.53L67.4441 12.53L67.4441 4.2L65.8201 4.2ZM82.1791 4.2L80.5691 4.2C78.9311 4.2 77.6851 5.124 77.6851 6.818C77.6851 7.994 78.3711 8.666 79.2811 8.932L79.2811 9.128C78.3711 9.408 77.6291 10.164 77.6291 11.368C77.6291 13.02 78.8191 14 80.5131 14L83.9291 14L83.9291 9.688L85.2451 9.688L85.2451 8.4L83.9291 8.4L83.9291 7.056L82.3891 7.056L82.3891 8.4L80.8351 8.4C79.9671 8.4 79.2391 7.966 79.2391 6.944C79.2391 5.964 79.9251 5.488 80.8351 5.488L82.1791 5.488L82.1791 4.2ZM80.7791 9.688L82.3891 9.688L82.3891 12.712L80.7791 12.712C79.9111 12.712 79.1691 12.236 79.1691 11.2C79.1691 10.192 79.8691 9.688 80.7791 9.688ZM93.2521 4.2L90.3681 14L92.0341 14L92.6921 11.718L96.3321 11.718L96.9901 14L98.6421 14L95.7581 4.2L93.2521 4.2ZM93.0841 10.248L94.4421 5.558L94.5821 5.558L95.9261 10.248L93.0841 10.248ZM100.022 4.2L100.022 14L101.646 14L101.646 4.20001L100.022 4.2Z" fill="#434343"/>
<path d="M872 130L888 130L888 26L872 26" stroke="#787878"/>
<path d="M902.76 81.1183C904.944 81.1183 906.168 79.7983 906.168 77.7103C906.168 75.6463 904.98 74.4463 903.156 74.4463L902.868 74.4463L902.868 75.8263L903.18 75.8263C904.164 75.8263 904.932 76.4503 904.932 77.7103C904.932 78.9583 904.116 79.7263 902.784 79.7263L900.816 79.7263C899.484 79.7263 898.668 78.9703 898.668 77.7103C898.668 76.4743 899.448 75.8263 900.432 75.8263L900.66 75.8263L900.66 74.4463L900.456 74.4463C898.62 74.4463 897.432 75.6223 897.432 77.7103C897.432 79.7983 898.656 81.1183 900.84 81.1183L902.76 81.1183ZM903.036 73.3303C904.956 73.3303 906.168 72.0223 906.168 70.2463C906.168 68.4703 904.956 67.1743 903.036 67.1743C901.128 67.1743 899.916 68.4703 899.916 70.2463C899.916 72.0223 901.128 73.3303 903.036 73.3303ZM903.036 72.0103C901.824 72.0103 901.068 71.2903 901.068 70.2463C901.068 69.2143 901.812 68.4943 903.036 68.4943C904.26 68.4943 905.016 69.2143 905.016 70.2463C905.016 71.2903 904.272 72.0103 903.036 72.0103ZM906 60.056L900.084 60.056L900.084 61.364L903.12 61.364C904.332 61.364 905.016 62 905.016 62.984C905.016 63.86 904.548 64.376 903.564 64.376L900.084 64.376L900.084 65.696L903.636 65.696C905.136 65.696 906.096 64.736 906.096 63.38C906.096 62.252 905.604 61.724 905.076 61.46L905.076 61.34L906 61.34L906 60.056ZM900.084 56.927L900.084 58.211L906 58.211L906 56.903L902.496 56.903C901.596 56.903 901.176 56.339 901.176 55.547L901.176 54.635L900.06 54.635L900.06 55.319C900.06 56.087 900.288 56.567 900.9 56.807L900.9 56.927L900.084 56.927ZM901.704 53.6231C902.832 53.6231 903.276 52.6871 903.492 51.4871L903.564 51.0791C903.708 50.2991 903.9 49.9031 904.356 49.9031C904.812 49.9031 905.148 50.3231 905.148 51.0791C905.148 51.8471 904.836 52.4711 903.864 52.6391L904.164 53.8631C905.484 53.6591 906.168 52.6031 906.168 51.0791C906.168 49.5911 905.472 48.6311 904.26 48.6311C903.048 48.6311 902.7 49.6031 902.46 50.8991L902.388 51.3071C902.268 51.9551 902.076 52.3511 901.62 52.3511C901.188 52.3511 900.924 51.9671 900.924 51.3191C900.924 50.6711 901.2 50.2031 901.92 50.0591L901.56 48.8591C900.564 49.1231 899.916 49.9871 899.916 51.3191C899.916 52.7111 900.564 53.6231 901.704 53.6231ZM903.012 47.5153C904.872 47.5153 906.168 46.2913 906.168 44.4913C906.168 42.8593 905.232 42.1633 904.608 41.8153L904.02 42.9073C904.536 43.1473 905.028 43.5673 905.028 44.4673C905.028 45.4153 904.368 46.1113 903.456 46.1593L903.456 41.6713L902.916 41.6713C901.104 41.6713 899.904 42.8233 899.904 44.5393C899.904 46.2793 901.164 47.5153 903.012 47.5153ZM902.436 46.1473C901.608 46.0393 901.044 45.4633 901.044 44.5513C901.044 43.6753 901.584 43.0873 902.436 43.0153L902.436 46.1473ZM901.704 40.3757C902.832 40.3757 903.276 39.4397 903.492 38.2397L903.564 37.8317C903.708 37.0517 903.9 36.6557 904.356 36.6557C904.812 36.6557 905.148 37.0757 905.148 37.8317C905.148 38.5997 904.836 39.2237 903.864 39.3917L904.164 40.6157C905.484 40.4117 906.168 39.3557 906.168 37.8317C906.168 36.3437 905.472 35.3837 904.26 35.3837C903.048 35.3837 902.7 36.3557 902.46 37.6517L902.388 38.0597C902.268 38.7077 902.076 39.1037 901.62 39.1037C901.188 39.1037 900.924 38.7197 900.924 38.0717C900.924 37.4237 901.2 36.9557 901.92 36.8117L901.56 35.6117C900.564 35.8757 899.916 36.7397 899.916 38.0717C899.916 39.4637 900.564 40.3757 901.704 40.3757Z" fill="#787878"/>
<path d="M727.518 7.938L727.518 10.262C727.518 12.796 729.072 14.196 731.494 14.196C733.916 14.196 735.456 12.796 735.456 10.262L735.456 7.938C735.456 5.404 733.916 4.004 731.494 4.004C729.072 4.004 727.518 5.404 727.518 7.938ZM729.142 7.882C729.142 6.398 730.01 5.446 731.494 5.446C732.964 5.446 733.832 6.398 733.832 7.882L733.832 10.318C733.832 11.802 732.964 12.754 731.494 12.754C730.01 12.754 729.142 11.802 729.142 10.318L729.142 7.882ZM737.257 16.8L738.783 16.8L738.783 13.02L738.923 13.02C739.315 13.622 740.015 14.196 741.289 14.196C742.983 14.196 744.453 12.796 744.453 10.542C744.453 8.302 742.983 6.902 741.289 6.902C740.015 6.902 739.315 7.476 738.895 8.106L738.755 8.106L738.755 7.098L737.257 7.098L737.257 16.8ZM740.841 12.866C739.651 12.866 738.769 11.998 738.769 10.542C738.769 9.086 739.651 8.218 740.841 8.218C742.045 8.218 742.913 9.086 742.913 10.542C742.913 12.012 742.045 12.866 740.841 12.866ZM745.328 8.344L747.19 8.344L747.19 12.572C747.19 13.44 747.75 14 748.59 14L750.536 14L750.536 12.74L749.122 12.74C748.87 12.74 748.73 12.6 748.73 12.32L748.73 8.344L750.746 8.344L750.746 7.098L748.73 7.098L748.73 4.844L747.19 4.844L747.19 7.098L745.328 7.098L745.328 8.344ZM752.088 5.04C752.088 5.684 752.578 6.132 753.222 6.132C753.866 6.132 754.356 5.684 754.356 5.04C754.356 4.382 753.866 3.934 753.222 3.934C752.578 3.934 752.088 4.382 752.088 5.04ZM753.992 7.098L752.466 7.098L752.466 14L753.992 14L753.992 7.098ZM755.719 10.542C755.719 12.782 757.245 14.196 759.317 14.196C761.389 14.196 762.901 12.782 762.901 10.542C762.901 8.316 761.389 6.902 759.317 6.902C757.245 6.902 755.719 8.316 755.719 10.542ZM757.259 10.542C757.259 9.128 758.099 8.246 759.317 8.246C760.521 8.246 761.361 9.114 761.361 10.542C761.361 11.97 760.521 12.852 759.317 12.852C758.099 12.852 757.259 11.984 757.259 10.542ZM764.626 7.098L764.626 14L766.152 14L766.152 10.458C766.152 9.03 766.894 8.232 768.042 8.232C769.064 8.232 769.666 8.778 769.666 9.94L769.666 14L771.206 14L771.206 9.856C771.206 8.092 770.086 6.972 768.504 6.972C767.188 6.972 766.572 7.56 766.264 8.162L766.124 8.162L766.124 7.098L764.626 7.098ZM773.151 8.89L774.579 9.366C774.719 8.652 775.209 8.134 776.175 8.134C777.141 8.134 777.603 8.68 777.603 9.422L777.603 9.842L775.559 9.842C774.019 9.842 772.913 10.57 772.913 11.998C772.913 13.398 774.019 14.196 775.447 14.196C776.763 14.196 777.253 13.51 777.449 13.132L777.631 13.132L777.631 14L779.101 14L779.101 9.534C779.101 7.84 777.981 6.888 776.189 6.888C774.411 6.888 773.487 7.812 773.151 8.89ZM774.453 11.956C774.453 11.382 774.915 11.032 775.657 11.032L777.603 11.032L777.603 11.158C777.603 12.25 776.833 12.936 775.741 12.936C774.915 12.936 774.453 12.544 774.453 11.956ZM782.688 4.2L781.162 4.2L781.162 14L782.688 14L782.688 4.2ZM789.248 4.2L789.248 14L795.674 14L795.674 12.53L790.872 12.53L790.872 9.8L795.198 9.8L795.198 8.33L790.872 8.33L790.872 5.67L795.59 5.67L795.59 4.2L789.248 4.2ZM798.932 4.2L797.406 4.2L797.406 14L798.932 14L798.932 4.2ZM800.659 10.514C800.659 12.684 802.087 14.196 804.187 14.196C806.091 14.196 806.903 13.104 807.309 12.376L806.035 11.69C805.755 12.292 805.265 12.866 804.215 12.866C803.109 12.866 802.297 12.096 802.241 11.032L807.477 11.032L807.477 10.402C807.477 8.288 806.133 6.888 804.131 6.888C802.101 6.888 800.659 8.358 800.659 10.514ZM802.255 9.842C802.381 8.876 803.053 8.218 804.117 8.218C805.139 8.218 805.825 8.848 805.909 9.842L802.255 9.842ZM808.708 10.542C808.708 12.684 810.29 14.196 812.306 14.196C814.21 14.196 815.344 13.062 815.708 11.55L814.21 11.2C814.056 12.166 813.468 12.852 812.32 12.852C811.144 12.852 810.248 11.97 810.248 10.542C810.248 9.128 811.144 8.246 812.32 8.246C813.44 8.246 814.056 8.946 814.168 9.87L815.652 9.562C815.372 8.036 814.196 6.902 812.292 6.902C810.29 6.902 808.708 8.4 808.708 10.542ZM816.517 8.344L818.379 8.344L818.379 12.572C818.379 13.44 818.939 14 819.779 14L821.725 14L821.725 12.74L820.311 12.74C820.059 12.74 819.919 12.6 819.919 12.32L819.919 8.34401L821.935 8.34401L821.935 7.098L819.919 7.098L819.919 4.844L818.379 4.844L818.379 7.098L816.517 7.098L816.517 8.344ZM823.276 5.04C823.276 5.684 823.766 6.132 824.41 6.132C825.054 6.132 825.544 5.684 825.544 5.04C825.544 4.38201 825.054 3.934 824.41 3.934C823.766 3.934 823.276 4.382 823.276 5.04ZM825.18 7.09801L823.654 7.098L823.654 14L825.18 14L825.18 7.09801ZM826.586 7.09801L829.064 14L831.318 14L833.782 7.09801L832.116 7.09801L830.254 12.684L830.114 12.684L828.252 7.09801L826.586 7.09801ZM834.615 10.514C834.615 12.684 836.043 14.196 838.143 14.196C840.047 14.196 840.859 13.104 841.265 12.376L839.991 11.69C839.711 12.292 839.221 12.866 838.171 12.866C837.065 12.866 836.253 12.096 836.197 11.032L841.433 11.032L841.433 10.402C841.433 8.28801 840.089 6.88801 838.087 6.88801C836.057 6.88801 834.615 8.35801 834.615 10.514ZM836.211 9.84201C836.337 8.87601 837.009 8.21801 838.073 8.21801C839.095 8.21801 839.781 8.84801 839.865 9.84201L836.211 9.84201ZM842.944 8.98801C842.944 10.304 844.036 10.822 845.436 11.074L845.912 11.158C846.822 11.326 847.284 11.55 847.284 12.082C847.284 12.614 846.794 13.006 845.912 13.006C845.016 13.006 844.288 12.642 844.092 11.508L842.664 11.858C842.902 13.398 844.134 14.196 845.912 14.196C847.648 14.196 848.768 13.384 848.768 11.97C848.768 10.556 847.634 10.15 846.122 9.87001L845.646 9.78601C844.89 9.64601 844.428 9.42201 844.428 8.89001C844.428 8.38601 844.876 8.07801 845.632 8.07801C846.388 8.07801 846.934 8.40001 847.102 9.24001L848.502 8.82001C848.194 7.65801 847.186 6.90201 845.632 6.90201C844.008 6.90201 842.944 7.65801 842.944 8.98801Z" fill="#434343"/>
</svg>
