<svg width="1046" height="145" viewBox="0 0 1046 145" fill="none" xmlns="http://www.w3.org/2000/svg">
<rect width="1046" height="145" fill="white"/>
<rect width="128" height="27" transform="translate(0 23)" fill="#1F5F57"/>
<path d="M12.882 31.2V41H14.506V37.29H16.816C18.594 37.29 19.938 36.1 19.938 34.252C19.938 32.39 18.636 31.2 16.816 31.2H12.882ZM14.506 32.67H16.648C17.67 32.67 18.314 33.272 18.314 34.252C18.314 35.218 17.67 35.82 16.648 35.82H14.506V32.67ZM20.7361 31.2L24.2081 37.444V41H25.8321V37.444L29.2901 31.2H27.4701L25.0901 35.68H24.9501L22.5701 31.2H20.7361ZM30.7637 31.2V41H33.9837C36.6017 41 38.0157 39.67 38.0157 37.01V35.19C38.0157 32.53 36.6017 31.2 33.9837 31.2H30.7637ZM32.3877 32.67H33.9977C35.6217 32.67 36.4057 33.51 36.4057 35.134V37.066C36.4057 38.69 35.6357 39.53 33.9977 39.53H32.3877V32.67ZM43.2117 31.004C41.1537 31.004 39.8097 32.054 39.8097 33.804C39.8097 35.54 40.9577 36.226 42.9037 36.66L43.3657 36.758C44.6397 37.052 45.3677 37.374 45.3677 38.27C45.3677 39.152 44.6537 39.768 43.3097 39.768C41.9517 39.768 41.0977 39.124 41.0977 37.78V37.654H39.5017V37.78C39.5017 39.978 41.0837 41.196 43.3097 41.196C45.5357 41.196 46.9637 39.992 46.9637 38.228C46.9637 36.464 45.6477 35.75 43.6877 35.33L43.2257 35.218C41.9937 34.938 41.4057 34.588 41.4057 33.748C41.4057 32.922 42.0357 32.432 43.2117 32.432C44.4157 32.432 45.1997 32.922 45.1997 34.14V34.448H46.7957V34.14C46.7957 32.054 45.2697 31.004 43.2117 31.004Z" fill="white"/>
<rect width="128" height="80" transform="translate(0 50)" fill="#B49848"/>
<path d="M12.816 61.6V70H14.004V66.712H16.104C17.616 66.712 18.756 65.74 18.756 64.156C18.756 62.584 17.64 61.6 16.104 61.6H12.816ZM14.004 62.668H15.984C16.968 62.668 17.568 63.232 17.568 64.156C17.568 65.08 16.968 65.644 15.984 65.644H14.004V62.668ZM24.3115 64.108L22.4875 68.716H22.3675L20.5435 64.108H19.3195L21.8275 70.228L20.8915 72.4H22.1155L25.5355 64.108H24.3115ZM25.9297 65.032H27.6337V68.896C27.6337 69.568 28.0657 70 28.7257 70H30.3577V69.076H29.0977C28.8817 69.076 28.7617 68.956 28.7617 68.716V65.032H30.5858V64.108H28.7617V62.092H27.6337V64.108H25.9297V65.032ZM31.9023 61.6V70H33.0303V67C33.0303 65.656 33.7383 64.936 34.7943 64.936C35.7423 64.936 36.3183 65.428 36.3183 66.508V70H37.4343V66.448C37.4343 64.912 36.4383 64 35.1183 64C33.9543 64 33.4143 64.516 33.1503 65.008H33.0303V61.6H31.9023ZM38.7167 67.06C38.7167 68.932 39.9767 70.168 41.7527 70.168C43.5287 70.168 44.8007 68.932 44.8007 67.06C44.8007 65.176 43.5287 63.94 41.7527 63.94C39.9767 63.94 38.7167 65.176 38.7167 67.06ZM39.8447 67.06C39.8447 65.788 40.6127 64.936 41.7527 64.936C42.8927 64.936 43.6727 65.764 43.6727 67.06C43.6727 68.344 42.8927 69.172 41.7527 69.172C40.6127 69.172 39.8447 68.368 39.8447 67.06ZM46.1579 64.108V70H47.2859V67C47.2859 65.656 47.9939 64.936 49.0499 64.936C49.9979 64.936 50.5739 65.428 50.5739 66.508V70H51.6899V66.448C51.6899 64.912 50.6939 64 49.3739 64C48.2099 64 47.6459 64.528 47.3819 65.056H47.2619V64.108H46.1579ZM56.4391 64.108V65.032H58.1551V70H59.2831V65.032H61.0351V64.108H59.2831V62.884C59.2831 62.644 59.4031 62.524 59.6191 62.524H60.7951V61.6H59.2471C58.5871 61.6 58.1551 62.02 58.1551 62.704V64.108H56.4391ZM61.8139 67.06C61.8139 68.932 63.0739 70.168 64.8499 70.168C66.6259 70.168 67.8979 68.932 67.8979 67.06C67.8979 65.176 66.6259 63.94 64.8499 63.94C63.0739 63.94 61.8139 65.176 61.8139 67.06ZM62.9419 67.06C62.9419 65.788 63.7099 64.936 64.8499 64.936C65.9899 64.936 66.7699 65.764 66.7699 67.06C66.7699 68.344 65.9899 69.172 64.8499 69.172C63.7099 69.172 62.9419 68.368 62.9419 67.06ZM70.3591 64.108H69.2551V70H70.3831V66.448C70.3831 65.5 70.9351 65.056 71.7631 65.056H72.6871V64.084H71.9551C71.1751 64.084 70.7071 64.312 70.4791 64.9H70.3591V64.108ZM77.4758 61.6V70H80.1158C82.3358 70 83.5838 68.884 83.5838 66.58V65.02C83.5838 62.716 82.3358 61.6 80.1158 61.6H77.4758ZM78.6638 62.668H80.1278C81.6278 62.668 82.3958 63.424 82.3958 64.984V66.616C82.3958 68.164 81.6518 68.932 80.1278 68.932H78.6638V62.668ZM84.893 65.692L85.949 66.028C86.093 65.356 86.573 64.864 87.461 64.864C88.361 64.864 88.805 65.368 88.805 66.1V66.484H86.933C85.649 66.484 84.701 67.096 84.701 68.308C84.701 69.496 85.649 70.168 86.873 70.168C88.013 70.168 88.469 69.604 88.685 69.208H88.829V70H89.909V66.172C89.909 64.756 88.985 63.94 87.473 63.94C85.973 63.94 85.181 64.732 84.893 65.692ZM85.829 68.284C85.829 67.708 86.297 67.396 86.993 67.396H88.805V67.516C88.805 68.584 88.097 69.244 87.065 69.244C86.297 69.244 85.829 68.86 85.829 68.284ZM90.7419 65.032H92.4459V68.896C92.4459 69.568 92.8779 70 93.5379 70H95.1699V69.076H93.9099C93.6939 69.076 93.5739 68.956 93.5739 68.716V65.032H95.3979V64.108H93.5739V62.092H92.4459V64.108H90.7419V65.032ZM96.5705 65.692L97.6265 66.028C97.7705 65.356 98.2505 64.864 99.1385 64.864C100.038 64.864 100.482 65.368 100.482 66.1V66.484H98.6105C97.3265 66.484 96.3785 67.096 96.3785 68.308C96.3785 69.496 97.3265 70.168 98.5505 70.168C99.6905 70.168 100.146 69.604 100.362 69.208H100.506V70H101.586V66.172C101.586 64.756 100.662 63.94 99.1505 63.94C97.6505 63.94 96.8585 64.732 96.5705 65.692ZM97.5065 68.284C97.5065 67.708 97.9745 67.396 98.6705 67.396H100.482V67.516C100.482 68.584 99.7745 69.244 98.7425 69.244C97.9745 69.244 97.5065 68.86 97.5065 68.284ZM15.576 77.432C13.848 77.432 12.684 78.32 12.684 79.772C12.684 81.224 13.668 81.812 15.24 82.172L15.756 82.292C16.86 82.544 17.544 82.844 17.544 83.696C17.544 84.536 16.86 85.124 15.636 85.124C14.4 85.124 13.584 84.512 13.584 83.216V83.108H12.408V83.216C12.408 85.148 13.752 86.168 15.636 86.168C17.508 86.168 18.708 85.16 18.708 83.672C18.708 82.172 17.604 81.596 16.032 81.236L15.516 81.116C14.424 80.864 13.86 80.564 13.86 79.748C13.86 78.932 14.508 78.476 15.576 78.476C16.668 78.476 17.436 78.932 17.436 80.072V80.396H18.612V80.072C18.612 78.32 17.304 77.432 15.576 77.432ZM19.7239 83.06C19.7239 84.884 21.0799 86.168 22.7839 86.168C24.4039 86.168 25.3639 85.196 25.6519 83.924L24.5599 83.672C24.4039 84.548 23.8519 85.172 22.7959 85.172C21.7039 85.172 20.8639 84.332 20.8639 83.06C20.8639 81.776 21.6919 80.936 22.7959 80.936C23.8039 80.936 24.4159 81.572 24.5119 82.424L25.6159 82.196C25.3879 80.936 24.3799 79.94 22.7839 79.94C21.0799 79.94 19.7239 81.224 19.7239 83.06ZM26.6776 78.32C26.6776 78.812 27.0496 79.172 27.5416 79.172C28.0456 79.172 28.4176 78.812 28.4176 78.32C28.4176 77.816 28.0456 77.456 27.5416 77.456C27.0496 77.456 26.6776 77.816 26.6776 78.32ZM28.1056 80.108H26.9776V86H28.1056V80.108ZM29.4561 83.012C29.4561 84.824 30.6681 86.168 32.4921 86.168C34.1121 86.168 34.7961 85.232 35.1561 84.62L34.2201 84.092C33.9321 84.668 33.4521 85.184 32.4921 85.184C31.4241 85.184 30.6801 84.464 30.6081 83.444H35.2521V82.892C35.2521 81.08 34.0881 79.94 32.4081 79.94C30.6921 79.94 29.4561 81.212 29.4561 83.012ZM30.6201 82.532C30.7401 81.548 31.3881 80.924 32.4081 80.924C33.3801 80.924 34.0401 81.512 34.1001 82.532H30.6201ZM36.5574 80.108V86H37.6854V83C37.6854 81.656 38.3934 80.936 39.4494 80.936C40.3974 80.936 40.9734 81.428 40.9734 82.508V86H42.0894V82.448C42.0894 80.912 41.0934 80 39.7734 80C38.6094 80 38.0454 80.528 37.7814 81.056H37.6614V80.108H36.5574ZM43.3718 83.06C43.3718 84.884 44.7278 86.168 46.4318 86.168C48.0518 86.168 49.0118 85.196 49.2998 83.924L48.2078 83.672C48.0518 84.548 47.4998 85.172 46.4438 85.172C45.3518 85.172 44.5118 84.332 44.5118 83.06C44.5118 81.776 45.3398 80.936 46.4438 80.936C47.4518 80.936 48.0638 81.572 48.1598 82.424L49.2638 82.196C49.0358 80.936 48.0278 79.94 46.4318 79.94C44.7278 79.94 43.3718 81.224 43.3718 83.06ZM50.2536 83.012C50.2536 84.824 51.4656 86.168 53.2896 86.168C54.9096 86.168 55.5936 85.232 55.9536 84.62L55.0176 84.092C54.7296 84.668 54.2496 85.184 53.2896 85.184C52.2216 85.184 51.4776 84.464 51.4056 83.444H56.0496V82.892C56.0496 81.08 54.8856 79.94 53.2056 79.94C51.4896 79.94 50.2536 81.212 50.2536 83.012ZM51.4176 82.532C51.5376 81.548 52.1856 80.924 53.2056 80.924C54.1776 80.924 54.8376 81.512 54.8976 82.532H51.4176ZM13.524 101.652C13.524 104.016 14.808 104.976 16.656 104.976V103.956C15.312 103.92 14.652 103.152 14.652 101.556V95.724C14.652 94.128 15.312 93.36 16.656 93.324V92.304C14.808 92.304 13.524 93.264 13.524 95.628V101.652ZM17.5464 96.828V98.772C17.5464 100.98 18.8544 102.168 20.8944 102.168C22.9344 102.168 24.2424 100.98 24.2424 98.772V96.828C24.2424 94.62 22.9344 93.432 20.8944 93.432C18.8544 93.432 17.5464 94.62 17.5464 96.828ZM18.7344 96.78C18.7344 95.364 19.5384 94.488 20.8944 94.488C22.2504 94.488 23.0544 95.364 23.0544 96.78V98.82C23.0544 100.236 22.2504 101.112 20.8944 101.112C19.5384 101.112 18.7344 100.236 18.7344 98.82V96.78ZM25.7002 104.4H26.8282V101.1H26.9482C27.2842 101.64 27.8962 102.168 29.0482 102.168C30.5482 102.168 31.7963 100.968 31.7963 99.06C31.7963 97.152 30.5482 95.94 29.0482 95.94C27.8962 95.94 27.2842 96.468 26.9242 97.056H26.8042V96.108H25.7002V104.4ZM28.7482 101.184C27.6202 101.184 26.8162 100.38 26.8162 99.06C26.8162 97.728 27.6202 96.924 28.7482 96.924C29.8643 96.924 30.6562 97.716 30.6562 99.06C30.6562 100.392 29.8643 101.184 28.7482 101.184ZM32.3896 97.032H34.0936V100.896C34.0936 101.568 34.5256 102 35.1856 102H36.8176V101.076H35.5576C35.3416 101.076 35.2216 100.956 35.2216 100.716V97.032H37.0456V96.108H35.2216V94.092H34.0936V96.108H32.3896V97.032ZM38.0621 94.32C38.0621 94.812 38.4341 95.172 38.9261 95.172C39.4301 95.172 39.8021 94.812 39.8021 94.32C39.8021 93.816 39.4301 93.456 38.9261 93.456C38.4341 93.456 38.0621 93.816 38.0621 94.32ZM39.4901 96.108H38.3621V102H39.4901V96.108ZM40.8406 99.06C40.8406 100.932 42.1006 102.168 43.8766 102.168C45.6526 102.168 46.9246 100.932 46.9246 99.06C46.9246 97.176 45.6526 95.94 43.8766 95.94C42.1006 95.94 40.8406 97.176 40.8406 99.06ZM41.9686 99.06C41.9686 97.788 42.7366 96.936 43.8766 96.936C45.0166 96.936 45.7966 97.764 45.7966 99.06C45.7966 100.344 45.0166 101.172 43.8766 101.172C42.7366 101.172 41.9686 100.368 41.9686 99.06ZM48.2818 96.108V102H49.4098V99C49.4098 97.656 50.1178 96.936 51.1738 96.936C52.1218 96.936 52.6978 97.428 52.6978 98.508V102H53.8138V98.448C53.8138 96.912 52.8178 96 51.4978 96C50.3338 96 49.7698 96.528 49.5058 97.056H49.3858V96.108H48.2818ZM55.3242 97.692L56.3802 98.028C56.5242 97.356 57.0042 96.864 57.8922 96.864C58.7922 96.864 59.2362 97.368 59.2362 98.1V98.484H57.3642C56.0802 98.484 55.1322 99.096 55.1322 100.308C55.1322 101.496 56.0802 102.168 57.3042 102.168C58.4442 102.168 58.9002 101.604 59.1162 101.208H59.2602V102H60.3402V98.172C60.3402 96.756 59.4162 95.94 57.9042 95.94C56.4042 95.94 55.6122 96.732 55.3242 97.692ZM56.2602 100.284C56.2602 99.708 56.7282 99.396 57.4242 99.396H59.2362V99.516C59.2362 100.584 58.5282 101.244 57.4962 101.244C56.7282 101.244 56.2602 100.86 56.2602 100.284ZM63.1264 93.6H61.9984V102H63.1264V93.6ZM67.4168 101.652V95.628C67.4168 93.264 66.1448 92.304 64.2848 92.304V93.324C65.6408 93.36 66.3008 94.128 66.3008 95.724V101.556C66.3008 103.152 65.6408 103.92 64.2848 103.956V104.976C66.1448 104.976 67.4168 104.016 67.4168 101.652Z" fill="white"/>
<rect width="128" height="27" transform="translate(152 23)" fill="#DCE0FA"/>
<path d="M166.968 31.2L164.084 41H165.75L166.408 38.718H170.048L170.706 41H172.358L169.474 31.2H166.968ZM166.8 37.248L168.158 32.558H168.298L169.642 37.248H166.8ZM173.878 31.2V41H175.502V31.2H173.878ZM184.089 31.2L181.499 35.568H183.221L184.775 32.922H184.943V41H186.567V31.2H184.089Z" fill="#1E2029"/>
<rect width="128" height="80" transform="translate(152 50)" fill="#E3C668"/>
<path d="M166.712 61.6L164.12 70H165.344L165.968 67.96H169.28L169.904 70H171.14L168.548 61.6H166.712ZM166.268 66.88L167.564 62.632H167.684L168.98 66.88H166.268ZM172.202 61.6V70H173.39V61.6H172.202ZM178.817 61.6V70H182.417C183.857 70 184.913 69.16 184.913 67.744C184.913 66.532 184.097 66.004 183.473 65.824V65.704C184.097 65.524 184.877 65.008 184.877 63.808C184.877 62.452 183.845 61.6 182.405 61.6H178.817ZM180.005 62.668H182.285C183.161 62.668 183.737 63.184 183.737 63.94C183.737 64.72 183.185 65.236 182.297 65.236H180.005V62.668ZM180.005 66.316H182.285C183.221 66.316 183.761 66.808 183.761 67.612C183.761 68.392 183.221 68.932 182.309 68.932H180.005V66.316ZM186.187 65.692L187.243 66.028C187.387 65.356 187.867 64.864 188.755 64.864C189.655 64.864 190.099 65.368 190.099 66.1V66.484H188.227C186.943 66.484 185.995 67.096 185.995 68.308C185.995 69.496 186.943 70.168 188.167 70.168C189.307 70.168 189.763 69.604 189.979 69.208H190.123V70H191.203V66.172C191.203 64.756 190.279 63.94 188.767 63.94C187.267 63.94 186.475 64.732 186.187 65.692ZM187.123 68.284C187.123 67.708 187.591 67.396 188.287 67.396H190.099V67.516C190.099 68.584 189.391 69.244 188.359 69.244C187.591 69.244 187.123 68.86 187.123 68.284ZM192.741 65.68C192.741 66.772 193.653 67.216 194.793 67.42L195.297 67.504C196.113 67.636 196.569 67.864 196.569 68.38C196.569 68.92 196.077 69.28 195.249 69.28C194.421 69.28 193.725 68.932 193.545 67.852L192.489 68.116C192.705 69.496 193.761 70.168 195.249 70.168C196.701 70.168 197.661 69.484 197.661 68.308C197.661 67.12 196.713 66.76 195.465 66.544L194.961 66.472C194.289 66.352 193.845 66.136 193.845 65.62C193.845 65.128 194.289 64.828 195.009 64.828C195.729 64.828 196.245 65.128 196.413 65.92L197.445 65.62C197.193 64.588 196.329 63.94 195.009 63.94C193.629 63.94 192.741 64.588 192.741 65.68ZM198.704 62.32C198.704 62.812 199.076 63.172 199.568 63.172C200.072 63.172 200.444 62.812 200.444 62.32C200.444 61.816 200.072 61.456 199.568 61.456C199.076 61.456 198.704 61.816 198.704 62.32ZM200.132 64.108H199.004V70H200.132V64.108ZM201.483 67.06C201.483 68.884 202.839 70.168 204.543 70.168C206.163 70.168 207.123 69.196 207.411 67.924L206.319 67.672C206.163 68.548 205.611 69.172 204.555 69.172C203.463 69.172 202.623 68.332 202.623 67.06C202.623 65.776 203.451 64.936 204.555 64.936C205.563 64.936 206.175 65.572 206.271 66.424L207.375 66.196C207.147 64.936 206.139 63.94 204.543 63.94C202.839 63.94 201.483 65.224 201.483 67.06ZM208.581 65.68C208.581 66.772 209.493 67.216 210.633 67.42L211.137 67.504C211.953 67.636 212.409 67.864 212.409 68.38C212.409 68.92 211.917 69.28 211.089 69.28C210.261 69.28 209.565 68.932 209.385 67.852L208.329 68.116C208.545 69.496 209.601 70.168 211.089 70.168C212.541 70.168 213.501 69.484 213.501 68.308C213.501 67.12 212.553 66.76 211.305 66.544L210.801 66.472C210.129 66.352 209.685 66.136 209.685 65.62C209.685 65.128 210.129 64.828 210.849 64.828C211.569 64.828 212.085 65.128 212.253 65.92L213.285 65.62C213.033 64.588 212.169 63.94 210.849 63.94C209.469 63.94 208.581 64.588 208.581 65.68Z" fill="#1E2029"/>
<rect width="128" height="27" transform="translate(288 23)" fill="#DCE0FA"/>
<path d="M300.882 31.2V41H304.102C306.72 41 308.134 39.67 308.134 37.01V35.19C308.134 32.53 306.72 31.2 304.102 31.2H300.882ZM302.506 32.67H304.116C305.74 32.67 306.524 33.51 306.524 35.134V37.066C306.524 38.69 305.754 39.53 304.116 39.53H302.506V32.67ZM313.33 31.004C311.272 31.004 309.928 32.054 309.928 33.804C309.928 35.54 311.076 36.226 313.022 36.66L313.484 36.758C314.758 37.052 315.486 37.374 315.486 38.27C315.486 39.152 314.772 39.768 313.428 39.768C312.07 39.768 311.216 39.124 311.216 37.78V37.654H309.62V37.78C309.62 39.978 311.202 41.196 313.428 41.196C315.654 41.196 317.082 39.992 317.082 38.228C317.082 36.464 315.766 35.75 313.806 35.33L313.344 35.218C312.112 34.938 311.524 34.588 311.524 33.748C311.524 32.922 312.154 32.432 313.33 32.432C314.534 32.432 315.318 32.922 315.318 34.14V34.448H316.914V34.14C316.914 32.054 315.388 31.004 313.33 31.004ZM325.216 31.2L322.626 35.568H324.348L325.902 32.922H326.07V41H327.694V31.2H325.216Z" fill="#1E2029"/>
<rect width="128" height="80" transform="translate(288 50)" fill="#E3C668"/>
<path d="M300.816 61.6V70H303.456C305.676 70 306.924 68.884 306.924 66.58V65.02C306.924 62.716 305.676 61.6 303.456 61.6H300.816ZM302.004 62.668H303.468C304.968 62.668 305.736 63.424 305.736 64.984V66.616C305.736 68.164 304.992 68.932 303.468 68.932H302.004V62.668ZM308.233 65.692L309.289 66.028C309.433 65.356 309.913 64.864 310.801 64.864C311.701 64.864 312.145 65.368 312.145 66.1V66.484H310.273C308.989 66.484 308.041 67.096 308.041 68.308C308.041 69.496 308.989 70.168 310.213 70.168C311.353 70.168 311.809 69.604 312.025 69.208H312.169V70H313.249V66.172C313.249 64.756 312.325 63.94 310.813 63.94C309.313 63.94 308.521 64.732 308.233 65.692ZM309.169 68.284C309.169 67.708 309.637 67.396 310.333 67.396H312.145V67.516C312.145 68.584 311.437 69.244 310.405 69.244C309.637 69.244 309.169 68.86 309.169 68.284ZM314.082 65.032H315.786V68.896C315.786 69.568 316.218 70 316.878 70H318.51V69.076H317.25C317.034 69.076 316.914 68.956 316.914 68.716V65.032H318.738V64.108H316.914V62.092H315.786V64.108H314.082V65.032ZM319.911 65.692L320.967 66.028C321.111 65.356 321.591 64.864 322.479 64.864C323.379 64.864 323.823 65.368 323.823 66.1V66.484H321.951C320.667 66.484 319.719 67.096 319.719 68.308C319.719 69.496 320.667 70.168 321.891 70.168C323.031 70.168 323.487 69.604 323.703 69.208H323.847V70H324.927V66.172C324.927 64.756 324.003 63.94 322.491 63.94C320.991 63.94 320.199 64.732 319.911 65.692ZM320.847 68.284C320.847 67.708 321.315 67.396 322.011 67.396H323.823V67.516C323.823 68.584 323.115 69.244 322.083 69.244C321.315 69.244 320.847 68.86 320.847 68.284ZM333.028 61.432C331.3 61.432 330.136 62.32 330.136 63.772C330.136 65.224 331.12 65.812 332.692 66.172L333.208 66.292C334.312 66.544 334.996 66.844 334.996 67.696C334.996 68.536 334.312 69.124 333.088 69.124C331.852 69.124 331.036 68.512 331.036 67.216V67.108H329.86V67.216C329.86 69.148 331.204 70.168 333.088 70.168C334.96 70.168 336.16 69.16 336.16 67.672C336.16 66.172 335.056 65.596 333.484 65.236L332.968 65.116C331.876 64.864 331.312 64.564 331.312 63.748C331.312 62.932 331.96 62.476 333.028 62.476C334.12 62.476 334.888 62.932 334.888 64.072V64.396H336.064V64.072C336.064 62.32 334.756 61.432 333.028 61.432ZM337.175 67.06C337.175 68.884 338.531 70.168 340.235 70.168C341.855 70.168 342.815 69.196 343.103 67.924L342.011 67.672C341.855 68.548 341.303 69.172 340.247 69.172C339.155 69.172 338.315 68.332 338.315 67.06C338.315 65.776 339.143 64.936 340.247 64.936C341.255 64.936 341.867 65.572 341.963 66.424L343.067 66.196C342.839 64.936 341.831 63.94 340.235 63.94C338.531 63.94 337.175 65.224 337.175 67.06ZM344.129 62.32C344.129 62.812 344.501 63.172 344.993 63.172C345.497 63.172 345.869 62.812 345.869 62.32C345.869 61.816 345.497 61.456 344.993 61.456C344.501 61.456 344.129 61.816 344.129 62.32ZM345.557 64.108H344.429V70H345.557V64.108ZM346.908 67.012C346.908 68.824 348.12 70.168 349.944 70.168C351.564 70.168 352.248 69.232 352.608 68.62L351.672 68.092C351.384 68.668 350.904 69.184 349.944 69.184C348.876 69.184 348.132 68.464 348.06 67.444H352.704V66.892C352.704 65.08 351.54 63.94 349.86 63.94C348.144 63.94 346.908 65.212 346.908 67.012ZM348.072 66.532C348.192 65.548 348.84 64.924 349.86 64.924C350.832 64.924 351.492 65.512 351.552 66.532H348.072ZM354.009 64.108V70H355.137V67C355.137 65.656 355.845 64.936 356.901 64.936C357.849 64.936 358.425 65.428 358.425 66.508V70H359.541V66.448C359.541 64.912 358.545 64 357.225 64C356.061 64 355.497 64.528 355.233 65.056H355.113V64.108H354.009ZM360.823 67.06C360.823 68.884 362.179 70.168 363.883 70.168C365.503 70.168 366.463 69.196 366.751 67.924L365.659 67.672C365.503 68.548 364.951 69.172 363.895 69.172C362.803 69.172 361.963 68.332 361.963 67.06C361.963 65.776 362.791 64.936 363.895 64.936C364.903 64.936 365.515 65.572 365.611 66.424L366.715 66.196C366.487 64.936 365.479 63.94 363.883 63.94C362.179 63.94 360.823 65.224 360.823 67.06ZM367.705 67.012C367.705 68.824 368.917 70.168 370.741 70.168C372.361 70.168 373.045 69.232 373.405 68.62L372.469 68.092C372.181 68.668 371.701 69.184 370.741 69.184C369.673 69.184 368.929 68.464 368.857 67.444H373.501V66.892C373.501 65.08 372.337 63.94 370.657 63.94C368.941 63.94 367.705 65.212 367.705 67.012ZM368.869 66.532C368.989 65.548 369.637 64.924 370.657 64.924C371.629 64.924 372.289 65.512 372.349 66.532H368.869ZM300.816 77.6V86H304.416C305.856 86 306.912 85.16 306.912 83.744C306.912 82.532 306.096 82.004 305.472 81.824V81.704C306.096 81.524 306.876 81.008 306.876 79.808C306.876 78.452 305.844 77.6 304.404 77.6H300.816ZM302.004 78.668H304.284C305.16 78.668 305.736 79.184 305.736 79.94C305.736 80.72 305.184 81.236 304.296 81.236H302.004V78.668ZM302.004 82.316H304.284C305.22 82.316 305.76 82.808 305.76 83.612C305.76 84.392 305.22 84.932 304.308 84.932H302.004V82.316ZM308.186 81.692L309.242 82.028C309.386 81.356 309.866 80.864 310.754 80.864C311.654 80.864 312.098 81.368 312.098 82.1V82.484H310.226C308.942 82.484 307.994 83.096 307.994 84.308C307.994 85.496 308.942 86.168 310.166 86.168C311.306 86.168 311.762 85.604 311.978 85.208H312.122V86H313.202V82.172C313.202 80.756 312.278 79.94 310.766 79.94C309.266 79.94 308.474 80.732 308.186 81.692ZM309.122 84.284C309.122 83.708 309.59 83.396 310.286 83.396H312.098V83.516C312.098 84.584 311.39 85.244 310.358 85.244C309.59 85.244 309.122 84.86 309.122 84.284ZM314.74 81.68C314.74 82.772 315.652 83.216 316.792 83.42L317.296 83.504C318.112 83.636 318.568 83.864 318.568 84.38C318.568 84.92 318.076 85.28 317.248 85.28C316.42 85.28 315.724 84.932 315.544 83.852L314.488 84.116C314.704 85.496 315.76 86.168 317.248 86.168C318.7 86.168 319.66 85.484 319.66 84.308C319.66 83.12 318.712 82.76 317.464 82.544L316.96 82.472C316.288 82.352 315.844 82.136 315.844 81.62C315.844 81.128 316.288 80.828 317.008 80.828C317.728 80.828 318.244 81.128 318.412 81.92L319.444 81.62C319.192 80.588 318.328 79.94 317.008 79.94C315.628 79.94 314.74 80.588 314.74 81.68ZM320.704 78.32C320.704 78.812 321.076 79.172 321.568 79.172C322.072 79.172 322.444 78.812 322.444 78.32C322.444 77.816 322.072 77.456 321.568 77.456C321.076 77.456 320.704 77.816 320.704 78.32ZM322.132 80.108H321.004V86H322.132V80.108ZM323.482 83.06C323.482 84.884 324.838 86.168 326.542 86.168C328.162 86.168 329.122 85.196 329.41 83.924L328.318 83.672C328.162 84.548 327.61 85.172 326.554 85.172C325.462 85.172 324.622 84.332 324.622 83.06C324.622 81.776 325.45 80.936 326.554 80.936C327.562 80.936 328.174 81.572 328.27 82.424L329.374 82.196C329.146 80.936 328.138 79.94 326.542 79.94C324.838 79.94 323.482 81.224 323.482 83.06ZM330.581 81.68C330.581 82.772 331.493 83.216 332.633 83.42L333.137 83.504C333.953 83.636 334.409 83.864 334.409 84.38C334.409 84.92 333.917 85.28 333.089 85.28C332.261 85.28 331.565 84.932 331.385 83.852L330.329 84.116C330.545 85.496 331.601 86.168 333.089 86.168C334.541 86.168 335.501 85.484 335.501 84.308C335.501 83.12 334.553 82.76 333.305 82.544L332.801 82.472C332.129 82.352 331.685 82.136 331.685 81.62C331.685 81.128 332.129 80.828 332.849 80.828C333.569 80.828 334.085 81.128 334.253 81.92L335.285 81.62C335.033 80.588 334.169 79.94 332.849 79.94C331.469 79.94 330.581 80.588 330.581 81.68Z" fill="#1E2029"/>
<rect width="128" height="27" transform="translate(424 23)" fill="#DCE0FA"/>
<path d="M438.968 31.2L436.084 41H437.75L438.408 38.718H442.048L442.706 41H444.358L441.474 31.2H438.968ZM438.8 37.248L440.158 32.558H440.298L441.642 37.248H438.8ZM445.878 31.2V41H447.502V31.2H445.878ZM453.947 34.448V34.784H455.557V34.476C455.557 33.104 456.467 32.446 457.601 32.446C458.707 32.446 459.449 33.09 459.449 34.182C459.449 35.386 458.581 35.918 457.097 36.31C455.249 36.786 453.961 37.626 453.961 39.474V41H461.031V39.53H455.585V39.334C455.585 38.242 456.397 37.934 457.867 37.556C459.911 37.038 461.073 36.128 461.073 34.224C461.073 32.236 459.491 31.004 457.573 31.004C455.599 31.004 453.947 32.194 453.947 34.448Z" fill="#1E2029"/>
<rect width="128" height="80" transform="translate(424 50)" fill="#E3C668"/>
<path d="M436.528 66.724C436.528 68.92 437.812 70.168 439.9 70.168C441.892 70.168 443.092 69.004 443.092 67.168V66.904H441.904V67.18C441.904 68.308 441.244 69.112 439.9 69.112C438.544 69.112 437.716 68.212 437.716 66.748V64.852C437.716 63.388 438.532 62.488 439.9 62.488C441.208 62.488 441.904 63.304 441.904 64.432V64.636H443.092V64.444C443.092 62.608 441.94 61.432 439.9 61.432C437.836 61.432 436.528 62.68 436.528 64.876V66.724ZM444.099 67.06C444.099 68.932 445.359 70.168 447.135 70.168C448.911 70.168 450.183 68.932 450.183 67.06C450.183 65.176 448.911 63.94 447.135 63.94C445.359 63.94 444.099 65.176 444.099 67.06ZM445.227 67.06C445.227 65.788 445.995 64.936 447.135 64.936C448.275 64.936 449.055 65.764 449.055 67.06C449.055 68.344 448.275 69.172 447.135 69.172C445.995 69.172 445.227 68.368 445.227 67.06ZM451.54 64.108V70H452.668V67C452.668 65.656 453.376 64.936 454.432 64.936C455.38 64.936 455.956 65.428 455.956 66.508V70H457.072V66.448C457.072 64.912 456.076 64 454.756 64C453.592 64 453.028 64.528 452.764 65.056H452.644V64.108H451.54ZM457.81 64.108L459.982 70H461.614L463.798 64.108H462.574L460.858 69.004H460.738L459.034 64.108H457.81ZM464.416 67.06C464.416 68.932 465.676 70.168 467.452 70.168C469.228 70.168 470.5 68.932 470.5 67.06C470.5 65.176 469.228 63.94 467.452 63.94C465.676 63.94 464.416 65.176 464.416 67.06ZM465.544 67.06C465.544 65.788 466.312 64.936 467.452 64.936C468.592 64.936 469.372 65.764 469.372 67.06C469.372 68.344 468.592 69.172 467.452 69.172C466.312 69.172 465.544 68.368 465.544 67.06ZM472.985 61.6H471.857V70H472.985V61.6ZM480.228 70V64.108H479.1V67.108C479.1 68.452 478.392 69.172 477.336 69.172C476.388 69.172 475.812 68.68 475.812 67.6V64.108H474.696V67.66C474.696 69.196 475.692 70.108 477.012 70.108C478.176 70.108 478.74 69.58 479.004 69.052H479.124V70H480.228ZM481.245 65.032H482.949V68.896C482.949 69.568 483.381 70 484.041 70H485.673V69.076H484.413C484.197 69.076 484.077 68.956 484.077 68.716V65.032H485.901V64.108H484.077V62.092H482.949V64.108H481.245V65.032ZM486.917 62.32C486.917 62.812 487.289 63.172 487.781 63.172C488.285 63.172 488.657 62.812 488.657 62.32C488.657 61.816 488.285 61.456 487.781 61.456C487.289 61.456 486.917 61.816 486.917 62.32ZM488.345 64.108H487.217V70H488.345V64.108ZM489.696 67.06C489.696 68.932 490.956 70.168 492.732 70.168C494.508 70.168 495.78 68.932 495.78 67.06C495.78 65.176 494.508 63.94 492.732 63.94C490.956 63.94 489.696 65.176 489.696 67.06ZM490.824 67.06C490.824 65.788 491.592 64.936 492.732 64.936C493.872 64.936 494.652 65.764 494.652 67.06C494.652 68.344 493.872 69.172 492.732 69.172C491.592 69.172 490.824 68.368 490.824 67.06ZM497.137 64.108V70H498.265V67C498.265 65.656 498.973 64.936 500.029 64.936C500.977 64.936 501.553 65.428 501.553 66.508V70H502.669V66.448C502.669 64.912 501.673 64 500.353 64C499.189 64 498.625 64.528 498.361 65.056H498.241V64.108L497.137 64.108ZM504.179 65.692L505.235 66.028C505.379 65.356 505.859 64.864 506.747 64.864C507.647 64.864 508.091 65.368 508.091 66.1V66.484H506.219C504.935 66.484 503.987 67.096 503.987 68.308C503.987 69.496 504.935 70.168 506.159 70.168C507.299 70.168 507.755 69.604 507.971 69.208H508.115V70H509.195V66.172C509.195 64.756 508.271 63.94 506.759 63.94C505.259 63.94 504.467 64.732 504.179 65.692ZM505.115 68.284C505.115 67.708 505.583 67.396 506.279 67.396H508.091V67.516C508.091 68.584 507.383 69.244 506.351 69.244C505.583 69.244 505.115 68.86 505.115 68.284ZM511.981 61.6H510.853V70H511.981V61.6ZM436.816 77.6V86H438.004V78.836H438.124L440.98 86H443.008V77.6H441.82V84.764H441.7L438.844 77.6H436.816ZM444.38 83.012C444.38 84.824 445.592 86.168 447.416 86.168C449.036 86.168 449.72 85.232 450.08 84.62L449.144 84.092C448.856 84.668 448.376 85.184 447.416 85.184C446.348 85.184 445.604 84.464 445.532 83.444H450.176V82.892C450.176 81.08 449.012 79.94 447.332 79.94C445.616 79.94 444.38 81.212 444.38 83.012ZM445.544 82.532C445.664 81.548 446.312 80.924 447.332 80.924C448.304 80.924 448.964 81.512 449.024 82.532H445.544ZM457.001 86V80.108H455.874V83.108C455.874 84.452 455.165 85.172 454.109 85.172C453.161 85.172 452.585 84.68 452.585 83.6V80.108H451.469V83.66C451.469 85.196 452.465 86.108 453.785 86.108C454.949 86.108 455.514 85.58 455.777 85.052H455.898V86H457.001ZM459.831 80.108H458.727V86H459.855V82.448C459.855 81.5 460.407 81.056 461.235 81.056H462.159V80.084H461.427C460.647 80.084 460.179 80.312 459.951 80.9H459.831V80.108ZM463.062 81.692L464.118 82.028C464.262 81.356 464.742 80.864 465.63 80.864C466.53 80.864 466.974 81.368 466.974 82.1V82.484H465.102C463.818 82.484 462.87 83.096 462.87 84.308C462.87 85.496 463.818 86.168 465.042 86.168C466.182 86.168 466.638 85.604 466.854 85.208H466.998V86H468.078V82.172C468.078 80.756 467.154 79.94 465.642 79.94C464.142 79.94 463.35 80.732 463.062 81.692ZM463.998 84.284C463.998 83.708 464.466 83.396 465.162 83.396H466.974V83.516C466.974 84.584 466.266 85.244 465.234 85.244C464.466 85.244 463.998 84.86 463.998 84.284ZM470.864 77.6H469.736V86H470.864V77.6ZM476.269 77.6V86H477.457V78.836H477.577L480.433 86H482.461V77.6H481.273V84.764H481.153L478.297 77.6H476.269ZM483.833 83.012C483.833 84.824 485.045 86.168 486.869 86.168C488.489 86.168 489.173 85.232 489.533 84.62L488.597 84.092C488.309 84.668 487.829 85.184 486.869 85.184C485.801 85.184 485.057 84.464 484.985 83.444H489.629V82.892C489.629 81.08 488.465 79.94 486.785 79.94C485.069 79.94 483.833 81.212 483.833 83.012ZM484.997 82.532C485.117 81.548 485.765 80.924 486.785 80.924C487.757 80.924 488.417 81.512 488.477 82.532H484.997ZM490.168 81.032H491.872V84.896C491.872 85.568 492.304 86 492.964 86H494.596V85.076H493.336C493.12 85.076 493 84.956 493 84.716V81.032H494.824V80.108H493V78.092H491.872V80.108H490.168V81.032ZM495.673 80.108L497.005 86H498.625L499.873 81.104H499.993L501.241 86H502.861L504.193 80.108H503.053L502.081 85.004H501.961L500.713 80.108H499.153L497.905 85.004H497.785L496.813 80.108H495.673ZM505.018 83.06C505.018 84.932 506.278 86.168 508.054 86.168C509.83 86.168 511.102 84.932 511.102 83.06C511.102 81.176 509.83 79.94 508.054 79.94C506.278 79.94 505.018 81.176 505.018 83.06ZM506.146 83.06C506.146 81.788 506.914 80.936 508.054 80.936C509.194 80.936 509.974 81.764 509.974 83.06C509.974 84.344 509.194 85.172 508.054 85.172C506.914 85.172 506.146 84.368 506.146 83.06ZM513.563 80.108H512.459V86H513.587V82.448C513.587 81.5 514.139 81.056 514.967 81.056H515.891V80.084H515.159C514.379 80.084 513.911 80.312 513.683 80.9H513.563V80.108ZM522.781 80.108H521.113L518.125 82.748V77.6H516.997V86H518.125V84.128L519.217 83.18L521.353 86H522.733L520.021 82.484L522.781 80.108ZM523.77 81.68C523.77 82.772 524.682 83.216 525.822 83.42L526.326 83.504C527.142 83.636 527.598 83.864 527.598 84.38C527.598 84.92 527.106 85.28 526.278 85.28C525.45 85.28 524.754 84.932 524.574 83.852L523.518 84.116C523.734 85.496 524.79 86.168 526.278 86.168C527.73 86.168 528.69 85.484 528.69 84.308C528.69 83.12 527.742 82.76 526.494 82.544L525.99 82.472C525.318 82.352 524.874 82.136 524.874 81.62C524.874 81.128 525.318 80.828 526.038 80.828C526.758 80.828 527.274 81.128 527.442 81.92L528.474 81.62C528.222 80.588 527.358 79.94 526.038 79.94C524.658 79.94 523.77 80.588 523.77 81.68Z" fill="#1E2029"/>
<rect width="128" height="27" transform="translate(576 23)" fill="#636CAD"/>
<path d="M590.968 31.2L588.084 41H589.75L590.408 38.718H594.048L594.706 41H596.358L593.474 31.2H590.968ZM590.8 37.248L592.158 32.558H592.298L593.642 37.248H590.8ZM597.878 31.2V41H599.502V31.2H597.878ZM606.073 31.2V32.67H610.749L608.089 34.896V36.366H609.685C610.721 36.366 611.491 36.884 611.491 37.962C611.491 38.984 610.749 39.754 609.503 39.754C608.173 39.754 607.417 38.956 607.417 37.822V37.444H605.807V37.864C605.807 39.852 607.221 41.196 609.503 41.196C611.617 41.196 613.115 39.908 613.115 37.962C613.115 36.156 611.869 35.176 610.399 35.176H610.049V35.022L612.947 32.628V31.2H606.073Z" fill="white"/>
<rect width="128" height="80" transform="translate(576 50)" fill="#B49848"/>
<path d="M588.816 61.6V70H590.004V62.836H590.124L592.98 70H595.008V61.6H593.82V68.764H593.7L590.844 61.6H588.816ZM596.608 65.692L597.664 66.028C597.808 65.356 598.288 64.864 599.176 64.864C600.076 64.864 600.52 65.368 600.52 66.1V66.484H598.648C597.364 66.484 596.416 67.096 596.416 68.308C596.416 69.496 597.364 70.168 598.588 70.168C599.728 70.168 600.184 69.604 600.4 69.208H600.544V70H601.624V66.172C601.624 64.756 600.7 63.94 599.188 63.94C597.688 63.94 596.896 64.732 596.608 65.692ZM597.544 68.284C597.544 67.708 598.012 67.396 598.708 67.396H600.52V67.516C600.52 68.584 599.812 69.244 598.78 69.244C598.012 69.244 597.544 68.86 597.544 68.284ZM602.457 65.032H604.161V68.896C604.161 69.568 604.593 70 605.253 70H606.885V69.076H605.625C605.409 69.076 605.289 68.956 605.289 68.716V65.032H607.113V64.108H605.289V62.092H604.161V64.108H602.457V65.032ZM613.95 70V64.108H612.822V67.108C612.822 68.452 612.114 69.172 611.058 69.172C610.11 69.172 609.534 68.68 609.534 67.6V64.108H608.418V67.66C608.418 69.196 609.414 70.108 610.734 70.108C611.898 70.108 612.462 69.58 612.726 69.052H612.846V70H613.95ZM616.779 64.108H615.675V70H616.803V66.448C616.803 65.5 617.355 65.056 618.183 65.056H619.107V64.084H618.375C617.595 64.084 617.127 64.312 616.899 64.9H616.779V64.108ZM620.01 65.692L621.066 66.028C621.21 65.356 621.69 64.864 622.578 64.864C623.478 64.864 623.922 65.368 623.922 66.1V66.484H622.05C620.766 66.484 619.818 67.096 619.818 68.308C619.818 69.496 620.766 70.168 621.99 70.168C623.13 70.168 623.586 69.604 623.802 69.208H623.946V70H625.026V66.172C625.026 64.756 624.102 63.94 622.59 63.94C621.09 63.94 620.298 64.732 620.01 65.692ZM620.946 68.284C620.946 67.708 621.414 67.396 622.11 67.396H623.922V67.516C623.922 68.584 623.214 69.244 622.182 69.244C621.414 69.244 620.946 68.86 620.946 68.284ZM627.812 61.6H626.684V70H627.812V61.6ZM633.217 61.6V70H638.593V68.932H634.405V61.6H633.217ZM639.568 65.692L640.624 66.028C640.768 65.356 641.248 64.864 642.136 64.864C643.036 64.864 643.48 65.368 643.48 66.1V66.484H641.608C640.324 66.484 639.376 67.096 639.376 68.308C639.376 69.496 640.324 70.168 641.548 70.168C642.688 70.168 643.144 69.604 643.36 69.208H643.504V70H644.584V66.172C644.584 64.756 643.66 63.94 642.148 63.94C640.648 63.94 639.856 64.732 639.568 65.692ZM640.504 68.284C640.504 67.708 640.972 67.396 641.668 67.396H643.48V67.516C643.48 68.584 642.772 69.244 641.74 69.244C640.972 69.244 640.504 68.86 640.504 68.284ZM646.242 64.108V70H647.37V67C647.37 65.656 648.078 64.936 649.134 64.936C650.082 64.936 650.658 65.428 650.658 66.508V70H651.774V66.448C651.774 64.912 650.778 64 649.458 64C648.294 64 647.73 64.528 647.466 65.056H647.346V64.108H646.242ZM658.049 64.108V65.056H657.929C657.569 64.468 656.945 63.94 655.793 63.94C654.305 63.94 653.057 65.14 653.057 66.976C653.057 68.824 654.305 70.012 655.793 70.012C656.945 70.012 657.569 69.472 657.905 68.944H658.025V69.64C658.025 70.948 657.257 71.608 656.105 71.608C654.965 71.608 654.401 70.948 654.185 70.252L653.165 70.672C653.453 71.536 654.341 72.568 656.129 72.568C657.941 72.568 659.153 71.536 659.153 69.688V64.108H658.049ZM656.105 69.04C654.989 69.04 654.197 68.248 654.197 66.976C654.197 65.716 654.989 64.924 656.105 64.924C657.221 64.924 658.037 65.716 658.037 66.976C658.037 68.236 657.221 69.04 656.105 69.04ZM666.405 70V64.108H665.277V67.108C665.277 68.452 664.569 69.172 663.513 69.172C662.565 69.172 661.989 68.68 661.989 67.6V64.108H660.873V67.66C660.873 69.196 661.869 70.108 663.189 70.108C664.353 70.108 664.917 69.58 665.181 69.052H665.301V70H666.405ZM667.986 65.692L669.042 66.028C669.186 65.356 669.666 64.864 670.554 64.864C671.454 64.864 671.898 65.368 671.898 66.1V66.484H670.026C668.742 66.484 667.794 67.096 667.794 68.308C667.794 69.496 668.742 70.168 669.966 70.168C671.106 70.168 671.562 69.604 671.778 69.208H671.922V70H673.002V66.172C673.002 64.756 672.078 63.94 670.566 63.94C669.066 63.94 668.274 64.732 667.986 65.692ZM668.922 68.284C668.922 67.708 669.39 67.396 670.086 67.396H671.898V67.516C671.898 68.584 671.19 69.244 670.158 69.244C669.39 69.244 668.922 68.86 668.922 68.284ZM679.28 64.108V65.056H679.16C678.8 64.468 678.176 63.94 677.024 63.94C675.536 63.94 674.288 65.14 674.288 66.976C674.288 68.824 675.536 70.012 677.024 70.012C678.176 70.012 678.8 69.472 679.136 68.944H679.256V69.64C679.256 70.948 678.488 71.608 677.336 71.608C676.196 71.608 675.632 70.948 675.416 70.252L674.396 70.672C674.684 71.536 675.572 72.568 677.36 72.568C679.172 72.568 680.384 71.536 680.384 69.688V64.108H679.28ZM677.336 69.04C676.22 69.04 675.428 68.248 675.428 66.976C675.428 65.716 676.22 64.924 677.336 64.924C678.452 64.924 679.268 65.716 679.268 66.976C679.268 68.236 678.452 69.04 677.336 69.04ZM681.744 67.012C681.744 68.824 682.956 70.168 684.78 70.168C686.4 70.168 687.084 69.232 687.444 68.62L686.508 68.092C686.22 68.668 685.74 69.184 684.78 69.184C683.712 69.184 682.968 68.464 682.896 67.444H687.54V66.892C687.54 65.08 686.376 63.94 684.696 63.94C682.98 63.94 681.744 65.212 681.744 67.012ZM682.908 66.532C683.028 65.548 683.676 64.924 684.696 64.924C685.668 64.924 686.328 65.512 686.388 66.532H682.908ZM588.816 77.6V86H590.004V82.712H592.104C593.616 82.712 594.756 81.74 594.756 80.156C594.756 78.584 593.64 77.6 592.104 77.6H588.816ZM590.004 78.668H591.984C592.968 78.668 593.568 79.232 593.568 80.156C593.568 81.08 592.968 81.644 591.984 81.644H590.004V78.668ZM597.048 80.108H595.944V86H597.072V82.448C597.072 81.5 597.624 81.056 598.452 81.056H599.376V80.084H598.644C597.864 80.084 597.396 80.312 597.168 80.9H597.048V80.108ZM599.852 83.06C599.852 84.932 601.112 86.168 602.888 86.168C604.664 86.168 605.936 84.932 605.936 83.06C605.936 81.176 604.664 79.94 602.888 79.94C601.112 79.94 599.852 81.176 599.852 83.06ZM600.98 83.06C600.98 81.788 601.748 80.936 602.888 80.936C604.028 80.936 604.808 81.764 604.808 83.06C604.808 84.344 604.028 85.172 602.888 85.172C601.748 85.172 600.98 84.368 600.98 83.06ZM606.921 83.06C606.921 84.884 608.277 86.168 609.981 86.168C611.601 86.168 612.561 85.196 612.849 83.924L611.757 83.672C611.601 84.548 611.049 85.172 609.993 85.172C608.901 85.172 608.061 84.332 608.061 83.06C608.061 81.776 608.889 80.936 609.993 80.936C611.001 80.936 611.613 81.572 611.709 82.424L612.813 82.196C612.585 80.936 611.577 79.94 609.981 79.94C608.277 79.94 606.921 81.224 606.921 83.06ZM613.803 83.012C613.803 84.824 615.015 86.168 616.839 86.168C618.459 86.168 619.143 85.232 619.503 84.62L618.567 84.092C618.279 84.668 617.799 85.184 616.839 85.184C615.771 85.184 615.027 84.464 614.955 83.444H619.599V82.892C619.599 81.08 618.435 79.94 616.755 79.94C615.039 79.94 613.803 81.212 613.803 83.012ZM614.967 82.532C615.087 81.548 615.735 80.924 616.755 80.924C617.727 80.924 618.387 81.512 618.447 82.532H614.967ZM620.749 81.68C620.749 82.772 621.661 83.216 622.801 83.42L623.305 83.504C624.121 83.636 624.577 83.864 624.577 84.38C624.577 84.92 624.085 85.28 623.257 85.28C622.429 85.28 621.733 84.932 621.553 83.852L620.497 84.116C620.713 85.496 621.769 86.168 623.257 86.168C624.709 86.168 625.669 85.484 625.669 84.308C625.669 83.12 624.721 82.76 623.473 82.544L622.969 82.472C622.297 82.352 621.853 82.136 621.853 81.62C621.853 81.128 622.297 80.828 623.017 80.828C623.737 80.828 624.253 81.128 624.421 81.92L625.453 81.62C625.201 80.588 624.337 79.94 623.017 79.94C621.637 79.94 620.749 80.588 620.749 81.68ZM626.787 81.68C626.787 82.772 627.699 83.216 628.839 83.42L629.343 83.504C630.159 83.636 630.615 83.864 630.615 84.38C630.615 84.92 630.123 85.28 629.295 85.28C628.467 85.28 627.771 84.932 627.591 83.852L626.535 84.116C626.751 85.496 627.807 86.168 629.295 86.168C630.747 86.168 631.707 85.484 631.707 84.308C631.707 83.12 630.759 82.76 629.511 82.544L629.007 82.472C628.335 82.352 627.891 82.136 627.891 81.62C627.891 81.128 628.335 80.828 629.055 80.828C629.775 80.828 630.291 81.128 630.459 81.92L631.491 81.62C631.239 80.588 630.375 79.94 629.055 79.94C627.675 79.94 626.787 80.588 626.787 81.68ZM632.75 78.32C632.75 78.812 633.122 79.172 633.614 79.172C634.118 79.172 634.49 78.812 634.49 78.32C634.49 77.816 634.118 77.456 633.614 77.456C633.122 77.456 632.75 77.816 632.75 78.32ZM634.178 80.108H633.05V86H634.178V80.108ZM635.901 80.108V86H637.029V83C637.029 81.656 637.737 80.936 638.793 80.936C639.741 80.936 640.317 81.428 640.317 82.508V86H641.433V82.448C641.433 80.912 640.437 80 639.117 80C637.953 80 637.389 80.528 637.125 81.056H637.005V80.108H635.901ZM647.707 80.108V81.056H647.587C647.227 80.468 646.603 79.94 645.451 79.94C643.963 79.94 642.715 81.14 642.715 82.976C642.715 84.824 643.963 86.012 645.451 86.012C646.603 86.012 647.227 85.472 647.563 84.944H647.683V85.64C647.683 86.948 646.915 87.608 645.763 87.608C644.623 87.608 644.059 86.948 643.843 86.252L642.823 86.672C643.111 87.536 643.999 88.568 645.787 88.568C647.599 88.568 648.811 87.536 648.811 85.688V80.108H647.707ZM645.763 85.04C644.647 85.04 643.855 84.248 643.855 82.976C643.855 81.716 644.647 80.924 645.763 80.924C646.879 80.924 647.695 81.716 647.695 82.976C647.695 84.236 646.879 85.04 645.763 85.04Z" fill="white"/>
<rect width="128" height="27" transform="translate(712 23)" fill="#636CAD"/>
<path d="M726.968 31.2L724.084 41H725.75L726.408 38.718H730.048L730.706 41H732.358L729.474 31.2H726.968ZM726.8 37.248L728.158 32.558H728.298L729.642 37.248H726.8ZM733.878 31.2V41H735.502V31.2H733.878ZM745.643 31.2L741.597 37.64V39.054H746.567V41H748.191V39.054H749.815V37.584H748.191V31.2H745.643ZM746.399 32.614H746.567V37.584H743.291L746.399 32.614Z" fill="white"/>
<rect width="128" height="80" transform="translate(712 50)" fill="#B49848"/>
<path d="M730.996 64.12C730.996 62.56 729.88 61.6 728.344 61.6H724.816V70H726.004V66.64H727.768L729.484 70H730.84L729.004 66.58C730.168 66.34 730.996 65.44 730.996 64.12ZM726.004 62.668H728.224C729.208 62.668 729.808 63.22 729.808 64.12C729.808 65.032 729.208 65.584 728.224 65.584H726.004V62.668ZM731.935 67.012C731.935 68.824 733.147 70.168 734.971 70.168C736.591 70.168 737.275 69.232 737.635 68.62L736.699 68.092C736.411 68.668 735.931 69.184 734.971 69.184C733.903 69.184 733.159 68.464 733.087 67.444H737.731V66.892C737.731 65.08 736.567 63.94 734.887 63.94C733.171 63.94 731.935 65.212 731.935 67.012ZM733.099 66.532C733.219 65.548 733.867 64.924 734.887 64.924C735.859 64.924 736.519 65.512 736.579 66.532H733.099ZM738.736 62.32C738.736 62.812 739.108 63.172 739.6 63.172C740.104 63.172 740.476 62.812 740.476 62.32C740.476 61.816 740.104 61.456 739.6 61.456C739.108 61.456 738.736 61.816 738.736 62.32ZM740.164 64.108H739.036V70H740.164V64.108ZM741.887 64.108V70H743.015V67C743.015 65.656 743.723 64.936 744.779 64.936C745.727 64.936 746.303 65.428 746.303 66.508V70H747.419V66.448C747.419 64.912 746.423 64 745.103 64C743.939 64 743.375 64.528 743.111 65.056H742.991V64.108H741.887ZM748.38 64.108V65.032H750.096V70H751.224V65.032H752.976V64.108H751.224V62.884C751.224 62.644 751.344 62.524 751.56 62.524H752.736V61.6H751.188C750.528 61.6 750.096 62.02 750.096 62.704V64.108H748.38ZM753.755 67.06C753.755 68.932 755.015 70.168 756.791 70.168C758.567 70.168 759.839 68.932 759.839 67.06C759.839 65.176 758.567 63.94 756.791 63.94C755.015 63.94 753.755 65.176 753.755 67.06ZM754.883 67.06C754.883 65.788 755.651 64.936 756.791 64.936C757.931 64.936 758.711 65.764 758.711 67.06C758.711 68.344 757.931 69.172 756.791 69.172C755.651 69.172 754.883 68.368 754.883 67.06ZM762.3 64.108H761.196V70H762.324V66.448C762.324 65.5 762.876 65.056 763.704 65.056H764.628V64.084H763.896C763.116 64.084 762.648 64.312 762.42 64.9H762.3V64.108ZM765.104 67.06C765.104 68.884 766.46 70.168 768.164 70.168C769.784 70.168 770.744 69.196 771.032 67.924L769.94 67.672C769.784 68.548 769.232 69.172 768.176 69.172C767.084 69.172 766.244 68.332 766.244 67.06C766.244 65.776 767.072 64.936 768.176 64.936C769.184 64.936 769.796 65.572 769.892 66.424L770.996 66.196C770.768 64.936 769.76 63.94 768.164 63.94C766.46 63.94 765.104 65.224 765.104 67.06ZM771.986 67.012C771.986 68.824 773.198 70.168 775.022 70.168C776.642 70.168 777.326 69.232 777.686 68.62L776.75 68.092C776.462 68.668 775.982 69.184 775.022 69.184C773.954 69.184 773.21 68.464 773.138 67.444H777.782V66.892C777.782 65.08 776.618 63.94 774.938 63.94C773.222 63.94 771.986 65.212 771.986 67.012ZM773.15 66.532C773.27 65.548 773.918 64.924 774.938 64.924C775.91 64.924 776.57 65.512 776.63 66.532H773.15ZM779.087 64.108V70H780.215V66.448C780.215 65.476 780.755 64.936 781.559 64.936C782.315 64.936 782.747 65.38 782.747 66.124V70H783.875V66.448C783.875 65.476 784.415 64.936 785.219 64.936C785.975 64.936 786.419 65.38 786.419 66.124V70H787.535V66.052C787.535 64.744 786.695 64 785.555 64C784.607 64 784.079 64.42 783.767 65.02H783.647C783.383 64.432 782.855 64 781.955 64C781.079 64 780.575 64.372 780.311 64.864H780.191V64.108H779.087ZM788.831 67.012C788.831 68.824 790.043 70.168 791.867 70.168C793.487 70.168 794.171 69.232 794.531 68.62L793.595 68.092C793.307 68.668 792.827 69.184 791.867 69.184C790.799 69.184 790.055 68.464 789.983 67.444H794.627V66.892C794.627 65.08 793.463 63.94 791.783 63.94C790.067 63.94 788.831 65.212 788.831 67.012ZM789.995 66.532C790.115 65.548 790.763 64.924 791.783 64.924C792.755 64.924 793.415 65.512 793.475 66.532H789.995ZM795.933 64.108V70H797.061V67C797.061 65.656 797.769 64.936 798.825 64.936C799.773 64.936 800.349 65.428 800.349 66.508V70H801.465V66.448C801.465 64.912 800.469 64 799.149 64C797.985 64 797.421 64.528 797.157 65.056H797.037V64.108H795.933ZM802.294 65.032H803.998V68.896C803.998 69.568 804.43 70 805.09 70H806.722V69.076H805.462C805.246 69.076 805.126 68.956 805.126 68.716V65.032H806.95V64.108H805.126V62.092H803.998V64.108H802.294V65.032ZM724.816 77.6V86H730.192V84.932H726.004V77.6H724.816ZM730.939 83.012C730.939 84.824 732.151 86.168 733.975 86.168C735.595 86.168 736.279 85.232 736.639 84.62L735.703 84.092C735.415 84.668 734.935 85.184 733.975 85.184C732.907 85.184 732.163 84.464 732.091 83.444H736.735V82.892C736.735 81.08 735.571 79.94 733.891 79.94C732.175 79.94 730.939 81.212 730.939 83.012ZM732.103 82.532C732.223 81.548 732.871 80.924 733.891 80.924C734.863 80.924 735.523 81.512 735.583 82.532H732.103ZM737.873 81.692L738.929 82.028C739.073 81.356 739.553 80.864 740.441 80.864C741.341 80.864 741.785 81.368 741.785 82.1V82.484H739.913C738.629 82.484 737.681 83.096 737.681 84.308C737.681 85.496 738.629 86.168 739.853 86.168C740.993 86.168 741.449 85.604 741.665 85.208H741.809V86H742.889V82.172C742.889 80.756 741.965 79.94 740.453 79.94C738.953 79.94 738.161 80.732 737.873 81.692ZM738.809 84.284C738.809 83.708 739.277 83.396 739.973 83.396H741.785V83.516C741.785 84.584 741.077 85.244 740.045 85.244C739.277 85.244 738.809 84.86 738.809 84.284ZM745.651 80.108H744.547V86H745.675V82.448C745.675 81.5 746.227 81.056 747.055 81.056H747.979V80.084H747.247C746.467 80.084 745.999 80.312 745.771 80.9H745.651V80.108ZM749.085 80.108V86H750.213V83C750.213 81.656 750.921 80.936 751.977 80.936C752.925 80.936 753.501 81.428 753.501 82.508V86H754.617V82.448C754.617 80.912 753.621 80 752.301 80C751.137 80 750.573 80.528 750.309 81.056H750.189V80.108H749.085ZM755.971 78.32C755.971 78.812 756.343 79.172 756.835 79.172C757.339 79.172 757.711 78.812 757.711 78.32C757.711 77.816 757.339 77.456 756.835 77.456C756.343 77.456 755.971 77.816 755.971 78.32ZM757.399 80.108H756.271V86H757.399V80.108ZM759.122 80.108V86H760.25V83C760.25 81.656 760.958 80.936 762.014 80.936C762.962 80.936 763.538 81.428 763.538 82.508V86H764.654V82.448C764.654 80.912 763.658 80 762.338 80C761.174 80 760.61 80.528 760.346 81.056H760.226V80.108H759.122ZM770.928 80.108V81.056H770.808C770.448 80.468 769.824 79.94 768.672 79.94C767.184 79.94 765.936 81.14 765.936 82.976C765.936 84.824 767.184 86.012 768.672 86.012C769.824 86.012 770.448 85.472 770.784 84.944H770.904V85.64C770.904 86.948 770.136 87.608 768.984 87.608C767.844 87.608 767.28 86.948 767.064 86.252L766.044 86.672C766.332 87.536 767.22 88.568 769.008 88.568C770.82 88.568 772.032 87.536 772.032 85.688V80.108H770.928ZM768.984 85.04C767.868 85.04 767.076 84.248 767.076 82.976C767.076 81.716 767.868 80.924 768.984 80.924C770.1 80.924 770.916 81.716 770.916 82.976C770.916 84.236 770.1 85.04 768.984 85.04ZM781.071 77.6H779.619C778.251 77.6 777.171 78.38 777.171 79.832C777.171 80.864 777.771 81.428 778.527 81.668V81.812C777.759 82.064 777.099 82.712 777.099 83.768C777.099 85.184 778.143 86 779.571 86H782.415V82.232H783.567V81.284H782.415V80.048H781.299V81.284H779.787C778.983 81.284 778.299 80.864 778.299 79.916C778.299 78.992 778.959 78.548 779.787 78.548H781.071V77.6ZM779.739 82.232H781.299V85.052H779.739C778.923 85.052 778.239 84.608 778.239 83.636C778.239 82.688 778.899 82.232 779.739 82.232ZM724.528 98.724C724.528 100.92 725.824 102.168 727.9 102.168C729.892 102.168 731.068 101.004 731.068 99.072V97.932H727.54V98.952H729.904V99.18C729.904 100.38 729.244 101.112 727.9 101.112C726.544 101.112 725.716 100.212 725.716 98.748V96.852C725.716 95.388 726.544 94.488 727.912 94.488C729.208 94.488 729.832 95.268 729.832 96.384V96.516H731.02V96.396C731.02 94.608 729.952 93.432 727.912 93.432C725.848 93.432 724.528 94.68 724.528 96.876V98.724ZM732.157 99.012C732.157 100.824 733.369 102.168 735.193 102.168C736.813 102.168 737.497 101.232 737.857 100.62L736.921 100.092C736.633 100.668 736.153 101.184 735.193 101.184C734.125 101.184 733.381 100.464 733.309 99.444H737.953V98.892C737.953 97.08 736.789 95.94 735.109 95.94C733.393 95.94 732.157 97.212 732.157 99.012ZM733.321 98.532C733.441 97.548 734.089 96.924 735.109 96.924C736.081 96.924 736.741 97.512 736.801 98.532H733.321ZM739.259 96.108V102H740.387V99C740.387 97.656 741.095 96.936 742.151 96.936C743.099 96.936 743.675 97.428 743.675 98.508V102H744.791V98.448C744.791 96.912 743.795 96 742.475 96C741.311 96 740.747 96.528 740.483 97.056H740.363V96.108H739.259ZM746.073 99.012C746.073 100.824 747.285 102.168 749.109 102.168C750.729 102.168 751.413 101.232 751.773 100.62L750.837 100.092C750.549 100.668 750.069 101.184 749.109 101.184C748.041 101.184 747.297 100.464 747.225 99.444H751.869V98.892C751.869 97.08 750.705 95.94 749.025 95.94C747.309 95.94 746.073 97.212 746.073 99.012ZM747.237 98.532C747.357 97.548 748.005 96.924 749.025 96.924C749.997 96.924 750.657 97.512 750.717 98.532H747.237ZM754.279 96.108H753.175V102H754.303V98.448C754.303 97.5 754.855 97.056 755.683 97.056H756.607V96.084H755.875C755.095 96.084 754.627 96.312 754.399 96.9H754.279V96.108ZM757.51 97.692L758.566 98.028C758.71 97.356 759.19 96.864 760.078 96.864C760.978 96.864 761.422 97.368 761.422 98.1V98.484H759.55C758.266 98.484 757.318 99.096 757.318 100.308C757.318 101.496 758.266 102.168 759.49 102.168C760.63 102.168 761.086 101.604 761.302 101.208H761.446V102H762.526V98.172C762.526 96.756 761.602 95.94 760.09 95.94C758.59 95.94 757.798 96.732 757.51 97.692ZM758.446 100.284C758.446 99.708 758.914 99.396 759.61 99.396H761.422V99.516C761.422 100.584 760.714 101.244 759.682 101.244C758.914 101.244 758.446 100.86 758.446 100.284ZM763.359 97.032H765.063V100.896C765.063 101.568 765.495 102 766.155 102H767.787V101.076H766.527C766.311 101.076 766.191 100.956 766.191 100.716V97.032H768.015V96.108H766.191V94.092H765.063V96.108H763.359V97.032ZM769.032 94.32C769.032 94.812 769.404 95.172 769.896 95.172C770.4 95.172 770.772 94.812 770.772 94.32C770.772 93.816 770.4 93.456 769.896 93.456C769.404 93.456 769.032 93.816 769.032 94.32ZM770.46 96.108H769.332V102H770.46V96.108ZM771.558 96.108L773.73 102H775.362L777.546 96.108H776.322L774.606 101.004H774.486L772.782 96.108H771.558ZM778.164 99.012C778.164 100.824 779.376 102.168 781.2 102.168C782.82 102.168 783.504 101.232 783.864 100.62L782.928 100.092C782.64 100.668 782.16 101.184 781.2 101.184C780.132 101.184 779.388 100.464 779.316 99.444H783.96V98.892C783.96 97.08 782.796 95.94 781.116 95.94C779.4 95.94 778.164 97.212 778.164 99.012ZM779.328 98.532C779.448 97.548 780.096 96.924 781.116 96.924C782.088 96.924 782.748 97.512 782.808 98.532H779.328ZM724.816 109.6V118H725.98V110.836H726.1L728.404 118H730.084L732.376 110.836H732.496V118H733.66V109.6H731.608L729.304 116.788H729.184L726.868 109.6H724.816ZM735.029 115.06C735.029 116.932 736.289 118.168 738.065 118.168C739.841 118.168 741.113 116.932 741.113 115.06C741.113 113.176 739.841 111.94 738.065 111.94C736.289 111.94 735.029 113.176 735.029 115.06ZM736.157 115.06C736.157 113.788 736.925 112.936 738.065 112.936C739.205 112.936 739.985 113.764 739.985 115.06C739.985 116.344 739.205 117.172 738.065 117.172C736.925 117.172 736.157 116.368 736.157 115.06ZM748.194 109.6H747.066V113.02H746.946C746.61 112.468 745.998 111.94 744.834 111.94C743.346 111.94 742.098 113.152 742.098 115.06C742.098 116.968 743.346 118.168 744.834 118.168C745.998 118.168 746.61 117.64 746.97 117.064H747.09V118H748.194V109.6ZM745.146 112.924C746.262 112.924 747.078 113.728 747.078 115.06C747.078 116.38 746.262 117.184 745.146 117.184C744.03 117.184 743.238 116.392 743.238 115.06C743.238 113.716 744.03 112.924 745.146 112.924ZM749.554 115.012C749.554 116.824 750.766 118.168 752.59 118.168C754.21 118.168 754.894 117.232 755.254 116.62L754.318 116.092C754.03 116.668 753.55 117.184 752.59 117.184C751.522 117.184 750.778 116.464 750.706 115.444H755.35V114.892C755.35 113.08 754.186 111.94 752.506 111.94C750.79 111.94 749.554 113.212 749.554 115.012ZM750.718 114.532C750.838 113.548 751.486 112.924 752.506 112.924C753.478 112.924 754.138 113.512 754.198 114.532H750.718ZM757.783 109.6H756.655V118H757.783V109.6ZM759.386 113.68C759.386 114.772 760.298 115.216 761.438 115.42L761.942 115.504C762.758 115.636 763.214 115.864 763.214 116.38C763.214 116.92 762.722 117.28 761.894 117.28C761.066 117.28 760.37 116.932 760.19 115.852L759.134 116.116C759.35 117.496 760.406 118.168 761.894 118.168C763.346 118.168 764.306 117.484 764.306 116.308C764.306 115.12 763.358 114.76 762.11 114.544L761.606 114.472C760.934 114.352 760.49 114.136 760.49 113.62C760.49 113.128 760.934 112.828 761.654 112.828C762.374 112.828 762.89 113.128 763.058 113.92L764.09 113.62C763.838 112.588 762.974 111.94 761.654 111.94C760.274 111.94 759.386 112.588 759.386 113.68Z" fill="white"/>
<rect width="128" height="27" transform="translate(864 23)" fill="#2F3564"/>
<path d="M878.968 31.2L876.084 41H877.75L878.408 38.718H882.048L882.706 41H884.358L881.474 31.2H878.968ZM878.8 37.248L880.158 32.558H880.298L881.642 37.248H878.8ZM885.878 31.2V41H887.502V31.2H885.878ZM894.199 31.2V36.576H896.355C896.537 36.226 896.929 35.764 897.769 35.764C898.777 35.764 899.477 36.464 899.477 37.626C899.477 38.928 898.721 39.754 897.475 39.754C896.215 39.754 895.473 38.97 895.473 37.71V37.528H893.863V37.822C893.863 39.866 895.347 41.196 897.517 41.196C899.673 41.196 901.101 39.726 901.101 37.556C901.101 35.582 899.743 34.392 898.175 34.392C896.817 34.392 896.243 35.092 895.977 35.526H895.809V32.67H900.779V31.2H894.199Z" fill="white"/>
<rect width="128" height="80" transform="translate(864 50)" fill="#76623B"/>
<path d="M876.816 61.6V70H878.004V66.712H880.104C881.616 66.712 882.756 65.74 882.756 64.156C882.756 62.584 881.64 61.6 880.104 61.6H876.816ZM878.004 62.668H879.984C880.968 62.668 881.568 63.232 881.568 64.156C881.568 65.08 880.968 65.644 879.984 65.644H878.004V62.668ZM885.048 64.108H883.944V70H885.072V66.448C885.072 65.5 885.624 65.056 886.452 65.056H887.376V64.084H886.644C885.864 64.084 885.396 64.312 885.168 64.9H885.048V64.108ZM887.852 67.06C887.852 68.932 889.112 70.168 890.888 70.168C892.664 70.168 893.936 68.932 893.936 67.06C893.936 65.176 892.664 63.94 890.888 63.94C889.112 63.94 887.852 65.176 887.852 67.06ZM888.98 67.06C888.98 65.788 889.748 64.936 890.888 64.936C892.028 64.936 892.808 65.764 892.808 67.06C892.808 68.344 892.028 69.172 890.888 69.172C889.748 69.172 888.98 68.368 888.98 67.06ZM901.017 61.6H899.889V65.02H899.769C899.433 64.468 898.821 63.94 897.657 63.94C896.169 63.94 894.921 65.152 894.921 67.06C894.921 68.968 896.169 70.168 897.657 70.168C898.821 70.168 899.433 69.64 899.793 69.064H899.913V70H901.017V61.6ZM897.969 64.924C899.085 64.924 899.901 65.728 899.901 67.06C899.901 68.38 899.085 69.184 897.969 69.184C896.853 69.184 896.061 68.392 896.061 67.06C896.061 65.716 896.853 64.924 897.969 64.924ZM908.269 70V64.108H907.141V67.108C907.141 68.452 906.433 69.172 905.377 69.172C904.429 69.172 903.853 68.68 903.853 67.6V64.108H902.737V67.66C902.737 69.196 903.733 70.108 905.053 70.108C906.217 70.108 906.781 69.58 907.045 69.052H907.165V70H908.269ZM909.622 67.06C909.622 68.884 910.978 70.168 912.682 70.168C914.302 70.168 915.262 69.196 915.55 67.924L914.458 67.672C914.302 68.548 913.75 69.172 912.694 69.172C911.602 69.172 910.762 68.332 910.762 67.06C910.762 65.776 911.59 64.936 912.694 64.936C913.702 64.936 914.314 65.572 914.41 66.424L915.514 66.196C915.286 64.936 914.278 63.94 912.682 63.94C910.978 63.94 909.622 65.224 909.622 67.06ZM916.109 65.032H917.813V68.896C917.813 69.568 918.245 70 918.905 70H920.537V69.076H919.277C919.061 69.076 918.941 68.956 918.941 68.716V65.032H920.765V64.108H918.941V62.092H917.813V64.108H916.109V65.032ZM921.782 62.32C921.782 62.812 922.154 63.172 922.646 63.172C923.15 63.172 923.522 62.812 923.522 62.32C923.522 61.816 923.15 61.456 922.646 61.456C922.154 61.456 921.782 61.816 921.782 62.32ZM923.21 64.108H922.082V70H923.21V64.108ZM924.56 67.06C924.56 68.932 925.82 70.168 927.596 70.168C929.372 70.168 930.644 68.932 930.644 67.06C930.644 65.176 929.372 63.94 927.596 63.94C925.82 63.94 924.56 65.176 924.56 67.06ZM925.688 67.06C925.688 65.788 926.456 64.936 927.596 64.936C928.736 64.936 929.516 65.764 929.516 67.06C929.516 68.344 928.736 69.172 927.596 69.172C926.456 69.172 925.688 68.368 925.688 67.06ZM932.001 64.108V70H933.129V67C933.129 65.656 933.837 64.936 934.893 64.936C935.841 64.936 936.417 65.428 936.417 66.508V70H937.533V66.448C937.533 64.912 936.537 64 935.217 64C934.053 64 933.489 64.528 933.225 65.056H933.105V64.108H932.001ZM938.888 62.32C938.888 62.812 939.26 63.172 939.752 63.172C940.256 63.172 940.628 62.812 940.628 62.32C940.628 61.816 940.256 61.456 939.752 61.456C939.26 61.456 938.888 61.816 938.888 62.32ZM940.316 64.108H939.188V70H940.316V64.108ZM941.918 64.108V65.032H945.506L941.798 69.16V70H947.102V69.076H943.31L947.006 64.948V64.108H941.918ZM948.21 62.32C948.21 62.812 948.582 63.172 949.074 63.172C949.578 63.172 949.95 62.812 949.95 62.32C949.95 61.816 949.578 61.456 949.074 61.456C948.582 61.456 948.21 61.816 948.21 62.32ZM949.638 64.108H948.51V70H949.638V64.108ZM951.36 64.108V70H952.488V67C952.488 65.656 953.196 64.936 954.252 64.936C955.2 64.936 955.776 65.428 955.776 66.508V70H956.892V66.448C956.892 64.912 955.896 64 954.576 64C953.412 64 952.848 64.528 952.584 65.056H952.464V64.108H951.36ZM963.167 64.108V65.056H963.047C962.687 64.468 962.063 63.94 960.911 63.94C959.423 63.94 958.175 65.14 958.175 66.976C958.175 68.824 959.423 70.012 960.911 70.012C962.063 70.012 962.687 69.472 963.023 68.944H963.143V69.64C963.143 70.948 962.375 71.608 961.223 71.608C960.083 71.608 959.519 70.948 959.303 70.252L958.283 70.672C958.571 71.536 959.459 72.568 961.247 72.568C963.059 72.568 964.271 71.536 964.271 69.688V64.108H963.167ZM961.223 69.04C960.107 69.04 959.315 68.248 959.315 66.976C959.315 65.716 960.107 64.924 961.223 64.924C962.339 64.924 963.155 65.716 963.155 66.976C963.155 68.236 962.339 69.04 961.223 69.04ZM971.581 61.6L968.989 70H970.213L970.837 67.96H974.149L974.773 70H976.009L973.417 61.6H971.581ZM971.137 66.88L972.433 62.632H972.553L973.849 66.88H971.137ZM977.071 61.6V70H978.259V61.6H977.071ZM877.524 85.652C877.524 88.016 878.808 88.976 880.656 88.976V87.956C879.312 87.92 878.652 87.152 878.652 85.556V79.724C878.652 78.128 879.312 77.36 880.656 77.324V76.304C878.808 76.304 877.524 77.264 877.524 79.628V85.652ZM881.834 77.6V86H882.998V78.836H883.118L885.422 86H887.102L889.394 78.836H889.514V86H890.678V77.6H888.626L886.322 84.788H886.202L883.886 77.6H881.834ZM892.431 77.6V86H897.807V84.932H893.619V77.6H892.431ZM898.65 80.828V82.772C898.65 84.98 899.958 86.168 901.998 86.168C904.038 86.168 905.346 84.98 905.346 82.772V80.828C905.346 78.62 904.038 77.432 901.998 77.432C899.958 77.432 898.65 78.62 898.65 80.828ZM899.838 80.78C899.838 79.364 900.642 78.488 901.998 78.488C903.354 78.488 904.158 79.364 904.158 80.78V82.82C904.158 84.236 903.354 85.112 901.998 85.112C900.642 85.112 899.838 84.236 899.838 82.82V80.78ZM906.804 88.4H907.932V85.1H908.052C908.388 85.64 909 86.168 910.152 86.168C911.652 86.168 912.9 84.968 912.9 83.06C912.9 81.152 911.652 79.94 910.152 79.94C909 79.94 908.388 80.468 908.028 81.056H907.908V80.108H906.804V88.4ZM909.852 85.184C908.724 85.184 907.92 84.38 907.92 83.06C907.92 81.728 908.724 80.924 909.852 80.924C910.968 80.924 911.76 81.716 911.76 83.06C911.76 84.392 910.968 85.184 909.852 85.184ZM914.104 81.68C914.104 82.772 915.016 83.216 916.156 83.42L916.66 83.504C917.476 83.636 917.932 83.864 917.932 84.38C917.932 84.92 917.44 85.28 916.612 85.28C915.784 85.28 915.088 84.932 914.908 83.852L913.852 84.116C914.068 85.496 915.124 86.168 916.612 86.168C918.064 86.168 919.024 85.484 919.024 84.308C919.024 83.12 918.076 82.76 916.828 82.544L916.324 82.472C915.652 82.352 915.208 82.136 915.208 81.62C915.208 81.128 915.652 80.828 916.372 80.828C917.092 80.828 917.608 81.128 917.776 81.92L918.808 81.62C918.556 80.588 917.692 79.94 916.372 79.94C914.992 79.94 914.104 80.588 914.104 81.68ZM922.936 85.652V79.628C922.936 77.264 921.664 76.304 919.804 76.304V77.324C921.16 77.36 921.82 78.128 921.82 79.724V85.556C921.82 87.152 921.16 87.92 919.804 87.956V88.976C921.664 88.976 922.936 88.016 922.936 85.652Z" fill="white"/>
<path d="M0.882 4.2L0.881999 14L2.45 14L2.45 5.88L2.59 5.88L4.998 14L7.28 14L9.674 5.88L9.814 5.88L9.814 14L11.396 14L11.396 4.2L8.61 4.2L6.202 12.362L6.062 12.362L3.668 4.2L0.882 4.2ZM13.4393 8.89L14.8673 9.366C15.0073 8.652 15.4973 8.134 16.4633 8.134C17.4293 8.134 17.8913 8.68 17.8913 9.422L17.8913 9.842L15.8473 9.842C14.3073 9.842 13.2013 10.57 13.2013 11.998C13.2013 13.398 14.3073 14.196 15.7353 14.196C17.0513 14.196 17.5413 13.51 17.7373 13.132L17.9193 13.132L17.9193 14L19.3893 14L19.3893 9.534C19.3893 7.84 18.2693 6.888 16.4773 6.888C14.6993 6.888 13.7753 7.812 13.4393 8.89ZM14.7413 11.956C14.7413 11.382 15.2033 11.032 15.9453 11.032L17.8913 11.032L17.8913 11.158C17.8913 12.25 17.1213 12.936 16.0293 12.936C15.2033 12.936 14.7413 12.544 14.7413 11.956ZM21.3242 8.988C21.3242 10.304 22.4162 10.822 23.8162 11.074L24.2922 11.158C25.2022 11.326 25.6642 11.55 25.6642 12.082C25.6642 12.614 25.1742 13.006 24.2922 13.006C23.3962 13.006 22.6682 12.642 22.4722 11.508L21.0442 11.858C21.2822 13.398 22.5142 14.196 24.2922 14.196C26.0282 14.196 27.1482 13.384 27.1482 11.97C27.1482 10.556 26.0142 10.15 24.5022 9.87L24.0262 9.786C23.2702 9.646 22.8082 9.422 22.8082 8.89C22.8082 8.386 23.2562 8.078 24.0122 8.078C24.7682 8.078 25.3142 8.4 25.4822 9.24L26.8822 8.82C26.5742 7.658 25.5662 6.902 24.0122 6.902C22.3882 6.902 21.3242 7.658 21.3242 8.988ZM28.0725 8.344L29.9345 8.344L29.9345 12.572C29.9345 13.44 30.4945 14 31.3345 14L33.2805 14L33.2805 12.74L31.8665 12.74C31.6145 12.74 31.4745 12.6 31.4745 12.32L31.4745 8.344L33.4905 8.344L33.4905 7.098L31.4745 7.098L31.4745 4.844L29.9345 4.844L29.9345 7.098L28.0725 7.098L28.0725 8.344ZM34.6257 10.514C34.6257 12.684 36.0537 14.196 38.1537 14.196C40.0577 14.196 40.8697 13.104 41.2757 12.376L40.0017 11.69C39.7217 12.292 39.2317 12.866 38.1817 12.866C37.0757 12.866 36.2637 12.096 36.2077 11.032L41.4437 11.032L41.4437 10.402C41.4437 8.288 40.0997 6.888 38.0977 6.888C36.0677 6.888 34.6257 8.358 34.6257 10.514ZM36.2217 9.842C36.3477 8.876 37.0197 8.218 38.0837 8.218C39.1057 8.218 39.7917 8.848 39.8757 9.842L36.2217 9.842ZM44.6066 7.098L43.1086 7.098L43.1086 14L44.6346 14L44.6346 9.912C44.6346 8.862 45.2926 8.372 46.2166 8.372L47.2806 8.372L47.2806 7.07L46.4826 7.07C45.5866 7.07 45.0266 7.336 44.7466 8.05L44.6066 8.05L44.6066 7.098ZM53.1228 4.2L53.1228 14L54.6908 14L54.6908 5.88L54.8308 5.88L57.2388 14L59.5208 14L61.9148 5.88L62.0548 5.88L62.0548 14L63.6368 14L63.6368 4.2L60.8508 4.2L58.4428 12.362L58.3028 12.362L55.9088 4.2L53.1228 4.2ZM65.8201 4.2L65.8201 14L72.1481 14L72.1481 12.53L67.4441 12.53L67.4441 4.2L65.8201 4.2ZM82.1791 4.2L80.5691 4.2C78.9311 4.2 77.6851 5.124 77.6851 6.818C77.6851 7.994 78.3711 8.666 79.2811 8.932L79.2811 9.128C78.3711 9.408 77.6291 10.164 77.6291 11.368C77.6291 13.02 78.8191 14 80.5131 14L83.9291 14L83.9291 9.688L85.2451 9.688L85.2451 8.4L83.9291 8.4L83.9291 7.056L82.3891 7.056L82.3891 8.4L80.8351 8.4C79.9671 8.4 79.2391 7.966 79.2391 6.944C79.2391 5.964 79.9251 5.488 80.8351 5.488L82.1791 5.488L82.1791 4.2ZM80.7791 9.688L82.3891 9.688L82.3891 12.712L80.7791 12.712C79.9111 12.712 79.1691 12.236 79.1691 11.2C79.1691 10.192 79.8691 9.688 80.7791 9.688ZM93.2521 4.2L90.3681 14L92.0341 14L92.6921 11.718L96.3321 11.718L96.9901 14L98.6421 14L95.7581 4.2L93.2521 4.2ZM93.0841 10.248L94.4421 5.558L94.5821 5.558L95.9261 10.248L93.0841 10.248ZM100.022 4.2L100.022 14L101.646 14L101.646 4.20001L100.022 4.2Z" fill="#434343"/>
<path d="M1008 130L1024 130L1024 26L1008 26" stroke="#787878"/>
<path d="M1038.76 81.1183C1040.94 81.1183 1042.17 79.7983 1042.17 77.7103C1042.17 75.6463 1040.98 74.4463 1039.16 74.4463L1038.87 74.4463L1038.87 75.8263L1039.18 75.8263C1040.16 75.8263 1040.93 76.4503 1040.93 77.7103C1040.93 78.9583 1040.12 79.7263 1038.78 79.7263L1036.82 79.7263C1035.48 79.7263 1034.67 78.9703 1034.67 77.7103C1034.67 76.4743 1035.45 75.8263 1036.43 75.8263L1036.66 75.8263L1036.66 74.4463L1036.46 74.4463C1034.62 74.4463 1033.43 75.6223 1033.43 77.7103C1033.43 79.7983 1034.66 81.1183 1036.84 81.1183L1038.76 81.1183ZM1039.04 73.3303C1040.96 73.3303 1042.17 72.0223 1042.17 70.2463C1042.17 68.4703 1040.96 67.1743 1039.04 67.1743C1037.13 67.1743 1035.92 68.4703 1035.92 70.2463C1035.92 72.0223 1037.13 73.3303 1039.04 73.3303ZM1039.04 72.0103C1037.82 72.0103 1037.07 71.2903 1037.07 70.2463C1037.07 69.2143 1037.81 68.4943 1039.04 68.4943C1040.26 68.4943 1041.02 69.2143 1041.02 70.2463C1041.02 71.2903 1040.27 72.0103 1039.04 72.0103ZM1042 60.056L1036.08 60.056L1036.08 61.364L1039.12 61.364C1040.33 61.364 1041.02 62 1041.02 62.984C1041.02 63.86 1040.55 64.376 1039.56 64.376L1036.08 64.376L1036.08 65.696L1039.64 65.696C1041.14 65.696 1042.1 64.736 1042.1 63.38C1042.1 62.252 1041.6 61.724 1041.08 61.46L1041.08 61.34L1042 61.34L1042 60.056ZM1036.08 56.927L1036.08 58.211L1042 58.211L1042 56.903L1038.5 56.903C1037.6 56.903 1037.18 56.339 1037.18 55.547L1037.18 54.635L1036.06 54.635L1036.06 55.319C1036.06 56.087 1036.29 56.567 1036.9 56.807L1036.9 56.927L1036.08 56.927ZM1037.7 53.6231C1038.83 53.6231 1039.28 52.6871 1039.49 51.4871L1039.56 51.0791C1039.71 50.2991 1039.9 49.9031 1040.36 49.9031C1040.81 49.9031 1041.15 50.3231 1041.15 51.0791C1041.15 51.8471 1040.84 52.4711 1039.86 52.6391L1040.16 53.8631C1041.48 53.6591 1042.17 52.6031 1042.17 51.0791C1042.17 49.5911 1041.47 48.6311 1040.26 48.6311C1039.05 48.6311 1038.7 49.6031 1038.46 50.8991L1038.39 51.3071C1038.27 51.9551 1038.08 52.3511 1037.62 52.3511C1037.19 52.3511 1036.92 51.9671 1036.92 51.3191C1036.92 50.6711 1037.2 50.2031 1037.92 50.0591L1037.56 48.8591C1036.56 49.1231 1035.92 49.9871 1035.92 51.3191C1035.92 52.7111 1036.56 53.6231 1037.7 53.6231ZM1039.01 47.5153C1040.87 47.5153 1042.17 46.2913 1042.17 44.4913C1042.17 42.8593 1041.23 42.1633 1040.61 41.8153L1040.02 42.9073C1040.54 43.1473 1041.03 43.5673 1041.03 44.4673C1041.03 45.4153 1040.37 46.1113 1039.46 46.1593L1039.46 41.6713L1038.92 41.6713C1037.1 41.6713 1035.9 42.8233 1035.9 44.5393C1035.9 46.2793 1037.16 47.5153 1039.01 47.5153ZM1038.44 46.1473C1037.61 46.0393 1037.04 45.4633 1037.04 44.5513C1037.04 43.6753 1037.58 43.0873 1038.44 43.0153L1038.44 46.1473ZM1037.7 40.3757C1038.83 40.3757 1039.28 39.4397 1039.49 38.2397L1039.56 37.8317C1039.71 37.0517 1039.9 36.6557 1040.36 36.6557C1040.81 36.6557 1041.15 37.0757 1041.15 37.8317C1041.15 38.5997 1040.84 39.2237 1039.86 39.3917L1040.16 40.6157C1041.48 40.4117 1042.17 39.3557 1042.17 37.8317C1042.17 36.3437 1041.47 35.3837 1040.26 35.3837C1039.05 35.3837 1038.7 36.3557 1038.46 37.6517L1038.39 38.0597C1038.27 38.7077 1038.08 39.1037 1037.62 39.1037C1037.19 39.1037 1036.92 38.7197 1036.92 38.0717C1036.92 37.4237 1037.2 36.9557 1037.92 36.8117L1037.56 35.6117C1036.56 35.8757 1035.92 36.7397 1035.92 38.0717C1035.92 39.4637 1036.56 40.3757 1037.7 40.3757Z" fill="#787878"/>
</svg>
