<svg width="360" height="430" viewBox="0 0 360 430" fill="none" xmlns="http://www.w3.org/2000/svg">
<g clip-path="url(#clip0_5460_5154)">
<rect width="360" height="430" fill="white"/>
<rect width="79" height="35" transform="translate(95 78) rotate(180)" fill="#1F5F57"/>
<path d="M38.382 55.2L38.382 65H40.006L40.006 61.29H42.316C44.094 61.29 45.438 60.1 45.438 58.252C45.438 56.39 44.136 55.2 42.316 55.2H38.382ZM40.006 56.67H42.148C43.17 56.67 43.814 57.272 43.814 58.252C43.814 59.218 43.17 59.82 42.148 59.82H40.006V56.67ZM46.2361 55.2L49.7081 61.444V65H51.3321V61.444L54.7901 55.2H52.9701L50.5901 59.68H50.4501L48.0701 55.2H46.2361ZM56.2637 55.2V65H59.4837C62.1017 65 63.5157 63.67 63.5157 61.01V59.19C63.5157 56.53 62.1017 55.2 59.4837 55.2H56.2637ZM57.8877 56.67H59.4977C61.1217 56.67 61.9057 57.51 61.9057 59.134V61.066C61.9057 62.69 61.1357 63.53 59.4977 63.53H57.8877V56.67ZM68.7117 55.004C66.6537 55.004 65.3097 56.054 65.3097 57.804C65.3097 59.54 66.4577 60.226 68.4037 60.66L68.8657 60.758C70.1397 61.052 70.8677 61.374 70.8677 62.27C70.8677 63.152 70.1537 63.768 68.8097 63.768C67.4517 63.768 66.5977 63.124 66.5977 61.78V61.654H65.0017V61.78C65.0017 63.978 66.5837 65.196 68.8097 65.196C71.0357 65.196 72.4637 63.992 72.4637 62.228C72.4637 60.464 71.1477 59.75 69.1877 59.33L68.7257 59.218C67.4937 58.938 66.9057 58.588 66.9057 57.748C66.9057 56.922 67.5357 56.432 68.7117 56.432C69.9157 56.432 70.6997 56.922 70.6997 58.14V58.448H72.2957V58.14C72.2957 56.054 70.7697 55.004 68.7117 55.004Z" fill="white"/>
<rect width="249" height="35" transform="translate(95 43)" fill="#B49848"/>
<path d="M103.816 54.6V63H105.004V59.712H107.104C108.616 59.712 109.756 58.74 109.756 57.156C109.756 55.584 108.64 54.6 107.104 54.6H103.816ZM105.004 55.668H106.984C107.968 55.668 108.568 56.232 108.568 57.156C108.568 58.08 107.968 58.644 106.984 58.644H105.004V55.668ZM115.312 57.108L113.488 61.716H113.368L111.544 57.108H110.32L112.828 63.228L111.892 65.4H113.116L116.536 57.108H115.312ZM116.93 58.032H118.634V61.896C118.634 62.568 119.066 63 119.726 63H121.358V62.076H120.098C119.882 62.076 119.762 61.956 119.762 61.716V58.032H121.586V57.108H119.762V55.092H118.634V57.108H116.93V58.032ZM122.902 54.6V63H124.03V60C124.03 58.656 124.738 57.936 125.794 57.936C126.742 57.936 127.318 58.428 127.318 59.508V63H128.434V59.448C128.434 57.912 127.438 57 126.118 57C124.954 57 124.414 57.516 124.15 58.008H124.03V54.6H122.902ZM129.717 60.06C129.717 61.932 130.977 63.168 132.753 63.168C134.529 63.168 135.801 61.932 135.801 60.06C135.801 58.176 134.529 56.94 132.753 56.94C130.977 56.94 129.717 58.176 129.717 60.06ZM130.845 60.06C130.845 58.788 131.613 57.936 132.753 57.936C133.893 57.936 134.673 58.764 134.673 60.06C134.673 61.344 133.893 62.172 132.753 62.172C131.613 62.172 130.845 61.368 130.845 60.06ZM137.158 57.108V63H138.286V60C138.286 58.656 138.994 57.936 140.05 57.936C140.998 57.936 141.574 58.428 141.574 59.508V63H142.69V59.448C142.69 57.912 141.694 57 140.374 57C139.21 57 138.646 57.528 138.382 58.056H138.262V57.108H137.158ZM147.439 57.108V58.032H149.155V63H150.283V58.032H152.035V57.108H150.283V55.884C150.283 55.644 150.403 55.524 150.619 55.524H151.795V54.6H150.247C149.587 54.6 149.155 55.02 149.155 55.704V57.108H147.439ZM152.814 60.06C152.814 61.932 154.074 63.168 155.85 63.168C157.626 63.168 158.898 61.932 158.898 60.06C158.898 58.176 157.626 56.94 155.85 56.94C154.074 56.94 152.814 58.176 152.814 60.06ZM153.942 60.06C153.942 58.788 154.71 57.936 155.85 57.936C156.99 57.936 157.77 58.764 157.77 60.06C157.77 61.344 156.99 62.172 155.85 62.172C154.71 62.172 153.942 61.368 153.942 60.06ZM161.359 57.108H160.255V63H161.383V59.448C161.383 58.5 161.935 58.056 162.763 58.056H163.687V57.084H162.955C162.175 57.084 161.707 57.312 161.479 57.9H161.359V57.108ZM168.476 54.6V63H171.116C173.336 63 174.584 61.884 174.584 59.58V58.02C174.584 55.716 173.336 54.6 171.116 54.6H168.476ZM169.664 55.668H171.128C172.628 55.668 173.396 56.424 173.396 57.984V59.616C173.396 61.164 172.652 61.932 171.128 61.932H169.664V55.668ZM175.893 58.692L176.949 59.028C177.093 58.356 177.573 57.864 178.461 57.864C179.361 57.864 179.805 58.368 179.805 59.1V59.484H177.933C176.649 59.484 175.701 60.096 175.701 61.308C175.701 62.496 176.649 63.168 177.873 63.168C179.013 63.168 179.469 62.604 179.685 62.208H179.829V63H180.909V59.172C180.909 57.756 179.985 56.94 178.473 56.94C176.973 56.94 176.181 57.732 175.893 58.692ZM176.829 61.284C176.829 60.708 177.297 60.396 177.993 60.396H179.805V60.516C179.805 61.584 179.097 62.244 178.065 62.244C177.297 62.244 176.829 61.86 176.829 61.284ZM181.742 58.032H183.446V61.896C183.446 62.568 183.878 63 184.538 63H186.17V62.076H184.91C184.694 62.076 184.574 61.956 184.574 61.716V58.032H186.398V57.108H184.574V55.092H183.446V57.108H181.742V58.032ZM187.57 58.692L188.626 59.028C188.77 58.356 189.25 57.864 190.138 57.864C191.038 57.864 191.482 58.368 191.482 59.1V59.484H189.61C188.326 59.484 187.378 60.096 187.378 61.308C187.378 62.496 188.326 63.168 189.55 63.168C190.69 63.168 191.146 62.604 191.362 62.208H191.506V63H192.586V59.172C192.586 57.756 191.662 56.94 190.15 56.94C188.65 56.94 187.858 57.732 187.57 58.692ZM188.506 61.284C188.506 60.708 188.974 60.396 189.67 60.396H191.482V60.516C191.482 61.584 190.774 62.244 189.742 62.244C188.974 62.244 188.506 61.86 188.506 61.284ZM200.687 54.432C198.959 54.432 197.795 55.32 197.795 56.772C197.795 58.224 198.779 58.812 200.351 59.172L200.867 59.292C201.971 59.544 202.655 59.844 202.655 60.696C202.655 61.536 201.971 62.124 200.747 62.124C199.511 62.124 198.695 61.512 198.695 60.216V60.108H197.519V60.216C197.519 62.148 198.863 63.168 200.747 63.168C202.619 63.168 203.819 62.16 203.819 60.672C203.819 59.172 202.715 58.596 201.143 58.236L200.627 58.116C199.535 57.864 198.971 57.564 198.971 56.748C198.971 55.932 199.619 55.476 200.687 55.476C201.779 55.476 202.547 55.932 202.547 57.072V57.396H203.723V57.072C203.723 55.32 202.415 54.432 200.687 54.432ZM204.835 60.06C204.835 61.884 206.191 63.168 207.895 63.168C209.515 63.168 210.475 62.196 210.763 60.924L209.671 60.672C209.515 61.548 208.963 62.172 207.907 62.172C206.815 62.172 205.975 61.332 205.975 60.06C205.975 58.776 206.803 57.936 207.907 57.936C208.915 57.936 209.527 58.572 209.623 59.424L210.727 59.196C210.499 57.936 209.491 56.94 207.895 56.94C206.191 56.94 204.835 58.224 204.835 60.06ZM211.789 55.32C211.789 55.812 212.161 56.172 212.653 56.172C213.157 56.172 213.529 55.812 213.529 55.32C213.529 54.816 213.157 54.456 212.653 54.456C212.161 54.456 211.789 54.816 211.789 55.32ZM213.217 57.108H212.089V63H213.217V57.108ZM214.567 60.012C214.567 61.824 215.779 63.168 217.603 63.168C219.223 63.168 219.907 62.232 220.267 61.62L219.331 61.092C219.043 61.668 218.563 62.184 217.603 62.184C216.535 62.184 215.791 61.464 215.719 60.444H220.363V59.892C220.363 58.08 219.199 56.94 217.519 56.94C215.803 56.94 214.567 58.212 214.567 60.012ZM215.731 59.532C215.851 58.548 216.499 57.924 217.519 57.924C218.491 57.924 219.151 58.512 219.211 59.532H215.731ZM221.669 57.108V63H222.797V60C222.797 58.656 223.505 57.936 224.561 57.936C225.509 57.936 226.085 58.428 226.085 59.508V63H227.201V59.448C227.201 57.912 226.205 57 224.885 57C223.721 57 223.157 57.528 222.893 58.056H222.773V57.108H221.669ZM228.483 60.06C228.483 61.884 229.839 63.168 231.543 63.168C233.163 63.168 234.123 62.196 234.411 60.924L233.319 60.672C233.163 61.548 232.611 62.172 231.555 62.172C230.463 62.172 229.623 61.332 229.623 60.06C229.623 58.776 230.451 57.936 231.555 57.936C232.563 57.936 233.175 58.572 233.271 59.424L234.375 59.196C234.147 57.936 233.139 56.94 231.543 56.94C229.839 56.94 228.483 58.224 228.483 60.06ZM235.365 60.012C235.365 61.824 236.577 63.168 238.401 63.168C240.021 63.168 240.705 62.232 241.065 61.62L240.129 61.092C239.841 61.668 239.361 62.184 238.401 62.184C237.333 62.184 236.589 61.464 236.517 60.444H241.161V59.892C241.161 58.08 239.997 56.94 238.317 56.94C236.601 56.94 235.365 58.212 235.365 60.012ZM236.529 59.532C236.649 58.548 237.297 57.924 238.317 57.924C239.289 57.924 239.949 58.512 240.009 59.532H236.529ZM246.857 62.652C246.857 65.016 248.141 65.976 249.989 65.976V64.956C248.645 64.92 247.985 64.152 247.985 62.556V56.724C247.985 55.128 248.645 54.36 249.989 54.324V53.304C248.141 53.304 246.857 54.264 246.857 56.628V62.652ZM250.88 57.828V59.772C250.88 61.98 252.188 63.168 254.228 63.168C256.268 63.168 257.576 61.98 257.576 59.772V57.828C257.576 55.62 256.268 54.432 254.228 54.432C252.188 54.432 250.88 55.62 250.88 57.828ZM252.068 57.78C252.068 56.364 252.872 55.488 254.228 55.488C255.584 55.488 256.388 56.364 256.388 57.78V59.82C256.388 61.236 255.584 62.112 254.228 62.112C252.872 62.112 252.068 61.236 252.068 59.82V57.78ZM259.033 65.4H260.161V62.1H260.281C260.617 62.64 261.229 63.168 262.381 63.168C263.881 63.168 265.129 61.968 265.129 60.06C265.129 58.152 263.881 56.94 262.381 56.94C261.229 56.94 260.617 57.468 260.257 58.056H260.137V57.108H259.033V65.4ZM262.081 62.184C260.953 62.184 260.149 61.38 260.149 60.06C260.149 58.728 260.953 57.924 262.081 57.924C263.197 57.924 263.989 58.716 263.989 60.06C263.989 61.392 263.197 62.184 262.081 62.184ZM265.723 58.032H267.427V61.896C267.427 62.568 267.859 63 268.519 63H270.151V62.076H268.891C268.675 62.076 268.555 61.956 268.555 61.716V58.032H270.379V57.108H268.555V55.092H267.427V57.108H265.723V58.032ZM271.395 55.32C271.395 55.812 271.767 56.172 272.259 56.172C272.763 56.172 273.135 55.812 273.135 55.32C273.135 54.816 272.763 54.456 272.259 54.456C271.767 54.456 271.395 54.816 271.395 55.32ZM272.823 57.108H271.695V63H272.823V57.108ZM274.174 60.06C274.174 61.932 275.434 63.168 277.21 63.168C278.986 63.168 280.258 61.932 280.258 60.06C280.258 58.176 278.986 56.94 277.21 56.94C275.434 56.94 274.174 58.176 274.174 60.06ZM275.302 60.06C275.302 58.788 276.07 57.936 277.21 57.936C278.35 57.936 279.13 58.764 279.13 60.06C279.13 61.344 278.35 62.172 277.21 62.172C276.07 62.172 275.302 61.368 275.302 60.06ZM281.615 57.108V63H282.743V60C282.743 58.656 283.451 57.936 284.507 57.936C285.455 57.936 286.031 58.428 286.031 59.508V63H287.147V59.448C287.147 57.912 286.151 57 284.831 57C283.667 57 283.103 57.528 282.839 58.056H282.719V57.108H281.615ZM288.657 58.692L289.713 59.028C289.857 58.356 290.337 57.864 291.225 57.864C292.125 57.864 292.569 58.368 292.569 59.1V59.484H290.697C289.413 59.484 288.465 60.096 288.465 61.308C288.465 62.496 289.413 63.168 290.637 63.168C291.777 63.168 292.233 62.604 292.449 62.208H292.593V63H293.673V59.172C293.673 57.756 292.749 56.94 291.237 56.94C289.737 56.94 288.945 57.732 288.657 58.692ZM289.593 61.284C289.593 60.708 290.061 60.396 290.757 60.396H292.569V60.516C292.569 61.584 291.861 62.244 290.829 62.244C290.061 62.244 289.593 61.86 289.593 61.284ZM296.459 54.6H295.331V63H296.459V54.6ZM300.75 62.652V56.628C300.75 54.264 299.478 53.304 297.618 53.304V54.324C298.974 54.36 299.634 55.128 299.634 56.724V62.556C299.634 64.152 298.974 64.92 297.618 64.956V65.976C299.478 65.976 300.75 65.016 300.75 62.652Z" fill="white"/>
<rect width="79.4847" height="35" transform="translate(95.4849 129) rotate(180)" fill="#DCE0FA"/>
<path d="M46.7107 106.2L43.8267 116L45.4927 116L46.1507 113.718L49.7907 113.718L50.4487 116L52.1007 116L49.2167 106.2L46.7107 106.2ZM46.5427 112.248L47.9007 107.558L48.0407 107.558L49.3847 112.248L46.5427 112.248ZM53.6202 106.2L53.6202 116L55.2442 116L55.2442 106.2L53.6202 106.2ZM63.8317 106.2L61.2417 110.568L62.9637 110.568L64.5177 107.922L64.6857 107.922L64.6857 116L66.3097 116L66.3097 106.2L63.8317 106.2Z" fill="#1E2029"/>
<rect width="248.515" height="35" transform="translate(95.4849 94)" fill="#E3C668"/>
<path d="M106.029 105.6L103.557 114H104.985L105.549 112.044H108.669L109.233 114H110.649L108.177 105.6H106.029ZM105.885 110.784L107.049 106.764H107.169L108.321 110.784H105.885ZM111.591 105.6V114H112.983V105.6H111.591ZM118.136 105.6V114H121.856C123.296 114 124.34 113.148 124.34 111.732C124.34 110.508 123.524 109.992 122.912 109.824V109.704C123.524 109.524 124.304 109.032 124.304 107.82C124.304 106.452 123.284 105.6 121.832 105.6H118.136ZM119.528 106.86H121.688C122.456 106.86 122.972 107.304 122.972 108C122.972 108.696 122.468 109.152 121.688 109.152H119.528V106.86ZM119.528 110.4H121.688C122.516 110.4 123.008 110.844 123.008 111.576C123.008 112.284 122.516 112.74 121.712 112.74H119.528V110.4ZM125.531 109.62L126.755 110.028C126.875 109.416 127.295 108.972 128.123 108.972C128.951 108.972 129.347 109.44 129.347 110.076V110.436H127.595C126.275 110.436 125.327 111.06 125.327 112.284C125.327 113.484 126.275 114.168 127.499 114.168C128.627 114.168 129.047 113.58 129.215 113.256H129.371V114H130.631V110.172C130.631 108.72 129.671 107.904 128.135 107.904C126.611 107.904 125.819 108.696 125.531 109.62ZM126.647 112.248C126.647 111.756 127.043 111.456 127.679 111.456H129.347V111.564C129.347 112.5 128.687 113.088 127.751 113.088C127.043 113.088 126.647 112.752 126.647 112.248ZM132.049 109.704C132.049 110.832 132.985 111.276 134.185 111.492L134.593 111.564C135.373 111.708 135.769 111.9 135.769 112.356C135.769 112.812 135.349 113.148 134.593 113.148C133.825 113.148 133.201 112.836 133.033 111.864L131.809 112.164C132.013 113.484 133.069 114.168 134.593 114.168C136.081 114.168 137.041 113.472 137.041 112.26C137.041 111.048 136.069 110.7 134.773 110.46L134.365 110.388C133.717 110.268 133.321 110.076 133.321 109.62C133.321 109.188 133.705 108.924 134.353 108.924C135.001 108.924 135.469 109.2 135.613 109.92L136.813 109.56C136.549 108.564 135.685 107.916 134.353 107.916C132.961 107.916 132.049 108.564 132.049 109.704ZM137.965 106.32C137.965 106.872 138.385 107.256 138.937 107.256C139.489 107.256 139.909 106.872 139.909 106.32C139.909 105.756 139.489 105.372 138.937 105.372C138.385 105.372 137.965 105.756 137.965 106.32ZM139.597 108.084H138.289V114H139.597V108.084ZM140.837 111.036C140.837 112.872 142.193 114.168 143.921 114.168C145.553 114.168 146.525 113.196 146.837 111.9L145.553 111.6C145.421 112.428 144.917 113.016 143.933 113.016C142.925 113.016 142.157 112.26 142.157 111.036C142.157 109.824 142.925 109.068 143.933 109.068C144.893 109.068 145.421 109.668 145.517 110.46L146.789 110.196C146.549 108.888 145.541 107.916 143.909 107.916C142.193 107.916 140.837 109.2 140.837 111.036ZM147.889 109.704C147.889 110.832 148.825 111.276 150.025 111.492L150.433 111.564C151.213 111.708 151.609 111.9 151.609 112.356C151.609 112.812 151.189 113.148 150.433 113.148C149.665 113.148 149.041 112.836 148.873 111.864L147.649 112.164C147.853 113.484 148.909 114.168 150.433 114.168C151.921 114.168 152.881 113.472 152.881 112.26C152.881 111.048 151.909 110.7 150.613 110.46L150.205 110.388C149.557 110.268 149.161 110.076 149.161 109.62C149.161 109.188 149.545 108.924 150.193 108.924C150.841 108.924 151.309 109.2 151.453 109.92L152.653 109.56C152.389 108.564 151.525 107.916 150.193 107.916C148.801 107.916 147.889 108.564 147.889 109.704Z" fill="#1E2029"/>
<rect width="79" height="35" transform="translate(95 170) rotate(180)" fill="#DCE0FA"/>
<path d="M41.882 147.2L41.882 157H45.102C47.72 157 49.134 155.67 49.134 153.01V151.19C49.134 148.53 47.72 147.2 45.102 147.2H41.882ZM43.506 148.67H45.116C46.74 148.67 47.524 149.51 47.524 151.134V153.066C47.524 154.69 46.754 155.53 45.116 155.53H43.506V148.67ZM54.33 147.004C52.272 147.004 50.928 148.054 50.928 149.804C50.928 151.54 52.076 152.226 54.022 152.66L54.484 152.758C55.758 153.052 56.486 153.374 56.486 154.27C56.486 155.152 55.772 155.768 54.428 155.768C53.07 155.768 52.216 155.124 52.216 153.78V153.654H50.62V153.78C50.62 155.978 52.202 157.196 54.428 157.196C56.654 157.196 58.082 155.992 58.082 154.228C58.082 152.464 56.766 151.75 54.806 151.33L54.344 151.218C53.112 150.938 52.524 150.588 52.524 149.748C52.524 148.922 53.154 148.432 54.33 148.432C55.534 148.432 56.318 148.922 56.318 150.14V150.448H57.914V150.14C57.914 148.054 56.388 147.004 54.33 147.004ZM66.216 147.2L63.626 151.568H65.348L66.902 148.922H67.07V157H68.694V147.2H66.216Z" fill="#1E2029"/>
<rect width="249" height="35" transform="translate(95 135)" fill="#E3C668"/>
<path d="M103.816 146.6V155H106.456C108.676 155 109.924 153.884 109.924 151.58V150.02C109.924 147.716 108.676 146.6 106.456 146.6H103.816ZM105.004 147.668H106.468C107.968 147.668 108.736 148.424 108.736 149.984V151.616C108.736 153.164 107.992 153.932 106.468 153.932H105.004V147.668ZM111.233 150.692L112.289 151.028C112.433 150.356 112.913 149.864 113.801 149.864C114.701 149.864 115.145 150.368 115.145 151.1V151.484H113.273C111.989 151.484 111.041 152.096 111.041 153.308C111.041 154.496 111.989 155.168 113.213 155.168C114.353 155.168 114.809 154.604 115.025 154.208H115.169V155H116.249V151.172C116.249 149.756 115.325 148.94 113.813 148.94C112.313 148.94 111.521 149.732 111.233 150.692ZM112.169 153.284C112.169 152.708 112.637 152.396 113.333 152.396H115.145V152.516C115.145 153.584 114.437 154.244 113.405 154.244C112.637 154.244 112.169 153.86 112.169 153.284ZM117.082 150.032H118.786V153.896C118.786 154.568 119.218 155 119.878 155H121.51V154.076H120.25C120.034 154.076 119.914 153.956 119.914 153.716V150.032H121.738V149.108H119.914V147.092H118.786V149.108H117.082V150.032ZM122.911 150.692L123.967 151.028C124.111 150.356 124.591 149.864 125.479 149.864C126.379 149.864 126.823 150.368 126.823 151.1V151.484H124.951C123.667 151.484 122.719 152.096 122.719 153.308C122.719 154.496 123.667 155.168 124.891 155.168C126.031 155.168 126.487 154.604 126.703 154.208H126.847V155H127.927V151.172C127.927 149.756 127.003 148.94 125.491 148.94C123.991 148.94 123.199 149.732 122.911 150.692ZM123.847 153.284C123.847 152.708 124.315 152.396 125.011 152.396H126.823V152.516C126.823 153.584 126.115 154.244 125.083 154.244C124.315 154.244 123.847 153.86 123.847 153.284ZM136.028 146.432C134.3 146.432 133.136 147.32 133.136 148.772C133.136 150.224 134.12 150.812 135.692 151.172L136.208 151.292C137.312 151.544 137.996 151.844 137.996 152.696C137.996 153.536 137.312 154.124 136.088 154.124C134.852 154.124 134.036 153.512 134.036 152.216V152.108H132.86V152.216C132.86 154.148 134.204 155.168 136.088 155.168C137.96 155.168 139.16 154.16 139.16 152.672C139.16 151.172 138.056 150.596 136.484 150.236L135.968 150.116C134.876 149.864 134.312 149.564 134.312 148.748C134.312 147.932 134.96 147.476 136.028 147.476C137.12 147.476 137.888 147.932 137.888 149.072V149.396H139.064V149.072C139.064 147.32 137.756 146.432 136.028 146.432ZM140.175 152.06C140.175 153.884 141.531 155.168 143.235 155.168C144.855 155.168 145.815 154.196 146.103 152.924L145.011 152.672C144.855 153.548 144.303 154.172 143.247 154.172C142.155 154.172 141.315 153.332 141.315 152.06C141.315 150.776 142.143 149.936 143.247 149.936C144.255 149.936 144.867 150.572 144.963 151.424L146.067 151.196C145.839 149.936 144.831 148.94 143.235 148.94C141.531 148.94 140.175 150.224 140.175 152.06ZM147.129 147.32C147.129 147.812 147.501 148.172 147.993 148.172C148.497 148.172 148.869 147.812 148.869 147.32C148.869 146.816 148.497 146.456 147.993 146.456C147.501 146.456 147.129 146.816 147.129 147.32ZM148.557 149.108H147.429V155H148.557V149.108ZM149.908 152.012C149.908 153.824 151.12 155.168 152.944 155.168C154.564 155.168 155.248 154.232 155.608 153.62L154.672 153.092C154.384 153.668 153.904 154.184 152.944 154.184C151.876 154.184 151.132 153.464 151.06 152.444H155.704V151.892C155.704 150.08 154.54 148.94 152.86 148.94C151.144 148.94 149.908 150.212 149.908 152.012ZM151.072 151.532C151.192 150.548 151.84 149.924 152.86 149.924C153.832 149.924 154.492 150.512 154.552 151.532H151.072ZM157.009 149.108V155H158.137V152C158.137 150.656 158.845 149.936 159.901 149.936C160.849 149.936 161.425 150.428 161.425 151.508V155H162.541V151.448C162.541 149.912 161.545 149 160.225 149C159.061 149 158.497 149.528 158.233 150.056H158.113V149.108H157.009ZM163.823 152.06C163.823 153.884 165.179 155.168 166.883 155.168C168.503 155.168 169.463 154.196 169.751 152.924L168.659 152.672C168.503 153.548 167.951 154.172 166.895 154.172C165.803 154.172 164.963 153.332 164.963 152.06C164.963 150.776 165.791 149.936 166.895 149.936C167.903 149.936 168.515 150.572 168.611 151.424L169.715 151.196C169.487 149.936 168.479 148.94 166.883 148.94C165.179 148.94 163.823 150.224 163.823 152.06ZM170.705 152.012C170.705 153.824 171.917 155.168 173.741 155.168C175.361 155.168 176.045 154.232 176.405 153.62L175.469 153.092C175.181 153.668 174.701 154.184 173.741 154.184C172.673 154.184 171.929 153.464 171.857 152.444H176.501V151.892C176.501 150.08 175.337 148.94 173.657 148.94C171.941 148.94 170.705 150.212 170.705 152.012ZM171.869 151.532C171.989 150.548 172.637 149.924 173.657 149.924C174.629 149.924 175.289 150.512 175.349 151.532H171.869ZM181.489 146.6V155H185.089C186.529 155 187.585 154.16 187.585 152.744C187.585 151.532 186.769 151.004 186.145 150.824V150.704C186.769 150.524 187.549 150.008 187.549 148.808C187.549 147.452 186.517 146.6 185.077 146.6H181.489ZM182.677 147.668H184.957C185.833 147.668 186.409 148.184 186.409 148.94C186.409 149.72 185.857 150.236 184.969 150.236H182.677V147.668ZM182.677 151.316H184.957C185.893 151.316 186.433 151.808 186.433 152.612C186.433 153.392 185.893 153.932 184.981 153.932H182.677V151.316ZM188.86 150.692L189.916 151.028C190.06 150.356 190.54 149.864 191.428 149.864C192.328 149.864 192.772 150.368 192.772 151.1V151.484H190.9C189.616 151.484 188.668 152.096 188.668 153.308C188.668 154.496 189.616 155.168 190.84 155.168C191.98 155.168 192.436 154.604 192.652 154.208H192.796V155H193.876V151.172C193.876 149.756 192.952 148.94 191.44 148.94C189.94 148.94 189.148 149.732 188.86 150.692ZM189.796 153.284C189.796 152.708 190.264 152.396 190.96 152.396H192.772V152.516C192.772 153.584 192.064 154.244 191.032 154.244C190.264 154.244 189.796 153.86 189.796 153.284ZM195.414 150.68C195.414 151.772 196.326 152.216 197.466 152.42L197.97 152.504C198.786 152.636 199.242 152.864 199.242 153.38C199.242 153.92 198.75 154.28 197.922 154.28C197.094 154.28 196.398 153.932 196.218 152.852L195.162 153.116C195.378 154.496 196.434 155.168 197.922 155.168C199.374 155.168 200.334 154.484 200.334 153.308C200.334 152.12 199.386 151.76 198.138 151.544L197.634 151.472C196.962 151.352 196.518 151.136 196.518 150.62C196.518 150.128 196.962 149.828 197.682 149.828C198.402 149.828 198.918 150.128 199.086 150.92L200.118 150.62C199.866 149.588 199.002 148.94 197.682 148.94C196.302 148.94 195.414 149.588 195.414 150.68ZM201.377 147.32C201.377 147.812 201.749 148.172 202.241 148.172C202.745 148.172 203.117 147.812 203.117 147.32C203.117 146.816 202.745 146.456 202.241 146.456C201.749 146.456 201.377 146.816 201.377 147.32ZM202.805 149.108H201.677V155H202.805V149.108ZM204.156 152.06C204.156 153.884 205.512 155.168 207.216 155.168C208.836 155.168 209.796 154.196 210.084 152.924L208.992 152.672C208.836 153.548 208.284 154.172 207.228 154.172C206.136 154.172 205.296 153.332 205.296 152.06C205.296 150.776 206.124 149.936 207.228 149.936C208.236 149.936 208.848 150.572 208.944 151.424L210.048 151.196C209.82 149.936 208.812 148.94 207.216 148.94C205.512 148.94 204.156 150.224 204.156 152.06ZM211.254 150.68C211.254 151.772 212.166 152.216 213.306 152.42L213.81 152.504C214.626 152.636 215.082 152.864 215.082 153.38C215.082 153.92 214.59 154.28 213.762 154.28C212.934 154.28 212.238 153.932 212.058 152.852L211.002 153.116C211.218 154.496 212.274 155.168 213.762 155.168C215.214 155.168 216.174 154.484 216.174 153.308C216.174 152.12 215.226 151.76 213.978 151.544L213.474 151.472C212.802 151.352 212.358 151.136 212.358 150.62C212.358 150.128 212.802 149.828 213.522 149.828C214.242 149.828 214.758 150.128 214.926 150.92L215.958 150.62C215.706 149.588 214.842 148.94 213.522 148.94C212.142 148.94 211.254 149.588 211.254 150.68Z" fill="#1E2029"/>
<rect width="79.4847" height="32" transform="translate(95.4849 208) rotate(180)" fill="#DCE0FA"/>
<path d="M45.7107 186.7L42.8267 196.5L44.4927 196.5L45.1507 194.218L48.7907 194.218L49.4487 196.5L51.1007 196.5L48.2167 186.7L45.7107 186.7ZM45.5427 192.748L46.9007 188.058L47.0407 188.058L48.3847 192.748L45.5427 192.748ZM52.6202 186.7L52.6202 196.5L54.2442 196.5L54.2442 186.7L52.6202 186.7ZM60.6897 189.948L60.6897 190.284L62.2997 190.284L62.2997 189.976C62.2997 188.604 63.2097 187.946 64.3437 187.946C65.4497 187.946 66.1917 188.59 66.1917 189.682C66.1917 190.886 65.3237 191.418 63.8397 191.81C61.9917 192.286 60.7037 193.126 60.7037 194.974L60.7037 196.5L67.7737 196.5L67.7737 195.03L62.3277 195.03L62.3277 194.834C62.3277 193.742 63.1397 193.434 64.6097 193.056C66.6537 192.538 67.8157 191.628 67.8157 189.724C67.8157 187.736 66.2337 186.504 64.3157 186.504C62.3417 186.504 60.6897 187.694 60.6897 189.948Z" fill="#1E2029"/>
<rect width="248.515" height="32" transform="translate(95.4849 176)" fill="#E3C668"/>
<path d="M103.929 192.76C103.929 194.944 105.249 196.168 107.337 196.168C109.401 196.168 110.601 194.98 110.601 193.156V192.868H109.221V193.18C109.221 194.164 108.597 194.932 107.337 194.932C106.089 194.932 105.321 194.116 105.321 192.784V190.816C105.321 189.484 106.077 188.668 107.337 188.668C108.573 188.668 109.221 189.448 109.221 190.432V190.66H110.601V190.456C110.601 188.62 109.425 187.432 107.337 187.432C105.249 187.432 103.929 188.656 103.929 190.84V192.76ZM111.477 193.036C111.477 194.956 112.785 196.168 114.561 196.168C116.337 196.168 117.633 194.956 117.633 193.036C117.633 191.128 116.337 189.916 114.561 189.916C112.785 189.916 111.477 191.128 111.477 193.036ZM112.797 193.036C112.797 191.824 113.517 191.068 114.561 191.068C115.593 191.068 116.313 191.812 116.313 193.036C116.313 194.26 115.593 195.016 114.561 195.016C113.517 195.016 112.797 194.272 112.797 193.036ZM118.871 190.084V196H120.179V192.964C120.179 191.74 120.815 191.056 121.799 191.056C122.675 191.056 123.191 191.524 123.191 192.52V196H124.511V192.448C124.511 190.936 123.551 189.976 122.195 189.976C121.067 189.976 120.539 190.48 120.275 190.996H120.155V190.084H118.871ZM125.128 190.084L127.252 196H129.184L131.296 190.084H129.868L128.272 194.872H128.152L126.556 190.084H125.128ZM131.77 193.036C131.77 194.956 133.078 196.168 134.854 196.168C136.63 196.168 137.926 194.956 137.926 193.036C137.926 191.128 136.63 189.916 134.854 189.916C133.078 189.916 131.77 191.128 131.77 193.036ZM133.09 193.036C133.09 191.824 133.81 191.068 134.854 191.068C135.886 191.068 136.606 191.812 136.606 193.036C136.606 194.26 135.886 195.016 134.854 195.016C133.81 195.016 133.09 194.272 133.09 193.036ZM140.473 187.6H139.165V196H140.473V187.6ZM147.726 196V190.084H146.418V193.12C146.418 194.332 145.782 195.016 144.798 195.016C143.922 195.016 143.406 194.548 143.406 193.564V190.084H142.086V193.636C142.086 195.136 143.046 196.096 144.402 196.096C145.53 196.096 146.058 195.604 146.322 195.076H146.442V196H147.726ZM148.659 191.152H150.255V194.776C150.255 195.52 150.735 196 151.455 196H153.123V194.92H151.911C151.695 194.92 151.575 194.8 151.575 194.56V191.152H153.303V190.084H151.575V188.152H150.255V190.084H148.659V191.152ZM154.213 188.32C154.213 188.872 154.633 189.256 155.185 189.256C155.737 189.256 156.157 188.872 156.157 188.32C156.157 187.756 155.737 187.372 155.185 187.372C154.633 187.372 154.213 187.756 154.213 188.32ZM155.845 190.084H154.537V196H155.845V190.084ZM157.085 193.036C157.085 194.956 158.393 196.168 160.169 196.168C161.945 196.168 163.241 194.956 163.241 193.036C163.241 191.128 161.945 189.916 160.169 189.916C158.393 189.916 157.085 191.128 157.085 193.036ZM158.405 193.036C158.405 191.824 159.125 191.068 160.169 191.068C161.201 191.068 161.921 191.812 161.921 193.036C161.921 194.26 161.201 195.016 160.169 195.016C159.125 195.016 158.405 194.272 158.405 193.036ZM164.48 190.084V196H165.788V192.964C165.788 191.74 166.424 191.056 167.408 191.056C168.284 191.056 168.8 191.524 168.8 192.52V196H170.12V192.448C170.12 190.936 169.16 189.976 167.804 189.976C166.676 189.976 166.148 190.48 165.884 190.996H165.764V190.084H164.48ZM171.546 191.62L172.77 192.028C172.89 191.416 173.31 190.972 174.138 190.972C174.966 190.972 175.362 191.44 175.362 192.076V192.436H173.61C172.29 192.436 171.342 193.06 171.342 194.284C171.342 195.484 172.29 196.168 173.514 196.168C174.642 196.168 175.062 195.58 175.23 195.256H175.386V196H176.646V192.172C176.646 190.72 175.686 189.904 174.15 189.904C172.626 189.904 171.834 190.696 171.546 191.62ZM172.662 194.248C172.662 193.756 173.058 193.456 173.694 193.456H175.362V193.564C175.362 194.5 174.702 195.088 173.766 195.088C173.058 195.088 172.662 194.752 172.662 194.248ZM179.481 187.6H178.173V196H179.481V187.6ZM184.624 187.6V196H186.016V189.016H186.136L188.572 196H190.948V187.6H189.568V194.584H189.448L187 187.6H184.624ZM192.2 193.012C192.2 194.872 193.424 196.168 195.224 196.168C196.856 196.168 197.552 195.232 197.9 194.608L196.808 194.02C196.568 194.536 196.148 195.028 195.248 195.028C194.3 195.028 193.604 194.368 193.556 193.456H198.044V192.916C198.044 191.104 196.892 189.904 195.176 189.904C193.436 189.904 192.2 191.164 192.2 193.012ZM193.568 192.436C193.676 191.608 194.252 191.044 195.164 191.044C196.04 191.044 196.628 191.584 196.7 192.436H193.568ZM204.871 196V190.084H203.563V193.12C203.563 194.332 202.927 195.016 201.943 195.016C201.067 195.016 200.551 194.548 200.551 193.564V190.084H199.231V193.636C199.231 195.136 200.191 196.096 201.547 196.096C202.675 196.096 203.203 195.604 203.467 195.076H203.587V196H204.871ZM207.76 190.084H206.476V196H207.784V192.496C207.784 191.596 208.348 191.176 209.14 191.176H210.052V190.06H209.368C208.6 190.06 208.12 190.288 207.88 190.9H207.76V190.084ZM210.882 191.62L212.106 192.028C212.226 191.416 212.646 190.972 213.474 190.972C214.302 190.972 214.698 191.44 214.698 192.076V192.436H212.946C211.626 192.436 210.678 193.06 210.678 194.284C210.678 195.484 211.626 196.168 212.85 196.168C213.978 196.168 214.398 195.58 214.566 195.256H214.722V196H215.982V192.172C215.982 190.72 215.022 189.904 213.486 189.904C211.962 189.904 211.17 190.696 210.882 191.62ZM211.998 194.248C211.998 193.756 212.394 193.456 213.03 193.456H214.698V193.564C214.698 194.5 214.038 195.088 213.102 195.088C212.394 195.088 211.998 194.752 211.998 194.248ZM218.817 187.6H217.509V196H218.817V187.6ZM223.96 187.6V196H225.352V189.016H225.472L227.908 196H230.284V187.6H228.904V194.584H228.784L226.336 187.6H223.96ZM231.536 193.012C231.536 194.872 232.76 196.168 234.56 196.168C236.192 196.168 236.888 195.232 237.236 194.608L236.144 194.02C235.904 194.536 235.484 195.028 234.584 195.028C233.636 195.028 232.94 194.368 232.892 193.456H237.38V192.916C237.38 191.104 236.228 189.904 234.512 189.904C232.772 189.904 231.536 191.164 231.536 193.012ZM232.904 192.436C233.012 191.608 233.588 191.044 234.5 191.044C235.376 191.044 235.964 191.584 236.036 192.436H232.904ZM237.836 191.152H239.432V194.776C239.432 195.52 239.912 196 240.632 196H242.3V194.92H241.088C240.872 194.92 240.752 194.8 240.752 194.56V191.152H242.48V190.084H240.752V188.152H239.432V190.084H237.836V191.152ZM243.198 190.084L244.458 196H246.342L247.446 191.2H247.566L248.658 196H250.542L251.802 190.084H250.47L249.63 194.884H249.51L248.418 190.084H246.582L245.49 194.884H245.37L244.53 190.084H243.198ZM252.462 193.036C252.462 194.956 253.77 196.168 255.546 196.168C257.322 196.168 258.618 194.956 258.618 193.036C258.618 191.128 257.322 189.916 255.546 189.916C253.77 189.916 252.462 191.128 252.462 193.036ZM253.782 193.036C253.782 191.824 254.502 191.068 255.546 191.068C256.578 191.068 257.298 191.812 257.298 193.036C257.298 194.26 256.578 195.016 255.546 195.016C254.502 195.016 253.782 194.272 253.782 193.036ZM261.141 190.084H259.857V196H261.165V192.496C261.165 191.596 261.729 191.176 262.521 191.176H263.433V190.06H262.749C261.981 190.06 261.501 190.288 261.261 190.9H261.141V190.084ZM270.43 190.084H268.474L265.738 192.484V187.6H264.43V196H265.738V194.092L266.698 193.264L268.762 196H270.382L267.646 192.46L270.43 190.084ZM271.309 191.704C271.309 192.832 272.245 193.276 273.445 193.492L273.853 193.564C274.633 193.708 275.029 193.9 275.029 194.356C275.029 194.812 274.609 195.148 273.853 195.148C273.085 195.148 272.461 194.836 272.293 193.864L271.069 194.164C271.273 195.484 272.329 196.168 273.853 196.168C275.341 196.168 276.301 195.472 276.301 194.26C276.301 193.048 275.329 192.7 274.033 192.46L273.625 192.388C272.977 192.268 272.581 192.076 272.581 191.62C272.581 191.188 272.965 190.924 273.613 190.924C274.261 190.924 274.729 191.2 274.873 191.92L276.073 191.56C275.809 190.564 274.945 189.916 273.613 189.916C272.221 189.916 271.309 190.564 271.309 191.704Z" fill="#1E2029"/>
<rect width="79" height="35" transform="translate(95 259) rotate(180)" fill="#636CAD"/>
<path d="M45.468 236.2L42.584 246H44.25L44.908 243.718H48.548L49.206 246H50.858L47.974 236.2H45.468ZM45.3 242.248L46.658 237.558H46.798L48.142 242.248H45.3ZM52.3775 236.2V246H54.0015V236.2H52.3775ZM60.573 236.2V237.67H65.249L62.589 239.896V241.366H64.185C65.221 241.366 65.991 241.884 65.991 242.962C65.991 243.984 65.249 244.754 64.003 244.754C62.673 244.754 61.917 243.956 61.917 242.822V242.444H60.307V242.864C60.307 244.852 61.721 246.196 64.003 246.196C66.117 246.196 67.615 244.908 67.615 242.962C67.615 241.156 66.369 240.176 64.899 240.176H64.549V240.022L67.447 237.628V236.2H60.573Z" fill="white"/>
<rect width="249" height="35" transform="translate(95 224)" fill="#B49848"/>
<path d="M103.816 235.6V244H105.004V236.836H105.124L107.98 244H110.008V235.6H108.82V242.764H108.7L105.844 235.6H103.816ZM111.608 239.692L112.664 240.028C112.808 239.356 113.288 238.864 114.176 238.864C115.076 238.864 115.52 239.368 115.52 240.1V240.484H113.648C112.364 240.484 111.416 241.096 111.416 242.308C111.416 243.496 112.364 244.168 113.588 244.168C114.728 244.168 115.184 243.604 115.4 243.208H115.544V244H116.624V240.172C116.624 238.756 115.7 237.94 114.188 237.94C112.688 237.94 111.896 238.732 111.608 239.692ZM112.544 242.284C112.544 241.708 113.012 241.396 113.708 241.396H115.52V241.516C115.52 242.584 114.812 243.244 113.78 243.244C113.012 243.244 112.544 242.86 112.544 242.284ZM117.457 239.032H119.161V242.896C119.161 243.568 119.593 244 120.253 244H121.885V243.076H120.625C120.409 243.076 120.289 242.956 120.289 242.716V239.032H122.113V238.108H120.289V236.092H119.161V238.108H117.457V239.032ZM128.95 244V238.108H127.822V241.108C127.822 242.452 127.114 243.172 126.058 243.172C125.11 243.172 124.534 242.68 124.534 241.6V238.108H123.418V241.66C123.418 243.196 124.414 244.108 125.734 244.108C126.898 244.108 127.462 243.58 127.726 243.052H127.846V244H128.95ZM131.779 238.108H130.675V244H131.803V240.448C131.803 239.5 132.355 239.056 133.183 239.056H134.107V238.084H133.375C132.595 238.084 132.127 238.312 131.899 238.9H131.779V238.108ZM135.01 239.692L136.066 240.028C136.21 239.356 136.69 238.864 137.578 238.864C138.478 238.864 138.922 239.368 138.922 240.1V240.484H137.05C135.766 240.484 134.818 241.096 134.818 242.308C134.818 243.496 135.766 244.168 136.99 244.168C138.13 244.168 138.586 243.604 138.802 243.208H138.946V244H140.026V240.172C140.026 238.756 139.102 237.94 137.59 237.94C136.09 237.94 135.298 238.732 135.01 239.692ZM135.946 242.284C135.946 241.708 136.414 241.396 137.11 241.396H138.922V241.516C138.922 242.584 138.214 243.244 137.182 243.244C136.414 243.244 135.946 242.86 135.946 242.284ZM142.812 235.6H141.684V244H142.812V235.6ZM148.217 235.6V244H153.593V242.932H149.405V235.6H148.217ZM154.568 239.692L155.624 240.028C155.768 239.356 156.248 238.864 157.136 238.864C158.036 238.864 158.48 239.368 158.48 240.1V240.484H156.608C155.324 240.484 154.376 241.096 154.376 242.308C154.376 243.496 155.324 244.168 156.548 244.168C157.688 244.168 158.144 243.604 158.36 243.208H158.504V244H159.584V240.172C159.584 238.756 158.66 237.94 157.148 237.94C155.648 237.94 154.856 238.732 154.568 239.692ZM155.504 242.284C155.504 241.708 155.972 241.396 156.668 241.396H158.48V241.516C158.48 242.584 157.772 243.244 156.74 243.244C155.972 243.244 155.504 242.86 155.504 242.284ZM161.242 238.108V244H162.37V241C162.37 239.656 163.078 238.936 164.134 238.936C165.082 238.936 165.658 239.428 165.658 240.508V244H166.774V240.448C166.774 238.912 165.778 238 164.458 238C163.294 238 162.73 238.528 162.466 239.056H162.346V238.108H161.242ZM173.049 238.108V239.056H172.929C172.569 238.468 171.945 237.94 170.793 237.94C169.305 237.94 168.057 239.14 168.057 240.976C168.057 242.824 169.305 244.012 170.793 244.012C171.945 244.012 172.569 243.472 172.905 242.944H173.025V243.64C173.025 244.948 172.257 245.608 171.105 245.608C169.965 245.608 169.401 244.948 169.185 244.252L168.165 244.672C168.453 245.536 169.341 246.568 171.129 246.568C172.941 246.568 174.153 245.536 174.153 243.688V238.108H173.049ZM171.105 243.04C169.989 243.04 169.197 242.248 169.197 240.976C169.197 239.716 169.989 238.924 171.105 238.924C172.221 238.924 173.037 239.716 173.037 240.976C173.037 242.236 172.221 243.04 171.105 243.04ZM181.405 244V238.108H180.277V241.108C180.277 242.452 179.569 243.172 178.513 243.172C177.565 243.172 176.989 242.68 176.989 241.6V238.108H175.873V241.66C175.873 243.196 176.869 244.108 178.189 244.108C179.353 244.108 179.917 243.58 180.181 243.052H180.301V244H181.405ZM182.986 239.692L184.042 240.028C184.186 239.356 184.666 238.864 185.554 238.864C186.454 238.864 186.898 239.368 186.898 240.1V240.484H185.026C183.742 240.484 182.794 241.096 182.794 242.308C182.794 243.496 183.742 244.168 184.966 244.168C186.106 244.168 186.562 243.604 186.778 243.208H186.922V244H188.002V240.172C188.002 238.756 187.078 237.94 185.566 237.94C184.066 237.94 183.274 238.732 182.986 239.692ZM183.922 242.284C183.922 241.708 184.39 241.396 185.086 241.396H186.898V241.516C186.898 242.584 186.19 243.244 185.158 243.244C184.39 243.244 183.922 242.86 183.922 242.284ZM194.28 238.108V239.056H194.16C193.8 238.468 193.176 237.94 192.024 237.94C190.536 237.94 189.288 239.14 189.288 240.976C189.288 242.824 190.536 244.012 192.024 244.012C193.176 244.012 193.8 243.472 194.136 242.944H194.256V243.64C194.256 244.948 193.488 245.608 192.336 245.608C191.196 245.608 190.632 244.948 190.416 244.252L189.396 244.672C189.684 245.536 190.572 246.568 192.36 246.568C194.172 246.568 195.384 245.536 195.384 243.688V238.108H194.28ZM192.336 243.04C191.22 243.04 190.428 242.248 190.428 240.976C190.428 239.716 191.22 238.924 192.336 238.924C193.452 238.924 194.268 239.716 194.268 240.976C194.268 242.236 193.452 243.04 192.336 243.04ZM196.744 241.012C196.744 242.824 197.956 244.168 199.78 244.168C201.4 244.168 202.084 243.232 202.444 242.62L201.508 242.092C201.22 242.668 200.74 243.184 199.78 243.184C198.712 243.184 197.968 242.464 197.896 241.444H202.54V240.892C202.54 239.08 201.376 237.94 199.696 237.94C197.98 237.94 196.744 239.212 196.744 241.012ZM197.908 240.532C198.028 239.548 198.676 238.924 199.696 238.924C200.668 238.924 201.328 239.512 201.388 240.532H197.908ZM207.528 235.6V244H208.716V240.712H210.816C212.328 240.712 213.468 239.74 213.468 238.156C213.468 236.584 212.352 235.6 210.816 235.6H207.528ZM208.716 236.668H210.696C211.68 236.668 212.28 237.232 212.28 238.156C212.28 239.08 211.68 239.644 210.696 239.644H208.716V236.668ZM215.759 238.108H214.655V244H215.783V240.448C215.783 239.5 216.335 239.056 217.163 239.056H218.087V238.084H217.355C216.575 238.084 216.107 238.312 215.879 238.9H215.759V238.108ZM218.564 241.06C218.564 242.932 219.824 244.168 221.6 244.168C223.376 244.168 224.648 242.932 224.648 241.06C224.648 239.176 223.376 237.94 221.6 237.94C219.824 237.94 218.564 239.176 218.564 241.06ZM219.692 241.06C219.692 239.788 220.46 238.936 221.6 238.936C222.74 238.936 223.52 239.764 223.52 241.06C223.52 242.344 222.74 243.172 221.6 243.172C220.46 243.172 219.692 242.368 219.692 241.06ZM225.633 241.06C225.633 242.884 226.989 244.168 228.693 244.168C230.313 244.168 231.273 243.196 231.561 241.924L230.469 241.672C230.313 242.548 229.761 243.172 228.705 243.172C227.613 243.172 226.773 242.332 226.773 241.06C226.773 239.776 227.601 238.936 228.705 238.936C229.713 238.936 230.325 239.572 230.421 240.424L231.525 240.196C231.297 238.936 230.289 237.94 228.693 237.94C226.989 237.94 225.633 239.224 225.633 241.06ZM232.515 241.012C232.515 242.824 233.727 244.168 235.551 244.168C237.171 244.168 237.855 243.232 238.215 242.62L237.279 242.092C236.991 242.668 236.511 243.184 235.551 243.184C234.483 243.184 233.739 242.464 233.667 241.444H238.311V240.892C238.311 239.08 237.147 237.94 235.467 237.94C233.751 237.94 232.515 239.212 232.515 241.012ZM233.679 240.532C233.799 239.548 234.447 238.924 235.467 238.924C236.439 238.924 237.099 239.512 237.159 240.532H233.679ZM239.461 239.68C239.461 240.772 240.373 241.216 241.513 241.42L242.017 241.504C242.833 241.636 243.289 241.864 243.289 242.38C243.289 242.92 242.797 243.28 241.969 243.28C241.141 243.28 240.445 242.932 240.265 241.852L239.209 242.116C239.425 243.496 240.481 244.168 241.969 244.168C243.421 244.168 244.381 243.484 244.381 242.308C244.381 241.12 243.433 240.76 242.185 240.544L241.681 240.472C241.009 240.352 240.565 240.136 240.565 239.62C240.565 239.128 241.009 238.828 241.729 238.828C242.449 238.828 242.965 239.128 243.133 239.92L244.165 239.62C243.913 238.588 243.049 237.94 241.729 237.94C240.349 237.94 239.461 238.588 239.461 239.68ZM245.499 239.68C245.499 240.772 246.411 241.216 247.551 241.42L248.055 241.504C248.871 241.636 249.327 241.864 249.327 242.38C249.327 242.92 248.835 243.28 248.007 243.28C247.179 243.28 246.483 242.932 246.303 241.852L245.247 242.116C245.463 243.496 246.519 244.168 248.007 244.168C249.459 244.168 250.419 243.484 250.419 242.308C250.419 241.12 249.471 240.76 248.223 240.544L247.719 240.472C247.047 240.352 246.603 240.136 246.603 239.62C246.603 239.128 247.047 238.828 247.767 238.828C248.487 238.828 249.003 239.128 249.171 239.92L250.203 239.62C249.951 238.588 249.087 237.94 247.767 237.94C246.387 237.94 245.499 238.588 245.499 239.68ZM251.462 236.32C251.462 236.812 251.834 237.172 252.326 237.172C252.83 237.172 253.202 236.812 253.202 236.32C253.202 235.816 252.83 235.456 252.326 235.456C251.834 235.456 251.462 235.816 251.462 236.32ZM252.89 238.108H251.762V244H252.89V238.108ZM254.613 238.108V244H255.741V241C255.741 239.656 256.449 238.936 257.505 238.936C258.453 238.936 259.029 239.428 259.029 240.508V244H260.145V240.448C260.145 238.912 259.149 238 257.829 238C256.665 238 256.101 238.528 255.837 239.056H255.717V238.108H254.613ZM266.419 238.108V239.056H266.299C265.939 238.468 265.315 237.94 264.163 237.94C262.675 237.94 261.427 239.14 261.427 240.976C261.427 242.824 262.675 244.012 264.163 244.012C265.315 244.012 265.939 243.472 266.275 242.944H266.395V243.64C266.395 244.948 265.627 245.608 264.475 245.608C263.335 245.608 262.771 244.948 262.555 244.252L261.535 244.672C261.823 245.536 262.711 246.568 264.499 246.568C266.311 246.568 267.523 245.536 267.523 243.688V238.108H266.419ZM264.475 243.04C263.359 243.04 262.567 242.248 262.567 240.976C262.567 239.716 263.359 238.924 264.475 238.924C265.591 238.924 266.407 239.716 266.407 240.976C266.407 242.236 265.591 243.04 264.475 243.04Z" fill="white"/>
<rect width="78" height="48" transform="translate(94 313) rotate(180)" fill="#636CAD"/>
<path d="M44.968 283.7L42.084 293.5H43.75L44.408 291.218H48.048L48.706 293.5H50.358L47.474 283.7H44.968ZM44.8 289.748L46.158 285.058H46.298L47.642 289.748H44.8ZM51.4855 284.54C51.4855 285.184 51.9755 285.632 52.6195 285.632C53.2635 285.632 53.7535 285.184 53.7535 284.54C53.7535 283.882 53.2635 283.434 52.6195 283.434C51.9755 283.434 51.4855 283.882 51.4855 284.54ZM53.3895 286.598H51.8635V293.5H53.3895V286.598ZM63.5063 283.7L59.4603 290.14V291.554H64.4303V293.5H66.0543V291.554H67.6783V290.084H66.0543V283.7H63.5063ZM64.2623 285.114H64.4303V290.084H61.1543L64.2623 285.114Z" fill="white"/>
<rect width="250" height="48" transform="translate(94 265)" fill="#B49848"/>
<path d="M108.996 279.12C108.996 277.56 107.88 276.6 106.344 276.6H102.816V285H104.004V281.64H105.768L107.484 285H108.84L107.004 281.58C108.168 281.34 108.996 280.44 108.996 279.12ZM104.004 277.668H106.224C107.208 277.668 107.808 278.22 107.808 279.12C107.808 280.032 107.208 280.584 106.224 280.584H104.004V277.668ZM109.935 282.012C109.935 283.824 111.147 285.168 112.971 285.168C114.591 285.168 115.275 284.232 115.635 283.62L114.699 283.092C114.411 283.668 113.931 284.184 112.971 284.184C111.903 284.184 111.159 283.464 111.087 282.444H115.731V281.892C115.731 280.08 114.567 278.94 112.887 278.94C111.171 278.94 109.935 280.212 109.935 282.012ZM111.099 281.532C111.219 280.548 111.867 279.924 112.887 279.924C113.859 279.924 114.519 280.512 114.579 281.532H111.099ZM116.736 277.32C116.736 277.812 117.108 278.172 117.6 278.172C118.104 278.172 118.476 277.812 118.476 277.32C118.476 276.816 118.104 276.456 117.6 276.456C117.108 276.456 116.736 276.816 116.736 277.32ZM118.164 279.108H117.036V285H118.164V279.108ZM119.887 279.108V285H121.015V282C121.015 280.656 121.723 279.936 122.779 279.936C123.727 279.936 124.303 280.428 124.303 281.508V285H125.419V281.448C125.419 279.912 124.423 279 123.103 279C121.939 279 121.375 279.528 121.111 280.056H120.991V279.108H119.887ZM126.38 279.108V280.032H128.096V285H129.224V280.032H130.976V279.108H129.224V277.884C129.224 277.644 129.344 277.524 129.56 277.524H130.736V276.6H129.188C128.528 276.6 128.096 277.02 128.096 277.704V279.108H126.38ZM131.755 282.06C131.755 283.932 133.015 285.168 134.791 285.168C136.567 285.168 137.839 283.932 137.839 282.06C137.839 280.176 136.567 278.94 134.791 278.94C133.015 278.94 131.755 280.176 131.755 282.06ZM132.883 282.06C132.883 280.788 133.651 279.936 134.791 279.936C135.931 279.936 136.711 280.764 136.711 282.06C136.711 283.344 135.931 284.172 134.791 284.172C133.651 284.172 132.883 283.368 132.883 282.06ZM140.3 279.108H139.196V285H140.324V281.448C140.324 280.5 140.876 280.056 141.704 280.056H142.628V279.084H141.896C141.116 279.084 140.648 279.312 140.42 279.9H140.3V279.108ZM143.104 282.06C143.104 283.884 144.46 285.168 146.164 285.168C147.784 285.168 148.744 284.196 149.032 282.924L147.94 282.672C147.784 283.548 147.232 284.172 146.176 284.172C145.084 284.172 144.244 283.332 144.244 282.06C144.244 280.776 145.072 279.936 146.176 279.936C147.184 279.936 147.796 280.572 147.892 281.424L148.996 281.196C148.768 279.936 147.76 278.94 146.164 278.94C144.46 278.94 143.104 280.224 143.104 282.06ZM149.986 282.012C149.986 283.824 151.198 285.168 153.022 285.168C154.642 285.168 155.326 284.232 155.686 283.62L154.75 283.092C154.462 283.668 153.982 284.184 153.022 284.184C151.954 284.184 151.21 283.464 151.138 282.444H155.782V281.892C155.782 280.08 154.618 278.94 152.938 278.94C151.222 278.94 149.986 280.212 149.986 282.012ZM151.15 281.532C151.27 280.548 151.918 279.924 152.938 279.924C153.91 279.924 154.57 280.512 154.63 281.532H151.15ZM157.087 279.108V285H158.215V281.448C158.215 280.476 158.755 279.936 159.559 279.936C160.315 279.936 160.747 280.38 160.747 281.124V285H161.875V281.448C161.875 280.476 162.415 279.936 163.219 279.936C163.975 279.936 164.419 280.38 164.419 281.124V285H165.535V281.052C165.535 279.744 164.695 279 163.555 279C162.607 279 162.079 279.42 161.767 280.02H161.647C161.383 279.432 160.855 279 159.955 279C159.079 279 158.575 279.372 158.311 279.864H158.191V279.108H157.087ZM166.831 282.012C166.831 283.824 168.043 285.168 169.867 285.168C171.487 285.168 172.171 284.232 172.531 283.62L171.595 283.092C171.307 283.668 170.827 284.184 169.867 284.184C168.799 284.184 168.055 283.464 167.983 282.444H172.627V281.892C172.627 280.08 171.463 278.94 169.783 278.94C168.067 278.94 166.831 280.212 166.831 282.012ZM167.995 281.532C168.115 280.548 168.763 279.924 169.783 279.924C170.755 279.924 171.415 280.512 171.475 281.532H167.995ZM173.933 279.108V285H175.061V282C175.061 280.656 175.769 279.936 176.825 279.936C177.773 279.936 178.349 280.428 178.349 281.508V285H179.465V281.448C179.465 279.912 178.469 279 177.149 279C175.985 279 175.421 279.528 175.157 280.056H175.037V279.108H173.933ZM180.294 280.032H181.998V283.896C181.998 284.568 182.43 285 183.09 285H184.722V284.076H183.462C183.246 284.076 183.126 283.956 183.126 283.716V280.032H184.95V279.108H183.126V277.092H181.998V279.108H180.294V280.032ZM189.949 276.6V285H195.325V283.932H191.137V276.6H189.949ZM196.072 282.012C196.072 283.824 197.284 285.168 199.108 285.168C200.728 285.168 201.412 284.232 201.772 283.62L200.836 283.092C200.548 283.668 200.068 284.184 199.108 284.184C198.04 284.184 197.296 283.464 197.224 282.444H201.868V281.892C201.868 280.08 200.704 278.94 199.024 278.94C197.308 278.94 196.072 280.212 196.072 282.012ZM197.236 281.532C197.356 280.548 198.004 279.924 199.024 279.924C199.996 279.924 200.656 280.512 200.716 281.532H197.236ZM203.006 280.692L204.062 281.028C204.206 280.356 204.686 279.864 205.574 279.864C206.474 279.864 206.918 280.368 206.918 281.1V281.484H205.046C203.762 281.484 202.814 282.096 202.814 283.308C202.814 284.496 203.762 285.168 204.986 285.168C206.126 285.168 206.582 284.604 206.798 284.208H206.942V285H208.022V281.172C208.022 279.756 207.098 278.94 205.586 278.94C204.086 278.94 203.294 279.732 203.006 280.692ZM203.942 283.284C203.942 282.708 204.41 282.396 205.106 282.396H206.918V282.516C206.918 283.584 206.21 284.244 205.178 284.244C204.41 284.244 203.942 283.86 203.942 283.284ZM210.784 279.108H209.68V285H210.808V281.448C210.808 280.5 211.36 280.056 212.188 280.056H213.112V279.084H212.38C211.6 279.084 211.132 279.312 210.904 279.9H210.784V279.108ZM214.218 279.108V285H215.346V282C215.346 280.656 216.054 279.936 217.11 279.936C218.058 279.936 218.634 280.428 218.634 281.508V285H219.75V281.448C219.75 279.912 218.754 279 217.434 279C216.27 279 215.706 279.528 215.442 280.056H215.322V279.108H214.218ZM221.104 277.32C221.104 277.812 221.476 278.172 221.968 278.172C222.472 278.172 222.844 277.812 222.844 277.32C222.844 276.816 222.472 276.456 221.968 276.456C221.476 276.456 221.104 276.816 221.104 277.32ZM222.532 279.108H221.404V285H222.532V279.108ZM224.255 279.108V285H225.383V282C225.383 280.656 226.091 279.936 227.147 279.936C228.095 279.936 228.671 280.428 228.671 281.508V285H229.787V281.448C229.787 279.912 228.791 279 227.471 279C226.307 279 225.743 279.528 225.479 280.056H225.359V279.108H224.255ZM236.061 279.108V280.056H235.941C235.581 279.468 234.957 278.94 233.805 278.94C232.317 278.94 231.069 280.14 231.069 281.976C231.069 283.824 232.317 285.012 233.805 285.012C234.957 285.012 235.581 284.472 235.917 283.944H236.037V284.64C236.037 285.948 235.269 286.608 234.117 286.608C232.977 286.608 232.413 285.948 232.197 285.252L231.177 285.672C231.465 286.536 232.353 287.568 234.141 287.568C235.953 287.568 237.165 286.536 237.165 284.688V279.108H236.061ZM234.117 284.04C233.001 284.04 232.209 283.248 232.209 281.976C232.209 280.716 233.001 279.924 234.117 279.924C235.233 279.924 236.049 280.716 236.049 281.976C236.049 283.236 235.233 284.04 234.117 284.04ZM246.204 276.6H244.752C243.384 276.6 242.304 277.38 242.304 278.832C242.304 279.864 242.904 280.428 243.66 280.668V280.812C242.892 281.064 242.232 281.712 242.232 282.768C242.232 284.184 243.276 285 244.704 285H247.548V281.232H248.7V280.284H247.548V279.048H246.432V280.284H244.92C244.116 280.284 243.432 279.864 243.432 278.916C243.432 277.992 244.092 277.548 244.92 277.548H246.204V276.6ZM244.872 281.232H246.432V284.052H244.872C244.056 284.052 243.372 283.608 243.372 282.636C243.372 281.688 244.032 281.232 244.872 281.232ZM253.278 281.724C253.278 283.92 254.574 285.168 256.65 285.168C258.642 285.168 259.818 284.004 259.818 282.072V280.932H256.29V281.952H258.654V282.18C258.654 283.38 257.994 284.112 256.65 284.112C255.294 284.112 254.466 283.212 254.466 281.748V279.852C254.466 278.388 255.294 277.488 256.662 277.488C257.958 277.488 258.582 278.268 258.582 279.384V279.516H259.77V279.396C259.77 277.608 258.702 276.432 256.662 276.432C254.598 276.432 253.278 277.68 253.278 279.876V281.724ZM260.907 282.012C260.907 283.824 262.119 285.168 263.943 285.168C265.563 285.168 266.247 284.232 266.607 283.62L265.671 283.092C265.383 283.668 264.903 284.184 263.943 284.184C262.875 284.184 262.131 283.464 262.059 282.444H266.703V281.892C266.703 280.08 265.539 278.94 263.859 278.94C262.143 278.94 260.907 280.212 260.907 282.012ZM262.071 281.532C262.191 280.548 262.839 279.924 263.859 279.924C264.831 279.924 265.491 280.512 265.551 281.532H262.071ZM268.009 279.108V285H269.137V282C269.137 280.656 269.845 279.936 270.901 279.936C271.849 279.936 272.425 280.428 272.425 281.508V285H273.541V281.448C273.541 279.912 272.545 279 271.225 279C270.061 279 269.497 279.528 269.233 280.056H269.113V279.108H268.009ZM274.823 282.012C274.823 283.824 276.035 285.168 277.859 285.168C279.479 285.168 280.163 284.232 280.523 283.62L279.587 283.092C279.299 283.668 278.819 284.184 277.859 284.184C276.791 284.184 276.047 283.464 275.975 282.444H280.619V281.892C280.619 280.08 279.455 278.94 277.775 278.94C276.059 278.94 274.823 280.212 274.823 282.012ZM275.987 281.532C276.107 280.548 276.755 279.924 277.775 279.924C278.747 279.924 279.407 280.512 279.467 281.532H275.987ZM283.029 279.108H281.925V285H283.053V281.448C283.053 280.5 283.605 280.056 284.433 280.056H285.357V279.084H284.625C283.845 279.084 283.377 279.312 283.149 279.9H283.029V279.108ZM286.26 280.692L287.316 281.028C287.46 280.356 287.94 279.864 288.828 279.864C289.728 279.864 290.172 280.368 290.172 281.1V281.484H288.3C287.016 281.484 286.068 282.096 286.068 283.308C286.068 284.496 287.016 285.168 288.24 285.168C289.38 285.168 289.836 284.604 290.052 284.208H290.196V285H291.276V281.172C291.276 279.756 290.352 278.94 288.84 278.94C287.34 278.94 286.548 279.732 286.26 280.692ZM287.196 283.284C287.196 282.708 287.664 282.396 288.36 282.396H290.172V282.516C290.172 283.584 289.464 284.244 288.432 284.244C287.664 284.244 287.196 283.86 287.196 283.284ZM292.109 280.032H293.813V283.896C293.813 284.568 294.245 285 294.905 285H296.537V284.076H295.277C295.061 284.076 294.941 283.956 294.941 283.716V280.032H296.765V279.108H294.941V277.092H293.813V279.108H292.109V280.032ZM297.781 277.32C297.781 277.812 298.153 278.172 298.645 278.172C299.149 278.172 299.521 277.812 299.521 277.32C299.521 276.816 299.149 276.456 298.645 276.456C298.153 276.456 297.781 276.816 297.781 277.32ZM299.209 279.108H298.081V285H299.209V279.108ZM300.308 279.108L302.48 285H304.112L306.296 279.108H305.072L303.356 284.004H303.236L301.532 279.108H300.308ZM306.914 282.012C306.914 283.824 308.126 285.168 309.95 285.168C311.57 285.168 312.254 284.232 312.614 283.62L311.678 283.092C311.39 283.668 310.91 284.184 309.95 284.184C308.882 284.184 308.138 283.464 308.066 282.444H312.71V281.892C312.71 280.08 311.546 278.94 309.866 278.94C308.15 278.94 306.914 280.212 306.914 282.012ZM308.078 281.532C308.198 280.548 308.846 279.924 309.866 279.924C310.838 279.924 311.498 280.512 311.558 281.532H308.078ZM102.816 292.6V301H103.98V293.836H104.1L106.404 301H108.084L110.376 293.836H110.496V301H111.66V292.6H109.608L107.304 299.788H107.184L104.868 292.6H102.816ZM113.029 298.06C113.029 299.932 114.289 301.168 116.065 301.168C117.841 301.168 119.113 299.932 119.113 298.06C119.113 296.176 117.841 294.94 116.065 294.94C114.289 294.94 113.029 296.176 113.029 298.06ZM114.157 298.06C114.157 296.788 114.925 295.936 116.065 295.936C117.205 295.936 117.985 296.764 117.985 298.06C117.985 299.344 117.205 300.172 116.065 300.172C114.925 300.172 114.157 299.368 114.157 298.06ZM126.194 292.6H125.066V296.02H124.946C124.61 295.468 123.998 294.94 122.834 294.94C121.346 294.94 120.098 296.152 120.098 298.06C120.098 299.968 121.346 301.168 122.834 301.168C123.998 301.168 124.61 300.64 124.97 300.064H125.09V301H126.194V292.6ZM123.146 295.924C124.262 295.924 125.078 296.728 125.078 298.06C125.078 299.38 124.262 300.184 123.146 300.184C122.03 300.184 121.238 299.392 121.238 298.06C121.238 296.716 122.03 295.924 123.146 295.924ZM127.554 298.012C127.554 299.824 128.766 301.168 130.59 301.168C132.21 301.168 132.894 300.232 133.254 299.62L132.318 299.092C132.03 299.668 131.55 300.184 130.59 300.184C129.522 300.184 128.778 299.464 128.706 298.444H133.35V297.892C133.35 296.08 132.186 294.94 130.506 294.94C128.79 294.94 127.554 296.212 127.554 298.012ZM128.718 297.532C128.838 296.548 129.486 295.924 130.506 295.924C131.478 295.924 132.138 296.512 132.198 297.532H128.718ZM135.783 292.6H134.655V301H135.783V292.6ZM137.386 296.68C137.386 297.772 138.298 298.216 139.438 298.42L139.942 298.504C140.758 298.636 141.214 298.864 141.214 299.38C141.214 299.92 140.722 300.28 139.894 300.28C139.066 300.28 138.37 299.932 138.19 298.852L137.134 299.116C137.35 300.496 138.406 301.168 139.894 301.168C141.346 301.168 142.306 300.484 142.306 299.308C142.306 298.12 141.358 297.76 140.11 297.544L139.606 297.472C138.934 297.352 138.49 297.136 138.49 296.62C138.49 296.128 138.934 295.828 139.654 295.828C140.374 295.828 140.89 296.128 141.058 296.92L142.09 296.62C141.838 295.588 140.974 294.94 139.654 294.94C138.274 294.94 137.386 295.588 137.386 296.68Z" fill="white"/>
<rect width="79" height="35" transform="translate(95 364) rotate(180)" fill="#2F3564"/>
<path d="M45.468 341.2L42.584 351H44.25L44.908 348.718H48.548L49.206 351H50.858L47.974 341.2H45.468ZM45.3 347.248L46.658 342.558H46.798L48.142 347.248H45.3ZM52.3775 341.2V351H54.0015V341.2H52.3775ZM60.699 341.2V346.576H62.855C63.037 346.226 63.429 345.764 64.269 345.764C65.277 345.764 65.977 346.464 65.977 347.626C65.977 348.928 65.221 349.754 63.975 349.754C62.715 349.754 61.973 348.97 61.973 347.71V347.528H60.363V347.822C60.363 349.866 61.847 351.196 64.017 351.196C66.173 351.196 67.601 349.726 67.601 347.556C67.601 345.582 66.243 344.392 64.675 344.392C63.317 344.392 62.743 345.092 62.477 345.526H62.309V342.67H67.279V341.2H60.699Z" fill="white"/>
<rect width="249" height="35" transform="translate(95 329)" fill="#76623B"/>
<path d="M107.487 340.6V349H108.675V345.712H110.775C112.287 345.712 113.427 344.74 113.427 343.156C113.427 341.584 112.311 340.6 110.775 340.6H107.487ZM108.675 341.668H110.655C111.639 341.668 112.239 342.232 112.239 343.156C112.239 344.08 111.639 344.644 110.655 344.644H108.675V341.668ZM115.718 343.108H114.614V349H115.742V345.448C115.742 344.5 116.294 344.056 117.122 344.056H118.046V343.084H117.314C116.534 343.084 116.066 343.312 115.838 343.9H115.718V343.108ZM118.522 346.06C118.522 347.932 119.782 349.168 121.558 349.168C123.334 349.168 124.606 347.932 124.606 346.06C124.606 344.176 123.334 342.94 121.558 342.94C119.782 342.94 118.522 344.176 118.522 346.06ZM119.65 346.06C119.65 344.788 120.418 343.936 121.558 343.936C122.698 343.936 123.478 344.764 123.478 346.06C123.478 347.344 122.698 348.172 121.558 348.172C120.418 348.172 119.65 347.368 119.65 346.06ZM131.688 340.6H130.56V344.02H130.44C130.104 343.468 129.492 342.94 128.328 342.94C126.84 342.94 125.592 344.152 125.592 346.06C125.592 347.968 126.84 349.168 128.328 349.168C129.492 349.168 130.104 348.64 130.464 348.064H130.584V349H131.688V340.6ZM128.64 343.924C129.756 343.924 130.572 344.728 130.572 346.06C130.572 347.38 129.756 348.184 128.64 348.184C127.524 348.184 126.732 347.392 126.732 346.06C126.732 344.716 127.524 343.924 128.64 343.924ZM138.94 349V343.108H137.812V346.108C137.812 347.452 137.104 348.172 136.048 348.172C135.1 348.172 134.524 347.68 134.524 346.6V343.108H133.408V346.66C133.408 348.196 134.404 349.108 135.724 349.108C136.888 349.108 137.452 348.58 137.716 348.052H137.836V349H138.94ZM140.293 346.06C140.293 347.884 141.649 349.168 143.353 349.168C144.973 349.168 145.933 348.196 146.221 346.924L145.129 346.672C144.973 347.548 144.421 348.172 143.365 348.172C142.273 348.172 141.433 347.332 141.433 346.06C141.433 344.776 142.261 343.936 143.365 343.936C144.373 343.936 144.985 344.572 145.081 345.424L146.185 345.196C145.957 343.936 144.949 342.94 143.353 342.94C141.649 342.94 140.293 344.224 140.293 346.06ZM146.78 344.032H148.484V347.896C148.484 348.568 148.916 349 149.576 349H151.208V348.076H149.948C149.732 348.076 149.612 347.956 149.612 347.716V344.032H151.436V343.108H149.612V341.092H148.484V343.108H146.78V344.032ZM152.452 341.32C152.452 341.812 152.824 342.172 153.316 342.172C153.82 342.172 154.192 341.812 154.192 341.32C154.192 340.816 153.82 340.456 153.316 340.456C152.824 340.456 152.452 340.816 152.452 341.32ZM153.88 343.108H152.752V349H153.88V343.108ZM155.231 346.06C155.231 347.932 156.491 349.168 158.267 349.168C160.043 349.168 161.315 347.932 161.315 346.06C161.315 344.176 160.043 342.94 158.267 342.94C156.491 342.94 155.231 344.176 155.231 346.06ZM156.359 346.06C156.359 344.788 157.127 343.936 158.267 343.936C159.407 343.936 160.187 344.764 160.187 346.06C160.187 347.344 159.407 348.172 158.267 348.172C157.127 348.172 156.359 347.368 156.359 346.06ZM162.672 343.108V349H163.8V346C163.8 344.656 164.508 343.936 165.564 343.936C166.512 343.936 167.088 344.428 167.088 345.508V349H168.204V345.448C168.204 343.912 167.208 343 165.888 343C164.724 343 164.16 343.528 163.896 344.056H163.776V343.108H162.672ZM169.558 341.32C169.558 341.812 169.93 342.172 170.422 342.172C170.926 342.172 171.298 341.812 171.298 341.32C171.298 340.816 170.926 340.456 170.422 340.456C169.93 340.456 169.558 340.816 169.558 341.32ZM170.986 343.108H169.858V349H170.986V343.108ZM172.589 343.108V344.032H176.177L172.469 348.16V349H177.773V348.076H173.981L177.677 343.948V343.108H172.589ZM178.88 341.32C178.88 341.812 179.252 342.172 179.744 342.172C180.248 342.172 180.62 341.812 180.62 341.32C180.62 340.816 180.248 340.456 179.744 340.456C179.252 340.456 178.88 340.816 178.88 341.32ZM180.308 343.108H179.18V349H180.308V343.108ZM182.031 343.108V349H183.159V346C183.159 344.656 183.867 343.936 184.923 343.936C185.871 343.936 186.447 344.428 186.447 345.508V349H187.563V345.448C187.563 343.912 186.567 343 185.247 343C184.083 343 183.519 343.528 183.255 344.056H183.135V343.108H182.031ZM193.837 343.108V344.056H193.717C193.357 343.468 192.733 342.94 191.581 342.94C190.093 342.94 188.845 344.14 188.845 345.976C188.845 347.824 190.093 349.012 191.581 349.012C192.733 349.012 193.357 348.472 193.693 347.944H193.813V348.64C193.813 349.948 193.045 350.608 191.893 350.608C190.753 350.608 190.189 349.948 189.973 349.252L188.953 349.672C189.241 350.536 190.129 351.568 191.917 351.568C193.729 351.568 194.941 350.536 194.941 348.688V343.108H193.837ZM191.893 348.04C190.777 348.04 189.985 347.248 189.985 345.976C189.985 344.716 190.777 343.924 191.893 343.924C193.009 343.924 193.825 344.716 193.825 345.976C193.825 347.236 193.009 348.04 191.893 348.04ZM202.252 340.6L199.66 349H200.884L201.508 346.96H204.82L205.444 349H206.68L204.088 340.6H202.252ZM201.808 345.88L203.104 341.632H203.224L204.52 345.88H201.808ZM207.742 340.6V349H208.93V340.6H207.742ZM215.065 348.652C215.065 351.016 216.349 351.976 218.197 351.976V350.956C216.853 350.92 216.193 350.152 216.193 348.556V342.724C216.193 341.128 216.853 340.36 218.197 340.324V339.304C216.349 339.304 215.065 340.264 215.065 342.628V348.652ZM219.375 340.6V349H220.539V341.836H220.659L222.963 349H224.643L226.935 341.836H227.055V349H228.219V340.6H226.167L223.863 347.788H223.743L221.427 340.6H219.375ZM229.972 340.6V349H235.348V347.932H231.16V340.6H229.972ZM236.19 343.828V345.772C236.19 347.98 237.498 349.168 239.538 349.168C241.578 349.168 242.886 347.98 242.886 345.772V343.828C242.886 341.62 241.578 340.432 239.538 340.432C237.498 340.432 236.19 341.62 236.19 343.828ZM237.378 343.78C237.378 342.364 238.182 341.488 239.538 341.488C240.894 341.488 241.698 342.364 241.698 343.78V345.82C241.698 347.236 240.894 348.112 239.538 348.112C238.182 348.112 237.378 347.236 237.378 345.82V343.78ZM244.344 351.4H245.472V348.1H245.592C245.928 348.64 246.54 349.168 247.692 349.168C249.192 349.168 250.44 347.968 250.44 346.06C250.44 344.152 249.192 342.94 247.692 342.94C246.54 342.94 245.928 343.468 245.568 344.056H245.448V343.108H244.344V351.4ZM247.392 348.184C246.264 348.184 245.46 347.38 245.46 346.06C245.46 344.728 246.264 343.924 247.392 343.924C248.508 343.924 249.3 344.716 249.3 346.06C249.3 347.392 248.508 348.184 247.392 348.184ZM251.645 344.68C251.645 345.772 252.557 346.216 253.697 346.42L254.201 346.504C255.017 346.636 255.473 346.864 255.473 347.38C255.473 347.92 254.981 348.28 254.153 348.28C253.325 348.28 252.629 347.932 252.449 346.852L251.393 347.116C251.609 348.496 252.665 349.168 254.153 349.168C255.605 349.168 256.565 348.484 256.565 347.308C256.565 346.12 255.617 345.76 254.369 345.544L253.865 345.472C253.193 345.352 252.749 345.136 252.749 344.62C252.749 344.128 253.193 343.828 253.913 343.828C254.633 343.828 255.149 344.128 255.317 344.92L256.349 344.62C256.097 343.588 255.233 342.94 253.913 342.94C252.533 342.94 251.645 343.588 251.645 344.68ZM260.476 348.652V342.628C260.476 340.264 259.204 339.304 257.344 339.304V340.324C258.7 340.36 259.36 341.128 259.36 342.724V348.556C259.36 350.152 258.7 350.92 257.344 350.956V351.976C259.204 351.976 260.476 351.016 260.476 348.652Z" fill="white"/>
<path d="M16 396V408H344V396" stroke="#787878"/>
<path d="M148.882 422.76C148.882 424.944 150.202 426.168 152.29 426.168C154.354 426.168 155.554 424.98 155.554 423.156V422.868H154.174V423.18C154.174 424.164 153.55 424.932 152.29 424.932C151.042 424.932 150.274 424.116 150.274 422.784V420.816C150.274 419.484 151.03 418.668 152.29 418.668C153.526 418.668 154.174 419.448 154.174 420.432V420.66H155.554V420.456C155.554 418.62 154.378 417.432 152.29 417.432C150.202 417.432 148.882 418.656 148.882 420.84V422.76ZM156.67 423.036C156.67 424.956 157.978 426.168 159.754 426.168C161.53 426.168 162.826 424.956 162.826 423.036C162.826 421.128 161.53 419.916 159.754 419.916C157.978 419.916 156.67 421.128 156.67 423.036ZM157.99 423.036C157.99 421.824 158.71 421.068 159.754 421.068C160.786 421.068 161.506 421.812 161.506 423.036C161.506 424.26 160.786 425.016 159.754 425.016C158.71 425.016 157.99 424.272 157.99 423.036ZM169.944 426V420.084H168.636V423.12C168.636 424.332 168 425.016 167.016 425.016C166.14 425.016 165.624 424.548 165.624 423.564V420.084H164.304V423.636C164.304 425.136 165.264 426.096 166.62 426.096C167.748 426.096 168.276 425.604 168.54 425.076H168.66V426H169.944ZM173.073 420.084H171.789V426H173.097V422.496C173.097 421.596 173.661 421.176 174.453 421.176H175.365V420.06H174.681C173.913 420.06 173.433 420.288 173.193 420.9H173.073V420.084ZM176.377 421.704C176.377 422.832 177.313 423.276 178.513 423.492L178.921 423.564C179.701 423.708 180.097 423.9 180.097 424.356C180.097 424.812 179.677 425.148 178.921 425.148C178.153 425.148 177.529 424.836 177.361 423.864L176.137 424.164C176.341 425.484 177.397 426.168 178.921 426.168C180.409 426.168 181.369 425.472 181.369 424.26C181.369 423.048 180.397 422.7 179.101 422.46L178.693 422.388C178.045 422.268 177.649 422.076 177.649 421.62C177.649 421.188 178.033 420.924 178.681 420.924C179.329 420.924 179.797 421.2 179.941 421.92L181.141 421.56C180.877 420.564 180.013 419.916 178.681 419.916C177.289 419.916 176.377 420.564 176.377 421.704ZM182.485 423.012C182.485 424.872 183.709 426.168 185.509 426.168C187.141 426.168 187.837 425.232 188.185 424.608L187.093 424.02C186.853 424.536 186.433 425.028 185.533 425.028C184.585 425.028 183.889 424.368 183.841 423.456H188.329V422.916C188.329 421.104 187.177 419.904 185.461 419.904C183.721 419.904 182.485 421.164 182.485 423.012ZM183.853 422.436C183.961 421.608 184.537 421.044 185.449 421.044C186.325 421.044 186.913 421.584 186.985 422.436H183.853ZM189.624 421.704C189.624 422.832 190.56 423.276 191.76 423.492L192.168 423.564C192.948 423.708 193.344 423.9 193.344 424.356C193.344 424.812 192.924 425.148 192.168 425.148C191.4 425.148 190.776 424.836 190.608 423.864L189.384 424.164C189.588 425.484 190.644 426.168 192.168 426.168C193.656 426.168 194.616 425.472 194.616 424.26C194.616 423.048 193.644 422.7 192.348 422.46L191.94 422.388C191.292 422.268 190.896 422.076 190.896 421.62C190.896 421.188 191.28 420.924 191.928 420.924C192.576 420.924 193.044 421.2 193.188 421.92L194.388 421.56C194.124 420.564 193.26 419.916 191.928 419.916C190.536 419.916 189.624 420.564 189.624 421.704Z" fill="#787878"/>
<path d="M16.882 4.2L16.882 14H18.45L18.45 5.88H18.59L20.998 14H23.28L25.674 5.88H25.814L25.814 14H27.396L27.396 4.2H24.61L22.202 12.362H22.062L19.668 4.2H16.882ZM29.4393 8.89L30.8673 9.366C31.0073 8.652 31.4973 8.134 32.4633 8.134C33.4293 8.134 33.8913 8.68 33.8913 9.422L33.8913 9.842H31.8473C30.3073 9.842 29.2013 10.57 29.2013 11.998C29.2013 13.398 30.3073 14.196 31.7353 14.196C33.0513 14.196 33.5413 13.51 33.7373 13.132H33.9193L33.9193 14H35.3893L35.3893 9.534C35.3893 7.84 34.2693 6.888 32.4773 6.888C30.6993 6.888 29.7753 7.812 29.4393 8.89ZM30.7413 11.956C30.7413 11.382 31.2033 11.032 31.9453 11.032H33.8913L33.8913 11.158C33.8913 12.25 33.1213 12.936 32.0293 12.936C31.2033 12.936 30.7413 12.544 30.7413 11.956ZM37.3242 8.988C37.3242 10.304 38.4162 10.822 39.8162 11.074L40.2922 11.158C41.2022 11.326 41.6642 11.55 41.6642 12.082C41.6642 12.614 41.1742 13.006 40.2922 13.006C39.3962 13.006 38.6682 12.642 38.4722 11.508L37.0442 11.858C37.2822 13.398 38.5142 14.196 40.2922 14.196C42.0282 14.196 43.1482 13.384 43.1482 11.97C43.1482 10.556 42.0142 10.15 40.5022 9.87L40.0262 9.786C39.2702 9.646 38.8082 9.422 38.8082 8.89C38.8082 8.386 39.2562 8.078 40.0122 8.078C40.7682 8.078 41.3142 8.4 41.4822 9.24L42.8822 8.82C42.5742 7.658 41.5662 6.902 40.0122 6.902C38.3882 6.902 37.3242 7.658 37.3242 8.988ZM44.0725 8.344H45.9345L45.9345 12.572C45.9345 13.44 46.4945 14 47.3345 14H49.2805L49.2805 12.74H47.8665C47.6145 12.74 47.4745 12.6 47.4745 12.32L47.4745 8.344H49.4905L49.4905 7.098H47.4745L47.4745 4.844H45.9345L45.9345 7.098H44.0725L44.0725 8.344ZM50.6257 10.514C50.6257 12.684 52.0537 14.196 54.1537 14.196C56.0577 14.196 56.8697 13.104 57.2757 12.376L56.0017 11.69C55.7217 12.292 55.2317 12.866 54.1817 12.866C53.0757 12.866 52.2637 12.096 52.2077 11.032H57.4437L57.4437 10.402C57.4437 8.288 56.0997 6.888 54.0977 6.888C52.0677 6.888 50.6257 8.358 50.6257 10.514ZM52.2217 9.842C52.3477 8.876 53.0197 8.218 54.0837 8.218C55.1057 8.218 55.7917 8.848 55.8757 9.842H52.2217ZM60.6066 7.098H59.1086L59.1086 14L60.6346 14L60.6346 9.912C60.6346 8.862 61.2926 8.372 62.2166 8.372H63.2806L63.2806 7.07H62.4826C61.5866 7.07 61.0266 7.336 60.7466 8.05H60.6066L60.6066 7.098ZM69.1228 4.2L69.1228 14H70.6908L70.6908 5.88H70.8308L73.2388 14H75.5208L77.9148 5.88H78.0548L78.0548 14H79.6368L79.6368 4.2H76.8508L74.4428 12.362H74.3028L71.9088 4.2H69.1228ZM81.8201 4.2L81.8201 14H88.1481L88.1481 12.53H83.4441L83.4441 4.2H81.8201ZM98.1791 4.2H96.5691C94.9311 4.2 93.6851 5.124 93.6851 6.818C93.6851 7.994 94.3711 8.666 95.2811 8.932L95.2811 9.128C94.3711 9.408 93.6291 10.164 93.6291 11.368C93.6291 13.02 94.8191 14 96.5131 14H99.9291L99.9291 9.688H101.245L101.245 8.4H99.9291L99.9291 7.056H98.3891L98.3891 8.4H96.8351C95.9671 8.4 95.2391 7.966 95.2391 6.944C95.2391 5.964 95.9251 5.488 96.8351 5.488H98.1791L98.1791 4.2ZM96.7791 9.688H98.3891L98.3891 12.712H96.7791C95.9111 12.712 95.1691 12.236 95.1691 11.2C95.1691 10.192 95.8691 9.688 96.7791 9.688ZM109.252 4.2L106.368 14H108.034L108.692 11.718H112.332L112.99 14H114.642L111.758 4.2L109.252 4.2ZM109.084 10.248L110.442 5.558H110.582L111.926 10.248H109.084ZM116.022 4.2L116.022 14L117.646 14L117.646 4.2H116.022Z" fill="#1E2029"/>
</g>
<defs>
<clipPath id="clip0_5460_5154">
<rect width="360" height="430" fill="white"/>
</clipPath>
</defs>
</svg>
