<svg width="1175" height="98" viewBox="0 0 1175 98" fill="none" xmlns="http://www.w3.org/2000/svg">
<rect width="1175" height="98" fill="white"/>
<rect width="128" height="27" transform="translate(0 23)" fill="#DCE0FA"/>
<path d="M14.968 31.2L12.084 41H13.75L14.408 38.718H18.048L18.706 41H20.358L17.474 31.2H14.968ZM14.8 37.248L16.158 32.558H16.298L17.642 37.248H14.8ZM21.8775 31.2V41H23.5015V31.2H21.8775ZM32.089 31.2L29.499 35.568H31.221L32.775 32.922H32.943V41H34.567V31.2H32.089Z" fill="#1E2029"/>
<rect width="128" height="48" transform="translate(0 50)" fill="#E3C668"/>
<path d="M14.712 61.6L12.12 70H13.344L13.968 67.96H17.28L17.904 70H19.14L16.548 61.6H14.712ZM14.268 66.88L15.564 62.632H15.684L16.98 66.88H14.268ZM20.2016 61.6V70H21.3896V61.6H20.2016ZM26.8166 61.6V70H30.4166C31.8566 70 32.9126 69.16 32.9126 67.744C32.9126 66.532 32.0966 66.004 31.4726 65.824V65.704C32.0966 65.524 32.8766 65.008 32.8766 63.808C32.8766 62.452 31.8446 61.6 30.4046 61.6H26.8166ZM28.0046 62.668H30.2846C31.1606 62.668 31.7366 63.184 31.7366 63.94C31.7366 64.72 31.1846 65.236 30.2966 65.236H28.0046V62.668ZM28.0046 66.316H30.2846C31.2206 66.316 31.7606 66.808 31.7606 67.612C31.7606 68.392 31.2206 68.932 30.3086 68.932H28.0046V66.316ZM34.1869 65.692L35.2429 66.028C35.3869 65.356 35.8669 64.864 36.7549 64.864C37.6549 64.864 38.0989 65.368 38.0989 66.1V66.484H36.2269C34.9429 66.484 33.9949 67.096 33.9949 68.308C33.9949 69.496 34.9429 70.168 36.1669 70.168C37.3069 70.168 37.7629 69.604 37.9789 69.208H38.1229V70H39.2029V66.172C39.2029 64.756 38.2789 63.94 36.7669 63.94C35.2669 63.94 34.4749 64.732 34.1869 65.692ZM35.1229 68.284C35.1229 67.708 35.5909 67.396 36.2869 67.396H38.0989V67.516C38.0989 68.584 37.3909 69.244 36.3589 69.244C35.5909 69.244 35.1229 68.86 35.1229 68.284ZM40.741 65.68C40.741 66.772 41.653 67.216 42.793 67.42L43.297 67.504C44.113 67.636 44.569 67.864 44.569 68.38C44.569 68.92 44.077 69.28 43.249 69.28C42.421 69.28 41.725 68.932 41.545 67.852L40.489 68.116C40.705 69.496 41.761 70.168 43.249 70.168C44.701 70.168 45.661 69.484 45.661 68.308C45.661 67.12 44.713 66.76 43.465 66.544L42.961 66.472C42.289 66.352 41.845 66.136 41.845 65.62C41.845 65.128 42.289 64.828 43.009 64.828C43.729 64.828 44.245 65.128 44.413 65.92L45.445 65.62C45.193 64.588 44.329 63.94 43.009 63.94C41.629 63.94 40.741 64.588 40.741 65.68ZM46.7045 62.32C46.7045 62.812 47.0765 63.172 47.5685 63.172C48.0725 63.172 48.4445 62.812 48.4445 62.32C48.4445 61.816 48.0725 61.456 47.5685 61.456C47.0765 61.456 46.7045 61.816 46.7045 62.32ZM48.1325 64.108H47.0045V70H48.1325V64.108ZM49.4829 67.06C49.4829 68.884 50.8389 70.168 52.5429 70.168C54.1629 70.168 55.1229 69.196 55.4109 67.924L54.3189 67.672C54.1629 68.548 53.6109 69.172 52.5549 69.172C51.4629 69.172 50.6229 68.332 50.6229 67.06C50.6229 65.776 51.4509 64.936 52.5549 64.936C53.5629 64.936 54.1749 65.572 54.2709 66.424L55.3749 66.196C55.1469 64.936 54.1389 63.94 52.5429 63.94C50.8389 63.94 49.4829 65.224 49.4829 67.06ZM56.5815 65.68C56.5815 66.772 57.4935 67.216 58.6335 67.42L59.1375 67.504C59.9535 67.636 60.4095 67.864 60.4095 68.38C60.4095 68.92 59.9175 69.28 59.0895 69.28C58.2615 69.28 57.5655 68.932 57.3855 67.852L56.3295 68.116C56.5455 69.496 57.6015 70.168 59.0895 70.168C60.5415 70.168 61.5015 69.484 61.5015 68.308C61.5015 67.12 60.5535 66.76 59.3055 66.544L58.8015 66.472C58.1295 66.352 57.6855 66.136 57.6855 65.62C57.6855 65.128 58.1295 64.828 58.8495 64.828C59.5695 64.828 60.0855 65.128 60.2535 65.92L61.2855 65.62C61.0335 64.588 60.1695 63.94 58.8495 63.94C57.4695 63.94 56.5815 64.588 56.5815 65.68Z" fill="#1E2029"/>
<rect width="128" height="27" transform="translate(136 23)" fill="#DCE0FA"/>
<path d="M150.968 31.2L148.084 41H149.75L150.408 38.718H154.048L154.706 41H156.358L153.474 31.2H150.968ZM150.8 37.248L152.158 32.558H152.298L153.642 37.248H150.8ZM157.878 31.2V41H159.502V31.2H157.878ZM165.947 34.448V34.784H167.557V34.476C167.557 33.104 168.467 32.446 169.601 32.446C170.707 32.446 171.449 33.09 171.449 34.182C171.449 35.386 170.581 35.918 169.097 36.31C167.249 36.786 165.961 37.626 165.961 39.474V41H173.031V39.53H167.585V39.334C167.585 38.242 168.397 37.934 169.867 37.556C171.911 37.038 173.073 36.128 173.073 34.224C173.073 32.236 171.491 31.004 169.573 31.004C167.599 31.004 165.947 32.194 165.947 34.448Z" fill="#1E2029"/>
<rect width="128" height="48" transform="translate(136 50)" fill="#E3C668"/>
<path d="M148.528 66.724C148.528 68.92 149.812 70.168 151.9 70.168C153.892 70.168 155.092 69.004 155.092 67.168V66.904H153.904V67.18C153.904 68.308 153.244 69.112 151.9 69.112C150.544 69.112 149.716 68.212 149.716 66.748V64.852C149.716 63.388 150.532 62.488 151.9 62.488C153.208 62.488 153.904 63.304 153.904 64.432V64.636H155.092V64.444C155.092 62.608 153.94 61.432 151.9 61.432C149.836 61.432 148.528 62.68 148.528 64.876V66.724ZM156.483 61.6V70H157.671V62.836H157.791L160.647 70H162.675V61.6H161.487V68.764H161.367L158.511 61.6H156.483ZM164.431 61.6V70H165.619V62.836H165.739L168.595 70H170.623V61.6H169.435V68.764H169.315L166.459 61.6H164.431Z" fill="#1E2029"/>
<rect width="128" height="27" transform="translate(272 23)" fill="#DCE0FA"/>
<path d="M284.882 31.2V41H288.102C290.72 41 292.134 39.67 292.134 37.01V35.19C292.134 32.53 290.72 31.2 288.102 31.2H284.882ZM286.506 32.67H288.116C289.74 32.67 290.524 33.51 290.524 35.134V37.066C290.524 38.69 289.754 39.53 288.116 39.53H286.506V32.67ZM297.33 31.004C295.272 31.004 293.928 32.054 293.928 33.804C293.928 35.54 295.076 36.226 297.022 36.66L297.484 36.758C298.758 37.052 299.486 37.374 299.486 38.27C299.486 39.152 298.772 39.768 297.428 39.768C296.07 39.768 295.216 39.124 295.216 37.78V37.654H293.62V37.78C293.62 39.978 295.202 41.196 297.428 41.196C299.654 41.196 301.082 39.992 301.082 38.228C301.082 36.464 299.766 35.75 297.806 35.33L297.344 35.218C296.112 34.938 295.524 34.588 295.524 33.748C295.524 32.922 296.154 32.432 297.33 32.432C298.534 32.432 299.318 32.922 299.318 34.14V34.448H300.914V34.14C300.914 32.054 299.388 31.004 297.33 31.004ZM309.216 31.2L306.626 35.568H308.348L309.902 32.922H310.07V41H311.694V31.2H309.216Z" fill="#1E2029"/>
<rect width="128" height="48" transform="translate(272 50)" fill="#E3C668"/>
<path d="M284.816 61.6V70H287.456C289.676 70 290.924 68.884 290.924 66.58V65.02C290.924 62.716 289.676 61.6 287.456 61.6H284.816ZM286.004 62.668H287.468C288.968 62.668 289.736 63.424 289.736 64.984V66.616C289.736 68.164 288.992 68.932 287.468 68.932H286.004V62.668ZM292.233 65.692L293.289 66.028C293.433 65.356 293.913 64.864 294.801 64.864C295.701 64.864 296.145 65.368 296.145 66.1V66.484H294.273C292.989 66.484 292.041 67.096 292.041 68.308C292.041 69.496 292.989 70.168 294.213 70.168C295.353 70.168 295.809 69.604 296.025 69.208H296.169V70H297.249V66.172C297.249 64.756 296.325 63.94 294.813 63.94C293.313 63.94 292.521 64.732 292.233 65.692ZM293.169 68.284C293.169 67.708 293.637 67.396 294.333 67.396H296.145V67.516C296.145 68.584 295.437 69.244 294.405 69.244C293.637 69.244 293.169 68.86 293.169 68.284ZM298.082 65.032H299.786V68.896C299.786 69.568 300.218 70 300.878 70H302.51V69.076H301.25C301.034 69.076 300.914 68.956 300.914 68.716V65.032H302.738V64.108H300.914V62.092H299.786V64.108H298.082V65.032ZM303.911 65.692L304.967 66.028C305.111 65.356 305.591 64.864 306.479 64.864C307.379 64.864 307.823 65.368 307.823 66.1V66.484H305.951C304.667 66.484 303.719 67.096 303.719 68.308C303.719 69.496 304.667 70.168 305.891 70.168C307.031 70.168 307.487 69.604 307.703 69.208H307.847V70H308.927V66.172C308.927 64.756 308.003 63.94 306.491 63.94C304.991 63.94 304.199 64.732 303.911 65.692ZM304.847 68.284C304.847 67.708 305.315 67.396 306.011 67.396H307.823V67.516C307.823 68.584 307.115 69.244 306.083 69.244C305.315 69.244 304.847 68.86 304.847 68.284ZM317.028 61.432C315.3 61.432 314.136 62.32 314.136 63.772C314.136 65.224 315.12 65.812 316.692 66.172L317.208 66.292C318.312 66.544 318.996 66.844 318.996 67.696C318.996 68.536 318.312 69.124 317.088 69.124C315.852 69.124 315.036 68.512 315.036 67.216V67.108H313.86V67.216C313.86 69.148 315.204 70.168 317.088 70.168C318.96 70.168 320.16 69.16 320.16 67.672C320.16 66.172 319.056 65.596 317.484 65.236L316.968 65.116C315.876 64.864 315.312 64.564 315.312 63.748C315.312 62.932 315.96 62.476 317.028 62.476C318.12 62.476 318.888 62.932 318.888 64.072V64.396H320.064V64.072C320.064 62.32 318.756 61.432 317.028 61.432ZM321.175 67.06C321.175 68.884 322.531 70.168 324.235 70.168C325.855 70.168 326.815 69.196 327.103 67.924L326.011 67.672C325.855 68.548 325.303 69.172 324.247 69.172C323.155 69.172 322.315 68.332 322.315 67.06C322.315 65.776 323.143 64.936 324.247 64.936C325.255 64.936 325.867 65.572 325.963 66.424L327.067 66.196C326.839 64.936 325.831 63.94 324.235 63.94C322.531 63.94 321.175 65.224 321.175 67.06ZM328.129 62.32C328.129 62.812 328.501 63.172 328.993 63.172C329.497 63.172 329.869 62.812 329.869 62.32C329.869 61.816 329.497 61.456 328.993 61.456C328.501 61.456 328.129 61.816 328.129 62.32ZM329.557 64.108H328.429V70H329.557V64.108ZM330.908 67.012C330.908 68.824 332.12 70.168 333.944 70.168C335.564 70.168 336.248 69.232 336.608 68.62L335.672 68.092C335.384 68.668 334.904 69.184 333.944 69.184C332.876 69.184 332.132 68.464 332.06 67.444H336.704V66.892C336.704 65.08 335.54 63.94 333.86 63.94C332.144 63.94 330.908 65.212 330.908 67.012ZM332.072 66.532C332.192 65.548 332.84 64.924 333.86 64.924C334.832 64.924 335.492 65.512 335.552 66.532H332.072ZM338.009 64.108V70H339.137V67C339.137 65.656 339.845 64.936 340.901 64.936C341.849 64.936 342.425 65.428 342.425 66.508V70H343.541V66.448C343.541 64.912 342.545 64 341.225 64C340.061 64 339.497 64.528 339.233 65.056H339.113V64.108H338.009ZM344.823 67.06C344.823 68.884 346.179 70.168 347.883 70.168C349.503 70.168 350.463 69.196 350.751 67.924L349.659 67.672C349.503 68.548 348.951 69.172 347.895 69.172C346.803 69.172 345.963 68.332 345.963 67.06C345.963 65.776 346.791 64.936 347.895 64.936C348.903 64.936 349.515 65.572 349.611 66.424L350.715 66.196C350.487 64.936 349.479 63.94 347.883 63.94C346.179 63.94 344.823 65.224 344.823 67.06ZM351.705 67.012C351.705 68.824 352.917 70.168 354.741 70.168C356.361 70.168 357.045 69.232 357.405 68.62L356.469 68.092C356.181 68.668 355.701 69.184 354.741 69.184C353.673 69.184 352.929 68.464 352.857 67.444H357.501V66.892C357.501 65.08 356.337 63.94 354.657 63.94C352.941 63.94 351.705 65.212 351.705 67.012ZM352.869 66.532C352.989 65.548 353.637 64.924 354.657 64.924C355.629 64.924 356.289 65.512 356.349 66.532H352.869ZM284.816 77.6V86H288.416C289.856 86 290.912 85.16 290.912 83.744C290.912 82.532 290.096 82.004 289.472 81.824V81.704C290.096 81.524 290.876 81.008 290.876 79.808C290.876 78.452 289.844 77.6 288.404 77.6H284.816ZM286.004 78.668H288.284C289.16 78.668 289.736 79.184 289.736 79.94C289.736 80.72 289.184 81.236 288.296 81.236H286.004V78.668ZM286.004 82.316H288.284C289.22 82.316 289.76 82.808 289.76 83.612C289.76 84.392 289.22 84.932 288.308 84.932H286.004V82.316ZM292.186 81.692L293.242 82.028C293.386 81.356 293.866 80.864 294.754 80.864C295.654 80.864 296.098 81.368 296.098 82.1V82.484H294.226C292.942 82.484 291.994 83.096 291.994 84.308C291.994 85.496 292.942 86.168 294.166 86.168C295.306 86.168 295.762 85.604 295.978 85.208H296.122V86H297.202V82.172C297.202 80.756 296.278 79.94 294.766 79.94C293.266 79.94 292.474 80.732 292.186 81.692ZM293.122 84.284C293.122 83.708 293.59 83.396 294.286 83.396H296.098V83.516C296.098 84.584 295.39 85.244 294.358 85.244C293.59 85.244 293.122 84.86 293.122 84.284ZM298.74 81.68C298.74 82.772 299.652 83.216 300.792 83.42L301.296 83.504C302.112 83.636 302.568 83.864 302.568 84.38C302.568 84.92 302.076 85.28 301.248 85.28C300.42 85.28 299.724 84.932 299.544 83.852L298.488 84.116C298.704 85.496 299.76 86.168 301.248 86.168C302.7 86.168 303.66 85.484 303.66 84.308C303.66 83.12 302.712 82.76 301.464 82.544L300.96 82.472C300.288 82.352 299.844 82.136 299.844 81.62C299.844 81.128 300.288 80.828 301.008 80.828C301.728 80.828 302.244 81.128 302.412 81.92L303.444 81.62C303.192 80.588 302.328 79.94 301.008 79.94C299.628 79.94 298.74 80.588 298.74 81.68ZM304.704 78.32C304.704 78.812 305.076 79.172 305.568 79.172C306.072 79.172 306.444 78.812 306.444 78.32C306.444 77.816 306.072 77.456 305.568 77.456C305.076 77.456 304.704 77.816 304.704 78.32ZM306.132 80.108H305.004V86H306.132V80.108ZM307.482 83.06C307.482 84.884 308.838 86.168 310.542 86.168C312.162 86.168 313.122 85.196 313.41 83.924L312.318 83.672C312.162 84.548 311.61 85.172 310.554 85.172C309.462 85.172 308.622 84.332 308.622 83.06C308.622 81.776 309.45 80.936 310.554 80.936C311.562 80.936 312.174 81.572 312.27 82.424L313.374 82.196C313.146 80.936 312.138 79.94 310.542 79.94C308.838 79.94 307.482 81.224 307.482 83.06ZM314.581 81.68C314.581 82.772 315.493 83.216 316.633 83.42L317.137 83.504C317.953 83.636 318.409 83.864 318.409 84.38C318.409 84.92 317.917 85.28 317.089 85.28C316.261 85.28 315.565 84.932 315.385 83.852L314.329 84.116C314.545 85.496 315.601 86.168 317.089 86.168C318.541 86.168 319.501 85.484 319.501 84.308C319.501 83.12 318.553 82.76 317.305 82.544L316.801 82.472C316.129 82.352 315.685 82.136 315.685 81.62C315.685 81.128 316.129 80.828 316.849 80.828C317.569 80.828 318.085 81.128 318.253 81.92L319.285 81.62C319.033 80.588 318.169 79.94 316.849 79.94C315.469 79.94 314.581 80.588 314.581 81.68Z" fill="#1E2029"/>
<rect width="128" height="27" transform="translate(424 23)" fill="#636CAD"/>
<path d="M438.968 31.2L436.084 41H437.75L438.408 38.718H442.048L442.706 41H444.358L441.474 31.2H438.968ZM438.8 37.248L440.158 32.558H440.298L441.642 37.248H438.8ZM445.878 31.2V41H447.502V31.2H445.878ZM454.073 31.2V32.67H458.749L456.089 34.896V36.366H457.685C458.721 36.366 459.491 36.884 459.491 37.962C459.491 38.984 458.749 39.754 457.503 39.754C456.173 39.754 455.417 38.956 455.417 37.822V37.444H453.807V37.864C453.807 39.852 455.221 41.196 457.503 41.196C459.617 41.196 461.115 39.908 461.115 37.962C461.115 36.156 459.869 35.176 458.399 35.176H458.049V35.022L460.947 32.628V31.2H454.073Z" fill="white"/>
<rect width="128" height="48" transform="translate(424 50)" fill="#B49848"/>
<path d="M436.816 61.6V70H438.004V62.836H438.124L440.98 70H443.008V61.6H441.82V68.764H441.7L438.844 61.6H436.816ZM444.764 61.6V70H450.14V68.932H445.952V61.6H444.764ZM451.271 61.6V70H452.459V66.712H454.559C456.071 66.712 457.211 65.74 457.211 64.156C457.211 62.584 456.095 61.6 454.559 61.6H451.271ZM452.459 62.668H454.439C455.423 62.668 456.023 63.232 456.023 64.156C456.023 65.08 455.423 65.644 454.439 65.644H452.459V62.668Z" fill="white"/>
<rect width="128" height="27" transform="translate(560 23)" fill="#636CAD"/>
<path d="M572.882 31.2V41H576.102C578.72 41 580.134 39.67 580.134 37.01V35.19C580.134 32.53 578.72 31.2 576.102 31.2H572.882ZM574.506 32.67H576.116C577.74 32.67 578.524 33.51 578.524 35.134V37.066C578.524 38.69 577.754 39.53 576.116 39.53H574.506V32.67ZM585.33 31.004C583.272 31.004 581.928 32.054 581.928 33.804C581.928 35.54 583.076 36.226 585.022 36.66L585.484 36.758C586.758 37.052 587.486 37.374 587.486 38.27C587.486 39.152 586.772 39.768 585.428 39.768C584.07 39.768 583.216 39.124 583.216 37.78V37.654H581.62V37.78C581.62 39.978 583.202 41.196 585.428 41.196C587.654 41.196 589.082 39.992 589.082 38.228C589.082 36.464 587.766 35.75 585.806 35.33L585.344 35.218C584.112 34.938 583.524 34.588 583.524 33.748C583.524 32.922 584.154 32.432 585.33 32.432C586.534 32.432 587.318 32.922 587.318 34.14V34.448H588.914V34.14C588.914 32.054 587.388 31.004 585.33 31.004ZM595.074 34.448V34.784H596.684V34.476C596.684 33.104 597.594 32.446 598.728 32.446C599.834 32.446 600.576 33.09 600.576 34.182C600.576 35.386 599.708 35.918 598.224 36.31C596.376 36.786 595.088 37.626 595.088 39.474V41H602.158V39.53H596.712V39.334C596.712 38.242 597.524 37.934 598.994 37.556C601.038 37.038 602.2 36.128 602.2 34.224C602.2 32.236 600.618 31.004 598.7 31.004C596.726 31.004 595.074 32.194 595.074 34.448Z" fill="white"/>
<rect width="128" height="47" transform="translate(560 50)" fill="#B49848"/>
<path d="M572.816 61.6V70H575.456C577.676 70 578.924 68.884 578.924 66.58V65.02C578.924 62.716 577.676 61.6 575.456 61.6H572.816ZM574.004 62.668H575.468C576.968 62.668 577.736 63.424 577.736 64.984V66.616C577.736 68.164 576.992 68.932 575.468 68.932H574.004V62.668ZM580.233 65.692L581.289 66.028C581.433 65.356 581.913 64.864 582.801 64.864C583.701 64.864 584.145 65.368 584.145 66.1V66.484H582.273C580.989 66.484 580.041 67.096 580.041 68.308C580.041 69.496 580.989 70.168 582.213 70.168C583.353 70.168 583.809 69.604 584.025 69.208H584.169V70H585.249V66.172C585.249 64.756 584.325 63.94 582.813 63.94C581.313 63.94 580.521 64.732 580.233 65.692ZM581.169 68.284C581.169 67.708 581.637 67.396 582.333 67.396H584.145V67.516C584.145 68.584 583.437 69.244 582.405 69.244C581.637 69.244 581.169 68.86 581.169 68.284ZM586.082 65.032H587.786V68.896C587.786 69.568 588.218 70 588.878 70H590.51V69.076H589.25C589.034 69.076 588.914 68.956 588.914 68.716V65.032H590.738V64.108H588.914V62.092H587.786V64.108H586.082V65.032ZM591.911 65.692L592.967 66.028C593.111 65.356 593.591 64.864 594.479 64.864C595.379 64.864 595.823 65.368 595.823 66.1V66.484H593.951C592.667 66.484 591.719 67.096 591.719 68.308C591.719 69.496 592.667 70.168 593.891 70.168C595.031 70.168 595.487 69.604 595.703 69.208H595.847V70H596.927V66.172C596.927 64.756 596.003 63.94 594.491 63.94C592.991 63.94 592.199 64.732 591.911 65.692ZM592.847 68.284C592.847 67.708 593.315 67.396 594.011 67.396H595.823V67.516C595.823 68.584 595.115 69.244 594.083 69.244C593.315 69.244 592.847 68.86 592.847 68.284ZM605.028 61.432C603.3 61.432 602.136 62.32 602.136 63.772C602.136 65.224 603.12 65.812 604.692 66.172L605.208 66.292C606.312 66.544 606.996 66.844 606.996 67.696C606.996 68.536 606.312 69.124 605.088 69.124C603.852 69.124 603.036 68.512 603.036 67.216V67.108H601.86V67.216C601.86 69.148 603.204 70.168 605.088 70.168C606.96 70.168 608.16 69.16 608.16 67.672C608.16 66.172 607.056 65.596 605.484 65.236L604.968 65.116C603.876 64.864 603.312 64.564 603.312 63.748C603.312 62.932 603.96 62.476 605.028 62.476C606.12 62.476 606.888 62.932 606.888 64.072V64.396H608.064V64.072C608.064 62.32 606.756 61.432 605.028 61.432ZM609.175 67.06C609.175 68.884 610.531 70.168 612.235 70.168C613.855 70.168 614.815 69.196 615.103 67.924L614.011 67.672C613.855 68.548 613.303 69.172 612.247 69.172C611.155 69.172 610.315 68.332 610.315 67.06C610.315 65.776 611.143 64.936 612.247 64.936C613.255 64.936 613.867 65.572 613.963 66.424L615.067 66.196C614.839 64.936 613.831 63.94 612.235 63.94C610.531 63.94 609.175 65.224 609.175 67.06ZM616.129 62.32C616.129 62.812 616.501 63.172 616.993 63.172C617.497 63.172 617.869 62.812 617.869 62.32C617.869 61.816 617.497 61.456 616.993 61.456C616.501 61.456 616.129 61.816 616.129 62.32ZM617.557 64.108H616.429V70H617.557V64.108ZM618.908 67.012C618.908 68.824 620.12 70.168 621.944 70.168C623.564 70.168 624.248 69.232 624.608 68.62L623.672 68.092C623.384 68.668 622.904 69.184 621.944 69.184C620.876 69.184 620.132 68.464 620.06 67.444H624.704V66.892C624.704 65.08 623.54 63.94 621.86 63.94C620.144 63.94 618.908 65.212 618.908 67.012ZM620.072 66.532C620.192 65.548 620.84 64.924 621.86 64.924C622.832 64.924 623.492 65.512 623.552 66.532H620.072ZM626.009 64.108V70H627.137V67C627.137 65.656 627.845 64.936 628.901 64.936C629.849 64.936 630.425 65.428 630.425 66.508V70H631.541V66.448C631.541 64.912 630.545 64 629.225 64C628.061 64 627.497 64.528 627.233 65.056H627.113V64.108H626.009ZM632.823 67.06C632.823 68.884 634.179 70.168 635.883 70.168C637.503 70.168 638.463 69.196 638.751 67.924L637.659 67.672C637.503 68.548 636.951 69.172 635.895 69.172C634.803 69.172 633.963 68.332 633.963 67.06C633.963 65.776 634.791 64.936 635.895 64.936C636.903 64.936 637.515 65.572 637.611 66.424L638.715 66.196C638.487 64.936 637.479 63.94 635.883 63.94C634.179 63.94 632.823 65.224 632.823 67.06ZM639.705 67.012C639.705 68.824 640.917 70.168 642.741 70.168C644.361 70.168 645.045 69.232 645.405 68.62L644.469 68.092C644.181 68.668 643.701 69.184 642.741 69.184C641.673 69.184 640.929 68.464 640.857 67.444H645.501V66.892C645.501 65.08 644.337 63.94 642.657 63.94C640.941 63.94 639.705 65.212 639.705 67.012ZM640.869 66.532C640.989 65.548 641.637 64.924 642.657 64.924C643.629 64.924 644.289 65.512 644.349 66.532H640.869ZM650.489 61.6V70H651.677V61.6H650.489ZM653.434 61.6V70H654.622V61.6H653.434Z" fill="white"/>
<rect width="128" height="27" transform="translate(712 23)" fill="#2F3564"/>
<path d="M726.968 31.2L724.084 41H725.75L726.408 38.718H730.048L730.706 41H732.358L729.474 31.2H726.968ZM726.8 37.248L728.158 32.558H728.298L729.642 37.248H726.8ZM733.878 31.2V41H735.502V31.2H733.878ZM742.199 31.2V36.576H744.355C744.537 36.226 744.929 35.764 745.769 35.764C746.777 35.764 747.477 36.464 747.477 37.626C747.477 38.928 746.721 39.754 745.475 39.754C744.215 39.754 743.473 38.97 743.473 37.71V37.528H741.863V37.822C741.863 39.866 743.347 41.196 745.517 41.196C747.673 41.196 749.101 39.726 749.101 37.556C749.101 35.582 747.743 34.392 746.175 34.392C744.817 34.392 744.243 35.092 743.977 35.526H743.809V32.67H748.779V31.2H742.199Z" fill="white"/>
<rect width="128" height="48" transform="translate(712 50)" fill="#76623B"/>
<path d="M724.816 61.6V70H726.004V66.712H728.104C729.616 66.712 730.756 65.74 730.756 64.156C730.756 62.584 729.64 61.6 728.104 61.6H724.816ZM726.004 62.668H727.984C728.968 62.668 729.568 63.232 729.568 64.156C729.568 65.08 728.968 65.644 727.984 65.644H726.004V62.668ZM733.048 64.108H731.944V70H733.072V66.448C733.072 65.5 733.624 65.056 734.452 65.056H735.376V64.084H734.644C733.864 64.084 733.396 64.312 733.168 64.9H733.048V64.108ZM735.852 67.06C735.852 68.932 737.112 70.168 738.888 70.168C740.664 70.168 741.936 68.932 741.936 67.06C741.936 65.176 740.664 63.94 738.888 63.94C737.112 63.94 735.852 65.176 735.852 67.06ZM736.98 67.06C736.98 65.788 737.748 64.936 738.888 64.936C740.028 64.936 740.808 65.764 740.808 67.06C740.808 68.344 740.028 69.172 738.888 69.172C737.748 69.172 736.98 68.368 736.98 67.06ZM749.017 61.6H747.889V65.02H747.769C747.433 64.468 746.821 63.94 745.657 63.94C744.169 63.94 742.921 65.152 742.921 67.06C742.921 68.968 744.169 70.168 745.657 70.168C746.821 70.168 747.433 69.64 747.793 69.064H747.913V70H749.017V61.6ZM745.969 64.924C747.085 64.924 747.901 65.728 747.901 67.06C747.901 68.38 747.085 69.184 745.969 69.184C744.853 69.184 744.061 68.392 744.061 67.06C744.061 65.716 744.853 64.924 745.969 64.924ZM756.269 70V64.108H755.141V67.108C755.141 68.452 754.433 69.172 753.377 69.172C752.429 69.172 751.853 68.68 751.853 67.6V64.108H750.737V67.66C750.737 69.196 751.733 70.108 753.053 70.108C754.217 70.108 754.781 69.58 755.045 69.052H755.165V70H756.269ZM757.622 67.06C757.622 68.884 758.978 70.168 760.682 70.168C762.302 70.168 763.262 69.196 763.55 67.924L762.458 67.672C762.302 68.548 761.75 69.172 760.694 69.172C759.602 69.172 758.762 68.332 758.762 67.06C758.762 65.776 759.59 64.936 760.694 64.936C761.702 64.936 762.314 65.572 762.41 66.424L763.514 66.196C763.286 64.936 762.278 63.94 760.682 63.94C758.978 63.94 757.622 65.224 757.622 67.06ZM764.109 65.032H765.813V68.896C765.813 69.568 766.245 70 766.905 70H768.537V69.076H767.277C767.061 69.076 766.941 68.956 766.941 68.716V65.032H768.765V64.108H766.941V62.092H765.813V64.108H764.109V65.032ZM769.782 62.32C769.782 62.812 770.154 63.172 770.646 63.172C771.15 63.172 771.522 62.812 771.522 62.32C771.522 61.816 771.15 61.456 770.646 61.456C770.154 61.456 769.782 61.816 769.782 62.32ZM771.21 64.108H770.082V70H771.21V64.108ZM772.56 67.06C772.56 68.932 773.82 70.168 775.596 70.168C777.372 70.168 778.644 68.932 778.644 67.06C778.644 65.176 777.372 63.94 775.596 63.94C773.82 63.94 772.56 65.176 772.56 67.06ZM773.688 67.06C773.688 65.788 774.456 64.936 775.596 64.936C776.736 64.936 777.516 65.764 777.516 67.06C777.516 68.344 776.736 69.172 775.596 69.172C774.456 69.172 773.688 68.368 773.688 67.06ZM780.001 64.108V70H781.129V67C781.129 65.656 781.837 64.936 782.893 64.936C783.841 64.936 784.417 65.428 784.417 66.508V70H785.533V66.448C785.533 64.912 784.537 64 783.217 64C782.053 64 781.489 64.528 781.225 65.056H781.105V64.108H780.001ZM786.888 62.32C786.888 62.812 787.26 63.172 787.752 63.172C788.256 63.172 788.628 62.812 788.628 62.32C788.628 61.816 788.256 61.456 787.752 61.456C787.26 61.456 786.888 61.816 786.888 62.32ZM788.316 64.108H787.188V70H788.316V64.108ZM789.918 64.108V65.032H793.506L789.798 69.16V70H795.102V69.076H791.31L795.006 64.948V64.108H789.918ZM796.21 62.32C796.21 62.812 796.582 63.172 797.074 63.172C797.578 63.172 797.95 62.812 797.95 62.32C797.95 61.816 797.578 61.456 797.074 61.456C796.582 61.456 796.21 61.816 796.21 62.32ZM797.638 64.108H796.51V70H797.638V64.108ZM799.36 64.108V70H800.488V67C800.488 65.656 801.196 64.936 802.252 64.936C803.2 64.936 803.776 65.428 803.776 66.508V70H804.892V66.448C804.892 64.912 803.896 64 802.576 64C801.412 64 800.848 64.528 800.584 65.056H800.464V64.108H799.36ZM811.167 64.108V65.056H811.047C810.687 64.468 810.063 63.94 808.911 63.94C807.423 63.94 806.175 65.14 806.175 66.976C806.175 68.824 807.423 70.012 808.911 70.012C810.063 70.012 810.687 69.472 811.023 68.944H811.143V69.64C811.143 70.948 810.375 71.608 809.223 71.608C808.083 71.608 807.519 70.948 807.303 70.252L806.283 70.672C806.571 71.536 807.459 72.568 809.247 72.568C811.059 72.568 812.271 71.536 812.271 69.688V64.108H811.167ZM809.223 69.04C808.107 69.04 807.315 68.248 807.315 66.976C807.315 65.716 808.107 64.924 809.223 64.924C810.339 64.924 811.155 65.716 811.155 66.976C811.155 68.236 810.339 69.04 809.223 69.04ZM819.581 61.6L816.989 70H818.213L818.837 67.96H822.149L822.773 70H824.009L821.417 61.6H819.581ZM819.137 66.88L820.433 62.632H820.553L821.849 66.88H819.137ZM825.071 61.6V70H826.259V61.6H825.071ZM725.524 85.652C725.524 88.016 726.808 88.976 728.656 88.976V87.956C727.312 87.92 726.652 87.152 726.652 85.556V79.724C726.652 78.128 727.312 77.36 728.656 77.324V76.304C726.808 76.304 725.524 77.264 725.524 79.628V85.652ZM729.834 77.6V86H730.998V78.836H731.118L733.422 86H735.102L737.394 78.836H737.514V86H738.678V77.6H736.626L734.322 84.788H734.202L731.886 77.6H729.834ZM740.431 77.6V86H745.807V84.932H741.619V77.6H740.431ZM746.65 80.828V82.772C746.65 84.98 747.958 86.168 749.998 86.168C752.038 86.168 753.346 84.98 753.346 82.772V80.828C753.346 78.62 752.038 77.432 749.998 77.432C747.958 77.432 746.65 78.62 746.65 80.828ZM747.838 80.78C747.838 79.364 748.642 78.488 749.998 78.488C751.354 78.488 752.158 79.364 752.158 80.78V82.82C752.158 84.236 751.354 85.112 749.998 85.112C748.642 85.112 747.838 84.236 747.838 82.82V80.78ZM754.804 88.4H755.932V85.1H756.052C756.388 85.64 757 86.168 758.152 86.168C759.652 86.168 760.9 84.968 760.9 83.06C760.9 81.152 759.652 79.94 758.152 79.94C757 79.94 756.388 80.468 756.028 81.056H755.908V80.108H754.804V88.4ZM757.852 85.184C756.724 85.184 755.92 84.38 755.92 83.06C755.92 81.728 756.724 80.924 757.852 80.924C758.968 80.924 759.76 81.716 759.76 83.06C759.76 84.392 758.968 85.184 757.852 85.184ZM762.104 81.68C762.104 82.772 763.016 83.216 764.156 83.42L764.66 83.504C765.476 83.636 765.932 83.864 765.932 84.38C765.932 84.92 765.44 85.28 764.612 85.28C763.784 85.28 763.088 84.932 762.908 83.852L761.852 84.116C762.068 85.496 763.124 86.168 764.612 86.168C766.064 86.168 767.024 85.484 767.024 84.308C767.024 83.12 766.076 82.76 764.828 82.544L764.324 82.472C763.652 82.352 763.208 82.136 763.208 81.62C763.208 81.128 763.652 80.828 764.372 80.828C765.092 80.828 765.608 81.128 765.776 81.92L766.808 81.62C766.556 80.588 765.692 79.94 764.372 79.94C762.992 79.94 762.104 80.588 762.104 81.68ZM770.936 85.652V79.628C770.936 77.264 769.664 76.304 767.804 76.304V77.324C769.16 77.36 769.82 78.128 769.82 79.724V85.556C769.82 87.152 769.16 87.92 767.804 87.956V88.976C769.664 88.976 770.936 88.016 770.936 85.652Z" fill="white"/>
<rect width="128" height="27" transform="translate(864 23)" fill="#1F5F57"/>
<path d="M878.968 31.2L876.084 41H877.75L878.408 38.718H882.048L882.706 41H884.358L881.474 31.2H878.968ZM878.8 37.248L880.158 32.558H880.298L881.642 37.248H878.8ZM885.878 31.2V41H887.502V31.2H885.878ZM897.643 31.2L893.597 37.64V39.054H898.567V41H900.191V39.054H901.815V37.584H900.191V31.2H897.643ZM898.399 32.614H898.567V37.584H895.291L898.399 32.614ZM905.435 31.2L902.551 41H904.217L904.875 38.718H908.515L909.173 41H910.825L907.941 31.2H905.435ZM905.267 37.248L906.625 32.558H906.765L908.109 37.248H905.267Z" fill="white"/>
<rect width="128" height="48" transform="translate(864 50)" fill="#B49848"/>
<path d="M882.996 64.12C882.996 62.56 881.88 61.6 880.344 61.6H876.816V70H878.004V66.64H879.768L881.484 70H882.84L881.004 66.58C882.168 66.34 882.996 65.44 882.996 64.12ZM878.004 62.668H880.224C881.208 62.668 881.808 63.22 881.808 64.12C881.808 65.032 881.208 65.584 880.224 65.584H878.004V62.668ZM883.935 67.012C883.935 68.824 885.147 70.168 886.971 70.168C888.591 70.168 889.275 69.232 889.635 68.62L888.699 68.092C888.411 68.668 887.931 69.184 886.971 69.184C885.903 69.184 885.159 68.464 885.087 67.444H889.731V66.892C889.731 65.08 888.567 63.94 886.887 63.94C885.171 63.94 883.935 65.212 883.935 67.012ZM885.099 66.532C885.219 65.548 885.867 64.924 886.887 64.924C887.859 64.924 888.519 65.512 888.579 66.532H885.099ZM890.736 62.32C890.736 62.812 891.108 63.172 891.6 63.172C892.104 63.172 892.476 62.812 892.476 62.32C892.476 61.816 892.104 61.456 891.6 61.456C891.108 61.456 890.736 61.816 890.736 62.32ZM892.164 64.108H891.036V70H892.164V64.108ZM893.887 64.108V70H895.015V67C895.015 65.656 895.723 64.936 896.779 64.936C897.727 64.936 898.303 65.428 898.303 66.508V70H899.419V66.448C899.419 64.912 898.423 64 897.103 64C895.939 64 895.375 64.528 895.111 65.056H894.991V64.108H893.887ZM900.38 64.108V65.032H902.096V70H903.224V65.032H904.976V64.108H903.224V62.884C903.224 62.644 903.344 62.524 903.56 62.524H904.736V61.6H903.188C902.528 61.6 902.096 62.02 902.096 62.704V64.108H900.38ZM905.755 67.06C905.755 68.932 907.015 70.168 908.791 70.168C910.567 70.168 911.839 68.932 911.839 67.06C911.839 65.176 910.567 63.94 908.791 63.94C907.015 63.94 905.755 65.176 905.755 67.06ZM906.883 67.06C906.883 65.788 907.651 64.936 908.791 64.936C909.931 64.936 910.711 65.764 910.711 67.06C910.711 68.344 909.931 69.172 908.791 69.172C907.651 69.172 906.883 68.368 906.883 67.06ZM914.3 64.108H913.196V70H914.324V66.448C914.324 65.5 914.876 65.056 915.704 65.056H916.628V64.084H915.896C915.116 64.084 914.648 64.312 914.42 64.9H914.3V64.108ZM917.104 67.06C917.104 68.884 918.46 70.168 920.164 70.168C921.784 70.168 922.744 69.196 923.032 67.924L921.94 67.672C921.784 68.548 921.232 69.172 920.176 69.172C919.084 69.172 918.244 68.332 918.244 67.06C918.244 65.776 919.072 64.936 920.176 64.936C921.184 64.936 921.796 65.572 921.892 66.424L922.996 66.196C922.768 64.936 921.76 63.94 920.164 63.94C918.46 63.94 917.104 65.224 917.104 67.06ZM923.986 67.012C923.986 68.824 925.198 70.168 927.022 70.168C928.642 70.168 929.326 69.232 929.686 68.62L928.75 68.092C928.462 68.668 927.982 69.184 927.022 69.184C925.954 69.184 925.21 68.464 925.138 67.444H929.782V66.892C929.782 65.08 928.618 63.94 926.938 63.94C925.222 63.94 923.986 65.212 923.986 67.012ZM925.15 66.532C925.27 65.548 925.918 64.924 926.938 64.924C927.91 64.924 928.57 65.512 928.63 66.532H925.15ZM931.087 64.108V70H932.215V66.448C932.215 65.476 932.755 64.936 933.559 64.936C934.315 64.936 934.747 65.38 934.747 66.124V70H935.875V66.448C935.875 65.476 936.415 64.936 937.219 64.936C937.975 64.936 938.419 65.38 938.419 66.124V70H939.535V66.052C939.535 64.744 938.695 64 937.555 64C936.607 64 936.079 64.42 935.767 65.02H935.647C935.383 64.432 934.855 64 933.955 64C933.079 64 932.575 64.372 932.311 64.864H932.191V64.108H931.087ZM940.831 67.012C940.831 68.824 942.043 70.168 943.867 70.168C945.487 70.168 946.171 69.232 946.531 68.62L945.595 68.092C945.307 68.668 944.827 69.184 943.867 69.184C942.799 69.184 942.055 68.464 941.983 67.444H946.627V66.892C946.627 65.08 945.463 63.94 943.783 63.94C942.067 63.94 940.831 65.212 940.831 67.012ZM941.995 66.532C942.115 65.548 942.763 64.924 943.783 64.924C944.755 64.924 945.415 65.512 945.475 66.532H941.995ZM947.933 64.108V70H949.061V67C949.061 65.656 949.769 64.936 950.825 64.936C951.773 64.936 952.349 65.428 952.349 66.508V70H953.465V66.448C953.465 64.912 952.469 64 951.149 64C949.985 64 949.421 64.528 949.157 65.056H949.037V64.108H947.933ZM954.294 65.032H955.998V68.896C955.998 69.568 956.43 70 957.09 70H958.722V69.076H957.462C957.246 69.076 957.126 68.956 957.126 68.716V65.032H958.95V64.108H957.126V62.092H955.998V64.108H954.294V65.032ZM876.816 77.6V86H882.192V84.932H878.004V77.6H876.816ZM882.939 83.012C882.939 84.824 884.151 86.168 885.975 86.168C887.595 86.168 888.279 85.232 888.639 84.62L887.703 84.092C887.415 84.668 886.935 85.184 885.975 85.184C884.907 85.184 884.163 84.464 884.091 83.444H888.735V82.892C888.735 81.08 887.571 79.94 885.891 79.94C884.175 79.94 882.939 81.212 882.939 83.012ZM884.103 82.532C884.223 81.548 884.871 80.924 885.891 80.924C886.863 80.924 887.523 81.512 887.583 82.532H884.103ZM889.873 81.692L890.929 82.028C891.073 81.356 891.553 80.864 892.441 80.864C893.341 80.864 893.785 81.368 893.785 82.1V82.484H891.913C890.629 82.484 889.681 83.096 889.681 84.308C889.681 85.496 890.629 86.168 891.853 86.168C892.993 86.168 893.449 85.604 893.665 85.208H893.809V86H894.889V82.172C894.889 80.756 893.965 79.94 892.453 79.94C890.953 79.94 890.161 80.732 889.873 81.692ZM890.809 84.284C890.809 83.708 891.277 83.396 891.973 83.396H893.785V83.516C893.785 84.584 893.077 85.244 892.045 85.244C891.277 85.244 890.809 84.86 890.809 84.284ZM897.651 80.108H896.547V86H897.675V82.448C897.675 81.5 898.227 81.056 899.055 81.056H899.979V80.084H899.247C898.467 80.084 897.999 80.312 897.771 80.9H897.651V80.108ZM901.085 80.108V86H902.213V83C902.213 81.656 902.921 80.936 903.977 80.936C904.925 80.936 905.501 81.428 905.501 82.508V86H906.617V82.448C906.617 80.912 905.621 80 904.301 80C903.137 80 902.573 80.528 902.309 81.056H902.189V80.108H901.085ZM907.971 78.32C907.971 78.812 908.343 79.172 908.835 79.172C909.339 79.172 909.711 78.812 909.711 78.32C909.711 77.816 909.339 77.456 908.835 77.456C908.343 77.456 907.971 77.816 907.971 78.32ZM909.399 80.108H908.271V86H909.399V80.108ZM911.122 80.108V86H912.25V83C912.25 81.656 912.958 80.936 914.014 80.936C914.962 80.936 915.538 81.428 915.538 82.508V86H916.654V82.448C916.654 80.912 915.658 80 914.338 80C913.174 80 912.61 80.528 912.346 81.056H912.226V80.108H911.122ZM922.928 80.108V81.056H922.808C922.448 80.468 921.824 79.94 920.672 79.94C919.184 79.94 917.936 81.14 917.936 82.976C917.936 84.824 919.184 86.012 920.672 86.012C921.824 86.012 922.448 85.472 922.784 84.944H922.904V85.64C922.904 86.948 922.136 87.608 920.984 87.608C919.844 87.608 919.28 86.948 919.064 86.252L918.044 86.672C918.332 87.536 919.22 88.568 921.008 88.568C922.82 88.568 924.032 87.536 924.032 85.688V80.108H922.928ZM920.984 85.04C919.868 85.04 919.076 84.248 919.076 82.976C919.076 81.716 919.868 80.924 920.984 80.924C922.1 80.924 922.916 81.716 922.916 82.976C922.916 84.236 922.1 85.04 920.984 85.04Z" fill="white"/>
<rect width="128" height="27" transform="translate(993 23)" fill="#1F5F57"/>
<path d="M1007.97 31.2L1005.08 41H1006.75L1007.41 38.718H1011.05L1011.71 41H1013.36L1010.47 31.2H1007.97ZM1007.8 37.248L1009.16 32.558H1009.3L1010.64 37.248H1007.8ZM1014.88 31.2V41H1016.5V31.2H1014.88ZM1026.64 31.2L1022.6 37.64V39.054H1027.57V41H1029.19V39.054H1030.82V37.584H1029.19V31.2H1026.64ZM1027.4 32.614H1027.57V37.584H1024.29L1027.4 32.614ZM1032.35 31.2V41H1036.69C1038.37 41 1039.59 40.006 1039.59 38.354C1039.59 36.926 1038.63 36.324 1037.92 36.128V35.988C1038.63 35.778 1039.54 35.204 1039.54 33.79C1039.54 32.194 1038.35 31.2 1036.66 31.2H1032.35ZM1033.97 32.67H1036.49C1037.39 32.67 1037.99 33.188 1037.99 34C1037.99 34.812 1037.4 35.344 1036.49 35.344H1033.97V32.67ZM1033.97 36.8H1036.49C1037.46 36.8 1038.03 37.318 1038.03 38.172C1038.03 38.998 1037.46 39.53 1036.52 39.53H1033.97V36.8Z" fill="white"/>
<rect width="128" height="48" transform="translate(993 50)" fill="#B49848"/>
<path d="M1005.53 66.724C1005.53 68.92 1006.82 70.168 1008.9 70.168C1010.89 70.168 1012.07 69.004 1012.07 67.072V65.932H1008.54V66.952H1010.9V67.18C1010.9 68.38 1010.24 69.112 1008.9 69.112C1007.54 69.112 1006.72 68.212 1006.72 66.748V64.852C1006.72 63.388 1007.54 62.488 1008.91 62.488C1010.21 62.488 1010.83 63.268 1010.83 64.384V64.516H1012.02V64.396C1012.02 62.608 1010.95 61.432 1008.91 61.432C1006.85 61.432 1005.53 62.68 1005.53 64.876V66.724ZM1013.16 67.012C1013.16 68.824 1014.37 70.168 1016.19 70.168C1017.81 70.168 1018.5 69.232 1018.86 68.62L1017.92 68.092C1017.63 68.668 1017.15 69.184 1016.19 69.184C1015.13 69.184 1014.38 68.464 1014.31 67.444H1018.95V66.892C1018.95 65.08 1017.79 63.94 1016.11 63.94C1014.39 63.94 1013.16 65.212 1013.16 67.012ZM1014.32 66.532C1014.44 65.548 1015.09 64.924 1016.11 64.924C1017.08 64.924 1017.74 65.512 1017.8 66.532H1014.32ZM1020.26 64.108V70H1021.39V67C1021.39 65.656 1022.09 64.936 1023.15 64.936C1024.1 64.936 1024.67 65.428 1024.67 66.508V70H1025.79V66.448C1025.79 64.912 1024.79 64 1023.47 64C1022.31 64 1021.75 64.528 1021.48 65.056H1021.36V64.108H1020.26ZM1027.07 67.012C1027.07 68.824 1028.29 70.168 1030.11 70.168C1031.73 70.168 1032.41 69.232 1032.77 68.62L1031.84 68.092C1031.55 68.668 1031.07 69.184 1030.11 69.184C1029.04 69.184 1028.3 68.464 1028.23 67.444H1032.87V66.892C1032.87 65.08 1031.71 63.94 1030.03 63.94C1028.31 63.94 1027.07 65.212 1027.07 67.012ZM1028.24 66.532C1028.36 65.548 1029.01 64.924 1030.03 64.924C1031 64.924 1031.66 65.512 1031.72 66.532H1028.24ZM1035.28 64.108H1034.17V70H1035.3V66.448C1035.3 65.5 1035.85 65.056 1036.68 65.056H1037.61V64.084H1036.87C1036.09 64.084 1035.63 64.312 1035.4 64.9H1035.28V64.108ZM1038.51 65.692L1039.57 66.028C1039.71 65.356 1040.19 64.864 1041.08 64.864C1041.98 64.864 1042.42 65.368 1042.42 66.1V66.484H1040.55C1039.27 66.484 1038.32 67.096 1038.32 68.308C1038.32 69.496 1039.27 70.168 1040.49 70.168C1041.63 70.168 1042.09 69.604 1042.3 69.208H1042.45V70H1043.53V66.172C1043.53 64.756 1042.6 63.94 1041.09 63.94C1039.59 63.94 1038.8 64.732 1038.51 65.692ZM1039.45 68.284C1039.45 67.708 1039.91 67.396 1040.61 67.396H1042.42V67.516C1042.42 68.584 1041.71 69.244 1040.68 69.244C1039.91 69.244 1039.45 68.86 1039.45 68.284ZM1044.36 65.032H1046.06V68.896C1046.06 69.568 1046.49 70 1047.15 70H1048.79V69.076H1047.53C1047.31 69.076 1047.19 68.956 1047.19 68.716V65.032H1049.01V64.108H1047.19V62.092H1046.06V64.108H1044.36V65.032ZM1050.03 62.32C1050.03 62.812 1050.4 63.172 1050.9 63.172C1051.4 63.172 1051.77 62.812 1051.77 62.32C1051.77 61.816 1051.4 61.456 1050.9 61.456C1050.4 61.456 1050.03 61.816 1050.03 62.32ZM1051.46 64.108H1050.33V70H1051.46V64.108ZM1052.56 64.108L1054.73 70H1056.36L1058.55 64.108H1057.32L1055.61 69.004H1055.49L1053.78 64.108H1052.56ZM1059.16 67.012C1059.16 68.824 1060.38 70.168 1062.2 70.168C1063.82 70.168 1064.5 69.232 1064.86 68.62L1063.93 68.092C1063.64 68.668 1063.16 69.184 1062.2 69.184C1061.13 69.184 1060.39 68.464 1060.32 67.444H1064.96V66.892C1064.96 65.08 1063.8 63.94 1062.12 63.94C1060.4 63.94 1059.16 65.212 1059.16 67.012ZM1060.33 66.532C1060.45 65.548 1061.1 64.924 1062.12 64.924C1063.09 64.924 1063.75 65.512 1063.81 66.532H1060.33ZM1005.82 77.6V86H1006.98V78.836H1007.1L1009.4 86H1011.08L1013.38 78.836H1013.5V86H1014.66V77.6H1012.61L1010.3 84.788H1010.18L1007.87 77.6H1005.82ZM1016.03 83.06C1016.03 84.932 1017.29 86.168 1019.06 86.168C1020.84 86.168 1022.11 84.932 1022.11 83.06C1022.11 81.176 1020.84 79.94 1019.06 79.94C1017.29 79.94 1016.03 81.176 1016.03 83.06ZM1017.16 83.06C1017.16 81.788 1017.92 80.936 1019.06 80.936C1020.2 80.936 1020.98 81.764 1020.98 83.06C1020.98 84.344 1020.2 85.172 1019.06 85.172C1017.92 85.172 1017.16 84.368 1017.16 83.06ZM1029.19 77.6H1028.07V81.02H1027.95C1027.61 80.468 1027 79.94 1025.83 79.94C1024.35 79.94 1023.1 81.152 1023.1 83.06C1023.1 84.968 1024.35 86.168 1025.83 86.168C1027 86.168 1027.61 85.64 1027.97 85.064H1028.09V86H1029.19V77.6ZM1026.15 80.924C1027.26 80.924 1028.08 81.728 1028.08 83.06C1028.08 84.38 1027.26 85.184 1026.15 85.184C1025.03 85.184 1024.24 84.392 1024.24 83.06C1024.24 81.716 1025.03 80.924 1026.15 80.924ZM1030.55 83.012C1030.55 84.824 1031.77 86.168 1033.59 86.168C1035.21 86.168 1035.89 85.232 1036.25 84.62L1035.32 84.092C1035.03 84.668 1034.55 85.184 1033.59 85.184C1032.52 85.184 1031.78 84.464 1031.71 83.444H1036.35V82.892C1036.35 81.08 1035.19 79.94 1033.51 79.94C1031.79 79.94 1030.55 81.212 1030.55 83.012ZM1031.72 82.532C1031.84 81.548 1032.49 80.924 1033.51 80.924C1034.48 80.924 1035.14 81.512 1035.2 82.532H1031.72ZM1038.78 77.6H1037.66V86H1038.78V77.6ZM1040.39 81.68C1040.39 82.772 1041.3 83.216 1042.44 83.42L1042.94 83.504C1043.76 83.636 1044.21 83.864 1044.21 84.38C1044.21 84.92 1043.72 85.28 1042.89 85.28C1042.07 85.28 1041.37 84.932 1041.19 83.852L1040.13 84.116C1040.35 85.496 1041.41 86.168 1042.89 86.168C1044.35 86.168 1045.31 85.484 1045.31 84.308C1045.31 83.12 1044.36 82.76 1043.11 82.544L1042.61 82.472C1041.93 82.352 1041.49 82.136 1041.49 81.62C1041.49 81.128 1041.93 80.828 1042.65 80.828C1043.37 80.828 1043.89 81.128 1044.06 81.92L1045.09 81.62C1044.84 80.588 1043.97 79.94 1042.65 79.94C1041.27 79.94 1040.39 80.588 1040.39 81.68Z" fill="white"/>
<path d="M12.7863 4.2L12.7863 14L14.3543 14L14.3543 5.88L14.4943 5.88L16.9023 14L19.1843 14L21.5783 5.88L21.7183 5.88L21.7183 14L23.3003 14L23.3003 4.2L20.5143 4.2L18.1063 12.362L17.9663 12.362L15.5723 4.2L12.7863 4.2ZM25.3436 8.89L26.7716 9.366C26.9116 8.652 27.4016 8.134 28.3676 8.134C29.3336 8.134 29.7956 8.68 29.7956 9.422L29.7956 9.842L27.7516 9.842C26.2116 9.842 25.1056 10.57 25.1056 11.998C25.1056 13.398 26.2116 14.196 27.6396 14.196C28.9556 14.196 29.4456 13.51 29.6416 13.132L29.8236 13.132L29.8236 14L31.2936 14L31.2936 9.534C31.2936 7.84 30.1736 6.888 28.3816 6.888C26.6036 6.888 25.6796 7.812 25.3436 8.89ZM26.6456 11.956C26.6456 11.382 27.1076 11.032 27.8496 11.032L29.7956 11.032L29.7956 11.158C29.7956 12.25 29.0256 12.936 27.9336 12.936C27.1076 12.936 26.6456 12.544 26.6456 11.956ZM33.2285 8.988C33.2285 10.304 34.3205 10.822 35.7205 11.074L36.1965 11.158C37.1065 11.326 37.5685 11.55 37.5685 12.082C37.5685 12.614 37.0785 13.006 36.1965 13.006C35.3005 13.006 34.5725 12.642 34.3765 11.508L32.9485 11.858C33.1865 13.398 34.4185 14.196 36.1965 14.196C37.9325 14.196 39.0525 13.384 39.0525 11.97C39.0525 10.556 37.9185 10.15 36.4065 9.87L35.9305 9.786C35.1745 9.646 34.7125 9.422 34.7125 8.89C34.7125 8.386 35.1605 8.078 35.9165 8.078C36.6725 8.078 37.2185 8.4 37.3865 9.24L38.7865 8.82C38.4785 7.658 37.4705 6.902 35.9165 6.902C34.2925 6.902 33.2285 7.658 33.2285 8.988ZM39.9768 8.344L41.8388 8.344L41.8388 12.572C41.8388 13.44 42.3988 14 43.2388 14L45.1848 14L45.1848 12.74L43.7708 12.74C43.5188 12.74 43.3788 12.6 43.3788 12.32L43.3788 8.344L45.3948 8.344L45.3948 7.098L43.3788 7.098L43.3788 4.844L41.8388 4.844L41.8388 7.098L39.9768 7.098L39.9768 8.344ZM46.53 10.514C46.53 12.684 47.958 14.196 50.058 14.196C51.962 14.196 52.774 13.104 53.18 12.376L51.906 11.69C51.626 12.292 51.136 12.866 50.086 12.866C48.98 12.866 48.168 12.096 48.112 11.032L53.348 11.032L53.348 10.402C53.348 8.288 52.004 6.888 50.002 6.888C47.972 6.888 46.53 8.358 46.53 10.514ZM48.126 9.842C48.252 8.876 48.924 8.218 49.988 8.218C51.01 8.218 51.696 8.848 51.78 9.842L48.126 9.842ZM56.5109 7.098L55.0129 7.098L55.0129 14L56.5389 14L56.5389 9.912C56.5389 8.862 57.1969 8.372 58.1209 8.372L59.1849 8.372L59.1849 7.07L58.3869 7.07C57.4909 7.07 56.9309 7.336 56.6509 8.05L56.5109 8.05L56.5109 7.098ZM65.0271 4.2L65.0271 14L66.5951 14L66.5951 5.88L66.7351 5.88L69.1431 14L71.4251 14L73.8191 5.88L73.9591 5.88L73.9591 14L75.5411 14L75.5411 4.2L72.7551 4.2L70.3471 12.362L70.2071 12.362L67.8131 4.2L65.0271 4.2ZM77.7244 4.2L77.7244 14L84.0524 14L84.0524 12.53L79.3484 12.53L79.3484 4.2L77.7244 4.2ZM94.0834 4.2L92.4734 4.2C90.8354 4.2 89.5894 5.124 89.5894 6.818C89.5894 7.994 90.2754 8.666 91.1854 8.932L91.1854 9.128C90.2754 9.408 89.5334 10.164 89.5334 11.368C89.5334 13.02 90.7234 14 92.4174 14L95.8334 14L95.8334 9.688L97.1494 9.688L97.1494 8.4L95.8334 8.4L95.8334 7.056L94.2934 7.056L94.2934 8.4L92.7394 8.4C91.8714 8.4 91.1434 7.966 91.1434 6.944C91.1434 5.964 91.8294 5.488 92.7394 5.488L94.0834 5.488L94.0834 4.2ZM92.6834 9.688L94.2934 9.688L94.2934 12.712L92.6834 12.712C91.8154 12.712 91.0734 12.236 91.0734 11.2C91.0734 10.192 91.7734 9.688 92.6834 9.688ZM105.156 4.2L102.272 14L103.938 14L104.596 11.718L108.236 11.718L108.894 14L110.546 14L107.662 4.2L105.156 4.2ZM104.988 10.248L106.346 5.558L106.486 5.558L107.83 10.248L104.988 10.248ZM111.926 4.2L111.926 14L113.55 14L113.55 4.20001L111.926 4.2Z" fill="#434343"/>
<path d="M873.518 7.938L873.518 10.262C873.518 12.796 875.072 14.196 877.494 14.196C879.916 14.196 881.456 12.796 881.456 10.262L881.456 7.938C881.456 5.404 879.916 4.004 877.494 4.004C875.072 4.004 873.518 5.404 873.518 7.938ZM875.142 7.882C875.142 6.398 876.01 5.446 877.494 5.446C878.964 5.446 879.832 6.398 879.832 7.882L879.832 10.318C879.832 11.802 878.964 12.754 877.494 12.754C876.01 12.754 875.142 11.802 875.142 10.318L875.142 7.882ZM883.257 16.8L884.783 16.8L884.783 13.02L884.923 13.02C885.315 13.622 886.015 14.196 887.289 14.196C888.983 14.196 890.453 12.796 890.453 10.542C890.453 8.302 888.983 6.902 887.289 6.902C886.015 6.902 885.315 7.476 884.895 8.106L884.755 8.106L884.755 7.098L883.257 7.098L883.257 16.8ZM886.841 12.866C885.651 12.866 884.769 11.998 884.769 10.542C884.769 9.086 885.651 8.218 886.841 8.218C888.045 8.218 888.913 9.086 888.913 10.542C888.913 12.012 888.045 12.866 886.841 12.866ZM891.328 8.344L893.19 8.344L893.19 12.572C893.19 13.44 893.75 14 894.59 14L896.536 14L896.536 12.74L895.122 12.74C894.87 12.74 894.73 12.6 894.73 12.32L894.73 8.344L896.746 8.344L896.746 7.098L894.73 7.098L894.73 4.844L893.19 4.844L893.19 7.098L891.328 7.098L891.328 8.344ZM898.088 5.04C898.088 5.684 898.578 6.132 899.222 6.132C899.866 6.132 900.356 5.684 900.356 5.04C900.356 4.382 899.866 3.934 899.222 3.934C898.578 3.934 898.088 4.382 898.088 5.04ZM899.992 7.098L898.466 7.098L898.466 14L899.992 14L899.992 7.098ZM901.719 10.542C901.719 12.782 903.245 14.196 905.317 14.196C907.389 14.196 908.901 12.782 908.901 10.542C908.901 8.316 907.389 6.902 905.317 6.902C903.245 6.902 901.719 8.316 901.719 10.542ZM903.259 10.542C903.259 9.128 904.099 8.246 905.317 8.246C906.521 8.246 907.361 9.114 907.361 10.542C907.361 11.97 906.521 12.852 905.317 12.852C904.099 12.852 903.259 11.984 903.259 10.542ZM910.626 7.098L910.626 14L912.152 14L912.152 10.458C912.152 9.03 912.894 8.232 914.042 8.232C915.064 8.232 915.666 8.778 915.666 9.94L915.666 14L917.206 14L917.206 9.856C917.206 8.092 916.086 6.972 914.504 6.972C913.188 6.972 912.572 7.56 912.264 8.162L912.124 8.162L912.124 7.098L910.626 7.098ZM919.151 8.89L920.579 9.366C920.719 8.652 921.209 8.134 922.175 8.134C923.141 8.134 923.603 8.68 923.603 9.422L923.603 9.842L921.559 9.842C920.019 9.842 918.913 10.57 918.913 11.998C918.913 13.398 920.019 14.196 921.447 14.196C922.763 14.196 923.253 13.51 923.449 13.132L923.631 13.132L923.631 14L925.101 14L925.101 9.534C925.101 7.84 923.981 6.888 922.189 6.888C920.411 6.888 919.487 7.812 919.151 8.89ZM920.453 11.956C920.453 11.382 920.915 11.032 921.657 11.032L923.603 11.032L923.603 11.158C923.603 12.25 922.833 12.936 921.741 12.936C920.915 12.936 920.453 12.544 920.453 11.956ZM928.688 4.2L927.162 4.2L927.162 14L928.688 14L928.688 4.2ZM935.248 4.2L935.248 14L941.674 14L941.674 12.53L936.872 12.53L936.872 9.8L941.198 9.8L941.198 8.33L936.872 8.33L936.872 5.67L941.59 5.67L941.59 4.2L935.248 4.2ZM944.932 4.2L943.406 4.2L943.406 14L944.932 14L944.932 4.2ZM946.659 10.514C946.659 12.684 948.087 14.196 950.187 14.196C952.091 14.196 952.903 13.104 953.309 12.376L952.035 11.69C951.755 12.292 951.265 12.866 950.215 12.866C949.109 12.866 948.297 12.096 948.241 11.032L953.477 11.032L953.477 10.402C953.477 8.288 952.133 6.888 950.131 6.888C948.101 6.888 946.659 8.358 946.659 10.514ZM948.255 9.842C948.381 8.876 949.053 8.218 950.117 8.218C951.139 8.218 951.825 8.848 951.909 9.842L948.255 9.842ZM954.708 10.542C954.708 12.684 956.29 14.196 958.306 14.196C960.21 14.196 961.344 13.062 961.708 11.55L960.21 11.2C960.056 12.166 959.468 12.852 958.32 12.852C957.144 12.852 956.248 11.97 956.248 10.542C956.248 9.128 957.144 8.246 958.32 8.246C959.44 8.246 960.056 8.946 960.168 9.87L961.652 9.562C961.372 8.036 960.196 6.902 958.292 6.902C956.29 6.902 954.708 8.4 954.708 10.542ZM962.517 8.344L964.379 8.344L964.379 12.572C964.379 13.44 964.939 14 965.779 14L967.725 14L967.725 12.74L966.311 12.74C966.059 12.74 965.919 12.6 965.919 12.32L965.919 8.344L967.935 8.34401L967.935 7.098L965.919 7.098L965.919 4.844L964.379 4.844L964.379 7.098L962.517 7.098L962.517 8.344ZM969.276 5.04C969.276 5.684 969.766 6.132 970.41 6.132C971.054 6.132 971.544 5.684 971.544 5.04C971.544 4.382 971.054 3.934 970.41 3.934C969.766 3.934 969.276 4.382 969.276 5.04ZM971.18 7.09801L969.654 7.098L969.654 14L971.18 14L971.18 7.09801ZM972.586 7.09801L975.064 14L977.318 14L979.782 7.09801L978.116 7.09801L976.254 12.684L976.114 12.684L974.252 7.09801L972.586 7.09801ZM980.615 10.514C980.615 12.684 982.043 14.196 984.143 14.196C986.047 14.196 986.859 13.104 987.265 12.376L985.991 11.69C985.711 12.292 985.221 12.866 984.171 12.866C983.065 12.866 982.253 12.096 982.197 11.032L987.433 11.032L987.433 10.402C987.433 8.28801 986.089 6.88801 984.087 6.88801C982.057 6.88801 980.615 8.35801 980.615 10.514ZM982.211 9.84201C982.337 8.87601 983.009 8.21801 984.073 8.21801C985.095 8.21801 985.781 8.84801 985.865 9.84201L982.211 9.84201ZM988.944 8.98801C988.944 10.304 990.036 10.822 991.436 11.074L991.912 11.158C992.822 11.326 993.284 11.55 993.284 12.082C993.284 12.614 992.794 13.006 991.912 13.006C991.016 13.006 990.288 12.642 990.092 11.508L988.664 11.858C988.902 13.398 990.134 14.196 991.912 14.196C993.648 14.196 994.768 13.384 994.768 11.97C994.768 10.556 993.634 10.15 992.122 9.87001L991.646 9.78601C990.89 9.64601 990.428 9.42201 990.428 8.89001C990.428 8.38601 990.876 8.07801 991.632 8.07801C992.388 8.07801 992.934 8.40001 993.102 9.24001L994.502 8.82001C994.194 7.65801 993.186 6.90201 991.632 6.90201C990.008 6.90201 988.944 7.65801 988.944 8.98801Z" fill="#434343"/>
<path d="M1137 97L1153 97L1153 26L1137 26" stroke="#787878"/>
<path d="M1167.76 81.1183C1169.94 81.1183 1171.17 79.7983 1171.17 77.7103C1171.17 75.6463 1169.98 74.4463 1168.16 74.4463L1167.87 74.4463L1167.87 75.8263L1168.18 75.8263C1169.16 75.8263 1169.93 76.4503 1169.93 77.7103C1169.93 78.9583 1169.12 79.7263 1167.78 79.7263L1165.82 79.7263C1164.48 79.7263 1163.67 78.9703 1163.67 77.7103C1163.67 76.4743 1164.45 75.8263 1165.43 75.8263L1165.66 75.8263L1165.66 74.4463L1165.46 74.4463C1163.62 74.4463 1162.43 75.6223 1162.43 77.7103C1162.43 79.7983 1163.66 81.1183 1165.84 81.1183L1167.76 81.1183ZM1168.04 73.3303C1169.96 73.3303 1171.17 72.0223 1171.17 70.2463C1171.17 68.4703 1169.96 67.1743 1168.04 67.1743C1166.13 67.1743 1164.92 68.4703 1164.92 70.2463C1164.92 72.0223 1166.13 73.3303 1168.04 73.3303ZM1168.04 72.0103C1166.82 72.0103 1166.07 71.2903 1166.07 70.2463C1166.07 69.2143 1166.81 68.4943 1168.04 68.4943C1169.26 68.4943 1170.02 69.2143 1170.02 70.2463C1170.02 71.2903 1169.27 72.0103 1168.04 72.0103ZM1171 60.056L1165.08 60.056L1165.08 61.364L1168.12 61.364C1169.33 61.364 1170.02 62 1170.02 62.984C1170.02 63.86 1169.55 64.376 1168.56 64.376L1165.08 64.376L1165.08 65.696L1168.64 65.696C1170.14 65.696 1171.1 64.736 1171.1 63.38C1171.1 62.252 1170.6 61.724 1170.08 61.46L1170.08 61.34L1171 61.34L1171 60.056ZM1165.08 56.927L1165.08 58.211L1171 58.211L1171 56.903L1167.5 56.903C1166.6 56.903 1166.18 56.339 1166.18 55.547L1166.18 54.635L1165.06 54.635L1165.06 55.319C1165.06 56.087 1165.29 56.567 1165.9 56.807L1165.9 56.927L1165.08 56.927ZM1166.7 53.6231C1167.83 53.6231 1168.28 52.6871 1168.49 51.4871L1168.56 51.0791C1168.71 50.2991 1168.9 49.9031 1169.36 49.9031C1169.81 49.9031 1170.15 50.3231 1170.15 51.0791C1170.15 51.8471 1169.84 52.4711 1168.86 52.6391L1169.16 53.8631C1170.48 53.6591 1171.17 52.6031 1171.17 51.0791C1171.17 49.5911 1170.47 48.6311 1169.26 48.6311C1168.05 48.6311 1167.7 49.6031 1167.46 50.8991L1167.39 51.3071C1167.27 51.9551 1167.08 52.3511 1166.62 52.3511C1166.19 52.3511 1165.92 51.9671 1165.92 51.3191C1165.92 50.6711 1166.2 50.2031 1166.92 50.0591L1166.56 48.8591C1165.56 49.1231 1164.92 49.9871 1164.92 51.3191C1164.92 52.7111 1165.56 53.6231 1166.7 53.6231ZM1168.01 47.5153C1169.87 47.5153 1171.17 46.2913 1171.17 44.4913C1171.17 42.8593 1170.23 42.1633 1169.61 41.8153L1169.02 42.9073C1169.54 43.1473 1170.03 43.5673 1170.03 44.4673C1170.03 45.4153 1169.37 46.1113 1168.46 46.1593L1168.46 41.6713L1167.92 41.6713C1166.1 41.6713 1164.9 42.8233 1164.9 44.5393C1164.9 46.2793 1166.16 47.5153 1168.01 47.5153ZM1167.44 46.1473C1166.61 46.0393 1166.04 45.4633 1166.04 44.5513C1166.04 43.6753 1166.58 43.0873 1167.44 43.0153L1167.44 46.1473ZM1166.7 40.3757C1167.83 40.3757 1168.28 39.4397 1168.49 38.2397L1168.56 37.8317C1168.71 37.0517 1168.9 36.6557 1169.36 36.6557C1169.81 36.6557 1170.15 37.0757 1170.15 37.8317C1170.15 38.5997 1169.84 39.2237 1168.86 39.3917L1169.16 40.6157C1170.48 40.4117 1171.17 39.3557 1171.17 37.8317C1171.17 36.3437 1170.47 35.3837 1169.26 35.3837C1168.05 35.3837 1167.7 36.3557 1167.46 37.6517L1167.39 38.0597C1167.27 38.7077 1167.08 39.1037 1166.62 39.1037C1166.19 39.1037 1165.92 38.7197 1165.92 38.0717C1165.92 37.4237 1166.2 36.9557 1166.92 36.8117L1166.56 35.6117C1165.56 35.8757 1164.92 36.7397 1164.92 38.0717C1164.92 39.4637 1165.56 40.3757 1166.7 40.3757Z" fill="#787878"/>
</svg>
