<svg width="470" height="145" viewBox="0 0 470 145" fill="none" xmlns="http://www.w3.org/2000/svg">
<rect width="470" height="145" fill="white"/>
<rect width="128" height="27" transform="translate(0 23)" fill="#636CAD"/>
<path d="M14.968 31.2L12.084 41H13.75L14.408 38.718H18.048L18.706 41H20.358L17.474 31.2H14.968ZM14.8 37.248L16.158 32.558H16.298L17.642 37.248H14.8ZM21.8775 31.2V41H23.5015V31.2H21.8775ZM30.073 31.2V32.67H34.749L32.089 34.896V36.366H33.685C34.721 36.366 35.491 36.884 35.491 37.962C35.491 38.984 34.749 39.754 33.503 39.754C32.173 39.754 31.417 38.956 31.417 37.822V37.444H29.807V37.864C29.807 39.852 31.221 41.196 33.503 41.196C35.617 41.196 37.115 39.908 37.115 37.962C37.115 36.156 35.869 35.176 34.399 35.176H34.049V35.022L36.947 32.628V31.2H30.073Z" fill="white"/>
<rect width="128" height="80" transform="translate(0 50)" fill="#B49848"/>
<path d="M12.816 61.6V70H14.004V62.836H14.124L16.98 70H19.008V61.6H17.82V68.764H17.7L14.844 61.6H12.816ZM20.6081 65.692L21.6641 66.028C21.8081 65.356 22.2881 64.864 23.1761 64.864C24.0761 64.864 24.5201 65.368 24.5201 66.1V66.484H22.6481C21.3641 66.484 20.4161 67.096 20.4161 68.308C20.4161 69.496 21.3641 70.168 22.5881 70.168C23.7281 70.168 24.1841 69.604 24.4001 69.208H24.5441V70H25.6241V66.172C25.6241 64.756 24.7001 63.94 23.1881 63.94C21.6881 63.94 20.8961 64.732 20.6081 65.692ZM21.5441 68.284C21.5441 67.708 22.0121 67.396 22.7081 67.396H24.5201V67.516C24.5201 68.584 23.8121 69.244 22.7801 69.244C22.0121 69.244 21.5441 68.86 21.5441 68.284ZM26.4571 65.032H28.1611V68.896C28.1611 69.568 28.5931 70 29.2531 70H30.8851V69.076H29.6251C29.4091 69.076 29.2891 68.956 29.2891 68.716V65.032H31.1131V64.108H29.2891V62.092H28.1611V64.108H26.4571V65.032ZM37.9496 70V64.108H36.8216V67.108C36.8216 68.452 36.1136 69.172 35.0576 69.172C34.1096 69.172 33.5336 68.68 33.5336 67.6V64.108H32.4176V67.66C32.4176 69.196 33.4136 70.108 34.7336 70.108C35.8976 70.108 36.4616 69.58 36.7256 69.052H36.8456V70H37.9496ZM40.7786 64.108H39.6746V70H40.8026V66.448C40.8026 65.5 41.3546 65.056 42.1826 65.056H43.1066V64.084H42.3746C41.5946 64.084 41.1266 64.312 40.8986 64.9H40.7786V64.108ZM44.01 65.692L45.066 66.028C45.21 65.356 45.69 64.864 46.578 64.864C47.478 64.864 47.922 65.368 47.922 66.1V66.484H46.05C44.766 66.484 43.818 67.096 43.818 68.308C43.818 69.496 44.766 70.168 45.99 70.168C47.13 70.168 47.586 69.604 47.802 69.208H47.946V70H49.026V66.172C49.026 64.756 48.102 63.94 46.59 63.94C45.09 63.94 44.298 64.732 44.01 65.692ZM44.946 68.284C44.946 67.708 45.414 67.396 46.11 67.396H47.922V67.516C47.922 68.584 47.214 69.244 46.182 69.244C45.414 69.244 44.946 68.86 44.946 68.284ZM51.8122 61.6H50.6842V70H51.8122V61.6ZM57.2174 61.6V70H62.5934V68.932H58.4054V61.6H57.2174ZM63.5681 65.692L64.6241 66.028C64.7681 65.356 65.2481 64.864 66.1361 64.864C67.0361 64.864 67.4801 65.368 67.4801 66.1V66.484H65.6081C64.3241 66.484 63.3761 67.096 63.3761 68.308C63.3761 69.496 64.3241 70.168 65.5481 70.168C66.6881 70.168 67.1441 69.604 67.3601 69.208H67.5041V70H68.5841V66.172C68.5841 64.756 67.6601 63.94 66.1481 63.94C64.6481 63.94 63.8561 64.732 63.5681 65.692ZM64.5041 68.284C64.5041 67.708 64.9721 67.396 65.6681 67.396H67.4801V67.516C67.4801 68.584 66.7721 69.244 65.7401 69.244C64.9721 69.244 64.5041 68.86 64.5041 68.284ZM70.2423 64.108V70H71.3703V67C71.3703 65.656 72.0783 64.936 73.1343 64.936C74.0823 64.936 74.6583 65.428 74.6583 66.508V70H75.7743V66.448C75.7743 64.912 74.7783 64 73.4583 64C72.2943 64 71.7303 64.528 71.4663 65.056H71.3463V64.108H70.2423ZM82.0487 64.108V65.056H81.9287C81.5687 64.468 80.9447 63.94 79.7927 63.94C78.3047 63.94 77.0567 65.14 77.0567 66.976C77.0567 68.824 78.3047 70.012 79.7927 70.012C80.9447 70.012 81.5687 69.472 81.9047 68.944H82.0247V69.64C82.0247 70.948 81.2567 71.608 80.1047 71.608C78.9647 71.608 78.4007 70.948 78.1847 70.252L77.1647 70.672C77.4527 71.536 78.3407 72.568 80.1287 72.568C81.9407 72.568 83.1527 71.536 83.1527 69.688V64.108H82.0487ZM80.1047 69.04C78.9887 69.04 78.1967 68.248 78.1967 66.976C78.1967 65.716 78.9887 64.924 80.1047 64.924C81.2207 64.924 82.0367 65.716 82.0367 66.976C82.0367 68.236 81.2207 69.04 80.1047 69.04ZM90.4046 70V64.108H89.2766V67.108C89.2766 68.452 88.5686 69.172 87.5126 69.172C86.5646 69.172 85.9886 68.68 85.9886 67.6V64.108H84.8726V67.66C84.8726 69.196 85.8686 70.108 87.1886 70.108C88.3526 70.108 88.9166 69.58 89.1806 69.052H89.3006V70H90.4046ZM91.9856 65.692L93.0416 66.028C93.1856 65.356 93.6656 64.864 94.5536 64.864C95.4536 64.864 95.8976 65.368 95.8976 66.1V66.484H94.0256C92.7416 66.484 91.7936 67.096 91.7936 68.308C91.7936 69.496 92.7416 70.168 93.9656 70.168C95.1056 70.168 95.5616 69.604 95.7776 69.208H95.9216V70H97.0016V66.172C97.0016 64.756 96.0776 63.94 94.5656 63.94C93.0656 63.94 92.2736 64.732 91.9856 65.692ZM92.9216 68.284C92.9216 67.708 93.3896 67.396 94.0856 67.396H95.8976V67.516C95.8976 68.584 95.1896 69.244 94.1576 69.244C93.3896 69.244 92.9216 68.86 92.9216 68.284ZM103.28 64.108V65.056H103.16C102.8 64.468 102.176 63.94 101.024 63.94C99.5358 63.94 98.2878 65.14 98.2878 66.976C98.2878 68.824 99.5358 70.012 101.024 70.012C102.176 70.012 102.8 69.472 103.136 68.944H103.256V69.64C103.256 70.948 102.488 71.608 101.336 71.608C100.196 71.608 99.6318 70.948 99.4158 70.252L98.3958 70.672C98.6838 71.536 99.5718 72.568 101.36 72.568C103.172 72.568 104.384 71.536 104.384 69.688V64.108H103.28ZM101.336 69.04C100.22 69.04 99.4278 68.248 99.4278 66.976C99.4278 65.716 100.22 64.924 101.336 64.924C102.452 64.924 103.268 65.716 103.268 66.976C103.268 68.236 102.452 69.04 101.336 69.04ZM105.744 67.012C105.744 68.824 106.956 70.168 108.78 70.168C110.4 70.168 111.084 69.232 111.444 68.62L110.508 68.092C110.22 68.668 109.74 69.184 108.78 69.184C107.712 69.184 106.968 68.464 106.896 67.444H111.54V66.892C111.54 65.08 110.376 63.94 108.696 63.94C106.98 63.94 105.744 65.212 105.744 67.012ZM106.908 66.532C107.028 65.548 107.676 64.924 108.696 64.924C109.668 64.924 110.328 65.512 110.388 66.532H106.908ZM12.816 77.6V86H14.004V82.712H16.104C17.616 82.712 18.756 81.74 18.756 80.156C18.756 78.584 17.64 77.6 16.104 77.6H12.816ZM14.004 78.668H15.984C16.968 78.668 17.568 79.232 17.568 80.156C17.568 81.08 16.968 81.644 15.984 81.644H14.004V78.668ZM21.0475 80.108H19.9435V86H21.0715V82.448C21.0715 81.5 21.6235 81.056 22.4515 81.056H23.3755V80.084H22.6435C21.8635 80.084 21.3955 80.312 21.1675 80.9H21.0475V80.108ZM23.8517 83.06C23.8517 84.932 25.1117 86.168 26.8877 86.168C28.6637 86.168 29.9357 84.932 29.9357 83.06C29.9357 81.176 28.6637 79.94 26.8877 79.94C25.1117 79.94 23.8517 81.176 23.8517 83.06ZM24.9797 83.06C24.9797 81.788 25.7477 80.936 26.8877 80.936C28.0277 80.936 28.8077 81.764 28.8077 83.06C28.8077 84.344 28.0277 85.172 26.8877 85.172C25.7477 85.172 24.9797 84.368 24.9797 83.06ZM30.9209 83.06C30.9209 84.884 32.2769 86.168 33.9809 86.168C35.6009 86.168 36.5609 85.196 36.8489 83.924L35.7569 83.672C35.6009 84.548 35.0489 85.172 33.9929 85.172C32.9009 85.172 32.0609 84.332 32.0609 83.06C32.0609 81.776 32.8889 80.936 33.9929 80.936C35.0009 80.936 35.6129 81.572 35.7089 82.424L36.8129 82.196C36.5849 80.936 35.5769 79.94 33.9809 79.94C32.2769 79.94 30.9209 81.224 30.9209 83.06ZM37.8026 83.012C37.8026 84.824 39.0146 86.168 40.8386 86.168C42.4586 86.168 43.1426 85.232 43.5026 84.62L42.5666 84.092C42.2786 84.668 41.7986 85.184 40.8386 85.184C39.7706 85.184 39.0266 84.464 38.9546 83.444H43.5986V82.892C43.5986 81.08 42.4346 79.94 40.7546 79.94C39.0386 79.94 37.8026 81.212 37.8026 83.012ZM38.9666 82.532C39.0866 81.548 39.7346 80.924 40.7546 80.924C41.7266 80.924 42.3866 81.512 42.4466 82.532H38.9666ZM44.7488 81.68C44.7488 82.772 45.6608 83.216 46.8008 83.42L47.3048 83.504C48.1208 83.636 48.5768 83.864 48.5768 84.38C48.5768 84.92 48.0848 85.28 47.2568 85.28C46.4288 85.28 45.7328 84.932 45.5528 83.852L44.4968 84.116C44.7128 85.496 45.7688 86.168 47.2568 86.168C48.7088 86.168 49.6688 85.484 49.6688 84.308C49.6688 83.12 48.7208 82.76 47.4728 82.544L46.9688 82.472C46.2968 82.352 45.8528 82.136 45.8528 81.62C45.8528 81.128 46.2968 80.828 47.0168 80.828C47.7368 80.828 48.2528 81.128 48.4208 81.92L49.4528 81.62C49.2008 80.588 48.3368 79.94 47.0168 79.94C45.6368 79.94 44.7488 80.588 44.7488 81.68ZM50.7868 81.68C50.7868 82.772 51.6988 83.216 52.8388 83.42L53.3428 83.504C54.1588 83.636 54.6148 83.864 54.6148 84.38C54.6148 84.92 54.1228 85.28 53.2948 85.28C52.4668 85.28 51.7708 84.932 51.5908 83.852L50.5348 84.116C50.7508 85.496 51.8068 86.168 53.2948 86.168C54.7468 86.168 55.7068 85.484 55.7068 84.308C55.7068 83.12 54.7588 82.76 53.5108 82.544L53.0068 82.472C52.3348 82.352 51.8908 82.136 51.8908 81.62C51.8908 81.128 52.3348 80.828 53.0548 80.828C53.7748 80.828 54.2908 81.128 54.4588 81.92L55.4908 81.62C55.2388 80.588 54.3748 79.94 53.0548 79.94C51.6748 79.94 50.7868 80.588 50.7868 81.68ZM56.7503 78.32C56.7503 78.812 57.1223 79.172 57.6143 79.172C58.1183 79.172 58.4903 78.812 58.4903 78.32C58.4903 77.816 58.1183 77.456 57.6143 77.456C57.1223 77.456 56.7503 77.816 56.7503 78.32ZM58.1783 80.108H57.0503V86H58.1783V80.108ZM59.9007 80.108V86H61.0287V83C61.0287 81.656 61.7367 80.936 62.7927 80.936C63.7407 80.936 64.3167 81.428 64.3167 82.508V86H65.4327V82.448C65.4327 80.912 64.4367 80 63.1167 80C61.9527 80 61.3887 80.528 61.1247 81.056H61.0047V80.108H59.9007ZM71.7071 80.108V81.056H71.5871C71.2271 80.468 70.6031 79.94 69.4511 79.94C67.9631 79.94 66.7151 81.14 66.7151 82.976C66.7151 84.824 67.9631 86.012 69.4511 86.012C70.6031 86.012 71.2271 85.472 71.5631 84.944H71.6831V85.64C71.6831 86.948 70.9151 87.608 69.7631 87.608C68.6231 87.608 68.0591 86.948 67.8431 86.252L66.8231 86.672C67.1111 87.536 67.9991 88.568 69.7871 88.568C71.5991 88.568 72.8111 87.536 72.8111 85.688V80.108H71.7071ZM69.7631 85.04C68.6471 85.04 67.8551 84.248 67.8551 82.976C67.8551 81.716 68.6471 80.924 69.7631 80.924C70.8791 80.924 71.6951 81.716 71.6951 82.976C71.6951 84.236 70.8791 85.04 69.7631 85.04Z" fill="white"/>
<rect width="128" height="27" transform="translate(136 23)" fill="#636CAD"/>
<path d="M150.968 31.2L148.084 41H149.75L150.408 38.718H154.048L154.706 41H156.358L153.474 31.2H150.968ZM150.8 37.248L152.158 32.558H152.298L153.642 37.248H150.8ZM157.878 31.2V41H159.502V31.2H157.878ZM169.643 31.2L165.597 37.64V39.054H170.567V41H172.191V39.054H173.815V37.584H172.191V31.2H169.643ZM170.399 32.614H170.567V37.584H167.291L170.399 32.614Z" fill="white"/>
<rect width="128" height="80" transform="translate(136 50)" fill="#B49848"/>
<path d="M154.996 64.12C154.996 62.56 153.88 61.6 152.344 61.6H148.816V70H150.004V66.64H151.768L153.484 70H154.84L153.004 66.58C154.168 66.34 154.996 65.44 154.996 64.12ZM150.004 62.668H152.224C153.208 62.668 153.808 63.22 153.808 64.12C153.808 65.032 153.208 65.584 152.224 65.584H150.004V62.668ZM155.935 67.012C155.935 68.824 157.147 70.168 158.971 70.168C160.591 70.168 161.275 69.232 161.635 68.62L160.699 68.092C160.411 68.668 159.931 69.184 158.971 69.184C157.903 69.184 157.159 68.464 157.087 67.444H161.731V66.892C161.731 65.08 160.567 63.94 158.887 63.94C157.171 63.94 155.935 65.212 155.935 67.012ZM157.099 66.532C157.219 65.548 157.867 64.924 158.887 64.924C159.859 64.924 160.519 65.512 160.579 66.532H157.099ZM162.736 62.32C162.736 62.812 163.108 63.172 163.6 63.172C164.104 63.172 164.476 62.812 164.476 62.32C164.476 61.816 164.104 61.456 163.6 61.456C163.108 61.456 162.736 61.816 162.736 62.32ZM164.164 64.108H163.036V70H164.164V64.108ZM165.887 64.108V70H167.015V67C167.015 65.656 167.723 64.936 168.779 64.936C169.727 64.936 170.303 65.428 170.303 66.508V70H171.419V66.448C171.419 64.912 170.423 64 169.103 64C167.939 64 167.375 64.528 167.111 65.056H166.991V64.108H165.887ZM172.38 64.108V65.032H174.096V70H175.224V65.032H176.976V64.108H175.224V62.884C175.224 62.644 175.344 62.524 175.56 62.524H176.736V61.6H175.188C174.528 61.6 174.096 62.02 174.096 62.704V64.108H172.38ZM177.755 67.06C177.755 68.932 179.015 70.168 180.791 70.168C182.567 70.168 183.839 68.932 183.839 67.06C183.839 65.176 182.567 63.94 180.791 63.94C179.015 63.94 177.755 65.176 177.755 67.06ZM178.883 67.06C178.883 65.788 179.651 64.936 180.791 64.936C181.931 64.936 182.711 65.764 182.711 67.06C182.711 68.344 181.931 69.172 180.791 69.172C179.651 69.172 178.883 68.368 178.883 67.06ZM186.3 64.108H185.196V70H186.324V66.448C186.324 65.5 186.876 65.056 187.704 65.056H188.628V64.084H187.896C187.116 64.084 186.648 64.312 186.42 64.9H186.3V64.108ZM189.104 67.06C189.104 68.884 190.46 70.168 192.164 70.168C193.784 70.168 194.744 69.196 195.032 67.924L193.94 67.672C193.784 68.548 193.232 69.172 192.176 69.172C191.084 69.172 190.244 68.332 190.244 67.06C190.244 65.776 191.072 64.936 192.176 64.936C193.184 64.936 193.796 65.572 193.892 66.424L194.996 66.196C194.768 64.936 193.76 63.94 192.164 63.94C190.46 63.94 189.104 65.224 189.104 67.06ZM195.986 67.012C195.986 68.824 197.198 70.168 199.022 70.168C200.642 70.168 201.326 69.232 201.686 68.62L200.75 68.092C200.462 68.668 199.982 69.184 199.022 69.184C197.954 69.184 197.21 68.464 197.138 67.444H201.782V66.892C201.782 65.08 200.618 63.94 198.938 63.94C197.222 63.94 195.986 65.212 195.986 67.012ZM197.15 66.532C197.27 65.548 197.918 64.924 198.938 64.924C199.91 64.924 200.57 65.512 200.63 66.532H197.15ZM203.087 64.108V70H204.215V66.448C204.215 65.476 204.755 64.936 205.559 64.936C206.315 64.936 206.747 65.38 206.747 66.124V70H207.875V66.448C207.875 65.476 208.415 64.936 209.219 64.936C209.975 64.936 210.419 65.38 210.419 66.124V70H211.535V66.052C211.535 64.744 210.695 64 209.555 64C208.607 64 208.079 64.42 207.767 65.02H207.647C207.383 64.432 206.855 64 205.955 64C205.079 64 204.575 64.372 204.311 64.864H204.191V64.108H203.087ZM212.831 67.012C212.831 68.824 214.043 70.168 215.867 70.168C217.487 70.168 218.171 69.232 218.531 68.62L217.595 68.092C217.307 68.668 216.827 69.184 215.867 69.184C214.799 69.184 214.055 68.464 213.983 67.444H218.627V66.892C218.627 65.08 217.463 63.94 215.783 63.94C214.067 63.94 212.831 65.212 212.831 67.012ZM213.995 66.532C214.115 65.548 214.763 64.924 215.783 64.924C216.755 64.924 217.415 65.512 217.475 66.532H213.995ZM219.933 64.108V70H221.061V67C221.061 65.656 221.769 64.936 222.825 64.936C223.773 64.936 224.349 65.428 224.349 66.508V70H225.465V66.448C225.465 64.912 224.469 64 223.149 64C221.985 64 221.421 64.528 221.157 65.056H221.037V64.108H219.933ZM226.294 65.032H227.998V68.896C227.998 69.568 228.43 70 229.09 70H230.722V69.076H229.462C229.246 69.076 229.126 68.956 229.126 68.716V65.032H230.95V64.108H229.126V62.092H227.998V64.108H226.294V65.032ZM148.816 77.6V86H154.192V84.932H150.004V77.6H148.816ZM154.939 83.012C154.939 84.824 156.151 86.168 157.975 86.168C159.595 86.168 160.279 85.232 160.639 84.62L159.703 84.092C159.415 84.668 158.935 85.184 157.975 85.184C156.907 85.184 156.163 84.464 156.091 83.444H160.735V82.892C160.735 81.08 159.571 79.94 157.891 79.94C156.175 79.94 154.939 81.212 154.939 83.012ZM156.103 82.532C156.223 81.548 156.871 80.924 157.891 80.924C158.863 80.924 159.523 81.512 159.583 82.532H156.103ZM161.873 81.692L162.929 82.028C163.073 81.356 163.553 80.864 164.441 80.864C165.341 80.864 165.785 81.368 165.785 82.1V82.484H163.913C162.629 82.484 161.681 83.096 161.681 84.308C161.681 85.496 162.629 86.168 163.853 86.168C164.993 86.168 165.449 85.604 165.665 85.208H165.809V86H166.889V82.172C166.889 80.756 165.965 79.94 164.453 79.94C162.953 79.94 162.161 80.732 161.873 81.692ZM162.809 84.284C162.809 83.708 163.277 83.396 163.973 83.396H165.785V83.516C165.785 84.584 165.077 85.244 164.045 85.244C163.277 85.244 162.809 84.86 162.809 84.284ZM169.651 80.108H168.547V86H169.675V82.448C169.675 81.5 170.227 81.056 171.055 81.056H171.979V80.084H171.247C170.467 80.084 169.999 80.312 169.771 80.9H169.651V80.108ZM173.085 80.108V86H174.213V83C174.213 81.656 174.921 80.936 175.977 80.936C176.925 80.936 177.501 81.428 177.501 82.508V86H178.617V82.448C178.617 80.912 177.621 80 176.301 80C175.137 80 174.573 80.528 174.309 81.056H174.189V80.108H173.085ZM179.971 78.32C179.971 78.812 180.343 79.172 180.835 79.172C181.339 79.172 181.711 78.812 181.711 78.32C181.711 77.816 181.339 77.456 180.835 77.456C180.343 77.456 179.971 77.816 179.971 78.32ZM181.399 80.108H180.271V86H181.399V80.108ZM183.122 80.108V86H184.25V83C184.25 81.656 184.958 80.936 186.014 80.936C186.962 80.936 187.538 81.428 187.538 82.508V86H188.654V82.448C188.654 80.912 187.658 80 186.338 80C185.174 80 184.61 80.528 184.346 81.056H184.226V80.108H183.122ZM194.928 80.108V81.056H194.808C194.448 80.468 193.824 79.94 192.672 79.94C191.184 79.94 189.936 81.14 189.936 82.976C189.936 84.824 191.184 86.012 192.672 86.012C193.824 86.012 194.448 85.472 194.784 84.944H194.904V85.64C194.904 86.948 194.136 87.608 192.984 87.608C191.844 87.608 191.28 86.948 191.064 86.252L190.044 86.672C190.332 87.536 191.22 88.568 193.008 88.568C194.82 88.568 196.032 87.536 196.032 85.688V80.108H194.928ZM192.984 85.04C191.868 85.04 191.076 84.248 191.076 82.976C191.076 81.716 191.868 80.924 192.984 80.924C194.1 80.924 194.916 81.716 194.916 82.976C194.916 84.236 194.1 85.04 192.984 85.04ZM205.071 77.6H203.619C202.251 77.6 201.171 78.38 201.171 79.832C201.171 80.864 201.771 81.428 202.527 81.668V81.812C201.759 82.064 201.099 82.712 201.099 83.768C201.099 85.184 202.143 86 203.571 86H206.415V82.232H207.567V81.284H206.415V80.048H205.299V81.284H203.787C202.983 81.284 202.299 80.864 202.299 79.916C202.299 78.992 202.959 78.548 203.787 78.548H205.071V77.6ZM203.739 82.232H205.299V85.052H203.739C202.923 85.052 202.239 84.608 202.239 83.636C202.239 82.688 202.899 82.232 203.739 82.232ZM148.528 98.724C148.528 100.92 149.824 102.168 151.9 102.168C153.892 102.168 155.068 101.004 155.068 99.072V97.932H151.54V98.952H153.904V99.18C153.904 100.38 153.244 101.112 151.9 101.112C150.544 101.112 149.716 100.212 149.716 98.748V96.852C149.716 95.388 150.544 94.488 151.912 94.488C153.208 94.488 153.832 95.268 153.832 96.384V96.516H155.02V96.396C155.02 94.608 153.952 93.432 151.912 93.432C149.848 93.432 148.528 94.68 148.528 96.876V98.724ZM156.157 99.012C156.157 100.824 157.369 102.168 159.193 102.168C160.813 102.168 161.497 101.232 161.857 100.62L160.921 100.092C160.633 100.668 160.153 101.184 159.193 101.184C158.125 101.184 157.381 100.464 157.309 99.444H161.953V98.892C161.953 97.08 160.789 95.94 159.109 95.94C157.393 95.94 156.157 97.212 156.157 99.012ZM157.321 98.532C157.441 97.548 158.089 96.924 159.109 96.924C160.081 96.924 160.741 97.512 160.801 98.532H157.321ZM163.259 96.108V102H164.387V99C164.387 97.656 165.095 96.936 166.151 96.936C167.099 96.936 167.675 97.428 167.675 98.508V102H168.791V98.448C168.791 96.912 167.795 96 166.475 96C165.311 96 164.747 96.528 164.483 97.056H164.363V96.108H163.259ZM170.073 99.012C170.073 100.824 171.285 102.168 173.109 102.168C174.729 102.168 175.413 101.232 175.773 100.62L174.837 100.092C174.549 100.668 174.069 101.184 173.109 101.184C172.041 101.184 171.297 100.464 171.225 99.444H175.869V98.892C175.869 97.08 174.705 95.94 173.025 95.94C171.309 95.94 170.073 97.212 170.073 99.012ZM171.237 98.532C171.357 97.548 172.005 96.924 173.025 96.924C173.997 96.924 174.657 97.512 174.717 98.532H171.237ZM178.279 96.108H177.175V102H178.303V98.448C178.303 97.5 178.855 97.056 179.683 97.056H180.607V96.084H179.875C179.095 96.084 178.627 96.312 178.399 96.9H178.279V96.108ZM181.51 97.692L182.566 98.028C182.71 97.356 183.19 96.864 184.078 96.864C184.978 96.864 185.422 97.368 185.422 98.1V98.484H183.55C182.266 98.484 181.318 99.096 181.318 100.308C181.318 101.496 182.266 102.168 183.49 102.168C184.63 102.168 185.086 101.604 185.302 101.208H185.446V102H186.526V98.172C186.526 96.756 185.602 95.94 184.09 95.94C182.59 95.94 181.798 96.732 181.51 97.692ZM182.446 100.284C182.446 99.708 182.914 99.396 183.61 99.396H185.422V99.516C185.422 100.584 184.714 101.244 183.682 101.244C182.914 101.244 182.446 100.86 182.446 100.284ZM187.359 97.032H189.063V100.896C189.063 101.568 189.495 102 190.155 102H191.787V101.076H190.527C190.311 101.076 190.191 100.956 190.191 100.716V97.032H192.015V96.108H190.191V94.092H189.063V96.108H187.359V97.032ZM193.032 94.32C193.032 94.812 193.404 95.172 193.896 95.172C194.4 95.172 194.772 94.812 194.772 94.32C194.772 93.816 194.4 93.456 193.896 93.456C193.404 93.456 193.032 93.816 193.032 94.32ZM194.46 96.108H193.332V102H194.46V96.108ZM195.558 96.108L197.73 102H199.362L201.546 96.108H200.322L198.606 101.004H198.486L196.782 96.108H195.558ZM202.164 99.012C202.164 100.824 203.376 102.168 205.2 102.168C206.82 102.168 207.504 101.232 207.864 100.62L206.928 100.092C206.64 100.668 206.16 101.184 205.2 101.184C204.132 101.184 203.388 100.464 203.316 99.444H207.96V98.892C207.96 97.08 206.796 95.94 205.116 95.94C203.4 95.94 202.164 97.212 202.164 99.012ZM203.328 98.532C203.448 97.548 204.096 96.924 205.116 96.924C206.088 96.924 206.748 97.512 206.808 98.532H203.328ZM148.816 109.6V118H149.98V110.836H150.1L152.404 118H154.084L156.376 110.836H156.496V118H157.66V109.6H155.608L153.304 116.788H153.184L150.868 109.6H148.816ZM159.029 115.06C159.029 116.932 160.289 118.168 162.065 118.168C163.841 118.168 165.113 116.932 165.113 115.06C165.113 113.176 163.841 111.94 162.065 111.94C160.289 111.94 159.029 113.176 159.029 115.06ZM160.157 115.06C160.157 113.788 160.925 112.936 162.065 112.936C163.205 112.936 163.985 113.764 163.985 115.06C163.985 116.344 163.205 117.172 162.065 117.172C160.925 117.172 160.157 116.368 160.157 115.06ZM172.194 109.6H171.066V113.02H170.946C170.61 112.468 169.998 111.94 168.834 111.94C167.346 111.94 166.098 113.152 166.098 115.06C166.098 116.968 167.346 118.168 168.834 118.168C169.998 118.168 170.61 117.64 170.97 117.064H171.09V118H172.194V109.6ZM169.146 112.924C170.262 112.924 171.078 113.728 171.078 115.06C171.078 116.38 170.262 117.184 169.146 117.184C168.03 117.184 167.238 116.392 167.238 115.06C167.238 113.716 168.03 112.924 169.146 112.924ZM173.554 115.012C173.554 116.824 174.766 118.168 176.59 118.168C178.21 118.168 178.894 117.232 179.254 116.62L178.318 116.092C178.03 116.668 177.55 117.184 176.59 117.184C175.522 117.184 174.778 116.464 174.706 115.444H179.35V114.892C179.35 113.08 178.186 111.94 176.506 111.94C174.79 111.94 173.554 113.212 173.554 115.012ZM174.718 114.532C174.838 113.548 175.486 112.924 176.506 112.924C177.478 112.924 178.138 113.512 178.198 114.532H174.718ZM181.783 109.6H180.655V118H181.783V109.6ZM183.386 113.68C183.386 114.772 184.298 115.216 185.438 115.42L185.942 115.504C186.758 115.636 187.214 115.864 187.214 116.38C187.214 116.92 186.722 117.28 185.894 117.28C185.066 117.28 184.37 116.932 184.19 115.852L183.134 116.116C183.35 117.496 184.406 118.168 185.894 118.168C187.346 118.168 188.306 117.484 188.306 116.308C188.306 115.12 187.358 114.76 186.11 114.544L185.606 114.472C184.934 114.352 184.49 114.136 184.49 113.62C184.49 113.128 184.934 112.828 185.654 112.828C186.374 112.828 186.89 113.128 187.058 113.92L188.09 113.62C187.838 112.588 186.974 111.94 185.654 111.94C184.274 111.94 183.386 112.588 183.386 113.68Z" fill="white"/>
<rect width="128" height="27" transform="translate(288 23)" fill="#2F3564"/>
<path d="M302.968 31.2L300.084 41H301.75L302.408 38.718H306.048L306.706 41H308.358L305.474 31.2H302.968ZM302.8 37.248L304.158 32.558H304.298L305.642 37.248H302.8ZM309.878 31.2V41H311.502V31.2H309.878ZM318.199 31.2V36.576H320.355C320.537 36.226 320.929 35.764 321.769 35.764C322.777 35.764 323.477 36.464 323.477 37.626C323.477 38.928 322.721 39.754 321.475 39.754C320.215 39.754 319.473 38.97 319.473 37.71V37.528H317.863V37.822C317.863 39.866 319.347 41.196 321.517 41.196C323.673 41.196 325.101 39.726 325.101 37.556C325.101 35.582 323.743 34.392 322.175 34.392C320.817 34.392 320.243 35.092 319.977 35.526H319.809V32.67H324.779V31.2H318.199Z" fill="white"/>
<rect width="128" height="80" transform="translate(288 50)" fill="#76623B"/>
<path d="M300.816 61.6V70H302.004V66.712H304.104C305.616 66.712 306.756 65.74 306.756 64.156C306.756 62.584 305.64 61.6 304.104 61.6H300.816ZM302.004 62.668H303.984C304.968 62.668 305.568 63.232 305.568 64.156C305.568 65.08 304.968 65.644 303.984 65.644H302.004V62.668ZM309.048 64.108H307.944V70H309.072V66.448C309.072 65.5 309.624 65.056 310.452 65.056H311.376V64.084H310.644C309.864 64.084 309.396 64.312 309.168 64.9H309.048V64.108ZM311.852 67.06C311.852 68.932 313.112 70.168 314.888 70.168C316.664 70.168 317.936 68.932 317.936 67.06C317.936 65.176 316.664 63.94 314.888 63.94C313.112 63.94 311.852 65.176 311.852 67.06ZM312.98 67.06C312.98 65.788 313.748 64.936 314.888 64.936C316.028 64.936 316.808 65.764 316.808 67.06C316.808 68.344 316.028 69.172 314.888 69.172C313.748 69.172 312.98 68.368 312.98 67.06ZM325.017 61.6H323.889V65.02H323.769C323.433 64.468 322.821 63.94 321.657 63.94C320.169 63.94 318.921 65.152 318.921 67.06C318.921 68.968 320.169 70.168 321.657 70.168C322.821 70.168 323.433 69.64 323.793 69.064H323.913V70H325.017V61.6ZM321.969 64.924C323.085 64.924 323.901 65.728 323.901 67.06C323.901 68.38 323.085 69.184 321.969 69.184C320.853 69.184 320.061 68.392 320.061 67.06C320.061 65.716 320.853 64.924 321.969 64.924ZM332.269 70V64.108H331.141V67.108C331.141 68.452 330.433 69.172 329.377 69.172C328.429 69.172 327.853 68.68 327.853 67.6V64.108H326.737V67.66C326.737 69.196 327.733 70.108 329.053 70.108C330.217 70.108 330.781 69.58 331.045 69.052H331.165V70H332.269ZM333.622 67.06C333.622 68.884 334.978 70.168 336.682 70.168C338.302 70.168 339.262 69.196 339.55 67.924L338.458 67.672C338.302 68.548 337.75 69.172 336.694 69.172C335.602 69.172 334.762 68.332 334.762 67.06C334.762 65.776 335.59 64.936 336.694 64.936C337.702 64.936 338.314 65.572 338.41 66.424L339.514 66.196C339.286 64.936 338.278 63.94 336.682 63.94C334.978 63.94 333.622 65.224 333.622 67.06ZM340.109 65.032H341.813V68.896C341.813 69.568 342.245 70 342.905 70H344.537V69.076H343.277C343.061 69.076 342.941 68.956 342.941 68.716V65.032H344.765V64.108H342.941V62.092H341.813V64.108H340.109V65.032ZM345.782 62.32C345.782 62.812 346.154 63.172 346.646 63.172C347.15 63.172 347.522 62.812 347.522 62.32C347.522 61.816 347.15 61.456 346.646 61.456C346.154 61.456 345.782 61.816 345.782 62.32ZM347.21 64.108H346.082V70H347.21V64.108ZM348.56 67.06C348.56 68.932 349.82 70.168 351.596 70.168C353.372 70.168 354.644 68.932 354.644 67.06C354.644 65.176 353.372 63.94 351.596 63.94C349.82 63.94 348.56 65.176 348.56 67.06ZM349.688 67.06C349.688 65.788 350.456 64.936 351.596 64.936C352.736 64.936 353.516 65.764 353.516 67.06C353.516 68.344 352.736 69.172 351.596 69.172C350.456 69.172 349.688 68.368 349.688 67.06ZM356.001 64.108V70H357.129V67C357.129 65.656 357.837 64.936 358.893 64.936C359.841 64.936 360.417 65.428 360.417 66.508V70H361.533V66.448C361.533 64.912 360.537 64 359.217 64C358.053 64 357.489 64.528 357.225 65.056H357.105V64.108H356.001ZM362.888 62.32C362.888 62.812 363.26 63.172 363.752 63.172C364.256 63.172 364.628 62.812 364.628 62.32C364.628 61.816 364.256 61.456 363.752 61.456C363.26 61.456 362.888 61.816 362.888 62.32ZM364.316 64.108H363.188V70H364.316V64.108ZM365.918 64.108V65.032H369.506L365.798 69.16V70H371.102V69.076H367.31L371.006 64.948V64.108H365.918ZM372.21 62.32C372.21 62.812 372.582 63.172 373.074 63.172C373.578 63.172 373.95 62.812 373.95 62.32C373.95 61.816 373.578 61.456 373.074 61.456C372.582 61.456 372.21 61.816 372.21 62.32ZM373.638 64.108H372.51V70H373.638V64.108ZM375.36 64.108V70H376.488V67C376.488 65.656 377.196 64.936 378.252 64.936C379.2 64.936 379.776 65.428 379.776 66.508V70H380.892V66.448C380.892 64.912 379.896 64 378.576 64C377.412 64 376.848 64.528 376.584 65.056H376.464V64.108H375.36ZM387.167 64.108V65.056H387.047C386.687 64.468 386.063 63.94 384.911 63.94C383.423 63.94 382.175 65.14 382.175 66.976C382.175 68.824 383.423 70.012 384.911 70.012C386.063 70.012 386.687 69.472 387.023 68.944H387.143V69.64C387.143 70.948 386.375 71.608 385.223 71.608C384.083 71.608 383.519 70.948 383.303 70.252L382.283 70.672C382.571 71.536 383.459 72.568 385.247 72.568C387.059 72.568 388.271 71.536 388.271 69.688V64.108H387.167ZM385.223 69.04C384.107 69.04 383.315 68.248 383.315 66.976C383.315 65.716 384.107 64.924 385.223 64.924C386.339 64.924 387.155 65.716 387.155 66.976C387.155 68.236 386.339 69.04 385.223 69.04ZM395.581 61.6L392.989 70H394.213L394.837 67.96H398.149L398.773 70H400.009L397.417 61.6H395.581ZM395.137 66.88L396.433 62.632H396.553L397.849 66.88H395.137ZM401.071 61.6V70H402.259V61.6H401.071ZM301.524 85.652C301.524 88.016 302.808 88.976 304.656 88.976V87.956C303.312 87.92 302.652 87.152 302.652 85.556V79.724C302.652 78.128 303.312 77.36 304.656 77.324V76.304C302.808 76.304 301.524 77.264 301.524 79.628V85.652ZM305.834 77.6V86H306.998V78.836H307.118L309.422 86H311.102L313.394 78.836H313.514V86H314.678V77.6H312.626L310.322 84.788H310.202L307.886 77.6H305.834ZM316.431 77.6V86H321.807V84.932H317.619V77.6H316.431ZM322.65 80.828V82.772C322.65 84.98 323.958 86.168 325.998 86.168C328.038 86.168 329.346 84.98 329.346 82.772V80.828C329.346 78.62 328.038 77.432 325.998 77.432C323.958 77.432 322.65 78.62 322.65 80.828ZM323.838 80.78C323.838 79.364 324.642 78.488 325.998 78.488C327.354 78.488 328.158 79.364 328.158 80.78V82.82C328.158 84.236 327.354 85.112 325.998 85.112C324.642 85.112 323.838 84.236 323.838 82.82V80.78ZM330.804 88.4H331.932V85.1H332.052C332.388 85.64 333 86.168 334.152 86.168C335.652 86.168 336.9 84.968 336.9 83.06C336.9 81.152 335.652 79.94 334.152 79.94C333 79.94 332.388 80.468 332.028 81.056H331.908V80.108H330.804V88.4ZM333.852 85.184C332.724 85.184 331.92 84.38 331.92 83.06C331.92 81.728 332.724 80.924 333.852 80.924C334.968 80.924 335.76 81.716 335.76 83.06C335.76 84.392 334.968 85.184 333.852 85.184ZM338.104 81.68C338.104 82.772 339.016 83.216 340.156 83.42L340.66 83.504C341.476 83.636 341.932 83.864 341.932 84.38C341.932 84.92 341.44 85.28 340.612 85.28C339.784 85.28 339.088 84.932 338.908 83.852L337.852 84.116C338.068 85.496 339.124 86.168 340.612 86.168C342.064 86.168 343.024 85.484 343.024 84.308C343.024 83.12 342.076 82.76 340.828 82.544L340.324 82.472C339.652 82.352 339.208 82.136 339.208 81.62C339.208 81.128 339.652 80.828 340.372 80.828C341.092 80.828 341.608 81.128 341.776 81.92L342.808 81.62C342.556 80.588 341.692 79.94 340.372 79.94C338.992 79.94 338.104 80.588 338.104 81.68ZM346.936 85.652V79.628C346.936 77.264 345.664 76.304 343.804 76.304V77.324C345.16 77.36 345.82 78.128 345.82 79.724V85.556C345.82 87.152 345.16 87.92 343.804 87.956V88.976C345.664 88.976 346.936 88.016 346.936 85.652Z" fill="white"/>
<path d="M0.882 4.2L0.881999 14L4.102 14C6.72 14 8.134 12.67 8.134 10.01L8.134 8.19C8.134 5.53 6.72 4.2 4.102 4.2L0.882 4.2ZM2.506 5.67L4.116 5.67C5.74 5.67 6.524 6.51 6.524 8.134L6.524 10.066C6.524 11.69 5.754 12.53 4.116 12.53L2.506 12.53L2.506 5.67ZM9.52197 10.514C9.52197 12.684 10.95 14.196 13.05 14.196C14.954 14.196 15.766 13.104 16.172 12.376L14.898 11.69C14.618 12.292 14.128 12.866 13.078 12.866C11.972 12.866 11.16 12.096 11.104 11.032L16.34 11.032L16.34 10.402C16.34 8.288 14.996 6.888 12.994 6.888C10.964 6.888 9.52197 8.358 9.52197 10.514ZM11.118 9.842C11.244 8.876 11.916 8.218 12.98 8.218C14.002 8.218 14.688 8.848 14.772 9.842L11.118 9.842ZM17.5709 10.514C17.5709 12.684 18.9989 14.196 21.0989 14.196C23.0029 14.196 23.8149 13.104 24.2209 12.376L22.9469 11.69C22.6669 12.292 22.1769 12.866 21.1269 12.866C20.0209 12.866 19.2089 12.096 19.1529 11.032L24.3889 11.032L24.3889 10.402C24.3889 8.288 23.0449 6.888 21.0429 6.888C19.0129 6.888 17.5709 8.358 17.5709 10.514ZM19.1669 9.842C19.2929 8.876 19.9649 8.218 21.0289 8.218C22.0509 8.218 22.7369 8.848 22.8209 9.842L19.1669 9.842ZM26.0538 16.8L27.5798 16.8L27.5798 13.02L27.7198 13.02C28.1118 13.622 28.8118 14.196 30.0858 14.196C31.7798 14.196 33.2498 12.796 33.2498 10.542C33.2498 8.302 31.7798 6.902 30.0858 6.902C28.8118 6.902 28.1118 7.476 27.6918 8.106L27.5518 8.106L27.5518 7.098L26.0538 7.098L26.0538 16.8ZM29.6378 12.866C28.4478 12.866 27.5658 11.998 27.5658 10.542C27.5658 9.086 28.4478 8.218 29.6378 8.218C30.8418 8.218 31.7098 9.086 31.7098 10.542C31.7098 12.012 30.8418 12.866 29.6378 12.866ZM39.3765 4.2L39.3765 14L45.7045 14L45.7045 12.53L41.0005 12.53L41.0005 4.2L39.3765 4.2ZM46.7587 10.514C46.7587 12.684 48.1867 14.196 50.2867 14.196C52.1907 14.196 53.0027 13.104 53.4087 12.376L52.1347 11.69C51.8547 12.292 51.3647 12.866 50.3147 12.866C49.2087 12.866 48.3967 12.096 48.3407 11.032L53.5767 11.032L53.5767 10.402C53.5767 8.288 52.2327 6.888 50.2307 6.888C48.2007 6.888 46.7587 8.358 46.7587 10.514ZM48.3547 9.842C48.4807 8.876 49.1527 8.218 50.2167 8.218C51.2387 8.218 51.9247 8.848 52.0087 9.842L48.3547 9.842ZM55.1019 8.89L56.5299 9.366C56.6699 8.652 57.1599 8.134 58.1259 8.134C59.0919 8.134 59.5539 8.68 59.5539 9.422L59.5539 9.842L57.5099 9.842C55.9699 9.842 54.8639 10.57 54.8639 11.998C54.8639 13.398 55.9699 14.196 57.3979 14.196C58.7139 14.196 59.2039 13.51 59.3999 13.132L59.5819 13.132L59.5819 14L61.0519 14L61.0519 9.534C61.0519 7.84 59.9319 6.888 58.1399 6.888C56.3619 6.888 55.4379 7.812 55.1019 8.89ZM56.4039 11.956C56.4039 11.382 56.8659 11.032 57.6079 11.032L59.5539 11.032L59.5539 11.158C59.5539 12.25 58.7839 12.936 57.6919 12.936C56.8659 12.936 56.4039 12.544 56.4039 11.956ZM64.6108 7.098L63.1128 7.098L63.1128 14L64.6388 14L64.6388 9.912C64.6388 8.862 65.2968 8.372 66.2208 8.372L67.2848 8.372L67.2848 7.07L66.4868 7.07C65.5908 7.07 65.0308 7.336 64.7508 8.05L64.6108 8.05L64.6108 7.098ZM68.7281 7.098L68.7281 14L70.2541 14L70.2541 10.458C70.2541 9.03 70.9961 8.232 72.1441 8.232C73.1661 8.232 73.7681 8.778 73.7681 9.94L73.7681 14L75.3081 14L75.3081 9.856C75.3081 8.092 74.1881 6.972 72.6061 6.972C71.2901 6.972 70.6741 7.56 70.3661 8.162L70.2261 8.162L70.2261 7.098L68.7281 7.098ZM77.0005 5.04C77.0005 5.684 77.4905 6.132 78.1345 6.132C78.7785 6.132 79.2685 5.684 79.2685 5.04C79.2685 4.382 78.7785 3.934 78.1345 3.934C77.4905 3.934 77.0005 4.382 77.0005 5.04ZM78.9045 7.098L77.3785 7.098L77.3785 14L78.9045 14L78.9045 7.098ZM81.0661 7.098L81.0661 14L82.5921 14L82.5921 10.458C82.5921 9.03 83.3341 8.232 84.4821 8.232C85.5041 8.232 86.1061 8.778 86.1061 9.94L86.1061 14L87.6461 14L87.6461 9.856C87.6461 8.092 86.5261 6.972 84.9441 6.972C83.6281 6.972 83.0121 7.56 82.7041 8.162L82.5641 8.162L82.5641 7.098L81.0661 7.098ZM94.9806 7.098L94.9806 8.106L94.8406 8.106C94.4206 7.47601 93.7206 6.902 92.4466 6.902C90.7526 6.902 89.2826 8.288 89.2826 10.444C89.2826 12.6 90.7526 14 92.4466 14C93.7206 14 94.4206 13.412 94.8126 12.824L94.9526 12.824L94.9526 13.566C94.9526 14.994 94.1126 15.694 92.8666 15.694C91.6206 15.694 91.0046 14.994 90.7526 14.196L89.3806 14.784C89.7306 15.806 90.7806 16.996 92.8946 16.996C95.0646 16.996 96.4926 15.806 96.4926 13.608L96.4926 7.098L94.9806 7.098ZM92.8946 12.67C91.6906 12.67 90.8226 11.816 90.8226 10.444C90.8226 9.072 91.6906 8.218 92.8946 8.218C94.0986 8.21801 94.9806 9.08601 94.9806 10.444C94.9806 11.816 94.0986 12.67 92.8946 12.67ZM103.039 4.20001L103.039 14L109.367 14L109.367 12.53L104.663 12.53L104.663 4.20001L103.039 4.20001ZM110.422 10.514C110.422 12.684 111.85 14.196 113.95 14.196C115.854 14.196 116.666 13.104 117.072 12.376L115.798 11.69C115.518 12.292 115.028 12.866 113.978 12.866C112.872 12.866 112.06 12.096 112.004 11.032L117.24 11.032L117.24 10.402C117.24 8.28801 115.896 6.88801 113.894 6.88801C111.864 6.88801 110.422 8.35801 110.422 10.514ZM112.018 9.84201C112.144 8.87601 112.816 8.21801 113.88 8.21801C114.902 8.21801 115.588 8.84801 115.672 9.84201L112.018 9.84201ZM118.765 8.89001L120.193 9.36601C120.333 8.65201 120.823 8.13401 121.789 8.13401C122.755 8.13401 123.217 8.68001 123.217 9.42201L123.217 9.84201L121.173 9.84201C119.633 9.84201 118.527 10.57 118.527 11.998C118.527 13.398 119.633 14.196 121.061 14.196C122.377 14.196 122.867 13.51 123.063 13.132L123.245 13.132L123.245 14L124.715 14L124.715 9.53401C124.715 7.84001 123.595 6.88801 121.803 6.88801C120.025 6.88801 119.101 7.81201 118.765 8.89001ZM120.067 11.956C120.067 11.382 120.529 11.032 121.271 11.032L123.217 11.032L123.217 11.158C123.217 12.25 122.447 12.936 121.355 12.936C120.529 12.936 120.067 12.544 120.067 11.956ZM133.552 4.20001L132.012 4.20001L132.012 8.06401L131.872 8.06401C131.48 7.47601 130.78 6.90201 129.506 6.90201C127.812 6.90201 126.342 8.30201 126.342 10.542C126.342 12.796 127.812 14.196 129.506 14.196C130.78 14.196 131.48 13.622 131.9 12.978L132.04 12.978L132.04 14L133.552 14L133.552 4.20001ZM129.954 8.21801C131.158 8.21801 132.04 9.08601 132.04 10.542C132.04 11.998 131.158 12.866 129.954 12.866C128.75 12.866 127.882 12.012 127.882 10.542C127.882 9.08601 128.75 8.21801 129.954 8.21801ZM135.265 10.514C135.265 12.684 136.693 14.196 138.793 14.196C140.697 14.196 141.509 13.104 141.915 12.376L140.641 11.69C140.361 12.292 139.871 12.866 138.821 12.866C137.715 12.866 136.903 12.096 136.847 11.032L142.083 11.032L142.083 10.402C142.083 8.28801 140.739 6.88801 138.737 6.88801C136.707 6.88801 135.265 8.35801 135.265 10.514ZM136.861 9.84201C136.987 8.87601 137.659 8.21801 138.723 8.21801C139.745 8.21801 140.431 8.84801 140.515 9.84201L136.861 9.84201ZM145.246 7.09801L143.748 7.09801L143.748 14L145.274 14L145.274 9.91201C145.274 8.86201 145.932 8.37201 146.856 8.37201L147.92 8.37201L147.92 7.07001L147.122 7.07001C146.226 7.07001 145.666 7.33601 145.386 8.05001L145.246 8.05001L145.246 7.09801ZM149.101 8.98801C149.101 10.304 150.193 10.822 151.593 11.074L152.069 11.158C152.979 11.326 153.441 11.55 153.441 12.082C153.441 12.614 152.951 13.006 152.069 13.006C151.173 13.006 150.445 12.642 150.249 11.508L148.821 11.858C149.059 13.398 150.291 14.196 152.069 14.196C153.805 14.196 154.925 13.384 154.925 11.97C154.925 10.556 153.791 10.15 152.279 9.87001L151.803 9.78601C151.047 9.64601 150.585 9.42201 150.585 8.89001C150.585 8.38601 151.033 8.07801 151.789 8.07801C152.545 8.07801 153.091 8.40001 153.259 9.24001L154.659 8.82001C154.351 7.65801 153.343 6.90201 151.789 6.90201C150.165 6.90201 149.101 7.65801 149.101 8.98801ZM161.06 4.20001L161.06 14L162.684 14L162.684 10.29L164.994 10.29C166.772 10.29 168.116 9.10001 168.116 7.25201C168.116 5.39001 166.814 4.20001 164.994 4.20001L161.06 4.20001ZM162.684 5.67001L164.826 5.67001C165.848 5.67001 166.492 6.27201 166.492 7.25201C166.492 8.21801 165.848 8.82001 164.826 8.82001L162.684 8.82001L162.684 5.67001ZM171.126 7.09801L169.628 7.09801L169.628 14L171.154 14L171.154 9.91201C171.154 8.86201 171.812 8.37201 172.736 8.37201L173.8 8.37201L173.8 7.07001L173.002 7.07001C172.106 7.07001 171.546 7.33601 171.266 8.05001L171.126 8.05001L171.126 7.09801ZM174.563 10.542C174.563 12.782 176.089 14.196 178.161 14.196C180.233 14.196 181.745 12.782 181.745 10.542C181.745 8.31601 180.233 6.90201 178.161 6.90201C176.089 6.90201 174.563 8.31601 174.563 10.542ZM176.103 10.542C176.103 9.12801 176.943 8.24601 178.161 8.24601C179.365 8.24601 180.205 9.11401 180.205 10.542C180.205 11.97 179.365 12.852 178.161 12.852C176.943 12.852 176.103 11.984 176.103 10.542ZM188.734 7.09801L188.734 8.10601L188.594 8.10601C188.174 7.47601 187.474 6.90201 186.2 6.90201C184.506 6.90201 183.036 8.28801 183.036 10.444C183.036 12.6 184.506 14 186.2 14C187.474 14 188.174 13.412 188.566 12.824L188.706 12.824L188.706 13.566C188.706 14.994 187.866 15.694 186.62 15.694C185.374 15.694 184.758 14.994 184.506 14.196L183.134 14.784C183.484 15.806 184.534 16.996 186.648 16.996C188.818 16.996 190.246 15.806 190.246 13.608L190.246 7.09801L188.734 7.09801ZM186.648 12.67C185.444 12.67 184.576 11.816 184.576 10.444C184.576 9.07201 185.444 8.21801 186.648 8.21801C187.852 8.21801 188.734 9.08601 188.734 10.444C188.734 11.816 187.852 12.67 186.648 12.67ZM193.891 7.09801L192.393 7.09801L192.393 14L193.919 14L193.919 9.91201C193.919 8.86201 194.577 8.37201 195.501 8.37201L196.565 8.37201L196.565 7.07001L195.767 7.07001C194.871 7.07001 194.311 7.33601 194.031 8.05001L193.891 8.05001L193.891 7.09801ZM197.814 8.89001L199.242 9.36601C199.382 8.65201 199.872 8.13401 200.838 8.13401C201.804 8.13401 202.266 8.68001 202.266 9.42201L202.266 9.84201L200.222 9.84201C198.682 9.84201 197.576 10.57 197.576 11.998C197.576 13.398 198.682 14.196 200.11 14.196C201.426 14.196 201.916 13.51 202.112 13.132L202.294 13.132L202.294 14L203.764 14L203.764 9.53401C203.764 7.84001 202.644 6.88801 200.852 6.88801C199.074 6.88801 198.15 7.81201 197.814 8.89001ZM199.116 11.956C199.116 11.382 199.578 11.032 200.32 11.032L202.266 11.032L202.266 11.158C202.266 12.25 201.496 12.936 200.404 12.936C199.578 12.936 199.116 12.544 199.116 11.956ZM205.825 7.09801L205.825 14L207.351 14L207.351 9.85601C207.351 8.80601 207.897 8.23201 208.765 8.23201C209.563 8.23201 210.025 8.69401 210.025 9.49201L210.025 14L211.565 14L211.565 9.85601C211.565 8.80601 212.111 8.23201 212.979 8.23201C213.763 8.23201 214.239 8.69401 214.239 9.49201L214.239 14L215.779 14L215.779 9.40801C215.779 7.81201 214.757 6.97201 213.455 6.97201C212.335 6.97201 211.775 7.47601 211.425 8.12001L211.285 8.12001C210.963 7.43401 210.361 6.97201 209.339 6.97201C208.317 6.97201 207.757 7.40601 207.463 7.96601L207.323 7.96601L207.323 7.09801L205.825 7.09801Z" fill="#1E2029"/>
<path d="M432 130L448 130L448 26L432 26" stroke="#787878"/>
<path d="M462.76 81.1183C464.944 81.1183 466.168 79.7983 466.168 77.7103C466.168 75.6463 464.98 74.4463 463.156 74.4463L462.868 74.4463L462.868 75.8263L463.18 75.8263C464.164 75.8263 464.932 76.4503 464.932 77.7103C464.932 78.9583 464.116 79.7263 462.784 79.7263L460.816 79.7263C459.484 79.7263 458.668 78.9703 458.668 77.7103C458.668 76.4743 459.448 75.8263 460.432 75.8263L460.66 75.8263L460.66 74.4463L460.456 74.4463C458.62 74.4463 457.432 75.6223 457.432 77.7103C457.432 79.7983 458.656 81.1183 460.84 81.1183L462.76 81.1183ZM463.036 73.3303C464.956 73.3303 466.168 72.0223 466.168 70.2463C466.168 68.4703 464.956 67.1743 463.036 67.1743C461.128 67.1743 459.916 68.4703 459.916 70.2463C459.916 72.0223 461.128 73.3303 463.036 73.3303ZM463.036 72.0103C461.824 72.0103 461.068 71.2903 461.068 70.2463C461.068 69.2143 461.812 68.4943 463.036 68.4943C464.26 68.4943 465.016 69.2143 465.016 70.2463C465.016 71.2903 464.272 72.0103 463.036 72.0103ZM466 60.056L460.084 60.056L460.084 61.364L463.12 61.364C464.332 61.364 465.016 62 465.016 62.984C465.016 63.86 464.548 64.376 463.564 64.376L460.084 64.376L460.084 65.696L463.636 65.696C465.136 65.696 466.096 64.736 466.096 63.38C466.096 62.252 465.604 61.724 465.076 61.46L465.076 61.34L466 61.34L466 60.056ZM460.084 56.927L460.084 58.211L466 58.211L466 56.903L462.496 56.903C461.596 56.903 461.176 56.339 461.176 55.547L461.176 54.635L460.06 54.635L460.06 55.319C460.06 56.087 460.288 56.567 460.9 56.807L460.9 56.927L460.084 56.927ZM461.704 53.6231C462.832 53.6231 463.276 52.6871 463.492 51.4871L463.564 51.0791C463.708 50.2991 463.9 49.9031 464.356 49.9031C464.812 49.9031 465.148 50.3231 465.148 51.0791C465.148 51.8471 464.836 52.4711 463.864 52.6391L464.164 53.8631C465.484 53.6591 466.168 52.6031 466.168 51.0791C466.168 49.5911 465.472 48.6311 464.26 48.6311C463.048 48.6311 462.7 49.6031 462.46 50.8991L462.388 51.3071C462.268 51.9551 462.076 52.3511 461.62 52.3511C461.188 52.3511 460.924 51.9671 460.924 51.3191C460.924 50.6711 461.2 50.2031 461.92 50.0591L461.56 48.8591C460.564 49.1231 459.916 49.9871 459.916 51.3191C459.916 52.7111 460.564 53.6231 461.704 53.6231ZM463.012 47.5153C464.872 47.5153 466.168 46.2913 466.168 44.4913C466.168 42.8593 465.232 42.1633 464.608 41.8153L464.02 42.9073C464.536 43.1473 465.028 43.5673 465.028 44.4673C465.028 45.4153 464.368 46.1113 463.456 46.1593L463.456 41.6713L462.916 41.6713C461.104 41.6713 459.904 42.8233 459.904 44.5393C459.904 46.2793 461.164 47.5153 463.012 47.5153ZM462.436 46.1473C461.608 46.0393 461.044 45.4633 461.044 44.5513C461.044 43.6753 461.584 43.0873 462.436 43.0153L462.436 46.1473ZM461.704 40.3757C462.832 40.3757 463.276 39.4397 463.492 38.2397L463.564 37.8317C463.708 37.0517 463.9 36.6557 464.356 36.6557C464.812 36.6557 465.148 37.0757 465.148 37.8317C465.148 38.5997 464.836 39.2237 463.864 39.3917L464.164 40.6157C465.484 40.4117 466.168 39.3557 466.168 37.8317C466.168 36.3437 465.472 35.3837 464.26 35.3837C463.048 35.3837 462.7 36.3557 462.46 37.6517L462.388 38.0597C462.268 38.7077 462.076 39.1037 461.62 39.1037C461.188 39.1037 460.924 38.7197 460.924 38.0717C460.924 37.4237 461.2 36.9557 461.92 36.8117L461.56 35.6117C460.564 35.8757 459.916 36.7397 459.916 38.0717C459.916 39.4637 460.564 40.3757 461.704 40.3757Z" fill="#787878"/>
</svg>
