<svg width="40" height="38" viewBox="0 0 40 38" fill="none" xmlns="http://www.w3.org/2000/svg">
<path d="M17.4804 9.59418L12.0796 1.1403C11.8576 0.792527 11.5434 0.504708 11.1677 0.304874C10.792 0.10504 10.3676 4.97889e-06 9.93588 0H1.25229C0.240569 0 -0.351619 1.06912 0.228068 1.84766L8.92104 13.5118C11.2429 11.4741 14.196 10.0755 17.4804 9.59418ZM38.7476 0H30.064C29.1859 0 28.3718 0.432931 27.9203 1.1403L22.5195 9.59418C25.8038 10.0755 28.757 11.4741 31.0788 13.5111L39.7718 1.84766C40.3515 1.06912 39.7593 0 38.7476 0ZM19.9999 11.7405C12.4062 11.7405 6.24994 17.5227 6.24994 24.655C6.24994 31.7874 12.4062 37.5696 19.9999 37.5696C27.5937 37.5696 33.7499 31.7874 33.7499 24.655C33.7499 17.5227 27.5937 11.7405 19.9999 11.7405ZM27.2281 23.2799L24.2648 25.992L24.9656 29.8238C25.0906 30.5106 24.3203 31.0353 23.6648 30.7109L19.9999 28.9022L16.3359 30.7109C15.6796 31.0375 14.9101 30.5099 15.0351 29.8238L15.7359 25.992L12.7726 23.2799C12.2398 22.7927 12.5343 21.9422 13.2687 21.8425L17.3648 21.2818L19.1953 17.7949C19.3601 17.4809 19.6788 17.326 19.9984 17.326C20.3195 17.326 20.6406 17.4831 20.8054 17.7949L22.6359 21.2818L26.732 21.8425C27.4663 21.9422 27.7609 22.7927 27.2281 23.2799Z" fill="#3D32D9"/>
</svg>
