<svg width="215" height="120" viewBox="0 0 215 120" fill="none" xmlns="http://www.w3.org/2000/svg">
<rect width="214" height="120" fill="#1E2029"/>
<rect x="176" y="1" width="37.4167" height="20" fill="#FAFAFA" stroke="#139EB1" stroke-width="2"/>
<rect x="175.5" y="26.5" width="38.4167" height="21" stroke="#E5E5E5"/>
<rect x="175.5" y="52.5" width="38.4167" height="21" stroke="#E5E5E5"/>
<rect x="175.5" y="78.5" width="38.4167" height="21" stroke="#E5E5E5"/>
<rect y="108" width="214" height="12" fill="#434343"/>
<rect x="8" y="110" width="8" height="8" fill="#FAFAFA"/>
<rect x="19" y="110" width="8" height="8" fill="#FAFAFA"/>
<rect x="81" y="110" width="8" height="8" fill="#FAFAFA"/>
<rect x="92" y="110" width="8" height="8" fill="#FAFAFA"/>
<rect x="103" y="110" width="8" height="8" fill="#FAFAFA"/>
<rect x="114" y="110" width="8" height="8" fill="#FAFAFA"/>
<rect x="125" y="110" width="8" height="8" fill="#FAFAFA"/>
<rect x="190" y="110" width="16" height="8" fill="#EF4D7D"/>
<rect x="8" y="17" width="165" height="77" fill="#FAFAFA"/>
<rect x="65.5786" y="43.2261" width="53.5537" height="3.9779" fill="#434343"/>
<rect x="65.5786" y="61.7896" width="53.5537" height="3.9779" fill="#434343"/>
<rect x="65.5786" y="52.5083" width="11.9008" height="3.9779" fill="#434343"/>
<rect x="65.5786" y="71.0713" width="11.9008" height="3.9779" fill="#434343"/>
<rect x="55" y="24" width="11.9008" height="3.9779" fill="#324BD9"/>
<rect x="55" y="31.9556" width="8.59503" height="3.9779" fill="#324BD9"/>
<rect x="123.099" y="43.2261" width="13.2231" height="3.9779" fill="#324BD9"/>
<rect x="81.4463" y="71.0713" width="25.1239" height="3.9779" fill="#324BD9"/>
<rect x="183" y="35" width="24" height="4" fill="white"/>
<rect x="183" y="87" width="24" height="4" fill="white"/>
<rect x="183" y="61" width="24" height="4" fill="white"/>
<rect x="8" y="17" width="36" height="77" fill="#E5E5E5"/>
</svg>
