<svg width="2000" height="1000" viewBox="0 0 2000 1000" fill="none" xmlns="http://www.w3.org/2000/svg">
<g clip-path="url(#clip0)">
<rect width="2000" height="1000" fill="#182880"/>
<g opacity="0.6" clip-path="url(#clip1)">
<path d="M41.5095 603.361C89.3674 757.443 484.158 795.644 923.299 688.686C1362.44 581.728 1679.64 370.113 1631.78 216.032C1583.92 61.9499 1189.13 23.7487 749.991 130.707C310.849 237.665 -6.34841 449.28 41.5095 603.361Z" stroke="url(#paint0_linear)" stroke-width="3" stroke-miterlimit="10"/>
<path d="M160.423 752.17C233.942 898.118 630.742 883.233 1046.7 718.924C1462.66 554.615 1740.26 303.102 1666.74 157.154C1593.22 11.2066 1196.42 26.0914 780.464 190.4C364.506 354.709 86.9033 606.222 160.423 752.17Z" stroke="url(#paint1_linear)" stroke-width="3" stroke-miterlimit="10"/>
<path d="M303.424 883.407C400.927 1017.88 790.66 950.243 1173.92 732.334C1557.18 514.424 1788.83 228.762 1691.32 94.2876C1593.82 -40.1863 1204.09 27.4513 820.831 245.36C437.573 463.27 205.922 748.933 303.424 883.407Z" stroke="url(#paint2_linear)" stroke-width="3" stroke-miterlimit="10"/>
<path d="M467.14 994.1C586.405 1114.03 960.183 995.176 1302 728.627C1643.81 462.079 1824.22 148.775 1704.95 28.8427C1585.69 -91.0892 1211.91 27.7671 870.096 294.316C528.283 560.864 347.874 874.168 467.14 994.1Z" stroke="url(#paint3_linear)" stroke-width="3" stroke-miterlimit="10"/>
<path d="M647.635 1081.5C785.921 1184.16 1135.21 1016.84 1427.79 707.779C1720.36 398.721 1845.44 64.9606 1707.16 -37.6967C1568.87 -140.354 1219.58 26.9667 927.006 336.024C634.427 645.082 509.349 978.843 647.635 1081.5Z" stroke="url(#paint4_linear)" stroke-width="3" stroke-miterlimit="10"/>
<path d="M841.05 1144.19C995.235 1227.24 1312.11 1015.22 1548.8 670.628C1785.5 326.039 1852.39 -20.6307 1698.2 -103.68C1544.02 -186.73 1227.14 25.2904 990.449 369.88C753.754 714.469 686.865 1061.14 841.05 1144.19Z" stroke="url(#paint5_linear)" stroke-width="3" stroke-miterlimit="10"/>
<path d="M1042.91 1180.14C1209.45 1241.68 1486.65 989.823 1662.04 617.607C1837.43 245.391 1844.61 -106.238 1678.06 -167.778C1511.51 -229.318 1234.32 22.5346 1058.92 394.751C883.532 766.967 876.361 1118.6 1042.91 1180.14Z" stroke="url(#paint6_linear)" stroke-width="3" stroke-miterlimit="10"/>
<path d="M1248.59 1188.82C1423.71 1227.44 1654.91 941.48 1764.99 550.107C1875.07 158.734 1822.35 -189.848 1647.23 -228.473C1472.11 -267.097 1240.91 18.8626 1130.83 410.236C1020.75 801.609 1073.47 1150.19 1248.59 1188.82Z" stroke="url(#paint7_linear)" stroke-width="3" stroke-miterlimit="10"/>
<path d="M1453.33 1169.94C1633.02 1184.77 1812.94 871.253 1855.21 469.676C1897.47 68.0988 1786.07 -269.466 1606.39 -284.295C1426.71 -299.125 1246.78 14.3957 1204.52 415.973C1162.25 817.55 1273.65 1155.11 1453.33 1169.94Z" stroke="url(#paint8_linear)" stroke-width="3" stroke-miterlimit="10"/>
<path d="M1278.36 411.776C1304.86 814.402 1472.39 1133.26 1652.55 1123.95C1832.7 1114.65 1957.26 780.722 1930.75 378.096C1904.24 -24.5296 1736.71 -343.383 1556.56 -334.082C1376.4 -324.782 1251.85 9.15053 1278.36 411.776Z" stroke="url(#paint9_linear)" stroke-width="3" stroke-miterlimit="10"/>
<path d="M1350.68 397.755C1445.36 792.234 1665.21 1085.09 1841.72 1051.87C2018.23 1018.64 2084.55 671.923 1989.87 277.444C1895.18 -117.035 1675.33 -409.891 1498.83 -376.668C1322.32 -343.445 1255.99 3.27605 1350.68 397.755Z" stroke="url(#paint10_linear)" stroke-width="3" stroke-miterlimit="10"/>
<path d="M35.7291 557.62C74.4197 713.715 466.431 770.158 911.311 683.688C1356.19 597.218 1685.47 400.58 1646.78 244.485C1608.09 88.3898 1216.08 31.9473 771.2 118.417C326.32 204.887 -2.96148 401.525 35.7291 557.62Z" stroke="url(#paint11_linear)" stroke-width="3" stroke-miterlimit="10"/>
<path d="M145.86 711.556C210.645 860.7 607.749 864.231 1032.82 719.442C1457.88 574.653 1749.95 336.373 1685.17 187.23C1620.38 38.0857 1223.28 34.5552 798.21 179.344C373.142 324.133 81.0747 562.412 145.86 711.556Z" stroke="url(#paint12_linear)" stroke-width="3" stroke-miterlimit="10"/>
<path d="M280.861 849.305C370.279 988.109 763.464 938.63 1159.06 738.789C1554.66 538.948 1802.88 264.422 1713.46 125.617C1624.04 -13.1871 1230.85 36.2925 835.254 236.133C439.653 435.974 191.443 710.5 280.861 849.305Z" stroke="url(#paint13_linear)" stroke-width="3" stroke-miterlimit="10"/>
<path d="M437.688 967.486C549.699 1092.79 930.002 991.428 1287.12 741.092C1644.23 490.757 1842.93 186.243 1730.92 60.942C1618.91 -64.3593 1238.6 37.0009 881.488 287.336C524.372 537.672 325.676 842.185 437.688 967.486Z" stroke="url(#paint14_linear)" stroke-width="3" stroke-miterlimit="10"/>
<path d="M612.787 1063.36C744.83 1172.29 1103.56 1021.38 1414.04 726.275C1724.52 431.172 1869.17 103.632 1737.13 -5.305C1605.08 -114.242 1246.35 36.6744 935.873 331.777C625.395 626.88 480.745 954.42 612.787 1063.36Z" stroke="url(#paint15_linear)" stroke-width="3" stroke-miterlimit="10"/>
<path d="M802.264 1134.68C951.323 1224.76 1280.29 1027.72 1537.02 694.59C1793.76 361.455 1881.04 18.3705 1731.98 -71.7103C1582.92 -161.791 1253.96 35.2434 997.227 368.379C740.492 701.514 653.204 1044.6 802.264 1134.68Z" stroke="url(#paint16_linear)" stroke-width="3" stroke-miterlimit="10"/>
<path d="M1001.71 1180.02C1164.39 1249.2 1456.1 1010.54 1653.27 646.954C1850.43 283.368 1878.38 -67.4561 1715.69 -136.635C1553.01 -205.813 1261.3 32.8505 1064.13 396.436C866.971 760.021 839.021 1110.85 1001.71 1180.02Z" stroke="url(#paint17_linear)" stroke-width="3" stroke-miterlimit="10"/>
<path d="M1206.7 1198.12C1379.29 1244.8 1627.05 969.945 1760.09 584.219C1893.12 198.492 1861.06 -152.042 1688.47 -198.72C1515.87 -245.398 1268.11 29.4546 1135.08 415.181C1002.04 800.908 1034.11 1151.44 1206.7 1198.12Z" stroke="url(#paint18_linear)" stroke-width="3" stroke-miterlimit="10"/>
<path d="M1412.2 1188.82C1590.77 1211.96 1788.98 907.198 1854.93 508.122C1920.88 109.045 1829.59 -233.229 1651.02 -256.368C1472.46 -279.508 1274.24 25.2495 1208.29 424.326C1142.34 823.403 1233.64 1165.68 1412.2 1188.82Z" stroke="url(#paint19_linear)" stroke-width="3" stroke-miterlimit="10"/>
<path d="M1281.74 424.048C1284.12 827.362 1432.34 1153.45 1612.8 1152.39C1793.26 1151.32 1937.62 823.509 1935.24 420.195C1932.86 16.882 1784.65 -309.206 1604.19 -308.142C1423.73 -307.078 1279.36 20.7351 1281.74 424.048Z" stroke="url(#paint20_linear)" stroke-width="3" stroke-miterlimit="10"/>
<path d="M1355.28 412.933C1426.51 811.284 1628.75 1113.95 1806.99 1088.96C1985.23 1063.96 2071.97 720.776 2000.74 322.425C1929.51 -75.9257 1727.27 -378.592 1549.03 -353.599C1370.79 -328.606 1284.05 14.5824 1355.28 412.933Z" stroke="url(#paint21_linear)" stroke-width="3" stroke-miterlimit="10"/>
<path d="M32.9454 511.61C62.3603 669.272 450.47 743.789 899.814 678.049C1349.16 612.309 1689.58 431.207 1660.16 273.546C1630.75 115.884 1242.64 41.3673 793.293 107.107C343.949 172.847 3.53043 353.949 32.9454 511.61Z" stroke="url(#paint22_linear)" stroke-width="3" stroke-miterlimit="10"/>
<path d="M133.691 670.507C189.58 822.447 585.933 844.363 1018.97 719.457C1452.01 594.552 1757.75 370.124 1701.86 218.184C1645.97 66.2433 1249.62 44.3272 816.582 169.233C383.543 294.138 77.8031 518.566 133.691 670.507Z" stroke="url(#paint23_linear)" stroke-width="3" stroke-miterlimit="10"/>
<path d="M260.226 814.386C341.325 957.154 736.922 925.959 1143.82 744.711C1550.71 563.463 1814.82 300.796 1733.73 158.029C1652.63 15.261 1257.03 46.4556 850.134 227.704C443.238 408.952 179.127 671.619 260.226 814.386Z" stroke="url(#paint24_linear)" stroke-width="3" stroke-miterlimit="10"/>
<path d="M409.914 939.56C514.364 1069.88 900.13 986.286 1271.55 752.849C1642.96 519.412 1859.38 224.53 1754.93 94.2111C1650.48 -36.108 1264.72 47.4854 893.299 280.922C521.883 514.359 305.464 809.241 409.914 939.56Z" stroke="url(#paint25_linear)" stroke-width="3" stroke-miterlimit="10"/>
<path d="M579.23 1043.3C704.65 1158.2 1071.79 1024.11 1399.25 743.809C1726.72 463.508 1890.51 143.135 1765.09 28.2367C1639.67 -86.6614 1272.53 47.4246 945.067 327.726C617.601 608.028 453.811 928.4 579.23 1043.3Z" stroke="url(#paint26_linear)" stroke-width="3" stroke-miterlimit="10"/>
<path d="M764.266 1123.37C907.804 1220.23 1247.94 1038.69 1523.99 717.894C1800.04 397.1 1907.45 58.528 1763.92 -38.3284C1620.38 -135.185 1280.24 46.3524 1004.19 367.146C728.147 687.94 620.728 1026.51 764.266 1123.37Z" stroke="url(#paint27_linear)" stroke-width="3" stroke-miterlimit="10"/>
<path d="M960.712 1177.87C1119.08 1254.48 1424.47 1029.65 1642.81 675.704C1861.15 321.757 1909.77 -27.2769 1751.39 -103.886C1593.02 -180.496 1287.64 44.3302 1069.3 398.276C850.955 752.222 802.34 1101.26 960.712 1177.87Z" stroke="url(#paint28_linear)" stroke-width="3" stroke-miterlimit="10"/>
<path d="M1164.19 1205.56C1333.78 1260.18 1597.46 997.196 1753.14 618.164C1908.81 239.132 1897.52 -112.413 1727.92 -167.033C1558.33 -221.654 1294.65 41.3335 1138.97 420.365C983.303 799.397 994.591 1150.94 1164.19 1205.56Z" stroke="url(#paint29_linear)" stroke-width="3" stroke-miterlimit="10"/>
<path d="M1369.98 1205.72C1546.92 1237.11 1762.87 941.975 1852.32 546.528C1941.77 151.081 1870.85 -194.934 1693.9 -226.32C1516.96 -257.705 1301.01 37.4254 1211.56 432.872C1122.11 828.319 1193.04 1174.33 1369.98 1205.72Z" stroke="url(#paint30_linear)" stroke-width="3" stroke-miterlimit="10"/>
<path d="M1573.66 1178.38C1753.92 1185.8 1917.18 865.221 1938.32 462.353C1959.45 59.4857 1830.45 -273.114 1650.19 -280.529C1469.93 -287.944 1306.66 32.6342 1285.53 435.502C1264.4 838.37 1393.4 1170.97 1573.66 1178.38Z" stroke="url(#paint31_linear)" stroke-width="3" stroke-miterlimit="10"/>
<path d="M1359.07 428.269C1406.66 829.363 1590.73 1140.98 1770.2 1124.28C1949.67 1107.58 2056.57 768.889 2008.98 367.796C1961.38 -33.2975 1777.31 -344.91 1597.84 -328.211C1418.38 -311.512 1311.47 27.1763 1359.07 428.269Z" stroke="url(#paint32_linear)" stroke-width="3" stroke-miterlimit="10"/>
<path d="M32.6134 465.454C52.6625 624.266 435.838 716.684 888.46 671.876C1341.08 627.069 1691.75 462.002 1671.7 303.19C1651.65 144.379 1268.48 51.9602 815.856 96.768C363.234 141.576 12.5644 306.642 32.6134 465.454Z" stroke="url(#paint33_linear)" stroke-width="3" stroke-miterlimit="10"/>
<path d="M123.882 628.858C170.711 783.179 565.222 823.438 1005.05 718.779C1444.87 614.12 1763.46 404.174 1716.63 249.853C1669.8 95.5314 1275.29 55.2723 835.463 159.932C395.638 264.591 77.0528 474.536 123.882 628.858Z" stroke="url(#paint34_linear)" stroke-width="3" stroke-miterlimit="10"/>
<path d="M241.887 778.331C314.432 924.647 711.292 911.825 1128.3 749.694C1545.3 587.563 1824.55 337.518 1752 191.203C1679.46 44.8874 1282.6 57.7086 865.59 219.84C448.584 381.971 169.342 632.016 241.887 778.331Z" stroke="url(#paint35_linear)" stroke-width="3" stroke-miterlimit="10"/>
<path d="M383.76 910.328C480.36 1045.31 870.544 979.725 1255.26 763.832C1639.97 547.94 1873.54 263.497 1776.94 128.511C1680.34 -6.47409 1290.15 59.1142 905.439 275.007C520.724 490.9 287.16 775.342 383.76 910.328Z" stroke="url(#paint36_linear)" stroke-width="3" stroke-miterlimit="10"/>
<path d="M546.724 1021.83C665.178 1142.38 1039.74 1025.5 1383.33 760.771C1726.91 496.037 1909.42 183.699 1790.97 63.1436C1672.52 -57.4116 1297.96 59.4682 954.367 324.202C610.778 588.935 428.27 901.274 546.724 1021.83Z" stroke="url(#paint37_linear)" stroke-width="3" stroke-miterlimit="10"/>
<path d="M726.753 1110.24C864.353 1213.62 1214.74 1048.12 1509.37 740.596C1804 433.071 1931.3 99.9696 1793.7 -3.40675C1656.1 -106.783 1305.7 58.712 1011.08 366.237C716.448 673.762 589.152 1006.86 726.753 1110.24Z" stroke="url(#paint38_linear)" stroke-width="3" stroke-miterlimit="10"/>
<path d="M919.753 1173.89C1073.38 1257.73 1391.64 1047.38 1630.61 704.037C1869.59 360.699 1938.77 14.3948 1785.15 -69.4537C1631.52 -153.302 1313.26 57.0565 1074.29 400.395C835.315 743.734 766.128 1090.04 919.753 1173.89Z" stroke="url(#paint39_linear)" stroke-width="3" stroke-miterlimit="10"/>
<path d="M1121.37 1210.93C1287.5 1273.33 1566.35 1022.93 1744.21 651.641C1922.06 280.352 1931.56 -71.224 1765.43 -133.627C1599.3 -196.03 1320.44 54.3713 1142.59 425.66C964.74 796.948 955.238 1148.52 1121.37 1210.93Z" stroke="url(#paint40_linear)" stroke-width="3" stroke-miterlimit="10"/>
<path d="M1326.94 1220.66C1501.79 1260.19 1734.88 975.462 1847.55 584.694C1960.23 193.925 1909.83 -154.904 1734.99 -194.44C1560.14 -233.975 1327.05 50.7559 1214.38 441.524C1101.7 832.293 1152.1 1181.12 1326.94 1220.66Z" stroke="url(#paint41_linear)" stroke-width="3" stroke-miterlimit="10"/>
<path d="M1531.79 1202.86C1711.37 1218.63 1893.38 906.072 1938.34 504.737C1983.29 103.402 1874.15 -234.731 1694.58 -250.503C1515 -266.276 1332.99 46.2844 1288.04 447.62C1243.08 848.955 1352.22 1187.09 1531.79 1202.86Z" stroke="url(#paint42_linear)" stroke-width="3" stroke-miterlimit="10"/>
<path d="M1361.88 443.774C1385.7 846.521 1551.1 1166.24 1731.31 1157.88C1911.52 1149.52 2038.29 816.255 2014.47 413.508C1990.65 10.7617 1825.26 -308.954 1645.05 -300.596C1464.84 -292.238 1338.07 41.0275 1361.88 443.774Z" stroke="url(#paint43_linear)" stroke-width="3" stroke-miterlimit="10"/>
<path d="M34.9231 419.443C45.5521 578.974 422.753 689.042 877.425 665.287C1332.1 641.532 1692.07 492.949 1681.44 333.418C1670.81 173.887 1293.61 63.8193 838.934 87.5743C384.262 111.329 24.294 259.912 34.9231 419.443Z" stroke="url(#paint44_linear)" stroke-width="3" stroke-miterlimit="10"/>
<path d="M116.451 586.895C154.095 743.182 545.701 801.676 991.127 717.545C1436.55 633.414 1767.13 438.517 1729.48 282.23C1691.84 125.943 1300.23 67.449 854.807 151.58C409.38 235.711 78.8074 430.608 116.451 586.895Z" stroke="url(#paint45_linear)" stroke-width="3" stroke-miterlimit="10"/>
<path d="M225.498 741.517C289.291 890.997 686.366 896.597 1112.39 754.027C1538.41 611.456 1832.06 374.703 1768.27 225.223C1704.48 75.7439 1307.4 70.1432 881.377 212.714C455.353 355.284 161.706 592.038 225.498 741.517Z" stroke="url(#paint46_linear)" stroke-width="3" stroke-miterlimit="10"/>
<path d="M359.605 880.005C448.102 1019.27 841.612 971.837 1238.53 774.053C1635.45 576.269 1885.48 303.035 1796.98 163.767C1708.49 24.4987 1314.98 71.9351 918.055 269.719C521.134 467.503 271.107 740.737 359.605 880.005Z" stroke="url(#paint47_linear)" stroke-width="3" stroke-miterlimit="10"/>
<path d="M515.612 998.791C626.776 1124.67 1007.72 1025.31 1366.47 776.871C1725.23 528.431 1925.94 224.988 1814.78 99.1111C1703.62 -26.7655 1322.67 72.5916 963.917 321.031C605.162 569.471 404.449 872.915 515.612 998.791Z" stroke="url(#paint48_linear)" stroke-width="3" stroke-miterlimit="10"/>
<path d="M690.028 1095.6C821.331 1205.22 1181.05 1056.2 1493.49 762.751C1805.92 469.302 1952.76 142.546 1821.46 32.9212C1690.16 -76.7034 1330.44 72.316 1018 365.765C705.563 659.215 558.726 985.971 690.028 1095.6Z" stroke="url(#paint49_linear)" stroke-width="3" stroke-miterlimit="10"/>
<path d="M879.197 1168.02C1027.66 1258.87 1357.91 1063.53 1616.83 731.73C1875.75 399.926 1965.3 57.2986 1816.83 -33.5492C1668.37 -124.397 1338.12 70.9368 1079.2 402.741C820.276 734.545 730.733 1077.17 879.197 1168.02Z" stroke="url(#paint50_linear)" stroke-width="3" stroke-miterlimit="10"/>
<path d="M1078.18 1214.37C1240.39 1284.4 1533.68 1047.27 1733.26 684.734C1932.83 322.197 1963.12 -28.4638 1800.91 -98.4893C1638.69 -168.515 1345.4 68.6123 1145.82 431.149C946.247 793.686 915.96 1144.35 1078.18 1214.37Z" stroke="url(#paint51_linear)" stroke-width="3" stroke-miterlimit="10"/>
<path d="M1282.93 1233.56C1455.19 1281.15 1704.8 1007.63 1840.43 622.625C1976.06 237.624 1946.36 -113.06 1774.09 -160.649C1601.83 -208.238 1352.23 65.2879 1216.59 450.289C1080.96 835.29 1110.66 1185.97 1282.93 1233.56Z" stroke="url(#paint52_linear)" stroke-width="3" stroke-miterlimit="10"/>
<path d="M1488.69 1225.34C1667.1 1249.41 1867.32 945.697 1935.91 546.983C2004.5 148.269 1915.48 -194.461 1737.08 -218.528C1558.68 -242.594 1358.45 61.1177 1289.86 459.831C1221.27 858.545 1310.29 1201.28 1488.69 1225.34Z" stroke="url(#paint53_linear)" stroke-width="3" stroke-miterlimit="10"/>
<path d="M1363.83 459.439C1363.83 862.75 1510.12 1189.7 1690.58 1189.7C1871.04 1189.7 2017.33 862.75 2017.33 459.439C2017.33 56.1274 1871.04 -270.821 1690.58 -270.821C1510.12 -270.821 1363.83 56.1273 1363.83 459.439Z" stroke="url(#paint54_linear)" stroke-width="3" stroke-miterlimit="10"/>
</g>
</g>
<defs>
<linearGradient id="paint0_linear" x1="1435.65" y1="329.618" x2="774.389" y2="-366.569" gradientUnits="userSpaceOnUse">
<stop stop-color="#A9BBEC"/>
<stop offset="1" stop-color="#DFD38E"/>
</linearGradient>
<linearGradient id="paint1_linear" x1="1492.16" y1="295.607" x2="717.805" y2="-301.616" gradientUnits="userSpaceOnUse">
<stop stop-color="#A9BBEC"/>
<stop offset="1" stop-color="#DFD38E"/>
</linearGradient>
<linearGradient id="paint2_linear" x1="1542.29" y1="254.442" x2="668.274" y2="-219.908" gradientUnits="userSpaceOnUse">
<stop stop-color="#A9BBEC"/>
<stop offset="1" stop-color="#DFD38E"/>
</linearGradient>
<linearGradient id="paint3_linear" x1="1584.86" y1="207.05" x2="632.084" y2="-121.992" gradientUnits="userSpaceOnUse">
<stop stop-color="#A9BBEC"/>
<stop offset="1" stop-color="#DFD38E"/>
</linearGradient>
<linearGradient id="paint4_linear" x1="1618.74" y1="154.476" x2="615.638" y2="-11.7003" gradientUnits="userSpaceOnUse">
<stop stop-color="#A9BBEC"/>
<stop offset="1" stop-color="#DFD38E"/>
</linearGradient>
<linearGradient id="paint5_linear" x1="1643.47" y1="98.1128" x2="623.682" y2="104.489" gradientUnits="userSpaceOnUse">
<stop stop-color="#A9BBEC"/>
<stop offset="1" stop-color="#DFD38E"/>
</linearGradient>
<linearGradient id="paint6_linear" x1="1658.27" y1="39.0074" x2="657.682" y2="217.536" gradientUnits="userSpaceOnUse">
<stop stop-color="#A9BBEC"/>
<stop offset="1" stop-color="#DFD38E"/>
</linearGradient>
<linearGradient id="paint7_linear" x1="1662.84" y1="-21.4024" x2="714.95" y2="319.013" gradientUnits="userSpaceOnUse">
<stop stop-color="#A9BBEC"/>
<stop offset="1" stop-color="#DFD38E"/>
</linearGradient>
<linearGradient id="paint8_linear" x1="1657.04" y1="-81.6755" x2="789.716" y2="402.463" gradientUnits="userSpaceOnUse">
<stop stop-color="#A9BBEC"/>
<stop offset="1" stop-color="#DFD38E"/>
</linearGradient>
<linearGradient id="paint9_linear" x1="1853.02" y1="542.542" x2="1127.24" y2="383.755" gradientUnits="userSpaceOnUse">
<stop stop-color="#A9BBEC"/>
<stop offset="1" stop-color="#DFD38E"/>
</linearGradient>
<linearGradient id="paint10_linear" x1="1941" y1="450.374" x2="1195.33" y2="416.537" gradientUnits="userSpaceOnUse">
<stop stop-color="#A9BBEC"/>
<stop offset="1" stop-color="#DFD38E"/>
</linearGradient>
<linearGradient id="paint11_linear" x1="1444.2" y1="348.834" x2="823.987" y2="-376.248" gradientUnits="userSpaceOnUse">
<stop stop-color="#A9BBEC"/>
<stop offset="1" stop-color="#DFD38E"/>
</linearGradient>
<linearGradient id="paint12_linear" x1="1502.66" y1="317.388" x2="766.366" y2="-316.767" gradientUnits="userSpaceOnUse">
<stop stop-color="#A9BBEC"/>
<stop offset="1" stop-color="#DFD38E"/>
</linearGradient>
<linearGradient id="paint13_linear" x1="1555.16" y1="278.64" x2="713.724" y2="-240.921" gradientUnits="userSpaceOnUse">
<stop stop-color="#A9BBEC"/>
<stop offset="1" stop-color="#DFD38E"/>
</linearGradient>
<linearGradient id="paint14_linear" x1="1600.45" y1="233.339" x2="672.09" y2="-148.374" gradientUnits="userSpaceOnUse">
<stop stop-color="#A9BBEC"/>
<stop offset="1" stop-color="#DFD38E"/>
</linearGradient>
<linearGradient id="paint15_linear" x1="1637.46" y1="182.525" x2="648.11" y2="-41.6566" gradientUnits="userSpaceOnUse">
<stop stop-color="#A9BBEC"/>
<stop offset="1" stop-color="#DFD38E"/>
</linearGradient>
<linearGradient id="paint16_linear" x1="1665.4" y1="127.264" x2="647.349" y2="73.3781" gradientUnits="userSpaceOnUse">
<stop stop-color="#A9BBEC"/>
<stop offset="1" stop-color="#DFD38E"/>
</linearGradient>
<linearGradient id="paint17_linear" x1="1683.71" y1="68.9559" x2="672.449" y2="188.531" gradientUnits="userSpaceOnUse">
<stop stop-color="#A9BBEC"/>
<stop offset="1" stop-color="#DFD38E"/>
</linearGradient>
<linearGradient id="paint18_linear" x1="1691.83" y1="8.78235" x2="722.235" y2="294.896" gradientUnits="userSpaceOnUse">
<stop stop-color="#A9BBEC"/>
<stop offset="1" stop-color="#DFD38E"/>
</linearGradient>
<linearGradient id="paint19_linear" x1="1689.63" y1="-51.6735" x2="791.679" y2="385.086" gradientUnits="userSpaceOnUse">
<stop stop-color="#A9BBEC"/>
<stop offset="1" stop-color="#DFD38E"/>
</linearGradient>
<linearGradient id="paint20_linear" x1="1847.78" y1="580.879" x2="1135.02" y2="380.244" gradientUnits="userSpaceOnUse">
<stop stop-color="#A9BBEC"/>
<stop offset="1" stop-color="#DFD38E"/>
</linearGradient>
<linearGradient id="paint21_linear" x1="1941.71" y1="492.86" x2="1200" y2="415.116" gradientUnits="userSpaceOnUse">
<stop stop-color="#A9BBEC"/>
<stop offset="1" stop-color="#DFD38E"/>
</linearGradient>
<linearGradient id="paint22_linear" x1="1451.71" y1="368.361" x2="873.24" y2="-382.872" gradientUnits="userSpaceOnUse">
<stop stop-color="#A9BBEC"/>
<stop offset="1" stop-color="#DFD38E"/>
</linearGradient>
<linearGradient id="paint23_linear" x1="1511.91" y1="339.712" x2="814.898" y2="-328.528" gradientUnits="userSpaceOnUse">
<stop stop-color="#A9BBEC"/>
<stop offset="1" stop-color="#DFD38E"/>
</linearGradient>
<linearGradient id="paint24_linear" x1="1566.59" y1="303.517" x2="759.823" y2="-258.479" gradientUnits="userSpaceOnUse">
<stop stop-color="#A9BBEC"/>
<stop offset="1" stop-color="#DFD38E"/>
</linearGradient>
<linearGradient id="paint25_linear" x1="1614.46" y1="260.322" x2="713.652" y2="-171.62" gradientUnits="userSpaceOnUse">
<stop stop-color="#A9BBEC"/>
<stop offset="1" stop-color="#DFD38E"/>
</linearGradient>
<linearGradient id="paint26_linear" x1="1654.47" y1="211.183" x2="682.914" y2="-69.3843" gradientUnits="userSpaceOnUse">
<stop stop-color="#A9BBEC"/>
<stop offset="1" stop-color="#DFD38E"/>
</linearGradient>
<linearGradient id="paint27_linear" x1="1685.68" y1="157.29" x2="673.639" y2="43.6243" gradientUnits="userSpaceOnUse">
<stop stop-color="#A9BBEC"/>
<stop offset="1" stop-color="#DFD38E"/>
</linearGradient>
<linearGradient id="paint28_linear" x1="1707.32" y1="99.9331" x2="689.686" y2="159.792" gradientUnits="userSpaceOnUse">
<stop stop-color="#A9BBEC"/>
<stop offset="1" stop-color="#DFD38E"/>
</linearGradient>
<linearGradient id="paint29_linear" x1="1719.01" y1="40.3433" x2="731.263" y2="270.157" gradientUnits="userSpaceOnUse">
<stop stop-color="#A9BBEC"/>
<stop offset="1" stop-color="#DFD38E"/>
</linearGradient>
<linearGradient id="paint30_linear" x1="1720.35" y1="-20.1285" x2="794.619" y2="366.598" gradientUnits="userSpaceOnUse">
<stop stop-color="#A9BBEC"/>
<stop offset="1" stop-color="#DFD38E"/>
</linearGradient>
<linearGradient id="paint31_linear" x1="1711.42" y1="-80.2212" x2="873.363" y2="443.687" gradientUnits="userSpaceOnUse">
<stop stop-color="#A9BBEC"/>
<stop offset="1" stop-color="#DFD38E"/>
</linearGradient>
<linearGradient id="paint32_linear" x1="1939.96" y1="535.257" x2="1205.37" y2="414.204" gradientUnits="userSpaceOnUse">
<stop stop-color="#A9BBEC"/>
<stop offset="1" stop-color="#DFD38E"/>
</linearGradient>
<linearGradient id="paint33_linear" x1="1457.93" y1="388.208" x2="921.648" y2="-386.742" gradientUnits="userSpaceOnUse">
<stop stop-color="#A9BBEC"/>
<stop offset="1" stop-color="#DFD38E"/>
</linearGradient>
<linearGradient id="paint34_linear" x1="1519.76" y1="362.408" x2="863.112" y2="-337.131" gradientUnits="userSpaceOnUse">
<stop stop-color="#A9BBEC"/>
<stop offset="1" stop-color="#DFD38E"/>
</linearGradient>
<linearGradient id="paint35_linear" x1="1576.52" y1="328.734" x2="806.41" y2="-272.727" gradientUnits="userSpaceOnUse">
<stop stop-color="#A9BBEC"/>
<stop offset="1" stop-color="#DFD38E"/>
</linearGradient>
<linearGradient id="paint36_linear" x1="1626.83" y1="287.881" x2="756.377" y2="-191.739" gradientUnits="userSpaceOnUse">
<stop stop-color="#A9BBEC"/>
<stop offset="1" stop-color="#DFD38E"/>
</linearGradient>
<linearGradient id="paint37_linear" x1="1669.69" y1="240.71" x2="719.546" y2="-94.4209" gradientUnits="userSpaceOnUse">
<stop stop-color="#A9BBEC"/>
<stop offset="1" stop-color="#DFD38E"/>
</linearGradient>
<linearGradient id="paint38_linear" x1="1704" y1="188.301" x2="702.262" y2="15.5372" gradientUnits="userSpaceOnUse">
<stop stop-color="#A9BBEC"/>
<stop offset="1" stop-color="#DFD38E"/>
</linearGradient>
<linearGradient id="paint39_linear" x1="1729.08" y1="132.044" x2="709.303" y2="131.646" gradientUnits="userSpaceOnUse">
<stop stop-color="#A9BBEC"/>
<stop offset="1" stop-color="#DFD38E"/>
</linearGradient>
<linearGradient id="paint40_linear" x1="1744.27" y1="73.0468" x2="742.31" y2="245.02" gradientUnits="userSpaceOnUse">
<stop stop-color="#A9BBEC"/>
<stop offset="1" stop-color="#DFD38E"/>
</linearGradient>
<linearGradient id="paint41_linear" x1="1749.22" y1="12.696" x2="798.761" y2="347.08" gradientUnits="userSpaceOnUse">
<stop stop-color="#A9BBEC"/>
<stop offset="1" stop-color="#DFD38E"/>
</linearGradient>
<linearGradient id="paint42_linear" x1="1743.87" y1="-47.6275" x2="872.98" y2="431.265" gradientUnits="userSpaceOnUse">
<stop stop-color="#A9BBEC"/>
<stop offset="1" stop-color="#DFD38E"/>
</linearGradient>
<linearGradient id="paint43_linear" x1="1935.65" y1="577.54" x2="1211.17" y2="414.018" gradientUnits="userSpaceOnUse">
<stop stop-color="#A9BBEC"/>
<stop offset="1" stop-color="#DFD38E"/>
</linearGradient>
<linearGradient id="paint44_linear" x1="1462.92" y1="408.408" x2="969.106" y2="-387.858" gradientUnits="userSpaceOnUse">
<stop stop-color="#A9BBEC"/>
<stop offset="1" stop-color="#DFD38E"/>
</linearGradient>
<linearGradient id="paint45_linear" x1="1526.22" y1="385.509" x2="910.729" y2="-342.631" gradientUnits="userSpaceOnUse">
<stop stop-color="#A9BBEC"/>
<stop offset="1" stop-color="#DFD38E"/>
</linearGradient>
<linearGradient id="paint46_linear" x1="1584.89" y1="354.429" x2="852.963" y2="-283.706" gradientUnits="userSpaceOnUse">
<stop stop-color="#A9BBEC"/>
<stop offset="1" stop-color="#DFD38E"/>
</linearGradient>
<linearGradient id="paint47_linear" x1="1637.68" y1="315.966" x2="800.018" y2="-208.492" gradientUnits="userSpaceOnUse">
<stop stop-color="#A9BBEC"/>
<stop offset="1" stop-color="#DFD38E"/>
</linearGradient>
<linearGradient id="paint48_linear" x1="1683.17" y1="270.808" x2="757.846" y2="-116.678" gradientUnits="userSpaceOnUse">
<stop stop-color="#A9BBEC"/>
<stop offset="1" stop-color="#DFD38E"/>
</linearGradient>
<linearGradient id="paint49_linear" x1="1720.54" y1="220.214" x2="733.061" y2="-10.4432" gradientUnits="userSpaceOnUse">
<stop stop-color="#A9BBEC"/>
<stop offset="1" stop-color="#DFD38E"/>
</linearGradient>
<linearGradient id="paint50_linear" x1="1748.95" y1="165.077" x2="731.351" y2="104.506" gradientUnits="userSpaceOnUse">
<stop stop-color="#A9BBEC"/>
<stop offset="1" stop-color="#DFD38E"/>
</linearGradient>
<linearGradient id="paint51_linear" x1="1767.55" y1="106.924" x2="755.387" y2="219.789" gradientUnits="userSpaceOnUse">
<stop stop-color="#A9BBEC"/>
<stop offset="1" stop-color="#DFD38E"/>
</linearGradient>
<linearGradient id="paint52_linear" x1="1776.06" y1="46.8595" x2="804.242" y2="326.632" gradientUnits="userSpaceOnUse">
<stop stop-color="#A9BBEC"/>
<stop offset="1" stop-color="#DFD38E"/>
</linearGradient>
<linearGradient id="paint53_linear" x1="1774.33" y1="-13.6426" x2="873.146" y2="417.626" gradientUnits="userSpaceOnUse">
<stop stop-color="#A9BBEC"/>
<stop offset="1" stop-color="#DFD38E"/>
</linearGradient>
<linearGradient id="paint54_linear" x1="1928.92" y1="619.6" x2="1217.37" y2="414.767" gradientUnits="userSpaceOnUse">
<stop stop-color="#A9BBEC"/>
<stop offset="1" stop-color="#DFD38E"/>
</linearGradient>
<clipPath id="clip0">
<rect width="2000" height="1000" fill="white"/>
</clipPath>
<clipPath id="clip1">
<rect width="2130" height="2333" fill="white" transform="translate(-151 1316) rotate(-90)"/>
</clipPath>
</defs>
</svg>
