<svg width="180" height="100" viewBox="0 0 180 100" fill="none" xmlns="http://www.w3.org/2000/svg">
<rect width="118.738" height="66.7279" fill="#1E2029"/>
<rect x="16.6458" y="22.0586" width="44.9428" height="3.30882" fill="#FAFAFA"/>
<rect x="16.6458" y="37.4995" width="44.9428" height="3.30882" fill="#FAFAFA"/>
<rect x="16.6458" y="29.7798" width="9.98729" height="3.30882" fill="#FAFAFA"/>
<rect x="16.6458" y="45.2202" width="9.98729" height="3.30882" fill="#FAFAFA"/>
<rect x="7.76807" y="6.06641" width="9.98729" height="3.30882" fill="#324BD9"/>
<rect x="7.76782" y="51.8379" width="9.98729" height="3.30882" fill="#324BD9"/>
<rect x="7.76807" y="12.6836" width="7.21304" height="3.30882" fill="#324BD9"/>
<rect x="7.76782" y="58.4561" width="7.21304" height="3.30882" fill="#324BD9"/>
<rect x="64.9171" y="22.0586" width="11.097" height="3.30882" fill="#324BD9"/>
<rect x="29.962" y="29.7798" width="21.0843" height="3.30882" fill="#324BD9"/>
<rect x="29.962" y="45.2202" width="21.0843" height="3.30882" fill="#324BD9"/>
<rect x="54.3755" y="29.7798" width="21.6391" height="3.30882" fill="#FAFAFA"/>
<rect x="61.2622" y="33.272" width="118.738" height="66.7279" fill="#1D2A73"/>
<path d="M108.38 70.1565L115.94 73.0545V71.3265L110.072 69.2205V68.9685L115.94 66.8625V65.1345L108.38 68.0325V70.1565ZM123.862 62.7945L118.57 78.9945H120.262L125.554 62.7945H123.862ZM135.821 70.1565V68.0325L128.261 65.1345V66.8625L134.129 68.9685V69.2205L128.261 71.3265V73.0545L135.821 70.1565Z" fill="white"/>
</svg>
