<svg width="249" height="249" viewBox="0 0 249 249" fill="none" xmlns="http://www.w3.org/2000/svg">
<path d="M160.395 87.9422C184.413 111.96 202.001 137.794 211.043 160.112C215.565 171.273 217.93 181.508 217.926 190.171C217.922 198.828 215.556 205.838 210.699 210.695C205.842 215.552 198.832 217.918 190.175 217.922C181.512 217.926 171.277 215.561 160.116 211.039C137.798 201.997 111.964 184.409 87.9462 160.391C63.9281 136.373 46.3401 110.54 37.2984 88.2213C32.7767 77.0603 30.4115 66.8254 30.4155 58.1629C30.4195 49.506 32.7857 42.4957 37.6427 37.6387C42.4997 32.7817 49.51 30.4155 58.1669 30.4115C66.8294 30.4075 77.0643 32.7727 88.2253 37.2944C110.544 46.3361 136.377 63.9241 160.395 87.9422Z" stroke="url(#paint0_linear)" stroke-width="2"/>
<path d="M160.392 160.413C136.374 184.431 110.54 202.019 88.2218 211.061C77.0607 215.582 66.8258 217.948 58.1633 217.944C49.5065 217.94 42.4961 215.573 37.6391 210.716C32.7822 205.859 30.4159 198.849 30.4119 190.192C30.4079 181.53 32.7731 171.295 37.2948 160.134C46.3366 137.816 63.9246 111.982 87.9426 87.9638C111.961 63.9457 137.794 46.3577 160.113 37.3159C171.274 32.7943 181.509 30.429 190.171 30.4331C198.828 30.4371 205.838 32.8033 210.695 37.6603C215.552 42.5173 217.918 49.5276 217.922 58.1845C217.927 66.8469 215.561 77.0818 211.04 88.2429C201.998 110.561 184.41 136.395 160.392 160.413Z" stroke="url(#paint1_linear)" stroke-width="2"/>
<defs>
<linearGradient id="paint0_linear" x1="36.9356" y1="36.9316" x2="211.406" y2="211.402" gradientUnits="userSpaceOnUse">
<stop stop-color="#7589FA"/>
<stop offset="1" stop-color="#1E2029"/>
</linearGradient>
<linearGradient id="paint1_linear" x1="211.402" y1="36.9532" x2="36.932" y2="211.424" gradientUnits="userSpaceOnUse">
<stop stop-color="#7589FA"/>
<stop offset="1" stop-color="#1E2029"/>
</linearGradient>
</defs>
</svg>
