<svg width="215" height="121" viewBox="0 0 215 121" fill="none" xmlns="http://www.w3.org/2000/svg">
<mask id="mask0_4764_1894" style="mask-type:alpha" maskUnits="userSpaceOnUse" x="0" y="0" width="215" height="121">
<rect x="0.764648" y="0.374512" width="214" height="120" fill="#C4C4C4"/>
</mask>
<g mask="url(#mask0_4764_1894)">
<rect x="0.764648" y="0.374512" width="213.6" height="120" fill="#FAFAFA"/>
<rect x="0.764648" y="3.37451" width="214" height="117" fill="#1D2A73"/>
<path d="M29.7566 26.6953C29.7566 23.5753 27.5246 21.6553 24.4526 21.6553H17.3966V38.4553H19.7726V31.7353H23.3006L26.7326 38.4553H29.4446L25.7726 31.6153C28.1006 31.1353 29.7566 29.3353 29.7566 26.6953ZM19.7726 23.7913H24.2126C26.1806 23.7913 27.3806 24.8953 27.3806 26.6953C27.3806 28.5193 26.1806 29.6233 24.2126 29.6233H19.7726V23.7913ZM31.3943 32.4793C31.3943 36.1033 33.8183 38.7913 37.4663 38.7913C40.7063 38.7913 42.0743 36.9193 42.7943 35.6953L40.9223 34.6393C40.3463 35.7913 39.3863 36.8233 37.4663 36.8233C35.3303 36.8233 33.8423 35.3833 33.6983 33.3433H42.9863V32.2393C42.9863 28.6153 40.6583 26.3353 37.2983 26.3353C33.8663 26.3353 31.3943 28.8793 31.3943 32.4793ZM33.7223 31.5193C33.9623 29.5513 35.2583 28.3033 37.2983 28.3033C39.2423 28.3033 40.5623 29.4793 40.6823 31.5193H33.7223ZM44.0878 26.6713V28.5193H47.5198V38.4553H49.7758V28.5193H53.2798V26.6713H49.7758V24.2233C49.7758 23.7433 50.0158 23.5033 50.4478 23.5033H52.7998V21.6553H49.7038C48.3838 21.6553 47.5198 22.4953 47.5198 23.8633V26.6713H44.0878ZM54.5974 32.4793C54.5974 36.1033 57.0214 38.7913 60.6694 38.7913C63.9094 38.7913 65.2774 36.9193 65.9974 35.6953L64.1254 34.6393C63.5494 35.7913 62.5894 36.8233 60.6694 36.8233C58.5334 36.8233 57.0454 35.3833 56.9014 33.3433H66.1894V32.2393C66.1894 28.6153 63.8614 26.3353 60.5014 26.3353C57.0694 26.3353 54.5974 28.8793 54.5974 32.4793ZM56.9254 31.5193C57.1654 29.5513 58.4614 28.3033 60.5014 28.3033C62.4454 28.3033 63.7654 29.4793 63.8854 31.5193H56.9254ZM70.7681 26.6713H68.5601V38.4553H70.8161V31.3513C70.8161 29.4553 71.9201 28.5673 73.5761 28.5673H75.4241V26.6233H73.9601C72.4001 26.6233 71.4641 27.0793 71.0081 28.2553H70.7681V26.6713ZM79.6041 26.6713H77.3961V38.4553H79.6521V31.3513C79.6521 29.4553 80.7561 28.5673 82.4121 28.5673H84.2601V26.6233H82.7961C81.2361 26.6233 80.3001 27.0793 79.8441 28.2553H79.6041V26.6713ZM85.8268 29.8393L87.9388 30.5113C88.2268 29.1673 89.1868 28.1833 90.9628 28.1833C92.7628 28.1833 93.6508 29.1913 93.6508 30.6553V31.4233H89.9068C87.3388 31.4233 85.4428 32.6473 85.4428 35.0713C85.4428 37.4473 87.3388 38.7913 89.7868 38.7913C92.0668 38.7913 92.9788 37.6633 93.4108 36.8713H93.6988V38.4553H95.8588V30.7993C95.8588 27.9673 94.0108 26.3353 90.9868 26.3353C87.9868 26.3353 86.4028 27.9193 85.8268 29.8393ZM87.6988 35.0233C87.6988 33.8713 88.6348 33.2473 90.0268 33.2473H93.6508V33.4873C93.6508 35.6233 92.2348 36.9433 90.1708 36.9433C88.6348 36.9433 87.6988 36.1753 87.6988 35.0233ZM101.191 21.6553H98.9351V38.4553H101.191V21.6553ZM110.946 31.9033C110.946 36.2953 113.514 38.7913 117.69 38.7913C121.674 38.7913 124.074 36.4633 124.074 32.7913V32.2633H121.698V32.8153C121.698 35.0713 120.378 36.6793 117.69 36.6793C114.978 36.6793 113.322 34.8793 113.322 31.9513V28.1593C113.322 25.2313 114.954 23.4313 117.69 23.4313C120.306 23.4313 121.698 25.0633 121.698 27.3193V27.7273H124.074V27.3433C124.074 23.6713 121.77 21.3193 117.69 21.3193C113.562 21.3193 110.946 23.8153 110.946 28.2073V31.9033ZM125.847 32.5753C125.847 36.3193 128.367 38.7913 131.919 38.7913C135.471 38.7913 138.015 36.3193 138.015 32.5753C138.015 28.8073 135.471 26.3353 131.919 26.3353C128.367 26.3353 125.847 28.8073 125.847 32.5753ZM128.103 32.5753C128.103 30.0313 129.639 28.3273 131.919 28.3273C134.199 28.3273 135.759 29.9833 135.759 32.5753C135.759 35.1433 134.199 36.7993 131.919 36.7993C129.639 36.7993 128.103 35.1913 128.103 32.5753ZM151.938 21.6553H149.682V28.4953H149.442C148.77 27.3913 147.546 26.3353 145.218 26.3353C142.242 26.3353 139.746 28.7593 139.746 32.5753C139.746 36.3913 142.242 38.7913 145.218 38.7913C147.546 38.7913 148.77 37.7353 149.49 36.5833H149.73V38.4553H151.938V21.6553ZM145.842 28.3033C148.074 28.3033 149.706 29.9113 149.706 32.5753C149.706 35.2153 148.074 36.8233 145.842 36.8233C143.61 36.8233 142.026 35.2393 142.026 32.5753C142.026 29.8873 143.61 28.3033 145.842 28.3033ZM154.418 32.4793C154.418 36.1033 156.842 38.7913 160.49 38.7913C163.73 38.7913 165.098 36.9193 165.818 35.6953L163.946 34.6393C163.37 35.7913 162.41 36.8233 160.49 36.8233C158.354 36.8233 156.866 35.3833 156.722 33.3433H166.01V32.2393C166.01 28.6153 163.682 26.3353 160.322 26.3353C156.89 26.3353 154.418 28.8793 154.418 32.4793ZM156.746 31.5193C156.986 29.5513 158.282 28.3033 160.322 28.3033C162.266 28.3033 163.586 29.4793 163.706 31.5193H156.746Z" fill="white"/>
<rect x="16.2646" y="51.8745" width="203.729" height="39" stroke="white"/>
<path d="M24.7878 64.3745V73.6145C24.7878 76.8545 26.8278 78.6545 30.0478 78.6545C33.2678 78.6545 35.3078 76.8545 35.3078 73.6145V64.3745H33.3278V73.6545C33.3278 75.7545 32.1478 76.8945 30.0478 76.8945C27.9478 76.8945 26.7678 75.7545 26.7678 73.6545V64.3745H24.7878ZM37.9538 64.3745V78.3745H39.9338V66.4345H40.1338L44.8938 78.3745H48.2738V64.3745H46.2938V76.3145H46.0938L41.3338 64.3745H37.9538ZM51.0006 64.3745V78.3745H52.9806V64.3745H51.0006ZM54.5477 64.3745L58.8477 78.3745H61.9277L66.2477 64.3745H64.1877L60.4877 76.6545H60.2877L56.5877 64.3745H54.5477ZM67.237 68.9745V69.4545H69.217V69.0345C69.217 66.9145 70.577 65.8545 72.377 65.8545C74.137 65.8545 75.317 66.8745 75.317 68.6145C75.317 70.4145 73.997 71.2745 71.797 71.8345C69.097 72.5345 67.237 73.6745 67.237 76.4345V78.3745H77.277V76.5945H69.237V76.2345C69.237 74.4345 70.477 73.9745 72.737 73.3945C75.617 72.6545 77.297 71.3145 77.297 68.6545C77.297 65.8545 75.117 64.0945 72.357 64.0945C69.537 64.0945 67.237 65.8145 67.237 68.9745ZM78.8605 69.7745V72.9745C78.8605 76.6945 80.8805 78.6545 84.0605 78.6545C87.2405 78.6545 89.2405 76.6945 89.2405 72.9745V69.7745C89.2405 66.1145 87.2405 64.0945 84.0605 64.0945C80.8805 64.0945 78.8605 66.1145 78.8605 69.7745ZM80.8405 69.6745C80.8405 67.3545 81.9605 65.8545 84.0605 65.8545C86.1205 65.8545 87.2805 67.3145 87.2805 69.6745V73.0745C87.2805 75.4145 86.2405 76.8945 84.0605 76.8945C81.9005 76.8945 80.8405 75.4545 80.8405 73.0745V69.6745Z" fill="white"/>
<path d="M94.0259 61.5305V80.695" stroke="white" stroke-width="2.39557"/>
<path d="M94.0259 61.5305V80.695" stroke="black" stroke-width="1.19778"/>
<path d="M92.8506 60.3745L88.0595 60.3745" stroke="white" stroke-width="2.39557"/>
<path d="M92.8506 60.3745L88.0595 60.3745" stroke="black" stroke-width="1.19778"/>
<path d="M88.0596 60.3745H86.8618" stroke="white" stroke-width="1.19778"/>
<path d="M92.8506 81.8745L88.0595 81.8745" stroke="white" stroke-width="2.39557"/>
<path d="M92.8506 81.8745L88.0595 81.8745" stroke="black" stroke-width="1.19778"/>
<path d="M88.0596 81.8745H86.8618" stroke="white" stroke-width="1.19778"/>
<path d="M95.2002 60.3745L99.9913 60.3745" stroke="white" stroke-width="2.39557"/>
<path d="M95.2002 60.3745L99.9913 60.3745" stroke="black" stroke-width="1.19778"/>
<path d="M99.9912 60.3745H101.189" stroke="white" stroke-width="1.19778"/>
<path d="M95.2002 81.8745L99.9913 81.8745" stroke="white" stroke-width="2.39557"/>
<path d="M95.2002 81.8745L99.9913 81.8745" stroke="black" stroke-width="1.19778"/>
<path d="M99.9912 81.8745H101.189" stroke="white" stroke-width="1.19778"/>
</g>
</svg>
