<svg width="743" height="110" viewBox="0 0 743 110" fill="none" xmlns="http://www.w3.org/2000/svg">
<g clip-path="url(#clip0_1524_328)">
<path opacity="0.98" d="M576.82 94.0361H591.519V108.735H576.82V94.0361Z" fill="#030303"/>
<g opacity="0.98">
<path opacity="0.98" d="M690.802 88.3563H638.693L629.96 108.735H613.658L656.597 8.73535H672.898L715.841 108.735H699.535L690.802 88.3563ZM685.127 75.1107L664.748 27.6581L644.369 75.1107H685.127Z" fill="#030303"/>
<path opacity="0.98" d="M727.947 8.73535H742.647V108.735H727.947V8.73535Z" fill="#030303"/>
</g>
<path opacity="0.98" d="M176.844 22.4129H144.089V8.73511H224.444V22.4129H191.541V108.735H176.844V22.4129Z" fill="#030303"/>
<path opacity="0.98" d="M279.257 89.5202L288.282 98.8352C281.586 105.964 268.485 110.479 257.86 110.479C236.901 110.479 219.148 94.0296 219.148 70.8902C219.148 48.3316 235.882 31.7341 256.699 31.7341C279.696 31.7341 292.939 49.2027 292.939 76.1284H233.702C235.592 88.6432 244.765 97.6679 257.718 97.6679C265.575 97.6678 274.748 94.1777 279.257 89.5202ZM233.85 64.6328H278.967C277.367 52.9891 270.233 44.5452 257.279 44.5452C245.636 44.5452 236.179 52.4025 233.85 64.6328Z" fill="#030303"/>
<path opacity="0.98" d="M303.198 71.0325C303.198 49.6412 321.389 31.7341 342.929 31.7341C348.078 31.7572 353.172 32.7978 357.918 34.796C362.664 36.7943 366.968 39.7107 370.583 43.3779L360.83 52.4025C358.569 49.8467 355.791 47.7991 352.681 46.3947C349.571 44.9903 346.199 44.261 342.786 44.2548C329.104 44.2548 317.751 56.4793 317.751 71.0325C317.751 85.7338 329.104 97.9582 342.929 97.9582C346.407 97.9179 349.837 97.1458 352.997 95.692C356.157 94.2382 358.975 92.1353 361.268 89.5202L371.022 98.3967C367.374 102.211 362.992 105.248 358.139 107.325C353.287 109.401 348.064 110.474 342.786 110.479C321.389 110.479 303.198 92.4297 303.198 71.0325Z" fill="#030303"/>
<path opacity="0.98" d="M450.91 60.8515V108.736H436.789V63.3224C436.789 52.1172 429.655 44.2599 419.469 44.2599C408.116 44.2599 398.658 52.2653 398.658 62.0129V108.736H384.39V7H398.658V44.6925C403.168 37.1256 412.335 31.7392 422.669 31.7392C439.266 31.7392 450.91 43.8214 450.91 60.8515Z" fill="#030303"/>
<path opacity="0.98" d="M518.917 58.6581L556.614 108.735H538.711L509.891 70.4514L481.066 108.735H463.453L501.156 58.8063L463.453 8.73511H481.214L510.034 47.0189L539.001 8.73511H556.614L518.917 58.6581Z" fill="#030303"/>
<path d="M40 68.7354H0V108.735H40V68.7354Z" fill="#2463B8"/>
<path d="M40 23.7354H0V63.7353H40V23.7354Z" fill="#2463B8"/>
<path d="M85 68.7354H45V108.735H85V68.7354Z" fill="#2463B8"/>
<path d="M100 8.73535L60 8.73535V48.7353H100V8.73535Z" fill="#2463B8"/>
</g>
<defs>
<clipPath id="clip0_1524_328">
<rect width="743" height="110" fill="white"/>
</clipPath>
</defs>
</svg>
