<svg width="122" height="27" viewBox="0 0 122 27" fill="none" xmlns="http://www.w3.org/2000/svg">
<path d="M10.8559 27C7.41441 27 4.74472 26.1574 2.84683 24.4722C0.948943 22.787 0 20.2347 0 16.8155V1.90502C0 1.63636 0.0759154 1.41655 0.227746 1.24559C0.404882 1.07463 0.632629 0.989146 0.910985 0.989146H4.4031C4.68145 0.989146 4.9092 1.07463 5.08634 1.24559C5.26347 1.41655 5.35204 1.63636 5.35204 1.90502V16.8155C5.35204 18.7449 5.82019 20.1981 6.75648 21.175C7.71807 22.152 9.0719 22.6404 10.818 22.6404C12.564 22.6404 13.9052 22.152 14.8415 21.175C15.8031 20.1981 16.2839 18.7449 16.2839 16.8155V1.90502C16.2839 1.63636 16.3724 1.41655 16.5496 1.24559C16.7267 1.07463 16.9545 0.989146 17.2328 0.989146H20.7249C21.0033 0.989146 21.2184 1.07463 21.3702 1.24559C21.5473 1.41655 21.6359 1.63636 21.6359 1.90502V16.8155C21.6359 20.2347 20.687 22.787 18.7891 24.4722C16.9165 26.1574 14.2721 27 10.8559 27Z" fill="white"/>
<path d="M27.5164 26.6337C27.2634 26.6337 27.0483 26.5482 26.8711 26.3772C26.694 26.2062 26.6054 25.9986 26.6054 25.7544V8.46269C26.6054 8.19403 26.694 7.98643 26.8711 7.83989C27.0483 7.66893 27.2634 7.58345 27.5164 7.58345H30.6669C30.9453 7.58345 31.1604 7.66893 31.3122 7.83989C31.4893 7.98643 31.5779 8.19403 31.5779 8.46269V9.96472C33.1215 8.13297 35.2345 7.2171 37.9168 7.2171C40.2449 7.2171 42.0922 7.9498 43.4587 9.4152C44.8251 10.8806 45.5084 12.8955 45.5084 15.46V25.7544C45.5084 25.9986 45.4198 26.2062 45.2427 26.3772C45.0909 26.5482 44.8758 26.6337 44.5974 26.6337H41.1812C40.9282 26.6337 40.7131 26.5482 40.5359 26.3772C40.3588 26.2062 40.2702 25.9986 40.2702 25.7544V15.6798C40.2702 14.2632 39.9033 13.1642 39.1694 12.3826C38.4609 11.5767 37.436 11.1737 36.0949 11.1737C34.8043 11.1737 33.7668 11.5767 32.9823 12.3826C32.1979 13.1886 31.8056 14.2877 31.8056 15.6798V25.7544C31.8056 25.9986 31.7171 26.2062 31.5399 26.3772C31.3881 26.5482 31.173 26.6337 30.8947 26.6337H27.5164Z" fill="white"/>
<path d="M51.0882 4.46947C50.8351 4.46947 50.62 4.38399 50.4429 4.21303C50.2658 4.04206 50.1772 3.83447 50.1772 3.59023V0.915876C50.1772 0.647219 50.2658 0.427409 50.4429 0.256446C50.62 0.085482 50.8351 0 51.0882 0H54.5803C54.8586 0 55.0864 0.085482 55.2635 0.256446C55.4407 0.427409 55.5292 0.647219 55.5292 0.915876V3.59023C55.5292 3.83447 55.428 4.04206 55.2256 4.21303C55.0484 4.38399 54.8333 4.46947 54.5803 4.46947H51.0882ZM51.24 26.6337C50.9869 26.6337 50.7719 26.5482 50.5947 26.3772C50.4176 26.2062 50.329 25.9986 50.329 25.7544V8.46269C50.329 8.19403 50.4176 7.98643 50.5947 7.83989C50.7719 7.66893 50.9869 7.58345 51.24 7.58345H54.4664C54.7195 7.58345 54.9346 7.66893 55.1117 7.83989C55.2888 8.01086 55.3774 8.21845 55.3774 8.46269V25.7544C55.3774 25.9986 55.2888 26.2062 55.1117 26.3772C54.9346 26.5482 54.7195 26.6337 54.4664 26.6337H51.24Z" fill="white"/>
<path d="M67.6223 26.6337C67.2427 26.6337 66.9517 26.5604 66.7493 26.4138C66.5468 26.2429 66.3823 26.0109 66.2558 25.7178L59.1198 8.71913C59.0945 8.64586 59.0818 8.53596 59.0818 8.38942C59.0818 8.16961 59.1577 7.98643 59.3095 7.83989C59.4867 7.66893 59.6765 7.58345 59.8789 7.58345H63.0294C63.5355 7.58345 63.8771 7.81547 64.0543 8.27951L69.0647 21.0651L74.0751 8.27951C74.1257 8.10855 74.2269 7.9498 74.3788 7.80326C74.5559 7.65672 74.7836 7.58345 75.062 7.58345H78.2125C78.4402 7.58345 78.63 7.66893 78.7819 7.83989C78.9337 7.98643 79.0096 8.16961 79.0096 8.38942C79.0096 8.53596 78.9969 8.64586 78.9716 8.71913L71.8736 25.7178C71.5952 26.3284 71.1397 26.6337 70.5071 26.6337H67.6223Z" fill="white"/>
<path d="M81.3114 26.6337C81.0583 26.6337 80.8432 26.5604 80.6661 26.4138C80.5142 26.2429 80.4383 26.0353 80.4383 25.791V23.2632C80.4383 23.019 80.5142 22.8114 80.6661 22.6404C80.8432 22.4695 81.0583 22.384 81.3114 22.384H83.9304C84.1835 22.384 84.3859 22.4695 84.5378 22.6404C84.7149 22.8114 84.8035 23.019 84.8035 23.2632V25.791C84.8035 26.0353 84.7149 26.2429 84.5378 26.4138C84.3859 26.5604 84.1835 26.6337 83.9304 26.6337H81.3114Z" fill="white"/>
<path d="M93.0234 26.6337C92.821 26.6337 92.6438 26.5604 92.492 26.4138C92.3402 26.2673 92.2643 26.0963 92.2643 25.901L92.3402 25.498L101.943 1.72185C102.146 1.23338 102.513 0.989146 103.044 0.989146H104.335C104.866 0.989146 105.233 1.23338 105.436 1.72185L115.039 25.498L115.115 25.901C115.115 26.0963 115.039 26.2673 114.887 26.4138C114.735 26.5604 114.558 26.6337 114.356 26.6337H113.597C113.369 26.6337 113.179 26.5726 113.027 26.4505C112.901 26.3284 112.812 26.2062 112.761 26.0841L110.408 20.2225H96.971L94.6176 26.0841C94.567 26.2062 94.4658 26.3284 94.314 26.4505C94.1875 26.5726 94.0103 26.6337 93.7826 26.6337H93.0234ZM97.882 18.0244H109.497L103.69 3.59023L97.882 18.0244Z" fill="white"/>
<path d="M120.444 26.6337C120.191 26.6337 119.988 26.5604 119.836 26.4138C119.685 26.2673 119.609 26.0719 119.609 25.8277V1.79512C119.609 1.55088 119.685 1.3555 119.836 1.20896C119.988 1.06242 120.191 0.989146 120.444 0.989146H121.165C121.418 0.989146 121.62 1.06242 121.772 1.20896C121.924 1.3555 122 1.55088 122 1.79512V25.8277C122 26.0719 121.924 26.2673 121.772 26.4138C121.62 26.5604 121.418 26.6337 121.165 26.6337H120.444Z" fill="white"/>
</svg>
