<svg xmlns="http://www.w3.org/2000/svg" viewBox="0 0 721.875 211.08105">
  <defs>
    <style>
      .a1c90f7f-f325-4372-9284-a148103dd28f, .a1dfb8a9-722f-488d-b062-7c40a5f2cfbd, .a7378355-7916-4e5d-88de-74a78e8363ec, .b128398a-bcfe-4395-9dde-1121a334126d, .b47c5d26-064c-4178-8076-f679b3fcb6de, .bc71c439-1e7d-46b5-beaf-532e2223798e, .e40a7c53-8d31-4732-bc7a-cb1800444f9e, .f07f6926-3192-4aae-a0d6-6100560621dc, .f149f826-2916-4417-8853-54b3a9d077c5, .fe38f67b-68a6-412d-9b88-f0846d56ac36 {
        fill: none;
      }

      .a1dfb8a9-722f-488d-b062-7c40a5f2cfbd, .f149f826-2916-4417-8853-54b3a9d077c5 {
        stroke: #787878;
      }

      .a1c90f7f-f325-4372-9284-a148103dd28f, .a1dfb8a9-722f-488d-b062-7c40a5f2cfbd, .a7378355-7916-4e5d-88de-74a78e8363ec, .a7dbd358-9345-40f3-83a2-456b27f089a6, .b128398a-bcfe-4395-9dde-1121a334126d, .b2fc4930-c2fa-4fa9-8a01-9981d94f7b56, .b47c5d26-064c-4178-8076-f679b3fcb6de, .bc71c439-1e7d-46b5-beaf-532e2223798e, .e40a7c53-8d31-4732-bc7a-cb1800444f9e, .eb1a956b-cd02-4506-8854-925e07629434, .f07f6926-3192-4aae-a0d6-6100560621dc, .f149f826-2916-4417-8853-54b3a9d077c5, .fe38f67b-68a6-412d-9b88-f0846d56ac36 {
        stroke-miterlimit: 10;
      }

      .a7378355-7916-4e5d-88de-74a78e8363ec, .b128398a-bcfe-4395-9dde-1121a334126d, .b47c5d26-064c-4178-8076-f679b3fcb6de, .f149f826-2916-4417-8853-54b3a9d077c5 {
        stroke-width: 2.05651px;
      }

      .a7dbd358-9345-40f3-83a2-456b27f089a6, .b128398a-bcfe-4395-9dde-1121a334126d, .bc71c439-1e7d-46b5-beaf-532e2223798e, .eb1a956b-cd02-4506-8854-925e07629434 {
        stroke: #1e2029;
      }

      .f07f6926-3192-4aae-a0d6-6100560621dc {
        stroke: #1d1d1b;
      }

      .a1c90f7f-f325-4372-9284-a148103dd28f, .a1dfb8a9-722f-488d-b062-7c40a5f2cfbd, .f07f6926-3192-4aae-a0d6-6100560621dc, .fe38f67b-68a6-412d-9b88-f0846d56ac36 {
        stroke-width: 4.17298px;
      }

      .a1c90f7f-f325-4372-9284-a148103dd28f, .b2fc4930-c2fa-4fa9-8a01-9981d94f7b56, .b47c5d26-064c-4178-8076-f679b3fcb6de, .e40a7c53-8d31-4732-bc7a-cb1800444f9e {
        stroke: #ef4d7d;
      }

      .a7378355-7916-4e5d-88de-74a78e8363ec, .fe38f67b-68a6-412d-9b88-f0846d56ac36 {
        stroke: #586ff1;
      }

      .a7dbd358-9345-40f3-83a2-456b27f089a6, .b2fc4930-c2fa-4fa9-8a01-9981d94f7b56, .eb1a956b-cd02-4506-8854-925e07629434 {
        fill: #1e2029;
      }

      .a7dbd358-9345-40f3-83a2-456b27f089a6 {
        stroke-width: 1.70347px;
      }

      .bc71c439-1e7d-46b5-beaf-532e2223798e, .e40a7c53-8d31-4732-bc7a-cb1800444f9e {
        stroke-width: 2.08649px;
      }

      .a56f3dd7-f35a-42a8-bc19-4aefad7abe30 {
        fill: #dce0fa;
      }

      .a89e58d5-1362-4a06-9ec3-c67d9ef95bb6 {
        fill: #636cad;
      }

      .e9dfd008-387e-4b42-a677-5af39246867f {
        fill: #fff;
      }

      .ef02500f-23a5-4575-a151-304f97fb4e13 {
        fill: #2f3564;
      }

      .bb789a4f-15f5-4a88-aac9-ebf28a5981e5 {
        fill: #434343;
      }

      .ae8f9949-713d-461a-9703-fb710f08139d {
        fill: #ef4d7d;
      }

      .ebb15ab0-e9b7-480a-99a1-5f438390a248 {
        fill: #586ff1;
      }

      .b2fc4930-c2fa-4fa9-8a01-9981d94f7b56, .eb1a956b-cd02-4506-8854-925e07629434 {
        stroke-width: 1.70347px;
      }
    </style>
  </defs>
  <title>Element 1</title>
  <g id="b950f583-8d88-4b0e-91b6-5065569e1ad9" data-name="Ebene 2">
    <g id="ecc9203d-e857-4ff8-b18a-733cae356365" data-name="Ebene 3">
      <g>
        <line class="f149f826-2916-4417-8853-54b3a9d077c5" x1="60.52715" y1="124.60559" x2="60.52715" y2="158.76155"/>
        <g>
          <line class="b128398a-bcfe-4395-9dde-1121a334126d" x1="60.52715" y1="51.93523" x2="60.52715" y2="87.93523"/>
          <line class="f07f6926-3192-4aae-a0d6-6100560621dc" x1="52.61035" y1="52.62189" x2="68.44394" y2="52.62189"/>
        </g>
        <line class="b47c5d26-064c-4178-8076-f679b3fcb6de" x1="350.34904" y1="51.93523" x2="350.34904" y2="87.93523"/>
        <line class="a1c90f7f-f325-4372-9284-a148103dd28f" x1="342.43225" y1="52.62189" x2="358.26583" y2="52.62189"/>
        <line class="f149f826-2916-4417-8853-54b3a9d077c5" x1="350.34904" y1="159.68357" x2="350.34904" y2="123.68357"/>
        <line class="a1dfb8a9-722f-488d-b062-7c40a5f2cfbd" x1="358.26583" y1="158.99692" x2="342.43225" y2="158.99692"/>
        <line class="f149f826-2916-4417-8853-54b3a9d077c5" x1="639.08828" y1="159.68357" x2="639.08828" y2="123.68357"/>
        <line class="a1dfb8a9-722f-488d-b062-7c40a5f2cfbd" x1="647.00507" y1="158.99692" x2="631.17149" y2="158.99692"/>
        <g>
          <line class="a7378355-7916-4e5d-88de-74a78e8363ec" x1="639.08828" y1="52.62189" x2="639.08828" y2="88.62189"/>
          <line class="fe38f67b-68a6-412d-9b88-f0846d56ac36" x1="631.17149" y1="53.30855" x2="647.00507" y2="53.30855"/>
        </g>
        <line class="a1dfb8a9-722f-488d-b062-7c40a5f2cfbd" x1="52.61035" y1="158.094" x2="68.44394" y2="158.094"/>
        <g>
          <line class="a7dbd358-9345-40f3-83a2-456b27f089a6" x1="116.05712" y1="112.58115" x2="296.05712" y2="112.58115"/>
          <polyline class="bc71c439-1e7d-46b5-beaf-532e2223798e" points="200.078 106.884 210.491 112.569 200.078 118.859"/>
        </g>
        <g>
          <rect class="a56f3dd7-f35a-42a8-bc19-4aefad7abe30" x="5.35359" y="88.28395" width="110.34712" height="36"/>
          <g>
            <path d="M28.12988,101.05273a3.36267,3.36267,0,1,1,0,6.72266H25.37646v4.48145H23.77588V101.05273Zm-2.75342,5.25h2.57715a1.77884,1.77884,0,0,0,2.03272-1.88867c0-1.21679-.7041-1.88867-2.03272-1.88867H25.37646Z" transform="translate(-0.65625 -1.63672)"/>
            <path d="M34.56055,105.69434h.22412a1.90012,1.90012,0,0,1,2.04883-1.3125H37.73v1.47265H36.353a1.59789,1.59789,0,0,0-1.72852,1.82422v4.57813H33.12012v-7.84278h1.44043Z" transform="translate(-0.65625 -1.63672)"/>
            <path d="M42.25781,104.18945a4.14706,4.14706,0,1,1-4.03369,4.14551A3.9574,3.9574,0,0,1,42.25781,104.18945Zm0,6.915a2.7804,2.7804,0,1,0-2.52929-2.76953A2.48263,2.48263,0,0,0,42.25781,111.10449Z" transform="translate(-0.65625 -1.63672)"/>
            <path d="M55.57031,104.41406v7.60254a3.58274,3.58274,0,0,1-3.85742,3.666,4.62533,4.62533,0,0,1-4.08154-2.17774l1.34472-.78418a2.85491,2.85491,0,0,0,2.64063,1.61719,2.2104,2.2104,0,0,0,2.44922-2.40137V110.832H53.874a2.85246,2.85246,0,0,1-2.68945,1.457,4.06826,4.06826,0,0,1,0-8.09961,2.85246,2.85246,0,0,1,2.68945,1.457h.22412v-1.23242Zm-1.50439,3.8252a2.41441,2.41441,0,0,0-2.49707-2.70508,2.70913,2.70913,0,0,0,0,5.41016A2.41441,2.41441,0,0,0,54.06592,108.23926Z" transform="translate(-0.65625 -1.63672)"/>
            <path d="M59.24805,105.69434h.22412a1.90012,1.90012,0,0,1,2.04883-1.3125h.89648v1.47265h-1.377a1.59789,1.59789,0,0,0-1.72852,1.82422v4.57813H57.80762v-7.84278h1.44043Z" transform="translate(-0.65625 -1.63672)"/>
            <path d="M67.21729,104.18945c2.11279,0,3.47363,1.23243,3.47363,3.1211v4.94629H69.21826v-1.23243h-.22412a2.82078,2.82078,0,0,1-2.769,1.45606c-1.76074,0-2.89746-.96-2.89746-2.36817,0-1.4248.97656-2.19335,2.99316-2.38574l2.89746-.27148v-.208c0-1.07227-.75244-1.71289-2.03271-1.71289a2.37671,2.37671,0,0,0-2.40137,1.53613l-1.29639-.59179A3.95368,3.95368,0,0,1,67.21729,104.18945Zm-.73633,7.043a2.42573,2.42573,0,0,0,2.7373-2.46484v-.12793l-2.7373.25586c-.91211.08008-1.63233.35254-1.63233,1.15234C64.84863,110.78418,65.44092,111.23242,66.481,111.23242Z" transform="translate(-0.65625 -1.63672)"/>
            <path d="M74.30469,104.41406v1.02442h.22412a2.3629,2.3629,0,0,1,2.14453-1.15332,2.31944,2.31944,0,0,1,2.17676,1.3125h.22461a2.34748,2.34748,0,0,1,2.27246-1.3125,2.56965,2.56965,0,0,1,2.65722,2.60937v5.36231H82.49951v-5.26661a1.43421,1.43421,0,0,0-1.61621-1.42382,1.6274,1.6274,0,0,0-1.71289,1.792v4.89844H77.66553v-5.26661a1.37594,1.37594,0,0,0-1.53614-1.42382,1.67115,1.67115,0,0,0-1.793,1.792v4.89844H72.832v-7.84278Z" transform="translate(-0.65625 -1.63672)"/>
            <path d="M92.064,101.05273l2.625,4.4336h.19141l2.625-4.4336h1.85742l-3.3291,5.458v.19141l3.39258,5.55469H97.5542l-2.67383-4.53028H94.689l-2.67285,4.53028h-1.873l3.39355-5.55469v-.19141l-3.33008-5.458Z" transform="translate(-0.65625 -1.63672)"/>
          </g>
        </g>
        <rect class="a89e58d5-1362-4a06-9ec3-c67d9ef95bb6" x="296.06412" y="88.28395" width="108.56983" height="36"/>
        <g>
          <path class="e9dfd008-387e-4b42-a677-5af39246867f" d="M318.04883,100.78809a3.36265,3.36265,0,1,1,0,6.72265h-2.75391v4.48145h-1.60058v-11.2041Zm-2.75391,5.25h2.57715a1.779,1.779,0,0,0,2.0332-1.88868c0-1.21679-.7041-1.88867-2.0332-1.88867h-2.57715Z" transform="translate(-0.65625 -1.63672)"/>
          <path class="e9dfd008-387e-4b42-a677-5af39246867f" d="M324.47949,105.42969h.22363a1.9005,1.9005,0,0,1,2.04883-1.3125h.89649v1.47265h-1.377a1.59788,1.59788,0,0,0-1.72851,1.82422v4.57813h-1.50391v-7.84278h1.44043Z" transform="translate(-0.65625 -1.63672)"/>
          <path class="e9dfd008-387e-4b42-a677-5af39246867f" d="M332.17676,103.9248a4.147,4.147,0,1,1-4.03418,4.14551A3.9574,3.9574,0,0,1,332.17676,103.9248Zm0,6.915a2.7804,2.7804,0,1,0-2.5293-2.76953A2.48253,2.48253,0,0,0,332.17676,110.83984Z" transform="translate(-0.65625 -1.63672)"/>
          <path class="e9dfd008-387e-4b42-a677-5af39246867f" d="M345.48926,104.14941V111.752a3.583,3.583,0,0,1-3.85742,3.666,4.62623,4.62623,0,0,1-4.082-2.17774l1.34473-.78418a2.856,2.856,0,0,0,2.64063,1.61719,2.21019,2.21019,0,0,0,2.44922-2.40136v-1.1045H343.793a2.85356,2.85356,0,0,1-2.68945,1.457,4.06821,4.06821,0,0,1,0-8.09961,2.85357,2.85357,0,0,1,2.68945,1.457h.22363v-1.23243Zm-1.50488,3.8252a2.41418,2.41418,0,0,0-2.49708-2.70508,2.70916,2.70916,0,0,0,0,5.41016A2.41418,2.41418,0,0,0,343.98438,107.97461Z" transform="translate(-0.65625 -1.63672)"/>
          <path class="e9dfd008-387e-4b42-a677-5af39246867f" d="M349.167,105.42969h.22363a1.9005,1.9005,0,0,1,2.04883-1.3125h.89649v1.47265h-1.377a1.59788,1.59788,0,0,0-1.72851,1.82422v4.57813h-1.50391v-7.84278H349.167Z" transform="translate(-0.65625 -1.63672)"/>
          <path class="e9dfd008-387e-4b42-a677-5af39246867f" d="M357.13574,103.9248c2.11328,0,3.47364,1.23243,3.47364,3.1211v4.94629h-1.47266v-1.23242h-.22363a2.82111,2.82111,0,0,1-2.76954,1.456c-1.76074,0-2.89746-.96-2.89746-2.36816,0-1.42481.97657-2.19336,2.99317-2.38575l2.89746-.27148v-.208c0-1.07226-.752-1.71289-2.03223-1.71289a2.37629,2.37629,0,0,0-2.40137,1.53613l-1.29687-.59179A3.95367,3.95367,0,0,1,357.13574,103.9248Zm-.73633,7.043a2.42573,2.42573,0,0,0,2.73731-2.46484V108.375l-2.73731.25586c-.91211.08008-1.63183.35254-1.63183,1.15234C354.76758,110.51953,355.35938,110.96777,356.39941,110.96777Z" transform="translate(-0.65625 -1.63672)"/>
          <path class="e9dfd008-387e-4b42-a677-5af39246867f" d="M364.22363,104.14941v1.02442h.22364a2.364,2.364,0,0,1,2.14453-1.15332,2.31942,2.31942,0,0,1,2.17675,1.3125h.22461a2.3475,2.3475,0,0,1,2.27246-1.3125,2.56966,2.56966,0,0,1,2.65723,2.60937v5.36231H372.418v-5.2666a1.43422,1.43422,0,0,0-1.61621-1.42383,1.6274,1.6274,0,0,0-1.71289,1.792v4.89844H367.584v-5.2666a1.37594,1.37594,0,0,0-1.53613-1.42383,1.67116,1.67116,0,0,0-1.793,1.792v4.89844H362.751v-7.84278Z" transform="translate(-0.65625 -1.63672)"/>
          <path class="e9dfd008-387e-4b42-a677-5af39246867f" d="M381.69434,100.78809l2.8164,5.20214h.19238l2.81739-5.20214h1.82422l-3.9375,7.05859v4.14551h-1.60059v-4.14551l-3.9375-7.05859Z" transform="translate(-0.65625 -1.63672)"/>
        </g>
        <g>
          <rect class="ef02500f-23a5-4575-a151-304f97fb4e13" x="584.63395" y="88.28395" width="108.90865" height="36"/>
          <g>
            <path class="e9dfd008-387e-4b42-a677-5af39246867f" d="M607.05176,101.05273a3.36265,3.36265,0,1,1,0,6.72266h-2.75391v4.48145h-1.60058V101.05273Zm-2.75391,5.25H606.875a1.779,1.779,0,0,0,2.0332-1.88867c0-1.21679-.7041-1.88867-2.0332-1.88867h-2.57715Z" transform="translate(-0.65625 -1.63672)"/>
            <path class="e9dfd008-387e-4b42-a677-5af39246867f" d="M613.48242,105.69434h.22363a1.90049,1.90049,0,0,1,2.04883-1.3125h.89649v1.47265h-1.377a1.59788,1.59788,0,0,0-1.72851,1.82422v4.57813H612.042v-7.84278h1.44043Z" transform="translate(-0.65625 -1.63672)"/>
            <path class="e9dfd008-387e-4b42-a677-5af39246867f" d="M621.17969,104.18945a4.147,4.147,0,1,1-4.03418,4.14551A3.9574,3.9574,0,0,1,621.17969,104.18945Zm0,6.915a2.7804,2.7804,0,1,0-2.5293-2.76953A2.48253,2.48253,0,0,0,621.17969,111.10449Z" transform="translate(-0.65625 -1.63672)"/>
            <path class="e9dfd008-387e-4b42-a677-5af39246867f" d="M634.49219,104.41406v7.60254a3.583,3.583,0,0,1-3.85742,3.666,4.62623,4.62623,0,0,1-4.082-2.17774l1.34473-.78418a2.856,2.856,0,0,0,2.64063,1.61719,2.21018,2.21018,0,0,0,2.44921-2.40137V110.832h-.1914a2.85358,2.85358,0,0,1-2.68945,1.457,4.06821,4.06821,0,0,1,0-8.09961,2.85358,2.85358,0,0,1,2.68945,1.457h.22363v-1.23242Zm-1.50489,3.8252a2.41417,2.41417,0,0,0-2.49707-2.70508,2.70916,2.70916,0,0,0,0,5.41016A2.41417,2.41417,0,0,0,632.9873,108.23926Z" transform="translate(-0.65625 -1.63672)"/>
            <path class="e9dfd008-387e-4b42-a677-5af39246867f" d="M638.16992,105.69434h.22363a1.90049,1.90049,0,0,1,2.04883-1.3125h.89649v1.47265h-1.377a1.59788,1.59788,0,0,0-1.72851,1.82422v4.57813h-1.50391v-7.84278h1.44043Z" transform="translate(-0.65625 -1.63672)"/>
            <path class="e9dfd008-387e-4b42-a677-5af39246867f" d="M646.13867,104.18945c2.11328,0,3.47363,1.23243,3.47363,3.1211v4.94629h-1.47265v-1.23243H647.916a2.8211,2.8211,0,0,1-2.76954,1.45606c-1.76074,0-2.89746-.96-2.89746-2.36817,0-1.4248.97657-2.19335,2.99317-2.38574l2.89746-.27148v-.208c0-1.07227-.75195-1.71289-2.03223-1.71289a2.37629,2.37629,0,0,0-2.40137,1.53613l-1.29687-.59179A3.95367,3.95367,0,0,1,646.13867,104.18945Zm-.73633,7.043a2.42573,2.42573,0,0,0,2.73731-2.46484v-.12793l-2.73731.25586c-.91211.08008-1.63183.35254-1.63183,1.15234C643.77051,110.78418,644.3623,111.23242,645.40234,111.23242Z" transform="translate(-0.65625 -1.63672)"/>
            <path class="e9dfd008-387e-4b42-a677-5af39246867f" d="M653.22656,104.41406v1.02442h.22364a2.364,2.364,0,0,1,2.14453-1.15332,2.31942,2.31942,0,0,1,2.17675,1.3125h.22461a2.3475,2.3475,0,0,1,2.27246-1.3125,2.56966,2.56966,0,0,1,2.65723,2.60937v5.36231H661.4209v-5.26661a1.43421,1.43421,0,0,0-1.61621-1.42382,1.62739,1.62739,0,0,0-1.71289,1.792v4.89844h-1.50489v-5.26661a1.37593,1.37593,0,0,0-1.53613-1.42382,1.67115,1.67115,0,0,0-1.793,1.792v4.89844h-1.5039v-7.84278Z" transform="translate(-0.65625 -1.63672)"/>
            <path class="e9dfd008-387e-4b42-a677-5af39246867f" d="M677.21191,101.05273v1.40821l-5.84277,8.32324h5.93848v1.47266H669.416v-1.40821l5.84277-8.32324h-5.68262v-1.47266Z" transform="translate(-0.65625 -1.63672)"/>
          </g>
        </g>
        <g>
          <path class="bb789a4f-15f5-4a88-aac9-ebf28a5981e5" d="M2.55176,183.46582c0-2.91309,1.63281-4.57812,4.37012-4.57812a3.78165,3.78165,0,0,1,4.11376,4.09765v.14453H9.43457v-.14453c0-1.585-.73633-2.625-2.51269-2.625-1.77686,0-2.769,1.08887-2.769,3.041v2.625c0,1.95312.99219,3.042,2.76905,3.042a2.30275,2.30275,0,0,0,2.51269-2.626v-.1914H6.40967v-1.457h4.626v1.64843A3.7667,3.7667,0,0,1,6.92188,190.54c-2.73731,0-4.37012-1.66406-4.37012-4.57715Z" transform="translate(-0.65625 -1.63672)"/>
          <path class="bb789a4f-15f5-4a88-aac9-ebf28a5981e5" d="M16.31348,182.2168a3.74967,3.74967,0,0,1,3.84179,3.96972v.75293H13.97656a2.34723,2.34723,0,0,0,2.49707,2.28809,2.33172,2.33172,0,0,0,2.24121-1.4082l1.26416.7207a3.87273,3.87273,0,0,1-3.47314,2,4.02371,4.02371,0,0,1-4.09766-4.209A3.921,3.921,0,0,1,16.31348,182.2168Zm2.273,3.50586a2.10525,2.10525,0,0,0-2.273-2.19336,2.1733,2.1733,0,0,0-2.33692,2.19336Z" transform="translate(-0.65625 -1.63672)"/>
          <path class="bb789a4f-15f5-4a88-aac9-ebf28a5981e5" d="M23.0166,182.47363V179.752h1.50488v2.72168h2.30469v1.3125H24.52148v4.76953c0,.32032.12793.44825.416.44825h1.44043v1.3125H24.3291a1.26911,1.26911,0,0,1-1.3125-1.34473v-5.18555H20.83984v-1.3125Z" transform="translate(-0.65625 -1.63672)"/>
          <path class="bb789a4f-15f5-4a88-aac9-ebf28a5981e5" d="M36.585,182.2168a3.74967,3.74967,0,0,1,3.8418,3.96972v.75293H34.24805a2.49889,2.49889,0,0,0,4.73828.87989l1.26416.7207a3.87276,3.87276,0,0,1-3.47315,2,4.0237,4.0237,0,0,1-4.09765-4.209A3.921,3.921,0,0,1,36.585,182.2168Zm2.27295,3.50586A2.10525,2.10525,0,0,0,36.585,183.5293a2.17329,2.17329,0,0,0-2.33691,2.19336Z" transform="translate(-0.65625 -1.63672)"/>
          <path class="bb789a4f-15f5-4a88-aac9-ebf28a5981e5" d="M43.56055,182.47363v1.32813h.22363a2.66159,2.66159,0,0,1,2.64111-1.457,2.96859,2.96859,0,0,1,3.05762,3.25v4.72168H47.978v-4.59375a1.837,1.837,0,0,0-2.0166-2.06446,2.26839,2.26839,0,0,0-2.36914,2.56055v4.09766h-1.5044v-7.84278Z" transform="translate(-0.65625 -1.63672)"/>
          <path class="bb789a4f-15f5-4a88-aac9-ebf28a5981e5" d="M52.74414,182.47363V179.752H54.249v2.72168h2.30469v1.3125H54.249v4.76953c0,.32032.12793.44825.416.44825h1.44043v1.3125H54.05664a1.2691,1.2691,0,0,1-1.3125-1.34473v-5.18555H50.56738v-1.3125Z" transform="translate(-0.65625 -1.63672)"/>
          <path class="bb789a4f-15f5-4a88-aac9-ebf28a5981e5" d="M59.56006,183.75391h.22412a1.90014,1.90014,0,0,1,2.04883-1.3125h.89648v1.47265h-1.377a1.59789,1.59789,0,0,0-1.72852,1.82422v4.57813H58.11963v-7.84278h1.44043Z" transform="translate(-0.65625 -1.63672)"/>
          <path class="bb789a4f-15f5-4a88-aac9-ebf28a5981e5" d="M72.10645,182.47363l-4.64161,11.04395H65.832l1.32861-3.05664-3.34521-7.98731h1.63232l2.417,5.9541h.19238l2.417-5.9541Z" transform="translate(-0.65625 -1.63672)"/>
          <path class="bb789a4f-15f5-4a88-aac9-ebf28a5981e5" d="M73.0957,185.59473h4.7378v1.376H73.0957Z" transform="translate(-0.65625 -1.63672)"/>
          <path class="bb789a4f-15f5-4a88-aac9-ebf28a5981e5" d="M81.76758,190.31641h-1.5044V179.1123h1.5044Z" transform="translate(-0.65625 -1.63672)"/>
          <path class="bb789a4f-15f5-4a88-aac9-ebf28a5981e5" d="M87.40039,182.2168a3.74967,3.74967,0,0,1,3.8418,3.96972v.75293H85.06348a2.49889,2.49889,0,0,0,4.73828.87989l1.26416.7207a3.87276,3.87276,0,0,1-3.47315,2,4.0237,4.0237,0,0,1-4.09765-4.209A3.921,3.921,0,0,1,87.40039,182.2168Zm2.27295,3.50586a2.10525,2.10525,0,0,0-2.27295-2.19336,2.17329,2.17329,0,0,0-2.33691,2.19336Z" transform="translate(-0.65625 -1.63672)"/>
          <path class="bb789a4f-15f5-4a88-aac9-ebf28a5981e5" d="M93.57568,182.47363l2.27295,6.40235H96.041l2.27294-6.40235h1.63233l-2.9292,7.84278H94.87256l-2.9292-7.84278Z" transform="translate(-0.65625 -1.63672)"/>
          <path class="bb789a4f-15f5-4a88-aac9-ebf28a5981e5" d="M104.61621,182.2168a3.74967,3.74967,0,0,1,3.8418,3.96972v.75293H102.2793a2.49889,2.49889,0,0,0,4.73828.87989l1.26416.7207a3.87276,3.87276,0,0,1-3.47315,2,4.0237,4.0237,0,0,1-4.09765-4.209A3.921,3.921,0,0,1,104.61621,182.2168Zm2.273,3.50586a2.10525,2.10525,0,0,0-2.273-2.19336,2.17329,2.17329,0,0,0-2.33691,2.19336Z" transform="translate(-0.65625 -1.63672)"/>
          <path class="bb789a4f-15f5-4a88-aac9-ebf28a5981e5" d="M111.624,190.31641h-1.50439V179.1123H111.624Z" transform="translate(-0.65625 -1.63672)"/>
          <path class="bb789a4f-15f5-4a88-aac9-ebf28a5981e5" d="M119.75342,179.1123l-4.70557,14.40528h-1.53711l4.70606-14.40528Z" transform="translate(-0.65625 -1.63672)"/>
          <path class="bb789a4f-15f5-4a88-aac9-ebf28a5981e5" d="M1.87256,198.08789a1.185,1.185,0,1,1,0,2.36914,1.185,1.185,0,1,1,0-2.36914ZM2.625,209.5166H1.12061v-7.84277H2.625Z" transform="translate(-0.65625 -1.63672)"/>
          <path class="bb789a4f-15f5-4a88-aac9-ebf28a5981e5" d="M6.3374,201.67383V203.002h.22412a2.66032,2.66032,0,0,1,2.64063-1.457,2.96861,2.96861,0,0,1,3.05762,3.25v4.72168H10.75488v-4.59375a1.83776,1.83776,0,0,0-2.0166-2.06543A2.26918,2.26918,0,0,0,6.36914,205.419v4.09765H4.86475v-7.84277Z" transform="translate(-0.65625 -1.63672)"/>
          <path class="bb789a4f-15f5-4a88-aac9-ebf28a5981e5" d="M15.521,201.67383v-2.72168h1.50488v2.72168h2.30469v1.3125H17.02588v4.76953c0,.32031.12793.44824.416.44824h1.44043v1.3125H16.8335a1.26909,1.26909,0,0,1-1.3125-1.34472v-5.18555H13.34424v-1.3125Z" transform="translate(-0.65625 -1.63672)"/>
          <path class="bb789a4f-15f5-4a88-aac9-ebf28a5981e5" d="M24.20947,201.417a3.74968,3.74968,0,0,1,3.8418,3.96973v.75293H21.87256a2.34723,2.34723,0,0,0,2.49707,2.28808,2.33056,2.33056,0,0,0,2.24072-1.4082l1.26465.7207a3.87274,3.87274,0,0,1-3.47314,2,4.0237,4.0237,0,0,1-4.09766-4.209A3.921,3.921,0,0,1,24.20947,201.417Zm2.273,3.50586a2.1055,2.1055,0,0,0-2.273-2.19336,2.17329,2.17329,0,0,0-2.33691,2.19336Z" transform="translate(-0.65625 -1.63672)"/>
          <path class="bb789a4f-15f5-4a88-aac9-ebf28a5981e5" d="M31.15283,202.9541H31.377a1.90014,1.90014,0,0,1,2.04883-1.3125h.89649v1.47266h-1.377a1.59788,1.59788,0,0,0-1.72851,1.82422v4.57812H29.7124v-7.84277h1.44043Z" transform="translate(-0.65625 -1.63672)"/>
          <path class="bb789a4f-15f5-4a88-aac9-ebf28a5981e5" d="M37.20068,201.67383v1.02441h.22412a2.363,2.363,0,0,1,2.14454-1.15332,2.31946,2.31946,0,0,1,2.17675,1.3125h.22412a2.34931,2.34931,0,0,1,2.273-1.3125,2.56967,2.56967,0,0,1,2.65723,2.60938v5.3623H45.396V204.25a1.43439,1.43439,0,0,0-1.6167-1.42383,1.6274,1.6274,0,0,0-1.71289,1.792v4.89844H40.562V204.25a1.37633,1.37633,0,0,0-1.53662-1.42383,1.67116,1.67116,0,0,0-1.793,1.792v4.89844H35.728v-7.84277Z" transform="translate(-0.65625 -1.63672)"/>
          <path class="bb789a4f-15f5-4a88-aac9-ebf28a5981e5" d="M52.43311,201.417a3.74968,3.74968,0,0,1,3.84179,3.96973v.75293H50.09619a2.49857,2.49857,0,0,0,4.73779.87988l1.26465.7207a3.87271,3.87271,0,0,1-3.47314,2,4.0237,4.0237,0,0,1-4.09766-4.209A3.921,3.921,0,0,1,52.43311,201.417Zm2.27294,3.50586a2.10549,2.10549,0,0,0-2.27294-2.19336,2.1733,2.1733,0,0,0-2.33692,2.19336Z" transform="translate(-0.65625 -1.63672)"/>
          <path class="bb789a4f-15f5-4a88-aac9-ebf28a5981e5" d="M65.49072,209.5166H64.01855v-1.23242h-.22412a2.85364,2.85364,0,0,1-2.68945,1.45605c-2.06445,0-3.68115-1.71191-3.68115-4.1455,0-2.43262,1.6167-4.14551,3.68115-4.14551a2.85246,2.85246,0,0,1,2.68945,1.457h.1919V198.3125h1.50439Zm-6.5625-3.92187a2.50014,2.50014,0,0,0,2.561,2.80175c1.53662,0,2.49707-1.07324,2.49707-2.80175s-.96045-2.80078-2.49707-2.80078A2.49982,2.49982,0,0,0,58.92822,205.59473Z" transform="translate(-0.65625 -1.63672)"/>
          <path class="bb789a4f-15f5-4a88-aac9-ebf28a5981e5" d="M68.48,198.08789a1.185,1.185,0,1,1-1.21631,1.18457A1.18959,1.18959,0,0,1,68.48,198.08789Zm.75244,11.42871H67.728v-7.84277h1.50439Z" transform="translate(-0.65625 -1.63672)"/>
          <path class="bb789a4f-15f5-4a88-aac9-ebf28a5981e5" d="M74.94531,201.44922c2.1128,0,3.47364,1.23242,3.47364,3.12109v4.94629H76.94629v-1.23242h-.22412a2.82081,2.82081,0,0,1-2.76905,1.45605c-1.76074,0-2.89746-.96-2.89746-2.36816,0-1.4248.97657-2.19336,2.99317-2.38574l2.89746-.27149v-.208c0-1.07227-.75244-1.71289-2.03272-1.71289a2.37669,2.37669,0,0,0-2.40136,1.53613l-1.29639-.5918A3.95366,3.95366,0,0,1,74.94531,201.44922Zm-.73633,7.043a2.42574,2.42574,0,0,0,2.73731-2.46485v-.12793l-2.73731.25586c-.9121.08008-1.63232.35254-1.63232,1.15235C72.57666,208.044,73.169,208.49219,74.209,208.49219Z" transform="translate(-0.65625 -1.63672)"/>
          <path class="bb789a4f-15f5-4a88-aac9-ebf28a5981e5" d="M81.68018,201.67383v-2.72168h1.50488v2.72168h2.30469v1.3125H83.18506v4.76953c0,.32031.12793.44824.416.44824H85.0415v1.3125H82.99268a1.26909,1.26909,0,0,1-1.3125-1.34472v-5.18555H79.50342v-1.3125Z" transform="translate(-0.65625 -1.63672)"/>
          <path class="bb789a4f-15f5-4a88-aac9-ebf28a5981e5" d="M90.36914,201.417a3.74968,3.74968,0,0,1,3.8418,3.96973v.75293H88.03223a2.49889,2.49889,0,0,0,4.73828.87988l1.26416.7207a3.87274,3.87274,0,0,1-3.47315,2,4.0237,4.0237,0,0,1-4.09765-4.209A3.921,3.921,0,0,1,90.36914,201.417Zm2.27295,3.50586a2.10525,2.10525,0,0,0-2.27295-2.19336,2.17329,2.17329,0,0,0-2.33691,2.19336Z" transform="translate(-0.65625 -1.63672)"/>
          <path class="bb789a4f-15f5-4a88-aac9-ebf28a5981e5" d="M102.17578,211.37305a1.26883,1.26883,0,0,1-1.3125,1.34472h-2.0166v-1.3125h1.37646c.28809,0,.44825-.16015.44825-.48047v-9.251h1.50439Zm-.75244-13.28516a1.185,1.185,0,1,1-1.21631,1.18457A1.18959,1.18959,0,0,1,101.42334,198.08789Z" transform="translate(-0.65625 -1.63672)"/>
          <path class="bb789a4f-15f5-4a88-aac9-ebf28a5981e5" d="M107.937,201.44922a4.14705,4.14705,0,1,1-4.03369,4.14551A3.9574,3.9574,0,0,1,107.937,201.44922Zm0,6.915a2.78041,2.78041,0,1,0-2.5293-2.76953A2.48263,2.48263,0,0,0,107.937,208.36426Z" transform="translate(-0.65625 -1.63672)"/>
          <path class="bb789a4f-15f5-4a88-aac9-ebf28a5981e5" d="M115.19971,198.3125v4.59375h.19189a2.853,2.853,0,0,1,2.68945-1.457c2.06495,0,3.68116,1.71289,3.68116,4.14551,0,2.43359-1.61621,4.1455-3.68116,4.1455a2.8542,2.8542,0,0,1-2.68945-1.45605H115.168v1.23242h-1.47266V198.3125Zm0,7.28223c0,1.72851.96045,2.80175,2.49707,2.80175a2.81253,2.81253,0,0,0,0-5.60253C116.16016,202.794,115.19971,203.86621,115.19971,205.59473Z" transform="translate(-0.65625 -1.63672)"/>
        </g>
        <g>
          <path class="bb789a4f-15f5-4a88-aac9-ebf28a5981e5" d="M280.56641,183.46582c0-2.91309,1.63183-4.57812,4.36914-4.57812a3.78179,3.78179,0,0,1,4.11425,4.09765v.14453h-1.60156v-.14453c0-1.585-.73535-2.625-2.51269-2.625-1.77637,0-2.76856,1.08887-2.76856,3.041v2.625c0,1.95312.99219,3.042,2.76856,3.042a2.30232,2.30232,0,0,0,2.51269-2.626v-.1914h-3.02441v-1.457h4.626v1.64843a3.76684,3.76684,0,0,1-4.11425,4.09766c-2.73731,0-4.36914-1.66406-4.36914-4.57715Z" transform="translate(-0.65625 -1.63672)"/>
          <path class="bb789a4f-15f5-4a88-aac9-ebf28a5981e5" d="M294.32715,182.2168a3.75,3.75,0,0,1,3.8418,3.96972v.75293h-6.17872a2.49889,2.49889,0,0,0,4.73829.87989l1.26367.7207a3.87192,3.87192,0,0,1-3.47266,2,4.02342,4.02342,0,0,1-4.09765-4.209A3.92071,3.92071,0,0,1,294.32715,182.2168Zm2.27246,3.50586a2.10461,2.10461,0,0,0-2.27246-2.19336,2.173,2.173,0,0,0-2.33692,2.19336Z" transform="translate(-0.65625 -1.63672)"/>
          <path class="bb789a4f-15f5-4a88-aac9-ebf28a5981e5" d="M301.03027,182.47363V179.752h1.50489v2.72168h2.30468v1.3125h-2.30468v4.76953c0,.32032.12793.44825.416.44825h1.44043v1.3125h-2.04883a1.26937,1.26937,0,0,1-1.3125-1.34473v-5.18555h-2.17675v-1.3125Z" transform="translate(-0.65625 -1.63672)"/>
          <path class="bb789a4f-15f5-4a88-aac9-ebf28a5981e5" d="M314.67871,182.249c2.11328,0,3.47363,1.23243,3.47363,3.1211v4.94629h-1.47265V189.084h-.22364a2.82107,2.82107,0,0,1-2.76953,1.45606c-1.76074,0-2.89746-.96-2.89746-2.36816,0-1.42481.97656-2.19336,2.99317-2.38575l2.89746-.27148v-.208c0-1.07226-.752-1.71289-2.03223-1.71289a2.37629,2.37629,0,0,0-2.40137,1.53613l-1.29687-.59179A3.95367,3.95367,0,0,1,314.67871,182.249Zm-.73633,7.043a2.42573,2.42573,0,0,0,2.73731-2.46484v-.12793l-2.73731.25586c-.91211.08008-1.63183.35254-1.63183,1.15234C312.31055,188.84375,312.90234,189.292,313.94238,189.292Z" transform="translate(-0.65625 -1.63672)"/>
          <path class="bb789a4f-15f5-4a88-aac9-ebf28a5981e5" d="M327.84863,190.31641H326.376V189.084h-.22364a2.853,2.853,0,0,1-2.68945,1.45606c-2.06445,0-3.68164-1.71192-3.68164-4.14551,0-2.43262,1.61719-4.14551,3.68164-4.14551a2.85357,2.85357,0,0,1,2.68945,1.457h.19141V179.1123h1.50488Zm-6.5625-3.92188a2.5,2.5,0,0,0,2.56055,2.80176c1.53711,0,2.49707-1.07324,2.49707-2.80176s-.96-2.80078-2.49707-2.80078A2.49972,2.49972,0,0,0,321.28613,186.39453Z" transform="translate(-0.65625 -1.63672)"/>
          <path class="bb789a4f-15f5-4a88-aac9-ebf28a5981e5" d="M330.918,182.47363l2.27246,6.40235h.19238l2.27344-6.40235h1.63184l-2.92871,7.84278h-2.14454l-2.92968-7.84278Z" transform="translate(-0.65625 -1.63672)"/>
          <path class="bb789a4f-15f5-4a88-aac9-ebf28a5981e5" d="M342.03906,182.249c2.11231,0,3.47364,1.23243,3.47364,3.1211v4.94629H344.04V189.084h-.22461a2.82047,2.82047,0,0,1-2.76855,1.45606c-1.76075,0-2.89747-.96-2.89747-2.36816,0-1.42481.97657-2.19336,2.99317-2.38575l2.89746-.27148v-.208c0-1.07226-.75293-1.71289-2.0332-1.71289a2.37712,2.37712,0,0,0-2.40137,1.53613l-1.2959-.59179A3.95367,3.95367,0,0,1,342.03906,182.249Zm-.73633,7.043a2.42573,2.42573,0,0,0,2.73731-2.46484v-.12793l-2.73731.25586c-.91211.08008-1.63281.35254-1.63281,1.15234C339.66992,188.84375,340.2627,189.292,341.30273,189.292Z" transform="translate(-0.65625 -1.63672)"/>
          <path class="bb789a4f-15f5-4a88-aac9-ebf28a5981e5" d="M349.126,182.47363v1.32813h.22461a2.65931,2.65931,0,0,1,2.64062-1.457,2.96884,2.96884,0,0,1,3.05762,3.25v4.72168H353.544v-4.59375a1.837,1.837,0,0,0-2.01661-2.06446,2.26817,2.26817,0,0,0-2.36914,2.56055v4.09766h-1.50488v-7.84278Z" transform="translate(-0.65625 -1.63672)"/>
          <path class="bb789a4f-15f5-4a88-aac9-ebf28a5981e5" d="M360.74316,182.249a3.652,3.652,0,0,1,3.80957,3.041l-1.47265.30469a2.18138,2.18138,0,0,0-2.33692-1.96875,2.7762,2.7762,0,0,0,.03223,5.53808,2.20012,2.20012,0,0,0,2.32031-1.95312l1.48926.28808a3.73811,3.73811,0,0,1-3.80957,3.041,4.146,4.146,0,0,1-.03223-8.291Z" transform="translate(-0.65625 -1.63672)"/>
          <path class="bb789a4f-15f5-4a88-aac9-ebf28a5981e5" d="M369.63867,182.2168a3.75,3.75,0,0,1,3.8418,3.96972v.75293h-6.17871a2.49889,2.49889,0,0,0,4.73828.87989l1.26367.7207a3.87192,3.87192,0,0,1-3.47266,2,4.02342,4.02342,0,0,1-4.09765-4.209A3.92071,3.92071,0,0,1,369.63867,182.2168Zm2.27246,3.50586a2.10461,2.10461,0,0,0-2.27246-2.19336,2.173,2.173,0,0,0-2.33691,2.19336Z" transform="translate(-0.65625 -1.63672)"/>
          <path class="bb789a4f-15f5-4a88-aac9-ebf28a5981e5" d="M382.69629,190.31641h-1.47266V189.084H381a2.85306,2.85306,0,0,1-2.68945,1.45606c-2.06446,0-3.68164-1.71192-3.68164-4.14551,0-2.43262,1.61718-4.14551,3.68164-4.14551A2.85358,2.85358,0,0,1,381,183.70605h.19141V179.1123h1.50488Zm-6.5625-3.92188a2.5,2.5,0,0,0,2.56055,2.80176c1.53711,0,2.49707-1.07324,2.49707-2.80176s-.96-2.80078-2.49707-2.80078A2.49972,2.49972,0,0,0,376.13379,186.39453Z" transform="translate(-0.65625 -1.63672)"/>
          <path class="bb789a4f-15f5-4a88-aac9-ebf28a5981e5" d="M391.2373,190.31641h-1.5039V179.1123h1.5039Z" transform="translate(-0.65625 -1.63672)"/>
          <path class="bb789a4f-15f5-4a88-aac9-ebf28a5981e5" d="M396.87012,182.2168a3.74994,3.74994,0,0,1,3.84179,3.96972v.75293H394.5332a2.49889,2.49889,0,0,0,4.73828.87989l1.26368.7207a3.87192,3.87192,0,0,1-3.47266,2,4.02343,4.02343,0,0,1-4.09766-4.209A3.92072,3.92072,0,0,1,396.87012,182.2168Zm2.27246,3.50586a2.10461,2.10461,0,0,0-2.27246-2.19336,2.173,2.173,0,0,0-2.33692,2.19336Z" transform="translate(-0.65625 -1.63672)"/>
          <path class="bb789a4f-15f5-4a88-aac9-ebf28a5981e5" d="M403.04492,182.47363l2.27344,6.40235h.19238l2.27246-6.40235H409.416l-2.92969,7.84278H404.3418l-2.92871-7.84278Z" transform="translate(-0.65625 -1.63672)"/>
          <path class="bb789a4f-15f5-4a88-aac9-ebf28a5981e5" d="M414.08594,182.2168a3.74939,3.74939,0,0,1,3.84179,3.96972v.75293H411.749a2.49889,2.49889,0,0,0,4.73828.87989l1.26465.7207a3.87357,3.87357,0,0,1-3.47363,2,4.024,4.024,0,0,1-4.09766-4.209A3.92131,3.92131,0,0,1,414.08594,182.2168Zm2.27344,3.50586a2.1059,2.1059,0,0,0-2.27344-2.19336,2.17356,2.17356,0,0,0-2.33692,2.19336Z" transform="translate(-0.65625 -1.63672)"/>
          <path class="bb789a4f-15f5-4a88-aac9-ebf28a5981e5" d="M421.09375,190.31641h-1.50488V179.1123h1.50488Z" transform="translate(-0.65625 -1.63672)"/>
          <path class="bb789a4f-15f5-4a88-aac9-ebf28a5981e5" d="M309.50293,201.417a3.74941,3.74941,0,0,1,3.8418,3.96973v.75293H307.166a2.49889,2.49889,0,0,0,4.73828.87988l1.26465.7207a3.87359,3.87359,0,0,1-3.47364,2,4.024,4.024,0,0,1-4.09765-4.209A3.92131,3.92131,0,0,1,309.50293,201.417Zm2.27344,3.50586a2.1059,2.1059,0,0,0-2.27344-2.19336,2.17355,2.17355,0,0,0-2.33691,2.19336Z" transform="translate(-0.65625 -1.63672)"/>
          <path class="bb789a4f-15f5-4a88-aac9-ebf28a5981e5" d="M316.47852,201.67383v1.02441h.2246a2.36182,2.36182,0,0,1,2.14454-1.15332,2.31945,2.31945,0,0,1,2.17675,1.3125h.22364a2.35006,2.35006,0,0,1,2.27343-1.3125,2.56967,2.56967,0,0,1,2.65723,2.60938v5.3623h-1.50488V204.25a1.43422,1.43422,0,0,0-1.61621-1.42383,1.6274,1.6274,0,0,0-1.71289,1.792v4.89844h-1.50489V204.25a1.37594,1.37594,0,0,0-1.53613-1.42383,1.67116,1.67116,0,0,0-1.793,1.792v4.89844h-1.50488v-7.84277Z" transform="translate(-0.65625 -1.63672)"/>
          <path class="bb789a4f-15f5-4a88-aac9-ebf28a5981e5" d="M328.31738,201.67383H329.79v1.23242h.22461a2.85079,2.85079,0,0,1,2.68847-1.457c2.06543,0,3.68165,1.71289,3.68165,4.14551,0,2.43359-1.61622,4.1455-3.68165,4.1455a2.852,2.852,0,0,1-2.68847-1.45605h-.19238v4.43359h-1.50489Zm6.5625,3.9209a2.49971,2.49971,0,0,0-2.56054-2.80078c-1.53711,0-2.49707,1.07226-2.49707,2.80078s.96,2.80175,2.49707,2.80175A2.5,2.5,0,0,0,334.87988,205.59473Z" transform="translate(-0.65625 -1.63672)"/>
          <path class="bb789a4f-15f5-4a88-aac9-ebf28a5981e5" d="M339.61426,209.5166h-1.50488V198.3125h1.50488Z" transform="translate(-0.65625 -1.63672)"/>
          <path class="bb789a4f-15f5-4a88-aac9-ebf28a5981e5" d="M345.375,201.44922a4.14707,4.14707,0,1,1-4.0332,4.14551A3.9574,3.9574,0,0,1,345.375,201.44922Zm0,6.915a2.78041,2.78041,0,1,0-2.5293-2.76953A2.48274,2.48274,0,0,0,345.375,208.36426Z" transform="translate(-0.65625 -1.63672)"/>
          <path class="bb789a4f-15f5-4a88-aac9-ebf28a5981e5" d="M358.46484,201.67383l-4.6416,11.04394h-1.63281l1.32812-3.05664-3.34472-7.9873h1.63183l2.417,5.9541h.19238l2.417-5.9541Z" transform="translate(-0.65625 -1.63672)"/>
          <path class="bb789a4f-15f5-4a88-aac9-ebf28a5981e5" d="M361.374,201.67383v1.02441h.22461a2.36182,2.36182,0,0,1,2.14453-1.15332,2.31946,2.31946,0,0,1,2.17676,1.3125h.22363a2.35009,2.35009,0,0,1,2.27344-1.3125,2.56967,2.56967,0,0,1,2.65723,2.60938v5.3623h-1.50488V204.25a1.43422,1.43422,0,0,0-1.61622-1.42383,1.6274,1.6274,0,0,0-1.71289,1.792v4.89844h-1.50488V204.25a1.37594,1.37594,0,0,0-1.53613-1.42383,1.67116,1.67116,0,0,0-1.793,1.792v4.89844h-1.50488v-7.84277Z" transform="translate(-0.65625 -1.63672)"/>
          <path class="bb789a4f-15f5-4a88-aac9-ebf28a5981e5" d="M376.60645,201.417a3.75,3.75,0,0,1,3.84179,3.96973v.75293h-6.17871a2.49889,2.49889,0,0,0,4.73828.87988l1.26367.7207a3.87187,3.87187,0,0,1-3.47265,2,4.02342,4.02342,0,0,1-4.09766-4.209A3.92073,3.92073,0,0,1,376.60645,201.417Zm2.27246,3.50586a2.10461,2.10461,0,0,0-2.27246-2.19336,2.173,2.173,0,0,0-2.33692,2.19336Z" transform="translate(-0.65625 -1.63672)"/>
          <path class="bb789a4f-15f5-4a88-aac9-ebf28a5981e5" d="M383.582,201.67383V203.002h.22461a2.65932,2.65932,0,0,1,2.64063-1.457,2.96884,2.96884,0,0,1,3.05761,3.25v4.72168H388v-4.59375a1.83776,1.83776,0,0,0-2.0166-2.06543,2.26895,2.26895,0,0,0-2.36914,2.56153v4.09765h-1.50488v-7.84277Z" transform="translate(-0.65625 -1.63672)"/>
          <path class="bb789a4f-15f5-4a88-aac9-ebf28a5981e5" d="M392.76562,201.67383v-2.72168h1.50489v2.72168h2.30469v1.3125h-2.30469v4.76953c0,.32031.12793.44824.416.44824H396.127v1.3125h-2.04883a1.26937,1.26937,0,0,1-1.3125-1.34472v-5.18555h-2.17675v-1.3125Z" transform="translate(-0.65625 -1.63672)"/>
        </g>
        <g>
          <path class="bb789a4f-15f5-4a88-aac9-ebf28a5981e5" d="M565.57324,179.1123V180.584h-3.61816v9.73243h-1.60059V180.584H556.7373V179.1123Z" transform="translate(-0.65625 -1.63672)"/>
          <path class="bb789a4f-15f5-4a88-aac9-ebf28a5981e5" d="M568.93164,182.249a4.147,4.147,0,1,1-4.03418,4.14551A3.9574,3.9574,0,0,1,568.93164,182.249Zm0,6.915a2.7804,2.7804,0,1,0-2.5293-2.76953A2.48253,2.48253,0,0,0,568.93164,189.16406Z" transform="translate(-0.65625 -1.63672)"/>
          <path class="bb789a4f-15f5-4a88-aac9-ebf28a5981e5" d="M574.68945,182.47363h1.47266v1.23242h.22461a2.85079,2.85079,0,0,1,2.68848-1.457c2.06542,0,3.68164,1.71289,3.68164,4.14551,0,2.43359-1.61622,4.14551-3.68164,4.14551a2.85027,2.85027,0,0,1-2.68848-1.45606h-.19238v4.4336h-1.50489Zm6.5625,3.9209a2.49972,2.49972,0,0,0-2.56054-2.80078c-1.53711,0-2.49707,1.07227-2.49707,2.80078s.96,2.80176,2.49707,2.80176A2.5,2.5,0,0,0,581.252,186.39453Z" transform="translate(-0.65625 -1.63672)"/>
          <path class="bb789a4f-15f5-4a88-aac9-ebf28a5981e5" d="M590.56152,182.47363V179.752h1.50489v2.72168h2.30468v1.3125h-2.30468v4.76953c0,.32032.12793.44825.416.44825h1.44043v1.3125H591.874a1.26937,1.26937,0,0,1-1.3125-1.34473v-5.18555h-2.17675v-1.3125Z" transform="translate(-0.65625 -1.63672)"/>
          <path class="bb789a4f-15f5-4a88-aac9-ebf28a5981e5" d="M596.68945,178.8877a1.185,1.185,0,1,1-1.21679,1.18457A1.18988,1.18988,0,0,1,596.68945,178.8877Zm.752,11.42871H595.9375v-7.84278h1.50391Z" transform="translate(-0.65625 -1.63672)"/>
          <path class="bb789a4f-15f5-4a88-aac9-ebf28a5981e5" d="M603.07422,182.2168a3.75,3.75,0,0,1,3.8418,3.96972v.75293H600.7373a2.49889,2.49889,0,0,0,4.73829.87989l1.26367.7207a3.87192,3.87192,0,0,1-3.47266,2,4.02342,4.02342,0,0,1-4.09765-4.209A3.92071,3.92071,0,0,1,603.07422,182.2168Zm2.27246,3.50586a2.10461,2.10461,0,0,0-2.27246-2.19336,2.173,2.173,0,0,0-2.33692,2.19336Z" transform="translate(-0.65625 -1.63672)"/>
          <path class="bb789a4f-15f5-4a88-aac9-ebf28a5981e5" d="M610.01758,183.75391h.22461a1.89978,1.89978,0,0,1,2.04883-1.3125h.89648v1.47265h-1.37695a1.59789,1.59789,0,0,0-1.72852,1.82422v4.57813h-1.50488v-7.84278h1.44043Z" transform="translate(-0.65625 -1.63672)"/>
          <path class="bb789a4f-15f5-4a88-aac9-ebf28a5981e5" d="M620.89746,192.17285a1.26884,1.26884,0,0,1-1.3125,1.34473h-2.0166v-1.3125h1.376c.28808,0,.44824-.16016.44824-.48047v-9.251h1.50488Zm-.75293-13.28515a1.185,1.185,0,1,1-1.21582,1.18457A1.18928,1.18928,0,0,1,620.14453,178.8877Z" transform="translate(-0.65625 -1.63672)"/>
          <path class="bb789a4f-15f5-4a88-aac9-ebf28a5981e5" d="M626.6582,182.249a4.14707,4.14707,0,1,1-4.0332,4.14551A3.9574,3.9574,0,0,1,626.6582,182.249Zm0,6.915a2.7804,2.7804,0,1,0-2.52929-2.76953A2.48273,2.48273,0,0,0,626.6582,189.16406Z" transform="translate(-0.65625 -1.63672)"/>
          <path class="bb789a4f-15f5-4a88-aac9-ebf28a5981e5" d="M633.9209,179.1123v4.59375h.19238a2.85079,2.85079,0,0,1,2.68848-1.457c2.06543,0,3.68164,1.71289,3.68164,4.14551,0,2.43359-1.61621,4.14551-3.68164,4.14551a2.85027,2.85027,0,0,1-2.68848-1.45606h-.22461v1.23243H632.416V179.1123Zm0,7.28223c0,1.72852.96,2.80176,2.49707,2.80176a2.81259,2.81259,0,0,0,0-5.60254C634.88086,183.59375,633.9209,184.666,633.9209,186.39453Z" transform="translate(-0.65625 -1.63672)"/>
          <path class="bb789a4f-15f5-4a88-aac9-ebf28a5981e5" d="M654.5625,182.47363v7.60254a3.58249,3.58249,0,0,1-3.85742,3.666,4.62446,4.62446,0,0,1-4.08106-2.17774l1.34473-.78418a2.85382,2.85382,0,0,0,2.64063,1.61719,2.21061,2.21061,0,0,0,2.44921-2.40137V188.8916h-.19238a2.85135,2.85135,0,0,1-2.68945,1.457,4.06832,4.06832,0,0,1,0-8.09961,2.85135,2.85135,0,0,1,2.68945,1.457h.22461v-1.23242Zm-1.50391,3.8252a2.41464,2.41464,0,0,0-2.49707-2.70508,2.7091,2.7091,0,0,0,0,5.41016A2.41465,2.41465,0,0,0,653.05859,186.29883Z" transform="translate(-0.65625 -1.63672)"/>
          <path class="bb789a4f-15f5-4a88-aac9-ebf28a5981e5" d="M662.626,190.31641v-1.32813h-.22364a2.66138,2.66138,0,0,1-2.6416,1.45606,2.96732,2.96732,0,0,1-3.05664-3.249v-4.72168H658.208v4.59375a1.83732,1.83732,0,0,0,2.01758,2.06446,2.26909,2.26909,0,0,0,2.36914-2.56055v-4.09766h1.5039v7.84278Z" transform="translate(-0.65625 -1.63672)"/>
          <path class="bb789a4f-15f5-4a88-aac9-ebf28a5981e5" d="M669.80957,182.249c2.11231,0,3.47363,1.23243,3.47363,3.1211v4.94629h-1.47265V189.084h-.22461a2.82049,2.82049,0,0,1-2.76856,1.45606c-1.76074,0-2.89746-.96-2.89746-2.36816,0-1.42481.97656-2.19336,2.99317-2.38575l2.89746-.27148v-.208c0-1.07226-.75293-1.71289-2.03321-1.71289a2.37712,2.37712,0,0,0-2.40136,1.53613l-1.2959-.59179A3.95365,3.95365,0,0,1,669.80957,182.249Zm-.73633,7.043a2.42573,2.42573,0,0,0,2.73731-2.46484v-.12793l-2.73731.25586c-.91211.08008-1.63281.35254-1.63281,1.15234C667.44043,188.84375,668.0332,189.292,669.07324,189.292Z" transform="translate(-0.65625 -1.63672)"/>
          <path class="bb789a4f-15f5-4a88-aac9-ebf28a5981e5" d="M676.86426,183.75391h.22461a1.89978,1.89978,0,0,1,2.04883-1.3125h.89648v1.47265h-1.37695a1.59789,1.59789,0,0,0-1.72852,1.82422v4.57813h-1.50488v-7.84278h1.44043Z" transform="translate(-0.65625 -1.63672)"/>
          <path class="bb789a4f-15f5-4a88-aac9-ebf28a5981e5" d="M684.833,182.249c2.11328,0,3.47363,1.23243,3.47363,3.1211v4.94629H686.834V189.084h-.22363a2.82108,2.82108,0,0,1-2.76953,1.45606c-1.76074,0-2.89746-.96-2.89746-2.36816,0-1.42481.97656-2.19336,2.99316-2.38575l2.89746-.27148v-.208c0-1.07226-.75195-1.71289-2.03222-1.71289a2.37628,2.37628,0,0,0-2.40137,1.53613l-1.29687-.59179A3.95365,3.95365,0,0,1,684.833,182.249Zm-.73633,7.043a2.42573,2.42573,0,0,0,2.7373-2.46484v-.12793l-2.7373.25586c-.91211.08008-1.63184.35254-1.63184,1.15234C682.46484,188.84375,683.05664,189.292,684.09668,189.292Z" transform="translate(-0.65625 -1.63672)"/>
          <path class="bb789a4f-15f5-4a88-aac9-ebf28a5981e5" d="M691.9209,182.47363v1.32813h.22363a2.66132,2.66132,0,0,1,2.64063-1.457,2.96835,2.96835,0,0,1,3.05761,3.25v4.72168h-1.50488v-4.59375a1.837,1.837,0,0,0-2.0166-2.06446,2.26862,2.26862,0,0,0-2.36914,2.56055v4.09766h-1.50391v-7.84278Z" transform="translate(-0.65625 -1.63672)"/>
          <path class="bb789a4f-15f5-4a88-aac9-ebf28a5981e5" d="M701.10449,182.47363V179.752h1.50489v2.72168h2.30468v1.3125h-2.30468v4.76953c0,.32032.12792.44825.416.44825h1.44043v1.3125H702.417a1.26884,1.26884,0,0,1-1.3125-1.34473v-5.18555h-2.17676v-1.3125Z" transform="translate(-0.65625 -1.63672)"/>
          <path class="bb789a4f-15f5-4a88-aac9-ebf28a5981e5" d="M709.793,182.2168a3.75,3.75,0,0,1,3.8418,3.96972v.75293h-6.17872a2.49889,2.49889,0,0,0,4.73829.87989l1.26367.7207a3.87192,3.87192,0,0,1-3.47266,2,4.02342,4.02342,0,0,1-4.09765-4.209A3.92071,3.92071,0,0,1,709.793,182.2168Zm2.27246,3.50586a2.10461,2.10461,0,0,0-2.27246-2.19336,2.173,2.173,0,0,0-2.33692,2.19336Z" transform="translate(-0.65625 -1.63672)"/>
          <path class="bb789a4f-15f5-4a88-aac9-ebf28a5981e5" d="M718.68945,182.2168a3.75,3.75,0,0,1,3.8418,3.96972v.75293h-6.17871a2.49889,2.49889,0,0,0,4.73828.87989l1.26367.7207a3.87189,3.87189,0,0,1-3.47265,2,4.02342,4.02342,0,0,1-4.09766-4.209A3.92072,3.92072,0,0,1,718.68945,182.2168Zm2.27246,3.50586a2.1046,2.1046,0,0,0-2.27246-2.19336,2.173,2.173,0,0,0-2.33691,2.19336Z" transform="translate(-0.65625 -1.63672)"/>
        </g>
        <g>
          <g>
            <path d="M35.60938,1.8584a2.21908,2.21908,0,0,1,2.48291,2.25488,1.7986,1.7986,0,0,1-1.39161,1.85938v.14355A1.87652,1.87652,0,0,1,38.11621,7.9873a2.24637,2.24637,0,0,1-2.48291,2.26661H32.14307V1.8584ZM33.34277,5.49219h2.18262A1.25442,1.25442,0,0,0,36.94092,4.209a1.27385,1.27385,0,0,0-1.43946-1.24707H33.34277Zm0,3.6582h2.18262a1.2853,1.2853,0,1,0,.02393-2.55469H33.34277Z" transform="translate(-0.65625 -1.63672)"/>
            <path d="M45.54443,1.8584V2.96191H41.37061V5.49219H45.2085V6.5957H41.37061V9.15039h4.22168v1.10352h-5.4209V1.8584Z" transform="translate(-0.65625 -1.63672)"/>
            <path d="M47.31152,5.12109c0-2.18359,1.22315-3.43066,3.27442-3.43066a2.83332,2.83332,0,0,1,3.082,3.07031v.1084H52.46875v-.1084A1.72016,1.72016,0,0,0,50.58594,2.794c-1.33155,0-2.0752.81543-2.0752,2.27832V7.04c0,1.46289.74365,2.27832,2.0752,2.27832a1.72491,1.72491,0,0,0,1.88281-1.9668V7.208h-2.2666V6.11621H53.668V7.35156a2.822,2.822,0,0,1-3.082,3.07032c-2.05127,0-3.27442-1.24708-3.27442-3.42969Z" transform="translate(-0.65625 -1.63672)"/>
            <path d="M56.9707,1.8584v8.39551H55.771V1.8584Z" transform="translate(-0.65625 -1.63672)"/>
            <path d="M61.56592,1.8584l2.61474,7.32812h.14356V1.8584h1.19971v8.39551H63.293L60.70264,2.9375h-.144v7.31641h-1.1997V1.8584Z" transform="translate(-0.65625 -1.63672)"/>
            <path d="M70.12158,1.8584l2.61475,7.32812h.14355V1.8584h1.19971v8.39551h-2.231L69.2583,2.9375h-.144v7.31641H67.91455V1.8584Z" transform="translate(-0.65625 -1.63672)"/>
            <path d="M81.84424,1.8584V2.96191H77.67041V5.49219H81.5083V6.5957H77.67041V9.15039h4.22168v1.10352h-5.4209V1.8584Z" transform="translate(-0.65625 -1.63672)"/>
            <path d="M87.97656,6.77539l1.87061,3.47852H88.52832L86.75293,6.82422H85.09814v3.42969H83.89893V1.8584h3.502a2.40264,2.40264,0,0,1,2.59033,2.48242A2.37454,2.37454,0,0,1,87.97656,6.77539ZM85.09814,5.7207H87.269c.97119,0,1.52295-.49218,1.52295-1.37988,0-.88672-.52783-1.37891-1.52295-1.37891h-2.1709Z" transform="translate(-0.65625 -1.63672)"/>
          </g>
          <g>
            <path d="M308.89648,1.8584v8.39551h-1.19921V1.8584Z" transform="translate(-0.65625 -1.63672)"/>
            <path d="M313.49219,1.8584l2.61426,7.32812H316.25V1.8584h1.2002v8.39551h-2.23145L312.62891,2.9375h-.14453v7.31641h-1.19922V1.8584Z" transform="translate(-0.65625 -1.63672)"/>
            <path d="M325.83789,1.8584V2.96191H323.127v7.292h-1.19922v-7.292H319.2168V1.8584Z" transform="translate(-0.65625 -1.63672)"/>
            <path d="M332.97852,1.8584V2.96191h-4.17383V5.49219h3.83789V6.5957h-3.83789V9.15039h4.22168v1.10352h-5.4209V1.8584Z" transform="translate(-0.65625 -1.63672)"/>
            <path d="M339.11035,6.77539l1.8711,3.47852h-1.31934l-1.77539-3.42969h-1.6543v3.42969H335.0332V1.8584h3.502A2.40225,2.40225,0,0,1,341.125,4.34082,2.37454,2.37454,0,0,1,339.11035,6.77539ZM336.23242,5.7207h2.1709c.9707,0,1.52246-.49218,1.52246-1.37988,0-.88672-.52734-1.37891-1.52246-1.37891h-2.1709Z" transform="translate(-0.65625 -1.63672)"/>
            <path d="M345.24414,1.8584l2.13477,7.14844h.14355l2.13477-7.14844h2.15918v8.39551h-1.19922v-7.124h-.14453l-2.12305,7.124h-1.79883l-2.12207-7.124h-.14453v7.124H343.085V1.8584Z" transform="translate(-0.65625 -1.63672)"/>
            <path d="M359.582,1.8584V2.96191H355.4082V5.49219h3.83789V6.5957H355.4082V9.15039h4.22168v1.10352H354.209V1.8584Z" transform="translate(-0.65625 -1.63672)"/>
            <path d="M364.22754,1.8584c2.13476,0,3.40625,1.0791,3.40625,3.26269v1.8711c0,2.18261-1.27149,3.26172-3.40625,3.26172h-2.59082V1.8584Zm-1.3916,7.292h1.36718c1.46387,0,2.23145-.64746,2.23145-2.18262V5.14453c0-1.53515-.76758-2.18262-2.23145-2.18262h-1.36718Z" transform="translate(-0.65625 -1.63672)"/>
            <path d="M370.93652,1.8584v8.39551H369.7373V1.8584Z" transform="translate(-0.65625 -1.63672)"/>
            <path d="M377.19824,1.8584l2.627,8.39551h-1.27149l-.61133-2.01465h-3.38281l-.61133,2.01465h-1.27148l2.627-8.39551Zm.41992,5.27734-1.29492-4.22168h-.14453l-1.29492,4.22168Z" transform="translate(-0.65625 -1.63672)"/>
            <path d="M386.8457,1.8584V2.96191h-2.71093v7.292h-1.19922v-7.292h-2.71094V1.8584Z" transform="translate(-0.65625 -1.63672)"/>
            <path d="M393.98535,1.8584V2.96191h-4.17383V5.49219h3.83789V6.5957h-3.83789V9.15039h4.22168v1.10352h-5.4209V1.8584Z" transform="translate(-0.65625 -1.63672)"/>
          </g>
          <g>
            <path d="M612.36426,1.80469l2.626,8.39551h-1.2705l-.61231-2.01465h-3.38183l-.61133,2.01465h-1.27149l2.626-8.39551Zm.41992,5.27734-1.2959-4.22168h-.14355L610.0498,7.082Z" transform="translate(-0.65625 -1.63672)"/>
            <path d="M619.32422,1.80469c2.13476,0,3.40625,1.0791,3.40625,3.26269v1.8711c0,2.18261-1.27149,3.26172-3.40625,3.26172h-2.58984V1.80469Zm-1.39063,7.292h1.36719c1.46289,0,2.23047-.64746,2.23047-2.18262V5.09082c0-1.53516-.76758-2.18262-2.23047-2.18262h-1.36719Z" transform="translate(-0.65625 -1.63672)"/>
            <path d="M625.31348,1.80469l2.15918,7.3164h.14355l2.15918-7.3164h1.29492l-2.57812,8.39551h-1.89551l-2.57813-8.39551Z" transform="translate(-0.65625 -1.63672)"/>
            <path d="M636.09961,1.80469l2.62695,8.39551h-1.27148l-.61133-2.01465h-3.38281l-.61133,2.01465h-1.27149l2.627-8.39551Zm.41992,5.27734-1.29492-4.22168h-.14453L633.78516,7.082Z" transform="translate(-0.65625 -1.63672)"/>
            <path d="M642.67676,1.80469,645.291,9.13281h.14355V1.80469h1.2002V10.2002h-2.23145l-2.58984-7.31641H641.669V10.2002h-1.19922V1.80469Z" transform="translate(-0.65625 -1.63672)"/>
            <path d="M652.02441,1.63672A2.85615,2.85615,0,0,1,655.167,4.65918V4.875H653.9668V4.707a1.76834,1.76834,0,0,0-1.94239-1.9668c-1.34375,0-2.08691.81543-2.08691,2.27832V6.98633c0,1.46289.74316,2.27832,2.08691,2.27832a1.763,1.763,0,0,0,1.94239-1.9668v-.168H655.167v.168a2.857,2.857,0,0,1-3.14258,3.07031c-2.06347,0-3.28613-1.24707-3.28613-3.42968V5.06738C648.73828,2.88379,649.96094,1.63672,652.02441,1.63672Z" transform="translate(-0.65625 -1.63672)"/>
            <path d="M662.57129,1.80469V2.9082h-4.17383V5.43848h3.83789V6.542h-3.83789V9.09668h4.22168V10.2002h-5.4209V1.80469Z" transform="translate(-0.65625 -1.63672)"/>
            <path d="M667.21582,1.80469c2.13477,0,3.40625,1.0791,3.40625,3.26269v1.8711c0,2.18261-1.27148,3.26172-3.40625,3.26172H664.626V1.80469Zm-1.39062,7.292h1.36718c1.46289,0,2.23047-.64746,2.23047-2.18262V5.09082c0-1.53516-.76758-2.18262-2.23047-2.18262H665.8252Z" transform="translate(-0.65625 -1.63672)"/>
          </g>
          <g>
            <path d="M32.02,25.28223v.51269H30.41943v-.38476c0-1.44043-1.02441-2.209-2.49707-2.209-1.24853,0-2.145.65625-2.145,1.64844,0,1.02441.67237,1.4248,2.25684,1.77734l.73633.16016c2.081.44824,3.3457,1.34473,3.3457,3.26465,0,2.06543-1.69678,3.36133-4.002,3.36133-2.73682,0-4.44971-1.60059-4.44971-4.06543v-.51172h1.60059v.38379a2.5376,2.5376,0,0,0,2.86523,2.75293c1.48877,0,2.38477-.79981,2.38477-1.87207,0-1.07325-.72022-1.50489-2.14453-1.80957l-.73633-.15918c-2.001-.43262-3.45752-1.18457-3.45752-3.26563,0-1.90527,1.66455-3.10547,3.7456-3.10547C30.24316,21.76074,32.02,22.99316,32.02,25.28223Z" transform="translate(-0.65625 -1.63672)"/>
            <path d="M35.21729,25.34668V22.625h1.50488v2.72168h2.30469v1.3125H36.72217v4.76953c0,.32031.12793.44824.416.44824h1.44043v1.3125H36.52979a1.26909,1.26909,0,0,1-1.3125-1.34472V26.65918H33.04053v-1.3125Z" transform="translate(-0.65625 -1.63672)"/>
            <path d="M44.06543,25.12207c2.11279,0,3.47363,1.23242,3.47363,3.12109v4.94629H46.06641V31.957h-.22412a2.82081,2.82081,0,0,1-2.769,1.45606c-1.76074,0-2.89746-.96-2.89746-2.36817,0-1.4248.97656-2.19336,2.99317-2.38574l2.89746-.27148v-.208c0-1.07227-.75245-1.71289-2.03272-1.71289a2.37672,2.37672,0,0,0-2.40137,1.53613l-1.29638-.5918A3.95366,3.95366,0,0,1,44.06543,25.12207Zm-.73633,7.043a2.42573,2.42573,0,0,0,2.73731-2.46484v-.12793l-2.73731.25585c-.91211.08008-1.63232.35254-1.63232,1.15235C41.69678,31.7168,42.28906,32.165,43.3291,32.165Z" transform="translate(-0.65625 -1.63672)"/>
            <path d="M51.12061,26.627h.22412a1.90013,1.90013,0,0,1,2.04882-1.3125H54.29v1.47266h-1.377a1.59789,1.59789,0,0,0-1.72852,1.82422v4.57812H49.68018V25.34668h1.44043Z" transform="translate(-0.65625 -1.63672)"/>
            <path d="M57.21631,25.34668V22.625h1.50488v2.72168h2.30469v1.3125H58.72119v4.76953c0,.32031.12793.44824.416.44824h1.44043v1.3125H58.52881a1.26909,1.26909,0,0,1-1.3125-1.34472V26.65918H55.03955v-1.3125Z" transform="translate(-0.65625 -1.63672)"/>
            <path d="M68.89648,21.98535V26.6748h.19239a2.66032,2.66032,0,0,1,2.64062-1.457,2.9686,2.9686,0,0,1,3.05762,3.25v4.72168H73.28223V28.5957a1.83776,1.83776,0,0,0-2.01661-2.06543,2.26918,2.26918,0,0,0-2.36914,2.56153v4.09765H67.39209V21.98535Z" transform="translate(-0.65625 -1.63672)"/>
            <path d="M80.3208,25.08984a3.74968,3.74968,0,0,1,3.8418,3.96973v.75293H77.98389a2.49856,2.49856,0,0,0,4.73779.87988l1.26465.72071a3.87276,3.87276,0,0,1-3.47315,2,4.02371,4.02371,0,0,1-4.09765-4.209A3.921,3.921,0,0,1,80.3208,25.08984Zm2.27295,3.50586a2.1055,2.1055,0,0,0-2.27295-2.19336,2.17329,2.17329,0,0,0-2.33691,2.19336Z" transform="translate(-0.65625 -1.63672)"/>
            <path d="M87.26416,26.627h.22412a1.90014,1.90014,0,0,1,2.04883-1.3125h.89648v1.47266H89.05664a1.59789,1.59789,0,0,0-1.72852,1.82422v4.57812H85.82373V25.34668h1.44043Z" transform="translate(-0.65625 -1.63672)"/>
            <path d="M94.833,25.08984a3.74968,3.74968,0,0,1,3.84179,3.96973v.75293H92.49609a2.49889,2.49889,0,0,0,4.73829.87988l1.26416.72071a3.87276,3.87276,0,0,1-3.47315,2,4.02372,4.02372,0,0,1-4.09766-4.209A3.921,3.921,0,0,1,94.833,25.08984ZM97.106,28.5957A2.10526,2.10526,0,0,0,94.833,26.40234a2.1733,2.1733,0,0,0-2.33692,2.19336Z" transform="translate(-0.65625 -1.63672)"/>
          </g>
          <g>
            <path class="ae8f9949-713d-461a-9703-fb710f08139d" d="M321.8418,25.28223v.51269h-1.60059v-.38476c0-1.44043-1.02441-2.209-2.49707-2.209-1.24805,0-2.14453.65625-2.14453,1.64844,0,1.02441.67187,1.4248,2.25684,1.77734l.73632.16016c2.08106.44824,3.34571,1.34473,3.34571,3.26465,0,2.06543-1.69727,3.36133-4.002,3.36133-2.7373,0-4.45019-1.60059-4.45019-4.06543v-.51172h1.60058v.38379a2.53761,2.53761,0,0,0,2.86524,2.75293c1.48926,0,2.38476-.79981,2.38476-1.87207,0-1.07325-.71972-1.50489-2.14453-1.80957l-.73633-.15918c-2.001-.43262-3.457-1.18457-3.457-3.26563,0-1.90527,1.66407-3.10547,3.74512-3.10547C320.06543,21.76074,321.8418,22.99316,321.8418,25.28223Z" transform="translate(-0.65625 -1.63672)"/>
            <path class="ae8f9949-713d-461a-9703-fb710f08139d" d="M325.03906,25.34668V22.625H326.544v2.72168h2.30468v1.3125H326.544v4.76953c0,.32031.12793.44824.416.44824h1.44043v1.3125h-2.04883a1.26936,1.26936,0,0,1-1.3125-1.34472V26.65918H322.8623v-1.3125Z" transform="translate(-0.65625 -1.63672)"/>
            <path class="ae8f9949-713d-461a-9703-fb710f08139d" d="M333.8877,25.12207c2.1123,0,3.47363,1.23242,3.47363,3.12109v4.94629h-1.47266V31.957h-.22461a2.82049,2.82049,0,0,1-2.76855,1.45606c-1.76074,0-2.89746-.96-2.89746-2.36817,0-1.4248.97656-2.19336,2.99316-2.38574l2.89746-.27148v-.208c0-1.07227-.75293-1.71289-2.0332-1.71289a2.37714,2.37714,0,0,0-2.40137,1.53613l-1.2959-.5918A3.95369,3.95369,0,0,1,333.8877,25.12207Zm-.73633,7.043a2.42573,2.42573,0,0,0,2.7373-2.46484v-.12793l-2.7373.25585c-.91211.08008-1.63282.35254-1.63282,1.15235C331.51855,31.7168,332.11133,32.165,333.15137,32.165Z" transform="translate(-0.65625 -1.63672)"/>
            <path class="ae8f9949-713d-461a-9703-fb710f08139d" d="M340.94238,26.627h.22461a1.89978,1.89978,0,0,1,2.04883-1.3125h.89648v1.47266h-1.377a1.59788,1.59788,0,0,0-1.72851,1.82422v4.57812H339.502V25.34668h1.44043Z" transform="translate(-0.65625 -1.63672)"/>
            <path class="ae8f9949-713d-461a-9703-fb710f08139d" d="M347.03809,25.34668V22.625H348.543v2.72168h2.30469v1.3125H348.543v4.76953c0,.32031.12793.44824.416.44824h1.44043v1.3125h-2.04882a1.26936,1.26936,0,0,1-1.3125-1.34472V26.65918h-2.17676v-1.3125Z" transform="translate(-0.65625 -1.63672)"/>
            <path class="ae8f9949-713d-461a-9703-fb710f08139d" d="M358.71875,21.98535V26.6748h.19238a2.65934,2.65934,0,0,1,2.64063-1.457,2.96885,2.96885,0,0,1,3.05762,3.25v4.72168h-1.50489V28.5957a1.83776,1.83776,0,0,0-2.0166-2.06543,2.26895,2.26895,0,0,0-2.36914,2.56153v4.09765h-1.50488V21.98535Z" transform="translate(-0.65625 -1.63672)"/>
            <path class="ae8f9949-713d-461a-9703-fb710f08139d" d="M370.14258,25.08984a3.74941,3.74941,0,0,1,3.8418,3.96973v.75293h-6.17872a2.49889,2.49889,0,0,0,4.73829.87988l1.26464.72071a3.87357,3.87357,0,0,1-3.47363,2,4.024,4.024,0,0,1-4.09766-4.209A3.92132,3.92132,0,0,1,370.14258,25.08984ZM372.416,28.5957a2.1059,2.1059,0,0,0-2.27344-2.19336,2.17356,2.17356,0,0,0-2.33692,2.19336Z" transform="translate(-0.65625 -1.63672)"/>
            <path class="ae8f9949-713d-461a-9703-fb710f08139d" d="M377.08594,26.627h.22461a1.89978,1.89978,0,0,1,2.04883-1.3125h.89648v1.47266h-1.37695a1.59789,1.59789,0,0,0-1.72852,1.82422v4.57812h-1.50488V25.34668h1.44043Z" transform="translate(-0.65625 -1.63672)"/>
            <path class="ae8f9949-713d-461a-9703-fb710f08139d" d="M384.65527,25.08984a3.75,3.75,0,0,1,3.8418,3.96973v.75293h-6.17871a2.49888,2.49888,0,0,0,4.73828.87988l1.26367.72071a3.87189,3.87189,0,0,1-3.47265,2,4.02343,4.02343,0,0,1-4.09766-4.209A3.92073,3.92073,0,0,1,384.65527,25.08984Zm2.27246,3.50586a2.10461,2.10461,0,0,0-2.27246-2.19336,2.173,2.173,0,0,0-2.33691,2.19336Z" transform="translate(-0.65625 -1.63672)"/>
          </g>
          <g>
            <path class="ebb15ab0-e9b7-480a-99a1-5f438390a248" d="M610.58105,23.52637v.51269h-1.60058V23.6543c0-1.44043-1.02442-2.209-2.49707-2.209-1.249,0-2.14551.65625-2.14551,1.64844,0,1.02441.67285,1.4248,2.25781,1.77734l.73633.16016c2.08008.44824,3.3457,1.34473,3.3457,3.26465,0,2.06543-1.69726,3.36133-4.00195,3.36133-2.7373,0-4.45019-1.60059-4.45019-4.06543v-.51172h1.60058v.38379a2.53761,2.53761,0,0,0,2.86524,2.75293c1.48828,0,2.38476-.79981,2.38476-1.87207,0-1.07325-.7207-1.50489-2.14453-1.80957l-.73633-.15918c-2.001-.43262-3.457-1.18457-3.457-3.26563,0-1.90527,1.66406-3.10547,3.74512-3.10547C608.80469,20.00488,610.58105,21.2373,610.58105,23.52637Z" transform="translate(-0.65625 -1.63672)"/>
            <path class="ebb15ab0-e9b7-480a-99a1-5f438390a248" d="M613.77832,23.59082V20.86914h1.50488v2.72168h2.30469v1.3125H615.2832v4.76953c0,.32031.12793.44824.416.44824h1.44043v1.3125h-2.04883a1.26883,1.26883,0,0,1-1.3125-1.34472V24.90332h-2.17676v-1.3125Z" transform="translate(-0.65625 -1.63672)"/>
            <path class="ebb15ab0-e9b7-480a-99a1-5f438390a248" d="M622.627,23.36621c2.11231,0,3.47266,1.23242,3.47266,3.12109v4.94629H624.627V30.20117h-.22363a2.82049,2.82049,0,0,1-2.76855,1.45606c-1.76172,0-2.89844-.96-2.89844-2.36817,0-1.4248.97656-2.19336,2.99414-2.38574l2.89648-.27148v-.208c0-1.07227-.75195-1.71289-2.03222-1.71289a2.37712,2.37712,0,0,0-2.40137,1.53613l-1.29688-.5918A3.95413,3.95413,0,0,1,622.627,23.36621Zm-.73633,7.043a2.42539,2.42539,0,0,0,2.73633-2.46484v-.12793l-2.73633.25586c-.9121.08007-1.63281.35253-1.63281,1.15234C620.25781,29.96094,620.84961,30.40918,621.89062,30.40918Z" transform="translate(-0.65625 -1.63672)"/>
            <path class="ebb15ab0-e9b7-480a-99a1-5f438390a248" d="M629.68164,24.87109h.22461a1.89978,1.89978,0,0,1,2.04883-1.3125h.89648v1.47266h-1.37695a1.59747,1.59747,0,0,0-1.72852,1.82422v4.57812h-1.50488V23.59082h1.44043Z" transform="translate(-0.65625 -1.63672)"/>
            <path class="ebb15ab0-e9b7-480a-99a1-5f438390a248" d="M635.77734,23.59082V20.86914h1.50489v2.72168h2.30468v1.3125h-2.30468v4.76953c0,.32031.12793.44824.416.44824h1.44043v1.3125h-2.04883a1.26937,1.26937,0,0,1-1.3125-1.34472V24.90332h-2.17675v-1.3125Z" transform="translate(-0.65625 -1.63672)"/>
            <path class="ebb15ab0-e9b7-480a-99a1-5f438390a248" d="M647.457,20.22949V24.919h.19336a2.65933,2.65933,0,0,1,2.64063-1.457,2.96814,2.96814,0,0,1,3.05664,3.25v4.72168h-1.50391V26.83984a1.838,1.838,0,0,0-2.01758-2.06543,2.26941,2.26941,0,0,0-2.36914,2.56153v4.09765h-1.50391V20.22949Z" transform="translate(-0.65625 -1.63672)"/>
            <path class="ebb15ab0-e9b7-480a-99a1-5f438390a248" d="M658.88184,23.334a3.7494,3.7494,0,0,1,3.84179,3.96973v.75293h-6.17871a2.49888,2.49888,0,0,0,4.73828.87988l1.26368.72071a3.8707,3.8707,0,0,1-3.47266,2,4.02343,4.02343,0,0,1-4.09766-4.209A3.92132,3.92132,0,0,1,658.88184,23.334Zm2.27246,3.50586a2.10512,2.10512,0,0,0-2.27246-2.19336,2.17357,2.17357,0,0,0-2.33692,2.19336Z" transform="translate(-0.65625 -1.63672)"/>
            <path class="ebb15ab0-e9b7-480a-99a1-5f438390a248" d="M665.8252,24.87109h.22363a1.90049,1.90049,0,0,1,2.04883-1.3125h.89648v1.47266h-1.37695a1.59831,1.59831,0,0,0-1.72852,1.82422v4.57812h-1.5039V23.59082h1.44043Z" transform="translate(-0.65625 -1.63672)"/>
            <path class="ebb15ab0-e9b7-480a-99a1-5f438390a248" d="M673.39453,23.334a3.75,3.75,0,0,1,3.8418,3.96973v.75293h-6.17969a2.49888,2.49888,0,0,0,4.73828.87988l1.26465.72071a3.87359,3.87359,0,0,1-3.47363,2,4.024,4.024,0,0,1-4.09766-4.209A3.9215,3.9215,0,0,1,673.39453,23.334Zm2.27246,3.50586a2.10511,2.10511,0,0,0-2.27246-2.19336,2.17437,2.17437,0,0,0-2.33789,2.19336Z" transform="translate(-0.65625 -1.63672)"/>
          </g>
        </g>
        <line class="eb1a956b-cd02-4506-8854-925e07629434" x1="404.63395" y1="112.45981" x2="584.63395" y2="112.45981"/>
        <line class="b2fc4930-c2fa-4fa9-8a01-9981d94f7b56" x1="404.63395" y1="100.1081" x2="584.63395" y2="100.1081"/>
        <polyline class="e40a7c53-8d31-4732-bc7a-cb1800444f9e" points="488.264 94.426 498.677 100.111 488.264 106.401"/>
      </g>
    </g>
  </g>
</svg>
