<svg width="831" height="394" viewBox="0 0 831 394" fill="none" xmlns="http://www.w3.org/2000/svg">
<rect y="0.495911" width="831" height="393" fill="#1D2A73"/>
<path d="M646.52 301.4C646.52 308.12 650.296 310.936 655.864 310.936V307.224C652.28 307.128 650.552 305.144 650.552 301.016V287.064C650.552 282.936 652.28 280.952 655.864 280.856V277.144C650.296 277.144 646.52 279.96 646.52 286.68V301.4ZM657.716 280.6V284.44H667.86L662.324 288.984V292.76H666.228C668.372 292.76 669.876 293.816 669.876 295.96C669.876 298.104 668.308 299.672 665.652 299.672C662.804 299.672 661.3 297.88 661.3 295.704V294.936H657.076V295.832C657.076 300.28 660.308 303.448 665.652 303.448C670.644 303.448 674.1 300.504 674.1 295.96C674.1 291.896 671.316 289.752 668.212 289.752H667.38V289.368L673.588 284.312V280.6H657.716ZM676.285 280.6V293.016H681.821C682.173 292.312 683.005 291.48 684.637 291.48C686.653 291.48 688.125 292.856 688.125 295.224C688.125 297.944 686.525 299.672 683.901 299.672C681.213 299.672 679.741 297.944 679.741 295.384V295.064H675.517V295.64C675.517 300.376 678.973 303.448 684.029 303.448C688.989 303.448 692.349 300.088 692.349 295.032C692.349 290.552 689.213 287.896 685.725 287.896C682.717 287.896 681.501 289.4 680.893 290.264H680.509V284.44H691.517V280.6H676.285ZM706.12 288.216L708.168 289.752L714.664 282.52L711.368 280.056L706.12 288.216ZM694.152 285.272V285.88C694.152 289.016 696.104 290.904 699.4 290.904C702.696 290.904 704.648 289.016 704.648 285.88V285.272C704.648 282.136 702.6 280.216 699.4 280.216C696.104 280.216 694.152 282.136 694.152 285.272ZM697.48 285.112C697.48 283.8 698.12 282.968 699.4 282.968C700.68 282.968 701.32 283.8 701.32 285.112V286.008C701.32 287.32 700.68 288.152 699.4 288.152C698.12 288.152 697.48 287.32 697.48 286.008V285.112ZM705.576 297.752V298.36C705.576 301.496 707.528 303.384 710.824 303.384C714.12 303.384 716.072 301.496 716.072 298.36V297.752C716.072 294.616 714.024 292.696 710.824 292.696C707.528 292.696 705.576 294.616 705.576 297.752ZM703.944 295.32L701.896 293.784L695.4 301.016L698.696 303.48L703.944 295.32ZM708.904 297.592C708.904 296.28 709.544 295.448 710.824 295.448C712.104 295.448 712.744 296.28 712.744 297.592V298.488C712.744 299.8 712.104 300.632 710.824 300.632C709.544 300.632 708.904 299.8 708.904 298.488V297.592ZM727.203 301.4V286.68C727.203 279.96 723.427 277.144 717.859 277.144V280.856C721.443 280.952 723.171 282.936 723.171 287.064V301.016C723.171 305.144 721.443 307.128 717.859 307.224V310.936C723.427 310.936 727.203 308.12 727.203 301.4ZM645.368 320.6V343H647.96V332.952H658.584V343H661.176V320.6H658.584V330.584H647.96V320.6H645.368ZM664.844 335.192C664.844 340.088 668.076 343.448 672.812 343.448C677.548 343.448 680.812 340.088 680.812 335.192C680.812 330.264 677.548 326.936 672.812 326.936C668.076 326.936 664.844 330.264 664.844 335.192ZM667.276 335.192C667.276 331.64 669.484 329.112 672.812 329.112C676.14 329.112 678.348 331.544 678.348 335.192C678.348 338.808 676.14 341.272 672.812 341.272C669.484 341.272 667.276 338.904 667.276 335.192ZM684.461 327.384V343H686.925V333.56C686.925 330.712 688.589 329.176 690.861 329.176C693.101 329.176 694.381 330.52 694.381 332.6V343H696.845V333.56C696.845 330.712 698.509 329.176 700.813 329.176C703.021 329.176 704.333 330.52 704.333 332.6V343H706.765V332.408C706.765 329.112 704.557 327.064 701.485 327.064C698.957 327.064 697.485 328.184 696.589 329.912H696.269C695.597 328.312 694.093 327.064 691.661 327.064C689.325 327.064 687.917 328.056 687.181 329.432H686.861V327.384H684.461ZM710.218 335.064C710.218 339.864 713.418 343.448 718.282 343.448C722.538 343.448 724.33 341.048 725.322 339.192L723.21 338.104C722.378 339.832 721.002 341.272 718.282 341.272C715.146 341.272 712.97 339.16 712.746 335.96H725.578V334.648C725.578 329.88 722.474 326.936 718.058 326.936C713.514 326.936 710.218 330.36 710.218 335.064ZM712.778 333.912C713.13 330.968 715.114 329.112 718.058 329.112C720.938 329.112 722.89 330.808 723.05 333.912H712.778ZM727.778 327.384L731.586 343H735.138L738.882 329.688H739.202L742.946 343H746.498L750.306 327.384H747.746L744.802 340.696H744.482L740.77 327.384H737.314L733.57 340.696H733.25L730.338 327.384H727.778ZM752.688 335.192C752.688 340.088 755.92 343.448 760.656 343.448C765.392 343.448 768.656 340.088 768.656 335.192C768.656 330.264 765.392 326.936 760.656 326.936C755.92 326.936 752.688 330.264 752.688 335.192ZM755.12 335.192C755.12 331.64 757.328 329.112 760.656 329.112C763.984 329.112 766.192 331.544 766.192 335.192C766.192 338.808 763.984 341.272 760.656 341.272C757.328 341.272 755.12 338.904 755.12 335.192ZM774.705 327.384H772.305V343H774.769V333.4C774.769 330.712 776.241 329.464 778.545 329.464H781.073V327.32H778.929C776.849 327.32 775.633 327.928 775.025 329.432H774.705V327.384ZM798.808 327.384H795.128L786.456 335.064V320.6H783.992V343H786.456V338.072L789.752 335.224L795.672 343H798.68L791.512 333.688L798.808 327.384ZM644.856 371.704L647.16 372.408C647.64 370.424 649.08 369.016 651.64 369.016C654.232 369.016 655.544 370.424 655.544 372.664V373.816H650.2C646.872 373.816 644.376 375.384 644.376 378.552C644.376 381.688 646.872 383.448 650.136 383.448C653.208 383.448 654.552 382.008 655.256 380.76H655.608V383H657.976V372.792C657.976 369.112 655.608 366.936 651.64 366.936C647.704 366.936 645.592 369.08 644.856 371.704ZM646.808 378.52C646.808 376.76 648.28 375.832 650.296 375.832H655.544V376.216C655.544 379.448 653.496 381.4 650.488 381.4C648.28 381.4 646.808 380.28 646.808 378.52ZM662.109 371.416C662.109 374.2 664.413 375.448 667.357 375.928L668.957 376.152C671.229 376.536 672.573 377.176 672.573 378.744C672.573 380.376 671.069 381.464 668.669 381.464C666.269 381.464 664.221 380.472 663.709 377.272L661.373 377.816C661.949 381.688 664.797 383.448 668.669 383.448C672.477 383.448 674.973 381.656 674.973 378.616C674.973 375.544 672.541 374.584 669.341 374.04L667.741 373.816C665.885 373.496 664.541 372.856 664.541 371.352C664.541 369.784 665.885 368.92 668.029 368.92C670.141 368.92 671.709 369.816 672.157 372.12L674.429 371.512C673.789 368.632 671.549 366.936 668.029 366.936C664.413 366.936 662.109 368.632 662.109 371.416ZM677.828 371.416C677.828 374.2 680.132 375.448 683.076 375.928L684.676 376.152C686.948 376.536 688.292 377.176 688.292 378.744C688.292 380.376 686.788 381.464 684.388 381.464C681.988 381.464 679.94 380.472 679.428 377.272L677.092 377.816C677.668 381.688 680.516 383.448 684.388 383.448C688.196 383.448 690.692 381.656 690.692 378.616C690.692 375.544 688.26 374.584 685.06 374.04L683.46 373.816C681.604 373.496 680.26 372.856 680.26 371.352C680.26 369.784 681.604 368.92 683.748 368.92C685.86 368.92 687.428 369.816 687.876 372.12L690.148 371.512C689.508 368.632 687.268 366.936 683.748 366.936C680.132 366.936 677.828 368.632 677.828 371.416ZM693.442 362.488C693.442 363.672 694.306 364.536 695.49 364.536C696.674 364.536 697.57 363.672 697.57 362.488C697.57 361.336 696.674 360.472 695.49 360.472C694.306 360.472 693.442 361.336 693.442 362.488ZM696.738 367.384H694.274V383H696.738V367.384ZM713.975 367.384V370.072H713.655C712.695 368.472 710.967 366.936 707.735 366.936C703.639 366.936 700.375 370.104 700.375 375C700.375 379.928 703.639 383.096 707.735 383.096C710.967 383.096 712.695 381.528 713.591 380.056H713.911V382.072C713.911 385.784 711.735 387.704 708.439 387.704C705.143 387.704 703.543 385.784 702.967 383.896L700.727 384.76C701.463 387.032 703.799 389.848 708.471 389.848C713.207 389.848 716.375 387.032 716.375 382.2V367.384H713.975ZM708.343 380.92C705.111 380.92 702.871 378.68 702.871 375C702.871 371.352 705.111 369.08 708.343 369.08C711.607 369.08 713.943 371.416 713.943 375C713.943 378.616 711.607 380.92 708.343 380.92ZM721.024 367.384V383H723.488V375.096C723.488 371.192 725.632 369.176 728.64 369.176C731.328 369.176 733.024 370.552 733.024 373.688V383H735.456V373.528C735.456 369.336 732.704 367.064 729.28 367.064C726.048 367.064 724.48 368.536 723.744 370.008H723.424V367.384H721.024ZM739.93 367.384V383H742.394V373.56C742.394 370.712 744.058 369.176 746.33 369.176C748.57 369.176 749.85 370.52 749.85 372.6V383H752.314V373.56C752.314 370.712 753.978 369.176 756.282 369.176C758.49 369.176 759.802 370.52 759.802 372.6V383H762.234V372.408C762.234 369.112 760.026 367.064 756.954 367.064C754.426 367.064 752.954 368.184 752.058 369.912H751.738C751.066 368.312 749.562 367.064 747.13 367.064C744.794 367.064 743.386 368.056 742.65 369.432H742.33V367.384H739.93ZM765.687 375.064C765.687 379.864 768.887 383.448 773.751 383.448C778.007 383.448 779.799 381.048 780.791 379.192L778.679 378.104C777.847 379.832 776.471 381.272 773.751 381.272C770.615 381.272 768.439 379.16 768.215 375.96H781.047V374.648C781.047 369.88 777.943 366.936 773.527 366.936C768.983 366.936 765.687 370.36 765.687 375.064ZM768.247 373.912C768.599 370.968 770.583 369.112 773.527 369.112C776.407 369.112 778.359 370.808 778.519 373.912H768.247ZM784.555 367.384V383H787.019V375.096C787.019 371.192 789.163 369.176 792.171 369.176C794.859 369.176 796.555 370.552 796.555 373.688V383H798.987V373.528C798.987 369.336 796.235 367.064 792.811 367.064C789.579 367.064 788.011 368.536 787.275 370.008H786.955V367.384H784.555ZM801.165 369.432H805.997V380.376C805.997 382.008 806.989 383 808.557 383H812.877V380.952H809.325C808.749 380.952 808.429 380.632 808.429 379.992V369.432H813.581V367.384H808.429V361.784H805.997V367.384H801.165V369.432ZM816.703 371.416C816.703 374.2 819.007 375.448 821.951 375.928L823.551 376.152C825.823 376.536 827.167 377.176 827.167 378.744C827.167 380.376 825.663 381.464 823.263 381.464C820.863 381.464 818.815 380.472 818.303 377.272L815.967 377.816C816.543 381.688 819.391 383.448 823.263 383.448C827.071 383.448 829.567 381.656 829.567 378.616C829.567 375.544 827.135 374.584 823.935 374.04L822.335 373.816C820.479 373.496 819.135 372.856 819.135 371.352C819.135 369.784 820.479 368.92 822.623 368.92C824.735 368.92 826.303 369.816 826.751 372.12L829.023 371.512C828.383 368.632 826.143 366.936 822.623 366.936C819.007 366.936 816.703 368.632 816.703 371.416Z" fill="white"/>
<path d="M651.52 28.4C651.52 35.12 655.296 37.936 660.864 37.936V34.224C657.28 34.128 655.552 32.144 655.552 28.016V14.064C655.552 9.936 657.28 7.952 660.864 7.856V4.144C655.296 4.144 651.52 6.96 651.52 13.68V28.4ZM662.396 15.088V15.856H666.62V15.152C666.62 12.24 668.572 10.928 670.876 10.928C673.18 10.928 674.684 12.24 674.684 14.448C674.684 17.072 672.764 18.128 669.564 18.992C665.436 20.112 662.524 22.096 662.524 26.16V30H678.78V26.16H666.748V25.776C666.748 23.696 668.412 23.024 671.548 22.224C676.252 21.04 678.908 18.992 678.908 14.576C678.908 9.968 675.164 7.152 670.812 7.152C666.268 7.152 662.396 9.84 662.396 15.088ZM680.648 16.176V21.424C680.648 27.312 684.104 30.448 689.224 30.448C694.344 30.448 697.8 27.312 697.8 21.424V16.176C697.8 10.48 694.344 7.152 689.224 7.152C684.104 7.152 680.648 10.48 680.648 16.176ZM684.872 15.984C684.872 13.008 686.472 10.928 689.224 10.928C691.88 10.928 693.576 12.88 693.576 15.984V21.616C693.576 24.656 692.232 26.672 689.224 26.672C686.312 26.672 684.872 24.784 684.872 21.616V15.984ZM711.87 15.216L713.918 16.752L720.414 9.52L717.118 7.056L711.87 15.216ZM699.902 12.272V12.88C699.902 16.016 701.854 17.904 705.15 17.904C708.446 17.904 710.398 16.016 710.398 12.88V12.272C710.398 9.136 708.35 7.216 705.15 7.216C701.854 7.216 699.902 9.136 699.902 12.272ZM703.23 12.112C703.23 10.8 703.87 9.968 705.15 9.968C706.43 9.968 707.07 10.8 707.07 12.112V13.008C707.07 14.32 706.43 15.152 705.15 15.152C703.87 15.152 703.23 14.32 703.23 13.008V12.112ZM711.326 24.752V25.36C711.326 28.496 713.278 30.384 716.574 30.384C719.87 30.384 721.822 28.496 721.822 25.36V24.752C721.822 21.616 719.774 19.696 716.574 19.696C713.278 19.696 711.326 21.616 711.326 24.752ZM709.694 22.32L707.646 20.784L701.15 28.016L704.446 30.48L709.694 22.32ZM714.654 24.592C714.654 23.28 715.294 22.448 716.574 22.448C717.854 22.448 718.494 23.28 718.494 24.592V25.488C718.494 26.8 717.854 27.632 716.574 27.632C715.294 27.632 714.654 26.8 714.654 25.488V24.592ZM732.953 28.4V13.68C732.953 6.96 729.177 4.144 723.609 4.144V7.856C727.193 7.952 728.921 9.936 728.921 14.064V28.016C728.921 32.144 727.193 34.128 723.609 34.224V37.936C729.177 37.936 732.953 35.12 732.953 28.4ZM650.368 47.6V70H652.96V60.944H658.88C662.848 60.944 665.92 58.416 665.92 54.256C665.92 50.096 662.88 47.6 658.88 47.6H650.368ZM652.96 49.936H658.592C661.536 49.936 663.296 51.568 663.296 54.256C663.296 56.976 661.536 58.576 658.592 58.576H652.96V49.936ZM671.486 54.384H669.086V70H671.55V60.4C671.55 57.712 673.022 56.464 675.326 56.464H677.854V54.32H675.71C673.63 54.32 672.414 54.928 671.806 56.432H671.486V54.384ZM678.969 62.192C678.969 67.088 682.201 70.448 686.937 70.448C691.673 70.448 694.937 67.088 694.937 62.192C694.937 57.264 691.673 53.936 686.937 53.936C682.201 53.936 678.969 57.264 678.969 62.192ZM681.401 62.192C681.401 58.64 683.609 56.112 686.937 56.112C690.265 56.112 692.473 58.544 692.473 62.192C692.473 65.808 690.265 68.272 686.937 68.272C683.609 68.272 681.401 65.904 681.401 62.192ZM697.946 49.488C697.946 50.672 698.81 51.536 699.994 51.536C701.178 51.536 702.074 50.672 702.074 49.488C702.074 48.336 701.178 47.472 699.994 47.472C698.81 47.472 697.946 48.336 697.946 49.488ZM701.242 54.384H698.81V73.392C698.81 74.032 698.49 74.352 697.914 74.352H694.81V76.4H698.682C700.25 76.4 701.242 75.408 701.242 73.776V54.384ZM704.875 62.064C704.875 66.864 708.075 70.448 712.939 70.448C717.195 70.448 718.987 68.048 719.979 66.192L717.867 65.104C717.035 66.832 715.659 68.272 712.939 68.272C709.803 68.272 707.627 66.16 707.403 62.96H720.235V61.648C720.235 56.88 717.131 53.936 712.715 53.936C708.171 53.936 704.875 57.36 704.875 62.064ZM707.435 60.912C707.786 57.968 709.771 56.112 712.715 56.112C715.595 56.112 717.547 57.808 717.707 60.912H707.435ZM722.75 62.192C722.75 67.024 726.302 70.448 730.846 70.448C735.102 70.448 737.63 67.824 738.334 64.496L735.934 63.952C735.518 66.448 733.886 68.272 730.878 68.272C727.678 68.272 725.246 65.776 725.246 62.192C725.246 58.608 727.646 56.112 730.846 56.112C733.694 56.112 735.518 57.872 735.838 60.4L738.238 59.888C737.694 56.592 735.006 53.936 730.814 53.936C726.302 53.936 722.75 57.328 722.75 62.192ZM739.758 56.432H744.59V67.376C744.59 69.008 745.582 70 747.15 70H751.47V67.952H747.918C747.342 67.952 747.022 67.632 747.022 66.992V56.432H752.174V54.384H747.022V48.784H744.59V54.384H739.758V56.432Z" fill="white"/>
<path d="M3.52 28.8959C3.52 35.6159 7.296 38.4319 12.864 38.4319V34.7199C9.28 34.6239 7.552 32.6399 7.552 28.5119V14.5599C7.552 10.4319 9.28 8.44791 12.864 8.35191V4.63991C7.296 4.63991 3.52 7.45591 3.52 14.1759V28.8959ZM19.26 8.09591L13.5 18.2079H17.916L21.052 12.5759H21.436V30.4959H25.66V8.09591H19.26ZM28.4913 16.6719V21.9199C28.4913 27.8079 31.9473 30.9439 37.0673 30.9439C42.1873 30.9439 45.6433 27.8079 45.6433 21.9199V16.6719C45.6433 10.9759 42.1873 7.64791 37.0673 7.64791C31.9473 7.64791 28.4913 10.9759 28.4913 16.6719ZM32.7153 16.4799C32.7153 13.5039 34.3153 11.4239 37.0673 11.4239C39.7233 11.4239 41.4193 13.3759 41.4193 16.4799V22.1119C41.4193 25.1519 40.0753 27.1679 37.0673 27.1679C34.1553 27.1679 32.7153 25.2799 32.7153 22.1119V16.4799ZM59.7138 15.7119L61.7618 17.2479L68.2578 10.0159L64.9618 7.55191L59.7138 15.7119ZM47.7458 12.7679V13.3759C47.7458 16.5119 49.6978 18.3999 52.9938 18.3999C56.2898 18.3999 58.2418 16.5119 58.2418 13.3759V12.7679C58.2418 9.63191 56.1938 7.71191 52.9938 7.71191C49.6978 7.71191 47.7458 9.63191 47.7458 12.7679ZM51.0738 12.6079C51.0738 11.2959 51.7138 10.4639 52.9938 10.4639C54.2738 10.4639 54.9138 11.2959 54.9138 12.6079V13.5039C54.9138 14.8159 54.2738 15.6479 52.9938 15.6479C51.7138 15.6479 51.0738 14.8159 51.0738 13.5039V12.6079ZM59.1698 25.2479V25.8559C59.1698 28.9919 61.1218 30.8799 64.4178 30.8799C67.7138 30.8799 69.6658 28.9919 69.6658 25.8559V25.2479C69.6658 22.1119 67.6178 20.1919 64.4178 20.1919C61.1218 20.1919 59.1698 22.1119 59.1698 25.2479ZM57.5378 22.8159L55.4898 21.2799L48.9938 28.5119L52.2898 30.9759L57.5378 22.8159ZM62.4978 25.0879C62.4978 23.7759 63.1378 22.9439 64.4178 22.9439C65.6978 22.9439 66.3378 23.7759 66.3378 25.0879V25.9839C66.3378 27.2959 65.6978 28.1279 64.4178 28.1279C63.1378 28.1279 62.4978 27.2959 62.4978 25.9839V25.0879ZM80.7965 28.8959V14.1759C80.7965 7.45591 77.0205 4.63991 71.4525 4.63991V8.35191C75.0365 8.44791 76.7645 10.4319 76.7645 14.5599V28.5119C76.7645 32.6399 75.0365 34.6239 71.4525 34.7199V38.4319C77.0205 38.4319 80.7965 35.6159 80.7965 28.8959ZM2.368 48.0959V70.4959H4.96V61.4399H10.88C14.848 61.4399 17.92 58.9119 17.92 54.7519C17.92 50.5919 14.88 48.0959 10.88 48.0959H2.368ZM4.96 50.4319H10.592C13.536 50.4319 15.296 52.0639 15.296 54.7519C15.296 57.4719 13.536 59.0719 10.592 59.0719H4.96V50.4319ZM20.1373 59.1999L22.4413 59.9039C22.9213 57.9199 24.3613 56.5119 26.9213 56.5119C29.5133 56.5119 30.8253 57.9199 30.8253 60.1599V61.3119H25.4813C22.1533 61.3119 19.6573 62.8799 19.6573 66.0479C19.6573 69.1839 22.1533 70.9439 25.4173 70.9439C28.4893 70.9439 29.8333 69.5039 30.5373 68.2559H30.8893V70.4959H33.2573V60.2879C33.2573 56.6079 30.8893 54.4319 26.9213 54.4319C22.9852 54.4319 20.8733 56.5759 20.1373 59.1999ZM22.0893 66.0159C22.0893 64.2559 23.5613 63.3279 25.5773 63.3279H30.8253V63.7119C30.8253 66.9439 28.7773 68.8959 25.7693 68.8959C23.5613 68.8959 22.0893 67.7759 22.0893 66.0159ZM40.1423 54.8799H37.7423V70.4959H40.2063V60.8959C40.2063 58.2079 41.6783 56.9599 43.9823 56.9599H46.5103V54.8159H44.3663C42.2863 54.8159 41.0703 55.4239 40.4623 56.9279H40.1423V54.8799ZM47.9145 56.9279H52.7465V67.8719C52.7465 69.5039 53.7385 70.4959 55.3065 70.4959H59.6265V68.4479H56.0745C55.4985 68.4479 55.1785 68.1279 55.1785 67.4879V56.9279H60.3305V54.8799H55.1785V49.2799H52.7465V54.8799H47.9145V56.9279ZM62.9728 49.9839C62.9728 51.1679 63.8368 52.0319 65.0208 52.0319C66.2048 52.0319 67.1008 51.1679 67.1008 49.9839C67.1008 48.8319 66.2048 47.9679 65.0208 47.9679C63.8368 47.9679 62.9728 48.8319 62.9728 49.9839ZM66.2688 54.8799H63.8048V70.4959H66.2688V54.8799ZM69.9065 62.6879C69.9065 67.5199 73.4585 70.9439 78.0025 70.9439C82.2585 70.9439 84.7865 68.3199 85.4905 64.9919L83.0905 64.4479C82.6745 66.9439 81.0425 68.7679 78.0345 68.7679C74.8345 68.7679 72.4025 66.2719 72.4025 62.6879C72.4025 59.1039 74.8025 56.6079 78.0025 56.6079C80.8505 56.6079 82.6745 58.3679 82.9945 60.8959L85.3945 60.3839C84.8505 57.0879 82.1625 54.4319 77.9705 54.4319C73.4585 54.4319 69.9065 57.8239 69.9065 62.6879ZM88.2228 49.9839C88.2228 51.1679 89.0868 52.0319 90.2708 52.0319C91.4548 52.0319 92.3508 51.1679 92.3508 49.9839C92.3508 48.8319 91.4548 47.9679 90.2708 47.9679C89.0868 47.9679 88.2228 48.8319 88.2228 49.9839ZM91.5188 54.8799H89.0548V70.4959H91.5188V54.8799ZM96.1485 76.8959H98.6125V67.8719H98.9325C99.8285 69.4079 101.525 70.9439 104.757 70.9439C108.853 70.9439 112.149 67.7119 112.149 62.6879C112.149 57.6319 108.853 54.4319 104.757 54.4319C101.525 54.4319 99.8285 55.9679 98.8685 57.5679H98.5485V54.8799H96.1485V76.8959ZM104.149 68.7679C100.917 68.7679 98.5805 66.4319 98.5805 62.6879C98.5805 58.9439 100.917 56.5759 104.149 56.5759C107.413 56.5759 109.653 58.9119 109.653 62.6879C109.653 66.4639 107.413 68.7679 104.149 68.7679ZM115.231 59.1999L117.535 59.9039C118.015 57.9199 119.455 56.5119 122.015 56.5119C124.607 56.5119 125.919 57.9199 125.919 60.1599V61.3119H120.575C117.247 61.3119 114.751 62.8799 114.751 66.0479C114.751 69.1839 117.247 70.9439 120.511 70.9439C123.583 70.9439 124.927 69.5039 125.631 68.2559H125.983V70.4959H128.351V60.2879C128.351 56.6079 125.983 54.4319 122.015 54.4319C118.079 54.4319 115.967 56.5759 115.231 59.1999ZM117.183 66.0159C117.183 64.2559 118.655 63.3279 120.671 63.3279H125.919V63.7119C125.919 66.9439 123.871 68.8959 120.863 68.8959C118.655 68.8959 117.183 67.7759 117.183 66.0159ZM130.54 56.9279H135.372V67.8719C135.372 69.5039 136.364 70.4959 137.932 70.4959H142.252V68.4479H138.7C138.124 68.4479 137.804 68.1279 137.804 67.4879V56.9279H142.956V54.8799H137.804V49.2799H135.372V54.8799H130.54V56.9279ZM145.598 49.9839C145.598 51.1679 146.462 52.0319 147.646 52.0319C148.83 52.0319 149.726 51.1679 149.726 49.9839C149.726 48.8319 148.83 47.9679 147.646 47.9679C146.462 47.9679 145.598 48.8319 145.598 49.9839ZM148.894 54.8799H146.43V70.4959H148.894V54.8799ZM152.532 62.6879C152.532 67.5839 155.764 70.9439 160.5 70.9439C165.236 70.9439 168.5 67.5839 168.5 62.6879C168.5 57.7599 165.236 54.4319 160.5 54.4319C155.764 54.4319 152.532 57.7599 152.532 62.6879ZM154.964 62.6879C154.964 59.1359 157.172 56.6079 160.5 56.6079C163.828 56.6079 166.036 59.0399 166.036 62.6879C166.036 66.3039 163.828 68.7679 160.5 68.7679C157.172 68.7679 154.964 66.3999 154.964 62.6879ZM172.149 54.8799V70.4959H174.613V62.5919C174.613 58.6879 176.757 56.6719 179.765 56.6719C182.453 56.6719 184.149 58.0479 184.149 61.1839V70.4959H186.581V61.0239C186.581 56.8319 183.829 54.5599 180.405 54.5599C177.173 54.5599 175.605 56.0319 174.869 57.5039H174.549V54.8799H172.149Z" fill="white"/>
<path d="M3.52 179.896C3.52 186.616 7.296 189.432 12.864 189.432V185.72C9.28 185.624 7.552 183.64 7.552 179.512V165.56C7.552 161.432 9.28 159.448 12.864 159.352V155.64C7.296 155.64 3.52 158.456 3.52 165.176V179.896ZM14.716 159.096V162.936H24.86L19.324 167.48V171.256H23.228C25.372 171.256 26.876 172.312 26.876 174.456C26.876 176.6 25.308 178.168 22.652 178.168C19.804 178.168 18.3 176.376 18.3 174.2V173.432H14.076V174.328C14.076 178.776 17.308 181.944 22.652 181.944C27.644 181.944 31.1 179 31.1 174.456C31.1 170.392 28.316 168.248 25.212 168.248H24.38V167.864L30.588 162.808V159.096H14.716ZM33.2845 159.096V171.512H38.8205C39.1725 170.808 40.0045 169.976 41.6365 169.976C43.6525 169.976 45.1245 171.352 45.1245 173.72C45.1245 176.44 43.5245 178.168 40.9005 178.168C38.2125 178.168 36.7405 176.44 36.7405 173.88V173.56H32.5165V174.136C32.5165 178.872 35.9725 181.944 41.0285 181.944C45.9885 181.944 49.3485 178.584 49.3485 173.528C49.3485 169.048 46.2125 166.392 42.7245 166.392C39.7165 166.392 38.5005 167.896 37.8925 168.76H37.5085V162.936H48.5165V159.096H33.2845ZM63.12 166.712L65.168 168.248L71.664 161.016L68.368 158.552L63.12 166.712ZM51.152 163.768V164.376C51.152 167.512 53.104 169.4 56.4 169.4C59.696 169.4 61.648 167.512 61.648 164.376V163.768C61.648 160.632 59.6 158.712 56.4 158.712C53.104 158.712 51.152 160.632 51.152 163.768ZM54.48 163.608C54.48 162.296 55.12 161.464 56.4 161.464C57.68 161.464 58.32 162.296 58.32 163.608V164.504C58.32 165.816 57.68 166.648 56.4 166.648C55.12 166.648 54.48 165.816 54.48 164.504V163.608ZM62.576 176.248V176.856C62.576 179.992 64.528 181.88 67.824 181.88C71.12 181.88 73.072 179.992 73.072 176.856V176.248C73.072 173.112 71.024 171.192 67.824 171.192C64.528 171.192 62.576 173.112 62.576 176.248ZM60.944 173.816L58.896 172.28L52.4 179.512L55.696 181.976L60.944 173.816ZM65.904 176.088C65.904 174.776 66.544 173.944 67.824 173.944C69.104 173.944 69.744 174.776 69.744 176.088V176.984C69.744 178.296 69.104 179.128 67.824 179.128C66.544 179.128 65.904 178.296 65.904 176.984V176.088ZM84.2028 179.896V165.176C84.2028 158.456 80.4268 155.64 74.8588 155.64V159.352C78.4427 159.448 80.1708 161.432 80.1708 165.56V179.512C80.1708 183.64 78.4427 185.624 74.8588 185.72V189.432C80.4268 189.432 84.2028 186.616 84.2028 179.896ZM10.432 198.648C5.088 198.648 1.664 201.816 1.664 207.736V212.856C1.664 218.296 4.544 221.4 9.152 221.88V223.992C9.152 225.656 10.144 226.648 11.712 226.648H14.72V224.504H12.608C12.032 224.504 11.712 224.184 11.712 223.544V221.88C16.32 221.4 19.2 218.296 19.2 212.856V207.736C19.2 201.816 15.776 198.648 10.432 198.648ZM16.576 212.984C16.576 217.112 14.304 219.608 10.432 219.608C6.528 219.608 4.256 217.112 4.256 212.984V207.608C4.256 203.48 6.528 200.952 10.432 200.952C14.304 200.952 16.576 203.48 16.576 207.608V212.984ZM37.547 221.496V205.88H35.115V213.784C35.115 217.688 32.939 219.704 29.963 219.704C27.243 219.704 25.547 218.328 25.547 215.192V205.88H23.115V215.352C23.115 219.544 25.867 221.784 29.291 221.784C32.523 221.784 34.091 220.344 34.859 218.872H35.179V221.496H37.547ZM41.379 200.984C41.379 202.168 42.243 203.032 43.427 203.032C44.611 203.032 45.507 202.168 45.507 200.984C45.507 199.832 44.611 198.968 43.427 198.968C42.243 198.968 41.379 199.832 41.379 200.984ZM44.675 205.88H42.211V221.496H44.675V205.88ZM48.8568 205.88V207.928H59.0648L48.5688 219.64V221.496H62.5848V219.448H51.8328L62.3288 207.736V205.88H48.8568ZM85.9733 199.096H81.9413C78.3893 199.096 75.4453 201.176 75.4453 205.016C75.4453 207.832 77.1093 209.336 79.0613 209.944V210.328C77.0453 211 75.2213 212.76 75.2213 215.576C75.2213 219.352 78.0693 221.496 81.8133 221.496H89.1733V211.256H92.3093V209.112H89.1733V205.624H86.7413V209.112H82.2292C79.8933 209.112 77.9093 207.928 77.9093 205.176C77.9093 202.456 79.8613 201.208 82.2292 201.208H85.9733V199.096ZM82.1013 211.256H86.7413V219.384H82.1013C79.7013 219.384 77.7173 218.104 77.7173 215.32C77.7173 212.536 79.6373 211.256 82.1013 211.256ZM2.368 239.096V261.496H16.576V259.16H4.96V251.416H15.52V249.08H4.96V241.432H16.416V239.096H2.368ZM19.187 245.88L25.235 253.56L18.995 261.496H22.035L26.899 255.128H27.219L32.115 261.496H35.155L28.883 253.56L34.963 245.88H31.955L27.219 252.024H26.899L22.163 245.88H19.187ZM36.9683 253.56C36.9683 258.36 40.1683 261.944 45.0323 261.944C49.2883 261.944 51.0803 259.544 52.0723 257.688L49.9603 256.6C49.1283 258.328 47.7523 259.768 45.0323 259.768C41.8963 259.768 39.7203 257.656 39.4963 254.456H52.3283V253.144C52.3283 248.376 49.2243 245.432 44.8083 245.432C40.2643 245.432 36.9683 248.856 36.9683 253.56ZM39.5283 252.408C39.8802 249.464 41.8643 247.608 44.8083 247.608C47.6883 247.608 49.6403 249.304 49.8003 252.408H39.5283ZM58.236 245.88H55.836V261.496H58.3V251.896C58.3 249.208 59.772 247.96 62.076 247.96H64.604V245.816H62.46C60.38 245.816 59.164 246.424 58.556 247.928H58.236V245.88ZM65.719 253.688C65.719 258.52 69.271 261.944 73.815 261.944C78.071 261.944 80.599 259.32 81.303 255.992L78.903 255.448C78.487 257.944 76.855 259.768 73.847 259.768C70.647 259.768 68.215 257.272 68.215 253.688C68.215 250.104 70.615 247.608 73.815 247.608C76.663 247.608 78.487 249.368 78.807 251.896L81.207 251.384C80.663 248.088 77.975 245.432 73.783 245.432C69.271 245.432 65.719 248.824 65.719 253.688ZM84.0353 240.984C84.0353 242.168 84.8993 243.032 86.0833 243.032C87.2673 243.032 88.1633 242.168 88.1633 240.984C88.1633 239.832 87.2673 238.968 86.0833 238.968C84.8993 238.968 84.0353 239.832 84.0353 240.984ZM87.3313 245.88H84.8673V261.496H87.3313V245.88ZM91.609 249.912C91.609 252.696 93.913 253.944 96.857 254.424L98.457 254.648C100.729 255.032 102.073 255.672 102.073 257.24C102.073 258.872 100.569 259.96 98.169 259.96C95.769 259.96 93.721 258.968 93.209 255.768L90.873 256.312C91.449 260.184 94.297 261.944 98.169 261.944C101.977 261.944 104.473 260.152 104.473 257.112C104.473 254.04 102.041 253.08 98.841 252.536L97.241 252.312C95.385 251.992 94.041 251.352 94.041 249.848C94.041 248.28 95.385 247.416 97.529 247.416C99.641 247.416 101.209 248.312 101.657 250.616L103.929 250.008C103.289 247.128 101.049 245.432 97.529 245.432C93.913 245.432 91.609 247.128 91.609 249.912ZM107.031 253.56C107.031 258.36 110.231 261.944 115.095 261.944C119.351 261.944 121.143 259.544 122.135 257.688L120.023 256.6C119.191 258.328 117.815 259.768 115.095 259.768C111.959 259.768 109.783 257.656 109.559 254.456H122.391V253.144C122.391 248.376 119.287 245.432 114.871 245.432C110.327 245.432 107.031 248.856 107.031 253.56ZM109.591 252.408C109.943 249.464 111.927 247.608 114.871 247.608C117.751 247.608 119.703 249.304 119.863 252.408H109.591ZM125.39 249.912C125.39 252.696 127.694 253.944 130.638 254.424L132.238 254.648C134.51 255.032 135.854 255.672 135.854 257.24C135.854 258.872 134.35 259.96 131.95 259.96C129.55 259.96 127.502 258.968 126.99 255.768L124.654 256.312C125.23 260.184 128.078 261.944 131.95 261.944C135.758 261.944 138.254 260.152 138.254 257.112C138.254 254.04 135.822 253.08 132.622 252.536L131.022 252.312C129.166 251.992 127.822 251.352 127.822 249.848C127.822 248.28 129.166 247.416 131.31 247.416C133.422 247.416 134.99 248.312 135.438 250.616L137.71 250.008C137.07 247.128 134.83 245.432 131.31 245.432C127.694 245.432 125.39 247.128 125.39 249.912Z" fill="white"/>
<circle cx="453" cy="195.992" r="119" fill="#1D2A73"/>
<path d="M525 355.496L553 383.496H595" stroke="white" stroke-width="3"/>
<path d="M537 41.9915L555 7.99152H595" stroke="white" stroke-width="3"/>
<path d="M227 260.992H259L283 232.992" stroke="white" stroke-width="3"/>
<path d="M325.803 47.4028L297.813 8.40845L260 8.40845" stroke="white" stroke-width="3"/>
<path d="M457.739 355.449C428.24 356.323 399.074 349.023 373.465 334.355C347.856 319.686 326.803 298.222 312.632 272.335C298.461 246.448 291.725 217.147 293.168 187.67C294.611 158.193 304.178 129.69 320.81 105.311L453 195.496L457.739 355.449Z" fill="#3D32D9"/>
<path d="M579.537 97.5365C597.603 120.873 608.864 148.75 612.074 178.087C615.285 207.424 610.32 237.077 597.729 263.768C585.139 290.459 565.412 313.149 540.73 329.328C516.048 345.508 487.373 354.546 457.875 355.445L453 195.496L579.537 97.5365Z" fill="#817AE5"/>
<path d="M398.879 44.9025C430.681 33.4731 465.285 32.4052 497.732 41.8515C530.178 51.2979 558.802 70.7737 579.499 97.4876L453 195.496L398.879 44.9025Z" fill="#00FFFF"/>
<path d="M320.752 105.395C339.78 77.4672 367.16 56.2798 398.969 44.8697L453 195.496L320.752 105.395Z" fill="#434343"/>
<path d="M469.038 313.41C403.916 322.268 343.943 276.656 335.086 211.534C326.228 146.412 371.84 86.4393 436.962 77.5816C502.084 68.724 562.057 114.335 570.914 179.458C579.772 244.58 534.16 304.553 469.038 313.41Z" fill="#1D2A73"/>
</svg>
