<svg width="32" height="24" viewBox="0 0 32 24" fill="none" xmlns="http://www.w3.org/2000/svg">
<path d="M4.8 10.4281C6.565 10.4281 8 8.99312 8 7.22813C8 5.46313 6.565 4.02813 4.8 4.02813C3.035 4.02813 1.6 5.46313 1.6 7.22813C1.6 8.99312 3.035 10.4281 4.8 10.4281ZM27.2 10.4281C28.965 10.4281 30.4 8.99312 30.4 7.22813C30.4 5.46313 28.965 4.02813 27.2 4.02813C25.435 4.02813 24 5.46313 24 7.22813C24 8.99312 25.435 10.4281 27.2 10.4281ZM28.8 12.0281H25.6C24.72 12.0281 23.925 12.3831 23.345 12.9581C25.36 14.0631 26.79 16.0581 27.1 18.4281H30.4C31.285 18.4281 32 17.7131 32 16.8281V15.2281C32 13.4631 30.565 12.0281 28.8 12.0281ZM16 12.0281C19.095 12.0281 21.6 9.52313 21.6 6.42812C21.6 3.33312 19.095 0.828125 16 0.828125C12.905 0.828125 10.4 3.33312 10.4 6.42812C10.4 9.52313 12.905 12.0281 16 12.0281ZM19.84 13.6281H19.425C18.385 14.1281 17.23 14.4281 16 14.4281C14.77 14.4281 13.62 14.1281 12.575 13.6281H12.16C8.98 13.6281 6.4 16.2081 6.4 19.3881V20.8281C6.4 22.1531 7.475 23.2281 8.8 23.2281H23.2C24.525 23.2281 25.6 22.1531 25.6 20.8281V19.3881C25.6 16.2081 23.02 13.6281 19.84 13.6281ZM8.655 12.9581C8.075 12.3831 7.28 12.0281 6.4 12.0281H3.2C1.435 12.0281 0 13.4631 0 15.2281V16.8281C0 17.7131 0.715 18.4281 1.6 18.4281H4.895C5.21 16.0581 6.64 14.0631 8.655 12.9581Z" fill="#3D32D9"/>
</svg>
