<svg width="375" height="317" viewBox="0 0 375 317" fill="none" xmlns="http://www.w3.org/2000/svg">
<path d="M1.79868 53.6779C-6.63317 85.9983 52.6575 129.45 134.228 150.731C215.799 172.011 288.76 163.061 297.192 130.741C305.624 98.4206 246.333 54.9685 164.762 33.6881C83.1919 12.4077 10.2305 21.3575 1.79868 53.6779Z" stroke="url(#paint0_linear)" stroke-miterlimit="10"/>
<path d="M5.32114 91.6243C1.85318 124.846 67.0118 158.873 150.857 167.625C234.702 176.378 305.483 156.542 308.951 123.32C312.419 90.0982 247.261 56.0714 163.416 47.319C79.5704 38.5665 8.78911 58.4027 5.32114 91.6243Z" stroke="url(#paint1_linear)" stroke-miterlimit="10"/>
<path d="M14.519 128.608C16.094 161.973 85.6341 185.798 169.841 181.823C254.048 177.848 321.034 147.578 319.459 114.213C317.884 80.8475 248.344 57.0222 164.137 60.9973C79.9304 64.9724 12.944 95.2426 14.519 128.608Z" stroke="url(#paint2_linear)" stroke-miterlimit="10"/>
<path d="M29.1806 163.784C35.7627 196.531 108.098 209.611 190.746 192.999C273.393 176.387 335.057 136.374 328.475 103.626C321.893 70.8791 249.558 57.7989 166.91 74.4109C84.2619 91.0229 22.5985 131.036 29.1806 163.784Z" stroke="url(#paint3_linear)" stroke-miterlimit="10"/>
<path d="M48.9723 196.351C60.4114 227.733 133.891 229.77 213.095 200.9C292.298 172.03 347.231 123.186 335.792 91.8033C324.353 60.4209 250.873 58.3841 171.67 87.2541C92.467 116.124 37.5333 164.968 48.9723 196.351Z" stroke="url(#paint4_linear)" stroke-miterlimit="10"/>
<path d="M73.4441 225.565C89.4791 254.867 162.428 245.813 236.379 205.344C310.331 164.875 357.282 108.314 341.247 79.0128C325.212 49.7112 252.263 58.7643 178.312 99.2336C104.36 139.703 57.4091 196.263 73.4441 225.565Z" stroke="url(#paint5_linear)" stroke-miterlimit="10"/>
<path d="M102.037 250.76C122.302 277.313 193.055 257.376 260.068 206.231C327.081 155.085 364.978 92.099 344.713 65.5466C324.448 38.9942 253.695 58.9307 186.682 110.076C119.668 161.221 81.7716 224.208 102.037 250.76Z" stroke="url(#paint6_linear)" stroke-miterlimit="10"/>
<path d="M134.098 271.362C158.131 294.559 225.074 264.194 283.62 203.54C342.166 142.885 370.144 74.9093 346.111 51.7119C322.078 28.5144 255.135 58.8796 196.589 119.534C138.043 180.189 110.065 248.165 134.098 271.362Z" stroke="url(#paint7_linear)" stroke-miterlimit="10"/>
<path d="M168.896 286.9C196.148 306.213 257.755 266.112 306.498 197.332C355.241 128.552 372.662 57.1378 345.41 37.8245C318.157 18.5112 256.551 58.6122 207.808 127.393C159.064 196.173 141.643 267.587 168.896 286.9Z" stroke="url(#paint8_linear)" stroke-miterlimit="10"/>
<path d="M220.082 133.472C182.254 208.808 175.787 282.032 205.637 297.02C235.487 312.009 290.352 263.087 328.18 187.75C366.008 112.413 372.475 39.1897 342.625 24.2012C312.774 9.21266 257.91 58.1347 220.082 133.472Z" stroke="url(#paint9_linear)" stroke-miterlimit="10"/>
<path d="M233.134 137.633C207.083 217.807 211.718 291.169 243.485 301.491C275.253 311.813 322.123 255.186 348.174 175.011C374.224 94.8365 369.589 21.4745 337.822 11.1527C306.055 0.830817 259.184 57.4578 233.134 137.633Z" stroke="url(#paint10_linear)" stroke-miterlimit="10"/>
<path d="M5.67139 44.8611C-4.44043 76.6959 52.4949 123.191 132.84 148.712C213.185 174.232 286.515 169.113 296.627 137.278C306.738 105.443 249.803 58.9479 169.458 33.4276C89.113 7.90731 15.7832 13.0262 5.67139 44.8611Z" stroke="url(#paint11_linear)" stroke-miterlimit="10"/>
<path d="M7.20378 82.9399C2.00188 115.935 65.2904 153.325 148.563 166.453C231.835 179.582 303.557 163.477 308.759 130.483C313.961 97.4881 250.672 60.0979 167.4 46.9693C84.1281 33.8407 12.4057 49.9453 7.20378 82.9399Z" stroke="url(#paint12_linear)" stroke-miterlimit="10"/>
<path d="M14.4514 120.354C14.2781 153.756 82.476 181.188 166.776 181.625C251.075 182.063 319.554 155.34 319.727 121.938C319.901 88.5362 251.703 61.1041 167.403 60.6667C83.1036 60.2293 14.6248 86.9522 14.4514 120.354Z" stroke="url(#paint13_linear)" stroke-miterlimit="10"/>
<path d="M27.2545 156.249C32.1137 189.296 103.665 206.144 187.069 193.88C270.473 181.616 334.146 144.885 329.287 111.838C324.428 78.7912 252.876 61.9432 169.472 74.207C86.0683 86.4708 22.3953 123.202 27.2545 156.249Z" stroke="url(#paint14_linear)" stroke-miterlimit="10"/>
<path d="M45.3154 189.807C55.0963 221.745 128.369 227.625 208.975 202.94C289.58 178.254 346.995 132.352 337.214 100.414C327.433 68.4761 254.16 62.5965 173.555 87.2817C92.9492 111.967 35.5345 157.869 45.3154 189.807Z" stroke="url(#paint15_linear)" stroke-miterlimit="10"/>
<path d="M68.2231 220.262C82.7026 250.363 156.025 245.14 231.993 208.596C307.962 172.053 357.808 118.027 343.329 87.9266C328.849 57.8259 255.527 63.0489 179.559 99.5923C103.59 136.136 53.7436 190.162 68.2231 220.262Z" stroke="url(#paint16_linear)" stroke-miterlimit="10"/>
<path d="M95.4591 246.919C114.307 274.496 186.006 258.29 255.604 210.722C325.203 163.154 366.344 102.237 347.496 74.6601C328.648 47.0835 256.949 63.2898 187.351 110.858C117.753 158.426 76.6114 219.343 95.4591 246.919Z" stroke="url(#paint17_linear)" stroke-miterlimit="10"/>
<path d="M126.399 269.171C149.185 293.594 217.626 266.774 279.266 209.267C340.906 151.759 372.403 85.3413 349.617 60.9178C326.831 36.4944 258.39 63.3143 196.75 120.822C135.11 178.329 103.613 244.748 126.399 269.171Z" stroke="url(#paint18_linear)" stroke-miterlimit="10"/>
<path d="M160.335 286.509C186.539 307.222 250.16 270.4 302.436 204.265C354.712 138.13 375.847 67.7258 349.643 47.0127C323.438 26.2996 259.817 63.1213 207.542 129.256C155.266 195.391 134.131 265.796 160.335 286.509Z" stroke="url(#paint19_linear)" stroke-miterlimit="10"/>
<path d="M219.481 135.969C177.761 209.223 167.471 282.008 196.496 298.538C225.521 315.068 282.871 269.085 324.59 195.831C366.309 122.577 376.6 49.7924 347.574 33.2622C318.549 16.732 261.2 62.7155 219.481 135.969Z" stroke="url(#paint20_linear)" stroke-miterlimit="10"/>
<path d="M232.294 140.807C202.083 219.509 202.871 293.013 234.055 304.983C265.239 316.953 315.009 262.857 345.22 184.156C375.431 105.454 374.643 31.9503 343.459 19.9799C312.276 8.00946 262.505 62.1056 232.294 140.807Z" stroke="url(#paint21_linear)" stroke-miterlimit="10"/>
<path d="M9.99921 36.2592C-1.76486 67.5212 52.659 116.933 131.558 146.623C210.458 176.313 283.955 175.039 295.719 143.777C307.483 112.515 253.059 63.1036 174.16 33.4134C95.2605 3.72309 21.7633 4.99723 9.99921 36.2592Z" stroke="url(#paint22_linear)" stroke-miterlimit="10"/>
<path d="M9.53446 74.3661C2.61288 107.043 63.8578 147.695 146.329 165.163C228.8 182.632 301.267 170.303 308.188 137.626C315.11 104.949 253.865 64.2975 171.394 46.8288C88.923 29.36 16.456 41.6889 9.53446 74.3661Z" stroke="url(#paint23_linear)" stroke-miterlimit="10"/>
<path d="M14.8153 112.108C12.8941 145.455 79.5628 176.419 163.724 181.267C247.885 186.116 317.669 163.014 319.59 129.667C321.511 96.3198 254.842 65.3562 170.681 60.5075C86.52 55.6588 16.7365 78.7611 14.8153 112.108Z" stroke="url(#paint24_linear)" stroke-miterlimit="10"/>
<path d="M25.722 148.624C28.845 181.88 99.4166 202.45 183.348 194.568C267.28 186.686 332.788 153.337 329.665 120.081C326.542 86.8251 255.97 66.2555 172.039 74.1375C88.1071 82.0194 22.5989 115.368 25.722 148.624Z" stroke="url(#paint25_linear)" stroke-miterlimit="10"/>
<path d="M42.0018 183.081C50.0978 215.488 122.962 225.194 204.749 204.761C286.536 184.328 346.275 141.494 338.179 109.088C330.083 76.6815 257.218 66.9752 175.431 87.408C93.6441 107.841 33.9058 150.675 42.0018 183.081Z" stroke="url(#paint26_linear)" stroke-miterlimit="10"/>
<path d="M63.2859 214.693C76.1702 245.511 149.666 244.132 227.442 211.615C305.219 179.097 357.825 127.754 344.941 96.9372C332.056 66.12 258.561 67.4983 180.784 100.016C103.007 132.533 50.4016 183.876 63.2859 214.693Z" stroke="url(#paint27_linear)" stroke-miterlimit="10"/>
<path d="M89.0882 242.74C106.467 271.265 178.916 258.833 250.908 214.973C322.901 171.113 367.174 112.432 349.795 83.9073C332.416 55.382 259.967 67.8137 187.975 111.674C115.983 155.534 71.7095 214.215 89.0882 242.74Z" stroke="url(#paint28_linear)" stroke-miterlimit="10"/>
<path d="M118.819 266.58C140.296 292.162 210.047 268.961 274.612 214.758C339.177 160.556 374.108 95.8771 352.631 70.2946C331.154 44.7121 261.404 67.9133 196.838 122.116C132.273 176.319 97.3427 240.997 118.819 266.58Z" stroke="url(#paint29_linear)" stroke-miterlimit="10"/>
<path d="M151.802 285.67C176.886 307.727 242.347 274.285 298.013 210.976C353.678 147.668 378.469 78.4662 353.384 56.41C328.3 34.3539 262.839 67.7955 207.174 131.104C151.508 194.413 126.717 263.614 151.802 285.67Z" stroke="url(#paint30_linear)" stroke-miterlimit="10"/>
<path d="M187.284 299.575C215.404 317.602 275.081 274.683 320.577 203.713C366.073 132.743 380.159 60.5974 352.039 42.5707C323.919 24.5439 264.241 67.4628 218.745 138.433C173.249 209.403 159.163 281.549 187.284 299.575Z" stroke="url(#paint31_linear)" stroke-miterlimit="10"/>
<path d="M231.29 143.935C197.002 220.947 193.943 294.392 224.457 307.978C254.972 321.564 307.505 270.146 341.793 193.134C376.081 116.121 379.14 42.6766 348.626 29.0907C318.111 15.5048 265.579 66.9223 231.29 143.935Z" stroke="url(#paint32_linear)" stroke-miterlimit="10"/>
<path d="M14.7721 27.8956C1.38798 58.499 53.1513 110.691 130.389 144.47C207.626 178.249 281.089 180.823 294.473 150.22C307.857 119.616 256.094 67.4239 178.857 33.6451C101.619 -0.133751 28.1561 -2.70791 14.7721 27.8956Z" stroke="url(#paint33_linear)" stroke-miterlimit="10"/>
<path d="M12.3158 65.9258C3.69347 98.1959 62.7269 141.997 144.171 163.758C225.614 185.519 298.627 176.999 307.249 144.729C315.872 112.459 256.838 68.6583 175.395 46.8973C93.9509 25.1363 20.938 33.6556 12.3158 65.9258Z" stroke="url(#paint34_linear)" stroke-miterlimit="10"/>
<path d="M15.6138 103.892C11.95 137.093 76.9069 171.503 160.699 180.75C244.491 189.997 315.388 170.578 319.052 137.378C322.716 104.177 257.759 69.7667 173.967 60.52C90.1746 51.2733 19.2776 70.6918 15.6138 103.892Z" stroke="url(#paint35_linear)" stroke-miterlimit="10"/>
<path d="M24.5929 140.929C25.9712 174.303 95.3696 198.538 179.599 195.059C263.827 191.581 330.991 161.706 329.613 128.333C328.235 94.9588 258.836 70.7239 174.607 74.2024C90.3784 77.6809 23.2146 107.556 24.5929 140.929Z" stroke="url(#paint36_linear)" stroke-miterlimit="10"/>
<path d="M39.0477 176.191C45.4366 208.977 117.693 222.483 200.438 206.359C283.182 190.234 345.08 150.585 338.691 117.8C332.302 85.0141 260.046 71.5077 177.301 87.632C94.5571 103.756 32.6588 143.406 39.0477 176.191Z" stroke="url(#paint37_linear)" stroke-miterlimit="10"/>
<path d="M58.6485 208.874C69.9023 240.323 143.369 242.793 222.741 214.391C302.113 185.989 357.334 137.469 346.08 106.02C334.826 74.5706 261.36 72.1006 181.987 100.503C102.615 128.905 47.3947 177.425 58.6485 208.874Z" stroke="url(#paint38_linear)" stroke-miterlimit="10"/>
<path d="M82.9471 238.232C98.809 267.628 171.81 259.005 245.999 218.972C320.188 178.94 367.471 122.657 351.609 93.2617C335.747 63.866 262.747 72.4889 188.558 112.521C114.369 152.554 67.0852 208.837 82.9471 238.232Z" stroke="url(#paint39_linear)" stroke-miterlimit="10"/>
<path d="M111.391 263.596C131.5 290.267 202.369 270.748 269.683 219.999C336.996 169.249 375.264 106.487 355.155 79.8161C335.047 53.1446 264.178 72.6636 196.864 123.413C129.551 174.162 91.2831 236.924 111.391 263.596Z" stroke="url(#paint40_linear)" stroke-miterlimit="10"/>
<path d="M143.33 284.386C167.225 307.725 234.347 277.755 293.249 217.447C352.152 157.138 380.53 89.3287 356.634 65.99C332.739 42.6512 265.617 72.6211 206.715 132.93C147.812 193.238 119.434 261.047 143.33 284.386Z" stroke="url(#paint41_linear)" stroke-miterlimit="10"/>
<path d="M178.035 300.129C205.174 319.603 267.016 279.866 316.163 211.374C365.311 142.882 383.153 71.5724 356.015 52.0987C328.877 32.6251 267.035 72.3621 217.887 140.854C168.74 209.346 150.897 280.656 178.035 300.129Z" stroke="url(#paint42_linear)" stroke-miterlimit="10"/>
<path d="M230.126 147.005C191.854 222.118 184.955 295.302 214.717 310.466C244.479 325.63 299.631 277.032 337.902 201.92C376.174 126.807 383.073 53.6236 353.311 38.4594C323.55 23.2951 268.398 71.8927 230.126 147.005Z" stroke="url(#paint43_linear)" stroke-miterlimit="10"/>
<path d="M19.9756 19.7932C5.00821 49.6542 53.9691 104.484 129.333 142.259C204.696 180.034 277.924 186.449 292.891 156.588C307.859 126.727 258.898 71.8972 183.534 34.1223C108.171 -3.65249 34.943 -10.0679 19.9756 19.7932Z" stroke="url(#paint44_linear)" stroke-miterlimit="10"/>
<path d="M15.5322 57.6429C5.23287 89.4175 61.893 136.248 142.086 162.242C222.279 188.235 295.638 183.549 305.937 151.774C316.237 119.999 259.577 73.169 179.383 47.1754C99.1903 21.1818 25.8316 25.8682 15.5322 57.6429Z" stroke="url(#paint45_linear)" stroke-miterlimit="10"/>
<path d="M16.8384 95.7301C11.4421 128.693 74.509 166.456 157.702 180.076C240.896 193.695 312.712 178.014 318.108 145.05C323.504 112.087 260.438 74.324 177.244 60.7047C94.0509 47.0853 22.2348 62.7667 16.8384 95.7301Z" stroke="url(#paint46_linear)" stroke-miterlimit="10"/>
<path d="M23.8673 133.186C23.497 166.586 91.532 194.42 175.828 195.354C260.123 196.289 328.758 169.97 329.129 136.57C329.499 103.17 261.464 75.3362 177.168 74.4017C92.8728 73.4673 24.2376 99.7859 23.8673 133.186Z" stroke="url(#paint47_linear)" stroke-miterlimit="10"/>
<path d="M36.4555 169.156C41.1198 202.231 112.571 219.501 196.045 207.729C279.52 195.957 343.409 159.602 338.744 126.527C334.08 93.4519 262.629 76.1823 179.154 87.9541C95.6797 99.7259 31.7912 136.081 36.4555 169.156Z" stroke="url(#paint48_linear)" stroke-miterlimit="10"/>
<path d="M54.3193 202.82C63.9117 234.815 137.149 241.127 217.898 216.917C298.648 192.708 356.332 147.145 346.74 115.15C337.147 83.1545 263.911 76.8429 183.161 101.052C102.411 125.262 44.7268 170.825 54.3193 202.82Z" stroke="url(#paint49_linear)" stroke-miterlimit="10"/>
<path d="M77.0488 233.408C91.3504 263.594 164.702 258.803 240.884 222.708C317.066 186.614 367.23 132.883 352.929 102.698C338.627 72.5123 265.275 77.3027 189.093 113.397C112.911 149.492 62.7471 203.223 77.0488 233.408Z" stroke="url(#paint50_linear)" stroke-miterlimit="10"/>
<path d="M104.125 260.227C122.81 287.914 194.604 272.131 264.481 224.974C334.359 177.817 375.859 117.144 357.174 89.4569C338.489 61.7696 266.695 77.5529 196.818 124.71C126.94 171.867 85.4406 232.54 104.125 260.227Z" stroke="url(#paint51_linear)" stroke-miterlimit="10"/>
<path d="M134.933 282.661C157.574 307.218 226.172 280.802 288.15 223.659C350.128 166.516 382.017 100.285 359.375 75.7272C336.734 51.1699 268.136 77.5858 206.158 134.729C144.18 191.872 112.291 258.103 134.933 282.661Z" stroke="url(#paint52_linear)" stroke-miterlimit="10"/>
<path d="M168.767 300.198C194.848 321.066 258.685 284.62 311.35 218.794C364.015 152.968 385.565 82.6898 359.483 61.8225C333.401 40.9553 269.565 77.4013 216.9 143.227C164.235 209.053 142.685 279.331 168.767 300.198Z" stroke="url(#paint53_linear)" stroke-miterlimit="10"/>
<path d="M228.801 150.01C186.65 223.017 175.931 295.739 204.858 312.44C233.785 329.142 291.405 283.497 333.555 210.49C375.705 137.484 386.425 64.7614 357.498 48.0603C328.571 31.3592 270.951 77.0038 228.801 150.01Z" stroke="url(#paint54_linear)" stroke-miterlimit="10"/>
<defs>
<linearGradient id="paint0_linear" x1="323.588" y1="8.17138" x2="-39.4121" y2="277.671" gradientUnits="userSpaceOnUse">
<stop stop-color="#F4DAE1"/>
<stop offset="1" stop-color="white" stop-opacity="0"/>
</linearGradient>
<linearGradient id="paint1_linear" x1="323.588" y1="8.17138" x2="-39.4121" y2="277.671" gradientUnits="userSpaceOnUse">
<stop stop-color="#F4DAE1"/>
<stop offset="1" stop-color="white" stop-opacity="0"/>
</linearGradient>
<linearGradient id="paint2_linear" x1="323.588" y1="8.17138" x2="-39.4121" y2="277.671" gradientUnits="userSpaceOnUse">
<stop stop-color="#F4DAE1"/>
<stop offset="1" stop-color="white" stop-opacity="0"/>
</linearGradient>
<linearGradient id="paint3_linear" x1="323.588" y1="8.17138" x2="-39.4121" y2="277.671" gradientUnits="userSpaceOnUse">
<stop stop-color="#F4DAE1"/>
<stop offset="1" stop-color="white" stop-opacity="0"/>
</linearGradient>
<linearGradient id="paint4_linear" x1="323.588" y1="8.17138" x2="-39.4121" y2="277.671" gradientUnits="userSpaceOnUse">
<stop stop-color="#F4DAE1"/>
<stop offset="1" stop-color="white" stop-opacity="0"/>
</linearGradient>
<linearGradient id="paint5_linear" x1="323.588" y1="8.17138" x2="-39.4121" y2="277.671" gradientUnits="userSpaceOnUse">
<stop stop-color="#F4DAE1"/>
<stop offset="1" stop-color="white" stop-opacity="0"/>
</linearGradient>
<linearGradient id="paint6_linear" x1="323.588" y1="8.17138" x2="-39.4121" y2="277.671" gradientUnits="userSpaceOnUse">
<stop stop-color="#F4DAE1"/>
<stop offset="1" stop-color="white" stop-opacity="0"/>
</linearGradient>
<linearGradient id="paint7_linear" x1="323.588" y1="8.17138" x2="-39.4121" y2="277.671" gradientUnits="userSpaceOnUse">
<stop stop-color="#F4DAE1"/>
<stop offset="1" stop-color="white" stop-opacity="0"/>
</linearGradient>
<linearGradient id="paint8_linear" x1="323.588" y1="8.17138" x2="-39.4121" y2="277.671" gradientUnits="userSpaceOnUse">
<stop stop-color="#F4DAE1"/>
<stop offset="1" stop-color="white" stop-opacity="0"/>
</linearGradient>
<linearGradient id="paint9_linear" x1="323.588" y1="8.17138" x2="-39.4121" y2="277.671" gradientUnits="userSpaceOnUse">
<stop stop-color="#F4DAE1"/>
<stop offset="1" stop-color="white" stop-opacity="0"/>
</linearGradient>
<linearGradient id="paint10_linear" x1="323.588" y1="8.17138" x2="-39.4121" y2="277.671" gradientUnits="userSpaceOnUse">
<stop stop-color="#F4DAE1"/>
<stop offset="1" stop-color="white" stop-opacity="0"/>
</linearGradient>
<linearGradient id="paint11_linear" x1="323.588" y1="8.17138" x2="-39.4121" y2="277.671" gradientUnits="userSpaceOnUse">
<stop stop-color="#F4DAE1"/>
<stop offset="1" stop-color="white" stop-opacity="0"/>
</linearGradient>
<linearGradient id="paint12_linear" x1="323.588" y1="8.17138" x2="-39.4121" y2="277.671" gradientUnits="userSpaceOnUse">
<stop stop-color="#F4DAE1"/>
<stop offset="1" stop-color="white" stop-opacity="0"/>
</linearGradient>
<linearGradient id="paint13_linear" x1="323.588" y1="8.17138" x2="-39.4121" y2="277.671" gradientUnits="userSpaceOnUse">
<stop stop-color="#F4DAE1"/>
<stop offset="1" stop-color="white" stop-opacity="0"/>
</linearGradient>
<linearGradient id="paint14_linear" x1="323.588" y1="8.17138" x2="-39.4121" y2="277.671" gradientUnits="userSpaceOnUse">
<stop stop-color="#F4DAE1"/>
<stop offset="1" stop-color="white" stop-opacity="0"/>
</linearGradient>
<linearGradient id="paint15_linear" x1="323.588" y1="8.17138" x2="-39.4121" y2="277.671" gradientUnits="userSpaceOnUse">
<stop stop-color="#F4DAE1"/>
<stop offset="1" stop-color="white" stop-opacity="0"/>
</linearGradient>
<linearGradient id="paint16_linear" x1="323.588" y1="8.17138" x2="-39.4121" y2="277.671" gradientUnits="userSpaceOnUse">
<stop stop-color="#F4DAE1"/>
<stop offset="1" stop-color="white" stop-opacity="0"/>
</linearGradient>
<linearGradient id="paint17_linear" x1="323.588" y1="8.17138" x2="-39.4121" y2="277.671" gradientUnits="userSpaceOnUse">
<stop stop-color="#F4DAE1"/>
<stop offset="1" stop-color="white" stop-opacity="0"/>
</linearGradient>
<linearGradient id="paint18_linear" x1="323.588" y1="8.17138" x2="-39.4121" y2="277.671" gradientUnits="userSpaceOnUse">
<stop stop-color="#F4DAE1"/>
<stop offset="1" stop-color="white" stop-opacity="0"/>
</linearGradient>
<linearGradient id="paint19_linear" x1="323.588" y1="8.17138" x2="-39.4121" y2="277.671" gradientUnits="userSpaceOnUse">
<stop stop-color="#F4DAE1"/>
<stop offset="1" stop-color="white" stop-opacity="0"/>
</linearGradient>
<linearGradient id="paint20_linear" x1="323.588" y1="8.17138" x2="-39.4121" y2="277.671" gradientUnits="userSpaceOnUse">
<stop stop-color="#F4DAE1"/>
<stop offset="1" stop-color="white" stop-opacity="0"/>
</linearGradient>
<linearGradient id="paint21_linear" x1="323.588" y1="8.17138" x2="-39.4121" y2="277.671" gradientUnits="userSpaceOnUse">
<stop stop-color="#F4DAE1"/>
<stop offset="1" stop-color="white" stop-opacity="0"/>
</linearGradient>
<linearGradient id="paint22_linear" x1="323.588" y1="8.17138" x2="-39.4121" y2="277.671" gradientUnits="userSpaceOnUse">
<stop stop-color="#F4DAE1"/>
<stop offset="1" stop-color="white" stop-opacity="0"/>
</linearGradient>
<linearGradient id="paint23_linear" x1="323.588" y1="8.17138" x2="-39.4121" y2="277.671" gradientUnits="userSpaceOnUse">
<stop stop-color="#F4DAE1"/>
<stop offset="1" stop-color="white" stop-opacity="0"/>
</linearGradient>
<linearGradient id="paint24_linear" x1="323.588" y1="8.17138" x2="-39.4121" y2="277.671" gradientUnits="userSpaceOnUse">
<stop stop-color="#F4DAE1"/>
<stop offset="1" stop-color="white" stop-opacity="0"/>
</linearGradient>
<linearGradient id="paint25_linear" x1="323.588" y1="8.17138" x2="-39.4121" y2="277.671" gradientUnits="userSpaceOnUse">
<stop stop-color="#F4DAE1"/>
<stop offset="1" stop-color="white" stop-opacity="0"/>
</linearGradient>
<linearGradient id="paint26_linear" x1="323.588" y1="8.17138" x2="-39.4121" y2="277.671" gradientUnits="userSpaceOnUse">
<stop stop-color="#F4DAE1"/>
<stop offset="1" stop-color="white" stop-opacity="0"/>
</linearGradient>
<linearGradient id="paint27_linear" x1="323.588" y1="8.17138" x2="-39.4121" y2="277.671" gradientUnits="userSpaceOnUse">
<stop stop-color="#F4DAE1"/>
<stop offset="1" stop-color="white" stop-opacity="0"/>
</linearGradient>
<linearGradient id="paint28_linear" x1="323.588" y1="8.17138" x2="-39.4121" y2="277.671" gradientUnits="userSpaceOnUse">
<stop stop-color="#F4DAE1"/>
<stop offset="1" stop-color="white" stop-opacity="0"/>
</linearGradient>
<linearGradient id="paint29_linear" x1="323.588" y1="8.17138" x2="-39.4121" y2="277.671" gradientUnits="userSpaceOnUse">
<stop stop-color="#F4DAE1"/>
<stop offset="1" stop-color="white" stop-opacity="0"/>
</linearGradient>
<linearGradient id="paint30_linear" x1="323.588" y1="8.17138" x2="-39.4121" y2="277.671" gradientUnits="userSpaceOnUse">
<stop stop-color="#F4DAE1"/>
<stop offset="1" stop-color="white" stop-opacity="0"/>
</linearGradient>
<linearGradient id="paint31_linear" x1="323.588" y1="8.17138" x2="-39.4121" y2="277.671" gradientUnits="userSpaceOnUse">
<stop stop-color="#F4DAE1"/>
<stop offset="1" stop-color="white" stop-opacity="0"/>
</linearGradient>
<linearGradient id="paint32_linear" x1="323.588" y1="8.17138" x2="-39.4121" y2="277.671" gradientUnits="userSpaceOnUse">
<stop stop-color="#F4DAE1"/>
<stop offset="1" stop-color="white" stop-opacity="0"/>
</linearGradient>
<linearGradient id="paint33_linear" x1="323.588" y1="8.17138" x2="-39.4121" y2="277.671" gradientUnits="userSpaceOnUse">
<stop stop-color="#F4DAE1"/>
<stop offset="1" stop-color="white" stop-opacity="0"/>
</linearGradient>
<linearGradient id="paint34_linear" x1="323.588" y1="8.17138" x2="-39.4121" y2="277.671" gradientUnits="userSpaceOnUse">
<stop stop-color="#F4DAE1"/>
<stop offset="1" stop-color="white" stop-opacity="0"/>
</linearGradient>
<linearGradient id="paint35_linear" x1="323.588" y1="8.17138" x2="-39.4121" y2="277.671" gradientUnits="userSpaceOnUse">
<stop stop-color="#F4DAE1"/>
<stop offset="1" stop-color="white" stop-opacity="0"/>
</linearGradient>
<linearGradient id="paint36_linear" x1="323.588" y1="8.17138" x2="-39.4121" y2="277.671" gradientUnits="userSpaceOnUse">
<stop stop-color="#F4DAE1"/>
<stop offset="1" stop-color="white" stop-opacity="0"/>
</linearGradient>
<linearGradient id="paint37_linear" x1="323.588" y1="8.17138" x2="-39.4121" y2="277.671" gradientUnits="userSpaceOnUse">
<stop stop-color="#F4DAE1"/>
<stop offset="1" stop-color="white" stop-opacity="0"/>
</linearGradient>
<linearGradient id="paint38_linear" x1="323.588" y1="8.17138" x2="-39.4121" y2="277.671" gradientUnits="userSpaceOnUse">
<stop stop-color="#F4DAE1"/>
<stop offset="1" stop-color="white" stop-opacity="0"/>
</linearGradient>
<linearGradient id="paint39_linear" x1="323.588" y1="8.17138" x2="-39.4121" y2="277.671" gradientUnits="userSpaceOnUse">
<stop stop-color="#F4DAE1"/>
<stop offset="1" stop-color="white" stop-opacity="0"/>
</linearGradient>
<linearGradient id="paint40_linear" x1="323.588" y1="8.17138" x2="-39.4121" y2="277.671" gradientUnits="userSpaceOnUse">
<stop stop-color="#F4DAE1"/>
<stop offset="1" stop-color="white" stop-opacity="0"/>
</linearGradient>
<linearGradient id="paint41_linear" x1="323.588" y1="8.17138" x2="-39.4121" y2="277.671" gradientUnits="userSpaceOnUse">
<stop stop-color="#F4DAE1"/>
<stop offset="1" stop-color="white" stop-opacity="0"/>
</linearGradient>
<linearGradient id="paint42_linear" x1="323.588" y1="8.17138" x2="-39.4121" y2="277.671" gradientUnits="userSpaceOnUse">
<stop stop-color="#F4DAE1"/>
<stop offset="1" stop-color="white" stop-opacity="0"/>
</linearGradient>
<linearGradient id="paint43_linear" x1="323.588" y1="8.17138" x2="-39.4121" y2="277.671" gradientUnits="userSpaceOnUse">
<stop stop-color="#F4DAE1"/>
<stop offset="1" stop-color="white" stop-opacity="0"/>
</linearGradient>
<linearGradient id="paint44_linear" x1="323.588" y1="8.17138" x2="-39.4121" y2="277.671" gradientUnits="userSpaceOnUse">
<stop stop-color="#F4DAE1"/>
<stop offset="1" stop-color="white" stop-opacity="0"/>
</linearGradient>
<linearGradient id="paint45_linear" x1="323.588" y1="8.17138" x2="-39.4121" y2="277.671" gradientUnits="userSpaceOnUse">
<stop stop-color="#F4DAE1"/>
<stop offset="1" stop-color="white" stop-opacity="0"/>
</linearGradient>
<linearGradient id="paint46_linear" x1="323.588" y1="8.17138" x2="-39.4121" y2="277.671" gradientUnits="userSpaceOnUse">
<stop stop-color="#F4DAE1"/>
<stop offset="1" stop-color="white" stop-opacity="0"/>
</linearGradient>
<linearGradient id="paint47_linear" x1="323.588" y1="8.17138" x2="-39.4121" y2="277.671" gradientUnits="userSpaceOnUse">
<stop stop-color="#F4DAE1"/>
<stop offset="1" stop-color="white" stop-opacity="0"/>
</linearGradient>
<linearGradient id="paint48_linear" x1="323.588" y1="8.17138" x2="-39.4121" y2="277.671" gradientUnits="userSpaceOnUse">
<stop stop-color="#F4DAE1"/>
<stop offset="1" stop-color="white" stop-opacity="0"/>
</linearGradient>
<linearGradient id="paint49_linear" x1="323.588" y1="8.17138" x2="-39.4121" y2="277.671" gradientUnits="userSpaceOnUse">
<stop stop-color="#F4DAE1"/>
<stop offset="1" stop-color="white" stop-opacity="0"/>
</linearGradient>
<linearGradient id="paint50_linear" x1="323.588" y1="8.17138" x2="-39.4121" y2="277.671" gradientUnits="userSpaceOnUse">
<stop stop-color="#F4DAE1"/>
<stop offset="1" stop-color="white" stop-opacity="0"/>
</linearGradient>
<linearGradient id="paint51_linear" x1="323.588" y1="8.17138" x2="-39.4121" y2="277.671" gradientUnits="userSpaceOnUse">
<stop stop-color="#F4DAE1"/>
<stop offset="1" stop-color="white" stop-opacity="0"/>
</linearGradient>
<linearGradient id="paint52_linear" x1="323.588" y1="8.17138" x2="-39.4121" y2="277.671" gradientUnits="userSpaceOnUse">
<stop stop-color="#F4DAE1"/>
<stop offset="1" stop-color="white" stop-opacity="0"/>
</linearGradient>
<linearGradient id="paint53_linear" x1="323.588" y1="8.17138" x2="-39.4121" y2="277.671" gradientUnits="userSpaceOnUse">
<stop stop-color="#F4DAE1"/>
<stop offset="1" stop-color="white" stop-opacity="0"/>
</linearGradient>
<linearGradient id="paint54_linear" x1="323.588" y1="8.17138" x2="-39.4121" y2="277.671" gradientUnits="userSpaceOnUse">
<stop stop-color="#F4DAE1"/>
<stop offset="1" stop-color="white" stop-opacity="0"/>
</linearGradient>
</defs>
</svg>
