<svg width="32" height="32" viewBox="0 0 32 32" fill="none" xmlns="http://www.w3.org/2000/svg">
<path d="M29.7143 0H2.27858C1.02143 0 0 1.03571 0 2.30714V29.6929C0 30.9643 1.02143 32 2.27858 32H29.7143C30.9715 32 32.0001 30.9643 32.0001 29.6929V2.30714C32.0001 1.03571 30.9715 0 29.7143 0ZM9.67145 27.4286H4.92858V12.1571H9.67859V27.4286H9.67145ZM7.30001 10.0714C5.77858 10.0714 4.55001 8.83571 4.55001 7.32143C4.55001 5.80714 5.77858 4.57143 7.30001 4.57143C8.8143 4.57143 10.05 5.80714 10.05 7.32143C10.05 8.84286 8.82145 10.0714 7.30001 10.0714ZM27.4501 27.4286H22.7072V20C22.7072 18.2286 22.6715 15.95 20.2429 15.95C17.7715 15.95 17.3929 17.8786 17.3929 19.8714V27.4286H12.65V12.1571H17.2V14.2429H17.2643C17.9 13.0429 19.45 11.7786 21.7572 11.7786C26.5572 11.7786 27.4501 14.9429 27.4501 19.0571V27.4286Z" fill="white"/>
</svg>
