<svg width="215" height="97" viewBox="0 0 215 97" fill="none" xmlns="http://www.w3.org/2000/svg">
<path fill-rule="evenodd" clip-rule="evenodd" d="M214.944 0.635254H0.943848V96.6353H214.944V64.6353C206.107 64.6353 198.944 57.4718 198.944 48.6353C198.944 39.7987 206.107 32.6353 214.944 32.6353V0.635254Z" fill="#1D2A73"/>
<path d="M48.9438 24.6353L54.3322 41.2188H71.7692L57.6624 51.4681L63.0507 68.0517L48.9438 57.8024L34.837 68.0517L40.2253 51.4681L26.1185 41.2188H43.5555L48.9438 24.6353Z" fill="#F1E65F"/>
<path fill-rule="evenodd" clip-rule="evenodd" d="M214.944 0.635254H166.972V96.6353H214.944V64.6353C214.944 64.6353 214.943 64.6353 214.943 64.6353C206.107 64.6353 198.943 57.4718 198.943 48.6353C198.943 39.7987 206.107 32.6353 214.943 32.6353C214.943 32.6353 214.944 32.6353 214.944 32.6353V0.635254Z" fill="#1E2029"/>
<path d="M166.944 2.11646V96.6353" stroke="white" stroke-width="2" stroke-dasharray="4 4"/>
</svg>
